<svg version="1.1" xmlns="http://www.w3.org/2000/svg" xmlns:xlink="http://www.w3.org/1999/xlink" width="488.97898" height="435.58484" viewBox="0,0,488.97898,435.58484"><g transform="translate(17.75676,51.08183)"><g data-paper-data="{&quot;isPaintingLayer&quot;:true}" fill-rule="nonzero" stroke-linejoin="miter" stroke-miterlimit="10" stroke-dasharray="" stroke-dashoffset="0" style="mix-blend-mode: normal"><path d="M163.14682,373.75301l-12.57025,-14.23757v-42.45385h-89.59159v-85.94316h65.82239v-40.38293h42.0532v24.85104h62.16559v33.13471h70.39339v-38.31201h7.3136h19.1982v-62.12759h18.284v-22.78012h-40.2248v59.02121h-66.73659v-41.41839h-91.41999v-120.11334h233.12098" fill="none" stroke="#000000" stroke-width="7" stroke-linecap="round"/><path d="M201.98498,374.50301v-19.5v-45h86" fill="none" stroke="#000000" stroke-width="7" stroke-linecap="round"/><path d="M287.98498,312.00301v69" fill="none" stroke="#000000" stroke-width="7" stroke-linecap="round"/><path d="M341.98498,379.00301v-69" fill="none" stroke="#000000" stroke-width="7" stroke-linecap="round"/><path d="M344.98498,309.50301h69" fill="none" stroke="#000000" stroke-width="7" stroke-linecap="round"/><path d="M221.98498,73.50301h200v121h-26v13" fill="none" stroke="#000000" stroke-width="7" stroke-linecap="round"/><path d="M411.66366,363.17118v-363.36336h58.55856v363.36336z" fill="#000000" stroke="#000000" stroke-width="2" stroke-linecap="butt"/><path d="M-16.75676,364.67268v-366.36637h76.57658v366.36637z" fill="#1f1f1f" stroke="#000000" stroke-width="2" stroke-linecap="butt"/><path d="M78.08108,169.13739l52.55255,-52.55255" fill="none" stroke="#464646" stroke-width="2" stroke-linecap="round"/><path d="M106.60961,181.1494l36.03604,-36.03604" fill="none" stroke="#464646" stroke-width="2" stroke-linecap="round"/><path d="M147.15015,157.12538l-48.04805,48.04805" fill="none" stroke="#464646" stroke-width="2" stroke-linecap="round"/><path d="M81.08408,208.17643l50.3003,-50.3003" fill="none" stroke="#464646" stroke-width="2" stroke-linecap="round"/><path d="M75.07807,115.08334l63.81381,-63.81381" fill="none" stroke="#464646" stroke-width="2" stroke-linecap="round"/><path d="M78.08108,56.52478l57.80781,-57.80781" fill="none" stroke="#464646" stroke-width="2" stroke-linecap="round"/><path d="M186.18918,11.47974l14.26426,-14.26426" fill="none" stroke="#464646" stroke-width="2" stroke-linecap="round"/><path d="M211.71471,18.98724l39.78979,-39.78979" fill="none" stroke="#464646" stroke-width="2" stroke-linecap="round"/><path d="M288.29128,-17.04879l-34.53453,34.53453" fill="none" stroke="#464646" stroke-width="2" stroke-linecap="round"/><path d="M310.81381,18.98724l51.05105,-51.05105" fill="none" stroke="#464646" stroke-width="2" stroke-linecap="round"/><path d="M351.35435,20.48874l42.79279,-42.79279" fill="none" stroke="#464646" stroke-width="2" stroke-linecap="round"/><path d="M201.95495,-32.81456l-51.8018,51.8018" fill="none" stroke="#464646" stroke-width="2" stroke-linecap="round"/><path d="M78.08108,17.48574l67.56757,-67.56757" fill="none" stroke="#464646" stroke-width="2" stroke-linecap="round"/><path d="M171.17417,181.1494l30.78078,-30.78078" fill="none" stroke="#464646" stroke-width="2" stroke-linecap="round"/><path d="M190.69369,209.67793l48.7988,-48.7988" fill="none" stroke="#464646" stroke-width="2" stroke-linecap="round"/><path d="M250.75375,229.19745l24.77477,-24.77477" fill="none" stroke="#464646" stroke-width="2" stroke-linecap="round"/><path d="M271.77477,236.70496l45.04505,-45.04505" fill="none" stroke="#464646" stroke-width="2" stroke-linecap="round"/><path d="M244.74774,325.29355l-33.03303,33.03303" fill="none" stroke="#464646" stroke-width="2" stroke-linecap="round"/><path d="M241.74474,356.82508l30.78078,-30.78078" fill="none" stroke="#464646" stroke-width="2" stroke-linecap="round"/><path d="M349.85285,352.32058l37.53754,-37.53754" fill="none" stroke="#464646" stroke-width="2" stroke-linecap="round"/><path d="M420.42342,314.78304l-30.03003,30.03003l-24.77477,24.77477" fill="none" stroke="#464646" stroke-width="2" stroke-linecap="round"/><path d="M64.56756,352.32058l30.03003,-30.03003" fill="none" stroke="#464646" stroke-width="2" stroke-linecap="round"/><path d="M90.09309,352.32058l30.03003,-30.03003" fill="none" stroke="#464646" stroke-width="2" stroke-linecap="round"/><path d="M114.11711,358.32658l29.27928,-29.27928" fill="none" stroke="#464646" stroke-width="2" stroke-linecap="round"/><path d="M318.32132,181.1494v-37.53754" fill="none" stroke="#464646" stroke-width="2" stroke-linecap="round"/><path d="M321.32432,146.61487h18.01802" fill="none" stroke="#464646" stroke-width="2" stroke-linecap="round"/><path d="M373.73273,266.00301v-10h42" fill="none" stroke="#000000" stroke-width="7" stroke-linecap="round"/><path d="M373.73273,261.00301h43" fill="none" stroke="#000000" stroke-width="7" stroke-linecap="round"/><text transform="translate(10.23273,108.003) scale(0.40451,0.5)" font-size="40" xml:space="preserve" fill="#ffffff" fill-rule="nonzero" stroke="none" stroke-width="1" stroke-linecap="butt" stroke-linejoin="miter" stroke-miterlimit="10" stroke-dasharray="" stroke-dashoffset="0" font-family="Sans Serif" font-weight="normal" text-anchor="start" style="mix-blend-mode: normal"><tspan x="0" dy="0">Click</tspan><tspan x="0" dy="46.150000000000006px">Here</tspan><tspan x="0" dy="46.150000000000006px">If</tspan><tspan x="0" dy="46.150000000000006px">You're</tspan><tspan x="0" dy="46.150000000000006px">Stuck</tspan><tspan x="0" dy="46.150000000000006px">In</tspan><tspan x="0" dy="46.150000000000006px">A</tspan><tspan x="0" dy="46.150000000000006px">Wall</tspan></text><text transform="translate(414.23273,113.003) scale(0.42187,0.5)" font-size="40" xml:space="preserve" fill="#ffffff" fill-rule="nonzero" stroke="none" stroke-width="1" stroke-linecap="butt" stroke-linejoin="miter" stroke-miterlimit="10" stroke-dasharray="" stroke-dashoffset="0" font-family="Sans Serif" font-weight="normal" text-anchor="start" style="mix-blend-mode: normal"><tspan x="0" dy="0">Use </tspan><tspan x="0" dy="46.150000000000006px">The</tspan><tspan x="0" dy="46.150000000000006px">Arrow</tspan><tspan x="0" dy="46.150000000000006px">Keys!</tspan></text></g></g></svg>