<svg version="1.1" xmlns="http://www.w3.org/2000/svg" xmlns:xlink="http://www.w3.org/1999/xlink" width="629.62763" height="444.94293" viewBox="0,0,629.62763,444.94293"><g transform="translate(67.30631,26.70565)"><g data-paper-data="{&quot;isPaintingLayer&quot;:true}" fill-rule="nonzero" stroke-linecap="butt" stroke-linejoin="miter" stroke-miterlimit="10" stroke-dasharray="" stroke-dashoffset="0" style="mix-blend-mode: normal"><path d="M-22.76276,406.72678v-432.43243h545.04505v432.43243z" fill="#d6d6d6" stroke="#000000" stroke-width="2"/><path d="M-66.30631,417.23728v-177.17718h627.62763v177.17718z" fill="#949494" stroke="#000000" stroke-width="2"/><path d="M182.94294,155.976v-114.11411h132.13213v114.11411z" fill="#98d7ff" stroke="#000000" stroke-width="2"/><path d="M200.96099,157.4775v-112.61261h10.51051v112.61261z" fill="#848484" stroke="#000000" stroke-width="2"/><path d="M220.48049,157.4775v-115.61562h10.51051v115.61562z" fill="#848484" stroke="#000000" stroke-width="2"/><path d="M241.50152,157.4775v-112.61261h10.51051v112.61261z" fill="#848484" stroke="#000000" stroke-width="2"/><path d="M265.52554,157.4775v-114.11411h7.50751v114.11411z" fill="#848484" stroke="#000000" stroke-width="2"/><path d="M285.2675,158.97901v-114.11411h10.56612v114.11411z" fill="#848484" stroke="#000000" stroke-width="2"/><path d="M306.78042,166.749c11.38105,0 20.60719,9.64081 20.60719,21.53336c0,11.89255 -9.22615,21.53336 -20.60719,21.53336c-11.38105,0 -20.6072,-9.64081 -20.6072,-21.53336c0,-11.89255 9.22616,-21.53336 20.6072,-21.53336z" data-paper-data="{&quot;index&quot;:null}" fill="#d29460" stroke="#000000" stroke-width="2"/><path d="M278.48893,252.72222c5.41873,0 9.81148,4.25759 9.81148,9.50959c0,5.252 -4.39275,9.50959 -9.81148,9.50959c-5.41873,0 -9.81148,-4.25759 -9.81148,-9.50959c0,-5.252 4.39275,-9.50959 9.81148,-9.50959z" data-paper-data="{&quot;index&quot;:null}" fill="#ff0000" stroke="#000000" stroke-width="5"/><path d="M309.412,222.20932c7.66462,-0.6632 14.98133,11.55014 16.34234,27.27927c1.36101,15.72913 -3.74908,29.01774 -11.4137,29.68094c-7.66462,0.6632 -14.98133,-11.55014 -16.34235,-27.27927c-1.36101,-15.72913 3.74908,-29.01774 11.41371,-29.68094z" data-paper-data="{&quot;index&quot;:null}" fill="#ff0000" stroke="#000000" stroke-width="5"/><path d="M341.38396,297.41883c6.08771,0 11.02277,2.87427 11.02277,6.41986c0,3.54559 -4.93506,6.41986 -11.02277,6.41986c-6.08771,0 -11.02277,-2.87427 -11.02277,-6.41986c0,-3.54559 4.93506,-6.41986 11.02277,-6.41986z" data-paper-data="{&quot;index&quot;:null}" fill="#ff0000" stroke="#000000" stroke-width="5"/><path d="M308.02457,298.38731c6.08771,0 11.02277,2.87426 11.02277,6.41985c0,3.54559 -4.93506,6.41985 -11.02277,6.41985c-6.0877,0 -11.02277,-2.87426 -11.02277,-6.41985c0,-3.54559 4.93506,-6.41985 11.02277,-6.41985z" data-paper-data="{&quot;index&quot;:null}" fill="#ff0000" stroke="#000000" stroke-width="5"/><path d="M303.5257,166.89708c1.7985,-0.03466 7.23539,-1.23033 8.69874,0.56618c1.19553,1.46772 9.95755,3.73715 10.33325,7.33322c0.45485,-0.088 0.82342,-0.00141 1.06758,0.32413c0.89578,1.19438 -1.38708,2.19145 -2.02353,2.63529c-2.51002,1.75042 -5.07661,4.51493 -7.79883,5.8044c-3.32701,1.57595 -1.93333,-3.09904 -2.24521,-3.12778c-2.11883,-0.19523 -4.99681,1.22268 -7.23571,1.28156c-4.36122,0.11469 -8.46442,-0.26607 -12.80749,-0.34641c-0.55121,-0.0102 -3.3739,0.11064 -3.78499,-0.60877c-0.29474,-0.17395 -0.49247,-0.49479 -0.49247,-0.86182c0,-0.49706 0.36266,-0.90942 0.83781,-0.98691c1.37581,-6.33275 9.22971,-11.89321 15.45085,-12.01309z" fill="#000000" stroke="none" stroke-width="0.5"/><g fill="#000000" stroke="none" stroke-width="0.5"><path d="M292.04276,194.1358c-1.668,0 -1.668,-1.668 -1.668,-1.668l0.01463,-0.37527c-0.34511,-2.59248 -0.61035,-4.98782 -0.61035,-7.60731c0,0 0,-1.668 1.668,-1.668c1.668,0 1.668,1.668 1.668,1.668c0,2.47742 0.25351,4.71337 0.58108,7.16641l0.01463,0.81616c0,0 0,1.668 -1.668,1.668z"/><path d="M297.52335,193.65925c-1.668,0 -1.668,-1.668 -1.668,-1.668l0.01676,-0.00239c-0.35855,-2.52058 -0.37419,-4.96093 -0.37419,-7.50361c0,0 0,-1.668 1.668,-1.668c1.668,0 1.668,1.668 1.668,1.668c0,2.38598 0.00146,4.66817 0.34066,7.03182l0.01676,0.47418c0,0 0,1.668 -1.668,1.668z"/><path d="M304.67193,200.8078c0,1.668 -1.668,1.668 -1.668,1.668l-1.42941,-0.00424c-1.8419,-0.15079 -3.1094,0.24488 -4.89108,0.77046c0,0 -1.60022,0.47065 -2.07088,-1.12957c-0.47065,-1.60022 1.12957,-2.07088 1.12957,-2.07088c2.15042,-0.63072 3.82916,-1.03976 6.07006,-0.89754l1.19173,-0.00424c0,0 1.668,0 1.668,1.668z"/></g><path d="M303.94858,239.75894c-0.54488,5.39127 -5.2226,9.33363 -10.44798,8.80552c-5.22538,-0.52811 -9.01968,-5.32672 -8.4748,-10.71798c0.54488,-5.39127 5.2226,-9.33363 10.44798,-8.80552c5.22538,0.52811 9.01968,5.32672 8.4748,10.71798z" data-paper-data="{&quot;index&quot;:null}" fill="#ff0000" stroke="#000000" stroke-width="5"/><g fill="#7c7c7c" stroke="none"><path d="M148.26927,299.67919l-45.96326,-39.39462l7.87893,-9.19266l45.96326,39.39462z" stroke-width="0"/><path d="M110.32617,251.25693c2.12841,1.82424 2.06366,5.39173 -0.14463,7.96822c-2.20828,2.57649 -5.72385,3.18632 -7.85227,1.36209c-2.12841,-1.82424 -2.06362,-5.39173 0.14463,-7.96822c2.20828,-2.57649 5.72385,-3.18632 7.85227,-1.36209z" stroke-width="0"/><path d="M174.63803,288.08262c2.78633,2.38813 -0.70033,1.92447 -2.21351,4.15024c-2.10657,3.09858 -5.79803,7.45489 -9.70934,12.01837c-3.9342,4.59019 -8.27652,9.22507 -10.63978,11.3017c-1.67394,1.4709 0.98783,3.29496 -1.77576,0.92631c-6.66526,-5.71274 -6.62021,-16.70059 0.10066,-24.54211c6.72087,-7.84151 17.57248,-9.5672 24.23774,-3.85449z" stroke-width="0"/><path d="M174.78661,289.00389c0.21498,0.18424 0.31692,0.3772 0.35259,0.55915c0.59273,1.30244 1.57078,2.25071 2.24651,3.50947c0.74305,1.38425 0.6319,2.83697 1.58576,4.12723c1.10315,1.49221 2.59642,2.2658 3.50993,4.05235c3.66898,3.05986 1.72156,6.11427 1.10392,9.99103c-0.43518,2.73138 1.10668,4.9015 0.15432,7.75135c-1.51531,4.53451 -7.79212,5.00365 -11.63027,4.04309c-2.28926,-1.15779 -4.43492,-0.88882 -6.83606,-1.10022c-1.56306,-0.13765 -2.9068,-0.90373 -4.33284,-1.44361c-3.12108,-1.18161 -6.41349,-1.82705 -9.48163,-3.16978c-0.21775,0.18289 -0.72724,0.49062 -1.29807,0.00137c-0.53994,-0.46277 -0.36682,-0.98044 -0.22176,-1.24089c-0.01165,-0.15814 0.02032,-0.33984 0.12293,-0.54508c0.20931,-0.41869 0.51665,-0.5434 0.78437,-0.55762c4.56926,-5.41125 8.89434,-11.19131 13.57714,-16.6549c2.52871,-2.95036 4.47442,-6.85128 8.25369,-8.35731l0.1296,-0.1588c-0.12806,-0.26121 -0.18559,-0.63794 0.16416,-1.04601c0.65078,-0.75928 1.41005,-0.10852 1.41005,-0.10852l0.1808,0.19212c0.07348,0.0391 0.14863,0.09023 0.22486,0.15557z" stroke-width="0.5"/><path d="M84.65004,244.02722l-0.10537,0.12294c-0.40412,3.22082 0.76534,6.57647 3.41447,8.84701c4.19337,3.5941 10.50635,3.10829 14.10045,-1.08511c3.5941,-4.19337 3.10829,-10.50635 -1.08511,-14.10045c-2.79264,-2.39353 -6.52533,-2.97761 -9.76898,-1.86218c-2.39782,2.17049 -4.10251,5.54297 -6.58954,7.72525c-0.01652,0.09462 -0.03166,0.18943 -0.04544,0.28435zM102.24243,257.56053c-1.29154,0.56291 -1.95298,1.14024 -3.45846,1.27123c0,0 -0.71274,0.05487 -0.97938,-0.53081c-0.22363,0.01124 -0.43825,0.03454 -0.63793,0.07942c-5.08517,1.14236 -9.00627,-1.49057 -13.37514,-3.9269c-1.63692,-1.47065 -3.84691,-2.26388 -5.49649,-4.00089c-0.41309,-0.43499 -1.22046,-0.78133 -1.15763,-1.37794c0.15588,-1.47995 3.16547,-4.14335 4.14238,-5.28317c3.62409,-4.22836 7.24819,-8.45673 10.87229,-12.68512c0.19764,-0.2306 1.88205,-2.28203 2.23385,-2.34211c2.60688,-0.44522 4.60556,2.99366 6.55452,4.0074c5.72713,2.97895 8.44203,8.26025 8.95489,14.65828c0.57231,2.59084 0.65803,3.89638 -0.48669,6.28307c-0.99789,2.72143 -4.59852,2.72848 -7.16623,3.84755z" stroke-width="0.5"/></g></g></g></svg>