<svg version="1.1" xmlns="http://www.w3.org/2000/svg" xmlns:xlink="http://www.w3.org/1999/xlink" width="629" height="431" viewBox="0,0,629,431"><g transform="translate(78.5,55)"><g data-paper-data="{&quot;isPaintingLayer&quot;:true}" fill-rule="nonzero" stroke-linejoin="miter" stroke-miterlimit="10" stroke-dasharray="" stroke-dashoffset="0" style="mix-blend-mode: normal"><path d="M-55.5,194v-248h570v248z" fill="#2bf0ff" stroke="#000000" stroke-width="2" stroke-linecap="butt"/><path d="M-70.5,214v-23h619v23z" fill="#ffb62c" stroke="#000000" stroke-width="2" stroke-linecap="butt"/><path d="M141,28c0,2.5 -2.5,2.5 -2.5,2.5l-2.59954,-0.03228c-6.82932,2.27644 -14.17414,0.31621 -21.24647,1.03906c-1.6596,0.16962 -3.25206,0.77587 -4.90764,0.98105c-1.72132,0.21333 -3.60409,-0.03255 -5.14797,0.75795c-1.38224,0.70774 -3.3206,1.23026 -3.78868,2.71092c-0.29759,0.94135 0.45404,2.07726 0.01547,2.96177c-0.74885,1.51026 -2.46799,2.34956 -3.35869,3.78075c-0.81756,1.31366 -0.86368,3.01415 -1.68588,4.32491c-0.0185,0.02949 -0.0371,0.05891 -0.05581,0.08826l0.01127,0.00564l-1.97578,3.95156c-0.40086,0.84561 -1.26228,1.43041 -2.26029,1.43041c-1.1246,0 -2.07576,-0.74256 -2.38994,-1.76412l-0.93973,-2.8192c-1.13648,-2.2842 -2.59937,-6.33343 -4.98466,-7.79006c-2.04217,-1.24709 -2.72479,-0.26535 -5.08613,-0.65891c-1.03975,-0.17329 -1.95435,-0.86685 -3,-1c-3.17423,-0.4042 -6.39968,0.03228 -9.59954,0.03228c0,0 -2.5,0 -2.5,-2.5c0,-2.5 2.5,-2.5 2.5,-2.5c0.57552,0 10.05669,-0.00996 10.40046,0.03228c1.04622,0.12856 1.96025,0.82671 3,1c2.31564,0.38594 4.89582,0.14169 6.91387,1.34109c2.75167,1.63542 4.48828,4.97355 5.92692,7.95983c0.26932,-1.36079 0.79247,-2.6802 1.50618,-3.81719c0.73457,-1.17021 2.31673,-1.6951 2.9274,-2.93448c0.44762,-0.90847 -0.4044,-2.11661 0.01547,-3.03823c2.33558,-5.12674 8.39321,-5.95102 13.06335,-6.53112c1.65239,-0.20525 3.2413,-0.81485 4.89816,-0.98011c6.95709,-0.6939 14.25183,1.23219 20.94772,-0.99978l3.40046,-0.03228c0,0 2.5,0 2.5,2.5z" fill="#000000" stroke="none" stroke-width="0.5" stroke-linecap="butt"/><path d="M405,26c0,2.5 -2.5,2.5 -2.5,2.5l-1.39366,-0.07464c-2.42231,0.6044 -4.74441,1.62521 -7.20588,2.04236c-2.93722,0.49778 -5.47251,0.3689 -8.30208,1.77807c-1.19324,0.59425 -2.10869,1.72722 -3.37392,2.14694c-1.72733,0.57301 -3.88162,-0.25386 -5.41013,0.7339c-2.43491,1.57348 -2.52804,5.3892 -7.12567,4.23806c-1.63835,-0.4102 -1.7033,-2.9179 -2.49836,-4.40797c-0.56566,-1.06014 -1.49628,-3.98303 -3.00463,-4.83008c-2.01858,-1.13359 -4.56877,-0.92924 -6.69706,-1.84034c-1.01385,-0.43402 -1.65625,-1.57832 -2.71308,-1.89356c-2.00486,-0.59801 -4.18339,0.10727 -6.27554,0.10727c0,0 -2.5,0 -2.5,-2.5c0,-2.5 2.5,-2.5 2.5,-2.5c1.23993,0 7.2541,-0.0227 7.72446,0.10727c1.25432,0.34659 2.09103,1.59334 3.28692,2.10644c3.10032,1.3302 4.34447,0.31865 7.30294,2.15966c2.30094,1.43184 4.28376,4.73682 4.99537,7.16992c0.1561,0.53371 -1.04124,1.47166 -0.49836,1.59203c0.54699,0.12128 0.26353,-1.12347 0.60369,-1.56867c1.75582,-2.29803 3.24978,-2.97052 6.18452,-3.53436c0.87632,-0.16837 1.82995,0.35871 2.676,0.07499c1.01576,-0.34064 1.66861,-1.37238 2.62608,-1.85306c0.23852,-0.11975 6.47558,-2.18379 6.69792,-2.22193c0.98561,-0.16905 2.01311,0.16142 3,0c2.32593,-0.38045 4.50789,-1.38502 6.79412,-1.95764l2.60634,-0.07464c0,0 2.5,0 2.5,2.5z" fill="#000000" stroke="none" stroke-width="0.5" stroke-linecap="butt"/><path d="M242,43c0,-2.5 2.5,-2.5 2.5,-2.5h1c0.48002,0 6.14144,-0.00949 6.40046,0.03228c1.72442,0.27812 3.41947,0.8862 5.15815,0.96076c2.17588,0.00298 4.98598,0.03662 5.3981,0.19726c1.10045,0.42893 1.70361,1.6415 2.62826,2.37634c1.08882,0.86531 2.54693,1.31883 3.40179,2.41587c1.34444,1.72531 0.99584,4.3389 2.13986,6.20316c0.46283,0.75422 1.41699,1.11206 1.90148,1.85255c0.54766,0.83705 0.98183,1.73957 1.40179,2.65028c0.51722,-1.89732 1.50129,-3.7832 2.30777,-5.15702c1.31658,-2.24278 3.83792,-3.94287 6.00752,-5.19376c5.47819,-3.15849 11.37327,-5.00528 17.5206,-6.23576l2.95258,-0.97664c0,0 2.37467,-0.78163 3.1563,1.59304c0.78163,2.37467 -1.59304,3.1563 -1.59304,3.1563l-3.24161,1.0622c-5.7409,1.14723 -11.14479,2.81939 -16.2852,5.7254c-1.25638,0.71026 -3.49737,2.10216 -4.27857,3.52147c-1.27,2.30738 -1.13756,5.31711 -2.73045,7.41463c-0.06719,0.08848 -0.13584,0.17564 -0.20584,0.26159l0.04018,0.02678l-1.97849,2.96774c-0.44514,0.68925 -1.2201,1.14551 -2.10163,1.14551c-1.18975,0 -2.18539,-0.83109 -2.43804,-1.9444l-0.93753,-3.75012c-0.99549,-1.97907 -2.62536,-3.58183 -3.75106,-5.49116c-1.03065,-1.74812 -0.56125,-4.23766 -1.86014,-5.79684c-0.64924,-0.77935 -1.80923,-0.94662 -2.59821,-1.58413c-0.55109,-0.44529 -0.71843,-1.34945 -1.37174,-1.62366c-0.47897,-0.20103 -0.97861,-0.2858 -1.49095,-0.30087c-0.70745,0.49118 -1.55234,0.49118 -1.55234,0.49118c-0.64457,-0.00612 -1.27709,-0.03454 -1.90156,-0.07817c-0.36932,0.04686 -0.73637,0.07817 -1.09844,0.07817c0,0 -0.60923,0 -1.2262,-0.30075c-2.54651,-0.29479 -5.04079,-0.69925 -7.7738,-0.69925h-1c0,0 -2.5,0 -2.5,-2.5z" fill="#000000" stroke="none" stroke-width="0.5" stroke-linecap="butt"/><path d="M-77.5,375v-165h627v165z" fill="#7d7d7d" stroke="#000000" stroke-width="2" stroke-linecap="butt"/><path d="M13.5,292v-17h147v17z" fill="#ffffff" stroke="#000000" stroke-width="2" stroke-linecap="butt"/><path d="M206.5,290v-17h147v17z" fill="#ffffff" stroke="#000000" stroke-width="2" stroke-linecap="butt"/><path d="M386.5,290v-17h147v17z" fill="#ffffff" stroke="#000000" stroke-width="2" stroke-linecap="butt"/><g><path d="M35.85907,12.50925c-3.01497,-8.5995 1.51218,-18.01487 10.11166,-21.02984c8.5995,-3.01497 18.01487,1.51218 21.02984,10.11166c3.01497,8.5995 -1.51218,18.01487 -10.11166,21.02984c-8.5995,3.01497 -18.01487,-1.51218 -21.02984,-10.11166z" fill="#000000" stroke="#00ff08" stroke-width="2" stroke-linecap="butt"/><path d="M63.03161,7.89793l-1.59287,-7.56576" fill="none" stroke="#00ff08" stroke-width="2" stroke-linecap="round"/><path d="M56.90832,0.50763l1.49888,8.30516" fill="none" stroke="#00ff08" stroke-width="2" stroke-linecap="round"/><path d="M58.57511,-0.7832l-5.5067,-1.60162" fill="none" stroke="#00ff08" stroke-width="2" stroke-linecap="round"/><path d="M61.94883,12.86949c0,0 -2.87642,-0.65724 -3.7696,-1.22674c-0.74958,-0.47793 -2.28854,-1.94767 -2.28854,-1.94767" fill="none" stroke="#00ff08" stroke-width="2" stroke-linecap="round"/><g><path d="M55.74491,25.61952c6.14152,-0.94112 12.86645,9.6916 15.02057,23.74883c2.15411,14.05724 -1.07832,26.21582 -7.21981,27.15694c-6.14152,0.94112 -12.86645,-9.6916 -15.02057,-23.74883c-2.15411,-14.05724 1.07832,-26.21582 7.21981,-27.15694z" fill="#000000" stroke="#00ff08" stroke-width="2" stroke-linecap="butt"/><path d="M25.64925,53.36997c-0.52253,-5.49807 3.51095,-10.37873 9.00903,-10.90126c5.49807,-0.52253 10.37873,3.51095 10.90126,9.00903c0.52253,5.49807 -3.51095,10.37873 -9.00903,10.90126c-5.49807,0.52253 -10.37873,-3.51095 -10.90126,-9.00903z" fill="#000000" stroke="#00ff08" stroke-width="2" stroke-linecap="butt"/><path d="M78.70575,38.74994c-0.52253,-5.49807 3.51095,-10.37873 9.00903,-10.90126c5.49807,-0.52253 10.37873,3.51095 10.90126,9.00903c0.52253,5.49807 -3.51095,10.37873 -9.00903,10.90126c-5.49807,0.52253 -10.37873,-3.51095 -10.90126,-9.00903z" fill="#000000" stroke="#00ff08" stroke-width="2" stroke-linecap="butt"/><path d="M73.88809,85.58051c-0.23138,-3.87282 4.01861,-7.5449 9.49261,-8.20183c5.474,-0.65693 10.09911,1.95007 10.33049,5.82289c0.23138,3.87282 -4.01861,7.5449 -9.49261,8.20183c-5.474,0.65693 -10.09911,-1.95007 -10.33049,-5.82289z" fill="#000000" stroke="#00ff08" stroke-width="2" stroke-linecap="butt"/><path d="M48.11385,99.37684c-0.23138,-3.87282 4.01861,-7.5449 9.49261,-8.20183c5.474,-0.65693 10.09911,1.95007 10.33049,5.82289c0.23138,3.87282 -4.01861,7.5449 -9.49261,8.20183c-5.474,0.65693 -10.09911,-1.95007 -10.33049,-5.82289z" fill="#000000" stroke="#00ff08" stroke-width="2" stroke-linecap="butt"/><path d="M134.29041,41.85067c-3.0365,11.33643 -10.09306,19.29563 -15.76128,17.77738c-5.66821,-1.51825 -7.80165,-11.93902 -4.76515,-23.27545c3.0365,-11.33643 10.09306,-19.29563 15.76128,-17.77738c5.66821,1.51825 7.80165,11.93902 4.76515,23.27545z" fill="#ff0000" stroke="#000000" stroke-width="2" stroke-linecap="butt"/><path d="M100.0625,22.54959c-0.1786,-4.13829 3.03134,-7.63781 7.16963,-7.81642c4.13829,-0.1786 7.63781,3.03134 7.81642,7.16963c0.1786,4.13829 -3.03134,7.63781 -7.16963,7.81642c-4.13829,0.1786 -7.63781,-3.03134 -7.81642,-7.16963z" fill="#ff0000" stroke="#000000" stroke-width="2" stroke-linecap="butt"/><path d="M152.90215,30.13334c-0.19051,-4.41417 3.23344,-8.147 7.64761,-8.33751c4.41417,-0.19051 8.147,3.23344 8.33751,7.64761c0.19051,4.41417 -3.23344,8.147 -7.64761,8.33751c-4.41417,0.19051 -8.147,-3.23344 -8.33751,-7.64761z" fill="#ff0000" stroke="#000000" stroke-width="2" stroke-linecap="butt"/><path d="M123.00641,78.4333c-0.27436,2.81713 -4.61862,4.69946 -9.70319,4.20429c-5.08459,-0.49516 -8.98404,-3.18031 -8.7097,-5.99744c0.27436,-2.81713 4.61862,-4.69946 9.70319,-4.20429c5.08459,0.49516 8.98404,3.18031 8.7097,5.99744z" fill="#ff0000" stroke="#000000" stroke-width="2" stroke-linecap="butt"/><path d="M141.95449,74.63838c4.62793,3.13869 7.02888,7.67474 5.36266,10.13154c-1.66622,2.4568 -6.76864,1.90402 -11.39657,-1.23467c-4.62793,-3.13869 -7.02888,-7.67474 -5.36266,-10.13154c1.66622,-2.4568 6.76864,-1.90402 11.39657,1.23467z" fill="#ff0000" stroke="#000000" stroke-width="2" stroke-linecap="butt"/><path d="M137.94939,14.85548c-7.9974,-2.16122 -12.72855,-10.3964 -10.56733,-18.39379c2.16122,-7.9974 10.3964,-12.72855 18.39379,-10.56733c7.9974,2.16122 12.72855,10.3964 10.56733,18.39379c-2.16122,7.9974 -10.3964,12.72855 -18.39379,10.56733z" fill="#c19f67" stroke="#000000" stroke-width="2" stroke-linecap="butt"/><path d="M135.61539,-0.16669c-0.24504,-1.17669 -0.21225,-2.59296 -0.08679,-3.55635c-0.90085,-0.07721 -1.79407,-0.19713 -2.6675,-0.42429l-1.93074,-0.52177c0,0 -2.41343,-0.65221 -1.76122,-3.06563c0.49286,-1.82381 1.99152,-1.89693 2.69436,-1.8238c0.00299,-0.01176 0.00609,-0.02351 0.00926,-0.03526c0.16563,-0.61288 0.54528,-1.11066 1.0367,-1.4346l2.20108,-1.46747l0.01589,0.02383c0.75757,-0.69193 1.70826,-1.20613 3.19167,-1.54633c1.91728,-0.4397 5.64423,-0.53276 7.97116,0.81852c3.32208,1.12774 6.34373,3.5521 9.02249,5.43471c0,0 1.13229,0.79596 1.11965,2.04589c0.39814,0.39524 0.69255,0.9958 0.63182,1.90713c-0.16623,2.49447 -2.66069,2.32824 -2.66069,2.32824c-2.77433,-0.18749 -5.58053,0.175 -8.34038,-0.16454c-1.51097,-0.18589 -2.93775,-0.81514 -4.39234,-1.28973c-0.81863,1.58946 -1.70063,2.80449 -3.22395,3.75436c-0.53824,0.33563 -1.01239,1.2777 -1.59782,1.0335c-0.61084,-0.25479 -0.981,-0.95935 -1.18875,-1.82081c-0.02101,-0.06317 -0.03581,-0.12868 -0.04388,-0.19561z" fill="#000000" stroke="none" stroke-width="0.5" stroke-linecap="butt"/><path d="M150.29325,0.82251l-0.82173,4.95729" fill="none" stroke="#ffffff" stroke-width="2" stroke-linecap="round"/><path d="M144.76851,0.64228l-0.93263,4.40938" fill="none" stroke="#ffffff" stroke-width="2" stroke-linecap="round"/><path d="M141.29201,4.88214l1.4742,2.21116" fill="none" stroke="#ffffff" stroke-width="1" stroke-linecap="round"/><path d="M150.02603,8.51933l2.27638,-1.71554" fill="none" stroke="#ffffff" stroke-width="1" stroke-linecap="round"/><path d="M146.34066,7.28236c1.1996,0.32418 1.95308,1.39738 1.68293,2.39705c-0.27016,0.99967 -1.46164,1.54726 -2.66124,1.22308c-1.19961,-0.32418 -3.17933,-0.69289 -2.90918,-1.69256c0.27015,-0.99967 2.68789,-2.25175 3.88749,-1.92757z" fill="#000000" stroke="none" stroke-width="0" stroke-linecap="butt"/></g></g></g></g></svg>