<svg version="1.1" xmlns="http://www.w3.org/2000/svg" xmlns:xlink="http://www.w3.org/1999/xlink" width="585" height="613.04026" viewBox="0,0,585,613.04026"><g transform="translate(41.49996,26.70537)"><g data-paper-data="{&quot;isPaintingLayer&quot;:true}" fill-rule="nonzero" stroke-linecap="butt" stroke-linejoin="miter" stroke-miterlimit="10" stroke-dasharray="" stroke-dashoffset="0" style="mix-blend-mode: normal"><path d="M-22.76264,406.72706v-432.43243h545.04505v432.43243z" fill="#cbcbcb" stroke="#ffffff" stroke-width="2"/><path d="M-41.49996,586.33489v-279.00601h585v279.00601z" fill="#8c8c8c" stroke="none" stroke-width="0"/><path d="M60.29926,313.85706v-172h57v172z" fill="#636363" stroke="#000000" stroke-width="0.5"/><path d="M115.79776,315.35848v-172h57v172z" fill="#636363" stroke="#000000" stroke-width="0.5"/><path d="M115.11424,249.68487c0,5.39017 -4.36959,9.75976 -9.75976,9.75976c-5.39017,0 -9.75976,-4.36959 -9.75976,-9.75976c0,-5.39017 4.36959,-9.75976 9.75976,-9.75976c5.39017,0 9.75976,4.36959 9.75976,9.75976z" fill="#c4c4c4" stroke="#000000" stroke-width="0.5"/><path d="M126.3755,241.42669c4.56091,0 8.25826,4.03347 8.25826,9.00901c0,4.97554 -3.69735,9.00901 -8.25826,9.00901c-4.56091,0 -8.25826,-4.03347 -8.25826,-9.00901c0,-4.97554 3.69735,-9.00901 8.25826,-9.00901z" fill="#c4c4c4" stroke="#000000" stroke-width="0.5"/><path d="M329.46266,347.25555c-2.42307,6.21639 -9.58672,9.22913 -16.00046,6.72914c-6.41374,-2.49999 -9.64881,-9.56602 -7.22574,-15.78241c2.42307,-6.21639 9.58672,-9.22913 16.00046,-6.72914c6.41374,2.49999 9.64881,9.56602 7.22574,15.78241z" data-paper-data="{&quot;index&quot;:null}" fill="#ff0000" stroke="#000000" stroke-width="5"/><path d="M264.41687,288.8384c6.66157,0.37189 11.7508,6.24509 11.36709,13.11814c-0.38369,6.87304 -6.09502,12.14328 -12.75658,11.77137c-6.66157,-0.37189 -11.7508,-6.24509 -11.36709,-13.11814c0.38369,-6.87304 6.09502,-12.14327 12.75658,-11.77137z" data-paper-data="{&quot;index&quot;:null}" fill="#ff0000" stroke="#000000" stroke-width="5"/><text transform="translate(38.53758,130.31546) scale(0.5,0.5)" font-size="40" xml:space="preserve" fill="#ff0000" fill-rule="nonzero" stroke="none" stroke-width="1" stroke-linecap="butt" stroke-linejoin="miter" stroke-miterlimit="10" stroke-dasharray="" stroke-dashoffset="0" font-family="Sans Serif" font-weight="normal" text-anchor="start" style="mix-blend-mode: normal"><tspan x="0" dy="0">EMERGANCY EXIT</tspan></text><path d="M211.18851,354.48724v-41.5h77.5v41.5z" fill="#181818" stroke="none" stroke-width="0"/><path d="M223.51763,322.75479c2.10604,-5.40304 8.19335,-8.0758 13.5964,-5.96976c5.40304,2.10604 8.0758,8.19335 5.96976,13.5964c-2.10604,5.40304 -8.19335,8.0758 -13.5964,5.96976c-5.40304,-2.10604 -8.0758,-8.19335 -5.96976,-13.5964z" fill="#000000" stroke="#0cff00" stroke-width="2"/><g><path d="M328.86414,322.27524c-6.54013,13.61887 -22.40736,19.58537 -35.44049,13.32653c-13.03311,-6.25883 -18.29671,-22.37287 -11.75659,-35.99175c6.54012,-13.61887 22.40734,-19.58537 35.44047,-13.32652c13.03311,6.25883 18.29671,22.37287 11.75659,35.99175z" data-paper-data="{&quot;index&quot;:null}" fill="#d29460" stroke="#000000" stroke-width="2"/><path d="M270.5349,376.35954c-14.59682,14.94552 -32.33373,21.29514 -39.61651,14.18231c-7.28277,-7.11285 -1.35359,-24.9947 13.24323,-39.94022c14.59681,-14.94554 32.3337,-21.29516 39.6165,-14.18231c7.28279,7.11287 1.35361,24.99472 -13.24322,39.94023z" data-paper-data="{&quot;index&quot;:null}" fill="#ff0000" stroke="#000000" stroke-width="5"/><path d="M196.18547,388.5278c-3.50924,2.82363 -10.28421,0.22815 -15.13234,-5.79713c-4.84812,-6.0253 -5.93347,-13.19878 -2.42424,-16.02241c3.50924,-2.82363 10.28421,-0.22815 15.13234,5.79713c4.84812,6.0253 5.93347,13.19878 2.42424,16.02241z" data-paper-data="{&quot;index&quot;:null}" fill="#ff0000" stroke="#000000" stroke-width="5"/><path d="M214.82248,409.04823c-3.50191,2.83272 -10.28359,0.25483 -15.14731,-5.75787c-4.86373,-6.01271 -5.96772,-13.18333 -2.46583,-16.01605c3.50191,-2.83272 10.28358,-0.25484 15.14731,5.75787c4.86373,6.01271 5.96772,13.18333 2.46583,16.01605z" data-paper-data="{&quot;index&quot;:null}" fill="#ff0000" stroke="#000000" stroke-width="5"/><path d="M321.21645,288.53005c0.95593,0.01883 1.90228,0.1025 2.71309,0.62781c3.18254,2.06188 4.73071,6.9541 7.03631,9.85528c1.17313,3.0333 3.47853,7.69183 2.71087,10.95978c-0.18782,0.79954 -0.97862,1.24811 -1.10335,2.09421c-0.15675,1.06324 1.70812,1.438 0.85353,2.77263c-0.29054,0.45374 -3.05532,0.23392 -3.62228,0.17403c-1.4288,0.11591 -3.75931,-0.55801 -5.04415,-1.11988c-1.74242,-0.76195 -2.20958,-3.99291 -4.04187,-4.66318c-2.28477,-0.8358 -4.94006,0.03487 -7.39871,0.15956l0.01188,0.32422l-1.24045,0.04548c-0.23055,0.01096 -0.46303,-0.0843 -0.61931,-0.27749c-0.26051,-0.32204 -0.21061,-0.79428 0.11143,-1.05479l0.77748,-0.62891c0.62903,-0.50883 2.25239,-2.11374 3.43492,-2.81569c-1.43157,-0.45093 -2.80267,-0.99393 -4.22705,-1.51361c-6.65245,-2.43317 -12.41841,-10.34321 -14.52677,-17.07878c0,0 -0.2214,-0.71658 0.49519,-0.93796c0.36427,-0.11254 0.60057,0.0173 0.74488,0.17217c0.84737,-1.22858 4.02543,-1.4954 5.08229,-1.56212c1.73062,-0.10925 3.78981,-0.01397 5.84393,0.31409c1.83216,0.05279 3.56388,0.36946 4.89741,1.03711c1.67549,0.83885 3.94881,2.76027 5.89172,2.54283l0.88844,0.29567c0,0 0.19638,0.08934 0.33056,0.27754z" fill="#000000" stroke="none" stroke-width="0.5"/><path d="M301.45848,324.30751c-1.13959,-0.70636 -0.37454,-1.86793 -0.37454,-1.86793l0.96773,-1.46931c1.88283,-2.80511 4.36831,-4.99464 7.01499,-7.13556c0,0 1.08615,-0.87859 1.92534,0.15884c0.83919,1.03743 -0.24697,1.91603 -0.24697,1.91603c-2.38052,1.92562 -4.76871,3.91276 -6.41415,6.47339l-0.96773,1.46931c0,0 -0.76504,1.16159 -1.90466,0.45523z" fill="#ffffff" stroke="none" stroke-width="0.5"/><path d="M307.38467,330.56622c-1.33526,-1.6507 0.0025,-2.73284 0.0025,-2.73284c1.13312,-0.91659 2.59676,-2.10055 4.09099,-3.30925c1.79873,-1.45501 3.64179,-2.94587 5.00582,-4.04925c0,0 1.33778,-1.08214 2.67305,0.56856c1.33526,1.6507 -0.0025,2.73284 -0.0025,2.73284c-2.49717,2.01999 -4.99432,4.03995 -7.49149,6.05994l-1.60531,1.29854c0,0 -1.33778,1.08214 -2.67305,-0.56856z" fill="#ffffff" stroke="none" stroke-width="0.5"/><path d="M284.2176,319.46903c0.19865,-0.27909 0.41949,-0.45772 0.41949,-0.45772l0.50279,-0.40672c4.95831,-3.95097 7.65282,-2.40909 10.34161,0.95958c0.7382,0.92485 2.19185,2.33463 1.49968,3.94979c-0.43469,1.01436 -1.68773,1.65093 -2.5977,2.40479c-3.44842,2.85681 -5.20054,3.22506 -7.44933,0.55944c-1.2891,-1.52807 -2.51623,-3.11064 -3.77346,-4.66487c0,0 -0.78614,-0.97185 0.47081,-1.98861c0.20883,-0.16893 0.40468,-0.28296 0.58608,-0.35569z" fill="#000000" stroke="none" stroke-width="0.5"/></g><g stroke="none"><path d="M211.39606,357.32021l-1.13802,-44.46776l37.86637,-13.63467l-1.28358,43.46776z" fill="#c0c0c0" stroke-width="0"/><path d="M240.09846,310.70527c0.21951,2.37218 -1.09578,3.01319 -1.09578,3.01319c-7.8996,3.84994 -17.37912,8.46986 -25.27872,12.3198c0,0 -1.31529,0.64101 -1.5348,-1.73116c-0.21951,-2.37218 1.09578,-3.01319 1.09578,-3.01319c7.8996,-3.84994 15.7992,-7.69987 23.6988,-11.54981l1.57992,-0.76999c0,0 1.31529,-0.64101 1.5348,1.73116z" fill="#474747" stroke-width="0.5"/><path d="M244.18115,319.1384c0.21951,2.37218 -1.09578,3.01319 -1.09578,3.01319l-0.78996,0.38499c-2.30325,1.12251 -4.7397,1.96001 -7.00208,3.4041c-1.57823,1.0074 -3.03901,2.72106 -4.61582,3.73854c-5.63608,3.63684 -11.66187,4.42638 -17.03449,9.72529c0,0 -1.22278,1.19721 -1.75474,-0.94867c-0.53196,-2.14589 0.69081,-3.3431 0.69081,-3.3431c5.55817,-5.40636 11.63696,-6.30887 17.44427,-10.05619c1.57682,-1.01748 3.03772,-2.73022 4.61582,-3.73854c2.33298,-1.49064 4.84164,-2.36803 7.2172,-3.52578l0.78996,-0.38499c0,0 1.31529,-0.64101 1.5348,1.73116z" fill="#474747" stroke-width="0.5"/><path d="M243.65595,331.30636c0.21951,2.37218 -1.09578,3.01319 -1.09578,3.01319l-0.78996,0.38499c-2.85993,1.39381 -6.08681,2.3014 -8.83887,4.46495c-0.85179,0.66964 -1.58814,1.86315 -2.44551,2.50168c-0.87139,0.64897 -1.8118,0.76252 -2.69627,1.32765c-3.33721,2.13231 -6.64406,5.29331 -9.92878,7.80022c0,0 -1.27102,0.97004 -1.67433,-1.28763c-0.40331,-2.25768 0.86771,-3.22773 0.86771,-3.22773c3.33682,-2.54668 6.693,-5.73546 10.08283,-7.90853c0.84037,-0.53872 1.73684,-0.61878 2.56486,-1.23641c0.84204,-0.62808 1.56186,-1.81533 2.39973,-2.46673c2.89264,-2.24884 6.22769,-3.2488 9.22964,-4.71182l0.78996,-0.38499c0,0 1.31529,-0.64101 1.5348,1.73116z" fill="#474747" stroke-width="0.5"/></g><path d="M176.3943,448.75464v-93.98403h144v93.98403z" fill="#8c8c8c" stroke="none" stroke-width="0"/></g></g></svg>