<svg version="1.1" xmlns="http://www.w3.org/2000/svg" xmlns:xlink="http://www.w3.org/1999/xlink" width="692.16488" height="595.74474" viewBox="0,0,692.16488,595.74474"><g transform="translate(150.66485,83.40991)"><g data-paper-data="{&quot;isPaintingLayer&quot;:true}" fill-rule="nonzero" stroke-linecap="butt" stroke-linejoin="miter" stroke-miterlimit="10" stroke-dasharray="" stroke-dashoffset="0" style="mix-blend-mode: normal"><path d="M-45.49997,512.33483v-273h585v273z" fill="#8c8c8c" stroke="none" stroke-width="0"/><path d="M-43.49997,239.5v-273h585v273z" fill="#ababab" stroke="none" stroke-width="0"/><path d="M182.50004,166.5v-93h110v93z" fill="#00d9ff" stroke="none" stroke-width="0"/><g fill="#a7a7a7" stroke="none" stroke-width="0"><path d="M193.50004,167.5v-93h12v93z"/><path d="M217.50004,167.5v-93h12v93z"/><path d="M239.50004,167.5v-93h12v93z"/><path d="M263.50004,167.5v-93h12v93z"/></g><path d="M197.50004,167.5v-93h12v93z" fill="#cecece" stroke="none" stroke-width="0"/><path d="M221.50004,167.5v-93h12v93z" fill="#cecece" stroke="none" stroke-width="0"/><path d="M243.50004,167.5v-93h12v93z" fill="#cecece" stroke="none" stroke-width="0"/><path d="M267.50004,167.5v-93h12v93z" fill="#cecece" stroke="none" stroke-width="0"/><path d="M413.50004,412.5v-91h65v91z" fill="#9f9f9f" stroke="none" stroke-width="0"/><path d="" fill="#000000" stroke="none" stroke-width="0.5"/><path d="M276.76214,232.27706c7.69326,0 13.92988,12.79863 13.92988,28.58653c0,15.7879 -6.23662,28.58653 -13.92988,28.58653c-7.69326,0 -13.92988,-12.79863 -13.92988,-28.58653c0,-15.7879 6.23662,-28.58653 13.92988,-28.58653z" data-paper-data="{&quot;index&quot;:null}" fill="#ff0000" stroke="#000000" stroke-width="5"/><path d="M246.44536,265.68468c5.41873,0 9.81148,4.25759 9.81148,9.50959c0,5.252 -4.39275,9.50959 -9.81148,9.50959c-5.41873,0 -9.81148,-4.25759 -9.81148,-9.50959c0,-5.252 4.39275,-9.50959 9.81148,-9.50959z" data-paper-data="{&quot;index&quot;:null}" fill="#ff0000" stroke="#000000" stroke-width="5"/><path d="M289.94534,299.25216c6.08771,0 11.02277,2.87427 11.02277,6.41986c0,3.54559 -4.93506,6.41986 -11.02277,6.41986c-6.08771,0 -11.02277,-2.87427 -11.02277,-6.41986c0,-3.54559 4.93506,-6.41986 11.02277,-6.41986z" data-paper-data="{&quot;index&quot;:null}" fill="#ff0000" stroke="#000000" stroke-width="5"/><path d="M259.76775,300.55998c6.08771,0 11.02277,2.87426 11.02277,6.41985c0,3.54559 -4.93506,6.41985 -11.02277,6.41985c-6.0877,0 -11.02277,-2.87426 -11.02277,-6.41985c0,-3.54559 4.93506,-6.41985 11.02277,-6.41985z" data-paper-data="{&quot;index&quot;:null}" fill="#ff0000" stroke="#000000" stroke-width="5"/><path d="M-143.06152,451.03904v-481.89639l186.62162,-52.55256c0,0 11.37615,271.22744 14.92661,355.87674c1.96947,46.95554 4.59291,109.50315 4.59291,109.50315z" fill="#9f9f9f" stroke="none" stroke-width="0"/><path d="M-127.17312,387.96116l-23.49173,-364.80954l188.75097,-13.62629l23.49173,364.80954z" fill="#b5b5b5" stroke="none" stroke-width="0"/><g stroke="none" stroke-width="0"><g fill="#a7a7a7"><path d="M-80.97898,385.47452l-23.38326,-363.12507l18.45203,-1.33209l23.38326,363.12507z"/><path d="M-44.07493,382.81034l-23.38326,-363.12507l18.45203,-1.33209l23.38326,363.12507z"/><path d="M-10.24621,380.36819l-23.38326,-363.12507l18.45203,-1.33209l23.38326,363.12507z"/><path d="M26.65786,377.70401l-23.38326,-363.12507l18.45203,-1.33209l23.38326,363.12507z"/></g><path d="M-74.82831,385.03049l-23.38326,-363.12507l18.45203,-1.33209l23.38326,363.12507z" fill="#cecece"/><path d="M-37.92425,382.36632l-23.38326,-363.12507l18.45203,-1.33209l23.38326,363.12507z" fill="#cecece"/><path d="M-4.09555,379.92416l-23.38326,-363.12507l18.45203,-1.33209l23.38326,363.12507z" fill="#cecece"/><path d="M32.8085,377.25999l-23.38326,-363.12507l18.45203,-1.33209l23.38326,363.12507z" fill="#cecece"/></g><g><g fill="#7c7c7c" stroke="none"><path d="M304.78201,292.10698l12.76906,-59.17353l11.83471,2.55384l-12.76906,59.17353z" stroke-width="0"/><path d="M329.30786,235.69001c-0.59129,2.74013 -3.7596,4.38119 -7.0766,3.66543c-3.317,-0.71578 -5.52663,-3.51734 -4.93533,-6.25748c0.59129,-2.74013 3.75959,-4.38119 7.0766,-3.66543c3.317,0.71578 5.52663,3.51734 4.93533,6.25748z" stroke-width="0"/><path d="M327.53145,309.77774c-0.77407,3.58714 -2.02583,0.30009 -4.70354,0.02867c-3.72775,-0.37781 -9.31597,-1.55088 -15.19104,-2.81864c-5.90947,-1.2752 -12.05245,-2.88804 -15.00361,-3.97805c-2.09034,-0.77206 -2.42762,2.43704 -1.65986,-1.12085c1.85167,-8.58094 11.53655,-13.77117 21.63177,-11.59273c10.09522,2.17845 16.77794,10.90065 14.92624,19.48158z" stroke-width="0"/><path d="M326.79192,310.34692c-0.05972,0.27677 -0.18089,0.45825 -0.32394,0.57623c-0.86333,1.1412 -1.23177,2.45272 -2.01719,3.64611c-0.86372,1.31236 -2.19426,1.90605 -2.87497,3.35903c-0.78728,1.68043 -0.75689,3.36191 -1.89327,5.01564c-0.94472,4.68314 -4.55787,4.42424 -8.26132,5.72626c-2.60926,0.91734 -3.78395,3.30623 -6.74357,3.82512c-4.70918,0.82562 -8.10933,-4.4713 -9.09137,-8.30401c-0.07137,-2.56439 -1.3292,-4.32338 -2.28613,-6.53572c-0.62293,-1.44017 -0.58876,-2.98658 -0.79268,-4.49767c-0.44635,-3.30729 -1.44579,-6.51004 -1.72527,-9.84746c-0.26448,-0.10444 -0.77763,-0.40607 -0.61904,-1.14095c0.15001,-0.69513 0.68766,-0.78925 0.98576,-0.78563c0.13352,-0.08552 0.30855,-0.14388 0.53789,-0.15133c0.46785,-0.01519 0.72382,0.19574 0.86374,0.42443c6.93382,1.44292 14.07576,2.49555 21.10968,4.0134c3.79833,0.81964 8.15513,0.6741 11.27844,3.28101l0.20133,0.03838c0.16877,-0.23694 0.47271,-0.46686 0.99807,-0.3535c0.9775,0.21093 0.76657,1.18844 0.76657,1.18844l-0.0829,0.25046c0.00059,0.08323 -0.00861,0.17366 -0.02979,0.27181z" stroke-width="0.5"/><path d="M323.44511,209.6677l-0.15827,-0.03416c-3.02493,1.17761 -5.41948,3.80329 -6.15544,7.21378c-1.16495,5.39858 2.26707,10.71939 7.66566,11.88435c5.39858,1.16495 10.71939,-2.26707 11.88435,-7.66566c0.77582,-3.59526 -0.48717,-7.15601 -3.01202,-9.47779c-3.05015,-1.0757 -6.82749,-0.96973 -9.93048,-2.11829c-0.09108,0.03051 -0.18166,0.0623 -0.27169,0.09538zM319.91651,231.581c-1.10978,-0.86795 -1.93235,-1.17485 -2.76411,-2.43653c0,0 -0.3875,-0.60074 0.00069,-1.11397c-0.11632,-0.19132 -0.23898,-0.36899 -0.37346,-0.52322c-3.42506,-3.92849 -2.97578,-8.63014 -2.91258,-13.63202c0.51426,-2.1396 0.16001,-4.46073 0.9025,-6.73826c0.18595,-0.57035 0.10627,-1.44524 0.66087,-1.67393c1.37576,-0.56731 5.15058,0.81181 6.61799,1.12847c5.44364,1.17469 10.88729,2.34937 16.33095,3.52405c0.29686,0.06407 2.90276,0.56902 3.12305,0.84981c1.63235,2.08075 -0.44071,5.4753 -0.40463,7.67185c0.10606,6.45466 -3.24645,11.35607 -8.62918,14.85238c-2.00616,1.73648 -3.1135,2.43326 -5.75737,2.56252c-2.86836,0.41772 -4.58834,-2.74556 -6.79468,-4.4711z" stroke-width="0.5"/></g><path d="M333.98663,224.4822c-1.56104,5.18901 -6.9036,8.169 -11.93295,6.65598c-5.02935,-1.51301 -7.84096,-6.94606 -6.27993,-12.13508c1.56104,-5.18901 6.9036,-8.169 11.93295,-6.65598c5.02935,1.51301 7.84096,6.94606 6.27993,12.13508z" data-paper-data="{&quot;index&quot;:null}" fill="#ff0000" stroke="#000000" stroke-width="5"/></g><path d="M414.50004,323.5v-163h65v163z" fill="#595959" stroke="none" stroke-width="0"/><path d="M284.3479,184.90964c11.38105,0 20.60719,9.64081 20.60719,21.53336c0,11.89255 -9.22615,21.53336 -20.60719,21.53336c-11.38105,0 -20.6072,-9.64081 -20.6072,-21.53336c0,-11.89255 9.22616,-21.53336 20.6072,-21.53336z" data-paper-data="{&quot;index&quot;:null}" fill="#d29460" stroke="#000000" stroke-width="2"/><path d="M282.0932,185.0562c1.7985,-0.03466 7.23539,-1.23033 8.69874,0.56618c1.19553,1.46772 9.95755,3.73715 10.33325,7.33322c0.45485,-0.088 0.82342,-0.00141 1.06758,0.32413c0.89578,1.19438 -1.38708,2.19145 -2.02353,2.63529c-2.51002,1.75042 -5.07661,4.51493 -7.79883,5.8044c-3.32701,1.57595 -1.93333,-3.09904 -2.24521,-3.12778c-2.11883,-0.19523 -4.99681,1.22268 -7.23571,1.28156c-4.36122,0.11469 -8.46442,-0.26607 -12.80749,-0.34641c-0.55121,-0.0102 -3.3739,0.11064 -3.78499,-0.60877c-0.29474,-0.17395 -0.49247,-0.49479 -0.49247,-0.86182c0,-0.49706 0.36266,-0.90942 0.83781,-0.98691c1.37581,-6.33275 9.22971,-11.89321 15.45085,-12.01309z" fill="#000000" stroke="none" stroke-width="0.5"/><path d="M287.40927,215.31836c-1.529,0 -1.529,-1.668 -1.529,-1.668l0.01536,-0.00239c-0.32867,-2.52058 -0.34301,-4.96093 -0.34301,-7.50361c0,0 0,-1.668 1.529,-1.668c1.529,0 1.529,1.668 1.529,1.668c0,2.38598 0.00134,4.66817 0.31227,7.03182l0.01536,0.47418c0,0 0,1.668 -1.529,1.668z" fill="#000000" stroke="none" stroke-width="0.5"/><path d="M283.2426,214.98503c-1.529,0 -1.529,-1.668 -1.529,-1.668l0.01536,-0.00239c-0.32867,-2.52058 -0.34301,-4.96093 -0.34301,-7.50361c0,0 0,-1.668 1.529,-1.668c1.529,0 1.529,1.668 1.529,1.668c0,2.38598 0.00134,4.66817 0.31227,7.03182l0.01536,0.47418c0,0 0,1.668 -1.529,1.668z" fill="#000000" stroke="none" stroke-width="0.5"/></g></g></svg>