<svg version="1.1" xmlns="http://www.w3.org/2000/svg" xmlns:xlink="http://www.w3.org/1999/xlink" width="629" height="430.75" viewBox="0,0,629,430.75"><g transform="translate(78.5,55.75)"><g data-paper-data="{&quot;isPaintingLayer&quot;:true}" fill-rule="nonzero" stroke-linejoin="miter" stroke-miterlimit="10" stroke-dasharray="" stroke-dashoffset="0" style="mix-blend-mode: normal"><path d="M-55.5,193.25v-248h570v248z" fill="#2bf0ff" stroke="#000000" stroke-width="2" stroke-linecap="butt"/><path d="M-70.5,214v-23h619v23z" fill="#ffb62c" stroke="#000000" stroke-width="2" stroke-linecap="butt"/><path d="M141,28c0,2.5 -2.5,2.5 -2.5,2.5l-2.59954,-0.03228c-6.82932,2.27644 -14.17414,0.31621 -21.24647,1.03906c-1.6596,0.16962 -3.25206,0.77587 -4.90764,0.98105c-1.72132,0.21333 -3.60409,-0.03255 -5.14797,0.75795c-1.38224,0.70774 -3.3206,1.23026 -3.78868,2.71092c-0.29759,0.94135 0.45404,2.07726 0.01547,2.96177c-0.74885,1.51026 -2.46799,2.34956 -3.35869,3.78075c-0.81756,1.31366 -0.86368,3.01415 -1.68588,4.32491c-0.0185,0.02949 -0.0371,0.05891 -0.05581,0.08826l0.01127,0.00564l-1.97578,3.95156c-0.40086,0.84561 -1.26228,1.43041 -2.26029,1.43041c-1.1246,0 -2.07576,-0.74256 -2.38994,-1.76412l-0.93973,-2.8192c-1.13648,-2.2842 -2.59937,-6.33343 -4.98466,-7.79006c-2.04217,-1.24709 -2.72479,-0.26535 -5.08613,-0.65891c-1.03975,-0.17329 -1.95435,-0.86685 -3,-1c-3.17423,-0.4042 -6.39968,0.03228 -9.59954,0.03228c0,0 -2.5,0 -2.5,-2.5c0,-2.5 2.5,-2.5 2.5,-2.5c0.57552,0 10.05669,-0.00996 10.40046,0.03228c1.04622,0.12856 1.96025,0.82671 3,1c2.31564,0.38594 4.89582,0.14169 6.91387,1.34109c2.75167,1.63542 4.48828,4.97355 5.92692,7.95983c0.26932,-1.36079 0.79247,-2.6802 1.50618,-3.81719c0.73457,-1.17021 2.31673,-1.6951 2.9274,-2.93448c0.44762,-0.90847 -0.4044,-2.11661 0.01547,-3.03823c2.33558,-5.12674 8.39321,-5.95102 13.06335,-6.53112c1.65239,-0.20525 3.2413,-0.81485 4.89816,-0.98011c6.95709,-0.6939 14.25183,1.23219 20.94772,-0.99978l3.40046,-0.03228c0,0 2.5,0 2.5,2.5z" fill="#000000" stroke="none" stroke-width="0.5" stroke-linecap="butt"/><path d="M405,26c0,2.5 -2.5,2.5 -2.5,2.5l-1.39366,-0.07464c-2.42231,0.6044 -4.74441,1.62521 -7.20588,2.04236c-2.93722,0.49778 -5.47251,0.3689 -8.30208,1.77807c-1.19324,0.59425 -2.10869,1.72722 -3.37392,2.14694c-1.72733,0.57301 -3.88162,-0.25386 -5.41013,0.7339c-2.43491,1.57348 -2.52804,5.3892 -7.12567,4.23806c-1.63835,-0.4102 -1.7033,-2.9179 -2.49836,-4.40797c-0.56566,-1.06014 -1.49628,-3.98303 -3.00463,-4.83008c-2.01858,-1.13359 -4.56877,-0.92924 -6.69706,-1.84034c-1.01385,-0.43402 -1.65625,-1.57832 -2.71308,-1.89356c-2.00486,-0.59801 -4.18339,0.10727 -6.27554,0.10727c0,0 -2.5,0 -2.5,-2.5c0,-2.5 2.5,-2.5 2.5,-2.5c1.23993,0 7.2541,-0.0227 7.72446,0.10727c1.25432,0.34659 2.09103,1.59334 3.28692,2.10644c3.10032,1.3302 4.34447,0.31865 7.30294,2.15966c2.30094,1.43184 4.28376,4.73682 4.99537,7.16992c0.1561,0.53371 -1.04124,1.47166 -0.49836,1.59203c0.54699,0.12128 0.26353,-1.12347 0.60369,-1.56867c1.75582,-2.29803 3.24978,-2.97052 6.18452,-3.53436c0.87632,-0.16837 1.82995,0.35871 2.676,0.07499c1.01576,-0.34064 1.66861,-1.37238 2.62608,-1.85306c0.23852,-0.11975 6.47558,-2.18379 6.69792,-2.22193c0.98561,-0.16905 2.01311,0.16142 3,0c2.32593,-0.38045 4.50789,-1.38502 6.79412,-1.95764l2.60634,-0.07464c0,0 2.5,0 2.5,2.5z" fill="#000000" stroke="none" stroke-width="0.5" stroke-linecap="butt"/><path d="M242,43c0,-2.5 2.5,-2.5 2.5,-2.5h1c0.48002,0 6.14144,-0.00949 6.40046,0.03228c1.72442,0.27812 3.41947,0.8862 5.15815,0.96076c2.17588,0.00298 4.98598,0.03662 5.3981,0.19726c1.10045,0.42893 1.70361,1.6415 2.62826,2.37634c1.08882,0.86531 2.54693,1.31883 3.40179,2.41587c1.34444,1.72531 0.99584,4.3389 2.13986,6.20316c0.46283,0.75422 1.41699,1.11206 1.90148,1.85255c0.54766,0.83705 0.98183,1.73957 1.40179,2.65028c0.51722,-1.89732 1.50129,-3.7832 2.30777,-5.15702c1.31658,-2.24278 3.83792,-3.94287 6.00752,-5.19376c5.47819,-3.15849 11.37327,-5.00528 17.5206,-6.23576l2.95258,-0.97664c0,0 2.37467,-0.78163 3.1563,1.59304c0.78163,2.37467 -1.59304,3.1563 -1.59304,3.1563l-3.24161,1.0622c-5.7409,1.14723 -11.14479,2.81939 -16.2852,5.7254c-1.25638,0.71026 -3.49737,2.10216 -4.27857,3.52147c-1.27,2.30738 -1.13756,5.31711 -2.73045,7.41463c-0.06719,0.08848 -0.13584,0.17564 -0.20584,0.26159l0.04018,0.02678l-1.97849,2.96774c-0.44514,0.68925 -1.2201,1.14551 -2.10163,1.14551c-1.18975,0 -2.18539,-0.83109 -2.43804,-1.9444l-0.93753,-3.75012c-0.99549,-1.97907 -2.62536,-3.58183 -3.75106,-5.49116c-1.03065,-1.74812 -0.56125,-4.23766 -1.86014,-5.79684c-0.64924,-0.77935 -1.80923,-0.94662 -2.59821,-1.58413c-0.55109,-0.44529 -0.71843,-1.34945 -1.37174,-1.62366c-0.47897,-0.20103 -0.97861,-0.2858 -1.49095,-0.30087c-0.70745,0.49118 -1.55234,0.49118 -1.55234,0.49118c-0.64457,-0.00612 -1.27709,-0.03454 -1.90156,-0.07817c-0.36932,0.04686 -0.73637,0.07817 -1.09844,0.07817c0,0 -0.60923,0 -1.2262,-0.30075c-2.54651,-0.29479 -5.04079,-0.69925 -7.7738,-0.69925h-1c0,0 -2.5,0 -2.5,-2.5z" fill="#000000" stroke="none" stroke-width="0.5" stroke-linecap="butt"/><path d="M-77.5,374v-165h627v165z" fill="#7d7d7d" stroke="#000000" stroke-width="2" stroke-linecap="butt"/><path d="M13.5,292v-17h147v17z" fill="#ffffff" stroke="#000000" stroke-width="2" stroke-linecap="butt"/><path d="M206.5,290v-17h147v17z" fill="#ffffff" stroke="#000000" stroke-width="2" stroke-linecap="butt"/><path d="M386.5,290v-17h147v17z" fill="#ffffff" stroke="#000000" stroke-width="2" stroke-linecap="butt"/><path d="M195.03486,167.64536c-0.66979,-9.08806 6.15456,-16.99834 15.2426,-17.66813c9.08806,-0.66979 16.99834,6.15456 17.66813,15.2426c0.66979,9.08806 -6.15456,16.99834 -15.2426,17.66813c-9.08806,0.66979 -16.99834,-6.15456 -17.66813,-15.2426z" fill="#000000" stroke="#00ff08" stroke-width="2" stroke-linecap="butt"/><path d="M222.47022,170.27447l0.43379,-7.71944" fill="none" stroke="#00ff08" stroke-width="2" stroke-linecap="round"/><path d="M218.4844,161.54381l-0.71722,8.4088" fill="none" stroke="#00ff08" stroke-width="2" stroke-linecap="round"/><path d="M215.53093,157.75063l4.89905,2.98131" fill="none" stroke="#00ff08" stroke-width="2" stroke-linecap="round"/><path d="M210.81709,185.48484c6.17457,0.69186 9.89627,12.7097 8.31268,26.84257c-1.5836,14.13288 -7.87284,25.02899 -14.04738,24.33713c-6.17457,-0.69186 -9.89627,-12.7097 -8.31268,-26.84257c1.5836,-14.13288 7.87284,-25.02899 14.04738,-24.33713z" fill="#000000" stroke="#00ff08" stroke-width="2" stroke-linecap="butt"/><path d="M173.0296,207.93358c0.92831,-5.44427 6.09431,-9.10517 11.53859,-8.17686c5.44427,0.92831 9.10517,6.09431 8.17686,11.53859c-0.92831,5.44427 -6.09431,9.10517 -11.53859,8.17686c-5.44427,-0.92831 -9.10517,-6.09431 -8.17686,-11.53859z" fill="#000000" stroke="#00ff08" stroke-width="2" stroke-linecap="butt"/><path d="M222.89615,220.81178c0.92831,-5.44427 6.09431,-9.10517 11.53859,-8.17686c5.44427,0.92831 9.10517,6.09431 8.17686,11.53859c-0.92831,5.44427 -6.09431,9.10517 -11.53859,8.17686c-5.44427,-0.92831 -9.10517,-6.09431 -8.17686,-11.53859z" fill="#000000" stroke="#00ff08" stroke-width="2" stroke-linecap="butt"/><path d="M210.69723,255.67601c0.75743,-3.80507 5.79914,-6.2805 11.26096,-5.52904c5.46182,0.75146 9.27548,4.44526 8.51804,8.25034c-0.75743,3.80507 -5.79914,6.2805 -11.26096,5.52904c-5.46182,-0.75146 -9.27548,-4.44526 -8.51804,-8.25034z" fill="#000000" stroke="#00ff08" stroke-width="2" stroke-linecap="butt"/><path d="M184.22871,254.70502c0.78586,-3.7993 5.84594,-6.23696 11.30199,-5.44468c5.45605,0.79228 9.24198,4.51449 8.45611,8.3138c-0.78586,3.7993 -5.84594,6.23696 -11.30199,5.44468c-5.45605,-0.79228 -9.24198,-4.51449 -8.45611,-8.3138z" fill="#000000" stroke="#00ff08" stroke-width="2" stroke-linecap="butt"/><g><path d="M310.07987,233.19293c-9.07258,7.44466 -19.44492,9.80237 -23.16726,5.26608c-3.72234,-4.53628 0.6149,-14.24879 9.68748,-21.69345c9.07258,-7.44466 19.44492,-9.80237 23.16726,-5.26608c3.72234,4.53628 -0.6149,14.24879 -9.68748,21.69345z" fill="#ff0000" stroke="#000000" stroke-width="2" stroke-linecap="butt"/><path d="M278.92021,204.057c3.79275,-1.66503 8.21716,0.05982 9.88219,3.85256c1.66503,3.79275 -0.05982,8.21716 -3.85256,9.88219c-3.79275,1.66503 -8.21716,-0.05982 -9.88219,-3.85256c-1.66503,-3.79275 0.05982,-8.21716 3.85256,-9.88219z" fill="#ff0000" stroke="#000000" stroke-width="2" stroke-linecap="butt"/><path d="M308.89738,244.12315c4.04561,-1.77603 8.76497,0.06382 10.54101,4.10941c1.77603,4.04561 -0.06382,8.76497 -4.10941,10.54101c-4.04561,1.77603 -8.76497,-0.06382 -10.54101,-4.10941c-1.77603,-4.04561 0.06382,-8.76497 4.10941,-10.54101z" fill="#ff0000" stroke="#000000" stroke-width="2" stroke-linecap="butt"/><path d="M265.19302,245.72419c-2.24879,1.71885 -6.58672,-0.17804 -9.68903,-4.23682c-3.10233,-4.0588 -3.79425,-8.74248 -1.54546,-10.46134c2.24879,-1.71885 6.58672,0.17804 9.68903,4.23682c3.10233,4.0588 3.79425,8.74248 1.54546,10.46134z" fill="#ff0000" stroke="#000000" stroke-width="2" stroke-linecap="butt"/><path d="M278.87284,256.89538c3.52898,4.33768 4.52307,9.37276 2.22034,11.24617c-2.3027,1.87341 -7.03025,-0.12428 -10.55922,-4.46196c-3.52898,-4.33768 -4.52307,-9.37276 -2.22034,-11.24617c2.3027,-1.87341 7.03025,0.12428 10.55922,4.46196z" fill="#ff0000" stroke="#000000" stroke-width="2" stroke-linecap="butt"/><g><path d="M324.94315,204.52384c-3.21142,-7.6365 0.37582,-16.43046 8.01232,-19.64187c7.6365,-3.21142 16.43046,0.37582 19.64187,8.01232c3.21142,7.6365 -0.37582,16.43046 -8.01232,19.64187c-7.6365,3.21142 -16.43046,-0.37582 -19.64187,-8.01232z" fill="#c19f67" stroke="#000000" stroke-width="2" stroke-linecap="butt"/><path d="M335.3572,193.44859c0.77749,-0.9166 1.91473,-1.76133 2.75173,-2.25458c-0.49286,-0.75801 -0.94735,-1.53626 -1.30507,-2.36481l-0.7753,-1.84363c0,0 -0.96913,-2.30452 1.33538,-3.27365c1.7415,-0.73237 2.72041,0.40476 3.09477,1.00407c0.0111,-0.00486 0.0223,-0.00964 0.03351,-0.01437c0.58522,-0.24611 1.21123,-0.25265 1.76882,-0.06416l2.5105,0.83404l-0.00903,0.02718c1.01145,0.1722 2.00142,0.60598 3.18162,1.56689c1.52539,1.24196 3.88978,4.12441 4.25435,6.79042c1.1526,3.31353 1.09782,7.18715 1.25958,10.4573c0,0 0.06821,1.38239 -0.92545,2.14076c-0.06701,0.55699 -0.35972,1.15838 -1.11586,1.67067c-2.0697,1.40226 -3.47196,-0.66743 -3.47196,-0.66743c-1.55752,-2.30351 -3.56844,-4.29407 -4.99714,-6.67964c-0.78219,-1.30605 -1.16292,-2.81823 -1.68273,-4.25728c-1.75691,0.33136 -3.25745,0.38257 -4.94306,-0.23506c-0.59558,-0.21823 -1.63013,-0.01311 -1.79737,-0.62498c-0.17452,-0.63842 0.15365,-1.36349 0.70542,-2.0569c0.03691,-0.0554 0.07949,-0.10735 0.12732,-0.15486z" fill="#000000" stroke="none" stroke-width="0.5" stroke-linecap="butt"/><path d="M343.5996,205.63388l-4.41521,2.39914" fill="none" stroke="#ffffff" stroke-width="2" stroke-linecap="round"/><path d="M340.34563,201.16543l-4.0512,1.97487" fill="none" stroke="#ffffff" stroke-width="2" stroke-linecap="round"/><path d="M334.8644,201.02961l-0.83786,2.522" fill="none" stroke="#ffffff" stroke-width="1" stroke-linecap="round"/><path d="M337.36445,210.15442l2.75244,0.74095" fill="none" stroke="#ffffff" stroke-width="1" stroke-linecap="round"/><path d="M336.07467,206.4872c0.48171,1.14547 0.09839,2.39948 -0.85617,2.80091c-0.95456,0.40142 -2.1189,-0.20175 -2.60061,-1.34723c-0.48172,-1.14547 -1.40785,-2.93362 -0.45329,-3.33505c0.95455,-0.40142 3.42835,0.73592 3.91006,1.88136z" fill="#000000" stroke="none" stroke-width="0" stroke-linecap="butt"/></g></g><path d="M209.83333,174.29167l6.66667,0.33333" fill="#00ff08" stroke="#00ff08" stroke-width="1.5" stroke-linecap="round"/></g></g></svg>