<svg version="1.1" xmlns="http://www.w3.org/2000/svg" xmlns:xlink="http://www.w3.org/1999/xlink" width="629.62763" height="444.94295" viewBox="0,0,629.62763,444.94295"><g transform="translate(67.30631,26.70567)"><g data-paper-data="{&quot;isPaintingLayer&quot;:true}" fill-rule="nonzero" stroke-linecap="butt" stroke-linejoin="miter" stroke-miterlimit="10" stroke-dasharray="" stroke-dashoffset="0" style="mix-blend-mode: normal"><path d="M-22.76276,406.72677v-432.43243h545.04505v432.43243z" fill="#d6d6d6" stroke="#000000" stroke-width="2"/><path d="M-66.30631,417.23728v-177.17718h627.62763v177.17718z" fill="#949494" stroke="#000000" stroke-width="2"/><path d="M182.94294,155.976v-114.11411h132.13213v114.11411z" fill="#98d7ff" stroke="#000000" stroke-width="2"/><path d="M200.96099,157.4775v-112.61261h10.51051v112.61261z" fill="#848484" stroke="#000000" stroke-width="2"/><path d="M220.48049,157.4775v-115.61562h10.51051v115.61562z" fill="#848484" stroke="#000000" stroke-width="2"/><path d="M241.50152,157.4775v-112.61261h10.51051v112.61261z" fill="#848484" stroke="#000000" stroke-width="2"/><path d="M265.52554,157.4775v-114.11411h7.50751v114.11411z" fill="#848484" stroke="#000000" stroke-width="2"/><path d="M285.2675,158.97901v-114.11411h10.56612v114.11411z" fill="#848484" stroke="#000000" stroke-width="2"/><path d="M374.78037,166.749c11.38105,0 20.60719,9.64081 20.60719,21.53336c0,11.89255 -9.22615,21.53336 -20.60719,21.53336c-11.38105,0 -20.6072,-9.64081 -20.6072,-21.53336c0,-11.89255 9.22616,-21.53336 20.6072,-21.53336z" data-paper-data="{&quot;index&quot;:null}" fill="#d29460" stroke="#000000" stroke-width="2"/><path d="M375.51894,261.74023c5.41873,0 9.81148,4.25759 9.81148,9.50959c0,5.252 -4.39275,9.50959 -9.81148,9.50959c-5.41873,0 -9.81148,-4.25759 -9.81148,-9.50959c0,-5.252 4.39275,-9.50959 9.81148,-9.50959z" data-paper-data="{&quot;index&quot;:null}" fill="#ff0000" stroke="#000000" stroke-width="5"/><path d="M390.20534,215.29956c7.37121,-2.20261 17.01105,8.27468 21.53119,23.40168c4.52014,15.127 2.20889,29.17543 -5.16232,31.37804c-7.37121,2.20261 -17.01105,-8.27468 -21.5312,-23.40168c-4.52014,-15.127 -2.20889,-29.17543 5.16233,-31.37804z" data-paper-data="{&quot;index&quot;:null}" fill="#ff0000" stroke="#000000" stroke-width="5"/><path d="M442.90934,281.90531c6.08771,0 11.02277,2.87427 11.02277,6.41986c0,3.54559 -4.93506,6.41986 -11.02277,6.41986c-6.08771,0 -11.02277,-2.87427 -11.02277,-6.41986c0,-3.54559 4.93506,-6.41986 11.02277,-6.41986z" data-paper-data="{&quot;index&quot;:null}" fill="#ff0000" stroke="#000000" stroke-width="5"/><path d="M399.04854,285.38731c6.08771,0 11.02277,2.87426 11.02277,6.41985c0,3.54559 -4.93506,6.41985 -11.02277,6.41985c-6.0877,0 -11.02277,-2.87426 -11.02277,-6.41985c0,-3.54559 4.93506,-6.41985 11.02277,-6.41985z" data-paper-data="{&quot;index&quot;:null}" fill="#ff0000" stroke="#000000" stroke-width="5"/><path d="M371.52566,166.89708c1.7985,-0.03466 7.23539,-1.23033 8.69874,0.56618c1.19553,1.46772 9.95755,3.73715 10.33325,7.33322c0.45485,-0.088 0.82342,-0.00141 1.06758,0.32413c0.89578,1.19438 -1.38708,2.19145 -2.02353,2.63529c-2.51002,1.75042 -5.07661,4.51493 -7.79883,5.8044c-3.32701,1.57595 -1.93333,-3.09904 -2.24521,-3.12778c-2.11883,-0.19523 -4.99681,1.22268 -7.23571,1.28156c-4.36122,0.11469 -8.46442,-0.26607 -12.80749,-0.34641c-0.55121,-0.0102 -3.3739,0.11064 -3.78499,-0.60877c-0.29474,-0.17395 -0.49247,-0.49479 -0.49247,-0.86182c0,-0.49706 0.36266,-0.90942 0.83781,-0.98691c1.37581,-6.33275 9.22971,-11.89321 15.45085,-12.01309z" fill="#000000" stroke="none" stroke-width="0.5"/><g fill="#000000" stroke="none" stroke-width="0.5"><path d="M360.04274,194.1358c-1.668,0 -1.668,-1.668 -1.668,-1.668l0.01463,-0.37527c-0.34511,-2.59248 -0.61035,-4.98782 -0.61035,-7.60731c0,0 0,-1.668 1.668,-1.668c1.668,0 1.668,1.668 1.668,1.668c0,2.47742 0.25351,4.71337 0.58108,7.16641l0.01463,0.81616c0,0 0,1.668 -1.668,1.668z"/><path d="M365.52331,193.65925c-1.668,0 -1.668,-1.668 -1.668,-1.668l0.01676,-0.00239c-0.35855,-2.52058 -0.37419,-4.96093 -0.37419,-7.50361c0,0 0,-1.668 1.668,-1.668c1.668,0 1.668,1.668 1.668,1.668c0,2.38598 0.00146,4.66817 0.34066,7.03182l0.01676,0.47418c0,0 0,1.668 -1.668,1.668z"/><path d="M372.67188,200.8078c0,1.668 -1.668,1.668 -1.668,1.668l-1.42941,-0.00424c-1.8419,-0.15079 -3.1094,0.24488 -4.89108,0.77046c0,0 -1.60022,0.47065 -2.07088,-1.12957c-0.47065,-1.60022 1.12957,-2.07088 1.12957,-2.07088c2.15042,-0.63072 3.82916,-1.03976 6.07006,-0.89754l1.19173,-0.00424c0,0 1.668,0 1.668,1.668z"/></g><g><path d="M442.10574,233.10179c5.41873,0 9.81148,4.25759 9.81148,9.50959c0,5.252 -4.39275,9.50959 -9.81148,9.50959c-5.41873,0 -9.81148,-4.25759 -9.81148,-9.50959c0,-5.252 4.39275,-9.50959 9.81148,-9.50959z" data-paper-data="{&quot;index&quot;:null}" fill="#ff0000" stroke="#000000" stroke-width="5"/><g fill="#7c7c7c" stroke="none"><path d="M497.57226,295.15743l-46.41957,-38.85588l7.77119,-9.28392l46.41957,38.85588z" stroke-width="0"/><path d="M459.06698,247.18098c2.14954,1.79929 2.1264,5.36729 -0.05169,7.96937c-2.17808,2.60207 -5.68631,3.25286 -7.83585,1.45357c-2.14954,-1.79929 -2.12639,-5.36729 0.05169,-7.96937c2.17808,-2.60207 5.68631,-3.25286 7.83585,-1.45357z" stroke-width="0"/><path d="M523.80399,283.25411c2.81399,2.35547 -0.67783,1.9325 -2.16495,4.17577c-2.07029,3.12294 -5.7107,7.522 -9.56851,12.13079c-3.88041,4.63577 -8.16836,9.32097 -10.50725,11.42501c-1.65667,1.49032 1.02619,3.2832 -1.76485,0.94694c-6.73145,-5.63461 -6.81453,-16.62225 -0.18557,-24.54161c6.62896,-7.91935 17.4597,-9.7715 24.19114,-4.13689z" stroke-width="0"/><path d="M523.9633,284.17359c0.21711,0.18173 0.3213,0.37348 0.35909,0.55501c0.60788,1.29544 1.59693,2.23224 2.28728,3.48304c0.75916,1.37548 0.66495,2.82942 1.63378,4.10845c1.12048,1.47925 2.62267,2.23538 3.55695,4.01114c3.70442,3.01687 1.79274,6.09378 1.22036,9.97748c-0.40328,2.73626 1.16376,4.88826 0.24471,7.74903c-1.46232,4.55187 -7.73324,5.0942 -11.58232,4.17845c-2.30259,-1.13102 -4.44498,-0.83703 -6.84842,-1.02042c-1.56456,-0.1194 -2.91715,-0.86976 -4.34938,-1.39297c-3.13465,-1.14513 -6.43436,-1.75213 -9.51796,-3.05897c-0.2156,0.18541 -0.72147,0.49907 -1.29797,0.01651c-0.5453,-0.45645 -0.37823,-0.97609 -0.23621,-1.23821c-0.0135,-0.15799 0.01636,-0.34006 0.11657,-0.54648c0.20442,-0.4211 0.51028,-0.54939 0.77782,-0.56673c4.50584,-5.46418 8.76322,-11.29428 13.38199,-16.81213c2.49414,-2.97965 4.39421,-6.903 8.15566,-8.453l0.12772,-0.16031c-0.1311,-0.25969 -0.19302,-0.63573 0.15195,-1.04786c0.64187,-0.76682 1.40869,-0.12495 1.40869,-0.12495l0.18303,0.19c0.07393,0.03824 0.14967,0.08849 0.22666,0.15294z" stroke-width="0.5"/><path d="M433.30828,240.25122l-0.10393,0.12416c-0.36652,3.22532 0.84199,6.5671 3.51742,8.80659c4.235,3.54494 10.54189,2.98554 14.08684,-1.24947c3.54494,-4.235 2.98554,-10.54189 -1.24947,-14.08684c-2.82036,-2.3608 -6.55961,-2.90129 -9.79004,-1.74812c-2.37233,2.19831 -4.03759,5.59044 -6.499,7.80158c-0.01542,0.09481 -0.02946,0.18978 -0.04212,0.28486zM451.05736,253.57842c-1.2849,0.57793 -1.93954,1.16293 -3.44341,1.31147c0,0 -0.71207,0.06316 -0.9855,-0.51936c-0.22349,0.01384 -0.43783,0.03966 -0.63695,0.08684c-5.07151,1.2016 -9.02304,-1.38544 -13.42003,-3.77065c-1.65397,-1.45146 -3.87304,-2.21886 -5.54278,-3.93653c-0.41814,-0.43014 -1.22948,-0.76705 -1.17361,-1.36434c0.13861,-1.48167 3.11693,-4.17999 4.08049,-5.33112c3.57453,-4.27035 7.14907,-8.5407 10.7236,-12.81106c0.19494,-0.23289 1.8553,-2.30383 2.20638,-2.36801c2.60152,-0.4756 4.64016,2.93974 6.60081,3.93068c5.76147,2.91195 8.53779,8.16124 9.12524,14.55286c0.60248,2.58398 0.70343,3.88843 -0.41338,6.28832c-0.96607,2.73289 -4.56638,2.78192 -7.12086,3.93088z" stroke-width="0.5"/></g></g></g></g></svg>