<svg version="1.1" xmlns="http://www.w3.org/2000/svg" xmlns:xlink="http://www.w3.org/1999/xlink" width="629.62763" height="444.94293" viewBox="0,0,629.62763,444.94293"><g transform="translate(67.30631,26.70565)"><g data-paper-data="{&quot;isPaintingLayer&quot;:true}" fill-rule="nonzero" stroke-linecap="butt" stroke-linejoin="miter" stroke-miterlimit="10" stroke-dasharray="" stroke-dashoffset="0" style="mix-blend-mode: normal"><path d="M-22.76276,406.72678v-432.43243h545.04505v432.43243z" fill="#d6d6d6" stroke="#000000" stroke-width="2"/><path d="M-66.30631,417.23728v-177.17718h627.62763v177.17718z" fill="#949494" stroke="#000000" stroke-width="2"/><path d="M182.94294,155.976v-114.11411h132.13213v114.11411z" fill="#98d7ff" stroke="#000000" stroke-width="2"/><path d="M200.96099,157.4775v-112.61261h10.51051v112.61261z" fill="#848484" stroke="#000000" stroke-width="2"/><path d="M220.48049,157.4775v-115.61562h10.51051v115.61562z" fill="#848484" stroke="#000000" stroke-width="2"/><path d="M241.50152,157.4775v-112.61261h10.51051v112.61261z" fill="#848484" stroke="#000000" stroke-width="2"/><path d="M265.52554,157.4775v-114.11411h7.50751v114.11411z" fill="#848484" stroke="#000000" stroke-width="2"/><path d="M285.2675,158.97901v-114.11411h10.56612v114.11411z" fill="#848484" stroke="#000000" stroke-width="2"/><path d="M306.78042,166.749c11.38105,0 20.60719,9.64081 20.60719,21.53336c0,11.89255 -9.22615,21.53336 -20.60719,21.53336c-11.38105,0 -20.6072,-9.64081 -20.6072,-21.53336c0,-11.89255 9.22616,-21.53336 20.6072,-21.53336z" data-paper-data="{&quot;index&quot;:null}" fill="#d29460" stroke="#000000" stroke-width="2"/><path d="M278.48893,252.72222c5.41873,0 9.81148,4.25759 9.81148,9.50959c0,5.252 -4.39275,9.50959 -9.81148,9.50959c-5.41873,0 -9.81148,-4.25759 -9.81148,-9.50959c0,-5.252 4.39275,-9.50959 9.81148,-9.50959z" data-paper-data="{&quot;index&quot;:null}" fill="#ff0000" stroke="#000000" stroke-width="5"/><path d="M309.412,222.20932c7.66462,-0.6632 14.98133,11.55014 16.34234,27.27927c1.36101,15.72913 -3.74908,29.01774 -11.4137,29.68094c-7.66462,0.6632 -14.98133,-11.55014 -16.34235,-27.27927c-1.36101,-15.72913 3.74908,-29.01774 11.41371,-29.68094z" data-paper-data="{&quot;index&quot;:null}" fill="#ff0000" stroke="#000000" stroke-width="5"/><path d="M341.3839,297.41883c6.08771,0 11.02277,2.87427 11.02277,6.41986c0,3.54559 -4.93506,6.41986 -11.02277,6.41986c-6.08771,0 -11.02277,-2.87427 -11.02277,-6.41986c0,-3.54559 4.93506,-6.41986 11.02277,-6.41986z" data-paper-data="{&quot;index&quot;:null}" fill="#ff0000" stroke="#000000" stroke-width="5"/><path d="M308.02457,298.38731c6.08771,0 11.02277,2.87426 11.02277,6.41985c0,3.54559 -4.93506,6.41985 -11.02277,6.41985c-6.0877,0 -11.02277,-2.87426 -11.02277,-6.41985c0,-3.54559 4.93506,-6.41985 11.02277,-6.41985z" data-paper-data="{&quot;index&quot;:null}" fill="#ff0000" stroke="#000000" stroke-width="5"/><path d="M303.5257,166.89708c1.7985,-0.03466 7.23539,-1.23033 8.69874,0.56618c1.19553,1.46772 9.95755,3.73715 10.33325,7.33322c0.45485,-0.088 0.82342,-0.00141 1.06758,0.32413c0.89578,1.19438 -1.38708,2.19145 -2.02353,2.63529c-2.51002,1.75042 -5.07661,4.51493 -7.79883,5.8044c-3.32701,1.57595 -1.93333,-3.09904 -2.24521,-3.12778c-2.11883,-0.19523 -4.99681,1.22268 -7.23571,1.28156c-4.36122,0.11469 -8.46442,-0.26607 -12.80749,-0.34641c-0.55121,-0.0102 -3.3739,0.11064 -3.78499,-0.60877c-0.29474,-0.17395 -0.49247,-0.49479 -0.49247,-0.86182c0,-0.49706 0.36266,-0.90942 0.83781,-0.98691c1.37581,-6.33275 9.22971,-11.89321 15.45085,-12.01309z" fill="#000000" stroke="none" stroke-width="0.5"/><g fill="#000000" stroke="none" stroke-width="0.5"><path d="M292.04276,194.1358c-1.668,0 -1.668,-1.668 -1.668,-1.668l0.01463,-0.37527c-0.34511,-2.59248 -0.61035,-4.98782 -0.61035,-7.60731c0,0 0,-1.668 1.668,-1.668c1.668,0 1.668,1.668 1.668,1.668c0,2.47742 0.25351,4.71337 0.58108,7.16641l0.01463,0.81616c0,0 0,1.668 -1.668,1.668z"/><path d="M297.52335,193.65925c-1.668,0 -1.668,-1.668 -1.668,-1.668l0.01676,-0.00239c-0.35855,-2.52058 -0.37419,-4.96093 -0.37419,-7.50361c0,0 0,-1.668 1.668,-1.668c1.668,0 1.668,1.668 1.668,1.668c0,2.38598 0.00146,4.66817 0.34066,7.03182l0.01676,0.47418c0,0 0,1.668 -1.668,1.668z"/><path d="M304.67193,200.8078c0,1.668 -1.668,1.668 -1.668,1.668l-1.42941,-0.00424c-1.8419,-0.15079 -3.1094,0.24488 -4.89108,0.77046c0,0 -1.60022,0.47065 -2.07088,-1.12957c-0.47065,-1.60022 1.12957,-2.07088 1.12957,-2.07088c2.15042,-0.63072 3.82916,-1.03976 6.07006,-0.89754l1.19173,-0.00424c0,0 1.668,0 1.668,1.668z"/></g><g><path d="M302.15236,239.82999c4.8562,2.40416 6.90394,8.16871 4.57376,12.87549c-2.33018,4.70678 -8.1559,6.57342 -13.0121,4.16926c-4.8562,-2.40416 -6.90394,-8.16871 -4.57376,-12.87549c2.33018,-4.70678 8.1559,-6.57342 13.0121,-4.16926z" data-paper-data="{&quot;index&quot;:null}" fill="#ff0000" stroke="#000000" stroke-width="5"/><g fill="#7c7c7c" stroke="none"><path d="M324.32819,320.0526l-24.36125,-55.41738l11.08349,-4.87225l24.36125,55.41738z" stroke-width="0"/><path d="M311.10622,259.97287c1.12809,2.5662 -0.47568,5.75353 -3.58214,7.11912c-3.10644,1.36558 -6.53921,0.3923 -7.6673,-2.1739c-1.12809,-2.5662 0.47569,-5.75353 3.58214,-7.11912c3.10644,-1.36558 6.53921,-0.3923 7.6673,2.1739z" stroke-width="0"/><path d="M353.11793,321.02336c1.4768,3.35944 -1.46487,1.43115 -3.79289,2.78174c-3.24094,1.8802 -8.45518,4.20743 -13.95731,6.62615c-5.53435,2.43288 -11.45587,4.72924 -14.48546,5.57714c-2.14591,0.60058 -0.53702,3.39766 -2.00177,0.06562c-3.5327,-8.03625 1.26779,-17.92009 10.7222,-22.07622c9.45441,-4.15612 19.98254,-1.01066 23.51524,7.02558z" stroke-width="0"/><path d="M352.85275,321.91807c0.11394,0.25919 0.12224,0.47726 0.07557,0.65671c-0.02998,1.43066 0.44076,2.70902 0.50449,4.13627c0.07008,1.56951 -0.65942,2.83071 -0.35864,4.40681c0.34785,1.82281 1.35862,3.16693 1.40805,5.17286c1.98134,4.34724 -1.09703,6.25656 -3.33309,9.48314c-1.57543,2.27328 -1.12585,4.89713 -3.21875,7.05316c-3.33007,3.43053 -9.1906,1.13431 -12.23381,-1.39411c-1.56175,-2.03521 -3.61217,-2.72226 -5.68473,-3.95296c-1.34916,-0.80116 -2.22842,-2.07374 -3.27983,-3.17808c-2.30117,-2.41702 -4.98902,-4.425 -7.17269,-6.9643c-0.27548,0.07051 -0.868,0.12716 -1.17055,-0.56108c-0.28618,-0.651 0.0941,-1.04257 0.33767,-1.21447c0.058,-0.14758 0.16554,-0.2975 0.34693,-0.43803c0.37003,-0.28669 0.70106,-0.26596 0.94852,-0.1628c6.4624,-2.8978 12.86448,-6.23377 19.4519,-9.12956c3.55721,-1.56374 7.00073,-4.23678 11.05939,-3.95701l0.18559,-0.087c-0.00227,-0.2909 0.10908,-0.65537 0.60109,-0.87166c0.91546,-0.40243 1.31789,0.51302 1.31789,0.51302l0.07973,0.25148c0.04929,0.06707 0.09487,0.14571 0.13527,0.23763z" stroke-width="0.5"/><path d="M291.09616,242.334l-0.14823,0.06516c-1.75947,2.72788 -2.15908,6.25892 -0.755,9.45295c2.22255,5.0559 8.1229,7.35278 13.17881,5.13022c5.0559,-2.22255 7.35278,-8.1229 5.13022,-13.17881c-1.48014,-3.36704 -4.59141,-5.51044 -7.99811,-5.91024c-3.10139,0.91755 -6.09878,3.2187 -9.28569,4.10823c-0.05588,0.07813 -0.1106,0.15701 -0.16413,0.2366zM301.08966,262.15248c-1.40792,-0.05214 -2.25416,0.18168 -3.66781,-0.35243c0,0 -0.66617,-0.25932 -0.65277,-0.90269c-0.20643,-0.08675 -0.40997,-0.15871 -0.60936,-0.20477c-5.07814,-1.17324 -7.47165,-5.24491 -10.35392,-9.33335c-0.83829,-2.03461 -2.48652,-3.70689 -3.22083,-5.98706c-0.18389,-0.571 -0.76152,-1.23291 -0.44645,-1.74341c0.7816,-1.26636 4.64791,-2.36315 6.02217,-2.96727c5.0981,-2.2411 10.19621,-4.4822 15.29431,-6.72332c0.27803,-0.12222 2.68485,-1.24151 3.02796,-1.14326c2.54246,0.728 2.85416,4.69328 4.17162,6.45124c3.8714,5.16588 4.03052,11.10201 1.72118,17.09074c-0.60651,2.58304 -1.0948,3.79686 -3.16044,5.45211c-2.0783,2.02056 -5.3266,0.46713 -8.12566,0.36346z" stroke-width="0.5"/></g></g></g></g></svg>