<svg version="1.1" xmlns="http://www.w3.org/2000/svg" xmlns:xlink="http://www.w3.org/1999/xlink" width="585" height="613.04026" viewBox="0,0,585,613.04026"><g transform="translate(41.49996,26.70537)"><g data-paper-data="{&quot;isPaintingLayer&quot;:true}" fill-rule="nonzero" stroke-linecap="butt" stroke-linejoin="miter" stroke-miterlimit="10" stroke-dasharray="" stroke-dashoffset="0" style="mix-blend-mode: normal"><path d="M-22.76264,406.72706v-432.43243h545.04505v432.43243z" fill="#cbcbcb" stroke="#ffffff" stroke-width="2"/><path d="M-41.49996,586.33489v-279.00601h585v279.00601z" fill="#8c8c8c" stroke="none" stroke-width="0"/><path d="M60.29926,313.85706v-172h57v172z" fill="#636363" stroke="#000000" stroke-width="0.5"/><path d="M115.79776,315.35848v-172h57v172z" fill="#636363" stroke="#000000" stroke-width="0.5"/><path d="M115.11424,249.68487c0,5.39017 -4.36959,9.75976 -9.75976,9.75976c-5.39017,0 -9.75976,-4.36959 -9.75976,-9.75976c0,-5.39017 4.36959,-9.75976 9.75976,-9.75976c5.39017,0 9.75976,4.36959 9.75976,9.75976z" fill="#c4c4c4" stroke="#000000" stroke-width="0.5"/><path d="M126.3755,241.42669c4.56091,0 8.25826,4.03347 8.25826,9.00901c0,4.97554 -3.69735,9.00901 -8.25826,9.00901c-4.56091,0 -8.25826,-4.03347 -8.25826,-9.00901c0,-4.97554 3.69735,-9.00901 8.25826,-9.00901z" fill="#c4c4c4" stroke="#000000" stroke-width="0.5"/><path d="M320.96266,329.75555c-2.42307,6.21639 -9.58672,9.22913 -16.00046,6.72914c-6.41374,-2.49999 -9.64881,-9.56602 -7.22574,-15.78241c2.42307,-6.21639 9.58672,-9.22913 16.00046,-6.72914c6.41374,2.49999 9.64881,9.56602 7.22574,15.78241z" data-paper-data="{&quot;index&quot;:null}" fill="#ff0000" stroke="#000000" stroke-width="5"/><path d="M264.41687,288.8384c6.66157,0.37189 11.7508,6.24509 11.36709,13.11814c-0.38369,6.87304 -6.09502,12.14328 -12.75658,11.77137c-6.66157,-0.37189 -11.7508,-6.24509 -11.36709,-13.11814c0.38369,-6.87304 6.09502,-12.14327 12.75658,-11.77137z" data-paper-data="{&quot;index&quot;:null}" fill="#ff0000" stroke="#000000" stroke-width="5"/><text transform="translate(38.53758,130.31546) scale(0.5,0.5)" font-size="40" xml:space="preserve" fill="#ff0000" fill-rule="nonzero" stroke="none" stroke-width="1" stroke-linecap="butt" stroke-linejoin="miter" stroke-miterlimit="10" stroke-dasharray="" stroke-dashoffset="0" font-family="Sans Serif" font-weight="normal" text-anchor="start" style="mix-blend-mode: normal"><tspan x="0" dy="0">EMERGANCY EXIT</tspan></text><path d="M211.18851,354.48724v-41.5h77.5v41.5z" fill="#181818" stroke="none" stroke-width="0"/><path d="M223.51763,322.75479c2.10604,-5.40304 8.19335,-8.0758 13.5964,-5.96976c5.40304,2.10604 8.0758,8.19335 5.96976,13.5964c-2.10604,5.40304 -8.19335,8.0758 -13.5964,5.96976c-5.40304,-2.10604 -8.0758,-8.19335 -5.96976,-13.5964z" fill="#000000" stroke="#0cff00" stroke-width="2"/><g><path d="M308.74597,288.08378c1.07585,15.06949 -9.74278,28.12036 -24.16413,29.14994c-14.42133,1.02958 -26.98428,-10.352 -28.06014,-25.42149c-1.07586,-15.06948 9.74277,-28.12035 24.16413,-29.14993c14.42133,-1.02958 26.98428,10.352 28.06014,25.42149z" data-paper-data="{&quot;index&quot;:null}" fill="#d29460" stroke="#000000" stroke-width="2"/><path d="M284.92235,363.97744c-5.262,20.21749 -17.5141,34.52839 -27.36584,31.9643c-9.85174,-2.56411 -13.57249,-21.03224 -8.31049,-41.24973c5.26198,-20.21751 17.51407,-34.52839 27.36583,-31.9643c9.85177,2.56411 13.57252,21.03224 8.31052,41.24973z" data-paper-data="{&quot;index&quot;:null}" fill="#ff0000" stroke="#000000" stroke-width="5"/><path d="M226.398,411.42009c-1.64668,4.19239 -8.81691,5.29899 -16.01515,2.47168c-7.19825,-2.82732 -11.69867,-8.51792 -10.05199,-12.71031c1.64668,-4.19239 8.81691,-5.29899 16.01515,-2.47168c7.19825,2.82732 11.69867,8.51792 10.05199,12.71031z" data-paper-data="{&quot;index&quot;:null}" fill="#ff0000" stroke="#000000" stroke-width="5"/><path d="M252.75898,419.99477c-1.6358,4.19664 -8.80314,5.32183 -16.00868,2.5132c-7.20556,-2.80864 -11.72074,-8.48752 -10.08495,-12.68416c1.6358,-4.19664 8.80312,-5.32184 16.00868,-2.5132c7.20556,2.80864 11.72074,8.48752 10.08495,12.68416z" data-paper-data="{&quot;index&quot;:null}" fill="#ff0000" stroke="#000000" stroke-width="5"/><path d="M285.36798,262.57507c0.8394,-0.45778 1.70264,-0.85451 2.66724,-0.80053c3.78616,0.21188 7.55698,3.69205 10.99795,5.06768c2.52315,2.05204 6.83558,4.95371 7.78987,8.17212c0.23348,0.78742 -0.23072,1.56916 0.08064,2.36572c0.39125,1.00099 2.19644,0.40145 2.11634,1.98421c-0.02723,0.5381 -2.537,1.71854 -3.05901,1.94773c-1.18318,0.80932 -3.54108,1.38004 -4.93543,1.52943c-1.89091,0.2026 -3.89909,-2.37122 -5.82255,-2.04444c-2.39848,0.40747 -4.2723,2.48051 -6.34537,3.80824l0.17113,0.27563l-1.05456,0.65474c-0.19476,0.12386 -0.44387,0.15646 -0.67539,0.06622c-0.38594,-0.15043 -0.57684,-0.58523 -0.42641,-0.97117l0.36317,-0.93172c0.29383,-0.75382 0.90742,-2.95258 1.58608,-4.14863c-1.46673,0.31849 -2.92662,0.52704 -4.42121,0.78227c-6.98334,1.18676 -15.91339,-2.82189 -21.08492,-7.62485c0,0 -0.54766,-0.51242 -0.03523,-1.06007c0.26048,-0.27839 0.53007,-0.28286 0.73219,-0.21995c0.12643,-1.4871 2.75369,-3.29507 3.6383,-3.8772c1.44856,-0.95324 3.28387,-1.89184 5.23023,-2.6258c1.6171,-0.8629 3.27786,-1.44684 4.76696,-1.52851c1.87094,-0.10263 4.79793,0.43825 6.37717,-0.71422l0.91811,-0.18392c0,0 0.21484,-0.01982 0.4247,0.07704z" fill="#000000" stroke="none" stroke-width="0.5"/><path d="M285.95686,303.44141c-1.33989,-0.04813 -1.25171,-1.43621 -1.25171,-1.43621l0.11154,-1.75583c0.24361,-3.36962 1.31583,-6.50362 2.55214,-9.67537c0,0 0.50736,-1.30163 1.75061,-0.81703c1.24325,0.4846 0.73589,1.78624 0.73589,1.78624c-1.11198,2.85278 -2.20011,5.76279 -2.35885,8.80238l-0.11154,1.75583c0,0 -0.08817,1.3881 -1.42808,1.33998z" fill="#ffffff" stroke="none" stroke-width="0.5"/><path d="M294.20699,305.93668c-1.97818,-0.77107 -1.35329,-2.37425 -1.35329,-2.37425c0.5293,-1.35792 1.21299,-3.11194 1.91097,-4.90261c0.84022,-2.15558 1.70114,-4.36427 2.3383,-5.99891c0,0 0.6249,-1.60318 2.60308,-0.83211c1.97818,0.77107 1.35329,2.37425 1.35329,2.37425c-1.16647,2.99258 -2.33293,5.98514 -3.4994,8.97772l-0.74987,1.92378c0,0 -0.6249,1.60318 -2.60308,0.83211z" fill="#ffffff" stroke="none" stroke-width="0.5"/><path d="M268.58628,307.79133c0.03407,-0.34087 0.13723,-0.60552 0.13723,-0.60552l0.23486,-0.60254c2.34579,-5.89001 5.45027,-5.8876 9.45586,-4.29611c1.09972,0.43694 3.0612,0.94009 3.26128,2.68589c0.12566,1.0964 -0.64666,2.27064 -1.06291,3.37658c-1.5774,4.19103 -2.91618,5.37983 -6.19098,4.18057c-1.87727,-0.68748 -3.72776,-1.45303 -5.59033,-2.17904c0,0 -1.16465,-0.45397 -0.57751,-1.96029c0.09755,-0.25027 0.21105,-0.44642 0.33249,-0.59954z" fill="#000000" stroke="none" stroke-width="0.5"/></g><g stroke="none"><path d="M211.39606,357.32021l-1.13802,-44.46776l37.86637,-13.63467l-1.28358,43.46776z" fill="#c0c0c0" stroke-width="0"/><path d="M240.09846,310.70527c0.21951,2.37218 -1.09578,3.01319 -1.09578,3.01319c-7.8996,3.84994 -17.37912,8.46986 -25.27872,12.3198c0,0 -1.31529,0.64101 -1.5348,-1.73116c-0.21951,-2.37218 1.09578,-3.01319 1.09578,-3.01319c7.8996,-3.84994 15.7992,-7.69987 23.6988,-11.54981l1.57992,-0.76999c0,0 1.31529,-0.64101 1.5348,1.73116z" fill="#474747" stroke-width="0.5"/><path d="M244.18115,319.1384c0.21951,2.37218 -1.09578,3.01319 -1.09578,3.01319l-0.78996,0.38499c-2.30325,1.12251 -4.7397,1.96001 -7.00208,3.4041c-1.57823,1.0074 -3.03901,2.72106 -4.61582,3.73854c-5.63608,3.63684 -11.66187,4.42638 -17.03449,9.72529c0,0 -1.22278,1.19721 -1.75474,-0.94867c-0.53196,-2.14589 0.69081,-3.3431 0.69081,-3.3431c5.55817,-5.40636 11.63696,-6.30887 17.44427,-10.05619c1.57682,-1.01748 3.03772,-2.73022 4.61582,-3.73854c2.33298,-1.49064 4.84164,-2.36803 7.2172,-3.52578l0.78996,-0.38499c0,0 1.31529,-0.64101 1.5348,1.73116z" fill="#474747" stroke-width="0.5"/><path d="M243.65595,331.30636c0.21951,2.37218 -1.09578,3.01319 -1.09578,3.01319l-0.78996,0.38499c-2.85993,1.39381 -6.08681,2.3014 -8.83887,4.46495c-0.85179,0.66964 -1.58814,1.86315 -2.44551,2.50168c-0.87139,0.64897 -1.8118,0.76252 -2.69627,1.32765c-3.33721,2.13231 -6.64406,5.29331 -9.92878,7.80022c0,0 -1.27102,0.97004 -1.67433,-1.28763c-0.40331,-2.25768 0.86771,-3.22773 0.86771,-3.22773c3.33682,-2.54668 6.693,-5.73546 10.08283,-7.90853c0.84037,-0.53872 1.73684,-0.61878 2.56486,-1.23641c0.84204,-0.62808 1.56186,-1.81533 2.39973,-2.46673c2.89264,-2.24884 6.22769,-3.2488 9.22964,-4.71182l0.78996,-0.38499c0,0 1.31529,-0.64101 1.5348,1.73116z" fill="#474747" stroke-width="0.5"/></g><path d="M176.3943,448.75464v-93.98403h144v93.98403z" fill="#8c8c8c" stroke="none" stroke-width="0"/></g></g></svg>