<svg version="1.1" xmlns="http://www.w3.org/2000/svg" xmlns:xlink="http://www.w3.org/1999/xlink" width="629.62763" height="444.94293" viewBox="0,0,629.62763,444.94293"><g transform="translate(67.30631,26.70565)"><g data-paper-data="{&quot;isPaintingLayer&quot;:true}" fill-rule="nonzero" stroke-linecap="butt" stroke-linejoin="miter" stroke-miterlimit="10" stroke-dasharray="" stroke-dashoffset="0" style="mix-blend-mode: normal"><path d="M-22.76276,406.72678v-432.43243h545.04505v432.43243z" fill="#d6d6d6" stroke="#000000" stroke-width="2"/><path d="M-66.30631,417.23728v-177.17718h627.62763v177.17718z" fill="#949494" stroke="#000000" stroke-width="2"/><path d="M182.94294,155.976v-114.11411h132.13213v114.11411z" fill="#98d7ff" stroke="#000000" stroke-width="2"/><path d="M200.96099,157.4775v-112.61261h10.51051v112.61261z" fill="#848484" stroke="#000000" stroke-width="2"/><path d="M220.48049,157.4775v-115.61562h10.51051v115.61562z" fill="#848484" stroke="#000000" stroke-width="2"/><path d="M241.50152,157.4775v-112.61261h10.51051v112.61261z" fill="#848484" stroke="#000000" stroke-width="2"/><path d="M265.52554,157.4775v-114.11411h7.50751v114.11411z" fill="#848484" stroke="#000000" stroke-width="2"/><path d="M285.2675,158.97901v-114.11411h10.56612v114.11411z" fill="#848484" stroke="#000000" stroke-width="2"/><path d="M306.78042,166.749c11.38105,0 20.60719,9.64081 20.60719,21.53336c0,11.89255 -9.22615,21.53336 -20.60719,21.53336c-11.38105,0 -20.6072,-9.64081 -20.6072,-21.53336c0,-11.89255 9.22616,-21.53336 20.6072,-21.53336z" data-paper-data="{&quot;index&quot;:null}" fill="#d29460" stroke="#000000" stroke-width="2"/><path d="M278.48893,252.72222c5.41873,0 9.81148,4.25759 9.81148,9.50959c0,5.252 -4.39275,9.50959 -9.81148,9.50959c-5.41873,0 -9.81148,-4.25759 -9.81148,-9.50959c0,-5.252 4.39275,-9.50959 9.81148,-9.50959z" data-paper-data="{&quot;index&quot;:null}" fill="#ff0000" stroke="#000000" stroke-width="5"/><path d="M309.412,222.20932c7.66462,-0.6632 14.98133,11.55014 16.34234,27.27927c1.36101,15.72913 -3.74908,29.01774 -11.4137,29.68094c-7.66462,0.6632 -14.98133,-11.55014 -16.34235,-27.27927c-1.36101,-15.72913 3.74908,-29.01774 11.41371,-29.68094z" data-paper-data="{&quot;index&quot;:null}" fill="#ff0000" stroke="#000000" stroke-width="5"/><path d="M341.38393,297.41883c6.08771,0 11.02277,2.87427 11.02277,6.41986c0,3.54559 -4.93506,6.41986 -11.02277,6.41986c-6.08771,0 -11.02277,-2.87427 -11.02277,-6.41986c0,-3.54559 4.93506,-6.41986 11.02277,-6.41986z" data-paper-data="{&quot;index&quot;:null}" fill="#ff0000" stroke="#000000" stroke-width="5"/><path d="M308.02457,298.38731c6.08771,0 11.02277,2.87426 11.02277,6.41985c0,3.54559 -4.93506,6.41985 -11.02277,6.41985c-6.0877,0 -11.02277,-2.87426 -11.02277,-6.41985c0,-3.54559 4.93506,-6.41985 11.02277,-6.41985z" data-paper-data="{&quot;index&quot;:null}" fill="#ff0000" stroke="#000000" stroke-width="5"/><path d="M303.5257,166.89708c1.7985,-0.03466 7.23539,-1.23033 8.69874,0.56618c1.19553,1.46772 9.95755,3.73715 10.33325,7.33322c0.45485,-0.088 0.82342,-0.00141 1.06758,0.32413c0.89578,1.19438 -1.38708,2.19145 -2.02353,2.63529c-2.51002,1.75042 -5.07661,4.51493 -7.79883,5.8044c-3.32701,1.57595 -1.93333,-3.09904 -2.24521,-3.12778c-2.11883,-0.19523 -4.99681,1.22268 -7.23571,1.28156c-4.36122,0.11469 -8.46442,-0.26607 -12.80749,-0.34641c-0.55121,-0.0102 -3.3739,0.11064 -3.78499,-0.60877c-0.29474,-0.17395 -0.49247,-0.49479 -0.49247,-0.86182c0,-0.49706 0.36266,-0.90942 0.83781,-0.98691c1.37581,-6.33275 9.22971,-11.89321 15.45085,-12.01309z" fill="#000000" stroke="none" stroke-width="0.5"/><g fill="#000000" stroke="none" stroke-width="0.5"><path d="M292.04276,194.1358c-1.668,0 -1.668,-1.668 -1.668,-1.668l0.01463,-0.37527c-0.34511,-2.59248 -0.61035,-4.98782 -0.61035,-7.60731c0,0 0,-1.668 1.668,-1.668c1.668,0 1.668,1.668 1.668,1.668c0,2.47742 0.25351,4.71337 0.58108,7.16641l0.01463,0.81616c0,0 0,1.668 -1.668,1.668z"/><path d="M297.52335,193.65925c-1.668,0 -1.668,-1.668 -1.668,-1.668l0.01676,-0.00239c-0.35855,-2.52058 -0.37419,-4.96093 -0.37419,-7.50361c0,0 0,-1.668 1.668,-1.668c1.668,0 1.668,1.668 1.668,1.668c0,2.38598 0.00146,4.66817 0.34066,7.03182l0.01676,0.47418c0,0 0,1.668 -1.668,1.668z"/><path d="M304.67193,200.8078c0,1.668 -1.668,1.668 -1.668,1.668l-1.42941,-0.00424c-1.8419,-0.15079 -3.1094,0.24488 -4.89108,0.77046c0,0 -1.60022,0.47065 -2.07088,-1.12957c-0.47065,-1.60022 1.12957,-2.07088 1.12957,-2.07088c2.15042,-0.63072 3.82916,-1.03976 6.07006,-0.89754l1.19173,-0.00424c0,0 1.668,0 1.668,1.668z"/></g><path d="M303.94858,239.75894c-0.54488,5.39127 -5.2226,9.33363 -10.44798,8.80552c-5.22538,-0.52811 -9.01968,-5.32672 -8.4748,-10.71798c0.54488,-5.39127 5.2226,-9.33363 10.44798,-8.80552c5.22538,0.52811 9.01968,5.32672 8.4748,10.71798z" data-paper-data="{&quot;index&quot;:null}" fill="#ff0000" stroke="#000000" stroke-width="5"/><g fill="#7c7c7c" stroke="none"><path d="M211.75224,289.51649l25.29632,-54.99685l10.99938,5.05927l-25.29632,54.99685z" stroke-width="0"/><path d="M247.92792,239.75994c-1.17139,2.54673 -4.62015,3.46174 -7.70303,2.04374c-3.08287,-1.41799 -4.63244,-4.63202 -3.46106,-7.17875c1.17139,-2.54673 4.62016,-3.46172 7.70303,-2.04374c3.08287,1.41799 4.63244,4.63202 3.46106,7.17875z" stroke-width="0"/><path d="M230.12873,311.69974c-1.53348,3.33395 -2.0427,-0.14634 -4.59785,-0.99191c-3.55712,-1.17715 -8.75804,-3.53402 -14.21842,-6.04557c-5.49235,-2.52626 -11.13947,-5.43277 -13.78405,-7.13675c-1.8732,-1.20696 -2.8983,1.85266 -1.37733,-1.45408c3.66831,-7.97526 14.24817,-10.94196 23.63085,-6.62632c9.38267,4.31565 14.01507,14.27939 10.34679,22.25464z" stroke-width="0"/><path d="M229.2834,312.09501c-0.11831,0.25723 -0.27595,0.40813 -0.44118,0.49228c-1.09024,0.92685 -1.73431,2.12726 -2.75981,3.12196c-1.12774,1.09383 -2.55534,1.3849 -3.53493,2.65572c-1.13293,1.46973 -1.46786,3.11779 -2.93582,4.48577c-1.93772,4.36685 -5.40877,3.33066 -9.30642,3.79866c-2.7461,0.32971 -4.41083,2.40707 -7.41256,2.27184c-4.77615,-0.21515 -6.94684,-6.12333 -7.07445,-10.07779c0.48638,-2.51885 -0.3601,-4.50875 -0.81455,-6.87594c-0.29581,-1.54097 0.07286,-3.04318 0.20144,-4.56256c0.28141,-3.32538 0.00023,-6.66865 0.4511,-9.98726c-0.23554,-0.15932 -0.67107,-0.56502 -0.35692,-1.24804c0.29716,-0.64606 0.84245,-0.62137 1.13267,-0.55321c0.1489,-0.05453 0.33241,-0.07355 0.55791,-0.03109c0.46001,0.08661 0.66414,0.34803 0.75117,0.60161c6.45597,2.91209 13.19973,5.48832 19.73715,8.49528c3.53022,1.62375 7.81493,2.4264 10.29865,5.64853l0.18823,0.08113c0.21613,-0.19472 0.5627,-0.35325 1.05097,-0.12867c0.90851,0.41788 0.49064,1.32638 0.49064,1.32638l-0.13524,0.22651c-0.01747,0.08138 -0.04606,0.16767 -0.08803,0.25888z" stroke-width="0.5"/><path d="M247.84728,213.08549l-0.1471,-0.06766c-3.20832,0.49366 -6.11524,2.53764 -7.57321,5.70743c-2.30787,5.01753 -0.11125,10.95594 4.90631,13.2638c5.01753,2.30787 10.95594,0.11125 13.2638,-4.90631c1.53695,-3.34149 1.07613,-7.0914 -0.8852,-9.90541c-2.74432,-1.7115 -6.45478,-2.42712 -9.23488,-4.22119c-0.09553,0.01003 -0.19086,0.02144 -0.28592,0.03419zM239.65098,233.71226c-0.89518,-1.08793 -1.63162,-1.56591 -2.17002,-2.97792c0,0 -0.24801,-0.67045 0.24221,-1.08733c-0.07207,-0.212 -0.15328,-0.41203 -0.25113,-0.59177c-2.49171,-4.57771 -1.03365,-9.07007 0.11267,-13.93923c0.96597,-1.97718 1.12345,-4.31992 2.34212,-6.38224c0.30518,-0.51645 0.41711,-1.38781 1.0081,-1.49082c1.46604,-0.2555 4.85201,1.90934 6.21584,2.53663c5.0594,2.32713 10.11883,4.65426 15.17825,6.98138c0.27592,0.12691 2.71031,1.1849 2.86446,1.50679c1.14233,2.38519 -1.61748,5.24946 -2.05853,7.40158c-1.29609,6.3241 -5.63164,10.38193 -11.64443,12.62786c-2.33495,1.26016 -3.56706,1.70024 -6.17605,1.25313c-2.8907,-0.2142 -3.88383,-3.67516 -5.66351,-5.83808z" stroke-width="0.5"/></g></g></g></svg>