<svg version="1.1" xmlns="http://www.w3.org/2000/svg" xmlns:xlink="http://www.w3.org/1999/xlink" width="536.03603" height="589.55108" viewBox="0,0,536.03603,589.55108"><g transform="translate(37.37532,131.91493)"><g data-paper-data="{&quot;isPaintingLayer&quot;:true}" fill-rule="nonzero" stroke-linejoin="miter" stroke-miterlimit="10" stroke-dasharray="" stroke-dashoffset="0" style="mix-blend-mode: normal"><path d="M-37.37532,457.63615v-564.41442h536.03603v564.41442z" fill="#6b6b6b" stroke="none" stroke-width="0" stroke-linecap="butt"/><text transform="translate(31.48052,-17.88186) scale(2.62145,2.62145)" font-size="40" xml:space="preserve" fill="#000000" fill-rule="nonzero" stroke="none" stroke-width="1" stroke-linecap="butt" stroke-linejoin="miter" stroke-miterlimit="10" stroke-dasharray="" stroke-dashoffset="0" font-family="Sans Serif" font-weight="normal" text-anchor="start" style="mix-blend-mode: normal"><tspan x="0" dy="0">LA JAEL</tspan></text><path d="M-3.20417,110.35175v-65.95882h63.24455v65.95882z" fill="#8a8a8a" stroke="none" stroke-width="0" stroke-linecap="butt"/><path d="M72.38078,121.61301v-69.17631h53.98926v69.17631z" fill="#8a8a8a" stroke="none" stroke-width="0" stroke-linecap="butt"/><path d="M146.42316,123.22175v-74.00257h64.78708v74.00257z" fill="#8a8a8a" stroke="none" stroke-width="0" stroke-linecap="butt"/><path d="M234.32289,120.85175v-65.95882h63.24455v65.95882z" fill="#8a8a8a" stroke="none" stroke-width="0" stroke-linecap="butt"/><path d="M309.90782,132.113v-69.17631h53.98926v69.17631z" fill="#8a8a8a" stroke="none" stroke-width="0" stroke-linecap="butt"/><path d="M383.95021,133.72175v-74.00257h64.7871v74.00257z" fill="#8a8a8a" stroke="none" stroke-width="0" stroke-linecap="butt"/><path d="M0.98953,237.51842v-65.95882h63.24455v65.95882z" fill="#8a8a8a" stroke="none" stroke-width="0" stroke-linecap="butt"/><path d="M76.57448,248.77968v-69.17631h53.98926v69.17631z" fill="#8a8a8a" stroke="none" stroke-width="0" stroke-linecap="butt"/><path d="M150.61686,250.3884v-74.00257h64.78708v74.00257z" fill="#8a8a8a" stroke="none" stroke-width="0" stroke-linecap="butt"/><path d="M228.00606,249.51991v-65.95882h63.24455v65.95882z" fill="#8a8a8a" stroke="none" stroke-width="0" stroke-linecap="butt"/><path d="M392.64841,254.88241v-74.00257h64.78708v74.00257z" fill="#8a8a8a" stroke="none" stroke-width="0" stroke-linecap="butt"/><path d="M-4.27624,367.83825v-65.95882h63.24455v65.95882z" fill="#8a8a8a" stroke="none" stroke-width="0" stroke-linecap="butt"/><path d="M71.30871,379.09952v-69.17631h53.98924v69.17631z" fill="#8a8a8a" stroke="none" stroke-width="0" stroke-linecap="butt"/><path d="M308.83575,389.59949v-69.17631h53.98926v69.17631z" fill="#8a8a8a" stroke="none" stroke-width="0" stroke-linecap="butt"/><path d="M382.87813,391.20824v-74.00257h64.7871v74.00257z" fill="#8a8a8a" stroke="none" stroke-width="0" stroke-linecap="butt"/><path d="M306.82738,254.12417v-70h66.5v70z" fill="#515151" stroke="none" stroke-width="0" stroke-linecap="butt"/><path d="M358.74133,203.65067c4.30312,0 7.79148,3.64514 7.79148,8.14165c0,4.49652 -3.48836,8.14165 -7.79148,8.14165c-4.30312,0 -7.79148,-3.64514 -7.79148,-8.14165c0,-4.49652 3.48836,-8.14165 7.79148,-8.14165z" data-paper-data="{&quot;index&quot;:null}" fill="#d29460" stroke="#000000" stroke-width="1" stroke-linecap="butt"/><path d="M358.69006,222.96493c2.90869,-0.02325 5.30533,4.79684 5.35304,10.76598c0.04772,5.96914 -2.27157,10.82693 -5.18026,10.85018c-2.90869,0.02325 -5.30533,-4.79684 -5.35304,-10.76598c-0.04772,-5.96914 2.27157,-10.82693 5.18026,-10.85018z" data-paper-data="{&quot;index&quot;:null}" fill="#ff0000" stroke="#000000" stroke-width="1" stroke-linecap="butt"/><path d="M370.63437,215.30904c2.04879,0 3.70967,1.60977 3.70967,3.59553c0,1.98575 -1.66088,3.59553 -3.70967,3.59553c-2.04879,0 -3.70967,-1.60978 -3.70967,-3.59553c0,-1.98575 1.66088,-3.59553 3.70967,-3.59553z" data-paper-data="{&quot;index&quot;:null}" fill="#ff0000" stroke="#000000" stroke-width="1" stroke-linecap="butt"/><path d="M348.68981,235.77766c2.04879,0 3.70967,1.60978 3.70967,3.59553c0,1.98575 -1.66088,3.59553 -3.70967,3.59553c-2.04879,0 -3.70967,-1.60978 -3.70967,-3.59553c0,-1.98575 1.66088,-3.59553 3.70967,-3.59553z" data-paper-data="{&quot;index&quot;:null}" fill="#ff0000" stroke="#000000" stroke-width="1" stroke-linecap="butt"/><path d="M362.34341,248.28337c2.30173,0 4.16766,1.08675 4.16766,2.42732c0,1.34057 -1.86592,2.42732 -4.16766,2.42732c-2.30173,0 -4.16766,-1.08675 -4.16766,-2.42732c0,-1.34057 1.86592,-2.42732 4.16766,-2.42732z" data-paper-data="{&quot;index&quot;:null}" fill="#ff0000" stroke="#000000" stroke-width="1" stroke-linecap="butt"/><path d="M351.38278,248.13946c2.30173,0 4.16766,1.08674 4.16766,2.42731c0,1.34057 -1.86592,2.42731 -4.16766,2.42731c-2.30173,0 -4.16766,-1.08674 -4.16766,-2.42731c0,-1.34057 1.86592,-2.42731 4.16766,-2.42731z" data-paper-data="{&quot;index&quot;:null}" fill="#ff0000" stroke="#000000" stroke-width="1" stroke-linecap="butt"/><path d="M358.01075,203.26545c0.68,-0.00972 2.73566,-0.34504 3.28895,0.15878c0.45203,0.41162 3.7649,1.04808 3.90695,2.05658c0.17198,-0.02468 0.31133,-0.0004 0.40365,0.0909c0.33869,0.33496 -0.52445,0.61459 -0.76509,0.73906c-0.94903,0.4909 -1.91944,1.2662 -2.9487,1.62783c-1.25793,0.44197 -0.73098,-0.86912 -0.8489,-0.87718c-0.80112,-0.05475 -1.88927,0.3429 -2.73579,0.35941c-1.64895,0.03216 -3.20036,-0.07462 -4.84245,-0.09715c-0.20841,-0.00286 -1.27565,0.03103 -1.43108,-0.17073c-0.11144,-0.04878 -0.1862,-0.13876 -0.1862,-0.2417c0,-0.1394 0.13712,-0.25504 0.31677,-0.27678c0.52019,-1.776 3.48971,-3.33542 5.84189,-3.36904z" fill="#000000" stroke="none" stroke-width="0.5" stroke-linecap="butt"/><path d="M353.83577,213.13879c-0.63066,0 -0.63066,-0.63066 -0.63066,-0.63066l0.00553,-0.14189c-0.13049,-0.9802 -0.23077,-1.88587 -0.23077,-2.87629c0,0 0,-0.63066 0.63066,-0.63066c0.63066,0 0.63066,0.63066 0.63066,0.63066c0,0.9367 0.09585,1.7821 0.2197,2.70958l0.00553,0.30858c0,0 0,0.63066 -0.63066,0.63066z" fill="#ffffff" stroke="none" stroke-width="0.5" stroke-linecap="butt"/><path d="M356.76911,213.67215c-0.63067,0 -0.63066,-0.63066 -0.63066,-0.63066l0.00554,-0.14189c-0.13049,-0.98021 -0.23078,-1.88587 -0.23078,-2.87628c0,0 0,-0.63066 0.63067,-0.63066c0.63067,0 0.63067,0.63066 0.63067,0.63066c0,0.9367 0.09584,1.78211 0.2197,2.70959l0.00554,0.30858c0,0 0,0.63066 -0.63067,0.63066z" fill="#ffffff" stroke="none" stroke-width="0.5" stroke-linecap="butt"/><path d="M314.89364,211.62775c0,-3.79948 1.85194,-7.03592 6.26423,-7.03592c4.4123,0 6.17345,4.33091 6.17345,8.13039c0,2.03221 0.15787,3.31788 -0.79268,4.32759c-0.82663,0.87807 -2.60217,1.61385 -4.65448,1.61385c-4.4123,0 -6.99052,-3.23644 -6.99052,-7.03592z" fill="#000000" stroke="#00ff08" stroke-width="0.5" stroke-linecap="butt"/><path d="M324.717,213.41598l0.11644,-4.92203" fill="none" stroke="#00ff08" stroke-width="1" stroke-linecap="round"/><path d="M321.99115,213.03842l-0.27236,-4.99323" fill="none" stroke="#00ff08" stroke-width="1" stroke-linecap="round"/><path d="M315.15761,232.87289c-0.12226,-4.82747 0.63352,-8.68889 5.0444,-8.80059c4.41088,-0.11171 5.67783,5.45324 5.80009,10.28071c0.03325,1.31298 0.06256,4.86988 -1.01871,6.91651c-1.04512,1.97819 -2.55047,2.36235 -3.55885,2.38789c-4.41088,0.11171 -6.14466,-5.95704 -6.26692,-10.78451z" fill="#000000" stroke="#00ff08" stroke-width="1" stroke-linecap="butt"/><path d="M304.79017,223.17864c0,-2.23122 1.80876,-4.03998 4.03998,-4.03998c2.23122,0 4.03998,1.80876 4.03998,4.03998c0,2.23122 -1.80876,4.03998 -4.03998,4.03998c-2.23122,0 -4.03998,-1.80876 -4.03998,-4.03998z" fill="#000000" stroke="#00ff08" stroke-width="1" stroke-linecap="butt"/><path d="M325.81522,251.66869c-0.03671,-1.27804 1.63997,-2.3631 3.74497,-2.42356c2.105,-0.06046 3.8412,0.92658 3.87791,2.20461c0.03671,1.27804 -1.63997,2.3631 -3.74497,2.42356c-2.105,0.06046 -3.8412,-0.92658 -3.87791,-2.20461z" fill="#000000" stroke="#00ff08" stroke-width="1" stroke-linecap="butt"/><path d="M328.69284,225.0266c0,-2.23122 1.80876,-4.03998 4.03998,-4.03998c2.23122,0 4.03998,1.80876 4.03998,4.03998c0,2.23122 -1.80876,4.03998 -4.03998,4.03998c-2.23122,0 -4.03998,-1.80876 -4.03998,-4.03998z" fill="#000000" stroke="#00ff08" stroke-width="1" stroke-linecap="butt"/><path d="M311.84685,251.07228c0.01294,-1.2785 1.73049,-2.29765 3.83625,-2.27633c2.10576,0.02131 3.80233,1.07502 3.78938,2.35352c-0.01294,1.2785 -1.73049,2.29765 -3.83625,2.27633c-2.10576,-0.02131 -3.80233,-1.07502 -3.78938,-2.35352z" fill="#000000" stroke="#00ff08" stroke-width="1" stroke-linecap="butt"/><path d="M354.30527,217.16315c-0.09859,0.03938 -0.22488,0.04548 -0.37886,-0.03151c-0.42802,-0.21401 -0.21401,-0.64203 -0.21401,-0.64203c0.28816,-0.57422 0.5751,-1.76719 1.1593,-2.12208c0.24915,-0.15135 1.7945,-0.13199 2.08723,-0.03609c1.05818,0.34666 1.61837,1.19517 1.84664,2.22085c0.07079,0.31807 0.36848,0.72282 0.15133,0.96577c-0.78615,0.87952 -2.95378,0.04477 -3.93466,-0.15006l-0.312,0.00555c0,0 -0.27339,-0.00253 -0.40497,-0.21041z" fill="#000000" stroke="none" stroke-width="0.5" stroke-linecap="butt"/><path d="M320.97194,216.21781c-0.09859,0.01094 -0.22488,0.01263 -0.37886,-0.00875c-0.42802,-0.05945 -0.21401,-0.17834 -0.21401,-0.17834c0.28816,-0.15951 0.5751,-0.49089 1.1593,-0.58947c0.24915,-0.04204 1.7945,-0.03666 2.08723,-0.01002c1.05818,0.09629 1.61837,0.33199 1.84664,0.6169c0.07079,0.08835 0.36848,0.20078 0.15133,0.26827c-0.78615,0.24431 -2.95378,0.01244 -3.93466,-0.04168l-0.312,0.00154c0,0 -0.27339,-0.0007 -0.40497,-0.05845z" fill="#00ff08" stroke="none" stroke-width="0.5" stroke-linecap="butt"/></g></g></svg>