<svg version="1.1" xmlns="http://www.w3.org/2000/svg" xmlns:xlink="http://www.w3.org/1999/xlink" width="692.16488" height="596.24474" viewBox="0,0,692.16488,596.24474"><g transform="translate(150.66485,83.40991)"><g data-paper-data="{&quot;isPaintingLayer&quot;:true}" fill-rule="nonzero" stroke-linecap="butt" stroke-linejoin="miter" stroke-miterlimit="10" stroke-dasharray="" stroke-dashoffset="0" style="mix-blend-mode: normal"><path d="M-45.49997,512.83483v-273h585v273z" fill="#8c8c8c" stroke="none" stroke-width="0"/><path d="M-43.49997,239.5v-273h585v273z" fill="#ababab" stroke="none" stroke-width="0"/><path d="M182.50004,166.5v-93h110v93z" fill="#00d9ff" stroke="none" stroke-width="0"/><g fill="#a7a7a7" stroke="none" stroke-width="0"><path d="M193.50004,167.5v-93h12v93z"/><path d="M217.50004,167.5v-93h12v93z"/><path d="M239.50004,167.5v-93h12v93z"/><path d="M263.50004,167.5v-93h12v93z"/></g><path d="M197.50004,167.5v-93h12v93z" fill="#cecece" stroke="none" stroke-width="0"/><path d="M221.50004,167.5v-93h12v93z" fill="#cecece" stroke="none" stroke-width="0"/><path d="M243.50004,167.5v-93h12v93z" fill="#cecece" stroke="none" stroke-width="0"/><path d="M267.50004,167.5v-93h12v93z" fill="#cecece" stroke="none" stroke-width="0"/><path d="M413.50004,412.5v-91h65v91z" fill="#9f9f9f" stroke="none" stroke-width="0"/><path d="" fill="#000000" stroke="none" stroke-width="0.5"/><path d="M275.76214,231.27706c7.69326,0 13.92988,12.79863 13.92988,28.58653c0,15.7879 -6.23662,28.58653 -13.92988,28.58653c-7.69326,0 -13.92988,-12.79863 -13.92988,-28.58653c0,-15.7879 6.23662,-28.58653 13.92988,-28.58653z" data-paper-data="{&quot;index&quot;:null}" fill="#ff0000" stroke="#000000" stroke-width="5"/><path d="M246.44536,265.68468c5.41873,0 9.81148,4.25759 9.81148,9.50959c0,5.252 -4.39275,9.50959 -9.81148,9.50959c-5.41873,0 -9.81148,-4.25759 -9.81148,-9.50959c0,-5.252 4.39275,-9.50959 9.81148,-9.50959z" data-paper-data="{&quot;index&quot;:null}" fill="#ff0000" stroke="#000000" stroke-width="5"/><path d="M289.94534,299.25216c6.08771,0 11.02277,2.87427 11.02277,6.41986c0,3.54559 -4.93506,6.41986 -11.02277,6.41986c-6.08771,0 -11.02277,-2.87427 -11.02277,-6.41986c0,-3.54559 4.93506,-6.41986 11.02277,-6.41986z" data-paper-data="{&quot;index&quot;:null}" fill="#ff0000" stroke="#000000" stroke-width="5"/><path d="M259.76775,300.55998c6.08771,0 11.02277,2.87426 11.02277,6.41985c0,3.54559 -4.93506,6.41985 -11.02277,6.41985c-6.0877,0 -11.02277,-2.87426 -11.02277,-6.41985c0,-3.54559 4.93506,-6.41985 11.02277,-6.41985z" data-paper-data="{&quot;index&quot;:null}" fill="#ff0000" stroke="#000000" stroke-width="5"/><path d="M-143.06152,451.03904v-481.89639l186.62162,-52.55256c0,0 11.37615,271.22744 14.92661,355.87674c1.96947,46.95554 4.59291,109.50315 4.59291,109.50315z" fill="#9f9f9f" stroke="none" stroke-width="0"/><path d="M-127.17312,387.96116l-23.49173,-364.80954l188.75097,-13.62629l23.49173,364.80954z" fill="#b5b5b5" stroke="none" stroke-width="0"/><g stroke="none" stroke-width="0"><g fill="#a7a7a7"><path d="M-80.97898,385.47452l-23.38326,-363.12507l18.45203,-1.33209l23.38326,363.12507z"/><path d="M-44.07493,382.81034l-23.38326,-363.12507l18.45203,-1.33209l23.38326,363.12507z"/><path d="M-10.24621,380.36819l-23.38326,-363.12507l18.45203,-1.33209l23.38326,363.12507z"/><path d="M26.65786,377.70401l-23.38326,-363.12507l18.45203,-1.33209l23.38326,363.12507z"/></g><path d="M-74.82831,385.03049l-23.38326,-363.12507l18.45203,-1.33209l23.38326,363.12507z" fill="#cecece"/><path d="M-37.92425,382.36632l-23.38326,-363.12507l18.45203,-1.33209l23.38326,363.12507z" fill="#cecece"/><path d="M-4.09555,379.92416l-23.38326,-363.12507l18.45203,-1.33209l23.38326,363.12507z" fill="#cecece"/><path d="M32.8085,377.25999l-23.38326,-363.12507l18.45203,-1.33209l23.38326,363.12507z" fill="#cecece"/></g><g fill="#7c7c7c" stroke="none"><path d="M181.47658,293.09442l18.54785,-57.62406l11.52482,3.70961l-18.54785,57.62406z" stroke-width="0"/><path d="M211.45169,239.37398c-0.85889,2.66837 -4.17371,3.98866 -7.40386,2.94898c-3.23014,-1.03971 -5.15243,-4.0457 -4.29353,-6.7141c0.85889,-2.66837 4.17369,-3.98868 7.40386,-2.94898c3.23014,1.03971 5.15243,4.0457 4.29353,6.7141z" stroke-width="0"/><path d="M202.37059,312.92452c-1.12439,3.49322 -2.04555,0.09864 -4.68339,-0.43577c-3.67224,-0.74395 -9.11737,-2.46291 -14.83861,-4.3044c-5.75473,-1.85231 -11.70849,-4.06366 -14.53765,-5.43966c-2.00391,-0.97463 -2.65632,2.1855 -1.54111,-1.27923c2.68966,-8.35625 12.83959,-12.56511 22.67047,-9.40078c9.83088,3.16433 15.61997,12.5036 12.93027,20.85983z" stroke-width="0"/><path d="M201.5785,313.41793c-0.08675,0.26953 -0.22524,0.43816 -0.37923,0.54143c-0.97176,1.0504 -1.46787,2.31915 -2.36724,3.42918c-0.98905,1.22068 -2.37169,1.68013 -3.1925,3.05882c-0.94932,1.59451 -1.08506,3.27078 -2.37912,4.80425c-1.4024,4.56701 -4.97233,3.9527 -8.78622,4.8828c-2.68707,0.6553 -4.09183,2.91656 -7.08823,3.14076c-4.76769,0.35673 -7.62835,-5.24994 -8.22727,-9.16088c0.18211,-2.55892 -0.89594,-4.43346 -1.62982,-6.72948c-0.47773,-1.49462 -0.29107,-3.03011 -0.34484,-4.55396c-0.1177,-3.3352 -0.79611,-6.62095 -0.74477,-9.96967c-0.25288,-0.13004 -0.73376,-0.48085 -0.50339,-1.19648c0.21788,-0.67693 0.76221,-0.71752 1.0585,-0.68448c0.1413,-0.07192 0.32124,-0.11272 0.55021,-0.0975c0.46706,0.03107 0.70097,0.26623 0.81762,0.50762c6.75754,2.12033 13.76068,3.87282 20.6104,6.07759c3.69888,1.19058 8.04876,1.47581 10.89949,4.37831l0.19655,0.05808c0.19133,-0.21914 0.5165,-0.41792 1.02809,-0.25326c0.95191,0.30639 0.64552,1.2583 0.64552,1.2583l-0.10723,0.24105c-0.00764,0.08289 -0.02571,0.17196 -0.05648,0.26754z" stroke-width="0.5"/><path d="M208.1863,212.90005l-0.15412,-0.04961c-3.1264,0.87326 -5.76844,3.24975 -6.83747,6.57093c-1.69217,5.25721 1.19788,10.89082 6.45509,12.58301c5.25721,1.69217 10.89082,-1.19788 12.58301,-6.45509c1.12693,-3.50111 0.2216,-7.16914 -2.06173,-9.72882c-2.92907,-1.37154 -6.69843,-1.63894 -9.67288,-3.08821c-0.09365,0.02138 -0.18691,0.04407 -0.27978,0.0681zM202.51182,234.35801c-1.01868,-0.97327 -1.80695,-1.35986 -2.51009,-2.69748c0,0 -0.32631,-0.63605 0.11065,-1.10846c-0.09687,-0.20187 -0.20138,-0.39078 -0.31999,-0.55753c-3.02053,-4.2474 -2.10935,-8.88173 -1.55271,-13.85295c0.72294,-2.07839 0.59956,-4.42315 1.56324,-6.61625c0.24134,-0.5492 0.24841,-1.4277 0.82288,-1.60053c1.42505,-0.42874 5.04529,1.31627 6.47429,1.77623c5.30109,1.70632 10.6022,3.41261 15.90333,5.11889c0.28909,0.09307 2.83241,0.85278 3.0239,1.15394c1.41898,2.23172 -0.97904,5.40505 -1.15996,7.59444c-0.53161,6.4336 -4.35157,10.98015 -10.05315,13.92804c-2.16777,1.52996 -3.33849,2.11403 -5.9822,1.98168c-2.89558,0.13254 -4.29491,-3.18507 -6.32015,-5.11997z" stroke-width="0.5"/></g><path d="M232.71394,238.18278c-2.06563,5.00958 -7.67628,7.44762 -12.5317,5.44555c-4.85544,-2.00209 -7.117,-7.68614 -5.05137,-12.69572c2.06563,-5.00958 7.67628,-7.44762 12.5317,-5.44555c4.85544,2.00209 7.117,7.68614 5.05137,12.69572z" data-paper-data="{&quot;index&quot;:null}" fill="#ff0000" stroke="#000000" stroke-width="5"/><path d="M414.50004,323.5v-163h65v163z" fill="#595959" stroke="none" stroke-width="0"/><g><path d="M276.3479,184.40964c11.38105,0 20.60719,9.64081 20.60719,21.53336c0,11.89255 -9.22615,21.53336 -20.60719,21.53336c-11.38105,0 -20.6072,-9.64081 -20.6072,-21.53336c0,-11.89255 9.22616,-21.53336 20.6072,-21.53336z" data-paper-data="{&quot;index&quot;:null}" fill="#d29460" stroke="#000000" stroke-width="2"/><path d="M274.09319,185.0562c1.7985,-0.03466 7.23539,-1.23033 8.69874,0.56618c1.19553,1.46772 9.95755,3.73715 10.33325,7.33322c0.45485,-0.088 0.82342,-0.00141 1.06758,0.32413c0.89578,1.19438 -1.38708,2.19145 -2.02353,2.63529c-2.51002,1.75042 -5.07661,4.51493 -7.79883,5.8044c-3.32701,1.57595 -1.93333,-3.09904 -2.24521,-3.12778c-2.11883,-0.19523 -4.99681,1.22268 -7.23571,1.28156c-4.36122,0.11469 -8.46442,-0.26607 -12.80749,-0.34641c-0.55121,-0.0102 -3.3739,0.11064 -3.78499,-0.60877c-0.29474,-0.17395 -0.49247,-0.49479 -0.49247,-0.86182c0,-0.49706 0.36266,-0.90942 0.83781,-0.98691c1.37581,-6.33275 9.22971,-11.89321 15.45085,-12.01309z" fill="#000000" stroke="none" stroke-width="0.5"/><path d="M261.90927,211.65169c-1.529,0 -1.529,-1.668 -1.529,-1.668l0.01536,-0.00239c-0.32867,-2.52058 -0.34301,-4.96093 -0.34301,-7.50361c0,0 0,-1.668 1.529,-1.668c1.529,0 1.529,1.668 1.529,1.668c0,2.38598 0.00134,4.66817 0.31227,7.03182l0.01536,0.47418c0,0 0,1.668 -1.529,1.668z" fill="#000000" stroke="none" stroke-width="0.5"/><path d="M267.2426,211.81836c-1.529,0 -1.529,-1.668 -1.529,-1.668l0.01536,-0.00239c-0.32867,-2.52058 -0.34301,-4.96093 -0.34301,-7.50361c0,0 0,-1.668 1.529,-1.668c1.529,0 1.529,1.668 1.529,1.668c0,2.38598 0.00134,4.66817 0.31227,7.03182l0.01536,0.47418c0,0 0,1.668 -1.529,1.668z" fill="#000000" stroke="none" stroke-width="0.5"/><path d="M270.87272,210.30453c1,0.75 0.25,1.75 0.25,1.75l-0.75,1c-0.5723,0.74923 -1.25077,1.4277 -2,2c0,0 -1,0.75 -1.75,-0.25c-0.75,-1 0.25,-1.75 0.25,-1.75c0.57061,-0.41762 1.08238,-0.92938 1.5,-1.5l0.75,-1c0,0 0.75,-1 1.75,-0.25z" fill="#000000" stroke="none" stroke-width="0.5"/><path d="M261.62272,215.30453c-0.74772,0 -1.04817,-0.44727 -1.1689,-0.80671c-0.55824,-0.39808 -1.13606,-0.76947 -1.72422,-1.12142c0,0 -1.07187,-0.64312 -0.42874,-1.71499c0.64312,-1.07187 1.71499,-0.42874 1.71499,-0.42874c0.80921,0.48673 1.60071,1.00623 2.35688,1.57187l0.5,1.25c0,0 0,1.25 -1.25,1.25z" fill="#000000" stroke="none" stroke-width="0.5"/><path d="M265.7967,222.2723c-0.92399,-0.19585 -0.92399,-1.21776 -0.92399,-1.21776c0.1146,-2.93939 1.55897,-3.73608 4.16318,-4.45377c1.18473,-0.32649 2.37743,-1.39628 3.7207,-0.18012c0.55127,0.49911 0.58978,5.02629 0,5.51776c-0.67617,0.56347 -3.7738,0.36272 -4.88874,0.59184l-1.24514,0.02428c0,0 -0.46349,0 -0.82601,-0.28224z" fill="#000000" stroke="none" stroke-width="0.5"/></g></g></g></svg>