<svg version="1.1" xmlns="http://www.w3.org/2000/svg" xmlns:xlink="http://www.w3.org/1999/xlink" width="585" height="613.04026" viewBox="0,0,585,613.04026"><g transform="translate(41.49996,26.70537)"><g data-paper-data="{&quot;isPaintingLayer&quot;:true}" fill-rule="nonzero" stroke-linecap="butt" stroke-linejoin="miter" stroke-miterlimit="10" stroke-dasharray="" stroke-dashoffset="0" style="mix-blend-mode: normal"><path d="M-22.76264,406.72706v-432.43243h545.04505v432.43243z" fill="#cbcbcb" stroke="#ffffff" stroke-width="2"/><path d="M-41.49996,586.33489v-279.00601h585v279.00601z" fill="#8c8c8c" stroke="none" stroke-width="0"/><path d="M60.29926,313.85706v-172h57v172z" fill="#636363" stroke="#000000" stroke-width="0.5"/><path d="M115.79776,315.35848v-172h57v172z" fill="#636363" stroke="#000000" stroke-width="0.5"/><path d="M115.11424,249.68487c0,5.39017 -4.36959,9.75976 -9.75976,9.75976c-5.39017,0 -9.75976,-4.36959 -9.75976,-9.75976c0,-5.39017 4.36959,-9.75976 9.75976,-9.75976c5.39017,0 9.75976,4.36959 9.75976,9.75976z" fill="#c4c4c4" stroke="#000000" stroke-width="0.5"/><path d="M126.3755,241.42669c4.56091,0 8.25826,4.03347 8.25826,9.00901c0,4.97554 -3.69735,9.00901 -8.25826,9.00901c-4.56091,0 -8.25826,-4.03347 -8.25826,-9.00901c0,-4.97554 3.69735,-9.00901 8.25826,-9.00901z" fill="#c4c4c4" stroke="#000000" stroke-width="0.5"/><path d="M320.96266,329.75555c-2.42307,6.21639 -9.58672,9.22913 -16.00046,6.72914c-6.41374,-2.49999 -9.64881,-9.56602 -7.22574,-15.78241c2.42307,-6.21639 9.58672,-9.22913 16.00046,-6.72914c6.41374,2.49999 9.64881,9.56602 7.22574,15.78241z" data-paper-data="{&quot;index&quot;:null}" fill="#ff0000" stroke="#000000" stroke-width="5"/><path d="M264.41687,288.8384c6.66157,0.37189 11.7508,6.24509 11.36709,13.11814c-0.38369,6.87304 -6.09502,12.14328 -12.75658,11.77137c-6.66157,-0.37189 -11.7508,-6.24509 -11.36709,-13.11814c0.38369,-6.87304 6.09502,-12.14327 12.75658,-11.77137z" data-paper-data="{&quot;index&quot;:null}" fill="#ff0000" stroke="#000000" stroke-width="5"/><text transform="translate(38.53758,130.31546) scale(0.5,0.5)" font-size="40" xml:space="preserve" fill="#ff0000" fill-rule="nonzero" stroke="none" stroke-width="1" stroke-linecap="butt" stroke-linejoin="miter" stroke-miterlimit="10" stroke-dasharray="" stroke-dashoffset="0" font-family="Sans Serif" font-weight="normal" text-anchor="start" style="mix-blend-mode: normal"><tspan x="0" dy="0">EMERGANCY EXIT</tspan></text><path d="M211.18851,354.48724v-41.5h77.5v41.5z" fill="#181818" stroke="none" stroke-width="0"/><path d="M223.51763,322.75479c2.10604,-5.40304 8.19335,-8.0758 13.5964,-5.96976c5.40304,2.10604 8.0758,8.19335 5.96976,13.5964c-2.10604,5.40304 -8.19335,8.0758 -13.5964,5.96976c-5.40304,-2.10604 -8.0758,-8.19335 -5.96976,-13.5964z" fill="#000000" stroke="#0cff00" stroke-width="2"/><g><path d="M323.34711,309.23847c-3.97454,14.57566 -18.50422,23.30816 -32.45299,19.50456c-13.94875,-3.80359 -22.03444,-18.7029 -18.05991,-33.27857c3.97453,-14.57566 18.50421,-23.30815 32.45298,-19.50455c13.94875,3.80359 22.03444,18.7029 18.05991,33.27857z" data-paper-data="{&quot;index&quot;:null}" fill="#d29460" stroke="#000000" stroke-width="2"/><path d="M275.73797,372.96273c-11.65945,17.33473 -27.95895,26.78153 -36.40596,21.10004c-8.447,-5.68151 -5.84283,-24.33986 5.81662,-41.67459c11.65944,-17.33475 27.95892,-26.78154 36.40595,-21.10004c8.44703,5.68152 5.84286,24.33987 -5.8166,41.6746z" data-paper-data="{&quot;index&quot;:null}" fill="#ff0000" stroke="#000000" stroke-width="5"/><path d="M204.80603,398.35101c-2.94195,3.41066 -10.07412,2.08068 -15.93016,-2.97057c-5.85604,-5.05127 -8.21836,-11.91102 -5.27642,-15.32168c2.94195,-3.41066 10.07412,-2.08068 15.93016,2.97057c5.85604,5.05127 8.21836,11.91102 5.27642,15.32168z" data-paper-data="{&quot;index&quot;:null}" fill="#ff0000" stroke="#000000" stroke-width="5"/><path d="M226.84082,415.17047c-2.93309,3.41828 -10.06869,2.1068 -15.9378,-2.92925c-5.86912,-5.03606 -8.24926,-11.88964 -5.31618,-15.30792c2.93309,-3.41828 10.06868,-2.10681 15.9378,2.92925c5.86912,5.03606 8.24926,11.88964 5.31618,15.30792z" data-paper-data="{&quot;index&quot;:null}" fill="#ff0000" stroke="#000000" stroke-width="5"/><path d="M309.73412,277.42792c0.94363,-0.15402 1.88954,-0.24254 2.78185,0.12779c3.50243,1.45358 5.90821,5.986 8.69959,8.42338c1.70136,2.77173 4.80975,6.93763 4.64456,10.29047c-0.04042,0.82031 -0.73727,1.40425 -0.70723,2.25897c0.03774,1.07407 1.93962,1.10607 1.33996,2.57303c-0.20387,0.49873 -2.96292,0.78156 -3.53137,0.82498c-1.38441,0.3719 -3.79828,0.1297 -5.16344,-0.19103c-1.85133,-0.43493 -2.894,-3.5285 -4.81717,-3.85704c-2.3981,-0.40968 -4.85263,0.92597 -7.24839,1.49239l0.07021,0.31675l-1.21187,0.26863c-0.22479,0.05239 -0.47064,0.00066 -0.65922,-0.16115c-0.31436,-0.26973 -0.35052,-0.74322 -0.08079,-1.05758l0.65119,-0.75891c0.52686,-0.61401 1.83387,-2.48557 2.87028,-3.38944c-1.48945,-0.18513 -2.93604,-0.47173 -4.43083,-0.72578c-6.98237,-1.19246 -14.08137,-7.93184 -17.37085,-14.17623c0,0 -0.3471,-0.66485 0.31776,-1.01194c0.33797,-0.17644 0.59383,-0.09139 0.76372,0.03489c0.6117,-1.36135 3.6894,-2.19742 4.71686,-2.4538c1.68248,-0.41983 3.72504,-0.69779 5.80464,-0.74588c1.8116,-0.27878 3.57203,-0.27988 5.00417,0.13611c1.79938,0.52265 4.38217,2.00219 6.25393,1.43763l0.92722,0.13045c0,0 0.20928,0.05243 0.37523,0.21332z" fill="#000000" stroke="none" stroke-width="0.5"/><path d="M296.7584,316.18401c-1.24837,-0.48907 -0.70555,-1.76965 -0.70555,-1.76965l0.68663,-1.61985c1.34559,-3.09888 3.39504,-5.70107 5.61182,-8.28455c0,0 0.90973,-1.06021 1.92239,-0.19129c1.01266,0.86892 0.10293,1.92914 0.10293,1.92914c-1.99385,2.32367 -3.98414,4.70923 -5.14037,7.5248l-0.68663,1.61985c0,0 -0.54281,1.2806 -1.79121,0.79154z" fill="#ffffff" stroke="none" stroke-width="0.5"/><path d="M303.71693,321.27026c-1.61128,-1.38258 -0.49081,-2.68841 -0.49081,-2.68841c0.94907,-1.10606 2.17497,-2.53476 3.42649,-3.99331c1.50656,-1.75578 3.05025,-3.55482 4.19272,-4.88628c0,0 1.12048,-1.30583 2.73177,0.07674c1.61128,1.38258 0.49081,2.68841 0.49081,2.68841c-2.09155,2.43754 -4.18309,4.87506 -6.27464,7.3126l-1.34456,1.56697c0,0 -1.12048,1.30583 -2.73177,-0.07674z" fill="#ffffff" stroke="none" stroke-width="0.5"/><path d="M278.92736,314.53693c0.14501,-0.31036 0.32998,-0.52592 0.32998,-0.52592l0.42112,-0.49079c4.16373,-4.78104 7.09229,-3.75083 10.34496,-0.92281c0.89301,0.77642 2.57724,1.90066 2.18798,3.61423c-0.24446,1.07616 -1.36202,1.92844 -2.12098,2.83417c-2.87613,3.43232 -4.53301,4.11077 -7.226,1.89483c-1.54374,-1.27029 -3.03636,-2.60538 -4.55348,-3.90715c0,0 -0.94864,-0.81399 0.10414,-2.04093c0.17491,-0.20385 0.34696,-0.35136 0.51225,-0.45563z" fill="#000000" stroke="none" stroke-width="0.5"/></g><g stroke="none"><path d="M211.39606,357.32021l-1.13802,-44.46776l37.86637,-13.63467l-1.28358,43.46776z" fill="#c0c0c0" stroke-width="0"/><path d="M240.09846,310.70527c0.21951,2.37218 -1.09578,3.01319 -1.09578,3.01319c-7.8996,3.84994 -17.37912,8.46986 -25.27872,12.3198c0,0 -1.31529,0.64101 -1.5348,-1.73116c-0.21951,-2.37218 1.09578,-3.01319 1.09578,-3.01319c7.8996,-3.84994 15.7992,-7.69987 23.6988,-11.54981l1.57992,-0.76999c0,0 1.31529,-0.64101 1.5348,1.73116z" fill="#474747" stroke-width="0.5"/><path d="M244.18115,319.1384c0.21951,2.37218 -1.09578,3.01319 -1.09578,3.01319l-0.78996,0.38499c-2.30325,1.12251 -4.7397,1.96001 -7.00208,3.4041c-1.57823,1.0074 -3.03901,2.72106 -4.61582,3.73854c-5.63608,3.63684 -11.66187,4.42638 -17.03449,9.72529c0,0 -1.22278,1.19721 -1.75474,-0.94867c-0.53196,-2.14589 0.69081,-3.3431 0.69081,-3.3431c5.55817,-5.40636 11.63696,-6.30887 17.44427,-10.05619c1.57682,-1.01748 3.03772,-2.73022 4.61582,-3.73854c2.33298,-1.49064 4.84164,-2.36803 7.2172,-3.52578l0.78996,-0.38499c0,0 1.31529,-0.64101 1.5348,1.73116z" fill="#474747" stroke-width="0.5"/><path d="M243.65595,331.30636c0.21951,2.37218 -1.09578,3.01319 -1.09578,3.01319l-0.78996,0.38499c-2.85993,1.39381 -6.08681,2.3014 -8.83887,4.46495c-0.85179,0.66964 -1.58814,1.86315 -2.44551,2.50168c-0.87139,0.64897 -1.8118,0.76252 -2.69627,1.32765c-3.33721,2.13231 -6.64406,5.29331 -9.92878,7.80022c0,0 -1.27102,0.97004 -1.67433,-1.28763c-0.40331,-2.25768 0.86771,-3.22773 0.86771,-3.22773c3.33682,-2.54668 6.693,-5.73546 10.08283,-7.90853c0.84037,-0.53872 1.73684,-0.61878 2.56486,-1.23641c0.84204,-0.62808 1.56186,-1.81533 2.39973,-2.46673c2.89264,-2.24884 6.22769,-3.2488 9.22964,-4.71182l0.78996,-0.38499c0,0 1.31529,-0.64101 1.5348,1.73116z" fill="#474747" stroke-width="0.5"/></g><path d="M176.3943,448.75464v-93.98403h144v93.98403z" fill="#8c8c8c" stroke="none" stroke-width="0"/></g></g></svg>