<svg version="1.1" xmlns="http://www.w3.org/2000/svg" xmlns:xlink="http://www.w3.org/1999/xlink" width="536.03603" height="586.21775" viewBox="0,0,536.03603,586.21775"><g transform="translate(41.042,131.91492)"><g data-paper-data="{&quot;isPaintingLayer&quot;:true}" fill-rule="nonzero" stroke="none" stroke-linecap="butt" stroke-linejoin="miter" stroke-miterlimit="10" stroke-dasharray="" stroke-dashoffset="0" style="mix-blend-mode: normal"><path d="M-41.042,454.30282v-564.41442h536.03603v564.41442z" fill="#6b6b6b" stroke-width="0"/><text transform="translate(31.48051,-17.88185) scale(2.62145,2.62145)" font-size="40" xml:space="preserve" fill="#000000" fill-rule="nonzero" stroke="none" stroke-width="1" stroke-linecap="butt" stroke-linejoin="miter" stroke-miterlimit="10" stroke-dasharray="" stroke-dashoffset="0" font-family="Sans Serif" font-weight="normal" text-anchor="start" style="mix-blend-mode: normal"><tspan x="0" dy="0">LA JAEL</tspan></text><path d="M-3.20418,110.35173v-65.95882h63.24455v65.95882z" fill="#8a8a8a" stroke-width="0"/><path d="M72.38076,121.61301v-69.17631h53.98926v69.17631z" fill="#8a8a8a" stroke-width="0"/><path d="M146.42315,123.22175v-74.00257h64.78708v74.00257z" fill="#8a8a8a" stroke-width="0"/><path d="M234.32287,120.85173v-65.95882h63.24455v65.95882z" fill="#8a8a8a" stroke-width="0"/><path d="M309.9078,132.11301v-69.17631h53.98926v69.17631z" fill="#8a8a8a" stroke-width="0"/><path d="M383.95019,133.72175v-74.00257h64.7871v74.00257z" fill="#8a8a8a" stroke-width="0"/><path d="M0.98952,237.51841v-65.95882h63.24455v65.95882z" fill="#8a8a8a" stroke-width="0"/><path d="M76.57446,248.77966v-69.17631h53.98926v69.17631z" fill="#8a8a8a" stroke-width="0"/><path d="M150.61685,250.38841v-74.00257h64.78708v74.00257z" fill="#8a8a8a" stroke-width="0"/><path d="M228.00604,249.51991v-65.95882h63.24455v65.95882z" fill="#8a8a8a" stroke-width="0"/><path d="M392.64839,254.88241v-74.00257h64.78708v74.00257z" fill="#8a8a8a" stroke-width="0"/><path d="M-4.27625,367.83822v-65.95882h63.24455v65.95882z" fill="#8a8a8a" stroke-width="0"/><path d="M71.30869,379.09949v-69.17631h53.98924v69.17631z" fill="#8a8a8a" stroke-width="0"/><path d="M308.83573,389.59949v-69.17631h53.98926v69.17631z" fill="#8a8a8a" stroke-width="0"/><path d="M382.87811,391.20822v-74.00257h64.7871v74.00257z" fill="#8a8a8a" stroke-width="0"/><g><path d="M307.30639,251.9371v-63.06306h76.57658v63.06306z" fill="#c0c0c0" stroke-width="0"/><path d="M366.86344,200.55228c0,3.88889 -2.5,3.88889 -2.5,3.88889c-15.01502,0 -33.03303,0 -48.04805,0c0,0 -2.5,0 -2.5,-3.88889c0,-3.88889 2.5,-3.88889 2.5,-3.88889c15.01502,0 30.03003,0 45.04505,0h3.003c0,0 2.5,0 2.5,3.88889z" fill="#474747" stroke-width="0.5"/><path d="M372.86943,216.90198c0,3.88889 -2.5,3.88889 -2.5,3.88889h-1.5015c-4.37785,0 -8.95001,-0.54891 -13.30765,-0.01321c-3.03988,0.37371 -5.98502,1.94507 -9.02402,2.33567c-10.86246,1.39616 -21.95452,-1.97198 -32.61754,2.23277c0,0 -2.42536,0.9432 -3.0317,-2.82959c-0.60634,-3.77278 1.81902,-4.71598 1.81902,-4.71598c11.01856,-4.23145 22.22601,-1 33.41849,-2.43857c3.03901,-0.3906 5.98422,-1.96042 9.02402,-2.33567c4.49388,-0.55474 9.20408,-0.01321 13.71938,-0.01321h1.5015c0,0 2.5,0 2.5,3.88889z" fill="#474747" stroke-width="0.5"/><path d="M369.86645,235.58746c0,3.88889 -2.5,3.88889 -2.5,3.88889h-1.5015c-5.43596,0 -11.45747,-1.04323 -16.82679,0.24666c-1.66186,0.39923 -3.20192,1.70848 -4.86869,2.05466c-1.69403,0.35182 -3.42347,-0.18898 -5.12718,0.02133c-6.42828,0.79355 -12.97446,3.22397 -19.37033,4.64526c0,0 -2.47487,0.54997 -2.82843,-3.29983c-0.35355,-3.8498 2.12132,-4.39978 2.12132,-4.39978c6.4973,-1.44385 13.13788,-3.88013 19.66871,-4.6974c1.61905,-0.20261 3.26295,0.35716 4.87282,0.02133c1.63712,-0.34151 3.14607,-1.65357 4.77956,-2.03482c5.63935,-1.31622 11.87312,-0.33519 17.57902,-0.33519h1.5015c0,0 2.5,0 2.5,3.88889z" fill="#474747" stroke-width="0.5"/></g></g></g></svg>