<svg version="1.1" xmlns="http://www.w3.org/2000/svg" xmlns:xlink="http://www.w3.org/1999/xlink" width="574" height="468" viewBox="0,0,574,468"><g transform="translate(30.5,22)"><g data-paper-data="{&quot;isPaintingLayer&quot;:true}" fill-rule="nonzero" stroke-linejoin="miter" stroke-miterlimit="10" stroke-dasharray="" stroke-dashoffset="0" style="mix-blend-mode: normal"><path d="M-20.5,330.5v-273h506.00901v273z" fill="#262626" stroke="none" stroke-width="NaN" stroke-linecap="butt"/><path d="M137.15656,186.0696c0,-15.17127 7.39478,-28.09434 25.01302,-28.09434c17.61825,0 24.65051,17.29329 24.65051,32.46456c0,8.1146 0.63039,13.24826 -3.16518,17.28003c-3.30073,3.50614 -10.39043,6.44408 -18.58528,6.44408c-17.61825,0 -27.91308,-12.92306 -27.91308,-28.09434z" fill="#000000" stroke="#00ff08" stroke-width="2" stroke-linecap="butt"/><path d="M178.1771,173.55634l-0.46495,19.65363" fill="none" stroke="#00ff08" stroke-width="3.5" stroke-linecap="round"/><path d="M165.74029,173.09546l1.08752,19.93792" fill="none" stroke="#00ff08" stroke-width="3.5" stroke-linecap="round"/><path d="M138.18276,264.1592c-6.22236,-18.25063 -7.94678,-33.86689 8.72892,-39.55228c16.6757,-5.6854 28.13961,14.01063 34.36198,32.26127c1.69236,4.96382 6.04544,18.48345 4.36543,27.57207c-1.62384,8.78468 -6.90232,12.04367 -10.71459,13.34343c-16.6757,5.6854 -30.51937,-15.37386 -36.74173,-33.62449z" fill="#000000" stroke="#00ff08" stroke-width="2" stroke-linecap="butt"/><path d="M110.1235,292.08703c0,-8.90923 7.22235,-16.13158 16.13158,-16.13158c8.90923,0 16.13158,7.22235 16.13158,16.13158c0,8.90923 -7.22235,16.13158 -16.13158,16.13158c-8.90923,0 -16.13158,-7.22235 -16.13158,-16.13158z" fill="#000000" stroke="#00ff08" stroke-width="2" stroke-linecap="butt"/><path d="M247.39781,296.0319c-2.15215,-4.6295 2.28452,-11.256 9.90958,-14.80071c7.62506,-3.54471 15.55104,-2.66532 17.70319,1.96418c2.15215,4.6295 -2.28452,11.256 -9.90958,14.80071c-7.62506,3.54471 -15.55104,2.66532 -17.70319,-1.96418z" fill="#000000" stroke="#00ff08" stroke-width="2" stroke-linecap="butt"/><path d="M220.20758,235.57802c0,-8.90923 7.22235,-16.13158 16.13158,-16.13158c8.90923,0 16.13158,7.22235 16.13158,16.13158c0,8.90923 -7.22235,16.13158 -16.13158,16.13158c-8.90923,0 -16.13158,-7.22235 -16.13158,-16.13158z" fill="#000000" stroke="#00ff08" stroke-width="2" stroke-linecap="butt"/><path d="M206.6542,302.99899c-2.41078,-4.50025 1.64364,-11.36729 9.05579,-15.33797c7.41215,-3.9707 15.37521,-3.54142 17.78599,0.95882c2.41078,4.50025 -1.64364,11.36729 -9.05579,15.33797c-7.41215,3.9707 -15.37521,3.54142 -17.78599,-0.95882z" fill="#000000" stroke="#00ff08" stroke-width="2" stroke-linecap="butt"/><path d="M-18.5,446v-142h529v142z" fill="#000000" stroke="none" stroke-width="NaN" stroke-linecap="butt"/><path d="M-30.5,92v-114h574v114z" fill="#000000" stroke="none" stroke-width="0" stroke-linecap="butt"/><path d="M390.33424,157.11427c14.93701,0 27.04582,12.65304 27.04582,28.26136c0,15.60833 -12.10882,28.26136 -27.04582,28.26136c-14.93701,0 -27.04583,-12.65304 -27.04583,-28.26136c0,-15.60833 12.10883,-28.26136 27.04583,-28.26136z" data-paper-data="{&quot;index&quot;:null}" fill="#d29460" stroke="#000000" stroke-width="2" stroke-linecap="butt"/><path d="M406.34332,234.62907c9.14705,4.27559 9.44927,22.95881 0.67503,41.73013c-8.77424,18.77133 -23.30232,30.52246 -32.44937,26.24687c-9.14705,-4.27559 -9.44927,-22.95881 -0.67503,-41.73013c8.77424,-18.77133 23.30232,-30.52246 32.44937,-26.24687z" data-paper-data="{&quot;index&quot;:null}" fill="#ff0000" stroke="#000000" stroke-width="5" stroke-linecap="butt"/><path d="M377.1195,147.59759c7.11179,0 12.87703,5.58786 12.87703,12.48082c0,6.89296 -5.76525,12.48082 -12.87703,12.48082c-7.11179,0 -12.87703,-5.58786 -12.87703,-12.48082c0,-6.89296 5.76525,-12.48082 12.87703,-12.48082z" data-paper-data="{&quot;index&quot;:null}" fill="#ff0000" stroke="#000000" stroke-width="5" stroke-linecap="butt"/><path d="M436.32243,283.90707c7.11179,0 12.87703,5.58786 12.87703,12.48082c0,6.89296 -5.76525,12.48082 -12.87703,12.48082c-7.11179,0 -12.87703,-5.58786 -12.87703,-12.48082c0,-6.89296 5.76525,-12.48082 12.87703,-12.48082z" data-paper-data="{&quot;index&quot;:null}" fill="#ff0000" stroke="#000000" stroke-width="5" stroke-linecap="butt"/><path d="M338.62052,291.21645c7.98979,0 14.46679,3.77232 14.46679,8.42572c0,4.65339 -6.477,8.42572 -14.46679,8.42572c-7.98979,0 -14.46679,-3.77232 -14.46679,-8.42572c0,-4.65339 6.477,-8.42572 14.46679,-8.42572z" data-paper-data="{&quot;index&quot;:null}" fill="#ff0000" stroke="#000000" stroke-width="5" stroke-linecap="butt"/><path d="M304.0451,287.24564c7.98979,0 14.46679,3.77231 14.46679,8.4257c0,4.65339 -6.477,8.4257 -14.46679,8.4257c-7.98978,0 -14.46679,-3.77231 -14.46679,-8.4257c0,-4.65339 6.477,-8.4257 14.46679,-8.4257z" data-paper-data="{&quot;index&quot;:null}" fill="#ff0000" stroke="#000000" stroke-width="5" stroke-linecap="butt"/><path d="M386.06263,157.30859c2.36043,-0.04549 9.49606,-1.61474 11.41662,0.74308c1.56907,1.9263 13.06874,4.90481 13.56183,9.62445c0.59697,-0.1155 1.08069,-0.00185 1.40114,0.4254c1.17566,1.56756 -1.82047,2.87616 -2.65577,3.45867c-3.29426,2.29733 -6.66277,5.9256 -10.23554,7.61796c-4.36652,2.06835 -2.53739,-4.06732 -2.94672,-4.10504c-2.78085,-0.25623 -6.55804,1.6047 -9.49648,1.68198c-5.72386,0.15052 -11.10909,-0.3492 -16.80913,-0.45464c-0.72343,-0.01339 -4.42806,0.14521 -4.96759,-0.79898c-0.38683,-0.2283 -0.64634,-0.64938 -0.64634,-1.13109c0,-0.65236 0.47597,-1.19356 1.09958,-1.29527c1.80568,-8.31139 12.11349,-15.60919 20.2784,-15.76653z" fill="#000000" stroke="none" stroke-width="0.5" stroke-linecap="butt"/><path d="M370.54418,193.05795c-1.85926,0 -1.85926,-2.18916 -1.85926,-2.18916l0.01631,-0.49252c-0.38468,-3.40249 -0.68033,-6.54624 -0.68033,-9.98418c0,0 0,-2.18916 1.85926,-2.18916c1.85926,0 1.85926,2.18916 1.85926,2.18916c0,3.25148 0.28258,6.18604 0.64771,9.40552l0.01631,1.07117c0,0 0,2.18916 -1.85926,2.18916z" fill="#000000" stroke="none" stroke-width="0.5" stroke-linecap="butt"/><path d="M376.92385,189.56534c-2.14336,0 -1.97202,2.41303 -1.97202,2.41303l-0.14979,-1.8187c-0.46073,-3.28599 -0.48083,-6.4674 -0.48083,-9.7822c0,0 0,-2.17452 2.14336,-2.17452c2.14336,0 2.14336,2.17452 2.14336,2.17452c0,3.11052 0.24881,3.81354 0.68468,6.89495l-0.00246,0.05156c0,0 -0.54769,1.15839 -1.7193,1.72392c-0.29108,0.1405 -0.27206,0.4907 -0.69859,0.4907z" fill="#000000" stroke="none" stroke-width="0.5" stroke-linecap="butt"/><path d="M167.8532,206.36c-0.08396,0.00621 -0.17537,0.0096 -0.2749,0.0096c-1.2208,0 -1.2208,-0.50904 -1.2208,-0.50904c0.00561,-0.6625 0.10653,-1.33713 0.537,-1.97485c0.34638,-0.51315 0.47019,-1.0667 1.08641,-1.53378c2.17672,-1.64993 7.38185,-0.71246 8.96114,0.61084c1.00046,0.83829 0.74975,1.61663 0.09581,2.44792c-0.24189,0.3075 -1.04832,1.40332 -1.58883,1.51601c-0.96728,0.20166 -4.08069,-0.41121 -5.13637,-0.56367c-0.42314,0.00219 -0.84627,0.00438 -1.2694,0.00657h-0.97664c0,0 -0.08648,0 -0.21341,-0.0096z" fill="#0cff00" stroke="#00ff08" stroke-width="0.5" stroke-linecap="butt"/><path d="M385,198.75c0,1.25 -1.25,1.25 -1.25,1.25l-0.60472,-0.06415c-1.37857,0.44569 -3.5634,0.18022 -4.77941,0.9019c-0.91792,0.54476 -1.47723,1.54137 -2.23199,2.29613c0,0 -0.88388,0.88388 -1.76777,0c-0.88388,-0.88388 0,-1.76777 0,-1.76777c0.46435,-0.46435 2.59542,-2.60773 2.76801,-2.70387c1.64575,-0.91668 3.50537,-0.504 5.22059,-1.0981l1.39528,-0.06415c0,0 1.25,0 1.25,1.25z" fill="#000000" stroke="none" stroke-width="0.5" stroke-linecap="butt"/><path d="M169.9923,174.07649c0,1.25 -1.25,1.25 -1.25,1.25l-1.89528,-0.06415c-2.10468,-1.50977 -4.2813,-2.63705 -6.35472,-4.18585c0,0 -1,-0.75 -0.25,-1.75c0.75,-1 1.75,-0.25 1.75,-0.25c1.86277,1.40325 3.81955,2.36725 5.64528,3.81415l1.10472,-0.06415c0,0 1.25,0 1.25,1.25z" fill="#00ff08" stroke="none" stroke-width="0.5" stroke-linecap="butt"/><path d="M182.86033,162.51747c0.55902,1.11803 -0.55902,1.67705 -0.55902,1.67705l-1,0.5c-2.3701,1.18104 -4.68981,1.95194 -7.25585,2.59464c0,0 -1.21268,0.30317 -1.51585,-0.90951c-0.30317,-1.21268 0.90951,-1.51585 0.90951,-1.51585c2.38856,-0.59598 4.54226,-1.30038 6.74415,-2.40536l1,-0.5c0,0 1.11803,-0.55902 1.67705,0.55902z" fill="#00ff08" stroke="none" stroke-width="0.5" stroke-linecap="butt"/></g></g></svg>