<svg version="1.1" xmlns="http://www.w3.org/2000/svg" xmlns:xlink="http://www.w3.org/1999/xlink" width="585" height="613.04017" viewBox="0,0,585,613.04017"><g transform="translate(41.49996,26.70528)"><g data-paper-data="{&quot;isPaintingLayer&quot;:true}" fill-rule="nonzero" stroke-linejoin="miter" stroke-miterlimit="10" stroke-dasharray="" stroke-dashoffset="0" style="mix-blend-mode: normal"><path d="M-22.76262,406.72715v-432.43243h545.04505v432.43243z" fill="#cbcbcb" stroke="#ffffff" stroke-width="2" stroke-linecap="butt"/><path d="M-41.49996,586.33489v-279.00601h585v279.00601z" fill="#8c8c8c" stroke="none" stroke-width="0" stroke-linecap="butt"/><path d="M60.29928,313.85711v-172h57v172z" fill="#636363" stroke="#000000" stroke-width="0.5" stroke-linecap="butt"/><path d="M115.79778,315.35848v-172h57v172z" fill="#636363" stroke="#000000" stroke-width="0.5" stroke-linecap="butt"/><path d="M115.11426,249.68491c0,5.39017 -4.36959,9.75976 -9.75976,9.75976c-5.39017,0 -9.75976,-4.36959 -9.75976,-9.75976c0,-5.39017 4.36959,-9.75976 9.75976,-9.75976c5.39017,0 9.75976,4.36959 9.75976,9.75976z" fill="#c4c4c4" stroke="#000000" stroke-width="0.5" stroke-linecap="butt"/><path d="M126.37552,241.42676c4.56091,0 8.25826,4.03347 8.25826,9.00901c0,4.97554 -3.69735,9.00901 -8.25826,9.00901c-4.56091,0 -8.25826,-4.03347 -8.25826,-9.00901c0,-4.97554 3.69735,-9.00901 8.25826,-9.00901z" fill="#c4c4c4" stroke="#000000" stroke-width="0.5" stroke-linecap="butt"/><text transform="translate(38.53758,130.3155) scale(0.5,0.5)" font-size="40" xml:space="preserve" fill="#ff0000" fill-rule="nonzero" stroke="none" stroke-width="1" stroke-linecap="butt" stroke-linejoin="miter" stroke-miterlimit="10" stroke-dasharray="" stroke-dashoffset="0" font-family="Sans Serif" font-weight="normal" text-anchor="start" style="mix-blend-mode: normal"><tspan x="0" dy="0">EMERGANCY EXIT</tspan></text><path d="M211.18853,354.48733v-41.5h77.5v41.5z" fill="#181818" stroke="none" stroke-width="0" stroke-linecap="butt"/><path d="M223.51765,322.75485c2.10604,-5.40304 8.19335,-8.0758 13.5964,-5.96976c5.40304,2.10604 8.0758,8.19335 5.96976,13.5964c-2.10604,5.40304 -8.19335,8.0758 -13.5964,5.96976c-5.40304,-2.10604 -8.0758,-8.19335 -5.96976,-13.5964z" fill="#000000" stroke="#0cff00" stroke-width="2" stroke-linecap="butt"/><path d="M189.08922,375.80626c-4.00395,2.06301 -10.12127,-1.83765 -13.66343,-8.71235c-3.54215,-6.87471 -3.16776,-14.12017 0.83618,-16.18318c4.00395,-2.06301 10.12127,1.83765 13.66343,8.71235c3.54215,6.87471 3.16776,14.12017 -0.83618,16.18318z" data-paper-data="{&quot;index&quot;:null}" fill="#ff0000" stroke="#000000" stroke-width="5" stroke-linecap="butt"/><path d="M203.23535,399.64556c-3.99859,2.07339 -10.12601,-1.81139 -13.68597,-8.67688c-3.55997,-6.86551 -3.20441,-14.1119 0.79416,-16.18529c3.99859,-2.07339 10.126,1.81138 13.68597,8.67688c3.55997,6.86551 3.20441,14.1119 -0.79416,16.18529z" data-paper-data="{&quot;index&quot;:null}" fill="#ff0000" stroke="#000000" stroke-width="5" stroke-linecap="butt"/><path d="M154.48761,381.00006v-39h46v39z" fill="#8c8c8c" stroke="none" stroke-width="0" stroke-linecap="butt"/><g><path d="M275.92645,396.06805c-2.8674,14.83324 -16.69939,24.63344 -30.89467,21.88938c-14.19524,-2.74407 -23.37827,-16.99328 -20.51088,-31.82652c2.8674,-14.83323 16.69937,-24.63344 30.89464,-21.88935c14.19524,2.74407 23.37827,16.99328 20.51088,31.82652z" data-paper-data="{&quot;index&quot;:null}" fill="#d29460" stroke="#000000" stroke-width="2" stroke-linecap="butt"/><path d="M233.24326,463.19145c-10.32312,18.1623 -25.86621,28.80785 -34.71648,23.77755c-8.85027,-5.03032 -7.65632,-23.83166 2.6668,-41.99396c10.3231,-18.16231 25.86618,-28.80787 34.71647,-23.77754c8.85029,5.03034 7.65634,23.83167 -2.66679,41.99396z" data-paper-data="{&quot;index&quot;:null}" fill="#ff0000" stroke="#000000" stroke-width="5" stroke-linecap="butt"/><path d="M259.96028,365.37105c0.92938,-0.22453 1.86595,-0.38392 2.78358,-0.08173c3.6018,1.18612 6.34154,5.52484 9.30829,7.74545c1.90494,2.63596 5.31775,6.55637 5.40511,9.91213c0.02137,0.82102 -0.6296,1.45571 -0.53539,2.30574c0.11838,1.06819 2.0173,0.95711 1.52963,2.465c-0.16579,0.51264 -2.89577,1.00211 -3.45935,1.08816c-1.35253,0.47494 -3.77778,0.41492 -5.16319,0.19773c-1.8788,-0.29451 -3.1511,-3.30093 -5.09354,-3.48394c-2.42212,-0.22822 -4.76927,1.28819 -7.11567,2.03314l0.09382,0.31057l-1.18825,0.35898c-0.22021,0.06915 -0.46926,0.03604 -0.66947,-0.11113c-0.33375,-0.24533 -0.40541,-0.71476 -0.16008,-1.04851l0.59229,-0.80573c0.4792,-0.65188 1.6418,-2.61643 2.60732,-3.59565c-1.49916,-0.07262 -2.9632,-0.24965 -4.47285,-0.39059c-7.05226,-0.6641 -14.63787,-6.85067 -18.38754,-12.83005c0,0 -0.39611,-0.63687 0.24078,-1.03296c0.32375,-0.20135 0.58528,-0.13577 0.76419,-0.02262c0.50761,-1.40349 3.51374,-2.46859 4.51901,-2.8015c1.64615,-0.54514 3.66203,-0.97589 5.73213,-1.18021c1.7855,-0.4142 3.54088,-0.54765 5.00023,-0.24052c1.83358,0.38588 4.52031,1.66704 6.34431,0.96335l0.93439,0.06037c0,0 0.21263,0.03655 0.3902,0.1845z" fill="#000000" stroke="none" stroke-width="0.5" stroke-linecap="butt"/><g fill="#000000" stroke-width="0.5"><path d="M237.61517,409.08801c-0.45311,-0.18449 -1.11216,-0.63887 -0.95801,-1.70018c0.19388,-1.33475 1.34771,-1.38325 1.70876,-1.36507c0.19671,-0.44286 0.55615,-0.71113 0.55615,-0.71113c1.73459,-1.26915 1.86825,-1.64134 4.12837,-2.07774c3.73895,-0.72192 8.84801,3.08001 9.84327,6.7773c0.55754,2.07116 -0.3481,4.43301 -1.75707,5.92604c-0.61836,0.65525 -1.14824,1.62925 -2.03708,1.77645c-1.68165,0.27849 -4.58696,-2.15678 -5.82484,-3.1658c-1.30131,-1.06072 -2.50197,-2.24094 -3.63268,-3.47722c-0.70276,-0.63176 -1.37876,-1.29456 -2.02688,-1.98265z" stroke="none" stroke-linecap="butt"/><path d="M239.80624,411.05216l6.78136,-7.26134" stroke="#000000" stroke-linecap="round"/><path d="M249.95259,404.2796l-7.32966,8.67062" stroke="#000000" stroke-linecap="round"/><path d="M245.31114,414.94413l6.78512,-8.86425" stroke="#000000" stroke-linecap="round"/><path d="M247.26309,416.48755l5.43537,-7.45686" stroke="#000000" stroke-linecap="round"/><path d="M251.78608,415.31197l-12.15842,-10.12693" stroke="#000000" stroke-linecap="round"/></g><path d="M256.47394,392.84831c0.87935,0.88839 -0.00903,1.76775 -0.00903,1.76775l-0.94315,0.88651c-0.79332,2.3404 -2.66876,4.43551 -3.76438,6.77932c0,0 -0.52962,1.13226 -1.66187,0.60264c-1.13226,-0.52962 -0.60264,-1.66187 -0.60264,-1.66187c1.13749,-2.43029 3.0866,-4.6198 3.909,-7.04527l1.30432,-1.33811c0,0 0.88839,-0.87935 1.76775,0.00903z" fill="#ffffff" stroke="none" stroke-width="0.5" stroke-linecap="butt"/><path d="M268.74835,393.85119c0.60898,1.09163 -0.48265,1.70061 -0.48265,1.70061l-1.14856,0.58873c-1.91702,3.50797 -4.13055,6.77622 -6.29256,10.13632c0,0 -0.67648,1.05114 -1.72761,0.37466c-1.05114,-0.67648 -0.37466,-1.72761 -0.37466,-1.72761c2.26002,-3.51099 4.50101,-6.97373 6.63795,-10.56195l1.68748,-0.9934c0,0 1.09163,-0.60898 1.70061,0.48265z" fill="#ffffff" stroke="none" stroke-width="0.5" stroke-linecap="butt"/></g><path d="M176.39432,448.75475v-93.98403h144v93.98403z" fill="#8c8c8c" stroke="none" stroke-width="0" stroke-linecap="butt"/><g stroke="none" stroke-linecap="butt"><path d="M209.72068,353.36229l2.76266,-44.45189l76.46827,-3.4138l-0.94352,44.13417z" fill="#c0c0c0" stroke-width="0"/><path d="M276.59901,313.2797c0.19249,2.40594 -2.69744,2.75648 -2.69744,2.75648c-17.35683,2.10535 -38.18502,4.63176 -55.54186,6.7371c0,0 -2.88992,0.35053 -3.08241,-2.0554c-0.19249,-2.40594 2.69744,-2.75648 2.69744,-2.75648c17.35683,-2.10535 34.71365,-4.21069 52.07049,-6.31603l3.47137,-0.42107c0,0 2.88992,-0.35053 3.08241,2.0554z" fill="#474747" stroke-width="0.5"/><path d="M284.35098,322.55265c0.19249,2.40594 -2.69744,2.75648 -2.69744,2.75648l-1.73568,0.21053c-5.06066,0.61385 -10.37306,0.91534 -15.38383,1.85777c-3.49551,0.65744 -6.8222,2.04255 -10.31584,2.71032c-12.48752,2.38685 -25.47625,1.85837 -37.59421,5.95485c0,0 -2.75695,0.9236 -3.64461,-1.32549c-0.88765,-2.2491 1.86928,-3.1727 1.86928,-3.1727c12.52763,-4.16285 25.64299,-3.73512 38.50989,-6.19447c3.49367,-0.66777 6.82051,-2.05194 10.31584,-2.71032c5.16731,-0.97331 10.63893,-1.29872 15.85845,-1.93184l1.73568,-0.21053c0,0 2.88992,-0.35053 3.08241,2.0554z" fill="#474747" stroke-width="0.5"/><path d="M281.80451,334.5339c0.19249,2.40594 -2.69744,2.75648 -2.69744,2.75648l-1.73568,0.21053c-6.28377,0.76221 -13.29606,0.9611 -19.43896,2.51199c-1.90128,0.48002 -3.61674,1.50595 -5.52634,1.95383c-1.94082,0.4552 -3.96677,0.36311 -5.92578,0.73211c-7.39159,1.3923 -14.83845,3.8138 -22.16148,5.58992c0,0 -2.83364,0.68726 -3.43289,-1.64491c-0.59925,-2.33218 2.2344,-3.01945 2.2344,-3.01945c7.43919,-1.8043 14.99487,-4.24266 22.50384,-5.66401c1.86155,-0.35236 3.78953,-0.23656 5.63387,-0.67005c1.87557,-0.44083 3.55492,-1.46414 5.42428,-1.92906c6.45374,-1.60503 13.70833,-1.87217 20.30414,-2.67223l1.73568,-0.21053c0,0 2.88992,-0.35053 3.08241,2.0554z" fill="#474747" stroke-width="0.5"/></g></g></g></svg>