<svg version="1.1" xmlns="http://www.w3.org/2000/svg" xmlns:xlink="http://www.w3.org/1999/xlink" width="692.16488" height="595.74474" viewBox="0,0,692.16488,595.74474"><g transform="translate(150.66485,83.40991)"><g data-paper-data="{&quot;isPaintingLayer&quot;:true}" fill-rule="nonzero" stroke-linecap="butt" stroke-linejoin="miter" stroke-miterlimit="10" stroke-dasharray="" stroke-dashoffset="0" style="mix-blend-mode: normal"><path d="M-45.49997,512.33483v-273h585v273z" fill="#8c8c8c" stroke="none" stroke-width="0"/><path d="M-43.49997,239.5v-273h585v273z" fill="#ababab" stroke="none" stroke-width="0"/><path d="M182.50004,166.5v-93h110v93z" fill="#00d9ff" stroke="none" stroke-width="0"/><g fill="#a7a7a7" stroke="none" stroke-width="0"><path d="M193.50004,167.5v-93h12v93z"/><path d="M217.50004,167.5v-93h12v93z"/><path d="M239.50004,167.5v-93h12v93z"/><path d="M263.50004,167.5v-93h12v93z"/></g><path d="M197.50004,167.5v-93h12v93z" fill="#cecece" stroke="none" stroke-width="0"/><path d="M221.50004,167.5v-93h12v93z" fill="#cecece" stroke="none" stroke-width="0"/><path d="M243.50004,167.5v-93h12v93z" fill="#cecece" stroke="none" stroke-width="0"/><path d="M267.50004,167.5v-93h12v93z" fill="#cecece" stroke="none" stroke-width="0"/><path d="M413.50004,412.5v-91h65v91z" fill="#9f9f9f" stroke="none" stroke-width="0"/><path d="" fill="#000000" stroke="none" stroke-width="0.5"/><path d="M276.76214,232.27706c7.69326,0 13.92988,12.79863 13.92988,28.58653c0,15.7879 -6.23662,28.58653 -13.92988,28.58653c-7.69326,0 -13.92988,-12.79863 -13.92988,-28.58653c0,-15.7879 6.23662,-28.58653 13.92988,-28.58653z" data-paper-data="{&quot;index&quot;:null}" fill="#ff0000" stroke="#000000" stroke-width="5"/><path d="M248.94536,267.18468c5.41873,0 9.81148,4.25759 9.81148,9.50959c0,5.252 -4.39275,9.50959 -9.81148,9.50959c-5.41873,0 -9.81148,-4.25759 -9.81148,-9.50959c0,-5.252 4.39275,-9.50959 9.81148,-9.50959z" data-paper-data="{&quot;index&quot;:null}" fill="#ff0000" stroke="#000000" stroke-width="5"/><path d="M299.94534,299.75216c6.08771,0 11.02277,2.87427 11.02277,6.41986c0,3.54559 -4.93506,6.41986 -11.02277,6.41986c-6.08771,0 -11.02277,-2.87427 -11.02277,-6.41986c0,-3.54559 4.93506,-6.41986 11.02277,-6.41986z" data-paper-data="{&quot;index&quot;:null}" fill="#ff0000" stroke="#000000" stroke-width="5"/><path d="M263.26775,301.05998c6.08771,0 11.02277,2.87426 11.02277,6.41985c0,3.54559 -4.93506,6.41985 -11.02277,6.41985c-6.0877,0 -11.02277,-2.87426 -11.02277,-6.41985c0,-3.54559 4.93506,-6.41985 11.02277,-6.41985z" data-paper-data="{&quot;index&quot;:null}" fill="#ff0000" stroke="#000000" stroke-width="5"/><path d="M-143.06152,451.03904v-481.89639l186.62162,-52.55256c0,0 11.37615,271.22744 14.92661,355.87674c1.96947,46.95554 4.59291,109.50315 4.59291,109.50315z" fill="#9f9f9f" stroke="none" stroke-width="0"/><path d="M-127.17312,387.96116l-23.49173,-364.80954l188.75097,-13.62629l23.49173,364.80954z" fill="#b5b5b5" stroke="none" stroke-width="0"/><g stroke="none" stroke-width="0"><g fill="#a7a7a7"><path d="M-80.97898,385.47452l-23.38326,-363.12507l18.45203,-1.33209l23.38326,363.12507z"/><path d="M-44.07493,382.81034l-23.38326,-363.12507l18.45203,-1.33209l23.38326,363.12507z"/><path d="M-10.24621,380.36819l-23.38326,-363.12507l18.45203,-1.33209l23.38326,363.12507z"/><path d="M26.65786,377.70401l-23.38326,-363.12507l18.45203,-1.33209l23.38326,363.12507z"/></g><path d="M-74.82831,385.03049l-23.38326,-363.12507l18.45203,-1.33209l23.38326,363.12507z" fill="#cecece"/><path d="M-37.92425,382.36632l-23.38326,-363.12507l18.45203,-1.33209l23.38326,363.12507z" fill="#cecece"/><path d="M-4.09555,379.92416l-23.38326,-363.12507l18.45203,-1.33209l23.38326,363.12507z" fill="#cecece"/><path d="M32.8085,377.25999l-23.38326,-363.12507l18.45203,-1.33209l23.38326,363.12507z" fill="#cecece"/></g><g><g fill="#7c7c7c" stroke="none"><path d="M360.65141,284.84217l-57.67846,-18.37799l3.67561,-11.5357l57.67846,18.37799z" stroke-width="0"/><path d="M306.84289,255.02546c2.6709,0.85102 4.00096,4.16194 2.97078,7.39513c-1.03019,3.23319 -4.03051,5.16433 -6.70141,4.3133c-2.6709,-0.85102 -4.00095,-4.16193 -2.97078,-7.39513c1.03019,-3.23319 4.03051,-5.16433 6.70141,-4.3133z" stroke-width="0"/><path d="M380.41987,263.88982c3.49651,1.11408 0.10467,2.04525 -0.42196,4.68466c-0.73313,3.67442 -2.43603,9.1246 -4.26068,14.85123c-1.83535,5.76016 -4.02915,11.72043 -5.3968,14.55361c-0.96872,2.00678 2.19333,2.64987 -1.27467,1.54487c-8.36413,-2.66505 -12.60289,-12.80251 -9.46754,-22.64267c3.13536,-9.84016 12.45753,-15.65674 20.82166,-12.99168z" stroke-width="0"/><path d="M380.91559,264.68046c0.26977,0.08595 0.43882,0.22395 0.54256,0.37764c1.05326,0.96866 2.32346,1.46103 3.43615,2.35714c1.2236,0.98544 1.68712,2.36673 3.06823,3.18348c1.5973,0.94461 3.27396,1.07541 4.81124,2.36497c4.57112,1.38892 3.96735,4.96067 4.90867,8.7718c0.6632,2.68513 2.9286,4.08322 3.16163,7.07894c0.37078,4.7666 -5.22746,7.64379 -9.1366,8.25422c-2.55942,-0.17458 -4.43082,0.909 -6.72464,1.64963c-1.49321,0.48212 -3.02924,0.3 -4.55292,0.35826c-3.33483,0.12753 -6.61859,0.81561 -9.96743,0.77414c-0.1293,0.25326 -0.47868,0.73516 -1.195,0.50692c-0.67756,-0.21589 -0.71976,-0.7601 -0.68761,-1.05647c-0.07234,-0.1411 -0.11366,-0.32092 -0.09911,-0.54992c0.02969,-0.46716 0.26416,-0.70174 0.5052,-0.81912c2.1004,-6.76374 3.83225,-13.77202 6.01683,-20.62822c1.17967,-3.70236 1.45209,-8.05307 4.34617,-10.91233l0.05748,-0.19674c-0.21969,-0.19068 -0.41944,-0.51525 -0.25628,-1.02734c0.30359,-0.95281 1.2564,-0.64922 1.2564,-0.64922l0.24136,0.10651c0.08291,0.00739 0.17204,0.02521 0.2677,0.05569z" stroke-width="0.5"/><path d="M280.37868,258.36884l-0.04916,0.15427c0.88247,3.12382 3.26672,5.75885 6.59106,6.81808c5.26218,1.67668 10.88725,-1.22994 12.56393,-6.49213c1.67668,-5.26218 -1.22994,-10.88725 -6.49213,-12.56393c-3.50442,-1.11661 -7.16978,-0.20048 -9.72271,2.09038c-1.3629,2.9331 -1.61921,6.70322 -3.05969,9.68194c0.02164,0.09358 0.04462,0.18679 0.06892,0.27959zM301.85327,263.98007c-0.97025,1.02155 -1.35453,1.81094 -2.69008,2.51803c0,0 -0.63509,0.32817 -1.10879,-0.10738c-0.20159,0.09746 -0.39018,0.20254 -0.55659,0.32163c-4.23848,3.03304 -8.87548,2.13551 -13.84831,1.59351c-2.08051,-0.71682 -4.42491,-0.58651 -6.62084,-1.54374c-0.54991,-0.23971 -1.42842,-0.2442 -1.60294,-0.81815c-0.43294,-1.42377 1.3014,-5.04915 1.75714,-6.47948c1.69068,-5.3061 3.38136,-10.61222 5.07203,-15.91834c0.0922,-0.28937 0.84443,-2.83491 1.14503,-3.02729c2.22754,-1.42555 5.40792,0.96311 7.59782,1.13757c6.43515,0.51266 10.99291,4.31921 13.95759,10.01207c1.53634,2.16324 2.12386,3.33225 1.99929,5.97634c0.14106,2.89518 -3.1724,4.30427 -5.10134,6.3352z" stroke-width="0.5"/></g><path d="M296.13475,249.29472c5.01563,2.05087 7.47021,7.65429 5.48245,12.5156c-1.98776,4.86131 -7.66514,7.13962 -12.68077,5.08876c-5.01563,-2.05087 -7.47021,-7.65429 -5.48245,-12.5156c1.98776,-4.86131 7.66514,-7.13962 12.68077,-5.08876z" data-paper-data="{&quot;index&quot;:null}" fill="#ff0000" stroke="#000000" stroke-width="5"/></g><path d="M414.50004,323.5v-163h65v163z" fill="#595959" stroke="none" stroke-width="0"/><g><path d="M284.3479,184.90964c11.38105,0 20.60719,9.64081 20.60719,21.53336c0,11.89255 -9.22615,21.53336 -20.60719,21.53336c-11.38105,0 -20.6072,-9.64081 -20.6072,-21.53336c0,-11.89255 9.22616,-21.53336 20.6072,-21.53336z" data-paper-data="{&quot;index&quot;:null}" fill="#d29460" stroke="#000000" stroke-width="2"/><path d="M282.0932,185.0562c1.7985,-0.03466 7.23539,-1.23033 8.69874,0.56618c1.19553,1.46772 9.95755,3.73715 10.33325,7.33322c0.45485,-0.088 0.82342,-0.00141 1.06758,0.32413c0.89578,1.19438 -1.38708,2.19145 -2.02353,2.63529c-2.51002,1.75042 -5.07661,4.51493 -7.79883,5.8044c-3.32701,1.57595 -1.93333,-3.09904 -2.24521,-3.12778c-2.11883,-0.19523 -4.99681,1.22268 -7.23571,1.28156c-4.36122,0.11469 -8.46442,-0.26607 -12.80749,-0.34641c-0.55121,-0.0102 -3.3739,0.11064 -3.78499,-0.60877c-0.29474,-0.17395 -0.49247,-0.49479 -0.49247,-0.86182c0,-0.49706 0.36266,-0.90942 0.83781,-0.98691c1.37581,-6.33275 9.22971,-11.89321 15.45085,-12.01309z" fill="#000000" stroke="none" stroke-width="0.5"/><path d="M298.90927,217.81836c-1.529,0 -1.529,-1.668 -1.529,-1.668l0.01536,-0.00239c-0.32867,-2.52058 -0.34301,-4.96093 -0.34301,-7.50361c0,0 0,-1.668 1.529,-1.668c1.529,0 1.529,1.668 1.529,1.668c0,2.38598 0.00134,4.66817 0.31227,7.03182l0.01536,0.47418c0,0 0,1.668 -1.529,1.668z" fill="#000000" stroke="none" stroke-width="0.5"/><path d="M294.2426,217.48503c-1.529,0 -1.529,-1.668 -1.529,-1.668l0.01536,-0.00239c-0.32867,-2.52058 -0.34301,-4.96093 -0.34301,-7.50361c0,0 0,-1.668 1.529,-1.668c1.529,0 1.529,1.668 1.529,1.668c0,2.38598 0.00134,4.66817 0.31227,7.03182l0.01536,0.47418c0,0 0,1.668 -1.529,1.668z" fill="#000000" stroke="none" stroke-width="0.5"/></g></g></g></svg>