<svg version="1.1" xmlns="http://www.w3.org/2000/svg" xmlns:xlink="http://www.w3.org/1999/xlink" width="629.62763" height="444.94293" viewBox="0,0,629.62763,444.94293"><g transform="translate(67.30631,26.70565)"><g data-paper-data="{&quot;isPaintingLayer&quot;:true}" fill-rule="nonzero" stroke-linecap="butt" stroke-linejoin="miter" stroke-miterlimit="10" stroke-dasharray="" stroke-dashoffset="0" style="mix-blend-mode: normal"><path d="M-22.76276,406.72678v-432.43243h545.04505v432.43243z" fill="#d6d6d6" stroke="#000000" stroke-width="2"/><path d="M-66.30631,417.23728v-177.17718h627.62763v177.17718z" fill="#949494" stroke="#000000" stroke-width="2"/><path d="M182.94294,155.976v-114.11411h132.13213v114.11411z" fill="#98d7ff" stroke="#000000" stroke-width="2"/><path d="M200.96099,157.4775v-112.61261h10.51051v112.61261z" fill="#848484" stroke="#000000" stroke-width="2"/><path d="M220.48049,157.4775v-115.61562h10.51051v115.61562z" fill="#848484" stroke="#000000" stroke-width="2"/><path d="M241.50152,157.4775v-112.61261h10.51051v112.61261z" fill="#848484" stroke="#000000" stroke-width="2"/><path d="M265.52554,157.4775v-114.11411h7.50751v114.11411z" fill="#848484" stroke="#000000" stroke-width="2"/><path d="M285.2675,158.97901v-114.11411h10.56612v114.11411z" fill="#848484" stroke="#000000" stroke-width="2"/><path d="M306.78042,166.749c11.38105,0 20.60719,9.64081 20.60719,21.53336c0,11.89255 -9.22615,21.53336 -20.60719,21.53336c-11.38105,0 -20.6072,-9.64081 -20.6072,-21.53336c0,-11.89255 9.22616,-21.53336 20.6072,-21.53336z" data-paper-data="{&quot;index&quot;:null}" fill="#d29460" stroke="#000000" stroke-width="2"/><path d="M278.48893,252.72222c5.41873,0 9.81148,4.25759 9.81148,9.50959c0,5.252 -4.39275,9.50959 -9.81148,9.50959c-5.41873,0 -9.81148,-4.25759 -9.81148,-9.50959c0,-5.252 4.39275,-9.50959 9.81148,-9.50959z" data-paper-data="{&quot;index&quot;:null}" fill="#ff0000" stroke="#000000" stroke-width="5"/><path d="M309.412,222.20932c7.66462,-0.6632 14.98133,11.55014 16.34234,27.27927c1.36101,15.72913 -3.74908,29.01774 -11.4137,29.68094c-7.66462,0.6632 -14.98133,-11.55014 -16.34235,-27.27927c-1.36101,-15.72913 3.74908,-29.01774 11.41371,-29.68094z" data-paper-data="{&quot;index&quot;:null}" fill="#ff0000" stroke="#000000" stroke-width="5"/><path d="M341.38394,297.41883c6.08771,0 11.02277,2.87427 11.02277,6.41986c0,3.54559 -4.93506,6.41986 -11.02277,6.41986c-6.08771,0 -11.02277,-2.87427 -11.02277,-6.41986c0,-3.54559 4.93506,-6.41986 11.02277,-6.41986z" data-paper-data="{&quot;index&quot;:null}" fill="#ff0000" stroke="#000000" stroke-width="5"/><path d="M308.02457,298.38731c6.08771,0 11.02277,2.87426 11.02277,6.41985c0,3.54559 -4.93506,6.41985 -11.02277,6.41985c-6.0877,0 -11.02277,-2.87426 -11.02277,-6.41985c0,-3.54559 4.93506,-6.41985 11.02277,-6.41985z" data-paper-data="{&quot;index&quot;:null}" fill="#ff0000" stroke="#000000" stroke-width="5"/><path d="M303.5257,166.89708c1.7985,-0.03466 7.23539,-1.23033 8.69874,0.56618c1.19553,1.46772 9.95755,3.73715 10.33325,7.33322c0.45485,-0.088 0.82342,-0.00141 1.06758,0.32413c0.89578,1.19438 -1.38708,2.19145 -2.02353,2.63529c-2.51002,1.75042 -5.07661,4.51493 -7.79883,5.8044c-3.32701,1.57595 -1.93333,-3.09904 -2.24521,-3.12778c-2.11883,-0.19523 -4.99681,1.22268 -7.23571,1.28156c-4.36122,0.11469 -8.46442,-0.26607 -12.80749,-0.34641c-0.55121,-0.0102 -3.3739,0.11064 -3.78499,-0.60877c-0.29474,-0.17395 -0.49247,-0.49479 -0.49247,-0.86182c0,-0.49706 0.36266,-0.90942 0.83781,-0.98691c1.37581,-6.33275 9.22971,-11.89321 15.45085,-12.01309z" fill="#000000" stroke="none" stroke-width="0.5"/><g fill="#000000" stroke="none" stroke-width="0.5"><path d="M292.04276,194.1358c-1.668,0 -1.668,-1.668 -1.668,-1.668l0.01463,-0.37527c-0.34511,-2.59248 -0.61035,-4.98782 -0.61035,-7.60731c0,0 0,-1.668 1.668,-1.668c1.668,0 1.668,1.668 1.668,1.668c0,2.47742 0.25351,4.71337 0.58108,7.16641l0.01463,0.81616c0,0 0,1.668 -1.668,1.668z"/><path d="M297.52335,193.65925c-1.668,0 -1.668,-1.668 -1.668,-1.668l0.01676,-0.00239c-0.35855,-2.52058 -0.37419,-4.96093 -0.37419,-7.50361c0,0 0,-1.668 1.668,-1.668c1.668,0 1.668,1.668 1.668,1.668c0,2.38598 0.00146,4.66817 0.34066,7.03182l0.01676,0.47418c0,0 0,1.668 -1.668,1.668z"/><path d="M304.67193,200.8078c0,1.668 -1.668,1.668 -1.668,1.668l-1.42941,-0.00424c-1.8419,-0.15079 -3.1094,0.24488 -4.89108,0.77046c0,0 -1.60022,0.47065 -2.07088,-1.12957c-0.47065,-1.60022 1.12957,-2.07088 1.12957,-2.07088c2.15042,-0.63072 3.82916,-1.03976 6.07006,-0.89754l1.19173,-0.00424c0,0 1.668,0 1.668,1.668z"/></g><path d="M303.94858,239.75894c-0.54488,5.39127 -5.2226,9.33363 -10.44798,8.80552c-5.22538,-0.52811 -9.01968,-5.32672 -8.4748,-10.71798c0.54488,-5.39127 5.2226,-9.33363 10.44798,-8.80552c5.22538,0.52811 9.01968,5.32672 8.4748,10.71798z" data-paper-data="{&quot;index&quot;:null}" fill="#ff0000" stroke="#000000" stroke-width="5"/><g fill="#7c7c7c" stroke="none"><path d="M192.36682,286.24614l0.06999,-60.53555l12.10712,0.014l-0.06999,60.53555z" stroke-width="0"/><path d="M204.51029,225.93918c-0.00324,2.80321 -2.75672,5.07247 -6.15007,5.06854c-3.39334,-0.00392 -6.14157,-2.27953 -6.13834,-5.08274c0.00324,-2.80321 2.75674,-5.07245 6.15007,-5.06854c3.39334,0.00392 6.14157,2.27953 6.13834,5.08274z" stroke-width="0"/><path d="M218.31733,298.75066c-0.00424,3.66971 -1.91779,0.71843 -4.59284,1.01486c-3.72404,0.41268 -9.43401,0.43819 -15.4443,0.43124c-6.04548,-0.00699 -12.39014,-0.29511 -15.50429,-0.74168c-2.2058,-0.31632 -1.86228,2.89213 -1.85807,-0.74763c0.01016,-8.77845 8.39052,-15.88509 18.71812,-15.87316c10.32759,0.01194 18.69152,7.13796 18.68138,15.91638z" stroke-width="0"/><path d="M217.71369,299.46231c-0.00032,0.28313 -0.08072,0.48601 -0.19583,0.63137c-0.60468,1.29693 -0.68977,2.65655 -1.20732,3.98818c-0.56917,1.46435 -1.74551,2.32398 -2.10624,3.88746c-0.4172,1.8082 -0.03469,3.44587 -0.79884,5.30123c0.05885,4.7771 -3.5282,5.28203 -6.87604,7.33208c-2.35874,1.44434 -3.00606,4.02654 -5.79096,5.15481c-4.43114,1.79525 -8.86694,-2.67041 -10.63125,-6.21178c-0.60781,-2.49234 -2.20668,-3.9483 -3.60648,-5.91062c-0.9112,-1.27742 -1.20224,-2.79658 -1.71868,-4.23127c-1.1303,-3.14003 -2.77945,-6.06181 -3.75289,-9.26632c-0.28051,-0.04664 -0.84551,-0.23388 -0.84465,-0.98568c0.00082,-0.71112 0.50677,-0.91597 0.79899,-0.97499c0.11262,-0.11163 0.2715,-0.20541 0.49417,-0.26081c0.45424,-0.11302 0.74876,0.03952 0.93357,0.23375c7.08222,-0.04395 14.28605,-0.51316 21.48185,-0.50483c3.88574,0.00449 8.11505,-1.05189 11.71578,0.84171l0.20492,-0.00471c0.1153,-0.26709 0.36424,-0.55565 0.90169,-0.55503c1.00001,0.00116 0.99885,1.00115 0.99885,1.00115l-0.02852,0.26227c0.01804,0.08126 0.02802,0.17161 0.02789,0.27201z" stroke-width="0.5"/><path d="M193.31843,201.72606l-0.16191,-0.00019c-2.71055,1.78604 -4.50092,4.85566 -4.50495,8.34468c-0.00639,5.52285 4.46558,10.00518 9.98845,10.01155c5.52285,0.00639 10.00518,-4.46558 10.01155,-9.98845c0.00425,-3.67801 -1.97768,-6.89455 -4.93345,-8.63492c-3.20795,-0.41183 -6.87899,0.48429 -10.15388,0.01232c-0.08265,0.04894 -0.16455,0.09904 -0.24565,0.15026zM194.46584,223.89195c-1.26718,-0.61578 -2.13583,-0.74329 -3.21379,-1.80237c0,0 -0.5049,-0.50605 -0.23306,-1.08933c-0.15388,-0.16266 -0.31107,-0.31064 -0.47494,-0.43323c-4.17303,-3.12247 -4.7202,-7.81373 -5.7078,-12.71754c0.05392,-2.19987 -0.77945,-4.39503 -0.53132,-6.77763c0.06214,-0.59665 -0.19933,-1.43536 0.29494,-1.77534c1.22611,-0.84333 5.20627,-0.28687 6.70745,-0.28515c5.56893,0.00645 11.13789,0.01289 16.70684,0.01932c0.30371,0.00035 2.95753,-0.05266 3.23182,0.17568c2.03257,1.69196 0.71784,5.4459 1.21398,7.58599c1.45791,6.28877 -0.79164,11.78444 -5.32103,16.33224c-1.59717,2.11873 -2.53371,3.03233 -5.09161,3.71341c-2.71689,1.01021 -5.06225,-1.7218 -7.58151,-2.94605z" stroke-width="0.5"/></g></g></g></svg>