<svg version="1.1" xmlns="http://www.w3.org/2000/svg" xmlns:xlink="http://www.w3.org/1999/xlink" width="692.16488" height="596.24474" viewBox="0,0,692.16488,596.24474"><g transform="translate(150.66485,83.40991)"><g data-paper-data="{&quot;isPaintingLayer&quot;:true}" fill-rule="nonzero" stroke-linecap="butt" stroke-linejoin="miter" stroke-miterlimit="10" stroke-dasharray="" stroke-dashoffset="0" style="mix-blend-mode: normal"><path d="M-45.49997,512.83483v-273h585v273z" fill="#8c8c8c" stroke="none" stroke-width="0"/><path d="M-43.49997,239.5v-273h585v273z" fill="#ababab" stroke="none" stroke-width="0"/><path d="M182.50004,166.5v-93h110v93z" fill="#00d9ff" stroke="none" stroke-width="0"/><g fill="#a7a7a7" stroke="none" stroke-width="0"><path d="M193.50004,167.5v-93h12v93z"/><path d="M217.50004,167.5v-93h12v93z"/><path d="M239.50004,167.5v-93h12v93z"/><path d="M263.50004,167.5v-93h12v93z"/></g><path d="M197.50004,167.5v-93h12v93z" fill="#cecece" stroke="none" stroke-width="0"/><path d="M221.50004,167.5v-93h12v93z" fill="#cecece" stroke="none" stroke-width="0"/><path d="M243.50004,167.5v-93h12v93z" fill="#cecece" stroke="none" stroke-width="0"/><path d="M267.50004,167.5v-93h12v93z" fill="#cecece" stroke="none" stroke-width="0"/><path d="M413.50004,412.5v-91h65v91z" fill="#9f9f9f" stroke="none" stroke-width="0"/><path d="" fill="#000000" stroke="none" stroke-width="0.5"/><path d="M276.76214,232.27706c7.69326,0 13.92988,12.79863 13.92988,28.58653c0,15.7879 -6.23662,28.58653 -13.92988,28.58653c-7.69326,0 -13.92988,-12.79863 -13.92988,-28.58653c0,-15.7879 6.23662,-28.58653 13.92988,-28.58653z" data-paper-data="{&quot;index&quot;:null}" fill="#ff0000" stroke="#000000" stroke-width="5"/><path d="M246.44536,265.68468c5.41873,0 9.81148,4.25759 9.81148,9.50959c0,5.252 -4.39275,9.50959 -9.81148,9.50959c-5.41873,0 -9.81148,-4.25759 -9.81148,-9.50959c0,-5.252 4.39275,-9.50959 9.81148,-9.50959z" data-paper-data="{&quot;index&quot;:null}" fill="#ff0000" stroke="#000000" stroke-width="5"/><path d="M289.94534,299.25216c6.08771,0 11.02277,2.87427 11.02277,6.41986c0,3.54559 -4.93506,6.41986 -11.02277,6.41986c-6.08771,0 -11.02277,-2.87427 -11.02277,-6.41986c0,-3.54559 4.93506,-6.41986 11.02277,-6.41986z" data-paper-data="{&quot;index&quot;:null}" fill="#ff0000" stroke="#000000" stroke-width="5"/><path d="M259.76775,300.55998c6.08771,0 11.02277,2.87426 11.02277,6.41985c0,3.54559 -4.93506,6.41985 -11.02277,6.41985c-6.0877,0 -11.02277,-2.87426 -11.02277,-6.41985c0,-3.54559 4.93506,-6.41985 11.02277,-6.41985z" data-paper-data="{&quot;index&quot;:null}" fill="#ff0000" stroke="#000000" stroke-width="5"/><path d="M-143.06152,451.03904v-481.89639l186.62162,-52.55256c0,0 11.37615,271.22744 14.92661,355.87674c1.96947,46.95554 4.59291,109.50315 4.59291,109.50315z" fill="#9f9f9f" stroke="none" stroke-width="0"/><path d="M-127.17312,387.96116l-23.49173,-364.80954l188.75097,-13.62629l23.49173,364.80954z" fill="#b5b5b5" stroke="none" stroke-width="0"/><g stroke="none" stroke-width="0"><g fill="#a7a7a7"><path d="M-80.97898,385.47452l-23.38326,-363.12507l18.45203,-1.33209l23.38326,363.12507z"/><path d="M-44.07493,382.81034l-23.38326,-363.12507l18.45203,-1.33209l23.38326,363.12507z"/><path d="M-10.24621,380.36819l-23.38326,-363.12507l18.45203,-1.33209l23.38326,363.12507z"/><path d="M26.65786,377.70401l-23.38326,-363.12507l18.45203,-1.33209l23.38326,363.12507z"/></g><path d="M-74.82831,385.03049l-23.38326,-363.12507l18.45203,-1.33209l23.38326,363.12507z" fill="#cecece"/><path d="M-37.92425,382.36632l-23.38326,-363.12507l18.45203,-1.33209l23.38326,363.12507z" fill="#cecece"/><path d="M-4.09555,379.92416l-23.38326,-363.12507l18.45203,-1.33209l23.38326,363.12507z" fill="#cecece"/><path d="M32.8085,377.25999l-23.38326,-363.12507l18.45203,-1.33209l23.38326,363.12507z" fill="#cecece"/></g><g><g fill="#7c7c7c" stroke="none"><path d="M203.5128,246.55767l38.61179,-46.62279l9.32455,7.72239l-38.61179,46.62279z" stroke-width="0"/><path d="M251.28654,207.80122c-1.78798,2.15894 -5.35606,2.15451 -7.96954,-0.00987c-2.61346,-2.1644 -3.28265,-5.66917 -1.49466,-7.82812c1.78798,-2.15894 5.35605,-2.15453 7.96954,0.00987c2.61346,2.1644 3.28265,5.66917 1.49466,7.82812z" stroke-width="0"/><path d="M215.55358,272.7266c-2.34068,2.82631 -1.93603,-0.66767 -4.18707,-2.14303c-3.13376,-2.05387 -7.55184,-5.67116 -12.18083,-9.50472c-4.65607,-3.85603 -9.36368,-8.11933 -11.47998,-10.44716c-1.499,-1.64882 -3.27777,1.04339 -0.95619,-1.75987c5.5992,-6.76093 16.58627,-6.90165 24.5403,-0.31433c7.95402,6.58731 9.86298,17.40819 4.26375,24.16909z" stroke-width="0"/><path d="M214.63493,272.89074c-0.18059,0.21807 -0.37178,0.32325 -0.55311,0.36199c-1.29223,0.61466 -2.22383,1.60863 -3.47098,2.30552c-1.37149,0.76637 -2.8259,0.67978 -4.09981,1.65531c-1.47335,1.12822 -2.22159,2.63436 -3.99241,3.57795c-2.9974,3.7202 -6.08429,1.82469 -9.97094,1.27269c-2.73834,-0.38891 -4.88209,1.18939 -7.74764,0.28537c-4.55949,-1.43843 -5.1347,-7.7064 -4.23916,-11.56025c1.11892,-2.30851 0.81369,-4.4493 0.98448,-6.85368c0.11118,-1.56517 0.85444,-2.92168 1.37014,-4.35662c1.12867,-3.14062 1.71834,-6.44346 3.00899,-9.53389c-0.18655,-0.21461 -0.50285,-0.71885 -0.02332,-1.29786c0.45359,-0.54769 0.97409,-0.38334 1.23695,-0.24269c0.15791,-0.01434 0.34014,0.01457 0.54709,0.1137c0.42216,0.20221 0.55207,0.5074 0.57079,0.77484c5.48775,4.47712 11.3401,8.70385 16.88212,13.29361c2.99271,2.47848 6.92596,4.35794 8.49568,8.11121l0.16096,0.12689c0.259,-0.13246 0.63472,-0.19634 1.04865,0.14644c0.77017,0.63783 0.13234,1.40802 0.13234,1.40802l-0.18904,0.18404c-0.03785,0.07413 -0.0877,0.15013 -0.15175,0.22747z" stroke-width="0.5"/><path d="M258.08107,182.00653l-0.1247,-0.10328c-3.22719,-0.34959 -6.56259,0.87645 -8.78801,3.56357c-3.52266,4.25354 -2.93018,10.55741 1.32336,14.08009c4.25354,3.52266 10.55741,2.93018 14.08009,-1.32336c2.34597,-2.8327 2.86682,-6.57473 1.69672,-9.79907c-2.21073,-2.36077 -5.61155,-4.00819 -7.83557,-6.45798c-0.09489,-0.01491 -0.18992,-0.02846 -0.28507,-0.04062zM244.84717,199.82527c-0.58465,-1.28185 -1.1731,-1.93341 -1.32951,-3.43647c0,0 -0.06691,-0.71173 0.51418,-0.9882c-0.01502,-0.2234 -0.04195,-0.43761 -0.09018,-0.63648c-1.22819,-5.06514 1.33808,-9.03017 3.70018,-13.43964c1.44276,-1.66157 2.19852,-3.88462 3.9074,-5.56335c0.42796,-0.42039 0.7606,-1.2335 1.35818,-1.18075c1.48238,0.13084 4.19628,3.09496 5.35246,4.05247c4.28903,3.55208 8.57808,7.10416 12.86716,10.65623c0.23389,0.19372 2.31353,1.84319 2.37956,2.19393c0.48923,2.59899 -2.91534,4.65551 -3.89601,6.62134c-2.88167,5.77667 -8.11633,8.58051 -14.50479,9.20148c-2.5808,0.61602 -3.88468,0.72382 -6.2904,-0.38037c-2.73792,-0.95172 -2.80584,-4.55173 -3.9682,-7.10013z" stroke-width="0.5"/></g><path d="M260.60554,200.01264c-3.77753,3.88497 -9.8923,4.06628 -13.65773,0.40499c-3.76543,-3.66131 -3.75561,-9.77874 0.02191,-13.66372c3.77753,-3.88497 9.8923,-4.06628 13.65773,-0.40499c3.76543,3.66131 3.75561,9.77874 -0.02191,13.66372z" data-paper-data="{&quot;index&quot;:null}" fill="#ff0000" stroke="#000000" stroke-width="5"/></g><path d="M414.50004,323.5v-163h65v163z" fill="#595959" stroke="none" stroke-width="0"/><path d="M284.3479,184.90964c11.38105,0 20.60719,9.64081 20.60719,21.53336c0,11.89255 -9.22615,21.53336 -20.60719,21.53336c-11.38105,0 -20.6072,-9.64081 -20.6072,-21.53336c0,-11.89255 9.22616,-21.53336 20.6072,-21.53336z" data-paper-data="{&quot;index&quot;:null}" fill="#d29460" stroke="#000000" stroke-width="2"/><path d="M282.0932,185.0562c1.7985,-0.03466 7.23539,-1.23033 8.69874,0.56618c1.19553,1.46772 9.95755,3.73715 10.33325,7.33322c0.45485,-0.088 0.82342,-0.00141 1.06758,0.32413c0.89578,1.19438 -1.38708,2.19145 -2.02353,2.63529c-2.51002,1.75042 -5.07661,4.51493 -7.79883,5.8044c-3.32701,1.57595 -1.93333,-3.09904 -2.24521,-3.12778c-2.11883,-0.19523 -4.99681,1.22268 -7.23571,1.28156c-4.36122,0.11469 -8.46442,-0.26607 -12.80749,-0.34641c-0.55121,-0.0102 -3.3739,0.11064 -3.78499,-0.60877c-0.29474,-0.17395 -0.49247,-0.49479 -0.49247,-0.86182c0,-0.49706 0.36266,-0.90942 0.83781,-0.98691c1.37581,-6.33275 9.22971,-11.89321 15.45085,-12.01309z" fill="#000000" stroke="none" stroke-width="0.5"/><path d="M269.40927,215.81836c-1.529,0 -1.529,-1.668 -1.529,-1.668l0.01536,-0.00239c-0.32867,-2.52058 -0.34301,-4.96093 -0.34301,-7.50361c0,0 0,-1.668 1.529,-1.668c1.529,0 1.529,1.668 1.529,1.668c0,2.38598 0.00134,4.66817 0.31227,7.03182l0.01536,0.47418c0,0 0,1.668 -1.529,1.668z" fill="#000000" stroke="none" stroke-width="0.5"/><path d="M273.7426,215.48503c-1.529,0 -1.529,-1.668 -1.529,-1.668l0.01536,-0.00239c-0.32867,-2.52058 -0.34301,-4.96093 -0.34301,-7.50361c0,0 0,-1.668 1.529,-1.668c1.529,0 1.529,1.668 1.529,1.668c0,2.38598 0.00134,4.66817 0.31227,7.03182l0.01536,0.47418c0,0 0,1.668 -1.529,1.668z" fill="#000000" stroke="none" stroke-width="0.5"/></g></g></svg>