<svg version="1.1" xmlns="http://www.w3.org/2000/svg" xmlns:xlink="http://www.w3.org/1999/xlink" width="629.62763" height="444.94293" viewBox="0,0,629.62763,444.94293"><g transform="translate(67.30631,26.70565)"><g data-paper-data="{&quot;isPaintingLayer&quot;:true}" fill-rule="nonzero" stroke-linecap="butt" stroke-linejoin="miter" stroke-miterlimit="10" stroke-dasharray="" stroke-dashoffset="0" style="mix-blend-mode: normal"><path d="M-22.76276,406.72678v-432.43243h545.04505v432.43243z" fill="#d6d6d6" stroke="#000000" stroke-width="2"/><path d="M-66.30631,417.23728v-177.17718h627.62763v177.17718z" fill="#949494" stroke="#000000" stroke-width="2"/><path d="M182.94294,155.976v-114.11411h132.13213v114.11411z" fill="#98d7ff" stroke="#000000" stroke-width="2"/><path d="M200.96099,157.4775v-112.61261h10.51051v112.61261z" fill="#848484" stroke="#000000" stroke-width="2"/><path d="M220.48049,157.4775v-115.61562h10.51051v115.61562z" fill="#848484" stroke="#000000" stroke-width="2"/><path d="M241.50152,157.4775v-112.61261h10.51051v112.61261z" fill="#848484" stroke="#000000" stroke-width="2"/><path d="M265.52554,157.4775v-114.11411h7.50751v114.11411z" fill="#848484" stroke="#000000" stroke-width="2"/><path d="M285.2675,158.97901v-114.11411h10.56612v114.11411z" fill="#848484" stroke="#000000" stroke-width="2"/><path d="M306.78042,166.749c11.38105,0 20.60719,9.64081 20.60719,21.53336c0,11.89255 -9.22615,21.53336 -20.60719,21.53336c-11.38105,0 -20.6072,-9.64081 -20.6072,-21.53336c0,-11.89255 9.22616,-21.53336 20.6072,-21.53336z" data-paper-data="{&quot;index&quot;:null}" fill="#d29460" stroke="#000000" stroke-width="2"/><path d="M278.48893,252.72222c5.41873,0 9.81148,4.25759 9.81148,9.50959c0,5.252 -4.39275,9.50959 -9.81148,9.50959c-5.41873,0 -9.81148,-4.25759 -9.81148,-9.50959c0,-5.252 4.39275,-9.50959 9.81148,-9.50959z" data-paper-data="{&quot;index&quot;:null}" fill="#ff0000" stroke="#000000" stroke-width="5"/><path d="M309.412,222.20932c7.66462,-0.6632 14.98133,11.55014 16.34234,27.27927c1.36101,15.72913 -3.74908,29.01774 -11.4137,29.68094c-7.66462,0.6632 -14.98133,-11.55014 -16.34235,-27.27927c-1.36101,-15.72913 3.74908,-29.01774 11.41371,-29.68094z" data-paper-data="{&quot;index&quot;:null}" fill="#ff0000" stroke="#000000" stroke-width="5"/><path d="M341.38397,297.41883c6.08771,0 11.02277,2.87427 11.02277,6.41986c0,3.54559 -4.93506,6.41986 -11.02277,6.41986c-6.08771,0 -11.02277,-2.87427 -11.02277,-6.41986c0,-3.54559 4.93506,-6.41986 11.02277,-6.41986z" data-paper-data="{&quot;index&quot;:null}" fill="#ff0000" stroke="#000000" stroke-width="5"/><path d="M308.02457,298.38731c6.08771,0 11.02277,2.87426 11.02277,6.41985c0,3.54559 -4.93506,6.41985 -11.02277,6.41985c-6.0877,0 -11.02277,-2.87426 -11.02277,-6.41985c0,-3.54559 4.93506,-6.41985 11.02277,-6.41985z" data-paper-data="{&quot;index&quot;:null}" fill="#ff0000" stroke="#000000" stroke-width="5"/><path d="M303.5257,166.89708c1.7985,-0.03466 7.23539,-1.23033 8.69874,0.56618c1.19553,1.46772 9.95755,3.73715 10.33325,7.33322c0.45485,-0.088 0.82342,-0.00141 1.06758,0.32413c0.89578,1.19438 -1.38708,2.19145 -2.02353,2.63529c-2.51002,1.75042 -5.07661,4.51493 -7.79883,5.8044c-3.32701,1.57595 -1.93333,-3.09904 -2.24521,-3.12778c-2.11883,-0.19523 -4.99681,1.22268 -7.23571,1.28156c-4.36122,0.11469 -8.46442,-0.26607 -12.80749,-0.34641c-0.55121,-0.0102 -3.3739,0.11064 -3.78499,-0.60877c-0.29474,-0.17395 -0.49247,-0.49479 -0.49247,-0.86182c0,-0.49706 0.36266,-0.90942 0.83781,-0.98691c1.37581,-6.33275 9.22971,-11.89321 15.45085,-12.01309z" fill="#000000" stroke="none" stroke-width="0.5"/><g fill="#000000" stroke="none" stroke-width="0.5"><path d="M292.04276,194.1358c-1.668,0 -1.668,-1.668 -1.668,-1.668l0.01463,-0.37527c-0.34511,-2.59248 -0.61035,-4.98782 -0.61035,-7.60731c0,0 0,-1.668 1.668,-1.668c1.668,0 1.668,1.668 1.668,1.668c0,2.47742 0.25351,4.71337 0.58108,7.16641l0.01463,0.81616c0,0 0,1.668 -1.668,1.668z"/><path d="M297.52335,193.65925c-1.668,0 -1.668,-1.668 -1.668,-1.668l0.01676,-0.00239c-0.35855,-2.52058 -0.37419,-4.96093 -0.37419,-7.50361c0,0 0,-1.668 1.668,-1.668c1.668,0 1.668,1.668 1.668,1.668c0,2.38598 0.00146,4.66817 0.34066,7.03182l0.01676,0.47418c0,0 0,1.668 -1.668,1.668z"/><path d="M304.67193,200.8078c0,1.668 -1.668,1.668 -1.668,1.668l-1.42941,-0.00424c-1.8419,-0.15079 -3.1094,0.24488 -4.89108,0.77046c0,0 -1.60022,0.47065 -2.07088,-1.12957c-0.47065,-1.60022 1.12957,-2.07088 1.12957,-2.07088c2.15042,-0.63072 3.82916,-1.03976 6.07006,-0.89754l1.19173,-0.00424c0,0 1.668,0 1.668,1.668z"/></g><path d="M303.94858,239.75894c-0.54488,5.39127 -5.2226,9.33363 -10.44798,8.80552c-5.22538,-0.52811 -9.01968,-5.32672 -8.4748,-10.71798c0.54488,-5.39127 5.2226,-9.33363 10.44798,-8.80552c5.22538,0.52811 9.01968,5.32672 8.4748,10.71798z" data-paper-data="{&quot;index&quot;:null}" fill="#ff0000" stroke="#000000" stroke-width="5"/><g fill="#7c7c7c" stroke="none"><path d="M132.16272,312.50405l-56.49705,-21.74031l4.34807,-11.29942l56.49705,21.74031z" stroke-width="0"/><path d="M80.20205,279.57256c2.6162,1.00673 3.74912,4.39017 2.53045,7.55713c-1.21866,3.16697 -4.32741,4.91819 -6.94361,3.91148c-2.6162,-1.00673 -3.74908,-4.39018 -2.53045,-7.55713c1.21866,-3.16697 4.32741,-4.91819 6.94361,-3.91148z" stroke-width="0"/><path d="M153.12987,292.75132c3.4249,1.31791 -0.01588,2.04788 -0.6969,4.65171c-0.94809,3.62491 -2.96874,8.96544 -5.12724,14.57477c-2.17113,5.64216 -4.71188,11.46302 -6.24387,14.21082c-1.08514,1.9463 2.0336,2.77436 -1.36335,1.46719c-8.1928,-3.15264 -11.82767,-13.52195 -8.1187,-23.16057c3.70898,-9.63861 13.35729,-14.89652 21.55008,-11.74391z" stroke-width="0"/><path d="M153.57821,293.56974c0.26424,0.10167 0.42488,0.24938 0.51939,0.4089c0.99444,1.02896 2.23345,1.59523 3.29149,2.55525c1.16347,1.05575 1.54492,2.4619 2.87558,3.35852c1.53894,1.03697 3.205,1.26619 4.66374,2.644c4.48146,1.65551 3.66856,5.18553 4.38398,9.04544c0.50403,2.71952 2.68326,4.24848 2.73958,7.25272c0.08964,4.78016 -5.6682,7.32292 -9.6065,7.70227c-2.54473,-0.32487 -4.47664,0.64668 -6.81007,1.25106c-1.51899,0.3934 -3.04163,0.12121 -4.56612,0.08972c-3.33655,-0.06893 -6.65512,0.42472 -9.99571,0.18624c-0.14399,0.24522 -0.52111,0.70572 -1.22276,0.43572c-0.66368,-0.25538 -0.67379,-0.80114 -0.62426,-1.09512c-0.0639,-0.14512 -0.09459,-0.32704 -0.06658,-0.55479c0.05712,-0.4646 0.305,-0.68497 0.55252,-0.78797c2.49478,-6.62841 4.63603,-13.52265 7.22029,-20.23838c1.39549,-3.62651 1.92347,-7.95366 4.98078,-10.63766l0.06898,-0.19302c-0.2081,-0.20329 -0.38839,-0.53904 -0.19538,-1.04063c0.35914,-0.93329 1.29242,-0.57417 1.29242,-0.57417l0.23467,0.12053c0.08233,0.01225 0.17026,0.03528 0.26396,0.07134z" stroke-width="0.5"/><path d="M53.58696,281.35283l-0.05815,0.15112c0.6971,3.17034 2.92217,5.9411 6.17842,7.19412c5.1544,1.98344 10.94076,-0.58713 12.92419,-5.74156c1.98344,-5.1544 -0.58713,-10.94076 -5.74156,-12.92419c-3.43265,-1.32089 -7.14557,-0.62206 -9.82887,1.51461c-1.53315,2.84781 -2.01086,6.59633 -3.62413,9.4851c0.0161,0.09469 0.03356,0.1891 0.05234,0.28316zM74.6941,288.21806c-1.02867,0.96269 -1.45875,1.7281 -2.83358,2.35537c0,0 -0.65328,0.29024 -1.10055,-0.17243c-0.20697,0.08543 -0.40142,0.17922 -0.57456,0.28834c-4.40962,2.77835 -8.98577,1.60953 -13.91808,0.77583c-2.03471,-0.83801 -4.38273,-0.84588 -6.51852,-1.93066c-0.53485,-0.27166 -1.41157,-0.32782 -1.55203,-0.91105c-0.34841,-1.44678 1.59627,-4.96382 2.13538,-6.36485c1.99999,-5.19741 3.99999,-10.39484 5.99998,-15.59228c0.10907,-0.28345 1.00979,-2.78031 1.3212,-2.95466c2.30755,-1.292 5.34187,1.27968 7.51772,1.5827c6.39384,0.89046 10.71969,4.95861 13.34422,10.81606c1.40639,2.2499 1.92409,3.45147 1.64414,6.08364c-0.02956,2.89846 -3.4202,4.11014 -5.46532,6.02402z" stroke-width="0.5"/></g></g></g></svg>