<svg version="1.1" xmlns="http://www.w3.org/2000/svg" xmlns:xlink="http://www.w3.org/1999/xlink" width="629" height="430.75" viewBox="0,0,629,430.75"><g transform="translate(78.83333,55.75)"><g data-paper-data="{&quot;isPaintingLayer&quot;:true}" fill-rule="nonzero" stroke-linejoin="miter" stroke-miterlimit="10" stroke-dasharray="" stroke-dashoffset="0" style="mix-blend-mode: normal"><path d="M-55.5,193.25v-248h570v248z" fill="#2bf0ff" stroke="#000000" stroke-width="2" stroke-linecap="butt"/><path d="M-70.5,214v-23h619v23z" fill="#ffb62c" stroke="#000000" stroke-width="2" stroke-linecap="butt"/><path d="M141,28c0,2.5 -2.5,2.5 -2.5,2.5l-2.59954,-0.03228c-6.82932,2.27644 -14.17414,0.31621 -21.24647,1.03906c-1.6596,0.16962 -3.25206,0.77587 -4.90764,0.98105c-1.72132,0.21333 -3.60409,-0.03255 -5.14797,0.75795c-1.38224,0.70774 -3.3206,1.23026 -3.78868,2.71092c-0.29759,0.94135 0.45404,2.07726 0.01547,2.96177c-0.74885,1.51026 -2.46799,2.34956 -3.35869,3.78075c-0.81756,1.31366 -0.86368,3.01415 -1.68588,4.32491c-0.0185,0.02949 -0.0371,0.05891 -0.05581,0.08826l0.01127,0.00564l-1.97578,3.95156c-0.40086,0.84561 -1.26228,1.43041 -2.26029,1.43041c-1.1246,0 -2.07576,-0.74256 -2.38994,-1.76412l-0.93973,-2.8192c-1.13648,-2.2842 -2.59937,-6.33343 -4.98466,-7.79006c-2.04217,-1.24709 -2.72479,-0.26535 -5.08613,-0.65891c-1.03975,-0.17329 -1.95435,-0.86685 -3,-1c-3.17423,-0.4042 -6.39968,0.03228 -9.59954,0.03228c0,0 -2.5,0 -2.5,-2.5c0,-2.5 2.5,-2.5 2.5,-2.5c0.57552,0 10.05669,-0.00996 10.40046,0.03228c1.04622,0.12856 1.96025,0.82671 3,1c2.31564,0.38594 4.89582,0.14169 6.91387,1.34109c2.75167,1.63542 4.48828,4.97355 5.92692,7.95983c0.26932,-1.36079 0.79247,-2.6802 1.50618,-3.81719c0.73457,-1.17021 2.31673,-1.6951 2.9274,-2.93448c0.44762,-0.90847 -0.4044,-2.11661 0.01547,-3.03823c2.33558,-5.12674 8.39321,-5.95102 13.06335,-6.53112c1.65239,-0.20525 3.2413,-0.81485 4.89816,-0.98011c6.95709,-0.6939 14.25183,1.23219 20.94772,-0.99978l3.40046,-0.03228c0,0 2.5,0 2.5,2.5z" fill="#000000" stroke="none" stroke-width="0.5" stroke-linecap="butt"/><path d="M405,26c0,2.5 -2.5,2.5 -2.5,2.5l-1.39366,-0.07464c-2.42231,0.6044 -4.74441,1.62521 -7.20588,2.04236c-2.93722,0.49778 -5.47251,0.3689 -8.30208,1.77807c-1.19324,0.59425 -2.10869,1.72722 -3.37392,2.14694c-1.72733,0.57301 -3.88162,-0.25386 -5.41013,0.7339c-2.43491,1.57348 -2.52804,5.3892 -7.12567,4.23806c-1.63835,-0.4102 -1.7033,-2.9179 -2.49836,-4.40797c-0.56566,-1.06014 -1.49628,-3.98303 -3.00463,-4.83008c-2.01858,-1.13359 -4.56877,-0.92924 -6.69706,-1.84034c-1.01385,-0.43402 -1.65625,-1.57832 -2.71308,-1.89356c-2.00486,-0.59801 -4.18339,0.10727 -6.27554,0.10727c0,0 -2.5,0 -2.5,-2.5c0,-2.5 2.5,-2.5 2.5,-2.5c1.23993,0 7.2541,-0.0227 7.72446,0.10727c1.25432,0.34659 2.09103,1.59334 3.28692,2.10644c3.10032,1.3302 4.34447,0.31865 7.30294,2.15966c2.30094,1.43184 4.28376,4.73682 4.99537,7.16992c0.1561,0.53371 -1.04124,1.47166 -0.49836,1.59203c0.54699,0.12128 0.26353,-1.12347 0.60369,-1.56867c1.75582,-2.29803 3.24978,-2.97052 6.18452,-3.53436c0.87632,-0.16837 1.82995,0.35871 2.676,0.07499c1.01576,-0.34064 1.66861,-1.37238 2.62608,-1.85306c0.23852,-0.11975 6.47558,-2.18379 6.69792,-2.22193c0.98561,-0.16905 2.01311,0.16142 3,0c2.32593,-0.38045 4.50789,-1.38502 6.79412,-1.95764l2.60634,-0.07464c0,0 2.5,0 2.5,2.5z" fill="#000000" stroke="none" stroke-width="0.5" stroke-linecap="butt"/><path d="M242,43c0,-2.5 2.5,-2.5 2.5,-2.5h1c0.48002,0 6.14144,-0.00949 6.40046,0.03228c1.72442,0.27812 3.41947,0.8862 5.15815,0.96076c2.17588,0.00298 4.98598,0.03662 5.3981,0.19726c1.10045,0.42893 1.70361,1.6415 2.62826,2.37634c1.08882,0.86531 2.54693,1.31883 3.40179,2.41587c1.34444,1.72531 0.99584,4.3389 2.13986,6.20316c0.46283,0.75422 1.41699,1.11206 1.90148,1.85255c0.54766,0.83705 0.98183,1.73957 1.40179,2.65028c0.51722,-1.89732 1.50129,-3.7832 2.30777,-5.15702c1.31658,-2.24278 3.83792,-3.94287 6.00752,-5.19376c5.47819,-3.15849 11.37327,-5.00528 17.5206,-6.23576l2.95258,-0.97664c0,0 2.37467,-0.78163 3.1563,1.59304c0.78163,2.37467 -1.59304,3.1563 -1.59304,3.1563l-3.24161,1.0622c-5.7409,1.14723 -11.14479,2.81939 -16.2852,5.7254c-1.25638,0.71026 -3.49737,2.10216 -4.27857,3.52147c-1.27,2.30738 -1.13756,5.31711 -2.73045,7.41463c-0.06719,0.08848 -0.13584,0.17564 -0.20584,0.26159l0.04018,0.02678l-1.97849,2.96774c-0.44514,0.68925 -1.2201,1.14551 -2.10163,1.14551c-1.18975,0 -2.18539,-0.83109 -2.43804,-1.9444l-0.93753,-3.75012c-0.99549,-1.97907 -2.62536,-3.58183 -3.75106,-5.49116c-1.03065,-1.74812 -0.56125,-4.23766 -1.86014,-5.79684c-0.64924,-0.77935 -1.80923,-0.94662 -2.59821,-1.58413c-0.55109,-0.44529 -0.71843,-1.34945 -1.37174,-1.62366c-0.47897,-0.20103 -0.97861,-0.2858 -1.49095,-0.30087c-0.70745,0.49118 -1.55234,0.49118 -1.55234,0.49118c-0.64457,-0.00612 -1.27709,-0.03454 -1.90156,-0.07817c-0.36932,0.04686 -0.73637,0.07817 -1.09844,0.07817c0,0 -0.60923,0 -1.2262,-0.30075c-2.54651,-0.29479 -5.04079,-0.69925 -7.7738,-0.69925h-1c0,0 -2.5,0 -2.5,-2.5z" fill="#000000" stroke="none" stroke-width="0.5" stroke-linecap="butt"/><path d="M-77.83333,374v-165h627v165z" fill="#7d7d7d" stroke="#000000" stroke-width="2" stroke-linecap="butt"/><path d="M13.5,292v-17h147v17z" fill="#ffffff" stroke="#000000" stroke-width="2" stroke-linecap="butt"/><path d="M206.5,290v-17h147v17z" fill="#ffffff" stroke="#000000" stroke-width="2" stroke-linecap="butt"/><path d="M386.5,290v-17h147v17z" fill="#ffffff" stroke="#000000" stroke-width="2" stroke-linecap="butt"/><path d="M195.03486,167.64536c-0.66979,-9.08806 6.15456,-16.99834 15.2426,-17.66813c9.08806,-0.66979 16.99834,6.15456 17.66813,15.2426c0.66979,9.08806 -6.15456,16.99834 -15.2426,17.66813c-9.08806,0.66979 -16.99834,-6.15456 -17.66813,-15.2426z" fill="#000000" stroke="#00ff08" stroke-width="2" stroke-linecap="butt"/><path d="M222.47022,170.27447l0.43379,-7.71944" fill="none" stroke="#00ff08" stroke-width="2" stroke-linecap="round"/><path d="M218.4844,161.54381l-0.71722,8.4088" fill="none" stroke="#00ff08" stroke-width="2" stroke-linecap="round"/><path d="M215.53093,157.75063l4.89905,2.98131" fill="none" stroke="#00ff08" stroke-width="2" stroke-linecap="round"/><path d="M210.81709,185.48484c6.17457,0.69186 9.89627,12.7097 8.31268,26.84257c-1.5836,14.13288 -7.87284,25.02899 -14.04738,24.33713c-6.17457,-0.69186 -9.89627,-12.7097 -8.31268,-26.84257c1.5836,-14.13288 7.87284,-25.02899 14.04738,-24.33713z" fill="#000000" stroke="#00ff08" stroke-width="2" stroke-linecap="butt"/><path d="M173.0296,207.93358c0.92831,-5.44427 6.09431,-9.10517 11.53859,-8.17686c5.44427,0.92831 9.10517,6.09431 8.17686,11.53859c-0.92831,5.44427 -6.09431,9.10517 -11.53859,8.17686c-5.44427,-0.92831 -9.10517,-6.09431 -8.17686,-11.53859z" fill="#000000" stroke="#00ff08" stroke-width="2" stroke-linecap="butt"/><path d="M222.89615,220.81178c0.92831,-5.44427 6.09431,-9.10517 11.53859,-8.17686c5.44427,0.92831 9.10517,6.09431 8.17686,11.53859c-0.92831,5.44427 -6.09431,9.10517 -11.53859,8.17686c-5.44427,-0.92831 -9.10517,-6.09431 -8.17686,-11.53859z" fill="#000000" stroke="#00ff08" stroke-width="2" stroke-linecap="butt"/><path d="M210.69723,255.67601c0.75743,-3.80507 5.79914,-6.2805 11.26096,-5.52904c5.46182,0.75146 9.27548,4.44526 8.51804,8.25034c-0.75743,3.80507 -5.79914,6.2805 -11.26096,5.52904c-5.46182,-0.75146 -9.27548,-4.44526 -8.51804,-8.25034z" fill="#000000" stroke="#00ff08" stroke-width="2" stroke-linecap="butt"/><path d="M184.22871,254.70502c0.78586,-3.7993 5.84594,-6.23696 11.30199,-5.44468c5.45605,0.79228 9.24198,4.51449 8.45611,8.3138c-0.78586,3.7993 -5.84594,6.23696 -11.30199,5.44468c-5.45605,-0.79228 -9.24198,-4.51449 -8.45611,-8.3138z" fill="#000000" stroke="#00ff08" stroke-width="2" stroke-linecap="butt"/><g><path d="M310.72856,251.73118c-11.50814,2.3016 -21.77025,-0.49719 -22.92107,-6.25126c-1.15081,-5.75406 7.24549,-12.2845 18.75363,-14.5861c11.50814,-2.3016 21.77025,0.49719 22.92107,6.25126c1.15081,5.75406 -7.24549,12.2845 -18.75363,14.5861z" fill="#ff0000" stroke="#000000" stroke-width="2" stroke-linecap="butt"/><path d="M296.93795,211.36231c4.13015,0.31488 7.22304,3.91829 6.90817,8.04842c-0.31488,4.13015 -3.91829,7.22304 -8.04842,6.90817c-4.13015,-0.31488 -7.22304,-3.91829 -6.90817,-8.04842c0.31488,-4.13015 3.91829,-7.22304 8.04842,-6.90817z" fill="#ff0000" stroke="#000000" stroke-width="2" stroke-linecap="butt"/><path d="M304.54331,260.82023c4.4055,0.33588 7.70457,4.17952 7.36871,8.585c-0.33588,4.4055 -4.17952,7.70457 -8.585,7.36871c-4.4055,-0.33588 -7.70457,-4.17952 -7.36871,-8.585c0.33588,-4.4055 4.17952,-7.70457 8.585,-7.36871z" fill="#ff0000" stroke="#000000" stroke-width="2" stroke-linecap="butt"/><path d="M265.2235,241.67378c-2.79301,0.45892 -5.72866,-3.25562 -6.55695,-8.29664c-0.8283,-5.04106 0.7644,-9.49963 3.55741,-9.95856c2.79301,-0.45892 5.72866,3.25562 6.55695,8.29664c0.8283,5.04106 -0.7644,9.49963 -3.55741,9.95856z" fill="#ff0000" stroke="#000000" stroke-width="2" stroke-linecap="butt"/><path d="M272.04005,257.96694c1.07361,5.48786 -0.41775,10.39867 -3.33107,10.9686c-2.91329,0.56995 -6.14534,-3.41682 -7.21894,-8.90467c-1.07361,-5.48786 0.41775,-10.39867 3.33107,-10.9686c2.91329,-0.56995 6.14534,3.41682 7.21894,8.90467z" fill="#ff0000" stroke="#000000" stroke-width="2" stroke-linecap="butt"/><g><path d="M337.33101,233.42427c0.75844,-8.24949 8.06082,-14.32217 16.3103,-13.56371c8.24949,0.75844 14.32217,8.06082 13.56371,16.3103c-0.75844,8.24949 -8.06082,14.32217 -16.3103,13.56371c-8.24949,-0.75844 -14.32217,-8.06082 -13.56371,-16.3103z" fill="#c19f67" stroke="#000000" stroke-width="2" stroke-linecap="butt"/><path d="M351.73081,228.54993c1.11728,-0.44311 2.5182,-0.65356 3.48884,-0.69508c-0.07834,-0.90075 -0.1133,-1.80132 -0.0392,-2.70074l0.18312,-1.99161c0,0 0.22888,-2.4895 2.71838,-2.26063c1.8813,0.17295 2.2102,1.6369 2.25863,2.34187c0.01209,0.00093 0.02421,0.00198 0.03634,0.00308c0.6322,0.05812 1.1877,0.34683 1.59106,0.77547l1.82302,1.91698l-0.02075,0.01974c0.81154,0.62776 1.48108,1.47625 2.07051,2.87938c0.76183,1.81353 1.49232,5.46938 0.5599,7.99349c-0.54163,3.46621 -2.4122,6.8587 -3.80778,9.82051c0,0 -0.59011,1.25197 -1.82371,1.45376c-0.32116,0.45999 -0.86236,0.85299 -1.7706,0.94935c-2.48605,0.26379 -2.74984,-2.22224 -2.74984,-2.22224c-0.29081,-2.7654 -1.12895,-5.46793 -1.26748,-8.24515c-0.07585,-1.52047 0.29953,-3.03399 0.51778,-4.5484c-1.70626,-0.53408 -3.05448,-1.19477 -4.2514,-2.53273c-0.42291,-0.47274 -1.43233,-0.77841 -1.29207,-1.39702c0.14632,-0.64547 0.77699,-1.13093 1.5901,-1.48325c0.05863,-0.03153 0.12064,-0.05734 0.1852,-0.07676z" fill="#000000" stroke="none" stroke-width="0.5" stroke-linecap="butt"/><path d="M353.2721,243.18013l-5.02478,0.04012" fill="none" stroke="#ffffff" stroke-width="2" stroke-linecap="round"/><path d="M352.50268,237.70625l-4.50397,-0.16304" fill="none" stroke="#ffffff" stroke-width="2" stroke-linecap="round"/><path d="M345.80394,236.83931l1.92576,-1.83138" fill="none" stroke="#ffffff" stroke-width="1" stroke-linecap="round"/><path d="M345.64338,244.23613l2.08032,1.94864" fill="none" stroke="#ffffff" stroke-width="1" stroke-linecap="round"/><path d="M346.23035,240.39327c-0.11376,1.23742 -1.04194,2.16369 -2.07312,2.06889c-1.03118,-0.09481 -1.77491,-1.1748 -1.66113,-2.41222c0.11375,-1.23742 0.13767,-3.25103 1.16886,-3.15623c1.03117,0.0948 2.67914,2.26216 2.56539,3.49955z" fill="#000000" stroke="none" stroke-width="0" stroke-linecap="butt"/></g></g><path d="M209.83333,174.29167l6.66667,0.33333" fill="#00ff08" stroke="#00ff08" stroke-width="1.5" stroke-linecap="round"/></g></g></svg>