<svg version="1.1" xmlns="http://www.w3.org/2000/svg" xmlns:xlink="http://www.w3.org/1999/xlink" width="536.03603" height="586.21775" viewBox="0,0,536.03603,586.21775"><g transform="translate(41.042,131.91492)"><g data-paper-data="{&quot;isPaintingLayer&quot;:true}" fill-rule="nonzero" stroke-linejoin="miter" stroke-miterlimit="10" stroke-dasharray="" stroke-dashoffset="0" style="mix-blend-mode: normal"><path d="M-41.042,454.30282v-564.41442h536.03603v564.41442z" fill="#6b6b6b" stroke="none" stroke-width="0" stroke-linecap="butt"/><text transform="translate(31.48051,-17.88185) scale(2.62145,2.62145)" font-size="40" xml:space="preserve" fill="#000000" fill-rule="nonzero" stroke="none" stroke-width="1" stroke-linecap="butt" stroke-linejoin="miter" stroke-miterlimit="10" stroke-dasharray="" stroke-dashoffset="0" font-family="Sans Serif" font-weight="normal" text-anchor="start" style="mix-blend-mode: normal"><tspan x="0" dy="0">LA JAEL</tspan></text><path d="M-3.20418,110.35173v-65.95882h63.24455v65.95882z" fill="#8a8a8a" stroke="none" stroke-width="0" stroke-linecap="butt"/><path d="M72.38076,121.61301v-69.17631h53.98926v69.17631z" fill="#8a8a8a" stroke="none" stroke-width="0" stroke-linecap="butt"/><path d="M146.42315,123.22175v-74.00257h64.78708v74.00257z" fill="#8a8a8a" stroke="none" stroke-width="0" stroke-linecap="butt"/><path d="M234.32287,120.85173v-65.95882h63.24455v65.95882z" fill="#8a8a8a" stroke="none" stroke-width="0" stroke-linecap="butt"/><path d="M309.9078,132.113v-69.17631h53.98926v69.17631z" fill="#8a8a8a" stroke="none" stroke-width="0" stroke-linecap="butt"/><path d="M383.95019,133.72175v-74.00257h64.7871v74.00257z" fill="#8a8a8a" stroke="none" stroke-width="0" stroke-linecap="butt"/><path d="M0.98952,237.5184v-65.95882h63.24455v65.95882z" fill="#8a8a8a" stroke="none" stroke-width="0" stroke-linecap="butt"/><path d="M76.57446,248.77966v-69.17631h53.98926v69.17631z" fill="#8a8a8a" stroke="none" stroke-width="0" stroke-linecap="butt"/><path d="M150.61685,250.3884v-74.00257h64.78708v74.00257z" fill="#8a8a8a" stroke="none" stroke-width="0" stroke-linecap="butt"/><path d="M228.00604,249.51991v-65.95882h63.24455v65.95882z" fill="#8a8a8a" stroke="none" stroke-width="0" stroke-linecap="butt"/><path d="M392.64839,254.88241v-74.00257h64.78708v74.00257z" fill="#8a8a8a" stroke="none" stroke-width="0" stroke-linecap="butt"/><path d="M-4.27625,367.83822v-65.95882h63.24455v65.95882z" fill="#8a8a8a" stroke="none" stroke-width="0" stroke-linecap="butt"/><path d="M71.30869,379.09949v-69.17631h53.98924v69.17631z" fill="#8a8a8a" stroke="none" stroke-width="0" stroke-linecap="butt"/><path d="M308.83573,389.59949v-69.17631h53.98926v69.17631z" fill="#8a8a8a" stroke="none" stroke-width="0" stroke-linecap="butt"/><path d="M382.87811,391.20821v-74.00257h64.7871v74.00257z" fill="#8a8a8a" stroke="none" stroke-width="0" stroke-linecap="butt"/><path d="M306.82736,254.12417v-70h66.5v70z" fill="#515151" stroke="none" stroke-width="0" stroke-linecap="butt"/><path d="M358.74131,203.65064c4.30312,0 7.79148,3.64514 7.79148,8.14165c0,4.49652 -3.48836,8.14165 -7.79148,8.14165c-4.30312,0 -7.79148,-3.64514 -7.79148,-8.14165c0,-4.49652 3.48836,-8.14165 7.79148,-8.14165z" data-paper-data="{&quot;index&quot;:null}" fill="#d29460" stroke="#000000" stroke-width="1" stroke-linecap="butt"/><path d="M358.69004,222.96491c2.90869,-0.02325 5.30533,4.79684 5.35304,10.76598c0.04772,5.96914 -2.27157,10.82693 -5.18026,10.85018c-2.90869,0.02325 -5.30533,-4.79684 -5.35304,-10.76598c-0.04772,-5.96914 2.27157,-10.82693 5.18026,-10.85018z" data-paper-data="{&quot;index&quot;:null}" fill="#ff0000" stroke="#000000" stroke-width="1" stroke-linecap="butt"/><path d="M370.63435,215.30903c2.04879,0 3.70967,1.60977 3.70967,3.59553c0,1.98575 -1.66088,3.59553 -3.70967,3.59553c-2.04879,0 -3.70967,-1.60978 -3.70967,-3.59553c0,-1.98575 1.66088,-3.59553 3.70967,-3.59553z" data-paper-data="{&quot;index&quot;:null}" fill="#ff0000" stroke="#000000" stroke-width="1" stroke-linecap="butt"/><path d="M348.68979,235.77765c2.04879,0 3.70967,1.60978 3.70967,3.59553c0,1.98575 -1.66088,3.59553 -3.70967,3.59553c-2.04879,0 -3.70967,-1.60978 -3.70967,-3.59553c0,-1.98575 1.66088,-3.59553 3.70967,-3.59553z" data-paper-data="{&quot;index&quot;:null}" fill="#ff0000" stroke="#000000" stroke-width="1" stroke-linecap="butt"/><path d="M362.3434,248.28337c2.30173,0 4.16766,1.08675 4.16766,2.42732c0,1.34057 -1.86592,2.42732 -4.16766,2.42732c-2.30173,0 -4.16766,-1.08675 -4.16766,-2.42732c0,-1.34057 1.86592,-2.42732 4.16766,-2.42732z" data-paper-data="{&quot;index&quot;:null}" fill="#ff0000" stroke="#000000" stroke-width="1" stroke-linecap="butt"/><path d="M351.38276,248.13944c2.30173,0 4.16766,1.08674 4.16766,2.42731c0,1.34057 -1.86592,2.42731 -4.16766,2.42731c-2.30173,0 -4.16766,-1.08674 -4.16766,-2.42731c0,-1.34057 1.86592,-2.42731 4.16766,-2.42731z" data-paper-data="{&quot;index&quot;:null}" fill="#ff0000" stroke="#000000" stroke-width="1" stroke-linecap="butt"/><path d="M358.01073,203.26543c0.68,-0.00972 2.73566,-0.34504 3.28895,0.15878c0.45203,0.41162 3.7649,1.04808 3.90695,2.05658c0.17198,-0.02468 0.31133,-0.0004 0.40365,0.0909c0.33869,0.33496 -0.52445,0.61459 -0.76509,0.73906c-0.94903,0.4909 -1.91944,1.2662 -2.9487,1.62783c-1.25793,0.44197 -0.73098,-0.86912 -0.8489,-0.87718c-0.80112,-0.05475 -1.88927,0.3429 -2.73579,0.35941c-1.64895,0.03216 -3.20036,-0.07462 -4.84245,-0.09715c-0.20841,-0.00286 -1.27565,0.03103 -1.43108,-0.17073c-0.11144,-0.04878 -0.1862,-0.13876 -0.1862,-0.2417c0,-0.1394 0.13712,-0.25504 0.31677,-0.27678c0.52019,-1.776 3.48971,-3.33542 5.84189,-3.36904z" fill="#000000" stroke="none" stroke-width="0.5" stroke-linecap="butt"/><path d="M360.16909,212.80544c-0.63066,0 -0.63066,-0.63066 -0.63066,-0.63066l0.00553,-0.14189c-0.13049,-0.9802 -0.23077,-1.88587 -0.23077,-2.87629c0,0 0,-0.63066 0.63066,-0.63066c0.63066,0 0.63066,0.63066 0.63066,0.63066c0,0.9367 0.09585,1.7821 0.2197,2.70958l0.00553,0.30858c0,0 0,0.63066 -0.63066,0.63066z" fill="#000000" stroke="none" stroke-width="0.5" stroke-linecap="butt"/><path d="M363.4441,215.0281c0,0.63066 -0.63066,0.63066 -0.63066,0.63066l-0.54045,-0.0016c-0.69641,-0.05701 -1.17565,0.09259 -1.84929,0.29131c0,0 -0.60504,0.17795 -0.78299,-0.42709c-0.17795,-0.60504 0.42709,-0.78299 0.42709,-0.78299c0.81306,-0.23847 1.44778,-0.39313 2.29506,-0.33935l0.45059,-0.0016c0,0 0.63066,0 0.63066,0.63066z" fill="#000000" stroke="none" stroke-width="0.5" stroke-linecap="butt"/><path d="M362.76909,213.00545c-0.63067,0 -0.63066,-0.63066 -0.63066,-0.63066l0.00554,-0.14189c-0.13049,-0.98021 -0.23078,-1.88587 -0.23078,-2.87628c0,0 0,-0.63066 0.63067,-0.63066c0.63067,0 0.63067,0.63066 0.63067,0.63066c0,0.9367 0.09584,1.78211 0.2197,2.70959l0.00554,0.30858c0,0 0,0.63066 -0.63067,0.63066z" fill="#000000" stroke="none" stroke-width="0.5" stroke-linecap="butt"/><path d="M314.89363,211.62775c0,-3.79948 1.85194,-7.03592 6.26423,-7.03592c4.4123,0 6.17345,4.33091 6.17345,8.13039c0,2.03221 0.15787,3.31788 -0.79268,4.32759c-0.82663,0.87807 -2.60217,1.61385 -4.65448,1.61385c-4.4123,0 -6.99052,-3.23644 -6.99052,-7.03592z" fill="#000000" stroke="#00ff08" stroke-width="0.5" stroke-linecap="butt"/><path d="M324.05033,212.7493l0.11644,-4.92203" fill="none" stroke="#00ff08" stroke-width="1" stroke-linecap="round"/><path d="M321.71877,207.71185l0.27236,4.99323" fill="none" stroke="#00ff08" stroke-width="1" stroke-linecap="round"/><path d="M315.15759,232.87287c-0.12226,-4.82747 0.63352,-8.68889 5.0444,-8.80059c4.41088,-0.11171 5.67783,5.45324 5.80009,10.28071c0.03325,1.31298 0.06256,4.86988 -1.01871,6.91651c-1.04512,1.97819 -2.55047,2.36235 -3.55885,2.38789c-4.41088,0.11171 -6.14466,-5.95704 -6.26692,-10.78451z" fill="#000000" stroke="#00ff08" stroke-width="1" stroke-linecap="butt"/><path d="M307.1235,241.51197c0,-2.23122 1.80876,-4.03998 4.03998,-4.03998c2.23122,0 4.03998,1.80876 4.03998,4.03998c0,2.23122 -1.80876,4.03998 -4.03998,4.03998c-2.23122,0 -4.03998,-1.80876 -4.03998,-4.03998z" fill="#000000" stroke="#00ff08" stroke-width="1" stroke-linecap="butt"/><path d="M325.81521,251.66868c-0.03671,-1.27804 1.63997,-2.3631 3.74497,-2.42356c2.105,-0.06046 3.8412,0.92658 3.87791,2.20461c0.03671,1.27804 -1.63997,2.3631 -3.74497,2.42356c-2.105,0.06046 -3.8412,-0.92658 -3.87791,-2.20461z" fill="#000000" stroke="#00ff08" stroke-width="1" stroke-linecap="butt"/><path d="M329.02617,240.69325c0,-2.23122 1.80876,-4.03998 4.03998,-4.03998c2.23122,0 4.03998,1.80876 4.03998,4.03998c0,2.23122 -1.80876,4.03998 -4.03998,4.03998c-2.23122,0 -4.03998,-1.80876 -4.03998,-4.03998z" fill="#000000" stroke="#00ff08" stroke-width="1" stroke-linecap="butt"/><path d="M311.84684,251.07227c0.01294,-1.2785 1.73049,-2.29765 3.83625,-2.27633c2.10576,0.02131 3.80233,1.07502 3.78938,2.35352c-0.01294,1.2785 -1.73049,2.29765 -3.83625,2.27633c-2.10576,-0.02131 -3.80233,-1.07502 -3.78938,-2.35352z" fill="#000000" stroke="#00ff08" stroke-width="1" stroke-linecap="butt"/><path d="M324.77743,215.69476c0,0.63066 -0.63066,0.63066 -0.63066,0.63066l-0.54045,-0.0016c-0.69641,-0.05701 -1.17565,0.09259 -1.84929,0.29131c0,0 -0.60504,0.17795 -0.78299,-0.42709c-0.17795,-0.60504 0.42709,-0.78299 0.42709,-0.78299c0.81306,-0.23847 1.44778,-0.39313 2.29506,-0.33935l0.45059,-0.0016c0,0 0.63066,0 0.63066,0.63066z" fill="#00ff08" stroke="none" stroke-width="0.5" stroke-linecap="butt"/><g stroke="none" stroke-linecap="butt"><path d="M306.30639,254.92659v-70.56306h69.07658v70.56306z" fill="#c0c0c0" stroke-width="0"/><path d="M360.03035,197.43064c0,4.35139 -2.25515,4.35139 -2.25515,4.35139c-13.54443,0 -29.79774,0 -43.34217,0c0,0 -2.25515,0 -2.25515,-4.35139c0,-4.35139 2.25515,-4.35139 2.25515,-4.35139c13.54443,0 27.08885,0 40.63329,0h2.70888c0,0 2.25515,0 2.25515,4.35139z" fill="#474747" stroke-width="0.5"/><path d="M365.44811,215.72479c0,4.35139 -2.25515,4.35139 -2.25515,4.35139h-1.35444c-3.94908,0 -8.07344,-0.61419 -12.00428,-0.01478c-2.74215,0.41815 -5.39884,2.17639 -8.1402,2.61345c-9.79858,1.5622 -19.80427,-2.2065 -29.42294,2.49831c0,0 -2.18782,1.05537 -2.73477,-3.16611c-0.54695,-4.22147 1.64086,-5.27684 1.64086,-5.27684c9.93939,-4.73469 20.04917,-1.11893 30.14544,-2.72859c2.74137,-0.43705 5.39812,-2.19357 8.1402,-2.61345c4.05374,-0.62071 8.30262,-0.01478 12.37569,-0.01478h1.35444c0,0 2.25515,0 2.25515,4.35139z" fill="#474747" stroke-width="0.5"/><path d="M362.73924,236.63251c0,4.35139 -2.25515,4.35139 -2.25515,4.35139h-1.35444c-4.90356,0 -10.33531,-1.1673 -15.17875,0.27599c-1.4991,0.44671 -2.88832,1.91167 -4.39184,2.29902c-1.52811,0.39366 -3.08817,-0.21146 -4.62502,0.02387c-5.79869,0.88793 -11.70373,3.60739 -17.47318,5.19771c0,0 -2.23248,0.61538 -2.55141,-3.69227c-0.31892,-4.30765 1.91356,-4.92304 1.91356,-4.92304c5.86095,-1.61557 11.85114,-4.34159 17.74233,-5.25606c1.46048,-0.22671 2.94337,0.39964 4.39557,0.02387c1.47678,-0.38213 2.83794,-1.85023 4.31144,-2.27682c5.08703,-1.47276 10.71025,-0.37505 15.85731,-0.37505h1.35444c0,0 2.25515,0 2.25515,4.35139z" fill="#474747" stroke-width="0.5"/></g></g></g></svg>