<svg version="1.1" xmlns="http://www.w3.org/2000/svg" xmlns:xlink="http://www.w3.org/1999/xlink" width="692.16488" height="596.24474" viewBox="0,0,692.16488,596.24474"><g transform="translate(150.66485,83.40991)"><g data-paper-data="{&quot;isPaintingLayer&quot;:true}" fill-rule="nonzero" stroke-linecap="butt" stroke-linejoin="miter" stroke-miterlimit="10" stroke-dasharray="" stroke-dashoffset="0" style="mix-blend-mode: normal"><path d="M-45.49997,512.83483v-273h585v273z" fill="#8c8c8c" stroke="none" stroke-width="0"/><path d="M-43.49997,239.5v-273h585v273z" fill="#ababab" stroke="none" stroke-width="0"/><path d="M182.50004,166.5v-93h110v93z" fill="#00d9ff" stroke="none" stroke-width="0"/><g fill="#a7a7a7" stroke="none" stroke-width="0"><path d="M193.50004,167.5v-93h12v93z"/><path d="M217.50004,167.5v-93h12v93z"/><path d="M239.50004,167.5v-93h12v93z"/><path d="M263.50004,167.5v-93h12v93z"/></g><path d="M197.50004,167.5v-93h12v93z" fill="#cecece" stroke="none" stroke-width="0"/><path d="M221.50004,167.5v-93h12v93z" fill="#cecece" stroke="none" stroke-width="0"/><path d="M243.50004,167.5v-93h12v93z" fill="#cecece" stroke="none" stroke-width="0"/><path d="M267.50004,167.5v-93h12v93z" fill="#cecece" stroke="none" stroke-width="0"/><path d="M413.50004,412.5v-91h65v91z" fill="#9f9f9f" stroke="none" stroke-width="0"/><path d="" fill="#000000" stroke="none" stroke-width="0.5"/><path d="M276.76214,232.27706c7.69326,0 13.92988,12.79863 13.92988,28.58653c0,15.7879 -6.23662,28.58653 -13.92988,28.58653c-7.69326,0 -13.92988,-12.79863 -13.92988,-28.58653c0,-15.7879 6.23662,-28.58653 13.92988,-28.58653z" data-paper-data="{&quot;index&quot;:null}" fill="#ff0000" stroke="#000000" stroke-width="5"/><path d="M246.44536,265.68468c5.41873,0 9.81148,4.25759 9.81148,9.50959c0,5.252 -4.39275,9.50959 -9.81148,9.50959c-5.41873,0 -9.81148,-4.25759 -9.81148,-9.50959c0,-5.252 4.39275,-9.50959 9.81148,-9.50959z" data-paper-data="{&quot;index&quot;:null}" fill="#ff0000" stroke="#000000" stroke-width="5"/><path d="M289.94534,299.25216c6.08771,0 11.02277,2.87427 11.02277,6.41986c0,3.54559 -4.93506,6.41986 -11.02277,6.41986c-6.08771,0 -11.02277,-2.87427 -11.02277,-6.41986c0,-3.54559 4.93506,-6.41986 11.02277,-6.41986z" data-paper-data="{&quot;index&quot;:null}" fill="#ff0000" stroke="#000000" stroke-width="5"/><path d="M259.76775,300.55998c6.08771,0 11.02277,2.87426 11.02277,6.41985c0,3.54559 -4.93506,6.41985 -11.02277,6.41985c-6.0877,0 -11.02277,-2.87426 -11.02277,-6.41985c0,-3.54559 4.93506,-6.41985 11.02277,-6.41985z" data-paper-data="{&quot;index&quot;:null}" fill="#ff0000" stroke="#000000" stroke-width="5"/><path d="M-143.06152,451.03904v-481.89639l186.62162,-52.55256c0,0 11.37615,271.22744 14.92661,355.87674c1.96947,46.95554 4.59291,109.50315 4.59291,109.50315z" fill="#9f9f9f" stroke="none" stroke-width="0"/><path d="M-127.17312,387.96116l-23.49173,-364.80954l188.75097,-13.62629l23.49173,364.80954z" fill="#b5b5b5" stroke="none" stroke-width="0"/><g stroke="none" stroke-width="0"><g fill="#a7a7a7"><path d="M-80.97898,385.47452l-23.38326,-363.12507l18.45203,-1.33209l23.38326,363.12507z"/><path d="M-44.07493,382.81034l-23.38326,-363.12507l18.45203,-1.33209l23.38326,363.12507z"/><path d="M-10.24621,380.36819l-23.38326,-363.12507l18.45203,-1.33209l23.38326,363.12507z"/><path d="M26.65786,377.70401l-23.38326,-363.12507l18.45203,-1.33209l23.38326,363.12507z"/></g><path d="M-74.82831,385.03049l-23.38326,-363.12507l18.45203,-1.33209l23.38326,363.12507z" fill="#cecece"/><path d="M-37.92425,382.36632l-23.38326,-363.12507l18.45203,-1.33209l23.38326,363.12507z" fill="#cecece"/><path d="M-4.09555,379.92416l-23.38326,-363.12507l18.45203,-1.33209l23.38326,363.12507z" fill="#cecece"/><path d="M32.8085,377.25999l-23.38326,-363.12507l18.45203,-1.33209l23.38326,363.12507z" fill="#cecece"/></g><g><g fill="#7c7c7c" stroke="none"><path d="M199.62047,306.91916l22.34945,-56.25885l11.25177,4.46992l-22.34945,56.25885z" stroke-width="0"/><path d="M233.11141,255.31733c-1.03493,2.60516 -4.43042,3.70145 -7.58404,2.44866c-3.15362,-1.25281 -4.87116,-4.38031 -3.83622,-6.98548c1.03493,-2.60516 4.43041,-3.70146 7.58404,-2.44866c3.15362,1.25281 4.87116,4.38031 3.83622,6.98548z" stroke-width="0"/><path d="M219.14552,328.09852c-1.35484,3.41045 -2.04758,-0.03799 -4.64391,-0.74713c-3.61446,-0.98718 -8.93283,-3.06545 -14.51852,-5.2844c-5.61839,-2.23196 -11.41143,-4.83544 -14.14252,-6.39705c-1.93446,-1.1061 -2.79616,2.00349 -1.45237,-1.37915c3.24095,-8.15827 13.64896,-11.68088 23.24693,-7.86799c9.59796,3.8129 14.75134,13.51744 11.51036,21.6757z" stroke-width="0"/><path d="M218.32228,328.538c-0.10453,0.26314 -0.25396,0.42216 -0.4145,0.51494c-1.03965,0.98326 -1.61926,2.2161 -2.59067,3.26368c-1.06825,1.15201 -2.47846,1.51823 -3.38939,2.83912c-1.05354,1.52765 -1.30076,3.19113 -2.69422,4.6349c-1.70384,4.46332 -5.22487,3.61232 -9.09229,4.28599c-2.72479,0.47464 -4.27723,2.63719 -7.2819,2.66107c-4.78086,0.03799 -7.26126,-5.74699 -7.59802,-9.68916c0.35236,-2.54107 -0.59828,-4.48335 -1.1774,-6.82318c-0.37699,-1.52316 -0.08835,-3.04278 -0.04037,-4.56681c0.10498,-3.33562 -0.35279,-6.65931 -0.07825,-9.99714c-0.24364,-0.14661 -0.70005,-0.52871 -0.42248,-1.22739c0.26255,-0.66089 0.80836,-0.66509 1.10179,-0.61237c0.14579,-0.06234 0.32805,-0.09105 0.55548,-0.06059c0.46395,0.06215 0.68165,0.31239 0.78195,0.56102c6.60108,2.56626 13.47177,4.78187 20.15922,7.43854c3.61124,1.4346 7.93242,2.0093 10.58323,5.09543l0.19225,0.07105c0.20552,-0.20588 0.54321,-0.38254 1.04269,-0.18413c0.92935,0.36919 0.56016,1.29855 0.56016,1.29855l-0.12306,0.23337c-0.01314,0.08219 -0.03712,0.16986 -0.07419,0.26318z" stroke-width="0.5"/><path d="M231.61881,228.68456l-0.15047,-0.05978c-3.17768,0.66282 -5.97232,2.85782 -7.26045,6.10032c-2.039,5.13267 0.4689,10.94646 5.60157,12.98547c5.13267,2.039 10.94646,-0.4689 12.98547,-5.60157c1.3579,-3.41817 0.6992,-7.13841 -1.40834,-9.84466c-2.83108,-1.56382 -6.57421,-2.08201 -9.4454,-3.7264c-0.09486,0.01508 -0.18944,0.0315 -0.2837,0.04929zM224.52595,249.71633c-0.95151,-1.03903 -1.71223,-1.47733 -2.32461,-2.85887c0,0 -0.28316,-0.6564 0.18432,-1.09861c-0.08319,-0.20788 -0.17488,-0.40334 -0.28209,-0.57763c-2.73056,-4.43938 -1.51234,-9.00263 -0.62541,-13.92566c0.85995,-2.02555 0.8932,-4.37332 2.00099,-6.49728c0.27743,-0.53189 0.34307,-1.40795 0.92778,-1.54208c1.45046,-0.33275 4.94628,1.64981 6.34141,2.20404c5.1755,2.05603 10.35102,4.11206 15.52655,6.16808c0.28224,0.11213 2.76924,1.03977 2.94022,1.35304c1.26699,2.32138 -1.33731,5.32773 -1.66384,7.50018c-0.95948,6.38383 -5.07414,10.6655 -10.95961,13.2266c-2.26498,1.38199 -3.47204,1.88669 -6.10104,1.57832c-2.89798,-0.06086 -4.07294,-3.46441 -5.96463,-5.53007z" stroke-width="0.5"/></g><path d="M239.57384,245.03419c-2.39512,4.86067 -8.15585,6.91913 -12.86696,4.5977c-4.71111,-2.32143 -6.58858,-8.14365 -4.19347,-13.00433c2.39512,-4.86067 8.15585,-6.91913 12.86696,-4.5977c4.71111,2.32143 6.58858,8.14365 4.19347,13.00433z" data-paper-data="{&quot;index&quot;:null}" fill="#ff0000" stroke="#000000" stroke-width="5"/></g><path d="M414.50004,323.5v-163h65v163z" fill="#595959" stroke="none" stroke-width="0"/><path d="M284.3479,184.90964c11.38105,0 20.60719,9.64081 20.60719,21.53336c0,11.89255 -9.22615,21.53336 -20.60719,21.53336c-11.38105,0 -20.6072,-9.64081 -20.6072,-21.53336c0,-11.89255 9.22616,-21.53336 20.6072,-21.53336z" data-paper-data="{&quot;index&quot;:null}" fill="#d29460" stroke="#000000" stroke-width="2"/><path d="M282.0932,185.0562c1.7985,-0.03466 7.23539,-1.23033 8.69874,0.56618c1.19553,1.46772 9.95755,3.73715 10.33325,7.33322c0.45485,-0.088 0.82342,-0.00141 1.06758,0.32413c0.89578,1.19438 -1.38708,2.19145 -2.02353,2.63529c-2.51002,1.75042 -5.07661,4.51493 -7.79883,5.8044c-3.32701,1.57595 -1.93333,-3.09904 -2.24521,-3.12778c-2.11883,-0.19523 -4.99681,1.22268 -7.23571,1.28156c-4.36122,0.11469 -8.46442,-0.26607 -12.80749,-0.34641c-0.55121,-0.0102 -3.3739,0.11064 -3.78499,-0.60877c-0.29474,-0.17395 -0.49247,-0.49479 -0.49247,-0.86182c0,-0.49706 0.36266,-0.90942 0.83781,-0.98691c1.37581,-6.33275 9.22971,-11.89321 15.45085,-12.01309z" fill="#000000" stroke="none" stroke-width="0.5"/><path d="M269.40927,215.81836c-1.529,0 -1.529,-1.668 -1.529,-1.668l0.01536,-0.00239c-0.32867,-2.52058 -0.34301,-4.96093 -0.34301,-7.50361c0,0 0,-1.668 1.529,-1.668c1.529,0 1.529,1.668 1.529,1.668c0,2.38598 0.00134,4.66817 0.31227,7.03182l0.01536,0.47418c0,0 0,1.668 -1.529,1.668z" fill="#000000" stroke="none" stroke-width="0.5"/><path d="M273.7426,215.48503c-1.529,0 -1.529,-1.668 -1.529,-1.668l0.01536,-0.00239c-0.32867,-2.52058 -0.34301,-4.96093 -0.34301,-7.50361c0,0 0,-1.668 1.529,-1.668c1.529,0 1.529,1.668 1.529,1.668c0,2.38598 0.00134,4.66817 0.31227,7.03182l0.01536,0.47418c0,0 0,1.668 -1.529,1.668z" fill="#000000" stroke="none" stroke-width="0.5"/></g></g></svg>