<svg version="1.1" xmlns="http://www.w3.org/2000/svg" xmlns:xlink="http://www.w3.org/1999/xlink" width="585" height="613.04043" viewBox="0,0,585,613.04043"><g transform="translate(41.49996,26.70559)"><g data-paper-data="{&quot;isPaintingLayer&quot;:true}" fill-rule="nonzero" stroke-linecap="butt" stroke-linejoin="miter" stroke-miterlimit="10" stroke-dasharray="" stroke-dashoffset="0" style="mix-blend-mode: normal"><path d="M-22.76273,406.72684v-432.43243h545.04505v432.43243z" fill="#cbcbcb" stroke="#ffffff" stroke-width="2"/><path d="M-41.49996,586.33484v-273h585v273z" fill="#8c8c8c" stroke="none" stroke-width="0"/><path d="M183.4223,312.35542v-172h57v172z" fill="#636363" stroke="#ffffff" stroke-width="2"/><path d="M240.4223,312.35542v-172h57v172z" fill="#636363" stroke="#ffffff" stroke-width="2"/><path d="M169.4223,225.85542c0,5.79899 -4.70101,10.5 -10.5,10.5c-5.79899,0 -10.5,-4.70101 -10.5,-10.5c0,-5.79899 4.70101,-10.5 10.5,-10.5c5.79899,0 10.5,4.70101 10.5,10.5z" fill="#595959" stroke="#ffffff" stroke-width="2"/><path d="M164.68036,225.6083c0.6551,0.25069 1.01011,0.48078 1.12705,1.7333c0.2324,2.48918 -2.25678,2.72157 -2.25678,2.72157l-3.09254,-1.23306c-0.65175,-1.20714 -0.90191,-2.59286 -1.27657,-3.91256c-0.05,-0.17612 -0.19884,0.31018 -0.32548,0.4424c-0.46457,0.48502 -0.96711,0.93224 -1.44408,1.40507c-0.59427,0.5891 -1.17968,1.18707 -1.76952,1.78061c0,0 -1.76346,1.77206 -3.53552,0.0086c-1.77206,-1.76346 -0.0086,-3.53552 -0.0086,-3.53552c2.44448,-2.45325 5.52823,-6.57029 9.78059,-4.31115c1.53791,0.81704 2.18862,3.16238 2.80146,4.90076z" fill="#ffffff" stroke="none" stroke-width="0.5"/><path d="M158.9223,264.02209c-5.79899,0 -10.5,-4.70101 -10.5,-10.5c0,-5.79899 4.70101,-10.5 10.5,-10.5c5.79899,0 10.5,4.70101 10.5,10.5c0,5.79899 -4.70101,10.5 -10.5,10.5z" data-paper-data="{&quot;index&quot;:null}" fill="#595959" stroke="#ffffff" stroke-width="2"/><path d="M161.87891,258.66997c-4.25235,2.25914 -7.3361,-1.85789 -9.78058,-4.31114c0,0 -1.76346,-1.77206 0.0086,-3.53552c1.77206,-1.76346 3.53553,0.0086 3.53553,0.0086c0.58984,0.59354 1.17525,1.19151 1.76952,1.78061c0.47697,0.47283 0.97951,0.92005 1.44408,1.40507c0.12663,0.13221 0.27548,0.61851 0.32548,0.4424c0.37465,-1.3197 0.62481,-2.70542 1.27657,-3.91256l3.09254,-1.23306c0,0 2.48917,0.23239 2.25678,2.72157c-0.11694,1.25252 -0.47195,1.48261 -1.12705,1.73329c-0.61283,1.73837 -1.26354,4.08371 -2.80146,4.90076z" data-paper-data="{&quot;index&quot;:null}" fill="#ffffff" stroke="none" stroke-width="0.5"/><text transform="translate(26.52556,328.83604) scale(0.54647,0.54647)" font-size="40" xml:space="preserve" fill="#ffffff" fill-rule="nonzero" stroke="#000000" stroke-width="1" stroke-linecap="butt" stroke-linejoin="miter" stroke-miterlimit="10" stroke-dasharray="" stroke-dashoffset="0" font-family="Sans Serif" font-weight="normal" text-anchor="start" style="mix-blend-mode: normal"><tspan x="0" dy="0">I'm telling you man, I saw someone break </tspan><tspan x="0" dy="46.15px">out of their cell with a shovel!</tspan></text></g></g></svg>