<svg version="1.1" xmlns="http://www.w3.org/2000/svg" xmlns:xlink="http://www.w3.org/1999/xlink" width="629.62763" height="444.94293" viewBox="0,0,629.62763,444.94293"><g transform="translate(67.30631,26.70565)"><g data-paper-data="{&quot;isPaintingLayer&quot;:true}" fill-rule="nonzero" stroke-linecap="butt" stroke-linejoin="miter" stroke-miterlimit="10" stroke-dasharray="" stroke-dashoffset="0" style="mix-blend-mode: normal"><path d="M-22.76276,406.72678v-432.43243h545.04505v432.43243z" fill="#d6d6d6" stroke="#000000" stroke-width="2"/><path d="M-66.30631,417.23728v-177.17718h627.62763v177.17718z" fill="#949494" stroke="#000000" stroke-width="2"/><path d="M182.94294,155.976v-114.11411h132.13213v114.11411z" fill="#98d7ff" stroke="#000000" stroke-width="2"/><path d="M200.96099,157.4775v-112.61261h10.51051v112.61261z" fill="#848484" stroke="#000000" stroke-width="2"/><path d="M220.48049,157.4775v-115.61562h10.51051v115.61562z" fill="#848484" stroke="#000000" stroke-width="2"/><path d="M241.50152,157.4775v-112.61261h10.51051v112.61261z" fill="#848484" stroke="#000000" stroke-width="2"/><path d="M265.52554,157.4775v-114.11411h7.50751v114.11411z" fill="#848484" stroke="#000000" stroke-width="2"/><path d="M285.2675,158.97901v-114.11411h10.56612v114.11411z" fill="#848484" stroke="#000000" stroke-width="2"/><path d="M306.78042,166.749c11.38105,0 20.60719,9.64081 20.60719,21.53336c0,11.89255 -9.22615,21.53336 -20.60719,21.53336c-11.38105,0 -20.6072,-9.64081 -20.6072,-21.53336c0,-11.89255 9.22616,-21.53336 20.6072,-21.53336z" data-paper-data="{&quot;index&quot;:null}" fill="#d29460" stroke="#000000" stroke-width="2"/><path d="M278.48893,252.72222c5.41873,0 9.81148,4.25759 9.81148,9.50959c0,5.252 -4.39275,9.50959 -9.81148,9.50959c-5.41873,0 -9.81148,-4.25759 -9.81148,-9.50959c0,-5.252 4.39275,-9.50959 9.81148,-9.50959z" data-paper-data="{&quot;index&quot;:null}" fill="#ff0000" stroke="#000000" stroke-width="5"/><path d="M309.412,222.20932c7.66462,-0.6632 14.98133,11.55014 16.34234,27.27927c1.36101,15.72913 -3.74908,29.01774 -11.4137,29.68094c-7.66462,0.6632 -14.98133,-11.55014 -16.34235,-27.27927c-1.36101,-15.72913 3.74908,-29.01774 11.41371,-29.68094z" data-paper-data="{&quot;index&quot;:null}" fill="#ff0000" stroke="#000000" stroke-width="5"/><path d="M341.38391,297.41883c6.08771,0 11.02277,2.87427 11.02277,6.41986c0,3.54559 -4.93506,6.41986 -11.02277,6.41986c-6.08771,0 -11.02277,-2.87427 -11.02277,-6.41986c0,-3.54559 4.93506,-6.41986 11.02277,-6.41986z" data-paper-data="{&quot;index&quot;:null}" fill="#ff0000" stroke="#000000" stroke-width="5"/><path d="M308.02457,298.38731c6.08771,0 11.02277,2.87426 11.02277,6.41985c0,3.54559 -4.93506,6.41985 -11.02277,6.41985c-6.0877,0 -11.02277,-2.87426 -11.02277,-6.41985c0,-3.54559 4.93506,-6.41985 11.02277,-6.41985z" data-paper-data="{&quot;index&quot;:null}" fill="#ff0000" stroke="#000000" stroke-width="5"/><path d="M303.5257,166.89708c1.7985,-0.03466 7.23539,-1.23033 8.69874,0.56618c1.19553,1.46772 9.95755,3.73715 10.33325,7.33322c0.45485,-0.088 0.82342,-0.00141 1.06758,0.32413c0.89578,1.19438 -1.38708,2.19145 -2.02353,2.63529c-2.51002,1.75042 -5.07661,4.51493 -7.79883,5.8044c-3.32701,1.57595 -1.93333,-3.09904 -2.24521,-3.12778c-2.11883,-0.19523 -4.99681,1.22268 -7.23571,1.28156c-4.36122,0.11469 -8.46442,-0.26607 -12.80749,-0.34641c-0.55121,-0.0102 -3.3739,0.11064 -3.78499,-0.60877c-0.29474,-0.17395 -0.49247,-0.49479 -0.49247,-0.86182c0,-0.49706 0.36266,-0.90942 0.83781,-0.98691c1.37581,-6.33275 9.22971,-11.89321 15.45085,-12.01309z" fill="#000000" stroke="none" stroke-width="0.5"/><g fill="#000000" stroke="none" stroke-width="0.5"><path d="M292.04276,194.1358c-1.668,0 -1.668,-1.668 -1.668,-1.668l0.01463,-0.37527c-0.34511,-2.59248 -0.61035,-4.98782 -0.61035,-7.60731c0,0 0,-1.668 1.668,-1.668c1.668,0 1.668,1.668 1.668,1.668c0,2.47742 0.25351,4.71337 0.58108,7.16641l0.01463,0.81616c0,0 0,1.668 -1.668,1.668z"/><path d="M297.52335,193.65925c-1.668,0 -1.668,-1.668 -1.668,-1.668l0.01676,-0.00239c-0.35855,-2.52058 -0.37419,-4.96093 -0.37419,-7.50361c0,0 0,-1.668 1.668,-1.668c1.668,0 1.668,1.668 1.668,1.668c0,2.38598 0.00146,4.66817 0.34066,7.03182l0.01676,0.47418c0,0 0,1.668 -1.668,1.668z"/><path d="M304.67193,200.8078c0,1.668 -1.668,1.668 -1.668,1.668l-1.42941,-0.00424c-1.8419,-0.15079 -3.1094,0.24488 -4.89108,0.77046c0,0 -1.60022,0.47065 -2.07088,-1.12957c-0.47065,-1.60022 1.12957,-2.07088 1.12957,-2.07088c2.15042,-0.63072 3.82916,-1.03976 6.07006,-0.89754l1.19173,-0.00424c0,0 1.668,0 1.668,1.668z"/></g><g><path d="M316.88859,240.39374c1.86919,5.08614 -0.61179,10.67792 -5.54143,12.4896c-4.92964,1.81168 -10.44118,-0.8428 -12.31037,-5.92893c-1.86919,-5.08614 0.61179,-10.67792 5.54143,-12.4896c4.92964,-1.81168 10.44118,0.8428 12.31037,5.92893z" data-paper-data="{&quot;index&quot;:null}" fill="#ff0000" stroke="#000000" stroke-width="5"/><g fill="#7c7c7c" stroke="none"><path d="M277.77503,313.86185l20.45852,-56.97373l11.39476,4.09171l-20.45852,56.97373z" stroke-width="0"/><path d="M309.52435,261.17053c-0.94737,2.63827 -4.30435,3.84733 -7.49805,2.70052c-3.19368,-1.14681 -5.01469,-4.21521 -4.06733,-6.85348c0.94737,-2.63827 4.30436,-3.84732 7.49805,-2.70052c3.19368,1.14681 5.01469,4.21521 4.06733,6.85348z" stroke-width="0"/><path d="M297.99636,334.37744c-1.24021,3.45379 -2.04771,0.03039 -4.66627,-0.59164c-3.6454,-0.86596 -9.03021,-2.76546 -14.68687,-4.79669c-5.68978,-2.04312 -11.56654,-4.45173 -14.34823,-5.92127c-1.97032,-1.0409 -2.7277,2.09574 -1.49761,-1.32987c2.96676,-8.26194 13.25132,-12.1301 22.97126,-8.63981c9.71993,3.4903 15.19446,13.01736 12.22771,21.27929z" stroke-width="0"/><path d="M297.18827,334.84415c-0.09568,0.26647 -0.23972,0.43041 -0.39707,0.5285c-1.00624,1.01743 -1.54436,2.26892 -2.48026,3.34836c-1.02919,1.18703 -2.42637,1.60014 -3.2927,2.95071c-1.00194,1.56197 -1.19348,3.23278 -2.53797,4.72227c-1.55386,4.51771 -5.10134,3.78475 -8.94411,4.58719c-2.70743,0.56534 -4.18678,2.77854 -7.18899,2.90272c-4.77691,0.1976 -7.4491,-5.50134 -7.91731,-9.43005c0.26732,-2.55141 -0.74765,-4.46089 -1.40457,-6.78006c-0.42762,-1.50971 -0.18989,-3.03812 -0.19284,-4.56293c-0.00645,-3.33726 -0.57495,-6.64382 -0.412,-9.98895c-0.2484,-0.13841 -0.71731,-0.50504 -0.46323,-1.21261c0.24033,-0.66928 0.78571,-0.69172 1.08073,-0.64884c0.14364,-0.06717 0.32483,-0.10195 0.55315,-0.07909c0.46577,0.04661 0.69169,0.28945 0.80026,0.53458c6.68308,2.34441 13.62392,4.32938 20.39633,6.76128c3.65711,1.31322 7.99509,1.74331 10.74746,4.73921l0.19453,0.06459c0.19853,-0.21263 0.53013,-0.40046 1.03596,-0.21883c0.94117,0.33796 0.60321,1.27912 0.60321,1.27912l-0.1152,0.23733c-0.01039,0.08258 -0.03143,0.17101 -0.06537,0.2655z" stroke-width="0.5"/><path d="M307.14331,234.60245l-0.15239,-0.05472c-3.15379,0.76855 -5.87357,3.05563 -7.05272,6.33936c-1.8665,5.19789 0.83413,10.9247 6.03204,12.7912c5.19789,1.8665 10.9247,-0.83413 12.7912,-6.03204c1.24301,-3.4616 0.46048,-7.15779 -1.73625,-9.79215c-2.88171,-1.46842 -6.64007,-1.86135 -9.56455,-3.40894c-0.09431,0.01824 -0.18829,0.03782 -0.2819,0.05873zM300.75664,255.85928c-0.98568,-1.00667 -1.7606,-1.41934 -2.41878,-2.77966c0,0 -0.30491,-0.64657 0.14753,-1.10417c-0.09009,-0.205 -0.18825,-0.39727 -0.30123,-0.5679c-2.87726,-4.34573 -1.8121,-8.94712 -1.09002,-13.89701c0.79184,-2.05313 0.74666,-4.40072 1.78292,-6.56047c0.2595,-0.54085 0.29586,-1.41861 0.87576,-1.57221c1.43854,-0.381 4.99861,1.48373 6.41147,1.99106c5.24127,1.88208 10.48255,3.76416 15.72384,5.64622c0.28584,0.10264 2.80241,0.94672 2.98375,1.25411c1.3438,2.27778 -1.15868,5.36941 -1.41247,7.55155c-0.7458,6.41232 -4.7152,10.82897 -10.51187,13.58515c-2.21755,1.45685 -3.40712,2.00157 -6.04495,1.78115c-2.8984,0.03593 -4.18634,-3.32648 -6.14595,-5.32783z" stroke-width="0.5"/></g></g></g></g></svg>