<svg version="1.1" xmlns="http://www.w3.org/2000/svg" xmlns:xlink="http://www.w3.org/1999/xlink" width="585" height="613.0404" viewBox="0,0,585,613.0404"><g transform="translate(41.49996,26.70555)"><g data-paper-data="{&quot;isPaintingLayer&quot;:true}" fill-rule="nonzero" stroke-linecap="butt" stroke-linejoin="miter" stroke-miterlimit="10" stroke-dasharray="" stroke-dashoffset="0" style="mix-blend-mode: normal"><path d="M-22.76272,406.72689v-432.43243h545.04505v432.43243z" fill="#cbcbcb" stroke="#ffffff" stroke-width="2"/><path d="M-41.49996,586.33485v-279.00601h585v279.00601z" fill="#8c8c8c" stroke="none" stroke-width="0"/><path d="M60.29918,313.85695v-172h57v172z" fill="#636363" stroke="#000000" stroke-width="0.5"/><path d="M115.79768,315.35846v-172h57v172z" fill="#636363" stroke="#000000" stroke-width="0.5"/><path d="M115.11416,249.68477c0,5.39017 -4.36959,9.75976 -9.75976,9.75976c-5.39017,0 -9.75976,-4.36959 -9.75976,-9.75976c0,-5.39017 4.36959,-9.75976 9.75976,-9.75976c5.39017,0 9.75976,4.36959 9.75976,9.75976z" fill="#c4c4c4" stroke="#000000" stroke-width="0.5"/><path d="M126.37542,241.42651c4.56091,0 8.25826,4.03347 8.25826,9.00901c0,4.97554 -3.69735,9.00901 -8.25826,9.00901c-4.56091,0 -8.25826,-4.03347 -8.25826,-9.00901c0,-4.97554 3.69735,-9.00901 8.25826,-9.00901z" fill="#c4c4c4" stroke="#000000" stroke-width="0.5"/><path d="M211.21026,354.03912v-40.54054h76.57658v40.54054z" fill="#c0c0c0" stroke="none" stroke-width="0"/><path d="M270.76731,321.00606c0,2.5 -2.5,2.5 -2.5,2.5c-15.01502,0 -33.03303,0 -48.04805,0c0,0 -2.5,0 -2.5,-2.5c0,-2.5 2.5,-2.5 2.5,-2.5c15.01502,0 30.03003,0 45.04505,0h3.003c0,0 2.5,0 2.5,2.5z" fill="#474747" stroke="none" stroke-width="0.5"/><path d="M276.77332,331.5166c0,2.5 -2.5,2.5 -2.5,2.5h-1.5015c-4.37785,0 -8.95001,-0.35287 -13.30765,-0.00849c-3.03988,0.24024 -5.98502,1.2504 -9.02402,1.5015c-10.86246,0.89753 -21.95452,-1.2677 -32.61754,1.43535c0,0 -2.42536,0.60634 -3.0317,-1.81902c-0.60634,-2.42536 1.81902,-3.0317 1.81902,-3.0317c11.01856,-2.72022 22.22601,-0.64286 33.41849,-1.56765c3.03901,-0.2511 5.98422,-1.26027 9.02402,-1.5015c4.49388,-0.35662 9.20408,-0.00849 13.71938,-0.00849h1.5015c0,0 2.5,0 2.5,2.5z" fill="#474747" stroke="none" stroke-width="0.5"/><path d="M273.77032,343.52863c0,2.5 -2.5,2.5 -2.5,2.5h-1.5015c-5.43596,0 -11.45747,-0.67065 -16.82679,0.15857c-1.66186,0.25665 -3.20192,1.09831 -4.86869,1.32085c-1.69403,0.22617 -3.42347,-0.12149 -5.12718,0.01371c-6.42828,0.51014 -12.97446,2.07255 -19.37033,2.98624c0,0 -2.47487,0.35355 -2.82843,-2.12132c-0.35355,-2.47487 2.12132,-2.82843 2.12132,-2.82843c6.4973,-0.92819 13.13788,-2.49437 19.66871,-3.01976c1.61905,-0.13025 3.26295,0.2296 4.87282,0.01371c1.63712,-0.21954 3.14607,-1.06301 4.77956,-1.3081c5.63935,-0.84614 11.87312,-0.21548 17.57902,-0.21548h1.5015c0,0 2.5,0 2.5,2.5z" fill="#474747" stroke="none" stroke-width="0.5"/><path d="M370.09633,198.33441c6.47523,13.64985 1.135,29.73866 -11.92777,35.93539c-13.06275,6.19672 -28.90141,0.15478 -35.37664,-13.49507c-6.47523,-13.64984 -1.135,-29.73865 11.92777,-35.93538c13.06275,-6.19672 28.90141,-0.15478 35.37664,13.49507z" data-paper-data="{&quot;index&quot;:null}" fill="#d29460" stroke="#000000" stroke-width="2"/><path d="M414.77416,312.51392c0,6.67194 -5.58038,12.08062 -12.46413,12.08062c-6.88375,0 -12.46413,-5.40868 -12.46413,-12.08062c0,-6.67194 5.58038,-12.08062 12.46413,-12.08062c6.88375,0 12.46413,5.40868 12.46413,12.08062z" data-paper-data="{&quot;index&quot;:null}" fill="#ff0000" stroke="#000000" stroke-width="5"/><path d="M386.37311,277.26729c5.76171,20.0808 2.50009,38.63551 -7.28503,41.44314c-9.78514,2.80761 -22.38836,-11.19504 -28.15007,-31.27584c-5.76172,-20.0808 -2.5001,-38.6355 7.28502,-41.44313c9.78515,-2.80762 22.38837,11.19504 28.15008,31.27583z" data-paper-data="{&quot;index&quot;:null}" fill="#ff0000" stroke="#000000" stroke-width="5"/><path d="M398.41337,338.40608c-0.01168,4.50417 -6.29045,8.13925 -14.02402,8.11919c-7.73357,-0.02006 -13.99338,-3.68769 -13.9817,-8.19186c0.01168,-4.50417 6.29045,-8.13925 14.02402,-8.11919c7.73357,0.02006 13.99338,3.68769 13.9817,8.19186z" data-paper-data="{&quot;index&quot;:null}" fill="#ff0000" stroke="#000000" stroke-width="5"/><path d="M446.79199,332.60004c0,4.50418 -6.26933,8.15553 -14.00291,8.15553c-7.7336,0 -14.00291,-3.65135 -14.00291,-8.15553c0,-4.50418 6.26931,-8.15553 14.00291,-8.15553c7.7336,0 14.00291,3.65135 14.00291,8.15553z" data-paper-data="{&quot;index&quot;:null}" fill="#ff0000" stroke="#000000" stroke-width="5"/><path d="M338.53598,183.23717c7.20567,-3.24968 19.24765,-1.14385 24.2748,5.37555c0.58755,-0.16977 1.22831,0.10606 1.49895,0.67657c0.19984,0.42127 0.14758,0.89717 -0.096,1.25731c-0.08014,1.04954 -3.3857,2.44773 -4.01281,2.75957c-4.94108,2.45692 -9.44326,5.12804 -14.51137,7.37099c-2.60179,1.15145 -6.67705,1.09102 -9.00268,2.46875c-0.34231,0.2028 3.80273,4.80976 -0.87397,4.81242c-3.82656,0.00218 -8.27762,-1.77337 -12.11159,-2.4158c-0.97217,-0.16289 -4.13522,-0.06432 -3.75739,-1.92292c0.10299,-0.50658 0.47888,-0.80665 1.04885,-0.95329c-1.52676,-4.33201 7.29431,-11.70749 7.86737,-14.04304c0.70143,-2.85872 7.59271,-4.44664 9.67584,-5.38611z" data-paper-data="{&quot;index&quot;:null}" fill="#000000" stroke="none" stroke-width="0.5"/><path d="M328.77694,310.29751c6.63813,-0.67089 12.58053,4.33734 13.27272,11.1862c0.6922,6.84885 -4.12794,12.94482 -10.76606,13.61571c-6.63813,0.67089 -12.58053,-4.33734 -13.27272,-11.1862c-0.6922,-6.84885 4.12794,-12.94482 10.76606,-13.61571z" data-paper-data="{&quot;index&quot;:null}" fill="#ff0000" stroke="#000000" stroke-width="5"/><path d="M340.06565,223.62274c-1.91447,0.90819 -2.82265,-1.00629 -2.82265,-1.00629l-0.42758,-0.94472c-0.95965,-2.99386 -1.88611,-5.69824 -3.23501,-8.54174c0,0 -0.90819,-1.91447 1.00628,-2.82265c1.91447,-0.90819 2.82265,1.00628 2.82265,1.00628c1.42626,3.00655 2.42602,5.90027 3.44147,9.06373l0.22112,0.42275c0,0 0.90819,1.91447 -1.00628,2.82266z" fill="#000000" stroke="none" stroke-width="0.5"/><path d="M331.70879,226.91704c-1.91447,0.90819 -2.82265,-1.00628 -2.82265,-1.00628l-0.23895,-0.55338c-0.89763,-2.8976 -2.13856,-5.51781 -3.43768,-8.25635c0,0 -0.90819,-1.91447 1.00628,-2.82265c1.91447,-0.90819 2.82265,1.00628 2.82265,1.00628c1.38443,2.9184 2.6952,5.72786 3.65607,8.81612l0.02053,-0.00638c0,0 0.90819,1.91447 -1.00628,2.82265z" fill="#000000" stroke="none" stroke-width="0.5"/><text transform="translate(38.53758,130.31542) scale(0.5,0.5)" font-size="40" xml:space="preserve" fill="#ff0000" fill-rule="nonzero" stroke="none" stroke-width="1" stroke-linecap="butt" stroke-linejoin="miter" stroke-miterlimit="10" stroke-dasharray="" stroke-dashoffset="0" font-family="Sans Serif" font-weight="normal" text-anchor="start" style="mix-blend-mode: normal"><tspan x="0" dy="0">EMERGANCY EXIT</tspan></text><path d="M356.87172,222.93401c0.79057,2.37171 -1.58114,3.16228 -1.58114,3.16228l-3,1c-1.81849,0.60616 -3.83916,0.75777 -5.47624,1.75492c-1.79848,1.09546 -3.17911,2.77986 -4.92758,3.9535c0,0 -2.08013,1.38675 -3.46688,-0.69338c-1.38675,-2.08013 0.69338,-3.46688 0.69338,-3.46688c1.80398,-1.19324 3.21234,-2.94274 5.07242,-4.0465c0.34753,-0.20622 5.87046,-2.02732 6.52376,-2.24508l3,-1c0,0 2.37171,-0.79057 3.16228,1.58114z" fill="#000000" stroke="none" stroke-width="0.5"/></g></g></svg>