<svg version="1.1" xmlns="http://www.w3.org/2000/svg" xmlns:xlink="http://www.w3.org/1999/xlink" width="692.16488" height="595.74474" viewBox="0,0,692.16488,595.74474"><g transform="translate(150.66485,83.40991)"><g data-paper-data="{&quot;isPaintingLayer&quot;:true}" fill-rule="nonzero" stroke-linecap="butt" stroke-linejoin="miter" stroke-miterlimit="10" stroke-dasharray="" stroke-dashoffset="0" style="mix-blend-mode: normal"><path d="M-45.49997,512.33483v-273h585v273z" fill="#8c8c8c" stroke="none" stroke-width="0"/><path d="M-43.49997,239.5v-273h585v273z" fill="#ababab" stroke="none" stroke-width="0"/><path d="M182.50004,166.5v-93h110v93z" fill="#00d9ff" stroke="none" stroke-width="0"/><g fill="#a7a7a7" stroke="none" stroke-width="0"><path d="M193.50004,167.5v-93h12v93z"/><path d="M217.50004,167.5v-93h12v93z"/><path d="M239.50004,167.5v-93h12v93z"/><path d="M263.50004,167.5v-93h12v93z"/></g><path d="M197.50004,167.5v-93h12v93z" fill="#cecece" stroke="none" stroke-width="0"/><path d="M221.50004,167.5v-93h12v93z" fill="#cecece" stroke="none" stroke-width="0"/><path d="M243.50004,167.5v-93h12v93z" fill="#cecece" stroke="none" stroke-width="0"/><path d="M267.50004,167.5v-93h12v93z" fill="#cecece" stroke="none" stroke-width="0"/><path d="M413.50004,412.5v-91h65v91z" fill="#9f9f9f" stroke="none" stroke-width="0"/><path d="" fill="#000000" stroke="none" stroke-width="0.5"/><path d="M276.76214,232.27706c7.69326,0 13.92988,12.79863 13.92988,28.58653c0,15.7879 -6.23662,28.58653 -13.92988,28.58653c-7.69326,0 -13.92988,-12.79863 -13.92988,-28.58653c0,-15.7879 6.23662,-28.58653 13.92988,-28.58653z" data-paper-data="{&quot;index&quot;:null}" fill="#ff0000" stroke="#000000" stroke-width="5"/><path d="M248.94536,267.18468c5.41873,0 9.81148,4.25759 9.81148,9.50959c0,5.252 -4.39275,9.50959 -9.81148,9.50959c-5.41873,0 -9.81148,-4.25759 -9.81148,-9.50959c0,-5.252 4.39275,-9.50959 9.81148,-9.50959z" data-paper-data="{&quot;index&quot;:null}" fill="#ff0000" stroke="#000000" stroke-width="5"/><path d="M299.94534,299.75216c6.08771,0 11.02277,2.87427 11.02277,6.41986c0,3.54559 -4.93506,6.41986 -11.02277,6.41986c-6.08771,0 -11.02277,-2.87427 -11.02277,-6.41986c0,-3.54559 4.93506,-6.41986 11.02277,-6.41986z" data-paper-data="{&quot;index&quot;:null}" fill="#ff0000" stroke="#000000" stroke-width="5"/><path d="M263.26775,301.05998c6.08771,0 11.02277,2.87426 11.02277,6.41985c0,3.54559 -4.93506,6.41985 -11.02277,6.41985c-6.0877,0 -11.02277,-2.87426 -11.02277,-6.41985c0,-3.54559 4.93506,-6.41985 11.02277,-6.41985z" data-paper-data="{&quot;index&quot;:null}" fill="#ff0000" stroke="#000000" stroke-width="5"/><path d="M-143.06152,451.03904v-481.89639l186.62162,-52.55256c0,0 11.37615,271.22744 14.92661,355.87674c1.96947,46.95554 4.59291,109.50315 4.59291,109.50315z" fill="#9f9f9f" stroke="none" stroke-width="0"/><path d="M-127.17312,387.96116l-23.49173,-364.80954l188.75097,-13.62629l23.49173,364.80954z" fill="#b5b5b5" stroke="none" stroke-width="0"/><g stroke="none" stroke-width="0"><g fill="#a7a7a7"><path d="M-80.97898,385.47452l-23.38326,-363.12507l18.45203,-1.33209l23.38326,363.12507z"/><path d="M-44.07493,382.81034l-23.38326,-363.12507l18.45203,-1.33209l23.38326,363.12507z"/><path d="M-10.24621,380.36819l-23.38326,-363.12507l18.45203,-1.33209l23.38326,363.12507z"/><path d="M26.65786,377.70401l-23.38326,-363.12507l18.45203,-1.33209l23.38326,363.12507z"/></g><path d="M-74.82831,385.03049l-23.38326,-363.12507l18.45203,-1.33209l23.38326,363.12507z" fill="#cecece"/><path d="M-37.92425,382.36632l-23.38326,-363.12507l18.45203,-1.33209l23.38326,363.12507z" fill="#cecece"/><path d="M-4.09555,379.92416l-23.38326,-363.12507l18.45203,-1.33209l23.38326,363.12507z" fill="#cecece"/><path d="M32.8085,377.25999l-23.38326,-363.12507l18.45203,-1.33209l23.38326,363.12507z" fill="#cecece"/></g><g><g fill="#7c7c7c" stroke="none"><path d="M353.40072,292.32113l-46.34745,-38.94186l7.78839,-9.26949l46.34745,38.94186z" stroke-width="0"/><path d="M314.98447,244.2734c2.1462,1.80327 2.11644,5.37123 -0.06646,7.96926c-2.18291,2.59802 -5.69234,3.24231 -7.83853,1.43904c-2.1462,-1.80327 -2.11643,-5.37122 0.06646,-7.96926c2.18291,-2.59802 5.69234,-3.24231 7.83853,-1.43904z" stroke-width="0"/><path d="M379.65448,280.46647c2.80962,2.36068 -0.6814,1.93124 -2.1727,4.17175c-2.07607,3.1191 -5.72464,7.5114 -9.59098,12.11303c-3.889,4.62857 -8.18562,9.30581 -10.52841,11.40551c-1.65942,1.48725 1.0201,3.2851 -1.76661,0.94367c-6.72099,-5.64708 -6.7837,-16.63486 -0.14008,-24.54191c6.64363,-7.90705 17.47779,-9.73912 24.19877,-4.09203z" stroke-width="0"/><path d="M379.81209,281.38626c0.21678,0.18213 0.3206,0.37407 0.35806,0.55568c0.60547,1.29656 1.59279,2.2352 2.28082,3.48727c0.75661,1.37689 0.6597,2.83065 1.62616,4.11147c1.11774,1.48132 2.61852,2.24024 3.54951,4.01772c3.69883,3.02373 1.78145,6.09709 1.20186,9.97973c-0.40835,2.73551 1.15469,4.89041 0.23035,7.74947c-1.47076,4.54916 -7.74267,5.07985 -11.59005,4.15697c-2.30049,-1.13529 -4.44342,-0.84526 -6.84651,-1.03312c-1.56434,-0.1223 -2.91554,-0.87517 -4.34678,-1.40104c-3.13252,-1.15094 -6.4311,-1.76406 -9.51228,-3.07661c-0.21594,0.18501 -0.7224,0.49773 -1.298,0.0141c-0.54445,-0.45746 -0.37641,-0.97679 -0.23391,-1.23864c-0.01321,-0.15801 0.017,-0.34003 0.11758,-0.54627c0.20521,-0.42073 0.5113,-0.54845 0.77887,-0.56528c4.51597,-5.45581 8.78415,-11.27801 13.41314,-16.7873c2.49966,-2.97503 4.407,-6.89484 8.17132,-8.43787l0.12801,-0.16007c-0.13061,-0.25993 -0.19184,-0.63609 0.15389,-1.04758c0.64329,-0.76563 1.40892,-0.12234 1.40892,-0.12234l0.18268,0.19033c0.07386,0.03838 0.14951,0.08877 0.22638,0.15336z" stroke-width="0.5"/><path d="M289.23866,237.29589l-0.10416,0.12396c-0.37249,3.22463 0.82982,6.56865 3.50108,8.8131c4.22842,3.55278 10.53634,3.00508 14.08913,-1.22335c3.55278,-4.22842 3.00508,-10.53634 -1.22335,-14.08913c-2.81597,-2.36603 -6.55422,-2.91344 -9.78678,-1.76626c-2.37641,2.19391 -4.04794,5.58294 -6.51345,7.78952c-0.01559,0.09478 -0.02981,0.18972 -0.04265,0.28478zM306.96299,250.65597c-1.28596,0.57554 -1.9417,1.15934 -3.44583,1.30508c0,0 -0.71219,0.06184 -0.98453,-0.52119c-0.22351,0.01343 -0.4379,0.03885 -0.6371,0.08566c-5.07373,1.1922 -9.02045,-1.40216 -13.41302,-3.79552c-1.65128,-1.45452 -3.86892,-2.22604 -5.53547,-3.9468c-0.41734,-0.43092 -1.22806,-0.76933 -1.17107,-1.36652c0.14136,-1.48141 3.12467,-4.1742 4.09037,-5.32354c3.58244,-4.26371 7.16489,-8.52743 10.74733,-12.79116c0.19537,-0.23252 1.85958,-2.30038 2.21077,-2.36392c2.6024,-0.47077 4.6347,2.94834 6.59351,3.94292c5.75606,2.92262 8.52265,8.17705 9.09825,14.56975c0.59769,2.5851 0.69622,3.88972 -0.42504,6.28754c-0.97114,2.73109 -4.57153,2.77345 -7.12813,3.91767z" stroke-width="0.5"/></g><path d="M307.26225,234.89934c3.85804,3.80502 3.99594,9.92092 0.308,13.66026c-3.68794,3.73934 -9.80517,3.68608 -13.66321,-0.11893c-3.85804,-3.80502 -3.99594,-9.92092 -0.308,-13.66026c3.68794,-3.73934 9.80517,-3.68608 13.66321,0.11893z" data-paper-data="{&quot;index&quot;:null}" fill="#ff0000" stroke="#000000" stroke-width="5"/></g><path d="M414.50004,323.5v-163h65v163z" fill="#595959" stroke="none" stroke-width="0"/><g><path d="M284.3479,184.90964c11.38105,0 20.60719,9.64081 20.60719,21.53336c0,11.89255 -9.22615,21.53336 -20.60719,21.53336c-11.38105,0 -20.6072,-9.64081 -20.6072,-21.53336c0,-11.89255 9.22616,-21.53336 20.6072,-21.53336z" data-paper-data="{&quot;index&quot;:null}" fill="#d29460" stroke="#000000" stroke-width="2"/><path d="M282.0932,185.0562c1.7985,-0.03466 7.23539,-1.23033 8.69874,0.56618c1.19553,1.46772 9.95755,3.73715 10.33325,7.33322c0.45485,-0.088 0.82342,-0.00141 1.06758,0.32413c0.89578,1.19438 -1.38708,2.19145 -2.02353,2.63529c-2.51002,1.75042 -5.07661,4.51493 -7.79883,5.8044c-3.32701,1.57595 -1.93333,-3.09904 -2.24521,-3.12778c-2.11883,-0.19523 -4.99681,1.22268 -7.23571,1.28156c-4.36122,0.11469 -8.46442,-0.26607 -12.80749,-0.34641c-0.55121,-0.0102 -3.3739,0.11064 -3.78499,-0.60877c-0.29474,-0.17395 -0.49247,-0.49479 -0.49247,-0.86182c0,-0.49706 0.36266,-0.90942 0.83781,-0.98691c1.37581,-6.33275 9.22971,-11.89321 15.45085,-12.01309z" fill="#000000" stroke="none" stroke-width="0.5"/><path d="M298.90927,217.81836c-1.529,0 -1.529,-1.668 -1.529,-1.668l0.01536,-0.00239c-0.32867,-2.52058 -0.34301,-4.96093 -0.34301,-7.50361c0,0 0,-1.668 1.529,-1.668c1.529,0 1.529,1.668 1.529,1.668c0,2.38598 0.00134,4.66817 0.31227,7.03182l0.01536,0.47418c0,0 0,1.668 -1.529,1.668z" fill="#000000" stroke="none" stroke-width="0.5"/><path d="M294.2426,217.48503c-1.529,0 -1.529,-1.668 -1.529,-1.668l0.01536,-0.00239c-0.32867,-2.52058 -0.34301,-4.96093 -0.34301,-7.50361c0,0 0,-1.668 1.529,-1.668c1.529,0 1.529,1.668 1.529,1.668c0,2.38598 0.00134,4.66817 0.31227,7.03182l0.01536,0.47418c0,0 0,1.668 -1.529,1.668z" fill="#000000" stroke="none" stroke-width="0.5"/></g></g></g></svg>