<svg version="1.1" xmlns="http://www.w3.org/2000/svg" xmlns:xlink="http://www.w3.org/1999/xlink" width="585" height="613.04027" viewBox="0,0,585,613.04027"><g transform="translate(41.49997,26.70542)"><g data-paper-data="{&quot;isPaintingLayer&quot;:true}" fill-rule="nonzero" stroke-linecap="butt" stroke-linejoin="miter" stroke-miterlimit="10" stroke-dasharray="" stroke-dashoffset="0" style="mix-blend-mode: normal"><path d="M-22.76267,406.72702v-432.43243h545.04505v432.43243z" fill="#cbcbcb" stroke="#ffffff" stroke-width="2"/><path d="M-41.49997,586.33485v-279.00601h585v279.00601z" fill="#8c8c8c" stroke="none" stroke-width="0"/><path d="M60.29923,313.85705v-172h57v172z" fill="#636363" stroke="#000000" stroke-width="0.5"/><path d="M115.79773,315.35848v-172h57v172z" fill="#636363" stroke="#000000" stroke-width="0.5"/><path d="M115.11421,249.68486c0,5.39017 -4.36959,9.75976 -9.75976,9.75976c-5.39017,0 -9.75976,-4.36959 -9.75976,-9.75976c0,-5.39017 4.36959,-9.75976 9.75976,-9.75976c5.39017,0 9.75976,4.36959 9.75976,9.75976z" fill="#c4c4c4" stroke="#000000" stroke-width="0.5"/><path d="M126.37547,241.42664c4.56091,0 8.25826,4.03347 8.25826,9.00901c0,4.97554 -3.69735,9.00901 -8.25826,9.00901c-4.56091,0 -8.25826,-4.03347 -8.25826,-9.00901c0,-4.97554 3.69735,-9.00901 8.25826,-9.00901z" fill="#c4c4c4" stroke="#000000" stroke-width="0.5"/><path d="M371.09638,199.83451c6.47523,13.64985 1.135,29.73866 -11.92777,35.93539c-13.06275,6.19672 -28.90141,0.15478 -35.37664,-13.49507c-6.47523,-13.64984 -1.135,-29.73865 11.92777,-35.93538c13.06275,-6.19672 28.90141,-0.15478 35.37664,13.49507z" data-paper-data="{&quot;index&quot;:null}" fill="#d29460" stroke="#000000" stroke-width="2"/><path d="M404.27421,310.51401c0,6.67194 -5.58038,12.08062 -12.46413,12.08062c-6.88375,0 -12.46413,-5.40868 -12.46413,-12.08062c0,-6.67194 5.58038,-12.08062 12.46413,-12.08062c6.88375,0 12.46413,5.40868 12.46413,12.08062z" data-paper-data="{&quot;index&quot;:null}" fill="#ff0000" stroke="#000000" stroke-width="5"/><path d="M376.46193,279.1984c2.43973,20.74809 -3.77848,38.5315 -13.88877,39.72037c-10.1103,1.18885 -20.28413,-14.66703 -22.72386,-35.41512c-2.43975,-20.7481 3.77846,-38.53149 13.88876,-39.72036c10.11032,-1.18886 20.28415,14.66702 22.72388,35.41511z" data-paper-data="{&quot;index&quot;:null}" fill="#ff0000" stroke="#000000" stroke-width="5"/><path d="M339.16342,344.65618c-0.01168,4.50417 -6.29045,8.13925 -14.02402,8.11919c-7.73357,-0.02006 -13.99338,-3.68769 -13.9817,-8.19186c0.01168,-4.50417 6.29045,-8.13925 14.02402,-8.11919c7.73357,0.02006 13.99338,3.68769 13.9817,8.19186z" data-paper-data="{&quot;index&quot;:null}" fill="#ff0000" stroke="#000000" stroke-width="5"/><path d="M411.29204,345.60014c0,4.50418 -6.26933,8.15553 -14.00291,8.15553c-7.7336,0 -14.00291,-3.65135 -14.00291,-8.15553c0,-4.50418 6.26931,-8.15553 14.00291,-8.15553c7.7336,0 14.00291,3.65135 14.00291,8.15553z" data-paper-data="{&quot;index&quot;:null}" fill="#ff0000" stroke="#000000" stroke-width="5"/><path d="M314.40801,286.60114c6.34179,-2.0728 13.21652,1.55111 15.35512,8.09423c2.13861,6.54311 -1.26875,13.5277 -7.61054,15.60049c-6.34179,2.0728 -13.21652,-1.55111 -15.35512,-8.09423c-2.13861,-6.54311 1.26875,-13.52769 7.61054,-15.60049z" data-paper-data="{&quot;index&quot;:null}" fill="#ff0000" stroke="#000000" stroke-width="5"/><text transform="translate(38.53757,130.31546) scale(0.5,0.5)" font-size="40" xml:space="preserve" fill="#ff0000" fill-rule="nonzero" stroke="none" stroke-width="1" stroke-linecap="butt" stroke-linejoin="miter" stroke-miterlimit="10" stroke-dasharray="" stroke-dashoffset="0" font-family="Sans Serif" font-weight="normal" text-anchor="start" style="mix-blend-mode: normal"><tspan x="0" dy="0">EMERGANCY EXIT</tspan></text><path d="M340.05053,184.55775c0.61583,-0.73137 1.27605,-1.41452 2.19439,-1.71454c3.6046,-1.17762 8.38185,0.69547 12.08747,0.72751c3.09612,0.99559 8.16791,2.13298 10.22589,4.78507c0.50351,0.64886 0.35491,1.54581 0.9343,2.17491c0.72807,0.79055 2.19227,-0.42365 2.69245,1.08013c0.17005,0.51125 -1.73965,2.52257 -2.14278,2.92569c-0.80847,1.18376 -2.79811,2.57184 -4.043,3.21742c-1.68822,0.87549 -4.49403,-0.79327 -6.16748,0.20974c-2.08673,1.25071 -3.07974,3.86273 -4.52907,5.85269l0.25955,0.19466l-0.74477,0.99302c-0.13648,0.18614 -0.35674,0.30698 -0.60523,0.30698c-0.41422,0 -0.75,-0.33578 -0.75,-0.75v-1c0,-0.80906 -0.22683,-3.08053 -0.02889,-4.44139c-1.25092,0.82942 -2.53539,1.55392 -3.83524,2.33452c-6.07553,3.64189 -15.85168,3.1501 -22.41442,0.55324c0,0 -0.69636,-0.27854 -0.41781,-0.9749c0.14159,-0.35398 0.39115,-0.45605 0.60232,-0.47084c-0.42228,-1.43148 1.36899,-4.07015 1.98179,-4.9338c1.00346,-1.41423 2.37259,-2.95528 3.9195,-4.34599c1.19331,-1.39127 2.5286,-2.53848 3.88636,-3.15538c1.70592,-0.7751 4.6295,-1.33415 5.68236,-2.98147l0.78863,-0.5048c0,0 0.19297,-0.09649 0.42368,-0.08246z" fill="#000000" stroke="none" stroke-width="0.5"/><path d="M347.64536,220.40526c-1.18586,0.51371 -1.58114,-1.02743 -1.58114,-1.02743l-0.5,-1.94941c-0.93377,-3.75362 -1.06414,-7.6019 -1.06414,-11.56035c0,0 0,-1.6245 1.25,-1.6245c1.25,0 1.25,1.6245 1.25,1.6245c0,3.56039 0.04028,7.17269 0.93585,10.53292l0.5,1.94941c0,0 0.39529,1.54114 -0.79057,2.05486z" fill="#000000" stroke="none" stroke-width="0.5"/><path d="M353.1137,219.99357c-1.30114,0 -1.30114,-1.67614 -1.30114,-1.67614c0,-3.12879 0,-8.26894 0,-11.39773c0,0 0,-1.67614 1.30114,-1.67614c1.30114,0 1.30114,1.67614 1.30114,1.67614c0,3.12879 0,6.25757 0,9.38636v2.01136c0,0 0,1.67614 -1.30114,1.67614z" fill="#000000" stroke="none" stroke-width="0.5"/><path d="M356.25007,232.74356c-1.25,0 -1.25,-1.25 -1.25,-1.25l0.20994,0.19338c-3.28114,-5.04399 -9.63262,-0.71077 -14.01121,0.97331c0,0 -1.16668,0.44872 -1.61541,-0.71796c-0.44872,-1.16668 0.71796,-1.61541 0.71796,-1.61541c5.80562,-2.23293 12.56068,-6.5423 16.98879,-0.02669l0.20994,1.19338c0,0 0,1.25 -1.25,1.25z" fill="#000000" stroke="none" stroke-width="0.5"/><path d="M211.18848,354.4872v-41.5h77.5v41.5z" fill="#181818" stroke="none" stroke-width="0"/><path d="M266.375,338.875c0,-5.79899 4.70101,-10.5 10.5,-10.5c5.79899,0 10.5,4.70101 10.5,10.5c0,5.79899 -4.70101,10.5 -10.5,10.5c-5.79899,0 -10.5,-4.70101 -10.5,-10.5z" fill="#000000" stroke="#0cff00" stroke-width="2"/><g stroke="none"><path d="M212.37278,357.32018l-2.11475,-44.46776l70.36637,-13.63467l-2.38525,43.46776z" fill="#c0c0c0" stroke-width="0"/><path d="M265.70991,310.70525c0.40791,2.37218 -2.03626,3.01319 -2.03626,3.01319c-14.67968,3.84994 -32.29529,8.46986 -46.97497,12.3198c0,0 -2.44417,0.64101 -2.85208,-1.73116c-0.40791,-2.37218 2.03626,-3.01319 2.03626,-3.01319c14.67968,-3.84994 29.35936,-7.69987 44.03904,-11.54981l2.93593,-0.76999c0,0 2.44417,-0.64101 2.85208,1.73116z" fill="#474747" stroke-width="0.5"/><path d="M273.2967,319.13838c0.40791,2.37218 -2.03626,3.01319 -2.03626,3.01319l-1.46797,0.38499c-4.28008,1.12251 -8.8077,1.96001 -13.01183,3.4041c-2.93279,1.0074 -5.64733,2.72106 -8.57749,3.73854c-10.47342,3.63684 -21.67104,4.42638 -31.65488,9.72529c0,0 -2.27226,1.19721 -3.26079,-0.94867c-0.98853,-2.14589 1.28373,-3.3431 1.28373,-3.3431c10.32864,-5.40636 21.62474,-6.30887 32.41636,-10.05619c2.93017,-1.01748 5.64494,-2.73022 8.57749,-3.73854c4.33533,-1.49064 8.99714,-2.36803 13.41159,-3.52578l1.46797,-0.38499c0,0 2.44417,-0.64101 2.85208,1.73116z" fill="#474747" stroke-width="0.5"/><path d="M272.32074,331.30634c0.40791,2.37218 -2.03626,3.01319 -2.03626,3.01319l-1.46797,0.38499c-5.31456,1.39381 -11.31101,2.3014 -16.42512,4.46495c-1.58287,0.66964 -2.95121,1.86315 -4.54444,2.50168c-1.61929,0.64897 -3.36684,0.76252 -5.01044,1.32765c-6.20148,2.13231 -12.34653,5.29331 -18.45048,7.80022c0,0 -2.36191,0.97004 -3.11138,-1.28763c-0.74946,-2.25768 1.61245,-3.22773 1.61245,-3.22773c6.20075,-2.54668 12.43748,-5.73546 18.73673,-7.90853c1.56164,-0.53872 3.22754,-0.61878 4.76623,-1.23641c1.56474,-0.62808 2.90236,-1.81533 4.45938,-2.46673c5.37534,-2.24884 11.57279,-3.2488 17.15126,-4.71182l1.46797,-0.38499c0,0 2.44417,-0.64101 2.85208,1.73116z" fill="#474747" stroke-width="0.5"/></g></g></g></svg>