<svg version="1.1" xmlns="http://www.w3.org/2000/svg" xmlns:xlink="http://www.w3.org/1999/xlink" width="585" height="613.04017" viewBox="0,0,585,613.04017"><g transform="translate(41.49996,26.70528)"><g data-paper-data="{&quot;isPaintingLayer&quot;:true}" fill-rule="nonzero" stroke-linejoin="miter" stroke-miterlimit="10" stroke-dasharray="" stroke-dashoffset="0" style="mix-blend-mode: normal"><path d="M-22.76262,406.72715v-432.43243h545.04505v432.43243z" fill="#cbcbcb" stroke="#ffffff" stroke-width="2" stroke-linecap="butt"/><path d="M-41.49996,586.33489v-279.00601h585v279.00601z" fill="#8c8c8c" stroke="none" stroke-width="0" stroke-linecap="butt"/><path d="M60.29928,313.85711v-172h57v172z" fill="#636363" stroke="#000000" stroke-width="0.5" stroke-linecap="butt"/><path d="M115.79778,315.35848v-172h57v172z" fill="#636363" stroke="#000000" stroke-width="0.5" stroke-linecap="butt"/><path d="M115.11426,249.68491c0,5.39017 -4.36959,9.75976 -9.75976,9.75976c-5.39017,0 -9.75976,-4.36959 -9.75976,-9.75976c0,-5.39017 4.36959,-9.75976 9.75976,-9.75976c5.39017,0 9.75976,4.36959 9.75976,9.75976z" fill="#c4c4c4" stroke="#000000" stroke-width="0.5" stroke-linecap="butt"/><path d="M126.37552,241.42676c4.56091,0 8.25826,4.03347 8.25826,9.00901c0,4.97554 -3.69735,9.00901 -8.25826,9.00901c-4.56091,0 -8.25826,-4.03347 -8.25826,-9.00901c0,-4.97554 3.69735,-9.00901 8.25826,-9.00901z" fill="#c4c4c4" stroke="#000000" stroke-width="0.5" stroke-linecap="butt"/><text transform="translate(38.53758,130.3155) scale(0.5,0.5)" font-size="40" xml:space="preserve" fill="#ff0000" fill-rule="nonzero" stroke="none" stroke-width="1" stroke-linecap="butt" stroke-linejoin="miter" stroke-miterlimit="10" stroke-dasharray="" stroke-dashoffset="0" font-family="Sans Serif" font-weight="normal" text-anchor="start" style="mix-blend-mode: normal"><tspan x="0" dy="0">EMERGANCY EXIT</tspan></text><path d="M211.18853,354.48733v-41.5h77.5v41.5z" fill="#181818" stroke="none" stroke-width="0" stroke-linecap="butt"/><path d="M223.51765,322.75485c2.10604,-5.40304 8.19335,-8.0758 13.5964,-5.96976c5.40304,2.10604 8.0758,8.19335 5.96976,13.5964c-2.10604,5.40304 -8.19335,8.0758 -13.5964,5.96976c-5.40304,-2.10604 -8.0758,-8.19335 -5.96976,-13.5964z" fill="#000000" stroke="#0cff00" stroke-width="2" stroke-linecap="butt"/><path d="M189.08922,375.80626c-4.00395,2.06301 -10.12127,-1.83765 -13.66343,-8.71235c-3.54215,-6.87471 -3.16776,-14.12017 0.83618,-16.18318c4.00395,-2.06301 10.12127,1.83765 13.66343,8.71235c3.54215,6.87471 3.16776,14.12017 -0.83618,16.18318z" data-paper-data="{&quot;index&quot;:null}" fill="#ff0000" stroke="#000000" stroke-width="5" stroke-linecap="butt"/><path d="M203.23535,399.64556c-3.99859,2.07339 -10.12601,-1.81139 -13.68597,-8.67688c-3.55997,-6.86551 -3.20441,-14.1119 0.79416,-16.18529c3.99859,-2.07339 10.126,1.81138 13.68597,8.67688c3.55997,6.86551 3.20441,14.1119 -0.79416,16.18529z" data-paper-data="{&quot;index&quot;:null}" fill="#ff0000" stroke="#000000" stroke-width="5" stroke-linecap="butt"/><path d="M154.48761,381.00006v-39h46v39z" fill="#8c8c8c" stroke="none" stroke-width="0" stroke-linecap="butt"/><g><path d="M275.92645,396.06805c-2.8674,14.83324 -16.69939,24.63344 -30.89467,21.88938c-14.19524,-2.74407 -23.37827,-16.99328 -20.51088,-31.82652c2.8674,-14.83323 16.69937,-24.63344 30.89464,-21.88935c14.19524,2.74407 23.37827,16.99328 20.51088,31.82652z" data-paper-data="{&quot;index&quot;:null}" fill="#d29460" stroke="#000000" stroke-width="2" stroke-linecap="butt"/><path d="M233.24326,463.19145c-10.32312,18.1623 -25.86621,28.80785 -34.71648,23.77755c-8.85027,-5.03032 -7.65632,-23.83166 2.6668,-41.99396c10.3231,-18.16231 25.86618,-28.80787 34.71647,-23.77754c8.85029,5.03034 7.65634,23.83167 -2.66679,41.99396z" data-paper-data="{&quot;index&quot;:null}" fill="#ff0000" stroke="#000000" stroke-width="5" stroke-linecap="butt"/><path d="M259.96028,365.37105c0.92938,-0.22453 1.86595,-0.38392 2.78358,-0.08173c3.6018,1.18612 6.34154,5.52484 9.30829,7.74545c1.90494,2.63596 5.31775,6.55637 5.40511,9.91213c0.02137,0.82102 -0.6296,1.45571 -0.53539,2.30574c0.11838,1.06819 2.0173,0.95711 1.52963,2.465c-0.16579,0.51264 -2.89577,1.00211 -3.45935,1.08816c-1.35253,0.47494 -3.77778,0.41492 -5.16319,0.19773c-1.8788,-0.29451 -3.1511,-3.30093 -5.09354,-3.48394c-2.42212,-0.22822 -4.76927,1.28819 -7.11567,2.03314l0.09382,0.31057l-1.18825,0.35898c-0.22021,0.06915 -0.46926,0.03604 -0.66947,-0.11113c-0.33375,-0.24533 -0.40541,-0.71476 -0.16008,-1.04851l0.59229,-0.80573c0.4792,-0.65188 1.6418,-2.61643 2.60732,-3.59565c-1.49916,-0.07262 -2.9632,-0.24965 -4.47285,-0.39059c-7.05226,-0.6641 -14.63787,-6.85067 -18.38754,-12.83005c0,0 -0.39611,-0.63687 0.24078,-1.03296c0.32375,-0.20135 0.58528,-0.13577 0.76419,-0.02262c0.50761,-1.40349 3.51374,-2.46859 4.51901,-2.8015c1.64615,-0.54514 3.66203,-0.97589 5.73213,-1.18021c1.7855,-0.4142 3.54088,-0.54765 5.00023,-0.24052c1.83358,0.38588 4.52031,1.66704 6.34431,0.96335l0.93439,0.06037c0,0 0.21263,0.03655 0.3902,0.1845z" fill="#000000" stroke="none" stroke-width="0.5" stroke-linecap="butt"/><g fill="#000000" stroke-width="0.5"><path d="M237.61517,409.08801c-0.45311,-0.18449 -1.11216,-0.63887 -0.95801,-1.70018c0.19388,-1.33475 1.34771,-1.38325 1.70876,-1.36507c0.19671,-0.44286 0.55615,-0.71113 0.55615,-0.71113c1.73459,-1.26915 1.86825,-1.64134 4.12837,-2.07774c3.73895,-0.72192 8.84801,3.08001 9.84327,6.7773c0.55754,2.07116 -0.3481,4.43301 -1.75707,5.92604c-0.61836,0.65525 -1.14824,1.62925 -2.03708,1.77645c-1.68165,0.27849 -4.58696,-2.15678 -5.82484,-3.1658c-1.30131,-1.06072 -2.50197,-2.24094 -3.63268,-3.47722c-0.70276,-0.63176 -1.37876,-1.29456 -2.02688,-1.98265z" stroke="none" stroke-linecap="butt"/><path d="M246.5876,403.79082l-6.78136,7.26134" stroke="#000000" stroke-linecap="round"/><path d="M242.62293,412.95022l7.32966,-8.67062" stroke="#000000" stroke-linecap="round"/><path d="M245.31114,414.94413l6.78512,-8.86425" stroke="#000000" stroke-linecap="round"/><path d="M247.26309,416.48755l5.43537,-7.45686" stroke="#000000" stroke-linecap="round"/><path d="M251.78608,415.31197l-12.15842,-10.12693" stroke="#000000" stroke-linecap="round"/></g><path d="M256.47394,392.84831c0.87935,0.88839 -0.00903,1.76775 -0.00903,1.76775l-0.94315,0.88651c-0.79332,2.3404 -2.66876,4.43551 -3.76438,6.77932c0,0 -0.52962,1.13226 -1.66187,0.60264c-1.13226,-0.52962 -0.60264,-1.66187 -0.60264,-1.66187c1.13749,-2.43029 3.0866,-4.6198 3.909,-7.04527l1.30432,-1.33811c0,0 0.88839,-0.87935 1.76775,0.00903z" fill="#ffffff" stroke="none" stroke-width="0.5" stroke-linecap="butt"/><path d="M268.74835,393.85119c0.60898,1.09163 -0.48265,1.70061 -0.48265,1.70061l-1.14856,0.58873c-1.91702,3.50797 -4.13055,6.77622 -6.29256,10.13632c0,0 -0.67648,1.05114 -1.72761,0.37466c-1.05114,-0.67648 -0.37466,-1.72761 -0.37466,-1.72761c2.26002,-3.51099 4.50101,-6.97373 6.63795,-10.56195l1.68748,-0.9934c0,0 1.09163,-0.60898 1.70061,0.48265z" fill="#ffffff" stroke="none" stroke-width="0.5" stroke-linecap="butt"/></g><path d="M176.39432,448.75475v-93.98403h144v93.98403z" fill="#8c8c8c" stroke="none" stroke-width="0" stroke-linecap="butt"/><g stroke="none" stroke-linecap="butt"><path d="M206.22068,359.86229l2.8847,-50.48831l79.84623,-3.87738l-0.9852,50.12744z" fill="#c0c0c0" stroke-width="0"/><path d="M276.05333,314.33662c0.20099,2.73266 -2.8166,3.1308 -2.8166,3.1308c-18.12356,2.39125 -39.87183,5.26074 -57.9954,7.65198c0,0 -3.01758,0.39813 -3.21857,-2.33452c-0.20099,-2.73266 2.8166,-3.1308 2.8166,-3.1308c18.12356,-2.39125 36.24711,-4.78249 54.37069,-7.17373l3.62472,-0.47825c0,0 3.01758,-0.39813 3.21857,2.33452z" fill="#474747" stroke-width="0.5"/><path d="M284.14774,324.86881c0.20099,2.73266 -2.8166,3.1308 -2.8166,3.1308l-1.81235,0.23912c-5.28421,0.69721 -10.83129,1.03964 -16.06341,2.11005c-3.64992,0.74672 -7.12357,2.31992 -10.77154,3.07837c-13.03915,2.71098 -26.60165,2.11073 -39.25492,6.7635c0,0 -2.87874,1.04902 -3.80561,-1.50549c-0.92686,-2.55452 1.95185,-3.60354 1.95185,-3.60354c13.08103,-4.72815 26.77576,-4.24234 40.21105,-7.03566c3.648,-0.75845 7.1218,-2.33059 10.77154,-3.07837c5.39557,-1.10548 11.1089,-1.47508 16.55899,-2.19418l1.81235,-0.23912c0,0 3.01758,-0.39813 3.21857,2.33452z" fill="#474747" stroke-width="0.5"/><path d="M281.48878,338.47707c0.20099,2.73266 -2.8166,3.1308 -2.8166,3.1308l-1.81235,0.23912c-6.56135,0.86572 -13.88341,1.09161 -20.29767,2.85311c-1.98527,0.54521 -3.77651,1.71045 -5.77046,2.21915c-2.02656,0.51701 -4.142,0.41242 -6.18755,0.83153c-7.71811,1.58137 -15.49393,4.3317 -23.14046,6.34901c0,0 -2.95882,0.78059 -3.58454,-1.86828c-0.62572,-2.64888 2.3331,-3.42948 2.3331,-3.42948c7.76781,-2.04932 15.65726,-4.8188 23.49794,-6.43316c1.94378,-0.40021 3.95693,-0.26868 5.88274,-0.76104c1.95842,-0.50069 3.71196,-1.66297 5.6639,-2.19102c6.73883,-1.82299 14.31389,-2.1264 21.20107,-3.03511l1.81235,-0.23912c0,0 3.01758,-0.39813 3.21857,2.33452z" fill="#474747" stroke-width="0.5"/></g></g></g></svg>