<svg version="1.1" xmlns="http://www.w3.org/2000/svg" xmlns:xlink="http://www.w3.org/1999/xlink" width="629.62763" height="444.94293" viewBox="0,0,629.62763,444.94293"><g transform="translate(67.30631,26.70565)"><g data-paper-data="{&quot;isPaintingLayer&quot;:true}" fill-rule="nonzero" stroke-linecap="butt" stroke-linejoin="miter" stroke-miterlimit="10" stroke-dasharray="" stroke-dashoffset="0" style="mix-blend-mode: normal"><path d="M-22.76276,406.72678v-432.43243h545.04505v432.43243z" fill="#d6d6d6" stroke="#000000" stroke-width="2"/><path d="M-66.30631,417.23728v-177.17718h627.62763v177.17718z" fill="#949494" stroke="#000000" stroke-width="2"/><path d="M182.94294,155.976v-114.11411h132.13213v114.11411z" fill="#98d7ff" stroke="#000000" stroke-width="2"/><path d="M200.96099,157.4775v-112.61261h10.51051v112.61261z" fill="#848484" stroke="#000000" stroke-width="2"/><path d="M220.48049,157.4775v-115.61562h10.51051v115.61562z" fill="#848484" stroke="#000000" stroke-width="2"/><path d="M241.50152,157.4775v-112.61261h10.51051v112.61261z" fill="#848484" stroke="#000000" stroke-width="2"/><path d="M265.52554,157.4775v-114.11411h7.50751v114.11411z" fill="#848484" stroke="#000000" stroke-width="2"/><path d="M285.2675,158.97901v-114.11411h10.56612v114.11411z" fill="#848484" stroke="#000000" stroke-width="2"/><path d="M306.78042,166.749c11.38105,0 20.60719,9.64081 20.60719,21.53336c0,11.89255 -9.22615,21.53336 -20.60719,21.53336c-11.38105,0 -20.6072,-9.64081 -20.6072,-21.53336c0,-11.89255 9.22616,-21.53336 20.6072,-21.53336z" data-paper-data="{&quot;index&quot;:null}" fill="#d29460" stroke="#000000" stroke-width="2"/><path d="M278.48893,252.72222c5.41873,0 9.81148,4.25759 9.81148,9.50959c0,5.252 -4.39275,9.50959 -9.81148,9.50959c-5.41873,0 -9.81148,-4.25759 -9.81148,-9.50959c0,-5.252 4.39275,-9.50959 9.81148,-9.50959z" data-paper-data="{&quot;index&quot;:null}" fill="#ff0000" stroke="#000000" stroke-width="5"/><path d="M309.412,222.20932c7.66462,-0.6632 14.98133,11.55014 16.34234,27.27927c1.36101,15.72913 -3.74908,29.01774 -11.4137,29.68094c-7.66462,0.6632 -14.98133,-11.55014 -16.34235,-27.27927c-1.36101,-15.72913 3.74908,-29.01774 11.41371,-29.68094z" data-paper-data="{&quot;index&quot;:null}" fill="#ff0000" stroke="#000000" stroke-width="5"/><path d="M341.38392,297.41883c6.08771,0 11.02277,2.87427 11.02277,6.41986c0,3.54559 -4.93506,6.41986 -11.02277,6.41986c-6.08771,0 -11.02277,-2.87427 -11.02277,-6.41986c0,-3.54559 4.93506,-6.41986 11.02277,-6.41986z" data-paper-data="{&quot;index&quot;:null}" fill="#ff0000" stroke="#000000" stroke-width="5"/><path d="M308.02457,298.38731c6.08771,0 11.02277,2.87426 11.02277,6.41985c0,3.54559 -4.93506,6.41985 -11.02277,6.41985c-6.0877,0 -11.02277,-2.87426 -11.02277,-6.41985c0,-3.54559 4.93506,-6.41985 11.02277,-6.41985z" data-paper-data="{&quot;index&quot;:null}" fill="#ff0000" stroke="#000000" stroke-width="5"/><path d="M303.5257,166.89708c1.7985,-0.03466 7.23539,-1.23033 8.69874,0.56618c1.19553,1.46772 9.95755,3.73715 10.33325,7.33322c0.45485,-0.088 0.82342,-0.00141 1.06758,0.32413c0.89578,1.19438 -1.38708,2.19145 -2.02353,2.63529c-2.51002,1.75042 -5.07661,4.51493 -7.79883,5.8044c-3.32701,1.57595 -1.93333,-3.09904 -2.24521,-3.12778c-2.11883,-0.19523 -4.99681,1.22268 -7.23571,1.28156c-4.36122,0.11469 -8.46442,-0.26607 -12.80749,-0.34641c-0.55121,-0.0102 -3.3739,0.11064 -3.78499,-0.60877c-0.29474,-0.17395 -0.49247,-0.49479 -0.49247,-0.86182c0,-0.49706 0.36266,-0.90942 0.83781,-0.98691c1.37581,-6.33275 9.22971,-11.89321 15.45085,-12.01309z" fill="#000000" stroke="none" stroke-width="0.5"/><g fill="#000000" stroke="none" stroke-width="0.5"><path d="M292.04276,194.1358c-1.668,0 -1.668,-1.668 -1.668,-1.668l0.01463,-0.37527c-0.34511,-2.59248 -0.61035,-4.98782 -0.61035,-7.60731c0,0 0,-1.668 1.668,-1.668c1.668,0 1.668,1.668 1.668,1.668c0,2.47742 0.25351,4.71337 0.58108,7.16641l0.01463,0.81616c0,0 0,1.668 -1.668,1.668z"/><path d="M297.52335,193.65925c-1.668,0 -1.668,-1.668 -1.668,-1.668l0.01676,-0.00239c-0.35855,-2.52058 -0.37419,-4.96093 -0.37419,-7.50361c0,0 0,-1.668 1.668,-1.668c1.668,0 1.668,1.668 1.668,1.668c0,2.38598 0.00146,4.66817 0.34066,7.03182l0.01676,0.47418c0,0 0,1.668 -1.668,1.668z"/><path d="M304.67193,200.8078c0,1.668 -1.668,1.668 -1.668,1.668l-1.42941,-0.00424c-1.8419,-0.15079 -3.1094,0.24488 -4.89108,0.77046c0,0 -1.60022,0.47065 -2.07088,-1.12957c-0.47065,-1.60022 1.12957,-2.07088 1.12957,-2.07088c2.15042,-0.63072 3.82916,-1.03976 6.07006,-0.89754l1.19173,-0.00424c0,0 1.668,0 1.668,1.668z"/></g><g><path d="M303.94858,238.75894c-0.54488,5.39127 -5.2226,9.33363 -10.44798,8.80552c-5.22538,-0.52811 -9.01968,-5.32672 -8.4748,-10.71798c0.54488,-5.39127 5.2226,-9.33363 10.44798,-8.80552c5.22538,0.52811 9.01968,5.32672 8.4748,10.71798z" data-paper-data="{&quot;index&quot;:null}" fill="#ff0000" stroke="#000000" stroke-width="5"/><g fill="#7c7c7c" stroke="none"><path d="M236.63006,287.70433l43.32665,-42.27717l8.45544,8.66534l-43.32665,42.27717z" stroke-width="0"/><path d="M288.23522,254.21849c-2.00632,1.95772 -5.55391,1.57592 -7.92378,-0.85278c-2.36986,-2.42869 -2.66459,-5.98457 -0.65828,-7.94229c2.00632,-1.95772 5.55391,-1.5759 7.92378,0.85278c2.36986,2.42869 2.66459,5.98457 0.65828,7.94229z" stroke-width="0"/><path d="M245.83532,315.00002c-2.62649,2.56287 -1.85455,-0.86872 -3.93691,-2.57388c-2.89893,-2.37382 -6.90964,-6.43812 -11.10715,-10.73982c-4.22208,-4.32689 -8.45236,-9.06423 -10.31055,-11.60283c-1.31619,-1.79813 -3.36975,0.69084 -0.76469,-1.85112c6.28294,-6.13074 17.22323,-5.10854 24.43588,2.28314c7.21264,7.39169 7.96632,18.35377 1.6834,24.48451z" stroke-width="0"/><path d="M244.90448,315.06607c-0.20264,0.19774 -0.40389,0.28212 -0.5883,0.30146c-1.35,0.47454 -2.3815,1.36437 -3.69538,1.92545c-1.44485,0.61699 -2.88193,0.37707 -4.25191,1.21238c-1.58442,0.96605 -2.48776,2.38459 -4.34848,3.13558c-3.37407,3.38228 -6.24316,1.1709 -10.04962,0.2109c-2.68184,-0.67639 -4.9805,0.66633 -7.73436,-0.53573c-4.38176,-1.91262 -4.29076,-8.20629 -2.99262,-11.94378c1.35682,-2.1772 1.27975,-4.33829 1.70389,-6.71109c0.27612,-1.54462 1.15869,-2.8149 1.82327,-4.18727c1.45453,-3.00361 2.39025,-6.22556 4.00055,-9.16212c-0.16279,-0.23315 -0.42399,-0.768 0.11409,-1.29305c0.50897,-0.49664 1.00918,-0.27816 1.25569,-0.11051c0.15855,0.00246 0.33669,0.05047 0.53199,0.17093c0.39841,0.24572 0.49529,0.56294 0.48565,0.83086c4.9834,5.03245 10.35585,9.85449 15.38129,15.0047c2.71375,2.78111 6.42616,5.06607 7.59007,8.96431l0.14665,0.1432c0.27156,-0.10432 0.65192,-0.12811 1.02727,0.25655c0.69839,0.71573 -0.01733,1.41411 -0.01733,1.41411l-0.20744,0.16299c-0.04548,0.06971 -0.10309,0.14002 -0.17496,0.21013z" stroke-width="0.5"/><path d="M297.72002,229.28716l-0.11308,-0.11589c-3.17212,-0.68899 -6.61848,0.17737 -9.11565,2.61405c-3.95283,3.85707 -4.03045,10.18825 -0.17335,14.14108c3.85707,3.95283 10.18825,4.03045 14.14108,0.17335c2.63243,-2.56867 3.54619,-6.23462 2.72369,-9.56464c-1.94861,-2.58136 -5.1561,-4.57927 -7.10853,-7.25054c-0.09278,-0.02487 -0.18586,-0.04839 -0.27918,-0.07055zM282.67561,245.60612c-0.4458,-1.33649 -0.96201,-2.04665 -0.95858,-3.55783c0,0 0.00876,-0.7148 0.61582,-0.92829c0.0087,-0.22375 0.00457,-0.43959 -0.02236,-0.64246c-0.68554,-5.16663 2.28572,-8.83799 5.10099,-12.97285c1.61042,-1.49963 2.59707,-3.6303 4.47392,-5.11885c0.47,-0.37277 0.88679,-1.14612 1.47544,-1.03048c1.46022,0.2869 3.84538,3.52145 4.89379,4.59587c3.88926,3.98582 7.77854,7.97165 11.66782,11.95746c0.21211,0.21737 2.10559,2.07756 2.13414,2.43331c0.21159,2.63615 -3.39143,4.32103 -4.5745,6.17211c-3.47654,5.43946 -8.97839,7.67387 -15.39668,7.61563c-2.63147,0.3396 -3.93946,0.30886 -6.21489,-1.04361c-2.6219,-1.23599 -2.30865,-4.82297 -3.19492,-7.48004z" stroke-width="0.5"/></g></g></g></g></svg>