<svg version="1.1" xmlns="http://www.w3.org/2000/svg" xmlns:xlink="http://www.w3.org/1999/xlink" width="585" height="613.04025" viewBox="0,0,585,613.04025"><g transform="translate(41.49996,26.70539)"><g data-paper-data="{&quot;isPaintingLayer&quot;:true}" fill-rule="nonzero" stroke-linecap="butt" stroke-linejoin="miter" stroke-miterlimit="10" stroke-dasharray="" stroke-dashoffset="0" style="mix-blend-mode: normal"><path d="M-22.76265,406.72704v-432.43243h545.04505v432.43243z" fill="#cbcbcb" stroke="#ffffff" stroke-width="2"/><path d="M-41.49996,586.33486v-279.00601h585v279.00601z" fill="#8c8c8c" stroke="none" stroke-width="0"/><path d="M60.29925,313.85706v-172h57v172z" fill="#636363" stroke="#000000" stroke-width="0.5"/><path d="M115.79775,315.35849v-172h57v172z" fill="#636363" stroke="#000000" stroke-width="0.5"/><path d="M115.11423,249.68487c0,5.39017 -4.36959,9.75976 -9.75976,9.75976c-5.39017,0 -9.75976,-4.36959 -9.75976,-9.75976c0,-5.39017 4.36959,-9.75976 9.75976,-9.75976c5.39017,0 9.75976,4.36959 9.75976,9.75976z" fill="#c4c4c4" stroke="#000000" stroke-width="0.5"/><path d="M126.37549,241.42666c4.56091,0 8.25826,4.03347 8.25826,9.00901c0,4.97554 -3.69735,9.00901 -8.25826,9.00901c-4.56091,0 -8.25826,-4.03347 -8.25826,-9.00901c0,-4.97554 3.69735,-9.00901 8.25826,-9.00901z" fill="#c4c4c4" stroke="#000000" stroke-width="0.5"/><path d="M371.0964,199.83453c6.47523,13.64985 1.135,29.73866 -11.92777,35.93539c-13.06275,6.19672 -28.90141,0.15478 -35.37664,-13.49507c-6.47523,-13.64984 -1.135,-29.73865 11.92777,-35.93538c13.06275,-6.19672 28.90141,-0.15478 35.37664,13.49507z" data-paper-data="{&quot;index&quot;:null}" fill="#d29460" stroke="#000000" stroke-width="2"/><path d="M404.27423,310.51402c0,6.67194 -5.58038,12.08062 -12.46413,12.08062c-6.88375,0 -12.46413,-5.40868 -12.46413,-12.08062c0,-6.67194 5.58038,-12.08062 12.46413,-12.08062c6.88375,0 12.46413,5.40868 12.46413,12.08062z" data-paper-data="{&quot;index&quot;:null}" fill="#ff0000" stroke="#000000" stroke-width="5"/><path d="M376.46195,279.19841c2.43973,20.74809 -3.77848,38.5315 -13.88877,39.72037c-10.1103,1.18885 -20.28413,-14.66703 -22.72386,-35.41512c-2.43975,-20.7481 3.77846,-38.53149 13.88876,-39.72036c10.11032,-1.18886 20.28415,14.66702 22.72388,35.41511z" data-paper-data="{&quot;index&quot;:null}" fill="#ff0000" stroke="#000000" stroke-width="5"/><path d="M339.16344,344.6562c-0.01168,4.50417 -6.29045,8.13925 -14.02402,8.11919c-7.73357,-0.02006 -13.99338,-3.68769 -13.9817,-8.19186c0.01168,-4.50417 6.29045,-8.13925 14.02402,-8.11919c7.73357,0.02006 13.99338,3.68769 13.9817,8.19186z" data-paper-data="{&quot;index&quot;:null}" fill="#ff0000" stroke="#000000" stroke-width="5"/><path d="M411.29206,345.60016c0,4.50418 -6.26933,8.15553 -14.00291,8.15553c-7.7336,0 -14.00291,-3.65135 -14.00291,-8.15553c0,-4.50418 6.26931,-8.15553 14.00291,-8.15553c7.7336,0 14.00291,3.65135 14.00291,8.15553z" data-paper-data="{&quot;index&quot;:null}" fill="#ff0000" stroke="#000000" stroke-width="5"/><path d="M314.40802,286.60115c6.34179,-2.0728 13.21652,1.55111 15.35512,8.09423c2.13861,6.54311 -1.26875,13.5277 -7.61054,15.60049c-6.34179,2.0728 -13.21652,-1.55111 -15.35512,-8.09423c-2.13861,-6.54311 1.26875,-13.52769 7.61054,-15.60049z" data-paper-data="{&quot;index&quot;:null}" fill="#ff0000" stroke="#000000" stroke-width="5"/><text transform="translate(38.53758,130.31547) scale(0.5,0.5)" font-size="40" xml:space="preserve" fill="#ff0000" fill-rule="nonzero" stroke="none" stroke-width="1" stroke-linecap="butt" stroke-linejoin="miter" stroke-miterlimit="10" stroke-dasharray="" stroke-dashoffset="0" font-family="Sans Serif" font-weight="normal" text-anchor="start" style="mix-blend-mode: normal"><tspan x="0" dy="0">EMERGANCY EXIT</tspan></text><path d="M340.05055,184.55777c0.61583,-0.73137 1.27605,-1.41452 2.19439,-1.71454c3.6046,-1.17762 8.38185,0.69547 12.08747,0.72751c3.09612,0.99559 8.16791,2.13298 10.22589,4.78507c0.50351,0.64886 0.35491,1.54581 0.9343,2.17491c0.72807,0.79055 2.19227,-0.42365 2.69245,1.08013c0.17005,0.51125 -1.73965,2.52257 -2.14278,2.92569c-0.80847,1.18376 -2.79811,2.57184 -4.043,3.21742c-1.68822,0.87549 -4.49403,-0.79327 -6.16748,0.20974c-2.08673,1.25071 -3.07974,3.86273 -4.52907,5.85269l0.25955,0.19466l-0.74477,0.99302c-0.13648,0.18614 -0.35674,0.30698 -0.60523,0.30698c-0.41422,0 -0.75,-0.33578 -0.75,-0.75v-1c0,-0.80906 -0.22683,-3.08053 -0.02889,-4.44139c-1.25092,0.82942 -2.53539,1.55392 -3.83524,2.33452c-6.07553,3.64189 -15.85168,3.1501 -22.41442,0.55324c0,0 -0.69636,-0.27854 -0.41781,-0.9749c0.14159,-0.35398 0.39115,-0.45605 0.60232,-0.47084c-0.42228,-1.43148 1.36899,-4.07015 1.98179,-4.9338c1.00346,-1.41423 2.37259,-2.95528 3.9195,-4.34599c1.19331,-1.39127 2.5286,-2.53848 3.88636,-3.15538c1.70592,-0.7751 4.6295,-1.33415 5.68236,-2.98147l0.78863,-0.5048c0,0 0.19297,-0.09649 0.42368,-0.08246z" fill="#000000" stroke="none" stroke-width="0.5"/><path d="M355.14538,220.90528c-1.18586,0.51371 -1.58114,-1.02743 -1.58114,-1.02743l-0.5,-1.94941c-0.93377,-3.75362 -1.06414,-7.6019 -1.06414,-11.56035c0,0 0,-1.6245 1.25,-1.6245c1.25,0 1.25,1.6245 1.25,1.6245c0,3.56039 0.04028,7.17269 0.93585,10.53292l0.5,1.94941c0,0 0.39529,1.54114 -0.79057,2.05486z" fill="#000000" stroke="none" stroke-width="0.5"/><path d="M360.61372,220.49359c-1.30114,0 -1.30114,-1.67614 -1.30114,-1.67614c0,-1.41972 0,-3.25359 0,-5.12575c0,-2.2537 0,-4.56291 0,-6.27197c0,0 0,-1.67614 1.30114,-1.67614c1.30114,0 1.30114,1.67614 1.30114,1.67614c0,3.12879 0,6.25757 0,9.38636v2.01136c0,0 0,1.67614 -1.30114,1.67614z" fill="#000000" stroke="none" stroke-width="0.5"/><path d="M356.25009,232.74358c-1.25,0 -1.25,-1.25 -1.25,-1.25l0.20994,0.19338c-3.28114,-5.04399 -9.63262,-0.71077 -14.01121,0.97331c0,0 -1.16668,0.44872 -1.61541,-0.71796c-0.44872,-1.16668 0.71796,-1.61541 0.71796,-1.61541c5.80562,-2.23293 12.56068,-6.5423 16.98879,-0.02669l0.20994,1.19338c0,0 0,1.25 -1.25,1.25z" fill="#000000" stroke="none" stroke-width="0.5"/><path d="M211.1885,354.48722v-41.5h77.5v41.5z" fill="#181818" stroke="none" stroke-width="0"/><path d="M282.37502,330.37502c0,-5.79899 4.70101,-10.5 10.5,-10.5c5.79899,0 10.5,4.70101 10.5,10.5c0,5.79899 -4.70101,10.5 -10.5,10.5c-5.79899,0 -10.5,-4.70101 -10.5,-10.5z" fill="#000000" stroke="#0cff00" stroke-width="2"/><g stroke="none"><path d="M211.39605,357.3202l-1.13802,-44.46776l37.86637,-13.63467l-1.28358,43.46776z" fill="#c0c0c0" stroke-width="0"/><path d="M240.09845,310.70527c0.21951,2.37218 -1.09578,3.01319 -1.09578,3.01319c-7.8996,3.84994 -17.37912,8.46986 -25.27872,12.3198c0,0 -1.31529,0.64101 -1.5348,-1.73116c-0.21951,-2.37218 1.09578,-3.01319 1.09578,-3.01319c7.8996,-3.84994 15.7992,-7.69987 23.6988,-11.54981l1.57992,-0.76999c0,0 1.31529,-0.64101 1.5348,1.73116z" fill="#474747" stroke-width="0.5"/><path d="M244.18114,319.1384c0.21951,2.37218 -1.09578,3.01319 -1.09578,3.01319l-0.78996,0.38499c-2.30325,1.12251 -4.7397,1.96001 -7.00208,3.4041c-1.57823,1.0074 -3.03901,2.72106 -4.61582,3.73854c-5.63608,3.63684 -11.66187,4.42638 -17.03449,9.72529c0,0 -1.22278,1.19721 -1.75474,-0.94867c-0.53196,-2.14589 0.69081,-3.3431 0.69081,-3.3431c5.55817,-5.40636 11.63696,-6.30887 17.44427,-10.05619c1.57682,-1.01748 3.03772,-2.73022 4.61582,-3.73854c2.33298,-1.49064 4.84164,-2.36803 7.2172,-3.52578l0.78996,-0.38499c0,0 1.31529,-0.64101 1.5348,1.73116z" fill="#474747" stroke-width="0.5"/><path d="M243.65594,331.30636c0.21951,2.37218 -1.09578,3.01319 -1.09578,3.01319l-0.78996,0.38499c-2.85993,1.39381 -6.08681,2.3014 -8.83887,4.46495c-0.85179,0.66964 -1.58814,1.86315 -2.44551,2.50168c-0.87139,0.64897 -1.8118,0.76252 -2.69627,1.32765c-3.33721,2.13231 -6.64406,5.29331 -9.92878,7.80022c0,0 -1.27102,0.97004 -1.67433,-1.28763c-0.40331,-2.25768 0.86771,-3.22773 0.86771,-3.22773c3.33682,-2.54668 6.693,-5.73546 10.08283,-7.90853c0.84037,-0.53872 1.73684,-0.61878 2.56486,-1.23641c0.84204,-0.62808 1.56186,-1.81533 2.39973,-2.46673c2.89264,-2.24884 6.22769,-3.2488 9.22964,-4.71182l0.78996,-0.38499c0,0 1.31529,-0.64101 1.5348,1.73116z" fill="#474747" stroke-width="0.5"/></g></g></g></svg>