<svg version="1.1" xmlns="http://www.w3.org/2000/svg" xmlns:xlink="http://www.w3.org/1999/xlink" width="608.10811" height="406.90691" viewBox="0,0,608.10811,406.90691"><g transform="translate(45.54651,15.33026)"><g data-paper-data="{&quot;isPaintingLayer&quot;:true}" fill-rule="nonzero" stroke-linecap="butt" stroke-linejoin="miter" stroke-miterlimit="10" stroke-dasharray="" stroke-dashoffset="0" style="mix-blend-mode: normal"><path d="M-11.01197,328.51358v-343.84384h509.00901v343.84385z" fill="#00f9ff" stroke="none" stroke-width="0"/><path d="M-45.54651,391.57665v-84.08408h608.10811v84.08408z" fill="#b78a54" stroke="none" stroke-width="0"/><path d="M121.12016,328.51358v-268.76877h255.25525v268.76877z" fill="#6b6b6b" stroke="none" stroke-width="0"/><text transform="translate(155.65469,103.66374) scale(1.24831,1.24831)" font-size="40" xml:space="preserve" fill="#000000" fill-rule="nonzero" stroke="none" stroke-width="1" stroke-linecap="butt" stroke-linejoin="miter" stroke-miterlimit="10" stroke-dasharray="" stroke-dashoffset="0" font-family="Sans Serif" font-weight="normal" text-anchor="start" style="mix-blend-mode: normal"><tspan x="0" dy="0">LA JAEL</tspan></text><path d="M139.13817,164.72735v-31.40896h30.11645v31.40896z" fill="#8a8a8a" stroke="none" stroke-width="0"/><path d="M175.131,170.08986v-32.9411h25.70917v32.9411z" fill="#8a8a8a" stroke="none" stroke-width="0"/><path d="M210.38928,170.85593v-35.23932h30.85099v35.23932z" fill="#8a8a8a" stroke="none" stroke-width="0"/><path d="M252.24629,169.72735v-31.40896h30.11645v31.40896z" fill="#8a8a8a" stroke="none" stroke-width="0"/><path d="M288.23911,175.08986v-32.9411h25.70917v32.9411z" fill="#8a8a8a" stroke="none" stroke-width="0"/><path d="M323.49739,175.85593v-35.23932h30.851v35.23932z" fill="#8a8a8a" stroke="none" stroke-width="0"/><path d="M141.13517,225.28291v-31.40896h30.11645v31.40896z" fill="#8a8a8a" stroke="none" stroke-width="0"/><path d="M177.128,230.64541v-32.9411h25.70917v32.9411z" fill="#8a8a8a" stroke="none" stroke-width="0"/><path d="M212.38628,231.41148v-35.23932h30.85099v35.23932z" fill="#8a8a8a" stroke="none" stroke-width="0"/><path d="M254.24328,230.28291v-31.40896h30.11645v31.40896z" fill="#8a8a8a" stroke="none" stroke-width="0"/><path d="M290.23611,235.64541v-32.9411h25.70916v32.9411z" fill="#8a8a8a" stroke="none" stroke-width="0"/><path d="M325.49439,236.41148v-35.23932h30.85099v35.23932z" fill="#8a8a8a" stroke="none" stroke-width="0"/><path d="M138.62766,287.33996v-31.40896h30.11645v31.40896z" fill="#8a8a8a" stroke="none" stroke-width="0"/><path d="M174.62049,292.70247v-32.9411h25.70916v32.9411z" fill="#8a8a8a" stroke="none" stroke-width="0"/><path d="M287.7286,297.70247v-32.9411h25.70917v32.9411z" fill="#8a8a8a" stroke="none" stroke-width="0"/><path d="M322.98688,298.46853v-35.23932h30.851v35.23932z" fill="#8a8a8a" stroke="none" stroke-width="0"/><path d="M236.75004,165.39722v-34l17.5,7v33z" fill="#919191" stroke="none" stroke-width="0"/><path d="M281.75004,171.39722v-33.00001l17.5,-7v34z" data-paper-data="{&quot;index&quot;:null}" fill="#919191" stroke="none" stroke-width="0"/><path d="M239.00004,151.89722c0,-0.41421 0.33579,-0.75 0.75,-0.75c0.41421,0 0.75,0.33579 0.75,0.75c0,0.41421 -0.33579,0.75 -0.75,0.75c-0.41421,0 -0.75,-0.33579 -0.75,-0.75z" fill="#000000" stroke="none" stroke-width="0.5"/><path d="M294.50004,152.39722c0,-0.41421 0.33579,-0.75 0.75,-0.75c0.41421,0 0.75,0.33579 0.75,0.75c0,0.41421 -0.33579,0.75 -0.75,0.75c-0.41421,0 -0.75,-0.33579 -0.75,-0.75z" fill="#000000" stroke="none" stroke-width="0.5"/><g><path d="M276.47642,189.53548c0,0.97999 -1.28582,1.77443 -2.87195,1.77443c-1.58613,0 -2.87195,-0.79444 -2.87195,-1.77443c0,-0.97999 1.28582,-1.77443 2.87195,-1.77443c1.58613,0 2.87195,0.79444 2.87195,1.77443z" fill="#ff0101" stroke="#000000" stroke-width="1.5"/><g><path d="M270.5261,198.78479c0,3.88488 -1.4908,7.03419 -3.3298,7.03419c-1.839,0 -3.3298,-3.14931 -3.3298,-7.03419c0,-3.88488 1.4908,-7.03419 3.3298,-7.03419c1.839,0 3.3298,3.14931 3.3298,7.03419z" fill="#ff0000" stroke="#000000" stroke-width="1.5"/><path d="M272.7304,203.04744c0,2.89642 -2.2921,5.24443 -5.11956,5.24443c-2.82746,0 -5.11956,-2.34801 -5.11956,-5.24443c0,-2.89642 2.2921,-5.24443 5.11956,-5.24443c2.82746,0 5.11956,2.34801 5.11956,5.24443z" fill="#dca030" stroke="none" stroke-width="0"/><path d="M263.86482,201.96342c0,0.26159 -0.3746,0.26159 -0.3746,0.26159h-0.24973c-1.25971,-0.01505 -1.37354,-0.35136 -1.37354,-1.13354c0,-0.71931 -0.04875,-0.96643 0.57018,-1.54808c0.54791,-0.51491 0.77562,-1.04787 1.58327,-1.45438c1.78948,-0.90068 4.95891,0.13201 6.7982,0.13201c0.13487,0.04528 1.6593,0.40468 1.67723,0.4184c0.13337,0.10212 0.10972,0.70763 0.10972,0.88253c0,0.51195 0.38703,2.24607 -0.10972,2.62643c-0.15399,0.11791 -0.45802,0.02711 -0.67829,0.06962c-0.38295,0.0739 -0.58557,0.3872 -0.94165,0.51026c-0.43496,0.15032 -1.41781,0.19027 -1.89012,0.19429c-0.00046,0 -0.00092,0.00001 -0.00138,0.00001c0,0 -0.07728,0 -0.16164,-0.02451l-0.65648,-0.09955c0.08817,-0.21308 0.11018,-0.44539 0.2645,-0.63926c0.09846,-0.12368 0.60924,-0.3689 0.43517,-0.29645c-0.83996,0.34958 -3.43731,0.36923 -4.46283,0.18082c-0.21888,-0.04021 -0.40074,-0.11014 -0.56757,-0.19306c0.01827,0.0308 0.0293,0.06798 0.0293,0.11287zM263.24049,201.70184h0.24973c0,0 0.0378,0 0.0894,0.00839c-0.23515,-0.13774 -0.4627,-0.28472 -0.75639,-0.38478c0,0 -0.17163,-0.05993 -0.20779,-0.17977c-0.01225,0.46678 -0.16693,0.56957 0.62506,0.55617z" fill="#000000" stroke="none" stroke-width="0.5"/><path d="M266.2373,205.66965c-0.3746,0 -0.3746,-0.3746 -0.3746,-0.3746c0,-0.49947 0,-1.49841 0,-1.99788c0,0 0,-0.3746 0.3746,-0.3746c0.3746,0 0.3746,0.3746 0.3746,0.3746c0,0.49947 0,0.99894 0,1.49841v0.49947c0,0 0,0.3746 -0.3746,0.3746z" fill="#ffffff" stroke="none" stroke-width="0.5"/><path d="M267.98544,206.66859c-0.3746,0 -0.3746,-0.3746 -0.3746,-0.3746c0,-0.83245 0,-1.91463 0,-2.74708c0,0 0,-0.3746 0.3746,-0.3746c0.3746,0 0.3746,0.3746 0.3746,0.3746c0,0.83245 0,1.6649 0,2.49735v0.24973c0,0 0,0.3746 -0.3746,0.3746z" fill="#ffffff" stroke="none" stroke-width="0.5"/><path d="M259.99393,206.29399c0,1.6551 -1.28581,2.99682 -2.87195,2.99682c-1.58613,0 -2.87195,-1.34172 -2.87195,-2.99682c0,-1.6551 1.28581,-2.99682 2.87195,-2.99682c1.58613,0 2.87195,1.34172 2.87195,2.99682z" fill="#ff0101" stroke="#000000" stroke-width="1.5"/><path d="M265.86405,207.83758c-0.00642,-0.09076 0.01787,-0.16365 0.01787,-0.16365l0.13894,-0.35604c0.89771,-1.0914 2.91121,-0.01008 1.63264,0.8928c-0.22295,0.15744 -1.12602,0.03955 -1.4162,0.03955c0,0 -0.3746,0 -0.3746,-0.3746c0,-0.01314 0.00046,-0.02582 0.00135,-0.03806z" fill="#000000" stroke="none" stroke-width="0.5"/><path d="M280.8884,206.62697c0,1.6551 -1.28582,2.99682 -2.87195,2.99682c-1.58613,0 -2.87195,-1.34172 -2.87195,-2.99682c0,-1.6551 1.28582,-2.99682 2.87195,-2.99682c1.58613,0 2.87195,1.34172 2.87195,2.99682z" fill="#ff0101" stroke="#000000" stroke-width="1.5"/><path d="M264.32267,189.33832c0,0.97999 -1.28582,1.77443 -2.87195,1.77443c-1.58613,0 -2.87195,-0.79444 -2.87195,-1.77443c0,-0.97999 1.28582,-1.77443 2.87195,-1.77443c1.58613,0 2.87195,0.79444 2.87195,1.77443z" fill="#ff0101" stroke="#000000" stroke-width="1.5"/></g></g></g></g></svg>