<svg version="1.1" xmlns="http://www.w3.org/2000/svg" xmlns:xlink="http://www.w3.org/1999/xlink" width="585" height="613.04043" viewBox="0,0,585,613.04043"><g transform="translate(41.49996,26.70555)"><g data-paper-data="{&quot;isPaintingLayer&quot;:true}" fill-rule="nonzero" stroke-linecap="butt" stroke-linejoin="miter" stroke-miterlimit="10" stroke-dasharray="" stroke-dashoffset="0" style="mix-blend-mode: normal"><path d="M-22.76272,406.72688v-432.43243h545.04505v432.43243z" fill="#cbcbcb" stroke="#ffffff" stroke-width="2"/><path d="M-41.49996,586.33489v-273h585v273z" fill="#8c8c8c" stroke="none" stroke-width="0"/><path d="M169.42231,225.85544c0,5.79899 -4.70101,10.5 -10.5,10.5c-5.79899,0 -10.5,-4.70101 -10.5,-10.5c0,-5.79899 4.70101,-10.5 10.5,-10.5c5.79899,0 10.5,4.70101 10.5,10.5z" fill="#595959" stroke="#ffffff" stroke-width="2"/><path d="M164.68037,225.60832c0.6551,0.25069 1.01011,0.48078 1.12705,1.7333c0.2324,2.48918 -2.25678,2.72157 -2.25678,2.72157l-3.09254,-1.23306c-0.65175,-1.20714 -0.90191,-2.59286 -1.27657,-3.91256c-0.05,-0.17612 -0.19884,0.31018 -0.32548,0.4424c-0.46457,0.48502 -0.96711,0.93224 -1.44408,1.40507c-0.59427,0.5891 -1.17968,1.18707 -1.76952,1.78061c0,0 -1.76346,1.77206 -3.53552,0.0086c-1.77206,-1.76346 -0.0086,-3.53552 -0.0086,-3.53552c2.44448,-2.45325 5.52823,-6.57029 9.78059,-4.31115c1.53791,0.81704 2.18862,3.16238 2.80146,4.90076z" fill="#ffffff" stroke="none" stroke-width="0.5"/><path d="M158.92231,264.02212c-5.79899,0 -10.5,-4.70101 -10.5,-10.5c0,-5.79899 4.70101,-10.5 10.5,-10.5c5.79899,0 10.5,4.70101 10.5,10.5c0,5.79899 -4.70101,10.5 -10.5,10.5z" data-paper-data="{&quot;index&quot;:null}" fill="#595959" stroke="#ffffff" stroke-width="2"/><path d="M161.87892,258.66999c-4.25235,2.25914 -7.3361,-1.85789 -9.78058,-4.31114c0,0 -1.76346,-1.77206 0.0086,-3.53552c1.77206,-1.76346 3.53553,0.0086 3.53553,0.0086c0.58984,0.59354 1.17525,1.19151 1.76952,1.78061c0.47697,0.47283 0.97951,0.92005 1.44408,1.40507c0.12663,0.13221 0.27548,0.61851 0.32548,0.4424c0.37465,-1.3197 0.62481,-2.70542 1.27657,-3.91256l3.09254,-1.23306c0,0 2.48917,0.23239 2.25678,2.72157c-0.11694,1.25252 -0.47195,1.48261 -1.12705,1.73329c-0.61283,1.73837 -1.26354,4.08371 -2.80146,4.90076z" data-paper-data="{&quot;index&quot;:null}" fill="#ffffff" stroke="none" stroke-width="0.5"/><path d="M193.50001,312.70315v-168h102v168z" fill="#adadad" stroke="#ffffff" stroke-width="2"/><path d="M222.16668,221.86984c0,7.82404 -5.85474,14.16666 -13.07692,14.16666c-7.22218,0 -13.07692,-6.34263 -13.07692,-14.16666c0,-7.82404 5.85474,-14.16667 13.07692,-14.16667c7.22218,0 13.07692,6.34263 13.07692,14.16667z" fill="#ffe2ac" stroke="#000000" stroke-width="1"/><path d="M196.28758,215.34638c-0.27548,-3.6094 5.97939,-6.93794 8.43304,-7.43643c2.79805,-0.56847 6.35851,-0.0732 9.0524,0.7012c1.23928,0.35625 2.98007,0.10654 3.68125,1.18871c0.20522,0.31672 0.35863,0.65367 0.47446,1.00529l0.20248,-0.08677l0.97823,2.28253c0.1438,0.31554 0.22391,0.66621 0.22391,1.0356c0,1.38071 -1.11929,2.5 -2.5,2.5c-0.46716,0 -0.90439,-0.12814 -1.27847,-0.35118l-1.27846,-0.73055c-1.89276,2.25249 -1.7882,5.34981 -6.45005,4.98926c-0.74707,-0.05778 -1.12847,-0.91475 -1.51726,-1.73299c-1.13315,0.16041 -2.31532,0.2961 -3.31834,0.31414c-0.33609,0.86055 -0.68724,1.76436 -1.7519,2.0663c-1.52687,0.43302 -3.0157,-0.9904 -4.52356,-1.48559c0,0 -2.23607,-1.11803 -1.11804,-3.3541c0.20057,-0.40115 0.43713,-0.69434 0.6903,-0.90542z" fill="#000000" stroke="none" stroke-width="0.5"/><path d="M210.08358,233.01367c-0.33357,-0.20685 -0.33357,-0.64385 -0.33357,-0.64385l0.03849,-0.57051c0.55693,-1.25956 2.85882,-2.47866 4.39874,-1.42408c1.09461,0.74962 1.56816,2.24531 0.41797,3.26969c-0.47079,0.41929 -3.16384,0.14157 -3.77186,0.14157c0,0 -0.75,0 -0.75,-0.75c0,-0.00769 0.00008,-0.01529 0.00024,-0.02282z" fill="#000000" stroke="none" stroke-width="0.5"/><path d="M216.83335,263.36983c0,10.8616 -3.13401,19.66667 -7,19.66667c-3.86599,0 -7,-8.80507 -7,-19.66667c0,-10.8616 3.13401,-19.66666 7,-19.66666c3.86599,0 7,8.80506 7,19.66666z" fill="#00ff71" stroke="#000000" stroke-width="2"/><path d="M210.83335,306.90238c0,2.48528 -2.91015,4.5 -6.5,4.5c-3.58985,0 -6.5,-2.01472 -6.5,-4.5c0,-2.48528 2.91015,-4.5 6.5,-4.5c3.58985,0 6.5,2.01472 6.5,4.5z" fill="#00ff71" stroke="#000000" stroke-width="2"/><path d="M230.16668,307.90238c0,2.48528 -3.43248,4.5 -7.66666,4.5c-4.23418,0 -7.66666,-2.01472 -7.66666,-4.5c0,-2.48528 3.43248,-4.5 7.66666,-4.5c4.23418,0 7.66666,2.01472 7.66666,4.5z" fill="#00ff71" stroke="#000000" stroke-width="2"/><path d="M217.02592,264.19111c0,-3.86599 2.68629,-7 6,-7c3.31371,0 6,3.13401 6,7c0,3.86599 -2.68629,7 -6,7c-3.31371,0 -6,-3.13401 -6,-7z" fill="#2fff26" stroke="#000000" stroke-width="2"/><path d="M222.69259,266.94111c-0.11589,0 -0.22564,-0.02628 -0.32361,-0.07322c-0.03565,0.06171 -0.08347,0.12429 -0.14605,0.18688c-0.53033,0.53033 -1.06066,0 -1.06066,0l-0.11667,-0.1822c-0.25757,-0.11875 -0.43634,-0.37923 -0.43634,-0.68147c0,-2.44444 0,-4.88889 0,-7.33333c0,-1.29125 -0.37922,-2.66766 1.12966,-3.35957c1.16669,-0.535 4.20546,0.27624 5.62034,0.27624c1.01735,0 2.86199,-0.30489 3.60843,0.6448c0.59079,0.75165 0.21071,4.20389 0.14157,5.1052c-0.03941,0.51383 0.15759,1.17926 -0.21967,1.53033c-0.71336,0.66384 -2.53804,-0.98746 -2.9219,-0.09179c-0.33692,0.78614 0.76336,2.25034 -0.0781,3.09179c-0.6099,0.6099 -3.4824,0.24162 -4.45167,0.22059c-0.04187,0.37455 -0.35959,0.66575 -0.74532,0.66575zM225.43769,259.77518c1.01684,0.00765 1.30875,-0.06983 2.0579,-0.78107c0.21779,-0.20677 0.96483,-0.64194 0.66667,-0.606c-0.97274,0.11724 -2.24653,-0.69281 -2.93934,0c-0.33104,0.33104 0.15992,0.9067 0.21477,1.38707z" fill="#fffd26" stroke="none" stroke-width="0.5"/><path d="M194.69259,280.19111c0,-3.86599 2.68629,-7 6,-7c3.31371,0 6,3.13401 6,7c0,3.86599 -2.68629,7 -6,7c-3.31371,0 -6,-3.13401 -6,-7z" fill="#2fff26" stroke="#000000" stroke-width="2"/><path d="M196.06869,215.08088l1.81359,-1.04409c-0.65061,-0.50826 -1.68185,-0.61056 -2.27952,-1.16258c-0.97608,-0.90152 -0.66,-2.44367 -0.66,-3.53033c0,-3.55555 0,-7.11111 0,-10.66666c0,-1.31099 -0.4457,-2.63997 1.34821,-3.35958c1.1318,-0.45401 2.95316,0.12644 4.17741,-0.0474c4.38727,-0.62302 8.3986,-1.34302 12.87376,-1.34302c0.96544,0 4.31068,-0.27182 5.009,0.21967c0.56787,0.39969 0.26217,2.88912 0.26217,3.53033c0,3.33334 0,6.66666 0,10c0,0.47133 -0.3161,3.75781 -0.26217,3.803c0.45111,0.37797 1.26907,-0.30255 1.89739,-0.20998c0.90613,0.1335 2.54965,0.71948 3.03276,1.38642c1.22749,1.69456 -0.64973,3.30665 -1.90991,4.32522c-4.05301,1.16115 -13.73541,1.32766 -17.57247,-0.29758c-1.56573,-0.6632 -6.19055,-0.68254 -7.73023,-1.6034z" fill="#001fcc" stroke="none" stroke-width="0.5"/><path d="M273.43617,209.70315c7.22219,0 13.07693,6.34263 13.07693,14.16667c0,7.82404 -5.85474,14.16666 -13.07693,14.16666c-7.22219,0 -13.07692,-6.34263 -13.07692,-14.16666c0,-7.82404 5.85473,-14.16667 13.07692,-14.16667z" data-paper-data="{&quot;index&quot;:null}" fill="#ffe2ac" stroke="#000000" stroke-width="1"/><path d="M272.69258,245.70315c3.86599,0 7,8.80506 7,19.66666c0,10.8616 -3.13401,19.66667 -7,19.66667c-3.86599,0 -7,-8.80507 -7,-19.66667c0,-10.8616 3.13401,-19.66666 7,-19.66666z" data-paper-data="{&quot;index&quot;:null}" fill="#bdffdf" stroke="#000000" stroke-width="2"/><path d="M278.19258,304.40238c3.58985,0 6.5,2.01472 6.5,4.5c0,2.48528 -2.91015,4.5 -6.5,4.5c-3.58985,0 -6.5,-2.01472 -6.5,-4.5c0,-2.48528 2.91015,-4.5 6.5,-4.5z" data-paper-data="{&quot;index&quot;:null}" fill="#bdffdf" stroke="#000000" stroke-width="2"/><path d="M260.02592,305.40238c4.23419,0 7.66666,2.01472 7.66666,4.5c0,2.48528 -3.43248,4.5 -7.66666,4.5c-4.23418,0 -7.66667,-2.01472 -7.66667,-4.5c0,-2.48528 3.43248,-4.5 7.66667,-4.5z" data-paper-data="{&quot;index&quot;:null}" fill="#bdffdf" stroke="#000000" stroke-width="2"/><path d="M261.16668,285.85776c-3.31371,0 -6,-3.13401 -6,-7c0,-3.86599 2.68629,-7 6,-7c3.31371,0 6,3.13401 6,7c0,3.86599 -2.68629,7 -6,7z" data-paper-data="{&quot;index&quot;:null}" fill="#bdffdf" stroke="#000000" stroke-width="2"/><path d="M282.83334,288.19111c-3.31371,0 -6,-3.13401 -6,-7c0,-3.86599 2.68629,-7 6,-7c3.31371,0 6,3.13401 6,7c0,3.86599 -2.68629,7 -6,7z" data-paper-data="{&quot;index&quot;:null}" fill="#bdffdf" stroke="#000000" stroke-width="2"/><path d="M281.58315,213.58457c1.11712,0.79638 1.95968,0.17923 2.82916,1.51904c2.972,4.57965 -4.85208,7.75022 -6.40985,4.33606c-0.15209,-0.33333 -0.14827,0.80156 -0.45627,1c-0.40504,0.26096 -0.95752,0.11364 -1.43853,0.14157c-0.62422,0.03624 -1.78482,0.03315 -2.60049,-0.24366c-0.02578,0.47705 -0.08227,0.90375 -0.20251,1.02399c-1.01863,1.01863 -4.28857,0.21694 -5.48921,-0.51235c-0.64127,0.09066 -1.68678,0.06535 -2.04112,0.06535c-1.1941,0 -3.75033,0.44695 -4.60843,-0.6448c-1.19756,-1.52363 0.41832,-3.94517 1.52574,-4.72924c0,0 0.10635,-0.0709 0.26052,-0.11026c0.07883,-0.27596 0.12926,-0.56629 0.12926,-0.88605c0.97851,-1.07337 2.1531,-3.85014 3.4059,-4.4059c0.74029,-0.3284 2.45887,-0.05709 3.28701,-0.05709c2.62941,0 5.5524,-0.13459 8.12014,0.34302c1.01171,0.18818 2.02235,0.75504 2.35345,1.65698h0.85974c0.41421,0 0.75,0.33579 0.75,0.75c0,0.27921 -0.15258,0.52279 -0.3789,0.65191c0.0347,0.03379 0.0695,0.0676 0.1044,0.10142z" fill="#000000" stroke="none" stroke-width="0.5"/><path d="M274.10765,231.41458c0.41421,0 0.75,0.33579 0.75,0.75c0,0.41421 -0.33579,0.75 -0.75,0.75c-0.11589,0 -0.22564,-0.02628 -0.32362,-0.07322c-0.03566,0.06171 -0.08347,0.1243 -0.14605,0.18688c-0.31595,0.31595 -0.63189,0.25544 -0.8357,0.15489c-0.12983,-0.05795 -0.24017,-0.15171 -0.31845,-0.26873l-0.42102,-0.51265c-0.12872,-0.41761 -0.61875,-1.68585 -1.12747,-1.84057c-0.49251,-0.14979 -0.72578,0.78103 -1.20734,0.96297c-0.81697,0.30867 -2.40084,0.05709 -3.28701,0.05709c-0.09479,0 -0.18548,-0.01759 -0.26897,-0.04967c-0.02231,-0.00758 -0.04517,-0.01632 -0.06821,-0.02639c-0.09945,0.04871 -0.21127,0.07606 -0.32948,0.07606c-0.41421,0 -0.75,-0.33579 -0.75,-0.75c0,-0.41421 0.33579,-0.75 0.75,-0.75c0.11821,0 0.23003,0.02735 0.32948,0.07606c0.02305,-0.01007 0.0459,-0.01881 0.06821,-0.02639c0.08349,-0.03209 0.17418,-0.04967 0.26897,-0.04967c2.95463,0 5.43643,-1.89111 6.85335,1.35675c0.1182,0.03028 0.22515,0.08864 0.31332,0.16756c0.13269,-0.11876 0.30791,-0.19097 0.5,-0.19097z" fill="#000000" stroke="none" stroke-width="0.5"/><path d="M269.85765,224.4979c0,0.75 -0.75,0.75 -0.75,0.75l-0.90384,-0.03849c-0.00428,-0.00143 -0.00855,-0.00287 -0.01283,-0.00431c0,1.0976 0,2.1952 0,3.2928v0.66667c0,0 0,0.75 -0.75,0.75c-0.75,0 -0.75,-0.75 -0.75,-0.75c0,-1.30282 0,-3.14799 0,-4.55716c-0.30929,-0.14006 -0.61532,-0.28744 -0.91874,-0.43869c0,0 -0.67082,-0.33541 -0.33541,-1.00623c0.33541,-0.67082 1.00623,-0.33541 1.00623,-0.33541c0.72469,0.36353 1.46546,0.70437 2.23509,0.95931l0.4295,-0.03849c0,0 0.75,0 0.75,0.75z" fill="#000000" stroke="none" stroke-width="0.5"/><path d="M272.77431,229.91458c-0.75,0 -0.75,-0.75 -0.75,-0.75v-0.33333c0,-1.39015 0.34817,-2.65202 0.33333,-4c0,0 0,-0.36236 0.25187,-0.58333c-0.31396,0 -0.60403,0 -0.8352,0c0,0 -0.75,0 -0.75,-0.75c0,-0.75 0.75,-0.75 0.75,-0.75c0.77778,0 1.55556,0 2.33333,0h0.66667c0,0 0.75,0 0.75,0.75c0,0.75 -0.75,0.75 -0.75,0.75c-0.31124,0 -0.72923,0 -1.16854,0c0.25187,0.22098 0.25187,0.58333 0.25187,0.58333c-0.01193,1.37947 -0.33333,2.59649 -0.33333,4v0.33333c0,0 0,0.75 -0.75,0.75z" fill="#000000" stroke="none" stroke-width="0.5"/><path d="M272.85765,233.83126c0,0.75 -0.75,0.75 -0.75,0.75h-1c-1.27794,0 -2.74761,-0.53003 -3.37596,0.66603c0,0 -0.41603,0.62404 -1.04006,0.20801c-0.62404,-0.41603 -0.20801,-1.04006 -0.20801,-1.04006c1.31943,-1.75381 2.61637,-1.33397 4.62404,-1.33397h1c0,0 0.75,0 0.75,0.75z" fill="#000000" stroke="none" stroke-width="0.5"/><path d="M213.19098,222.83124c0,0.75 -0.75,0.75 -0.75,0.75l-0.91667,-0.00793c0,1.08598 0,2.17195 0,3.25793v1c0,0 0,0.75 -0.75,0.75c-0.75,0 -0.75,-0.75 -0.75,-0.75c0,-1.33106 0,-3.65872 0,-4.99318c-0.33427,-0.2686 -0.63185,-0.58206 -0.87404,-0.92413c0,0 -0.41603,-0.62404 0.20801,-1.04006c0.62404,-0.41603 1.04006,0.20801 1.04006,0.20801c0.26634,0.43866 0.66915,0.86869 1.16277,1.00904l0.87986,-0.00968c0,0 0.75,0 0.75,0.75z" fill="#000000" stroke="none" stroke-width="0.5"/><path d="M215.10764,222.08124c0.75,0 0.75,0.75 0.75,0.75c0,1.33333 0,3.66667 0,5c0,0 0,0.75 -0.75,0.75c-0.75,0 -0.75,-0.75 -0.75,-0.75c0,-1.33333 0,-2.66667 0,-4v-1c0,0 0,-0.75 0.75,-0.75z" fill="#000000" stroke="none" stroke-width="0.5"/><path d="M217.85764,220.83123c0,0.75 -0.75,0.75 -0.75,0.75l-0.13634,-0.21967c-0.9322,0.89925 -1.74733,1.11035 -2.95983,1.51452c0,0 -0.71151,0.23717 -0.94868,-0.47434c-0.23717,-0.71151 0.47434,-0.94868 0.47434,-0.94868c0.96832,-0.32277 1.66929,-0.41027 2.37351,-1.15215l1.197,-0.21967c0,0 0.75,0 0.75,0.75z" fill="#000000" stroke="none" stroke-width="0.5"/><path d="M196.07094,315.85695v-172h20.96396v172z" fill="#636363" stroke="#ffffff" stroke-width="2"/><path d="M273.79766,317.35846v-172h20.96395v172z" fill="#636363" stroke="#ffffff" stroke-width="2"/></g></g></svg>