<svg version="1.1" xmlns="http://www.w3.org/2000/svg" xmlns:xlink="http://www.w3.org/1999/xlink" width="585" height="613.04041" viewBox="0,0,585,613.04041"><g transform="translate(41.49996,26.70556)"><g data-paper-data="{&quot;isPaintingLayer&quot;:true}" fill-rule="nonzero" stroke-linecap="butt" stroke-linejoin="miter" stroke-miterlimit="10" stroke-dasharray="" stroke-dashoffset="0" style="mix-blend-mode: normal"><path d="M-22.76273,406.72687v-432.43243h545.04505v432.43243z" fill="#cbcbcb" stroke="#ffffff" stroke-width="2"/><path d="M-41.49996,586.33485v-279.00601h585v279.00601z" fill="#8c8c8c" stroke="none" stroke-width="0"/><path d="M60.29917,313.85693v-172h57v172z" fill="#636363" stroke="#000000" stroke-width="0.5"/><path d="M115.79767,315.35844v-172h57v172z" fill="#636363" stroke="#000000" stroke-width="0.5"/><path d="M115.11415,249.68475c0,5.39017 -4.36959,9.75976 -9.75976,9.75976c-5.39017,0 -9.75976,-4.36959 -9.75976,-9.75976c0,-5.39017 4.36959,-9.75976 9.75976,-9.75976c5.39017,0 9.75976,4.36959 9.75976,9.75976z" fill="#c4c4c4" stroke="#000000" stroke-width="0.5"/><path d="M126.37541,241.42649c4.56091,0 8.25826,4.03347 8.25826,9.00901c0,4.97554 -3.69735,9.00901 -8.25826,9.00901c-4.56091,0 -8.25826,-4.03347 -8.25826,-9.00901c0,-4.97554 3.69735,-9.00901 8.25826,-9.00901z" fill="#c4c4c4" stroke="#000000" stroke-width="0.5"/><path d="M211.21025,354.0391v-40.54054h76.57658v40.54054z" fill="#c0c0c0" stroke="none" stroke-width="0"/><path d="M270.7673,321.00606c0,2.5 -2.5,2.5 -2.5,2.5c-15.01502,0 -33.03303,0 -48.04805,0c0,0 -2.5,0 -2.5,-2.5c0,-2.5 2.5,-2.5 2.5,-2.5c15.01502,0 30.03003,0 45.04505,0h3.003c0,0 2.5,0 2.5,2.5z" fill="#474747" stroke="none" stroke-width="0.5"/><path d="M276.77331,331.51658c0,2.5 -2.5,2.5 -2.5,2.5h-1.5015c-4.37785,0 -8.95001,-0.35287 -13.30765,-0.00849c-3.03988,0.24024 -5.98502,1.2504 -9.02402,1.5015c-10.86246,0.89753 -21.95452,-1.2677 -32.61754,1.43535c0,0 -2.42536,0.60634 -3.0317,-1.81902c-0.60634,-2.42536 1.81902,-3.0317 1.81902,-3.0317c11.01856,-2.72022 22.22601,-0.64286 33.41849,-1.56765c3.03901,-0.2511 5.98422,-1.26027 9.02402,-1.5015c4.49388,-0.35662 9.20408,-0.00849 13.71938,-0.00849h1.5015c0,0 2.5,0 2.5,2.5z" fill="#474747" stroke="none" stroke-width="0.5"/><path d="M273.77031,343.52861c0,2.5 -2.5,2.5 -2.5,2.5h-1.5015c-5.43596,0 -11.45747,-0.67065 -16.82679,0.15857c-1.66186,0.25665 -3.20192,1.09831 -4.86869,1.32085c-1.69403,0.22617 -3.42347,-0.12149 -5.12718,0.01371c-6.42828,0.51014 -12.97446,2.07255 -19.37033,2.98624c0,0 -2.47487,0.35355 -2.82843,-2.12132c-0.35355,-2.47487 2.12132,-2.82843 2.12132,-2.82843c6.4973,-0.92819 13.13788,-2.49437 19.66871,-3.01976c1.61905,-0.13025 3.26295,0.2296 4.87282,0.01371c1.63712,-0.21954 3.14607,-1.06301 4.77956,-1.3081c5.63935,-0.84614 11.87312,-0.21548 17.57902,-0.21548h1.5015c0,0 2.5,0 2.5,2.5z" fill="#474747" stroke="none" stroke-width="0.5"/><path d="M408.54819,195.57134c0,15.10784 -11.72055,27.35516 -26.1786,27.35516c-14.45804,0 -26.17859,-12.24732 -26.17859,-27.35516c0,-15.10784 11.72054,-27.35516 26.17859,-27.35516c14.45804,0 26.1786,12.24732 26.1786,27.35516z" data-paper-data="{&quot;index&quot;:null}" fill="#d29460" stroke="#000000" stroke-width="2"/><path d="M436.77415,299.51392c0,6.67194 -5.58038,12.08062 -12.46413,12.08062c-6.88375,0 -12.46413,-5.40868 -12.46413,-12.08062c0,-6.67194 5.58038,-12.08062 12.46413,-12.08062c6.88375,0 12.46413,5.40868 12.46413,12.08062z" data-paper-data="{&quot;index&quot;:null}" fill="#ff0000" stroke="#000000" stroke-width="5"/><path d="M403.07965,273.79616c0.62874,20.88158 -7.1103,38.0578 -17.28564,38.3642c-10.17535,0.30638 -18.93381,-16.3731 -19.56255,-37.25468c-0.62875,-20.88158 7.11029,-38.0578 17.28563,-38.3642c10.17536,-0.30638 18.93382,16.3731 19.56256,37.25468z" data-paper-data="{&quot;index&quot;:null}" fill="#ff0000" stroke="#000000" stroke-width="5"/><path d="M378.41309,344.46403c-0.03032,4.50409 -6.32407,8.11316 -14.0575,8.06109c-7.73343,-0.05207 -13.97801,-3.74557 -13.94768,-8.24965c0.03032,-4.50409 6.32407,-8.11316 14.0575,-8.06109c7.73343,0.05207 13.97801,3.74557 13.94768,8.24965z" data-paper-data="{&quot;index&quot;:null}" fill="#ff0000" stroke="#000000" stroke-width="5"/><path d="M431.79198,341.60002c0,4.50418 -6.26933,8.15553 -14.00291,8.15553c-7.7336,0 -14.00291,-3.65135 -14.00291,-8.15553c0,-4.50418 6.26931,-8.15553 14.00291,-8.15553c7.7336,0 14.00291,3.65135 14.00291,8.15553z" data-paper-data="{&quot;index&quot;:null}" fill="#ff0000" stroke="#000000" stroke-width="5"/><path d="M386.50428,168.40429c7.9031,0.15229 17.88039,7.21609 19.62817,15.26097c0.60361,0.09844 1.06432,0.62228 1.06432,1.25373c0,0.46626 -0.25119,0.87384 -0.62562,1.09482c-0.52224,0.91391 -4.10807,0.7604 -4.80831,0.77336c-5.51727,0.10206 -10.72982,0.58577 -16.27015,0.44007c-2.84421,-0.0748 -6.50029,-1.87606 -9.19197,-1.62805c-0.3962,0.03651 1.37428,5.97544 -2.85223,3.97341c-3.45821,-1.63809 -6.71871,-5.15002 -9.90734,-7.37369c-0.80853,-0.56384 -3.70858,-1.83048 -2.57062,-3.34777c0.31017,-0.41355 0.77839,-0.52355 1.35621,-0.41176c0.47728,-4.56831 11.60821,-7.4513 13.12697,-9.31584c1.85899,-2.28221 8.7658,-0.76328 11.05055,-0.71925z" data-paper-data="{&quot;index&quot;:null}" fill="#000000" stroke="none" stroke-width="0.5"/><path d="M345.77693,289.29749c6.63813,-0.67089 12.58053,4.33734 13.27272,11.1862c0.6922,6.84885 -4.12794,12.94482 -10.76606,13.61571c-6.63813,0.67089 -12.58053,-4.33734 -13.27272,-11.1862c-0.6922,-6.84885 4.12794,-12.94482 10.76606,-13.61571z" data-paper-data="{&quot;index&quot;:null}" fill="#ff0000" stroke="#000000" stroke-width="5"/><path d="M370.57706,205.54803c-2.11896,0 -2.11896,-2.11896 -2.11896,-2.11896l0.01859,-1.03682c0.41613,-3.11624 0.73818,-5.95671 0.73818,-9.10393c0,0 0,-2.11896 2.11896,-2.11896c2.11896,0 2.11896,2.11896 2.11896,2.11896c0,3.3277 -0.33696,6.37065 -0.77537,9.66404l0.01859,0.47673c0,0 0,2.11896 -2.11896,2.11896z" fill="#000000" stroke="none" stroke-width="0.5"/><path d="M361.61474,204.94266c-2.11896,0 -2.11896,-2.11896 -2.11896,-2.11896l0.02129,-0.60238c0.43091,-3.00269 0.43276,-5.9019 0.43276,-8.93296c0,0 0,-2.11896 2.11896,-2.11896c2.11896,0 2.11896,2.11896 2.11896,2.11896c0,3.23012 -0.01987,6.33025 -0.47536,9.5323l0.02129,0.00304c0,0 0,2.11896 -2.11896,2.11896z" fill="#000000" stroke="none" stroke-width="0.5"/><path d="M380.15723,212.8164c0,2.08333 -2.08333,2.08333 -2.08333,2.08333h-2.5c-2.97474,0 -3.89981,-0.44775 -6.34437,1.31677c0,0 -1.73344,1.15563 -2.88906,-0.57781c-1.15563,-1.73344 0.57781,-2.88906 0.57781,-2.88906c1.0173,-0.64239 1.90855,-1.55261 3.05191,-1.92717c0.34611,-0.11338 4.95969,-0.08939 5.60372,-0.08939h2.5c0,0 2.08333,0 2.08333,2.08333z" fill="#000000" stroke="none" stroke-width="0.5"/><path d="M233.50004,252.608v0c0,-1 0,-2 0,-3c0,0 0,-2.5 2.5,-2.5c2.5,0 2.5,2.5 2.5,2.5c0,0.16665 0.00008,0.33332 0.00024,0.5h0.49976c1.58926,0.24408 3.63082,-0.40472 4.76777,0.73223c0.88403,0.88403 0.73223,6.19003 0.73223,7.76777c0,6.29446 1.35458,14.58083 -0.82186,20.59364c2.16259,-3.61451 9.75958,-6.2066 13.08963,-3.3614c1.32173,1.12929 0.78032,3.43161 0.69995,5.16822c-0.16979,3.66891 -2.57637,6.34302 -4.43961,9.06132c-1.61017,2.34909 -2.43103,5.15455 -3.79204,7.65626c-0.92368,1.69784 -1.23858,4.05842 -2.92174,5.00859c-1.6769,0.94664 -4.06229,0.77953 -5.7761,-0.09852c-1.20738,-0.61859 -0.89137,-2.59926 -1.66485,-3.71378c-0.74405,-1.0721 -1.96878,-1.72893 -2.80673,-2.72936c-3.47934,-4.15398 -6.58438,-8.83215 -9.94333,-13.10883c-1.04952,-1.33627 -2.44757,-2.46123 -3.14781,-4.00938c-0.90494,-2.00073 -1.04032,-4.26675 -1.56047,-6.40012l5.16994,2c2.60261,1.72149 4.85559,3.45206 7.16868,5.44552c0.11947,0.10296 -0.04751,-0.31196 -0.06335,-0.46888c-0.06872,-0.68058 -0.16451,-1.35973 -0.1903,-2.04329c-0.11275,-2.98818 0,-6.00945 0,-9c0,-5.33333 0,-10.66667 0,-16c0,-2.5 2.5,-2.5 2.5,-2.5h2.50024c0.00158,1.66562 0.01087,3.33244 0.02349,5h-2.52373c0,0 -2.5,0 -2.5,-2.5z" fill="#66ff4e" stroke="none" stroke-width="0.5"/><path d="M228.87669,204.22408v0c0.99904,-0.04384 1.99808,-0.08768 2.99712,-0.13151c0,0 2.4976,-0.10959 2.60719,2.388c0.10959,2.4976 -2.388,2.60719 -2.388,2.60719c-0.16649,0.00731 -0.333,0.01469 -0.49951,0.02216l0.02191,0.49928c-0.17418,1.59843 0.56349,3.60958 -0.52252,4.79528c-0.84443,0.92194 -6.15197,1.00289 -7.7282,1.07205c-6.28841,0.27594 -14.50743,1.99247 -20.60987,0.08171c3.70584,2.00206 6.62847,9.47811 3.93199,12.92968c-1.07026,1.36997 -3.39411,0.93 -5.13257,0.92585c-3.67283,-0.00879 -6.44986,-2.29583 -9.24723,-4.03812c-2.41742,-1.50564 -5.25617,-2.20273 -7.81513,-3.45276c-1.7367,-0.84836 -4.10882,-1.05948 -5.13186,-2.69937c-1.01924,-1.63379 -0.95687,-4.02422 -0.15479,-5.77487c0.56507,-1.23334 2.55769,-1.00445 3.63723,-1.82605c1.03846,-0.79033 1.64096,-2.04268 2.60369,-2.92368c3.99745,-3.6581 8.53501,-6.96524 12.66033,-10.50844c1.28897,-1.10709 2.35157,-2.55312 3.86753,-3.32055c1.95914,-0.99178 4.21704,-1.22636 6.32556,-1.83954l-1.77144,5.25265c-1.60574,2.67557 -3.23589,5.00225 -5.12603,7.40051c-0.09762,0.12387 0.30958,-0.06114 0.46565,-0.08385c0.67692,-0.09849 1.35122,-0.22395 2.03299,-0.27969c2.98036,-0.24364 6.00368,-0.26344 8.99135,-0.39454c5.32821,-0.2338 10.65641,-0.4676 15.98462,-0.70141c2.4976,-0.10959 2.60719,2.388 2.60719,2.388l0.10961,2.49784c-1.66395,0.0746 -3.32876,0.15695 -4.99416,0.24266l-0.11064,-2.52131c0,0 -0.10959,-2.4976 2.388,-2.60719z" fill="#27ff06" stroke="none" stroke-width="0.5"/><text transform="translate(38.53757,130.31539) scale(0.5,0.5)" font-size="40" xml:space="preserve" fill="#ff0000" fill-rule="nonzero" stroke="none" stroke-width="1" stroke-linecap="butt" stroke-linejoin="miter" stroke-miterlimit="10" stroke-dasharray="" stroke-dashoffset="0" font-family="Sans Serif" font-weight="normal" text-anchor="start" style="mix-blend-mode: normal"><tspan x="0" dy="0">EMERGANCY EXIT</tspan></text><text transform="translate(156,86) scale(0.5,0.5)" font-size="40" xml:space="preserve" fill="#000000" fill-rule="nonzero" stroke="none" stroke-width="1" stroke-linecap="butt" stroke-linejoin="miter" stroke-miterlimit="10" stroke-dasharray="" stroke-dashoffset="0" font-family="Sans Serif" font-weight="normal" text-anchor="start" style="mix-blend-mode: normal"><tspan x="0" dy="0">Click On An Arrow</tspan></text></g></g></svg>