<svg version="1.1" xmlns="http://www.w3.org/2000/svg" xmlns:xlink="http://www.w3.org/1999/xlink" width="585" height="613.04023" viewBox="0,0,585,613.04023"><g transform="translate(41.49996,26.70534)"><g data-paper-data="{&quot;isPaintingLayer&quot;:true}" fill-rule="nonzero" stroke-linejoin="miter" stroke-miterlimit="10" stroke-dasharray="" stroke-dashoffset="0" style="mix-blend-mode: normal"><path d="M-22.76263,406.7271v-432.43243h545.04505v432.43243z" fill="#cbcbcb" stroke="#ffffff" stroke-width="2" stroke-linecap="butt"/><path d="M-41.49996,586.33489v-279.00601h585v279.00601z" fill="#8c8c8c" stroke="none" stroke-width="0" stroke-linecap="butt"/><path d="M60.29927,313.85709v-172h57v172z" fill="#636363" stroke="#000000" stroke-width="0.5" stroke-linecap="butt"/><path d="M115.79777,315.35848v-172h57v172z" fill="#636363" stroke="#000000" stroke-width="0.5" stroke-linecap="butt"/><path d="M115.11425,249.68487c0,5.39017 -4.36959,9.75976 -9.75976,9.75976c-5.39017,0 -9.75976,-4.36959 -9.75976,-9.75976c0,-5.39017 4.36959,-9.75976 9.75976,-9.75976c5.39017,0 9.75976,4.36959 9.75976,9.75976z" fill="#c4c4c4" stroke="#000000" stroke-width="0.5" stroke-linecap="butt"/><path d="M126.37551,241.42672c4.56091,0 8.25826,4.03347 8.25826,9.00901c0,4.97554 -3.69735,9.00901 -8.25826,9.00901c-4.56091,0 -8.25826,-4.03347 -8.25826,-9.00901c0,-4.97554 3.69735,-9.00901 8.25826,-9.00901z" fill="#c4c4c4" stroke="#000000" stroke-width="0.5" stroke-linecap="butt"/><text transform="translate(38.53758,130.31548) scale(0.5,0.5)" font-size="40" xml:space="preserve" fill="#ff0000" fill-rule="nonzero" stroke="none" stroke-width="1" stroke-linecap="butt" stroke-linejoin="miter" stroke-miterlimit="10" stroke-dasharray="" stroke-dashoffset="0" font-family="Sans Serif" font-weight="normal" text-anchor="start" style="mix-blend-mode: normal"><tspan x="0" dy="0">EMERGANCY EXIT</tspan></text><path d="M329.46266,347.25558c-2.42307,6.21639 -9.58672,9.22913 -16.00046,6.72914c-6.41374,-2.49999 -9.64881,-9.56602 -7.22574,-15.78241c2.42307,-6.21639 9.58672,-9.22913 16.00046,-6.72914c6.41374,2.49999 9.64881,9.56602 7.22574,15.78241z" data-paper-data="{&quot;index&quot;:null}" fill="#ff0000" stroke="#000000" stroke-width="5" stroke-linecap="butt"/><path d="M211.18852,354.48728v-41.5h77.5v41.5z" fill="#181818" stroke="none" stroke-width="0" stroke-linecap="butt"/><path d="M223.51764,322.75483c2.10604,-5.40304 8.19335,-8.0758 13.5964,-5.96976c5.40304,2.10604 8.0758,8.19335 5.96976,13.5964c-2.10604,5.40304 -8.19335,8.0758 -13.5964,5.96976c-5.40304,-2.10604 -8.0758,-8.19335 -5.96976,-13.5964z" fill="#000000" stroke="#0cff00" stroke-width="2" stroke-linecap="butt"/><path d="M266.41687,307.33842c6.66157,0.37189 11.7508,6.24509 11.36709,13.11814c-0.38369,6.87304 -6.09502,12.14328 -12.75658,11.77137c-6.66157,-0.37189 -11.7508,-6.24509 -11.36709,-13.11814c0.38369,-6.87304 6.09502,-12.14327 12.75658,-11.77137z" data-paper-data="{&quot;index&quot;:null}" fill="#ff0000" stroke="#000000" stroke-width="5" stroke-linecap="butt"/><path d="M189.08921,375.80619c-4.00395,2.06301 -10.12127,-1.83765 -13.66343,-8.71235c-3.54215,-6.87471 -3.16776,-14.12017 0.83618,-16.18318c4.00395,-2.06301 10.12127,1.83765 13.66343,8.71235c3.54215,6.87471 3.16776,14.12017 -0.83618,16.18318z" data-paper-data="{&quot;index&quot;:null}" fill="#ff0000" stroke="#000000" stroke-width="5" stroke-linecap="butt"/><path d="M203.23534,399.64551c-3.99859,2.07339 -10.12601,-1.81139 -13.68597,-8.67688c-3.55997,-6.86551 -3.20441,-14.1119 0.79416,-16.18529c3.99859,-2.07339 10.126,1.81138 13.68597,8.67688c3.55997,6.86551 3.20441,14.1119 -0.79416,16.18529z" data-paper-data="{&quot;index&quot;:null}" fill="#ff0000" stroke="#000000" stroke-width="5" stroke-linecap="butt"/><path d="M154.4876,381.00001v-39h46v39z" fill="#8c8c8c" stroke="none" stroke-width="0" stroke-linecap="butt"/><g><path d="M316.6739,325.76906c-8.18961,12.69556 -24.6777,16.63391 -36.82725,8.79655c-12.14951,-7.83736 -15.35965,-24.48257 -7.17005,-37.17814c8.1896,-12.69555 24.67768,-16.63392 36.82721,-8.79653c12.14951,7.83736 15.35965,24.48257 7.17005,37.17814z" data-paper-data="{&quot;index&quot;:null}" fill="#d29460" stroke="#000000" stroke-width="2" stroke-linecap="butt"/><path d="M252.04741,372.14607c-16.34891,13.00574 -34.73989,17.09073 -41.07744,9.12414c-6.33754,-7.96661 1.77825,-24.96808 18.12715,-37.97382c16.34889,-13.00575 34.73987,-17.09076 41.07743,-9.12413c6.33755,7.96664 -1.77823,24.9681 -18.12714,37.97382z" data-paper-data="{&quot;index&quot;:null}" fill="#ff0000" stroke="#000000" stroke-width="5" stroke-linecap="butt"/><path d="M313.30005,291.333c0.9461,0.13806 1.87459,0.33925 2.61346,0.96169c2.90014,2.44316 3.82527,7.49041 5.75054,10.65681c0.78516,3.15604 2.49077,8.06601 1.32103,11.21251c-0.28619,0.76982 -1.12682,1.11614 -1.35623,1.94003c-0.2883,1.03534 1.51518,1.64005 0.50062,2.85751c-0.34492,0.4139 -3.06062,-0.14945 -3.61566,-0.27967c-1.43209,-0.06342 -3.6602,-1.02308 -4.86482,-1.74101c-1.63364,-0.97358 -1.69366,-4.23758 -3.42791,-5.13141c-2.16251,-1.11458 -4.90574,-0.5823 -7.36072,-0.76561l-0.0287,0.32316l-1.23643,-0.10979c-0.23012,-0.01791 -0.44888,-0.14147 -0.57981,-0.35266c-0.21826,-0.35205 -0.10978,-0.81436 0.24227,-1.03262l0.84993,-0.5269c0.68765,-0.42629 2.49872,-1.81593 3.75965,-2.36471c-1.36406,-0.62617 -2.65662,-1.33614 -4.00494,-2.02962c-6.29653,-3.24485 -11.02958,-11.81302 -12.28033,-18.75914c0,0 -0.13018,-0.73862 0.60845,-0.86878c0.37547,-0.06617 0.59371,0.09217 0.71755,0.26385c0.99416,-1.11315 4.18066,-0.98101 5.23758,-0.91524c1.73072,0.10772 3.76189,0.45939 5.75897,1.04139c1.81122,0.28116 3.48985,0.81162 4.72956,1.64056c1.55762,1.04151 3.57321,3.23178 5.52806,3.25866l0.84455,0.4043c0,0 0.18368,0.11317 0.29331,0.31665z" fill="#000000" stroke="none" stroke-width="0.5" stroke-linecap="butt"/><g fill="#000000" stroke-width="0.5"><path d="M276.27041,323.57092c-0.35169,-0.34008 -0.79389,-1.00737 -0.25526,-1.93474c0.67741,-1.1663 1.76617,-0.78124 2.09443,-0.62979c0.3476,-0.33763 0.78113,-0.45259 0.78113,-0.45259c2.08265,-0.53115 2.3454,-0.8267 4.60532,-0.38924c3.7386,0.72373 7.06239,6.156 6.60783,9.95783c-0.25463,2.12972 -1.97534,3.98381 -3.83928,4.84408c-0.81803,0.37755 -1.67277,1.08386 -2.55243,0.88915c-1.66427,-0.36838 -3.45252,-3.71107 -4.2251,-5.10878c-0.81217,-1.46932 -1.4864,-3.01202 -2.07483,-4.58067c-0.41664,-0.84818 -0.79688,-1.71518 -1.14182,-2.59526z" stroke="none" stroke-linecap="butt"/><path d="M286.57071,321.99978l-8.99923,4.21044" stroke="#000000" stroke-linecap="round"/><path d="M279.47774,329.02136l10.0333,-5.3138" stroke="#000000" stroke-linecap="round"/><path d="M281.22902,331.8736l9.60017,-5.69644" stroke="#000000" stroke-linecap="round"/><path d="M282.46504,334.03332l7.82311,-4.89357" stroke="#000000" stroke-linecap="round"/><path d="M287.10027,334.62835l-7.50763,-13.92901" stroke="#000000" stroke-linecap="round"/></g><path d="M299.82327,315.53075c0.48485,1.15213 -0.66728,1.637 -0.66728,1.637l-1.20562,0.47108c-1.6085,1.87605 -4.12971,3.12115 -6.01999,4.88769c0,0 -0.91349,0.85326 -1.76674,-0.06022c-0.85326,-0.91349 0.06022,-1.76674 0.06022,-1.76674c1.96137,-1.83118 4.58613,-3.13641 6.25332,-5.08057l1.70909,-0.75552c0,0 1.15213,-0.48485 1.637,0.66728z" fill="#ffffff" stroke="none" stroke-width="0.5" stroke-linecap="butt"/><path d="M310.83936,321.03646c0.15821,1.23995 -1.08174,1.39816 -1.08174,1.39816l-1.28523,0.1182c-3.08641,2.54064 -6.35862,4.74833 -9.61725,7.06044c0,0 -1.01953,0.72325 -1.74276,-0.29628c-0.72325,-1.01953 0.29628,-1.74276 0.29628,-1.74276c3.40582,-2.4156 6.776,-4.79352 10.0964,-7.32666l1.93615,-0.29284c0,0 1.23995,-0.15821 1.39816,1.08174z" fill="#ffffff" stroke="none" stroke-width="0.5" stroke-linecap="butt"/></g><path d="M176.39431,448.75468v-93.98403h144v93.98403z" fill="#8c8c8c" stroke="none" stroke-width="0" stroke-linecap="butt"/><g stroke="none" stroke-linecap="butt"><path d="M211.39607,357.32025l-1.13802,-44.46776l37.86637,-13.63467l-1.28358,43.46776z" fill="#c0c0c0" stroke-width="0"/><path d="M240.09847,310.70529c0.21951,2.37218 -1.09578,3.01319 -1.09578,3.01319c-7.8996,3.84994 -17.37912,8.46986 -25.27872,12.3198c0,0 -1.31529,0.64101 -1.5348,-1.73116c-0.21951,-2.37218 1.09578,-3.01319 1.09578,-3.01319c7.8996,-3.84994 15.7992,-7.69987 23.6988,-11.54981l1.57992,-0.76999c0,0 1.31529,-0.64101 1.5348,1.73116z" fill="#474747" stroke-width="0.5"/><path d="M244.18116,319.13843c0.21951,2.37218 -1.09578,3.01319 -1.09578,3.01319l-0.78996,0.38499c-2.30325,1.12251 -4.7397,1.96001 -7.00208,3.4041c-1.57823,1.0074 -3.03901,2.72106 -4.61582,3.73854c-5.63608,3.63684 -11.66187,4.42638 -17.03449,9.72529c0,0 -1.22278,1.19721 -1.75474,-0.94867c-0.53196,-2.14589 0.69081,-3.3431 0.69081,-3.3431c5.55817,-5.40636 11.63696,-6.30887 17.44427,-10.05619c1.57682,-1.01748 3.03772,-2.73022 4.61582,-3.73854c2.33298,-1.49064 4.84164,-2.36803 7.2172,-3.52578l0.78996,-0.38499c0,0 1.31529,-0.64101 1.5348,1.73116z" fill="#474747" stroke-width="0.5"/><path d="M243.65596,331.30638c0.21951,2.37218 -1.09578,3.01319 -1.09578,3.01319l-0.78996,0.38499c-2.85993,1.39381 -6.08681,2.3014 -8.83887,4.46495c-0.85179,0.66964 -1.58814,1.86315 -2.44551,2.50168c-0.87139,0.64897 -1.8118,0.76252 -2.69627,1.32765c-3.33721,2.13231 -6.64406,5.29331 -9.92878,7.80022c0,0 -1.27102,0.97004 -1.67433,-1.28763c-0.40331,-2.25768 0.86771,-3.22773 0.86771,-3.22773c3.33682,-2.54668 6.693,-5.73546 10.08283,-7.90853c0.84037,-0.53872 1.73684,-0.61878 2.56486,-1.23641c0.84204,-0.62808 1.56186,-1.81533 2.39973,-2.46673c2.89264,-2.24884 6.22769,-3.2488 9.22964,-4.71182l0.78996,-0.38499c0,0 1.31529,-0.64101 1.5348,1.73116z" fill="#474747" stroke-width="0.5"/></g></g></g></svg>