<svg version="1.1" xmlns="http://www.w3.org/2000/svg" xmlns:xlink="http://www.w3.org/1999/xlink" width="629.62763" height="536.70563" viewBox="0,0,629.62763,536.70563"><g transform="translate(67.30631,26.70563)"><g data-paper-data="{&quot;isPaintingLayer&quot;:true}" fill-rule="nonzero" stroke-linecap="butt" stroke-linejoin="miter" stroke-miterlimit="10" stroke-dasharray="" stroke-dashoffset="0" style="mix-blend-mode: normal"><path d="M-22.76276,406.72681v-432.43243h545.04505v432.43243z" fill="#d6d6d6" stroke="#000000" stroke-width="2"/><path d="M-66.30631,457.77785v-177.17718h627.62763v177.17718z" fill="#949494" stroke="#000000" stroke-width="2"/><path d="M56.06606,279.84986v-225.22523h222.22222v225.22523z" fill="#bdbdbd" stroke="#000000" stroke-width="2"/><path d="M56.5,208v-42h220v42z" fill="#595959" stroke="#000000" stroke-width="2"/><path d="M56.5,280v-70h222v70z" fill="#b2b2b2" stroke="#000000" stroke-width="2"/><path d="M75.5,281v-224h17v224z" fill="#d7d7d7" stroke="#000000" stroke-width="2"/><path d="M111.08202,137.68765c14.45805,0 26.17859,12.24732 26.17859,27.35516c0,15.10784 -11.72055,27.35516 -26.17859,27.35516c-14.45805,0 -26.1786,-12.24732 -26.1786,-27.35516c0,-15.10784 11.72056,-27.35516 26.1786,-27.35516z" data-paper-data="{&quot;index&quot;:null}" fill="#d29460" stroke="#000000" stroke-width="2"/><path d="M75.14159,246.90477c6.88375,0 12.46413,5.40868 12.46413,12.08062c0,6.67194 -5.58038,12.08062 -12.46413,12.08062c-6.88375,0 -12.46413,-5.40868 -12.46413,-12.08062c0,-6.67194 5.58038,-12.08062 12.46413,-12.08062z" data-paper-data="{&quot;index&quot;:null}" fill="#ff0000" stroke="#000000" stroke-width="5"/><path d="M105.42508,208.14233c9.73684,-0.8425 19.03171,14.67286 20.76069,34.65455c1.72898,19.98169 -4.76269,36.86303 -14.49953,37.70554c-9.73684,0.8425 -19.03171,-14.67286 -20.7607,-34.65455c-1.72898,-19.98169 4.76269,-36.86303 14.49954,-37.70554z" data-paper-data="{&quot;index&quot;:null}" fill="#ff0000" stroke="#000000" stroke-width="5"/><path d="M139.5,278v-224h17v224z" fill="#d7d7d7" stroke="#000000" stroke-width="2"/><path d="M102.5,509v-224h17v224z" fill="#d7d7d7" stroke="#000000" stroke-width="2"/><path d="M130.0411,300.68564c7.7336,0 14.00291,3.65136 14.00291,8.15555c0,4.50418 -6.26931,8.15555 -14.00291,8.15555c-7.7336,0 -14.00291,-3.65136 -14.00291,-8.15555c0,-4.50418 6.26931,-8.15555 14.00291,-8.15555z" data-paper-data="{&quot;index&quot;:null}" fill="#ff0000" stroke="#000000" stroke-width="5"/><path d="M81.66254,304.91596c7.7336,0 14.00291,3.65135 14.00291,8.15553c0,4.50418 -6.26931,8.15553 -14.00291,8.15553c-7.73358,0 -14.00291,-3.65135 -14.00291,-8.15553c0,-4.50418 6.26931,-8.15553 14.00291,-8.15553z" data-paper-data="{&quot;index&quot;:null}" fill="#ff0000" stroke="#000000" stroke-width="5"/><path d="M106.94735,137.87576c2.28475,-0.04403 9.19156,-1.56296 11.05055,0.71925c1.51876,1.86454 12.64969,4.74753 13.12697,9.31584c0.57782,-0.11179 1.04604,-0.00179 1.35621,0.41176c1.13796,1.51729 -1.76209,2.78393 -2.57062,3.34777c-3.18863,2.22367 -6.44913,5.7356 -9.90734,7.37369c-4.22651,2.00203 -2.45603,-3.9369 -2.85223,-3.97341c-2.69168,-0.24801 -6.34776,1.55325 -9.19197,1.62805c-5.54033,0.1457 -10.75288,-0.33801 -16.27015,-0.44007c-0.70024,-0.01296 -4.28607,0.14055 -4.80831,-0.77336c-0.37443,-0.22098 -0.62562,-0.62856 -0.62562,-1.09482c0,-0.63145 0.46071,-1.15529 1.06432,-1.25373c1.74778,-8.04488 11.72507,-15.10868 19.62817,-15.26097z" fill="#000000" stroke="none" stroke-width="0.5"/><path d="M169.44074,259.38467c-0.69219,6.84886 -6.63459,11.85709 -13.27272,11.1862c-6.63812,-0.67089 -11.45826,-6.76686 -10.76606,-13.61571c0.69219,-6.84886 6.63459,-11.85709 13.27272,-11.1862c6.63812,0.67089 11.45826,6.76686 10.76606,13.61571z" data-paper-data="{&quot;index&quot;:null}" fill="#ff0000" stroke="#000000" stroke-width="5"/><g stroke="none" stroke-width="0.5"><path d="M117.87456,175.01952c-2.11896,0 -2.11896,-2.11896 -2.11896,-2.11896l0.01859,-0.47673c-0.43841,-3.29339 -0.77537,-6.33634 -0.77537,-9.66404c0,0 0,-2.11896 2.11896,-2.11896c2.11896,0 2.11896,2.11896 2.11896,2.11896c0,3.14722 0.32205,5.98769 0.73818,9.10393l0.01859,1.03682c0,0 0,2.11896 -2.11896,2.11896z" fill="#ffffff"/><path d="M126.83689,174.41413c-2.11896,0 -2.11896,-2.11896 -2.11896,-2.11896l0.02129,-0.00304c-0.45549,-3.20205 -0.47536,-6.30218 -0.47536,-9.5323c0,0 0,-2.11896 2.11896,-2.11896c2.11896,0 2.11896,2.11896 2.11896,2.11896c0,3.03106 0.00185,5.93027 0.43276,8.93296l0.02129,0.60238c0,0 0,2.11896 -2.11896,2.11896z" fill="#ffffff"/><path d="M117.25613,187.12244c-0.42018,0.50989 -1.10556,0.9225 -2.21916,0.82126c-2.6327,-0.23934 -2.39336,-2.87203 -2.39336,-2.87203c0.15705,-1.23968 -0.10242,-2.60888 0.47118,-3.71905c1.7266,-3.34181 4.54002,-5.1962 8.44399,-4.13354c3.25257,0.88534 5.90822,4.91346 3.7735,8.34221c-1.17671,1.89001 -5.49425,1.5917 -7.41242,1.6002h-0.26435c0,0 -0.15916,0 -0.39938,-0.03905z" fill="#000000"/></g><path d="M175.5,278v-224h17v224z" fill="#d7d7d7" stroke="#000000" stroke-width="2"/><path d="M211.5,278v-224h17v224z" fill="#d7d7d7" stroke="#000000" stroke-width="2"/><path d="M244.5,278v-224h17v224z" fill="#d7d7d7" stroke="#000000" stroke-width="2"/><path d="M44.5,209v-36h41v36z" fill="#575757" stroke="#000000" stroke-width="2"/><path d="M60.36455,181.5h0.76714c1.5477,0 7.38526,-0.76452 8.33842,0.73223c0.94275,1.4804 0.75828,3.85833 0.41966,5.72448c-0.33312,1.83589 -2.56437,2.24458 -3.09755,4c-0.19342,0.63681 0.14737,1.35925 0.14737,2.04329c0,3.56127 0.32887,5.38627 -2.74388,7.3097c-0.92012,0.57596 -2.04347,0.27216 -3.06402,0.1903c-1.24273,-0.09968 -2.81166,0.40472 -3.6921,-0.73223c-0.49955,-0.64509 -0.68211,-6.33863 -0.56703,-7.76777c0.04295,-0.53345 0.65437,-1.15296 0.36543,-1.53822c-0.41495,-0.55328 -1.31873,0.16785 -1.77042,-0.33515c-1.05623,-1.17619 -2.58322,-2.57925 -2.45752,-4.37297c0.18495,-2.63927 2.98529,-3.63874 4.42954,-5.52142c0,0 1.36894,-1.76777 2.73787,0c0.06918,0.08933 0.13136,0.17866 0.18709,0.26777z" fill="#000000" stroke="none" stroke-width="0.5"/></g></g></svg>