<svg version="1.1" xmlns="http://www.w3.org/2000/svg" xmlns:xlink="http://www.w3.org/1999/xlink" width="629" height="430.75" viewBox="0,0,629,430.75"><g transform="translate(78.83333,55.75)"><g data-paper-data="{&quot;isPaintingLayer&quot;:true}" fill-rule="nonzero" stroke-linejoin="miter" stroke-miterlimit="10" stroke-dasharray="" stroke-dashoffset="0" style="mix-blend-mode: normal"><path d="M-55.5,193.25v-248h570v248z" fill="#2bf0ff" stroke="#000000" stroke-width="2" stroke-linecap="butt"/><path d="M-70.5,214v-23h619v23z" fill="#ffb62c" stroke="#000000" stroke-width="2" stroke-linecap="butt"/><path d="M141,28c0,2.5 -2.5,2.5 -2.5,2.5l-2.59954,-0.03228c-6.82932,2.27644 -14.17414,0.31621 -21.24647,1.03906c-1.6596,0.16962 -3.25206,0.77587 -4.90764,0.98105c-1.72132,0.21333 -3.60409,-0.03255 -5.14797,0.75795c-1.38224,0.70774 -3.3206,1.23026 -3.78868,2.71092c-0.29759,0.94135 0.45404,2.07726 0.01547,2.96177c-0.74885,1.51026 -2.46799,2.34956 -3.35869,3.78075c-0.81756,1.31366 -0.86368,3.01415 -1.68588,4.32491c-0.0185,0.02949 -0.0371,0.05891 -0.05581,0.08826l0.01127,0.00564l-1.97578,3.95156c-0.40086,0.84561 -1.26228,1.43041 -2.26029,1.43041c-1.1246,0 -2.07576,-0.74256 -2.38994,-1.76412l-0.93973,-2.8192c-1.13648,-2.2842 -2.59937,-6.33343 -4.98466,-7.79006c-2.04217,-1.24709 -2.72479,-0.26535 -5.08613,-0.65891c-1.03975,-0.17329 -1.95435,-0.86685 -3,-1c-3.17423,-0.4042 -6.39968,0.03228 -9.59954,0.03228c0,0 -2.5,0 -2.5,-2.5c0,-2.5 2.5,-2.5 2.5,-2.5c0.57552,0 10.05669,-0.00996 10.40046,0.03228c1.04622,0.12856 1.96025,0.82671 3,1c2.31564,0.38594 4.89582,0.14169 6.91387,1.34109c2.75167,1.63542 4.48828,4.97355 5.92692,7.95983c0.26932,-1.36079 0.79247,-2.6802 1.50618,-3.81719c0.73457,-1.17021 2.31673,-1.6951 2.9274,-2.93448c0.44762,-0.90847 -0.4044,-2.11661 0.01547,-3.03823c2.33558,-5.12674 8.39321,-5.95102 13.06335,-6.53112c1.65239,-0.20525 3.2413,-0.81485 4.89816,-0.98011c6.95709,-0.6939 14.25183,1.23219 20.94772,-0.99978l3.40046,-0.03228c0,0 2.5,0 2.5,2.5z" fill="#000000" stroke="none" stroke-width="0.5" stroke-linecap="butt"/><path d="M405,26c0,2.5 -2.5,2.5 -2.5,2.5l-1.39366,-0.07464c-2.42231,0.6044 -4.74441,1.62521 -7.20588,2.04236c-2.93722,0.49778 -5.47251,0.3689 -8.30208,1.77807c-1.19324,0.59425 -2.10869,1.72722 -3.37392,2.14694c-1.72733,0.57301 -3.88162,-0.25386 -5.41013,0.7339c-2.43491,1.57348 -2.52804,5.3892 -7.12567,4.23806c-1.63835,-0.4102 -1.7033,-2.9179 -2.49836,-4.40797c-0.56566,-1.06014 -1.49628,-3.98303 -3.00463,-4.83008c-2.01858,-1.13359 -4.56877,-0.92924 -6.69706,-1.84034c-1.01385,-0.43402 -1.65625,-1.57832 -2.71308,-1.89356c-2.00486,-0.59801 -4.18339,0.10727 -6.27554,0.10727c0,0 -2.5,0 -2.5,-2.5c0,-2.5 2.5,-2.5 2.5,-2.5c1.23993,0 7.2541,-0.0227 7.72446,0.10727c1.25432,0.34659 2.09103,1.59334 3.28692,2.10644c3.10032,1.3302 4.34447,0.31865 7.30294,2.15966c2.30094,1.43184 4.28376,4.73682 4.99537,7.16992c0.1561,0.53371 -1.04124,1.47166 -0.49836,1.59203c0.54699,0.12128 0.26353,-1.12347 0.60369,-1.56867c1.75582,-2.29803 3.24978,-2.97052 6.18452,-3.53436c0.87632,-0.16837 1.82995,0.35871 2.676,0.07499c1.01576,-0.34064 1.66861,-1.37238 2.62608,-1.85306c0.23852,-0.11975 6.47558,-2.18379 6.69792,-2.22193c0.98561,-0.16905 2.01311,0.16142 3,0c2.32593,-0.38045 4.50789,-1.38502 6.79412,-1.95764l2.60634,-0.07464c0,0 2.5,0 2.5,2.5z" fill="#000000" stroke="none" stroke-width="0.5" stroke-linecap="butt"/><path d="M242,43c0,-2.5 2.5,-2.5 2.5,-2.5h1c0.48002,0 6.14144,-0.00949 6.40046,0.03228c1.72442,0.27812 3.41947,0.8862 5.15815,0.96076c2.17588,0.00298 4.98598,0.03662 5.3981,0.19726c1.10045,0.42893 1.70361,1.6415 2.62826,2.37634c1.08882,0.86531 2.54693,1.31883 3.40179,2.41587c1.34444,1.72531 0.99584,4.3389 2.13986,6.20316c0.46283,0.75422 1.41699,1.11206 1.90148,1.85255c0.54766,0.83705 0.98183,1.73957 1.40179,2.65028c0.51722,-1.89732 1.50129,-3.7832 2.30777,-5.15702c1.31658,-2.24278 3.83792,-3.94287 6.00752,-5.19376c5.47819,-3.15849 11.37327,-5.00528 17.5206,-6.23576l2.95258,-0.97664c0,0 2.37467,-0.78163 3.1563,1.59304c0.78163,2.37467 -1.59304,3.1563 -1.59304,3.1563l-3.24161,1.0622c-5.7409,1.14723 -11.14479,2.81939 -16.2852,5.7254c-1.25638,0.71026 -3.49737,2.10216 -4.27857,3.52147c-1.27,2.30738 -1.13756,5.31711 -2.73045,7.41463c-0.06719,0.08848 -0.13584,0.17564 -0.20584,0.26159l0.04018,0.02678l-1.97849,2.96774c-0.44514,0.68925 -1.2201,1.14551 -2.10163,1.14551c-1.18975,0 -2.18539,-0.83109 -2.43804,-1.9444l-0.93753,-3.75012c-0.99549,-1.97907 -2.62536,-3.58183 -3.75106,-5.49116c-1.03065,-1.74812 -0.56125,-4.23766 -1.86014,-5.79684c-0.64924,-0.77935 -1.80923,-0.94662 -2.59821,-1.58413c-0.55109,-0.44529 -0.71843,-1.34945 -1.37174,-1.62366c-0.47897,-0.20103 -0.97861,-0.2858 -1.49095,-0.30087c-0.70745,0.49118 -1.55234,0.49118 -1.55234,0.49118c-0.64457,-0.00612 -1.27709,-0.03454 -1.90156,-0.07817c-0.36932,0.04686 -0.73637,0.07817 -1.09844,0.07817c0,0 -0.60923,0 -1.2262,-0.30075c-2.54651,-0.29479 -5.04079,-0.69925 -7.7738,-0.69925h-1c0,0 -2.5,0 -2.5,-2.5z" fill="#000000" stroke="none" stroke-width="0.5" stroke-linecap="butt"/><path d="M-77.83333,374v-165h627v165z" fill="#7d7d7d" stroke="#000000" stroke-width="2" stroke-linecap="butt"/><path d="M13.5,292v-17h147v17z" fill="#ffffff" stroke="#000000" stroke-width="2" stroke-linecap="butt"/><path d="M206.5,290v-17h147v17z" fill="#ffffff" stroke="#000000" stroke-width="2" stroke-linecap="butt"/><path d="M386.5,290v-17h147v17z" fill="#ffffff" stroke="#000000" stroke-width="2" stroke-linecap="butt"/><path d="M195.03486,167.64536c-0.66979,-9.08806 6.15456,-16.99834 15.2426,-17.66813c9.08806,-0.66979 16.99834,6.15456 17.66813,15.2426c0.66979,9.08806 -6.15456,16.99834 -15.2426,17.66813c-9.08806,0.66979 -16.99834,-6.15456 -17.66813,-15.2426z" fill="#000000" stroke="#00ff08" stroke-width="2" stroke-linecap="butt"/><path d="M222.47022,170.27447l0.43379,-7.71944" fill="none" stroke="#00ff08" stroke-width="2" stroke-linecap="round"/><path d="M218.4844,161.54381l-0.71722,8.4088" fill="none" stroke="#00ff08" stroke-width="2" stroke-linecap="round"/><path d="M215.53093,157.75063l4.89905,2.98131" fill="none" stroke="#00ff08" stroke-width="2" stroke-linecap="round"/><path d="M210.81709,185.48484c6.17457,0.69186 9.89627,12.7097 8.31268,26.84257c-1.5836,14.13288 -7.87284,25.02899 -14.04738,24.33713c-6.17457,-0.69186 -9.89627,-12.7097 -8.31268,-26.84257c1.5836,-14.13288 7.87284,-25.02899 14.04738,-24.33713z" fill="#000000" stroke="#00ff08" stroke-width="2" stroke-linecap="butt"/><path d="M173.0296,207.93358c0.92831,-5.44427 6.09431,-9.10517 11.53859,-8.17686c5.44427,0.92831 9.10517,6.09431 8.17686,11.53859c-0.92831,5.44427 -6.09431,9.10517 -11.53859,8.17686c-5.44427,-0.92831 -9.10517,-6.09431 -8.17686,-11.53859z" fill="#000000" stroke="#00ff08" stroke-width="2" stroke-linecap="butt"/><path d="M222.89615,220.81178c0.92831,-5.44427 6.09431,-9.10517 11.53859,-8.17686c5.44427,0.92831 9.10517,6.09431 8.17686,11.53859c-0.92831,5.44427 -6.09431,9.10517 -11.53859,8.17686c-5.44427,-0.92831 -9.10517,-6.09431 -8.17686,-11.53859z" fill="#000000" stroke="#00ff08" stroke-width="2" stroke-linecap="butt"/><path d="M210.69723,255.67601c0.75743,-3.80507 5.79914,-6.2805 11.26096,-5.52904c5.46182,0.75146 9.27548,4.44526 8.51804,8.25034c-0.75743,3.80507 -5.79914,6.2805 -11.26096,5.52904c-5.46182,-0.75146 -9.27548,-4.44526 -8.51804,-8.25034z" fill="#000000" stroke="#00ff08" stroke-width="2" stroke-linecap="butt"/><path d="M184.22871,254.70502c0.78586,-3.7993 5.84594,-6.23696 11.30199,-5.44468c5.45605,0.79228 9.24198,4.51449 8.45611,8.3138c-0.78586,3.7993 -5.84594,6.23696 -11.30199,5.44468c-5.45605,-0.79228 -9.24198,-4.51449 -8.45611,-8.3138z" fill="#000000" stroke="#00ff08" stroke-width="2" stroke-linecap="butt"/><g><path d="M313.05977,244.89366c-10.85106,4.47092 -21.4598,3.69705 -23.69527,-1.72848c-2.23547,-5.42552 4.74887,-13.44821 15.59993,-17.91913c10.85106,-4.47092 21.4598,-3.69705 23.69527,1.72848c2.23547,5.42552 -4.74887,13.44821 -15.59993,17.91913z" fill="#ff0000" stroke="#000000" stroke-width="2" stroke-linecap="butt"/><path d="M291.76613,207.92871c4.11365,-0.48494 7.84155,2.4567 8.3265,6.57033c0.48494,4.11365 -2.4567,7.84155 -6.57033,8.3265c-4.11365,0.48494 -7.84155,-2.4567 -8.3265,-6.57033c-0.48494,-4.11365 2.4567,-7.84155 6.57033,-8.3265z" fill="#ff0000" stroke="#000000" stroke-width="2" stroke-linecap="butt"/><path d="M308.7371,255.0022c4.3879,-0.51727 8.36432,2.62049 8.8816,7.00837c0.51727,4.3879 -2.62049,8.36432 -7.00837,8.8816c-4.3879,0.51727 -8.36432,-2.62049 -8.8816,-7.00837c-0.51727,-4.3879 2.62049,-8.36432 7.00837,-8.8816z" fill="#ff0000" stroke="#000000" stroke-width="2" stroke-linecap="butt"/><path d="M266.47005,243.77141c-2.6527,0.98727 -6.24765,-2.09366 -8.02955,-6.88144c-1.78191,-4.78781 -1.076,-9.4694 1.5767,-10.45668c2.6527,-0.98727 6.24765,2.09366 8.02955,6.88144c1.78191,4.78781 1.076,9.4694 -1.5767,10.45668z" fill="#ff0000" stroke="#000000" stroke-width="2" stroke-linecap="butt"/><path d="M276.29155,258.45033c2.10853,5.17912 1.58901,10.28503 -1.16041,11.40437c-2.74939,1.11935 -6.68755,-2.17176 -8.79607,-7.35087c-2.10853,-5.17912 -1.58901,-10.28503 1.16041,-11.40437c2.74939,-1.11935 6.68755,2.17176 8.79607,7.35087z" fill="#ff0000" stroke="#000000" stroke-width="2" stroke-linecap="butt"/><g><path d="M335.64687,221.81431c-0.84153,-8.24143 5.15728,-15.60461 13.39871,-16.44612c8.24143,-0.84153 15.60461,5.15728 16.44612,13.39871c0.84153,8.24143 -5.15728,15.60461 -13.39871,16.44612c-8.24143,0.84153 -15.60461,-5.15728 -16.44612,-13.39871z" fill="#c19f67" stroke="#000000" stroke-width="2" stroke-linecap="butt"/><path d="M348.8411,214.26276c1.01126,-0.64962 2.3456,-1.12545 3.29015,-1.35279c-0.25003,-0.86889 -0.45746,-1.74594 -0.55764,-2.64283l-0.20315,-1.98967c0,0 -0.25395,-2.48707 2.23311,-2.74103c1.87946,-0.19192 2.48365,1.1815 2.66669,1.86401c0.01204,-0.00141 0.02414,-0.00271 0.03625,-0.00396c0.63158,-0.06449 1.23222,0.11205 1.71046,0.45515l2.15753,1.53078l-0.01657,0.02336c0.91708,0.46005 1.73724,1.164 2.58541,2.42766c1.09624,1.63326 2.51588,5.0805 2.08607,7.73677c0.13479,3.50568 -1.04874,7.19448 -1.84894,10.36933c0,0 -0.33843,1.34206 -1.51024,1.77722c-0.22674,0.51315 -0.6823,1.00285 -1.55508,1.27201c-2.38897,0.73677 -3.12574,-1.65218 -3.12574,-1.65218c-0.81699,-2.65792 -2.15901,-5.14893 -2.82883,-7.84772c-0.36672,-1.47753 -0.28929,-3.03498 -0.36623,-4.5631c-1.7771,-0.19612 -3.22719,-0.58531 -4.65898,-1.66823c-0.5059,-0.38263 -1.55525,-0.48855 -1.53653,-1.12259c0.01951,-0.66156 0.5451,-1.2592 1.27531,-1.76126c0.05148,-0.04221 0.10737,-0.07946 0.16699,-0.11093z" fill="#000000" stroke="none" stroke-width="0.5" stroke-linecap="butt"/><path d="M353.16605,228.32381l-4.92335,1.0053" fill="none" stroke="#ffffff" stroke-width="2" stroke-linecap="round"/><path d="M351.35872,223.09993l-4.45131,0.70581" fill="none" stroke="#ffffff" stroke-width="2" stroke-linecap="round"/><path d="M344.61826,223.53688l1.53779,-2.16742" fill="none" stroke="#ffffff" stroke-width="1" stroke-linecap="round"/><path d="M345.88261,230.82661l2.41611,1.51239" fill="none" stroke="#ffffff" stroke-width="1" stroke-linecap="round"/><path d="M345.71991,226.94259c0.12623,1.23621 -0.60657,2.32363 -1.63674,2.42883c-1.03017,0.10518 -1.96764,-0.81169 -2.09386,-2.04791c-0.12624,-1.23621 -0.48985,-3.21686 0.54033,-3.32206c1.03016,-0.10519 3.06403,1.70495 3.19027,2.94113z" fill="#000000" stroke="none" stroke-width="0" stroke-linecap="butt"/></g></g><path d="M216.5,174.625l-6.66667,-0.33333" fill="#00ff08" stroke="#00ff08" stroke-width="1.5" stroke-linecap="round"/></g></g></svg>