<svg version="1.1" xmlns="http://www.w3.org/2000/svg" xmlns:xlink="http://www.w3.org/1999/xlink" width="585" height="613.04025" viewBox="0,0,585,613.04025"><g transform="translate(41.49996,26.70535)"><g data-paper-data="{&quot;isPaintingLayer&quot;:true}" fill-rule="nonzero" stroke-linejoin="miter" stroke-miterlimit="10" stroke-dasharray="" stroke-dashoffset="0" style="mix-blend-mode: normal"><path d="M-22.76263,406.72708v-432.43243h545.04505v432.43243z" fill="#cbcbcb" stroke="#ffffff" stroke-width="2" stroke-linecap="butt"/><path d="M-41.49996,586.33489v-279.00601h585v279.00601z" fill="#8c8c8c" stroke="none" stroke-width="0" stroke-linecap="butt"/><path d="M60.29927,313.85707v-172h57v172z" fill="#636363" stroke="#000000" stroke-width="0.5" stroke-linecap="butt"/><path d="M329.46266,347.25556c-2.42307,6.21639 -9.58672,9.22913 -16.00046,6.72914c-6.41374,-2.49999 -9.64881,-9.56602 -7.22574,-15.78241c2.42307,-6.21639 9.58672,-9.22913 16.00046,-6.72914c6.41374,2.49999 9.64881,9.56602 7.22574,15.78241z" data-paper-data="{&quot;index&quot;:null}" fill="#ff0000" stroke="#000000" stroke-width="5" stroke-linecap="butt"/><path d="M115.79777,315.35848v-172h57v172z" fill="#636363" stroke="#000000" stroke-width="0.5" stroke-linecap="butt"/><path d="M115.11425,249.68488c0,5.39017 -4.36959,9.75976 -9.75976,9.75976c-5.39017,0 -9.75976,-4.36959 -9.75976,-9.75976c0,-5.39017 4.36959,-9.75976 9.75976,-9.75976c5.39017,0 9.75976,4.36959 9.75976,9.75976z" fill="#c4c4c4" stroke="#000000" stroke-width="0.5" stroke-linecap="butt"/><path d="M126.37551,241.42671c4.56091,0 8.25826,4.03347 8.25826,9.00901c0,4.97554 -3.69735,9.00901 -8.25826,9.00901c-4.56091,0 -8.25826,-4.03347 -8.25826,-9.00901c0,-4.97554 3.69735,-9.00901 8.25826,-9.00901z" fill="#c4c4c4" stroke="#000000" stroke-width="0.5" stroke-linecap="butt"/><path d="M320.96267,329.75557c-2.42307,6.21639 -9.58672,9.22913 -16.00046,6.72914c-6.41374,-2.49999 -9.64881,-9.56602 -7.22574,-15.78241c2.42307,-6.21639 9.58672,-9.22913 16.00046,-6.72914c6.41374,2.49999 9.64881,9.56602 7.22574,15.78241z" data-paper-data="{&quot;index&quot;:null}" fill="#ff0000" stroke="#000000" stroke-width="5" stroke-linecap="butt"/><path d="M264.41687,288.83842c6.66157,0.37189 11.7508,6.24509 11.36709,13.11814c-0.38369,6.87304 -6.09502,12.14328 -12.75658,11.77137c-6.66157,-0.37189 -11.7508,-6.24509 -11.36709,-13.11814c0.38369,-6.87304 6.09502,-12.14327 12.75658,-11.77137z" data-paper-data="{&quot;index&quot;:null}" fill="#ff0000" stroke="#000000" stroke-width="5" stroke-linecap="butt"/><text transform="translate(38.53758,130.31546) scale(0.5,0.5)" font-size="40" xml:space="preserve" fill="#ff0000" fill-rule="nonzero" stroke="none" stroke-width="1" stroke-linecap="butt" stroke-linejoin="miter" stroke-miterlimit="10" stroke-dasharray="" stroke-dashoffset="0" font-family="Sans Serif" font-weight="normal" text-anchor="start" style="mix-blend-mode: normal"><tspan x="0" dy="0">EMERGANCY EXIT</tspan></text><path d="M211.18852,354.48726v-41.5h77.5v41.5z" fill="#181818" stroke="none" stroke-width="0" stroke-linecap="butt"/><path d="M223.51764,322.75481c2.10604,-5.40304 8.19335,-8.0758 13.5964,-5.96976c5.40304,2.10604 8.0758,8.19335 5.96976,13.5964c-2.10604,5.40304 -8.19335,8.0758 -13.5964,5.96976c-5.40304,-2.10604 -8.0758,-8.19335 -5.96976,-13.5964z" fill="#000000" stroke="#0cff00" stroke-width="2" stroke-linecap="butt"/><path d="M332.35421,337.48951c-9.13694,12.03176 -25.87803,14.69707 -37.39232,5.95311c-11.51426,-8.74395 -13.44147,-25.58597 -4.30454,-37.61774c9.13693,-12.03176 25.87801,-14.69707 37.39229,-5.9531c11.51426,8.74395 13.44147,25.58597 4.30454,37.61774z" data-paper-data="{&quot;index&quot;:null}" fill="#d29460" stroke="#000000" stroke-width="2" stroke-linecap="butt"/><path d="M264.36885,378.78601c-17.29605,11.71676 -35.94567,14.38269 -41.65512,5.95456c-5.70944,-8.42815 3.68334,-24.75884 20.97939,-36.4756c17.29604,-11.71678 35.94565,-14.38272 41.65511,-5.95456c5.70945,8.42817 -3.68333,24.75886 -20.97938,36.47561z" data-paper-data="{&quot;index&quot;:null}" fill="#ff0000" stroke="#000000" stroke-width="5" stroke-linecap="butt"/><path d="M189.08921,375.80617c-4.00395,2.06301 -10.12127,-1.83765 -13.66343,-8.71235c-3.54215,-6.87471 -3.16776,-14.12017 0.83618,-16.18318c4.00395,-2.06301 10.12127,1.83765 13.66343,8.71235c3.54215,6.87471 3.16776,14.12017 -0.83618,16.18318z" data-paper-data="{&quot;index&quot;:null}" fill="#ff0000" stroke="#000000" stroke-width="5" stroke-linecap="butt"/><path d="M203.23534,399.64549c-3.99859,2.07339 -10.12601,-1.81139 -13.68597,-8.67688c-3.55997,-6.86551 -3.20441,-14.1119 0.79416,-16.18529c3.99859,-2.07339 10.126,1.81138 13.68597,8.67688c3.55997,6.86551 3.20441,14.1119 -0.79416,16.18529z" data-paper-data="{&quot;index&quot;:null}" fill="#ff0000" stroke="#000000" stroke-width="5" stroke-linecap="butt"/><path d="M331.62496,302.89625c0.93276,0.21004 1.84314,0.48168 2.53221,1.15883c2.70472,2.65789 3.24097,7.76113 4.91833,11.06554c0.54139,3.20687 1.86634,8.23293 0.45929,11.28072c-0.34425,0.74567 -1.20891,1.02665 -1.50069,1.83058c-0.36667,1.01025 1.38526,1.75117 0.28052,2.88744c-0.37558,0.3863 -3.04021,-0.38318 -3.58366,-0.55548c-1.42304,-0.1728 -3.5712,-1.30013 -4.71736,-2.10811c-1.55436,-1.09571 -1.36448,-4.35474 -3.02526,-5.37864c-2.0709,-1.27676 -4.84681,-0.95593 -7.28057,-1.32654l-0.05334,0.32002l-1.2244,-0.20406c-0.22807,-0.03547 -0.43674,-0.17539 -0.55113,-0.39598c-0.19068,-0.36772 -0.04715,-0.82037 0.32057,-1.01106l0.88775,-0.46033c0.71825,-0.37243 2.63033,-1.61943 3.92955,-2.07013c-1.31215,-0.7287 -2.5466,-1.53548 -3.83792,-2.33009c-6.02981,-3.71709 -10.09344,-12.62226 -10.80907,-19.64372c0,0 -0.07329,-0.74641 0.67313,-0.81968c0.37943,-0.03725 0.58492,0.13732 0.69526,0.31797c1.07641,-1.03382 4.24346,-0.65828 5.29225,-0.51183c1.7174,0.23982 3.71571,0.74587 5.66241,1.47896c1.7844,0.41892 3.41752,1.07624 4.59018,1.99761c1.47337,1.15763 3.31547,3.49569 5.26254,3.67206l0.81115,0.46773c0,0 0.17449,0.12689 0.26823,0.33816z" fill="#000000" stroke="none" stroke-width="0.5" stroke-linecap="butt"/><g stroke="none" stroke-linecap="butt"><path d="M211.39607,357.32023l-1.13802,-44.46776l37.86637,-13.63467l-1.28358,43.46776z" fill="#c0c0c0" stroke-width="0"/><path d="M240.09847,310.70528c0.21951,2.37218 -1.09578,3.01319 -1.09578,3.01319c-7.8996,3.84994 -17.37912,8.46986 -25.27872,12.3198c0,0 -1.31529,0.64101 -1.5348,-1.73116c-0.21951,-2.37218 1.09578,-3.01319 1.09578,-3.01319c7.8996,-3.84994 15.7992,-7.69987 23.6988,-11.54981l1.57992,-0.76999c0,0 1.31529,-0.64101 1.5348,1.73116z" fill="#474747" stroke-width="0.5"/><path d="M244.18116,319.13841c0.21951,2.37218 -1.09578,3.01319 -1.09578,3.01319l-0.78996,0.38499c-2.30325,1.12251 -4.7397,1.96001 -7.00208,3.4041c-1.57823,1.0074 -3.03901,2.72106 -4.61582,3.73854c-5.63608,3.63684 -11.66187,4.42638 -17.03449,9.72529c0,0 -1.22278,1.19721 -1.75474,-0.94867c-0.53196,-2.14589 0.69081,-3.3431 0.69081,-3.3431c5.55817,-5.40636 11.63696,-6.30887 17.44427,-10.05619c1.57682,-1.01748 3.03772,-2.73022 4.61582,-3.73854c2.33298,-1.49064 4.84164,-2.36803 7.2172,-3.52578l0.78996,-0.38499c0,0 1.31529,-0.64101 1.5348,1.73116z" fill="#474747" stroke-width="0.5"/><path d="M243.65596,331.30638c0.21951,2.37218 -1.09578,3.01319 -1.09578,3.01319l-0.78996,0.38499c-2.85993,1.39381 -6.08681,2.3014 -8.83887,4.46495c-0.85179,0.66964 -1.58814,1.86315 -2.44551,2.50168c-0.87139,0.64897 -1.8118,0.76252 -2.69627,1.32765c-3.33721,2.13231 -6.64406,5.29331 -9.92878,7.80022c0,0 -1.27102,0.97004 -1.67433,-1.28763c-0.40331,-2.25768 0.86771,-3.22773 0.86771,-3.22773c3.33682,-2.54668 6.693,-5.73546 10.08283,-7.90853c0.84037,-0.53872 1.73684,-0.61878 2.56486,-1.23641c0.84204,-0.62808 1.56186,-1.81533 2.39973,-2.46673c2.89264,-2.24884 6.22769,-3.2488 9.22964,-4.71182l0.78996,-0.38499c0,0 1.31529,-0.64101 1.5348,1.73116z" fill="#474747" stroke-width="0.5"/></g><path d="M176.39431,448.75466v-93.98403h144v93.98403z" fill="#8c8c8c" stroke="none" stroke-width="0" stroke-linecap="butt"/><path d="M154.4876,381.00001v-39h46v39z" fill="#8c8c8c" stroke="none" stroke-width="0" stroke-linecap="butt"/><g stroke-width="0.5"><path d="M289.23733,332.20654c-0.32464,-0.366 -0.71449,-1.06516 -0.10649,-1.9486c0.76466,-1.11105 1.82077,-0.64382 2.13648,-0.4677c0.37241,-0.31004 0.81347,-0.3915 0.81347,-0.3915c2.11718,-0.37025 2.40178,-0.64484 4.6216,-0.03574c3.67227,1.00765 6.5707,6.6783 5.82659,10.43421c-0.41683,2.104 -2.27435,3.821 -4.19865,4.53614c-0.84452,0.31385 -1.75079,0.9527 -2.61298,0.69126c-1.63121,-0.49464 -3.15846,-3.96434 -3.82184,-5.41706c-0.69737,-1.52715 -1.2516,-3.11692 -1.71828,-4.72598c-0.35052,-0.87757 -0.66332,-1.77112 -0.93991,-2.67502z" fill="#ffffff" stroke="none" stroke-linecap="butt"/><path d="M299.62765,331.42807l-9.29499,3.50957" fill="none" stroke="#000000" stroke-linecap="round"/><path d="M292.01824,337.8864l10.41045,-4.53058" fill="none" stroke="#000000" stroke-linecap="round"/><path d="M303.55405,335.91903l-10.00787,4.94524" fill="none" stroke="#000000" stroke-linecap="round"/><path d="M302.78791,338.83154l-8.17458,4.28068" fill="none" stroke="#000000" stroke-linecap="round"/><path d="M292.76952,329.59756l6.41992,14.46259" fill="none" stroke="#000000" stroke-linecap="round"/></g><path d="M313.15046,332.13726c-1.25,0 -1.25,-1.25 -1.25,-1.25v-1c0.02232,-2.48891 -1.22105,-7.05965 -3.72835,-8.34515c-1.06764,-0.54738 -5.40197,0.09515 -6.52165,0.09515c0,0 -1.25,0 -1.25,-1.25c0,-1.25 1.25,-1.25 1.25,-1.25c1.64407,0 5.94341,-0.66233 7.47835,0.09515c3.52468,1.73939 5.24571,7.11939 5.27165,10.65485v1c0,0 0,1.25 -1.25,1.25z" fill="#ffffff" stroke="none" stroke-width="0.5" stroke-linecap="butt"/><path d="M322.15046,346.63726c-1.25,0 -1.25,-1.25 -1.25,-1.25l0.00002,-1.4924c-0.01204,-1.40977 0.08679,-4.35025 -0.54251,-5.54092c-0.11871,-0.2246 -0.45554,0.25098 -0.70751,0.28332c-0.49593,0.06365 -1,0 -1.5,0c-1.16667,0 -2.33333,0 -3.5,0c0,0 -1.25,0 -1.25,-1.25c0,-1.25 1.25,-1.25 1.25,-1.25c1.25075,0 6.39904,-0.67688 7.29249,0.28332c1.27907,1.37464 1.42913,5.60044 1.45749,7.45908l0.00002,1.5076c0,0 0,1.25 -1.25,1.25z" fill="#ffffff" stroke="none" stroke-width="0.5" stroke-linecap="butt"/></g></g></svg>