<svg version="1.1" xmlns="http://www.w3.org/2000/svg" xmlns:xlink="http://www.w3.org/1999/xlink" width="629.62763" height="444.94293" viewBox="0,0,629.62763,444.94293"><g transform="translate(67.30631,26.70565)"><g data-paper-data="{&quot;isPaintingLayer&quot;:true}" fill-rule="nonzero" stroke-linecap="butt" stroke-linejoin="miter" stroke-miterlimit="10" stroke-dasharray="" stroke-dashoffset="0" style="mix-blend-mode: normal"><path d="M-22.76276,406.72678v-432.43243h545.04505v432.43243z" fill="#d6d6d6" stroke="#000000" stroke-width="2"/><path d="M-66.30631,417.23728v-177.17718h627.62763v177.17718z" fill="#949494" stroke="#000000" stroke-width="2"/><path d="M182.94294,155.976v-114.11411h132.13213v114.11411z" fill="#98d7ff" stroke="#000000" stroke-width="2"/><path d="M200.96099,157.4775v-112.61261h10.51051v112.61261z" fill="#848484" stroke="#000000" stroke-width="2"/><path d="M220.48049,157.4775v-115.61562h10.51051v115.61562z" fill="#848484" stroke="#000000" stroke-width="2"/><path d="M241.50152,157.4775v-112.61261h10.51051v112.61261z" fill="#848484" stroke="#000000" stroke-width="2"/><path d="M265.52554,157.4775v-114.11411h7.50751v114.11411z" fill="#848484" stroke="#000000" stroke-width="2"/><path d="M285.2675,158.97901v-114.11411h10.56612v114.11411z" fill="#848484" stroke="#000000" stroke-width="2"/><path d="M306.78042,166.749c11.38105,0 20.60719,9.64081 20.60719,21.53336c0,11.89255 -9.22615,21.53336 -20.60719,21.53336c-11.38105,0 -20.6072,-9.64081 -20.6072,-21.53336c0,-11.89255 9.22616,-21.53336 20.6072,-21.53336z" data-paper-data="{&quot;index&quot;:null}" fill="#d29460" stroke="#000000" stroke-width="2"/><path d="M278.48893,252.72222c5.41873,0 9.81148,4.25759 9.81148,9.50959c0,5.252 -4.39275,9.50959 -9.81148,9.50959c-5.41873,0 -9.81148,-4.25759 -9.81148,-9.50959c0,-5.252 4.39275,-9.50959 9.81148,-9.50959z" data-paper-data="{&quot;index&quot;:null}" fill="#ff0000" stroke="#000000" stroke-width="5"/><path d="M309.412,222.20932c7.66462,-0.6632 14.98133,11.55014 16.34234,27.27927c1.36101,15.72913 -3.74908,29.01774 -11.4137,29.68094c-7.66462,0.6632 -14.98133,-11.55014 -16.34235,-27.27927c-1.36101,-15.72913 3.74908,-29.01774 11.41371,-29.68094z" data-paper-data="{&quot;index&quot;:null}" fill="#ff0000" stroke="#000000" stroke-width="5"/><path d="M341.38398,297.41883c6.08771,0 11.02277,2.87427 11.02277,6.41986c0,3.54559 -4.93506,6.41986 -11.02277,6.41986c-6.08771,0 -11.02277,-2.87427 -11.02277,-6.41986c0,-3.54559 4.93506,-6.41986 11.02277,-6.41986z" data-paper-data="{&quot;index&quot;:null}" fill="#ff0000" stroke="#000000" stroke-width="5"/><path d="M308.02457,298.38731c6.08771,0 11.02277,2.87426 11.02277,6.41985c0,3.54559 -4.93506,6.41985 -11.02277,6.41985c-6.0877,0 -11.02277,-2.87426 -11.02277,-6.41985c0,-3.54559 4.93506,-6.41985 11.02277,-6.41985z" data-paper-data="{&quot;index&quot;:null}" fill="#ff0000" stroke="#000000" stroke-width="5"/><path d="M303.5257,166.89708c1.7985,-0.03466 7.23539,-1.23033 8.69874,0.56618c1.19553,1.46772 9.95755,3.73715 10.33325,7.33322c0.45485,-0.088 0.82342,-0.00141 1.06758,0.32413c0.89578,1.19438 -1.38708,2.19145 -2.02353,2.63529c-2.51002,1.75042 -5.07661,4.51493 -7.79883,5.8044c-3.32701,1.57595 -1.93333,-3.09904 -2.24521,-3.12778c-2.11883,-0.19523 -4.99681,1.22268 -7.23571,1.28156c-4.36122,0.11469 -8.46442,-0.26607 -12.80749,-0.34641c-0.55121,-0.0102 -3.3739,0.11064 -3.78499,-0.60877c-0.29474,-0.17395 -0.49247,-0.49479 -0.49247,-0.86182c0,-0.49706 0.36266,-0.90942 0.83781,-0.98691c1.37581,-6.33275 9.22971,-11.89321 15.45085,-12.01309z" fill="#000000" stroke="none" stroke-width="0.5"/><g fill="#000000" stroke="none" stroke-width="0.5"><path d="M292.04276,194.1358c-1.668,0 -1.668,-1.668 -1.668,-1.668l0.01463,-0.37527c-0.34511,-2.59248 -0.61035,-4.98782 -0.61035,-7.60731c0,0 0,-1.668 1.668,-1.668c1.668,0 1.668,1.668 1.668,1.668c0,2.47742 0.25351,4.71337 0.58108,7.16641l0.01463,0.81616c0,0 0,1.668 -1.668,1.668z"/><path d="M297.52335,193.65925c-1.668,0 -1.668,-1.668 -1.668,-1.668l0.01676,-0.00239c-0.35855,-2.52058 -0.37419,-4.96093 -0.37419,-7.50361c0,0 0,-1.668 1.668,-1.668c1.668,0 1.668,1.668 1.668,1.668c0,2.38598 0.00146,4.66817 0.34066,7.03182l0.01676,0.47418c0,0 0,1.668 -1.668,1.668z"/><path d="M304.67193,200.8078c0,1.668 -1.668,1.668 -1.668,1.668l-1.42941,-0.00424c-1.8419,-0.15079 -3.1094,0.24488 -4.89108,0.77046c0,0 -1.60022,0.47065 -2.07088,-1.12957c-0.47065,-1.60022 1.12957,-2.07088 1.12957,-2.07088c2.15042,-0.63072 3.82916,-1.03976 6.07006,-0.89754l1.19173,-0.00424c0,0 1.668,0 1.668,1.668z"/></g><path d="M303.94858,239.75894c-0.54488,5.39127 -5.2226,9.33363 -10.44798,8.80552c-5.22538,-0.52811 -9.01968,-5.32672 -8.4748,-10.71798c0.54488,-5.39127 5.2226,-9.33363 10.44798,-8.80552c5.22538,0.52811 9.01968,5.32672 8.4748,10.71798z" data-paper-data="{&quot;index&quot;:null}" fill="#ff0000" stroke="#000000" stroke-width="5"/><g fill="#7c7c7c" stroke="none"><path d="M118.38396,313.29981l-60.50633,-1.88189l0.37638,-12.10128l60.50633,1.88189z" stroke-width="0"/><path d="M58.46749,299.35669c2.80186,0.08715 4.98769,2.90731 4.88219,6.29902c-0.10549,3.39171 -2.46234,6.07058 -5.26419,5.98345c-2.80186,-0.08715 -4.98765,-2.90734 -4.88219,-6.29902c0.10549,-3.39171 2.46234,-6.07058 5.26419,-5.98345z" stroke-width="0"/><path d="M131.65962,287.73522c3.66794,0.11408 0.6607,1.93844 0.87694,4.62115c0.30103,3.73473 0.15562,9.4429 -0.03123,15.45029c-0.18794,6.04255 -0.66584,12.37575 -1.20541,15.47515c-0.3822,2.19534 2.83511,1.94802 -0.80291,1.83486c-8.7742,-0.27291 -15.62683,-8.86223 -15.30578,-19.18484c0.32106,-10.32261 7.69424,-18.46949 16.46842,-18.19661z" stroke-width="0"/><path d="M132.35288,288.35988c0.28299,0.00879 0.48337,0.09523 0.62522,0.21463c1.27825,0.64323 2.63472,0.76898 3.95026,1.32614c1.44666,0.61275 2.2707,1.81429 3.82268,2.22166c1.7949,0.47113 3.44329,0.13781 5.27495,0.95715c4.77673,0.08416 5.17406,3.68471 7.12298,7.09242c1.3731,2.40092 3.93477,3.12523 4.97917,5.94265c1.66181,4.48289 -2.93461,8.78303 -6.5272,10.44057c-2.50941,0.53295 -4.01258,2.08751 -6.01592,3.42795c-1.30413,0.87255 -2.83131,1.118 -4.28081,1.59127c-3.17245,1.03581 -6.1423,2.59676 -9.3745,3.47385c-0.05502,0.279 -0.25908,0.83814 -1.01052,0.81476c-0.71078,-0.0221 -0.90039,-0.53396 -0.95063,-0.82782c-0.1082,-0.11591 -0.1972,-0.27752 -0.2459,-0.50175c-0.09937,-0.45743 0.06192,-0.74725 0.26159,-0.92615c0.16806,-7.08036 -0.08533,-14.29502 0.13839,-21.48733c0.12079,-3.88386 -0.80852,-8.14289 1.192,-11.68534l0.00143,-0.20497c-0.26352,-0.12324 -0.54449,-0.38071 -0.52779,-0.91789c0.03109,-0.99952 1.0306,-0.96844 1.0306,-0.96844l0.2613,0.03635c0.08176,-0.0156 0.17237,-0.02287 0.27272,-0.01975z" stroke-width="0.5"/><path d="M33.93024,309.8188l-0.00503,0.16184c1.7041,2.7628 4.71877,4.64424 8.2061,4.7527c5.52018,0.17169 10.13436,-4.16411 10.30603,-9.68431c0.17169,-5.52018 -4.16411,-10.13436 -9.68431,-10.30603c-3.67624,-0.11433 -6.95066,1.77043 -8.77871,4.67279c-0.50767,3.19419 0.27818,6.89041 -0.29161,10.1497c0.04644,0.08408 0.09407,0.16744 0.14284,0.25003zM56.12053,309.33537c-0.65343,1.24818 -0.80688,2.11263 -1.89775,3.1584c0,0 -0.52093,0.48953 -1.09581,0.20035c-0.16719,0.14893 -0.31981,0.30163 -0.44725,0.46177c-3.24598,4.0777 -7.95151,4.48421 -12.88268,5.32459c-2.19726,-0.11974 -4.41639,0.64755 -6.7905,0.32822c-0.59453,-0.07998 -1.44068,0.15628 -1.76571,-0.34795c-0.80626,-1.2508 -0.13091,-5.21253 -0.08426,-6.71298c0.17313,-5.56624 0.34626,-11.13251 0.51937,-16.69878c0.00944,-0.30356 0.03589,-2.95779 0.27234,-3.22512c1.75204,-1.98101 5.46495,-0.55451 7.61893,-0.98637c6.32959,-1.26903 11.75546,1.14401 16.16566,5.80749c2.06998,1.65987 2.95514,2.62334 3.55934,5.20048c0.92843,2.7459 -1.87255,5.00845 -3.17166,7.48993z" stroke-width="0.5"/></g></g></g></svg>