<svg version="1.1" xmlns="http://www.w3.org/2000/svg" xmlns:xlink="http://www.w3.org/1999/xlink" width="695.16488" height="595.74474" viewBox="0,0,695.16488,595.74474"><g transform="translate(150.66485,83.40991)"><g data-paper-data="{&quot;isPaintingLayer&quot;:true}" fill-rule="nonzero" stroke-linecap="butt" stroke-linejoin="miter" stroke-miterlimit="10" stroke-dasharray="" stroke-dashoffset="0" style="mix-blend-mode: normal"><path d="M-40.49997,512.33483v-273h585v273z" fill="#8c8c8c" stroke="none" stroke-width="0"/><path d="M-43.49997,239.5v-273h585v273z" fill="#ababab" stroke="none" stroke-width="0"/><path d="M182.50004,166.5v-93h110v93z" fill="#00d9ff" stroke="none" stroke-width="0"/><g fill="#a7a7a7" stroke="none" stroke-width="0"><path d="M193.50004,167.5v-93h12v93z"/><path d="M217.50004,167.5v-93h12v93z"/><path d="M239.50004,167.5v-93h12v93z"/><path d="M263.50004,167.5v-93h12v93z"/></g><path d="M197.50004,167.5v-93h12v93z" fill="#cecece" stroke="none" stroke-width="0"/><path d="M221.50004,167.5v-93h12v93z" fill="#cecece" stroke="none" stroke-width="0"/><path d="M243.50004,167.5v-93h12v93z" fill="#cecece" stroke="none" stroke-width="0"/><path d="M267.50004,167.5v-93h12v93z" fill="#cecece" stroke="none" stroke-width="0"/><path d="M413.50004,412.5v-91h65v91z" fill="#9f9f9f" stroke="none" stroke-width="0"/><path d="" fill="#000000" stroke="none" stroke-width="0.5"/><path d="M329.76215,233.94373c7.69326,0 13.92988,12.79863 13.92988,28.58653c0,15.7879 -6.23662,28.58653 -13.92988,28.58653c-7.69326,0 -13.92988,-12.79863 -13.92988,-28.58653c0,-15.7879 6.23662,-28.58653 13.92988,-28.58653z" data-paper-data="{&quot;index&quot;:null}" fill="#ff0000" stroke="#000000" stroke-width="5"/><path d="M297.27871,270.18468c5.41873,0 9.81148,4.25759 9.81148,9.50959c0,5.252 -4.39275,9.50959 -9.81148,9.50959c-5.41873,0 -9.81148,-4.25759 -9.81148,-9.50959c0,-5.252 4.39275,-9.50959 9.81148,-9.50959z" data-paper-data="{&quot;index&quot;:null}" fill="#ff0000" stroke="#000000" stroke-width="5"/><path d="M348.94536,303.08549c6.08771,0 11.02277,2.87427 11.02277,6.41986c0,3.54559 -4.93506,6.41986 -11.02277,6.41986c-6.08771,0 -11.02277,-2.87427 -11.02277,-6.41986c0,-3.54559 4.93506,-6.41986 11.02277,-6.41986z" data-paper-data="{&quot;index&quot;:null}" fill="#ff0000" stroke="#000000" stroke-width="5"/><path d="M317.26777,299.72665c6.08771,0 11.02277,2.87426 11.02277,6.41985c0,3.54559 -4.93506,6.41985 -11.02277,6.41985c-6.0877,0 -11.02277,-2.87426 -11.02277,-6.41985c0,-3.54559 4.93506,-6.41985 11.02277,-6.41985z" data-paper-data="{&quot;index&quot;:null}" fill="#ff0000" stroke="#000000" stroke-width="5"/><path d="M-143.06152,451.03904v-481.89639l186.62162,-52.55256c0,0 11.37615,271.22744 14.92661,355.87674c1.96947,46.95554 4.59291,109.50315 4.59291,109.50315z" fill="#9f9f9f" stroke="none" stroke-width="0"/><path d="M-127.17312,387.96116l-23.49173,-364.80954l188.75097,-13.62629l23.49173,364.80954z" fill="#b5b5b5" stroke="none" stroke-width="0"/><g stroke="none" stroke-width="0"><g fill="#a7a7a7"><path d="M-80.97898,385.47452l-23.38326,-363.12507l18.45203,-1.33209l23.38326,363.12507z"/><path d="M-44.07493,382.81034l-23.38326,-363.12507l18.45203,-1.33209l23.38326,363.12507z"/><path d="M-10.24621,380.36819l-23.38326,-363.12507l18.45203,-1.33209l23.38326,363.12507z"/><path d="M26.65786,377.70401l-23.38326,-363.12507l18.45203,-1.33209l23.38326,363.12507z"/></g><path d="M-74.82831,385.03049l-23.38326,-363.12507l18.45203,-1.33209l23.38326,363.12507z" fill="#cecece"/><path d="M-37.92425,382.36632l-23.38326,-363.12507l18.45203,-1.33209l23.38326,363.12507z" fill="#cecece"/><path d="M-4.09555,379.92416l-23.38326,-363.12507l18.45203,-1.33209l23.38326,363.12507z" fill="#cecece"/><path d="M32.8085,377.25999l-23.38326,-363.12507l18.45203,-1.33209l23.38326,363.12507z" fill="#cecece"/></g><g><g fill="#7c7c7c" stroke="none"><path d="M421.39245,277.00119l-60.34345,4.81912l-0.96382,-12.0687l60.34345,-4.81912z" stroke-width="0"/><path d="M360.30176,269.76783c2.79431,-0.22316 5.27853,2.33806 5.54867,5.72064c0.27014,3.38258 -1.7761,6.30561 -4.57041,6.52877c-2.79431,0.22316 -5.27852,-2.33806 -5.54867,-5.72064c-0.27014,-3.38258 1.7761,-6.30561 4.57041,-6.52877z" stroke-width="0"/><path d="M431.76035,250.12556c3.65806,-0.29214 0.87096,1.85349 1.38247,4.49587c0.71209,3.67856 1.19864,9.36781 1.67712,15.35903c0.48127,6.0263 0.70649,12.3735 0.51287,15.51354c-0.13714,2.22414 3.03308,1.62262 -0.59515,1.91238c-8.75059,0.69884 -16.51083,-7.08023 -17.33299,-17.37505c-0.82216,-10.29482 5.6051,-19.20693 14.35569,-19.90576z" stroke-width="0"/><path d="M432.51844,250.66977c0.28223,-0.02254 0.49094,0.04121 0.64513,0.1442c1.34153,0.49797 2.70359,0.47297 4.07266,0.88129c1.50554,0.44903 2.45737,1.55213 4.04486,1.78541c1.83599,0.2698 3.43743,-0.24371 5.34842,0.3681c4.75675,-0.44446 5.54972,3.0901 7.86344,6.26145c1.63013,2.23438 4.25615,2.67106 5.60566,5.35574c2.14725,4.27168 -1.94559,9.05365 -5.3329,11.09819c-2.4351,0.80709 -3.75718,2.51834 -5.60005,4.07204c-1.19966,1.0114 -2.69035,1.42418 -4.07864,2.05479c-3.03849,1.3802 -5.81755,3.25992 -8.93296,4.489c-0.02383,0.28336 -0.16483,0.86164 -0.91425,0.92149c-0.70887,0.05661 -0.9539,-0.43114 -1.03631,-0.71764c-0.12036,-0.10323 -0.22667,-0.25403 -0.29987,-0.4715c-0.14933,-0.44364 -0.02108,-0.74952 0.1576,-0.94939c-0.61577,-7.05554 -1.66523,-14.19795 -2.23807,-21.37093c-0.30934,-3.87342 -1.70383,-8.00359 -0.10721,-11.74549l-0.02126,-0.20386c-0.27552,-0.09335 -0.58325,-0.31817 -0.62604,-0.85392c-0.07961,-0.99683 0.91722,-1.07644 0.91722,-1.07644l0.26372,0.00724c0.07954,-0.02454 0.16878,-0.04178 0.26886,-0.04977z" stroke-width="0.5"/><path d="M337.07161,282.8786l0.01289,0.1614c1.99912,2.55745 5.2033,4.09407 8.68124,3.81632c5.50532,-0.43966 9.61185,-5.25902 9.17218,-10.76435c-0.43966,-5.50532 -5.25902,-9.61185 -10.76435,-9.17218c-3.66634,0.2928 -6.7123,2.52803 -8.20828,5.6147c-0.1514,3.23073 1.03826,6.81741 0.83231,10.11973c0.05545,0.07843 0.112,0.15601 0.16961,0.23271zM359.07244,279.94477c-0.51144,1.31278 -0.56837,2.18888 -1.53695,3.34885c0,0 -0.46364,0.54412 -1.06695,0.32026c-0.14971,0.16651 -0.2845,0.33515 -0.39346,0.50836c-2.77525,4.41158 -7.407,5.33582 -12.21504,6.71624c-2.19704,0.12393 -4.31772,1.13185 -6.71259,1.07694c-0.59973,-0.01375 -1.41458,0.31459 -1.79335,-0.15061c-0.9396,-1.154 -0.7064,-5.1661 -0.82591,-6.66251c-0.44333,-5.55127 -0.88666,-11.10255 -1.33,-16.65383c-0.02418,-0.30274 -0.29134,-2.94362 -0.08591,-3.23546c1.52229,-2.16258 5.37014,-1.15531 7.46317,-1.82266c6.15047,-1.96103 11.80988,-0.16266 16.70863,3.98465c2.24079,1.42085 3.22705,2.28053 4.11247,4.77508c1.22633,2.62642 -1.30734,5.18476 -2.32413,7.79467z" stroke-width="0.5"/></g><path d="M348.22124,268.51619c5.41873,0 9.81148,4.25759 9.81148,9.50959c0,5.252 -4.39275,9.50959 -9.81148,9.50959c-5.41873,0 -9.81148,-4.25759 -9.81148,-9.50959c0,-5.252 4.39275,-9.50959 9.81148,-9.50959z" data-paper-data="{&quot;index&quot;:null}" fill="#ff0000" stroke="#000000" stroke-width="5"/></g><path d="M414.50004,323.5v-163h65v163z" fill="#595959" stroke="none" stroke-width="0"/><g><path d="M325.01458,186.24298c11.38105,0 20.60719,9.64081 20.60719,21.53336c0,11.89255 -9.22615,21.53336 -20.60719,21.53336c-11.38105,0 -20.6072,-9.64081 -20.6072,-21.53336c0,-11.89255 9.22616,-21.53336 20.6072,-21.53336z" data-paper-data="{&quot;index&quot;:null}" fill="#d29460" stroke="#000000" stroke-width="2"/><path d="M322.75988,186.38954c1.7985,-0.03466 7.23539,-1.23033 8.69874,0.56618c1.19553,1.46772 9.95755,3.73715 10.33325,7.33322c0.45485,-0.088 0.82342,-0.00141 1.06758,0.32413c0.89578,1.19438 -1.38708,2.19145 -2.02353,2.63529c-2.51002,1.75042 -5.07661,4.51493 -7.79883,5.8044c-3.32701,1.57595 -1.93333,-3.09904 -2.24521,-3.12778c-2.11883,-0.19523 -4.99681,1.22268 -7.23571,1.28156c-4.36122,0.11469 -8.46442,-0.26607 -12.80749,-0.34641c-0.55121,-0.0102 -3.3739,0.11064 -3.78499,-0.60877c-0.29474,-0.17395 -0.49247,-0.49479 -0.49247,-0.86182c0,-0.49706 0.36266,-0.90942 0.83781,-0.98691c1.37581,-6.33275 9.22971,-11.89321 15.45085,-12.01309z" fill="#000000" stroke="none" stroke-width="0.5"/><path d="M339.57595,219.1517c-1.529,0 -1.529,-1.668 -1.529,-1.668l0.01536,-0.00239c-0.32867,-2.52058 -0.34301,-4.96093 -0.34301,-7.50361c0,0 0,-1.668 1.529,-1.668c1.529,0 1.529,1.668 1.529,1.668c0,2.38598 0.00134,4.66817 0.31227,7.03182l0.01536,0.47418c0,0 0,1.668 -1.529,1.668z" fill="#000000" stroke="none" stroke-width="0.5"/><path d="M334.90928,218.81837c-1.529,0 -1.529,-1.668 -1.529,-1.668l0.01536,-0.00239c-0.32867,-2.52058 -0.34301,-4.96093 -0.34301,-7.50361c0,0 0,-1.668 1.529,-1.668c1.529,0 1.529,1.668 1.529,1.668c0,2.38598 0.00134,4.66817 0.31227,7.03182l0.01536,0.47418c0,0 0,1.668 -1.529,1.668z" fill="#000000" stroke="none" stroke-width="0.5"/></g></g></g></svg>