<svg version="1.1" xmlns="http://www.w3.org/2000/svg" xmlns:xlink="http://www.w3.org/1999/xlink" width="834.83872" height="471.88791" viewBox="0,0,834.83872,471.88791"><g transform="translate(133.57954,66.87298)"><g data-paper-data="{&quot;isPaintingLayer&quot;:true}" fill-rule="nonzero" stroke-linejoin="miter" stroke-miterlimit="10" stroke-dasharray="" stroke-dashoffset="0" style="mix-blend-mode: normal"><path d="M188.19819,73.61111v-91.59159h64.56456v91.59159z" fill="#000000" stroke="#000000" stroke-width="4" stroke-linecap="butt"/><path d="M242.1285,402.95939l-12.81692,-454.89861l457.07516,-12.87823l12.81691,454.89861z" fill="#4c4c4c" stroke="#000000" stroke-width="4" stroke-linecap="butt"/><path d="M-127.40058,375.26898l-4.158,-421.86092l317.03724,17.80945l4.158,421.86092z" fill="#4c4c4c" stroke="#000000" stroke-width="4" stroke-linecap="butt"/><path d="M120.63063,374.44444l66.06607,-306.30631l48.04805,-3.003l178.67868,306.30631z" fill="#9a9a9a" stroke="#000000" stroke-width="2" stroke-linecap="butt"/><path d="M-0.99099,77.14715v-7.50751h3.003v7.50751z" fill="#9a9a9a" stroke="#000000" stroke-width="2" stroke-linecap="butt"/><path d="M138.64865,287.35736l214.71471,-18.01802" fill="none" stroke="#000000" stroke-width="2" stroke-linecap="round"/><path d="M315.82583,206.27627l-160.66066,16.51652" fill="none" stroke="#000000" stroke-width="2" stroke-linecap="round"/><path d="M167.17718,156.72673l112.61261,-13.51351" fill="none" stroke="#000000" stroke-width="2" stroke-linecap="round"/><path d="M179.18919,95.16517l69.06907,-4.5045" fill="none" stroke="#000000" stroke-width="2" stroke-linecap="round"/><path d="M128.13814,353.42342l261.26126,-22.52252" fill="none" stroke="#000000" stroke-width="2" stroke-linecap="round"/><g stroke="#000000" stroke-width="0" stroke-linecap="butt"><path d="M162.77645,3.39317l-2.94257,-12.02508l86.8191,-2.19369l2.94257,12.02508z" fill="#999999"/><path d="M162.70612,-6.31338l-0.3942,-1.61095l82.07997,-2.07395l0.3942,1.61095z" fill="#000000"/><path d="M163.06086,-3.49734l-0.3942,-1.61095l82.07998,-2.07395l0.3942,1.61095z" fill="#000000"/><path d="M165.0546,-0.81533l-0.3942,-1.61094l81.08306,-2.04876l0.3942,1.61094z" fill="#000000"/><path d="M165.07702,2.00911l-0.3942,-1.61094l82.07998,-2.07395l0.3942,1.61094z" fill="#000000"/></g><path d="M159.66966,281.54142c0,-43.95059 35.62899,-79.57958 79.57958,-79.57958c43.95059,0 79.57958,35.62899 79.57958,79.57958c0,43.95059 -35.62899,79.57958 -79.57958,79.57958c-43.95059,0 -79.57958,-35.62899 -79.57958,-79.57958z" fill="#000000" stroke="#3cff00" stroke-width="6" stroke-linecap="butt"/><path d="M258.76877,206.46634v9.00901" fill="none" stroke="#3cff00" stroke-width="6" stroke-linecap="round"/><path d="M213.72372,209.46934v12.01201" fill="none" stroke="#3cff00" stroke-width="6" stroke-linecap="round"/></g></g></svg>