<svg version="1.1" xmlns="http://www.w3.org/2000/svg" xmlns:xlink="http://www.w3.org/1999/xlink" width="692.16488" height="596.24474" viewBox="0,0,692.16488,596.24474"><g transform="translate(150.66485,83.40991)"><g data-paper-data="{&quot;isPaintingLayer&quot;:true}" fill-rule="nonzero" stroke-linecap="butt" stroke-linejoin="miter" stroke-miterlimit="10" stroke-dasharray="" stroke-dashoffset="0" style="mix-blend-mode: normal"><path d="M-45.49997,512.83483v-273h585v273z" fill="#8c8c8c" stroke="none" stroke-width="0"/><path d="M-43.49997,239.5v-273h585v273z" fill="#ababab" stroke="none" stroke-width="0"/><path d="M182.50004,166.5v-93h110v93z" fill="#00d9ff" stroke="none" stroke-width="0"/><g fill="#a7a7a7" stroke="none" stroke-width="0"><path d="M193.50004,167.5v-93h12v93z"/><path d="M217.50004,167.5v-93h12v93z"/><path d="M239.50004,167.5v-93h12v93z"/><path d="M263.50004,167.5v-93h12v93z"/></g><path d="M197.50004,167.5v-93h12v93z" fill="#cecece" stroke="none" stroke-width="0"/><path d="M221.50004,167.5v-93h12v93z" fill="#cecece" stroke="none" stroke-width="0"/><path d="M243.50004,167.5v-93h12v93z" fill="#cecece" stroke="none" stroke-width="0"/><path d="M267.50004,167.5v-93h12v93z" fill="#cecece" stroke="none" stroke-width="0"/><path d="M413.50004,412.5v-91h65v91z" fill="#9f9f9f" stroke="none" stroke-width="0"/><path d="" fill="#000000" stroke="none" stroke-width="0.5"/><path d="M276.76214,232.27706c7.69326,0 13.92988,12.79863 13.92988,28.58653c0,15.7879 -6.23662,28.58653 -13.92988,28.58653c-7.69326,0 -13.92988,-12.79863 -13.92988,-28.58653c0,-15.7879 6.23662,-28.58653 13.92988,-28.58653z" data-paper-data="{&quot;index&quot;:null}" fill="#ff0000" stroke="#000000" stroke-width="5"/><path d="M246.44536,265.68468c5.41873,0 9.81148,4.25759 9.81148,9.50959c0,5.252 -4.39275,9.50959 -9.81148,9.50959c-5.41873,0 -9.81148,-4.25759 -9.81148,-9.50959c0,-5.252 4.39275,-9.50959 9.81148,-9.50959z" data-paper-data="{&quot;index&quot;:null}" fill="#ff0000" stroke="#000000" stroke-width="5"/><path d="M289.94534,299.25216c6.08771,0 11.02277,2.87427 11.02277,6.41986c0,3.54559 -4.93506,6.41986 -11.02277,6.41986c-6.08771,0 -11.02277,-2.87427 -11.02277,-6.41986c0,-3.54559 4.93506,-6.41986 11.02277,-6.41986z" data-paper-data="{&quot;index&quot;:null}" fill="#ff0000" stroke="#000000" stroke-width="5"/><path d="M259.76775,300.55998c6.08771,0 11.02277,2.87426 11.02277,6.41985c0,3.54559 -4.93506,6.41985 -11.02277,6.41985c-6.0877,0 -11.02277,-2.87426 -11.02277,-6.41985c0,-3.54559 4.93506,-6.41985 11.02277,-6.41985z" data-paper-data="{&quot;index&quot;:null}" fill="#ff0000" stroke="#000000" stroke-width="5"/><path d="M-143.06152,451.03904v-481.89639l186.62162,-52.55256c0,0 11.37615,271.22744 14.92661,355.87674c1.96947,46.95554 4.59291,109.50315 4.59291,109.50315z" fill="#9f9f9f" stroke="none" stroke-width="0"/><path d="M-127.17312,387.96116l-23.49173,-364.80954l188.75097,-13.62629l23.49173,364.80954z" fill="#b5b5b5" stroke="none" stroke-width="0"/><g stroke="none" stroke-width="0"><g fill="#a7a7a7"><path d="M-80.97898,385.47452l-23.38326,-363.12507l18.45203,-1.33209l23.38326,363.12507z"/><path d="M-44.07493,382.81034l-23.38326,-363.12507l18.45203,-1.33209l23.38326,363.12507z"/><path d="M-10.24621,380.36819l-23.38326,-363.12507l18.45203,-1.33209l23.38326,363.12507z"/><path d="M26.65786,377.70401l-23.38326,-363.12507l18.45203,-1.33209l23.38326,363.12507z"/></g><path d="M-74.82831,385.03049l-23.38326,-363.12507l18.45203,-1.33209l23.38326,363.12507z" fill="#cecece"/><path d="M-37.92425,382.36632l-23.38326,-363.12507l18.45203,-1.33209l23.38326,363.12507z" fill="#cecece"/><path d="M-4.09555,379.92416l-23.38326,-363.12507l18.45203,-1.33209l23.38326,363.12507z" fill="#cecece"/><path d="M32.8085,377.25999l-23.38326,-363.12507l18.45203,-1.33209l23.38326,363.12507z" fill="#cecece"/></g><g><g fill="#7c7c7c" stroke="none"><path d="M185.64167,282.34238l24.41695,-55.39285l11.07857,4.88343l-24.41695,55.39285z" stroke-width="0"/><path d="M221.02006,232.01583c-1.13067,2.56505 -4.56442,3.53488 -7.6695,2.1662c-3.10507,-1.3687 -4.70565,-4.55764 -3.57497,-7.12272c1.13067,-2.56505 4.5644,-3.5349 7.6695,-2.1662c3.10507,1.3687 4.70565,4.55764 3.57497,7.12272z" stroke-width="0"/><path d="M204.36923,304.23008c-1.48018,3.35796 -2.04476,-0.11377 -4.61306,-0.91855c-3.57543,-1.12033 -8.81321,-3.39407 -14.31293,-5.81827c-5.53191,-2.43844 -11.22458,-5.2546 -13.89599,-6.91625c-1.89218,-1.17696 -2.86841,1.89859 -1.40031,-1.43198c3.54076,-8.0327 14.07206,-11.16756 23.52228,-7.00194c9.45023,4.16562 14.24079,14.0543 10.69999,22.08698z" stroke-width="0"/><path d="M203.53029,304.63879c-0.1142,0.25909 -0.26941,0.41247 -0.43327,0.49924c-1.07534,0.94409 -1.7002,2.15463 -2.70971,3.16553c-1.11017,1.11167 -2.53297,1.42543 -3.49217,2.71168c-1.10938,1.4876 -1.41802,3.14079 -2.86396,4.53197c-1.86792,4.39718 -5.35502,3.41639 -9.24473,3.94643c-2.74049,0.37344 -4.37193,2.47703 -7.37543,2.38965c-4.77899,-0.13904 -7.04351,-6.01187 -7.2341,-9.96381c0.44619,-2.52629 -0.43189,-4.50242 -0.92399,-6.8621c-0.32034,-1.53606 0.02436,-3.04396 0.12873,-4.56518c0.2284,-3.32945 -0.10601,-6.6678 0.29192,-9.99319c-0.23805,-0.15553 -0.68,-0.55427 -0.37675,-1.24219c0.28683,-0.65072 0.83243,-0.63471 1.12371,-0.57116c0.14799,-0.0569 0.33119,-0.07884 0.55735,-0.03998c0.46133,0.07928 0.66962,0.33741 0.76064,0.58958c6.50156,2.80889 13.2855,5.27736 19.87,8.17978c3.55566,1.56732 7.8526,2.30159 10.38734,5.48376l0.18948,0.07813c0.213,-0.19814 0.55701,-0.36217 1.04879,-0.14541c0.91505,0.40334 0.51171,1.3184 0.51171,1.3184l-0.13162,0.22865c-0.01618,0.08165 -0.04338,0.16837 -0.08389,0.26025z" stroke-width="0.5"/><path d="M220.51449,205.34607l-0.14815,-0.06531c-3.20004,0.54472 -6.07403,2.63476 -7.48133,5.82734c-2.22762,5.05365 0.06333,10.95632 5.11698,13.18396c5.05365,2.22762 10.95632,-0.06333 13.18396,-5.11698c1.48352,-3.36555 0.96301,-7.10762 -1.0429,-9.89005c-2.77125,-1.66756 -6.49263,-2.32397 -9.30096,-4.07354c-0.09536,0.01156 -0.19047,0.02447 -0.28533,0.03875zM212.64785,226.10082c-0.91239,-1.07355 -1.65637,-1.53971 -2.21717,-2.94297c0,0 -0.25867,-0.66643 0.22487,-1.09104c-0.07544,-0.21082 -0.15982,-0.40954 -0.26052,-0.58768c-2.56432,-4.53743 -1.17801,-9.05245 -0.10943,-13.93927c0.93434,-1.99233 1.0545,-4.33725 2.24016,-6.41874c0.29693,-0.52125 0.39496,-1.39429 0.98424,-1.50668c1.46179,-0.27882 4.88181,1.8318 6.25548,2.4373c5.09583,2.24624 10.19168,4.49246 15.28755,6.73867c0.27789,0.12251 2.72884,1.14158 2.88811,1.46096c1.18018,2.3667 -1.53364,5.27456 -1.94038,7.43344c-1.19516,6.34393 -5.46552,10.47034 -11.44178,12.81178c-2.31459,1.29719 -3.53951,1.75685 -6.15529,1.35137c-2.89373,-0.16811 -3.94189,-3.61282 -5.75581,-5.74709z" stroke-width="0.5"/></g><path d="M227.85875,221.97901c-2.57343,4.76867 -8.40643,6.61243 -13.02836,4.11819c-4.62194,-2.49426 -6.28256,-8.38199 -3.70914,-13.15066c2.57343,-4.76867 8.40643,-6.61243 13.02836,-4.11819c4.62194,2.49426 6.28256,8.38199 3.70914,13.15066z" data-paper-data="{&quot;index&quot;:null}" fill="#ff0000" stroke="#000000" stroke-width="5"/></g><path d="M414.50004,323.5v-163h65v163z" fill="#595959" stroke="none" stroke-width="0"/><path d="M284.3479,184.90964c11.38105,0 20.60719,9.64081 20.60719,21.53336c0,11.89255 -9.22615,21.53336 -20.60719,21.53336c-11.38105,0 -20.6072,-9.64081 -20.6072,-21.53336c0,-11.89255 9.22616,-21.53336 20.6072,-21.53336z" data-paper-data="{&quot;index&quot;:null}" fill="#d29460" stroke="#000000" stroke-width="2"/><path d="M282.0932,185.0562c1.7985,-0.03466 7.23539,-1.23033 8.69874,0.56618c1.19553,1.46772 9.95755,3.73715 10.33325,7.33322c0.45485,-0.088 0.82342,-0.00141 1.06758,0.32413c0.89578,1.19438 -1.38708,2.19145 -2.02353,2.63529c-2.51002,1.75042 -5.07661,4.51493 -7.79883,5.8044c-3.32701,1.57595 -1.93333,-3.09904 -2.24521,-3.12778c-2.11883,-0.19523 -4.99681,1.22268 -7.23571,1.28156c-4.36122,0.11469 -8.46442,-0.26607 -12.80749,-0.34641c-0.55121,-0.0102 -3.3739,0.11064 -3.78499,-0.60877c-0.29474,-0.17395 -0.49247,-0.49479 -0.49247,-0.86182c0,-0.49706 0.36266,-0.90942 0.83781,-0.98691c1.37581,-6.33275 9.22971,-11.89321 15.45085,-12.01309z" fill="#000000" stroke="none" stroke-width="0.5"/><path d="M269.40927,215.81836c-1.529,0 -1.529,-1.668 -1.529,-1.668l0.01536,-0.00239c-0.32867,-2.52058 -0.34301,-4.96093 -0.34301,-7.50361c0,0 0,-1.668 1.529,-1.668c1.529,0 1.529,1.668 1.529,1.668c0,2.38598 0.00134,4.66817 0.31227,7.03182l0.01536,0.47418c0,0 0,1.668 -1.529,1.668z" fill="#000000" stroke="none" stroke-width="0.5"/><path d="M273.7426,215.48503c-1.529,0 -1.529,-1.668 -1.529,-1.668l0.01536,-0.00239c-0.32867,-2.52058 -0.34301,-4.96093 -0.34301,-7.50361c0,0 0,-1.668 1.529,-1.668c1.529,0 1.529,1.668 1.529,1.668c0,2.38598 0.00134,4.66817 0.31227,7.03182l0.01536,0.47418c0,0 0,1.668 -1.529,1.668z" fill="#000000" stroke="none" stroke-width="0.5"/></g></g></svg>