<svg version="1.1" xmlns="http://www.w3.org/2000/svg" xmlns:xlink="http://www.w3.org/1999/xlink" width="585" height="613.04035" viewBox="0,0,585,613.04035"><g transform="translate(41.49996,26.70551)"><g data-paper-data="{&quot;isPaintingLayer&quot;:true}" fill-rule="nonzero" stroke-linejoin="miter" stroke-miterlimit="10" stroke-dasharray="" stroke-dashoffset="0" style="mix-blend-mode: normal"><path d="M-22.76271,406.72692v-432.43243h545.04505v432.43243z" fill="#cbcbcb" stroke="#ffffff" stroke-width="2" stroke-linecap="butt"/><path d="M-41.49996,586.33485v-279.00601h585v279.00601z" fill="#8c8c8c" stroke="none" stroke-width="0" stroke-linecap="butt"/><path d="M60.29919,313.85696v-172h57v172z" fill="#636363" stroke="#000000" stroke-width="0.5" stroke-linecap="butt"/><path d="M115.79769,315.35848v-172h57v172z" fill="#636363" stroke="#000000" stroke-width="0.5" stroke-linecap="butt"/><path d="M115.11417,249.68477c0,5.39017 -4.36959,9.75976 -9.75976,9.75976c-5.39017,0 -9.75976,-4.36959 -9.75976,-9.75976c0,-5.39017 4.36959,-9.75976 9.75976,-9.75976c5.39017,0 9.75976,4.36959 9.75976,9.75976z" fill="#c4c4c4" stroke="#000000" stroke-width="0.5" stroke-linecap="butt"/><path d="M126.37543,241.42656c4.56091,0 8.25826,4.03347 8.25826,9.00901c0,4.97554 -3.69735,9.00901 -8.25826,9.00901c-4.56091,0 -8.25826,-4.03347 -8.25826,-9.00901c0,-4.97554 3.69735,-9.00901 8.25826,-9.00901z" fill="#c4c4c4" stroke="#000000" stroke-width="0.5" stroke-linecap="butt"/><path d="M211.21027,354.03915v-40.54054h76.57658v40.54054z" fill="#c0c0c0" stroke="none" stroke-width="0" stroke-linecap="butt"/><path d="M270.76732,321.00605c0,2.5 -2.5,2.5 -2.5,2.5c-15.01502,0 -33.03303,0 -48.04805,0c0,0 -2.5,0 -2.5,-2.5c0,-2.5 2.5,-2.5 2.5,-2.5c15.01502,0 30.03003,0 45.04505,0h3.003c0,0 2.5,0 2.5,2.5z" fill="#474747" stroke="none" stroke-width="0.5" stroke-linecap="butt"/><path d="M276.77333,331.51662c0,2.5 -2.5,2.5 -2.5,2.5h-1.5015c-4.37785,0 -8.95001,-0.35287 -13.30765,-0.00849c-3.03988,0.24024 -5.98502,1.2504 -9.02402,1.5015c-10.86246,0.89753 -21.95452,-1.2677 -32.61754,1.43535c0,0 -2.42536,0.60634 -3.0317,-1.81902c-0.60634,-2.42536 1.81902,-3.0317 1.81902,-3.0317c11.01856,-2.72022 22.22601,-0.64286 33.41849,-1.56765c3.03901,-0.2511 5.98422,-1.26027 9.02402,-1.5015c4.49388,-0.35662 9.20408,-0.00849 13.71938,-0.00849h1.5015c0,0 2.5,0 2.5,2.5z" fill="#474747" stroke="none" stroke-width="0.5" stroke-linecap="butt"/><path d="M273.77033,343.52868c0,2.5 -2.5,2.5 -2.5,2.5h-1.5015c-5.43596,0 -11.45747,-0.67065 -16.82679,0.15857c-1.66186,0.25665 -3.20192,1.09831 -4.86869,1.32085c-1.69403,0.22617 -3.42347,-0.12149 -5.12718,0.01371c-6.42828,0.51014 -12.97446,2.07255 -19.37033,2.98624c0,0 -2.47487,0.35355 -2.82843,-2.12132c-0.35355,-2.47487 2.12132,-2.82843 2.12132,-2.82843c6.4973,-0.92819 13.13788,-2.49437 19.66871,-3.01976c1.61905,-0.13025 3.26295,0.2296 4.87282,0.01371c1.63712,-0.21954 3.14607,-1.06301 4.77956,-1.3081c5.63935,-0.84614 11.87312,-0.21548 17.57902,-0.21548h1.5015c0,0 2.5,0 2.5,2.5z" fill="#474747" stroke="none" stroke-width="0.5" stroke-linecap="butt"/><path d="M347.09634,214.33443c6.47523,13.64985 1.135,29.73866 -11.92777,35.93539c-13.06275,6.19672 -28.90141,0.15478 -35.37664,-13.49507c-6.47523,-13.64984 -1.135,-29.73865 11.92777,-35.93538c13.06275,-6.19672 28.90141,-0.15478 35.37664,13.49507z" data-paper-data="{&quot;index&quot;:null}" fill="#d29460" stroke="#000000" stroke-width="2" stroke-linecap="butt"/><path d="M299.27417,345.51396c0,6.67194 -5.58038,12.08062 -12.46413,12.08062c-6.88375,0 -12.46413,-5.40868 -12.46413,-12.08062c0,-6.67194 5.58038,-12.08062 12.46413,-12.08062c6.88375,0 12.46413,5.40868 12.46413,12.08062z" data-paper-data="{&quot;index&quot;:null}" fill="#ff0000" stroke="#000000" stroke-width="5" stroke-linecap="butt"/><path d="M372.37312,284.26731c5.76171,20.0808 2.50009,38.63551 -7.28503,41.44314c-9.78514,2.80761 -22.38836,-11.19504 -28.15007,-31.27584c-5.76172,-20.0808 -2.5001,-38.6355 7.28502,-41.44313c9.78515,-2.80762 22.38837,11.19504 28.15008,31.27583z" data-paper-data="{&quot;index&quot;:null}" fill="#ff0000" stroke="#000000" stroke-width="5" stroke-linecap="butt"/><path d="M384.41338,347.40609c-0.01168,4.50417 -6.29045,8.13925 -14.02402,8.11919c-7.73357,-0.02006 -13.99338,-3.68769 -13.9817,-8.19186c0.01168,-4.50417 6.29045,-8.13925 14.02402,-8.11919c7.73357,0.02006 13.99338,3.68769 13.9817,8.19186z" data-paper-data="{&quot;index&quot;:null}" fill="#ff0000" stroke="#000000" stroke-width="5" stroke-linecap="butt"/><path d="M433.792,336.60007c0,4.50418 -6.26933,8.15553 -14.00291,8.15553c-7.7336,0 -14.00291,-3.65135 -14.00291,-8.15553c0,-4.50418 6.26931,-8.15553 14.00291,-8.15553c7.7336,0 14.00291,3.65135 14.00291,8.15553z" data-paper-data="{&quot;index&quot;:null}" fill="#ff0000" stroke="#000000" stroke-width="5" stroke-linecap="butt"/><path d="M277.90799,306.10111c6.34179,-2.0728 13.21652,1.55111 15.35512,8.09423c2.13861,6.54311 -1.26875,13.5277 -7.61054,15.60049c-6.34179,2.0728 -13.21652,-1.55111 -15.35512,-8.09423c-2.13861,-6.54311 1.26875,-13.52769 7.61054,-15.60049z" data-paper-data="{&quot;index&quot;:null}" fill="#ff0000" stroke="#000000" stroke-width="5" stroke-linecap="butt"/><text transform="translate(38.53758,130.31544) scale(0.5,0.5)" font-size="40" xml:space="preserve" fill="#ff0000" fill-rule="nonzero" stroke="none" stroke-width="1" stroke-linecap="butt" stroke-linejoin="miter" stroke-miterlimit="10" stroke-dasharray="" stroke-dashoffset="0" font-family="Sans Serif" font-weight="normal" text-anchor="start" style="mix-blend-mode: normal"><tspan x="0" dy="0">EMERGANCY EXIT</tspan></text><path d="M315.0505,200.05768c0.61583,-0.73137 1.27605,-1.41452 2.19439,-1.71454c3.6046,-1.17762 8.38185,0.69547 12.08747,0.72751c3.09612,0.99559 8.16791,2.13298 10.22589,4.78507c0.50351,0.64886 0.35491,1.54581 0.9343,2.17491c0.72807,0.79055 2.19227,-0.42365 2.69245,1.08013c0.17005,0.51125 -1.73965,2.52257 -2.14278,2.92569c-0.80847,1.18376 -2.79811,2.57184 -4.043,3.21742c-1.68822,0.87549 -4.49403,-0.79327 -6.16748,0.20974c-2.08673,1.25071 -3.07974,3.86273 -4.52907,5.85269l0.25955,0.19466l-0.74477,0.99302c-0.13648,0.18614 -0.35674,0.30698 -0.60523,0.30698c-0.41422,0 -0.75,-0.33578 -0.75,-0.75v-1c0,-0.80906 -0.22683,-3.08053 -0.02889,-4.44139c-1.25092,0.82942 -2.53539,1.55392 -3.83524,2.33452c-6.07553,3.64189 -15.85168,3.1501 -22.41442,0.55324c0,0 -0.69636,-0.27854 -0.41781,-0.9749c0.14159,-0.35398 0.39115,-0.45605 0.60232,-0.47084c-0.42228,-1.43148 1.36899,-4.07015 1.98179,-4.9338c1.00346,-1.41423 2.37259,-2.95528 3.9195,-4.34599c1.19331,-1.39127 2.5286,-2.53848 3.88636,-3.15538c1.70592,-0.7751 4.6295,-1.33415 5.68236,-2.98147l0.78863,-0.5048c0,0 0.19297,-0.09649 0.42368,-0.08246z" fill="#000000" stroke="none" stroke-width="0.5" stroke-linecap="butt"/><path d="M305.74256,227.53581c-0.53033,0.3858 -1.06066,0 -1.06066,0l-0.3857,-0.29556c-0.30953,-0.15134 -0.60462,-0.3149 -0.89203,-0.48492c0.05805,0.11372 0.05805,0.21282 0.05805,0.21282c-0.00302,2.20089 1.23439,4.15918 1.25,6.36535v0.18187c0,0 0,0.5456 -0.75,0.5456c-0.75,0 -0.75,-0.5456 -0.75,-0.5456v-0.18187c0.01877,-2.20714 -1.24714,-4.14758 -1.25,-6.36535c0,0 0,-0.5456 0.75,-0.5456c0.05891,0 0.11319,0.00337 0.16321,0.00957c-0.75769,-0.47503 -1.48979,-0.97104 -2.32923,-1.37427c0,0 -0.62404,-0.30265 -0.20801,-0.75661c0.41603,-0.45397 1.04006,-0.15132 1.04006,-0.15132c1.33826,0.6543 2.4067,1.53714 3.75,2.18241l0.6143,0.4319c0,0 0.53033,0.3858 0,0.7716z" fill="#000000" stroke="none" stroke-width="0.5" stroke-linecap="butt"/><path d="M310.74256,226.193c0.53033,0.33316 0,0.66631 0,0.66631c-0.43033,0.27033 -0.99671,0.62614 -1.49841,0.94131l0.46808,0.29605c-0.01849,0.75534 0.65965,1.03021 1.17374,1.67762c0.87755,1.10514 1.41478,2.49766 2.03778,3.6702c0,0 0.23717,0.44698 -0.47434,0.59597c-0.71151,0.14899 -0.94868,-0.29799 -0.94868,-0.29799c-0.83732,-1.58024 -3.10353,-3.82044 -3.27808,-5.47913c-0.02103,0.00063 -0.04245,0.00061 -0.06421,-0.00014l-0.03161,0.09783c0,0 -0.18655,-0.0586 -0.31371,-0.17579c-0.04354,-0.019 -0.08738,-0.04198 -0.13121,-0.06952c-0.53033,-0.33316 0,-0.66631 0,-0.66631c0.58333,-0.36645 1.16667,-0.73291 1.75,-1.09936l0.25,-0.15705c0,0 0.53033,-0.33316 1.06066,0z" fill="#000000" stroke="none" stroke-width="0.5" stroke-linecap="butt"/><g stroke-width="0.5"><path d="M316.96325,249.71733c-0.6533,0.39423 -1.83604,0.79415 -3.01879,-0.3886c-1.48746,-1.48746 -0.47172,-2.97492 -0.11219,-3.40924c-0.37003,-0.659 -0.37004,-1.35853 -0.37004,-1.35853c0.03182,-3.35204 -0.30873,-3.86631 1.25421,-7.09838c2.58558,-5.34684 12.10375,-8.18608 17.65352,-5.981c3.1089,1.23525 5.21618,4.57048 5.76796,7.72438c0.24216,1.38416 0.96528,2.95508 0.32009,4.20338c-1.22066,2.36173 -6.97481,3.72133 -9.39078,4.32731c-2.53976,0.63702 -5.135,1.03678 -7.73503,1.29678c-1.44522,0.28904 -2.90427,0.51569 -4.36895,0.6839z" fill="#ffffff" stroke="none" stroke-linecap="butt"/><path d="M318.71224,233.56094l2.75,15.25" fill="none" stroke="#000000" stroke-linecap="round"/><path d="M322.46224,229.81094l4,17.25" fill="none" stroke="#000000" stroke-linecap="round"/><path d="M326.71224,228.81096l4.75,16.75" fill="none" stroke="#000000" stroke-linecap="round"/><path d="M335.21224,244.56094l-4.25,-13.75" fill="none" stroke="#000000" stroke-linecap="round"/><path d="M313.96224,243.56094l24,-5.75" fill="none" stroke="#000000" stroke-linecap="round"/></g></g></g></svg>