<svg version="1.1" xmlns="http://www.w3.org/2000/svg" xmlns:xlink="http://www.w3.org/1999/xlink" width="629" height="431" viewBox="0,0,629,431"><g transform="translate(78.5,55)"><g data-paper-data="{&quot;isPaintingLayer&quot;:true}" fill-rule="nonzero" stroke-linejoin="miter" stroke-miterlimit="10" stroke-dasharray="" stroke-dashoffset="0" style="mix-blend-mode: normal"><path d="M-55.5,194v-248h570v248z" fill="#2bf0ff" stroke="#000000" stroke-width="2" stroke-linecap="butt"/><path d="M-70.5,214v-23h619v23z" fill="#ffb62c" stroke="#000000" stroke-width="2" stroke-linecap="butt"/><path d="M141,28c0,2.5 -2.5,2.5 -2.5,2.5l-2.59954,-0.03228c-6.82932,2.27644 -14.17414,0.31621 -21.24647,1.03906c-1.6596,0.16962 -3.25206,0.77587 -4.90764,0.98105c-1.72132,0.21333 -3.60409,-0.03255 -5.14797,0.75795c-1.38224,0.70774 -3.3206,1.23026 -3.78868,2.71092c-0.29759,0.94135 0.45404,2.07726 0.01547,2.96177c-0.74885,1.51026 -2.46799,2.34956 -3.35869,3.78075c-0.81756,1.31366 -0.86368,3.01415 -1.68588,4.32491c-0.0185,0.02949 -0.0371,0.05891 -0.05581,0.08826l0.01127,0.00564l-1.97578,3.95156c-0.40086,0.84561 -1.26228,1.43041 -2.26029,1.43041c-1.1246,0 -2.07576,-0.74256 -2.38994,-1.76412l-0.93973,-2.8192c-1.13648,-2.2842 -2.59937,-6.33343 -4.98466,-7.79006c-2.04217,-1.24709 -2.72479,-0.26535 -5.08613,-0.65891c-1.03975,-0.17329 -1.95435,-0.86685 -3,-1c-3.17423,-0.4042 -6.39968,0.03228 -9.59954,0.03228c0,0 -2.5,0 -2.5,-2.5c0,-2.5 2.5,-2.5 2.5,-2.5c0.57552,0 10.05669,-0.00996 10.40046,0.03228c1.04622,0.12856 1.96025,0.82671 3,1c2.31564,0.38594 4.89582,0.14169 6.91387,1.34109c2.75167,1.63542 4.48828,4.97355 5.92692,7.95983c0.26932,-1.36079 0.79247,-2.6802 1.50618,-3.81719c0.73457,-1.17021 2.31673,-1.6951 2.9274,-2.93448c0.44762,-0.90847 -0.4044,-2.11661 0.01547,-3.03823c2.33558,-5.12674 8.39321,-5.95102 13.06335,-6.53112c1.65239,-0.20525 3.2413,-0.81485 4.89816,-0.98011c6.95709,-0.6939 14.25183,1.23219 20.94772,-0.99978l3.40046,-0.03228c0,0 2.5,0 2.5,2.5z" fill="#000000" stroke="none" stroke-width="0.5" stroke-linecap="butt"/><path d="M405,26c0,2.5 -2.5,2.5 -2.5,2.5l-1.39366,-0.07464c-2.42231,0.6044 -4.74441,1.62521 -7.20588,2.04236c-2.93722,0.49778 -5.47251,0.3689 -8.30208,1.77807c-1.19324,0.59425 -2.10869,1.72722 -3.37392,2.14694c-1.72733,0.57301 -3.88162,-0.25386 -5.41013,0.7339c-2.43491,1.57348 -2.52804,5.3892 -7.12567,4.23806c-1.63835,-0.4102 -1.7033,-2.9179 -2.49836,-4.40797c-0.56566,-1.06014 -1.49628,-3.98303 -3.00463,-4.83008c-2.01858,-1.13359 -4.56877,-0.92924 -6.69706,-1.84034c-1.01385,-0.43402 -1.65625,-1.57832 -2.71308,-1.89356c-2.00486,-0.59801 -4.18339,0.10727 -6.27554,0.10727c0,0 -2.5,0 -2.5,-2.5c0,-2.5 2.5,-2.5 2.5,-2.5c1.23993,0 7.2541,-0.0227 7.72446,0.10727c1.25432,0.34659 2.09103,1.59334 3.28692,2.10644c3.10032,1.3302 4.34447,0.31865 7.30294,2.15966c2.30094,1.43184 4.28376,4.73682 4.99537,7.16992c0.1561,0.53371 -1.04124,1.47166 -0.49836,1.59203c0.54699,0.12128 0.26353,-1.12347 0.60369,-1.56867c1.75582,-2.29803 3.24978,-2.97052 6.18452,-3.53436c0.87632,-0.16837 1.82995,0.35871 2.676,0.07499c1.01576,-0.34064 1.66861,-1.37238 2.62608,-1.85306c0.23852,-0.11975 6.47558,-2.18379 6.69792,-2.22193c0.98561,-0.16905 2.01311,0.16142 3,0c2.32593,-0.38045 4.50789,-1.38502 6.79412,-1.95764l2.60634,-0.07464c0,0 2.5,0 2.5,2.5z" fill="#000000" stroke="none" stroke-width="0.5" stroke-linecap="butt"/><path d="M242,43c0,-2.5 2.5,-2.5 2.5,-2.5h1c0.48002,0 6.14144,-0.00949 6.40046,0.03228c1.72442,0.27812 3.41947,0.8862 5.15815,0.96076c2.17588,0.00298 4.98598,0.03662 5.3981,0.19726c1.10045,0.42893 1.70361,1.6415 2.62826,2.37634c1.08882,0.86531 2.54693,1.31883 3.40179,2.41587c1.34444,1.72531 0.99584,4.3389 2.13986,6.20316c0.46283,0.75422 1.41699,1.11206 1.90148,1.85255c0.54766,0.83705 0.98183,1.73957 1.40179,2.65028c0.51722,-1.89732 1.50129,-3.7832 2.30777,-5.15702c1.31658,-2.24278 3.83792,-3.94287 6.00752,-5.19376c5.47819,-3.15849 11.37327,-5.00528 17.5206,-6.23576l2.95258,-0.97664c0,0 2.37467,-0.78163 3.1563,1.59304c0.78163,2.37467 -1.59304,3.1563 -1.59304,3.1563l-3.24161,1.0622c-5.7409,1.14723 -11.14479,2.81939 -16.2852,5.7254c-1.25638,0.71026 -3.49737,2.10216 -4.27857,3.52147c-1.27,2.30738 -1.13756,5.31711 -2.73045,7.41463c-0.06719,0.08848 -0.13584,0.17564 -0.20584,0.26159l0.04018,0.02678l-1.97849,2.96774c-0.44514,0.68925 -1.2201,1.14551 -2.10163,1.14551c-1.18975,0 -2.18539,-0.83109 -2.43804,-1.9444l-0.93753,-3.75012c-0.99549,-1.97907 -2.62536,-3.58183 -3.75106,-5.49116c-1.03065,-1.74812 -0.56125,-4.23766 -1.86014,-5.79684c-0.64924,-0.77935 -1.80923,-0.94662 -2.59821,-1.58413c-0.55109,-0.44529 -0.71843,-1.34945 -1.37174,-1.62366c-0.47897,-0.20103 -0.97861,-0.2858 -1.49095,-0.30087c-0.70745,0.49118 -1.55234,0.49118 -1.55234,0.49118c-0.64457,-0.00612 -1.27709,-0.03454 -1.90156,-0.07817c-0.36932,0.04686 -0.73637,0.07817 -1.09844,0.07817c0,0 -0.60923,0 -1.2262,-0.30075c-2.54651,-0.29479 -5.04079,-0.69925 -7.7738,-0.69925h-1c0,0 -2.5,0 -2.5,-2.5z" fill="#000000" stroke="none" stroke-width="0.5" stroke-linecap="butt"/><path d="M-77.5,375v-165h627v165z" fill="#7d7d7d" stroke="#000000" stroke-width="2" stroke-linecap="butt"/><path d="M13.5,292v-17h147v17z" fill="#ffffff" stroke="#000000" stroke-width="2" stroke-linecap="butt"/><path d="M206.5,290v-17h147v17z" fill="#ffffff" stroke="#000000" stroke-width="2" stroke-linecap="butt"/><path d="M386.5,290v-17h147v17z" fill="#ffffff" stroke="#000000" stroke-width="2" stroke-linecap="butt"/><g><path d="M195.53486,167.64536c-0.66979,-9.08806 6.15456,-16.99834 15.2426,-17.66813c9.08806,-0.66979 16.99834,6.15456 17.66813,15.2426c0.66979,9.08806 -6.15456,16.99834 -15.2426,17.66813c-9.08806,0.66979 -16.99834,-6.15456 -17.66813,-15.2426z" fill="#000000" stroke="#00ff08" stroke-width="2" stroke-linecap="butt"/><path d="M223.40401,162.55503l-0.43379,7.71944" fill="none" stroke="#00ff08" stroke-width="2" stroke-linecap="round"/><path d="M218.9844,161.54381l-0.71722,8.4088" fill="none" stroke="#00ff08" stroke-width="2" stroke-linecap="round"/><path d="M216.03093,157.75063l4.89905,2.98131" fill="none" stroke="#00ff08" stroke-width="2" stroke-linecap="round"/><path d="M220.62927,174.79208c0,0 -2.60576,-1.38412 -3.31967,-2.1667c-0.59913,-0.65676 -1.70191,-2.47676 -1.70191,-2.47676" fill="none" stroke="#00ff08" stroke-width="2" stroke-linecap="round"/><g><path d="M211.31709,185.48484c6.17457,0.69186 9.89627,12.7097 8.31268,26.84257c-1.5836,14.13288 -7.87284,25.02899 -14.04738,24.33713c-6.17457,-0.69186 -9.89627,-12.7097 -8.31268,-26.84257c1.5836,-14.13288 7.87284,-25.02899 14.04738,-24.33713z" fill="#000000" stroke="#00ff08" stroke-width="2" stroke-linecap="butt"/><path d="M175.0296,204.43358c0.92831,-5.44427 6.09431,-9.10517 11.53859,-8.17686c5.44427,0.92831 9.10517,6.09431 8.17686,11.53859c-0.92831,5.44427 -6.09431,9.10517 -11.53859,8.17686c-5.44427,-0.92831 -9.10517,-6.09431 -8.17686,-11.53859z" fill="#000000" stroke="#00ff08" stroke-width="2" stroke-linecap="butt"/><path d="M230.06281,204.14511c0.92831,-5.44427 6.09431,-9.10517 11.53859,-8.17686c5.44427,0.92831 9.10517,6.09431 8.17686,11.53859c-0.92831,5.44427 -6.09431,9.10517 -11.53859,8.17686c-5.44427,-0.92831 -9.10517,-6.09431 -8.17686,-11.53859z" fill="#000000" stroke="#00ff08" stroke-width="2" stroke-linecap="butt"/><path d="M213.20768,248.1021c0.78586,-3.7993 5.84594,-6.23696 11.30199,-5.44468c5.45605,0.79228 9.24198,4.51449 8.45611,8.3138c-0.78586,3.7993 -5.84594,6.23696 -11.30199,5.44468c-5.45605,-0.79228 -9.24198,-4.51449 -8.45611,-8.3138z" fill="#000000" stroke="#00ff08" stroke-width="2" stroke-linecap="butt"/><path d="M184.72871,254.70502c0.78586,-3.7993 5.84594,-6.23696 11.30199,-5.44468c5.45605,0.79228 9.24198,4.51449 8.45611,8.3138c-0.78586,3.7993 -5.84594,6.23696 -11.30199,5.44468c-5.45605,-0.79228 -9.24198,-4.51449 -8.45611,-8.3138z" fill="#000000" stroke="#00ff08" stroke-width="2" stroke-linecap="butt"/><path d="M282.91884,221.62394c-5.88583,10.15342 -14.77272,15.99869 -19.84943,13.05577c-5.07671,-2.94291 -4.4208,-13.55959 1.46503,-23.71301c5.88583,-10.15342 14.77272,-15.99869 19.84943,-13.05577c5.07671,2.94291 4.4208,13.55959 -1.46503,23.71301z" fill="#ff0000" stroke="#000000" stroke-width="2" stroke-linecap="butt"/><path d="M254.90341,194.07004c0.906,-4.04184 4.917,-6.58394 8.95884,-5.67795c4.04184,0.906 6.58394,4.917 5.67795,8.95884c-0.906,4.04184 -4.917,6.58394 -8.95884,5.67795c-4.04184,-0.906 -6.58394,-4.917 -5.67795,-8.95884z" fill="#ff0000" stroke="#000000" stroke-width="2" stroke-linecap="butt"/><path d="M303.94101,215.16165c0.9664,-4.3113 5.24481,-7.02287 9.5561,-6.05648c4.3113,0.9664 7.02287,5.24481 6.05648,9.5561c-0.9664,4.3113 -5.24481,7.02287 -9.5561,6.05648c-4.3113,-0.9664 -7.02287,-5.24481 -6.05648,-9.5561z" fill="#ff0000" stroke="#000000" stroke-width="2" stroke-linecap="butt"/><path d="M262.49138,254.00196c-0.99902,2.64829 -5.6837,3.33348 -10.46355,1.53039c-4.77987,-1.80308 -7.84484,-5.41164 -6.84584,-8.05994c0.99902,-2.64829 5.6837,-3.33348 10.46355,-1.53039c4.77987,1.80308 7.84484,5.41164 6.84584,8.05994z" fill="#ff0000" stroke="#000000" stroke-width="2" stroke-linecap="butt"/><path d="M281.77371,255.27599c3.65009,4.23627 4.786,9.24127 2.53711,11.17897c-2.24888,1.9377 -7.03095,0.07434 -10.68104,-4.16193c-3.65009,-4.23627 -4.786,-9.24127 -2.53711,-11.17897c2.24888,-1.9377 7.03095,-0.07434 10.68104,4.16193z" fill="#ff0000" stroke="#000000" stroke-width="2" stroke-linecap="butt"/><path d="M293.48628,196.51502c-7.15786,-4.17065 -9.57947,-13.35421 -5.40882,-20.51206c4.17065,-7.15786 13.35421,-9.57947 20.51206,-5.40882c7.15786,4.17065 9.57947,13.35421 5.40882,20.51206c-4.17065,7.15786 -13.35421,9.57947 -20.51206,5.40882z" fill="#c19f67" stroke="#000000" stroke-width="2" stroke-linecap="butt"/><path d="M295.14767,181.40367c0.07007,-1.19989 0.4708,-2.55868 0.84299,-3.45609c-0.8496,-0.3093 -1.68071,-0.65785 -2.46476,-1.10477l-1.72806,-1.00689c0,0 -2.16008,-1.25861 -0.90147,-3.41867c0.95111,-1.63235 2.41704,-1.3124 3.07654,-1.05864c0.00595,-0.01057 0.01201,-0.02111 0.01813,-0.03163c0.31962,-0.54854 0.81587,-0.93019 1.37473,-1.11487l2.50745,-0.84317l0.00913,0.02715c0.91171,-0.4706 1.96355,-0.71929 3.48436,-0.66116c1.96562,0.07513 5.58804,0.95652 7.48243,2.8675c2.91341,1.9545 5.19887,5.08253 7.29447,7.59817c0,0 0.88574,1.06353 0.54781,2.26698c0.28138,0.48534 0.40912,1.14187 0.113,2.00588c-0.81054,2.36496 -3.17549,1.55442 -3.17549,1.55442c-2.62961,-0.904 -5.43331,-1.28532 -8.00932,-2.33234c-1.41032,-0.57322 -2.62382,-1.55255 -3.90447,-2.3898c-1.20455,1.32121 -2.37271,2.26441 -4.09093,2.78448c-0.60711,0.18377 -1.31038,0.96973 -1.81194,0.5814c-0.52334,-0.40517 -0.6971,-1.18185 -0.67318,-2.06768c-0.00382,-0.06646 -0.00104,-0.13357 0.00861,-0.20029z" fill="#000000" stroke="none" stroke-width="0.5" stroke-linecap="butt"/><path d="M306.97539,190.75557l2.0852,-4.57186" fill="none" stroke="#ffffff" stroke-width="2" stroke-linecap="round"/><path d="M301.72423,188.58395l2.04948,-4.01398" fill="none" stroke="#ffffff" stroke-width="2" stroke-linecap="round"/><path d="M299.31243,187.75736l0.84704,2.51893" fill="none" stroke="#ffffff" stroke-width="1" stroke-linecap="round"/><path d="M306.79683,193.54494l2.64479,-1.06304" fill="none" stroke="#ffffff" stroke-width="1" stroke-linecap="round"/><path d="M303.56115,191.39032c1.07367,0.62559 1.52144,1.85807 1.00011,2.75279c-0.52134,0.89473 -1.81435,1.1129 -2.88802,0.48731c-1.07368,-0.62559 -2.88891,-1.49747 -2.36758,-2.3922c0.52133,-0.89473 3.18182,-1.47349 4.25549,-0.8479z" fill="#000000" stroke="none" stroke-width="0" stroke-linecap="butt"/></g></g></g></g></svg>