<svg version="1.1" xmlns="http://www.w3.org/2000/svg" xmlns:xlink="http://www.w3.org/1999/xlink" width="692.16488" height="595.74474" viewBox="0,0,692.16488,595.74474"><g transform="translate(150.66485,83.40991)"><g data-paper-data="{&quot;isPaintingLayer&quot;:true}" fill-rule="nonzero" stroke-linecap="butt" stroke-linejoin="miter" stroke-miterlimit="10" stroke-dasharray="" stroke-dashoffset="0" style="mix-blend-mode: normal"><path d="M-45.49997,512.33483v-273h585v273z" fill="#8c8c8c" stroke="none" stroke-width="0"/><path d="M-43.49997,239.5v-273h585v273z" fill="#ababab" stroke="none" stroke-width="0"/><path d="M182.50004,166.5v-93h110v93z" fill="#00d9ff" stroke="none" stroke-width="0"/><g fill="#a7a7a7" stroke="none" stroke-width="0"><path d="M193.50004,167.5v-93h12v93z"/><path d="M217.50004,167.5v-93h12v93z"/><path d="M239.50004,167.5v-93h12v93z"/><path d="M263.50004,167.5v-93h12v93z"/></g><path d="M197.50004,167.5v-93h12v93z" fill="#cecece" stroke="none" stroke-width="0"/><path d="M221.50004,167.5v-93h12v93z" fill="#cecece" stroke="none" stroke-width="0"/><path d="M243.50004,167.5v-93h12v93z" fill="#cecece" stroke="none" stroke-width="0"/><path d="M267.50004,167.5v-93h12v93z" fill="#cecece" stroke="none" stroke-width="0"/><path d="M413.50004,412.5v-91h65v91z" fill="#9f9f9f" stroke="none" stroke-width="0"/><path d="" fill="#000000" stroke="none" stroke-width="0.5"/><path d="M276.76214,232.27706c7.69326,0 13.92988,12.79863 13.92988,28.58653c0,15.7879 -6.23662,28.58653 -13.92988,28.58653c-7.69326,0 -13.92988,-12.79863 -13.92988,-28.58653c0,-15.7879 6.23662,-28.58653 13.92988,-28.58653z" data-paper-data="{&quot;index&quot;:null}" fill="#ff0000" stroke="#000000" stroke-width="5"/><path d="M248.94536,267.18468c5.41873,0 9.81148,4.25759 9.81148,9.50959c0,5.252 -4.39275,9.50959 -9.81148,9.50959c-5.41873,0 -9.81148,-4.25759 -9.81148,-9.50959c0,-5.252 4.39275,-9.50959 9.81148,-9.50959z" data-paper-data="{&quot;index&quot;:null}" fill="#ff0000" stroke="#000000" stroke-width="5"/><path d="M299.94534,299.75216c6.08771,0 11.02277,2.87427 11.02277,6.41986c0,3.54559 -4.93506,6.41986 -11.02277,6.41986c-6.08771,0 -11.02277,-2.87427 -11.02277,-6.41986c0,-3.54559 4.93506,-6.41986 11.02277,-6.41986z" data-paper-data="{&quot;index&quot;:null}" fill="#ff0000" stroke="#000000" stroke-width="5"/><path d="M263.26775,301.05998c6.08771,0 11.02277,2.87426 11.02277,6.41985c0,3.54559 -4.93506,6.41985 -11.02277,6.41985c-6.0877,0 -11.02277,-2.87426 -11.02277,-6.41985c0,-3.54559 4.93506,-6.41985 11.02277,-6.41985z" data-paper-data="{&quot;index&quot;:null}" fill="#ff0000" stroke="#000000" stroke-width="5"/><path d="M-143.06152,451.03904v-481.89639l186.62162,-52.55256c0,0 11.37615,271.22744 14.92661,355.87674c1.96947,46.95554 4.59291,109.50315 4.59291,109.50315z" fill="#9f9f9f" stroke="none" stroke-width="0"/><path d="M-127.17312,387.96116l-23.49173,-364.80954l188.75097,-13.62629l23.49173,364.80954z" fill="#b5b5b5" stroke="none" stroke-width="0"/><g stroke="none" stroke-width="0"><g fill="#a7a7a7"><path d="M-80.97898,385.47452l-23.38326,-363.12507l18.45203,-1.33209l23.38326,363.12507z"/><path d="M-44.07493,382.81034l-23.38326,-363.12507l18.45203,-1.33209l23.38326,363.12507z"/><path d="M-10.24621,380.36819l-23.38326,-363.12507l18.45203,-1.33209l23.38326,363.12507z"/><path d="M26.65786,377.70401l-23.38326,-363.12507l18.45203,-1.33209l23.38326,363.12507z"/></g><path d="M-74.82831,385.03049l-23.38326,-363.12507l18.45203,-1.33209l23.38326,363.12507z" fill="#cecece"/><path d="M-37.92425,382.36632l-23.38326,-363.12507l18.45203,-1.33209l23.38326,363.12507z" fill="#cecece"/><path d="M-4.09555,379.92416l-23.38326,-363.12507l18.45203,-1.33209l23.38326,363.12507z" fill="#cecece"/><path d="M32.8085,377.25999l-23.38326,-363.12507l18.45203,-1.33209l23.38326,363.12507z" fill="#cecece"/></g><g><g fill="#7c7c7c" stroke="none"><path d="M319.35014,295.10874l2.16929,-60.49669l12.09935,0.43388l-2.16929,60.49669z" stroke-width="0"/><path d="M333.57771,235.25919c-0.10045,2.8014 -2.93098,4.97381 -6.32215,4.85222c-3.39117,-0.12161 -6.05883,-2.49116 -5.95837,-5.29257c0.10045,-2.8014 2.93097,-4.9738 6.32215,-4.85222c3.39117,0.12161 6.05883,2.49116 5.95837,5.29257z" stroke-width="0"/><path d="M344.8514,308.5057c-0.1315,3.66735 -1.94154,0.6515 -4.62527,0.85497c-3.73612,0.2833 -9.44353,0.11074 -15.44997,-0.10462c-6.04161,-0.21664 -12.37244,-0.72461 -15.46925,-1.27892c-2.1935,-0.39262 -1.96146,2.8258 -1.83103,-0.81164c0.31457,-8.77281 8.93637,-15.58456 19.25733,-15.21448c10.32096,0.37009 18.43274,7.78187 18.11815,16.55468z" stroke-width="0"/><path d="M344.22343,309.19601c-0.01014,0.28296 -0.09753,0.48291 -0.21761,0.6242c-0.6493,1.27518 -0.78148,2.63104 -1.3449,3.94391c-0.6196,1.44374 -1.82507,2.26206 -2.23979,3.81207c-0.47965,1.79265 -0.15418,3.44261 -0.98219,5.27033c-0.10685,4.77628 -3.70926,5.1565 -7.12619,7.08921c-2.4074,1.36169 -3.1439,3.91986 -5.96624,4.95089c-4.49074,1.6405 -8.769,-2.9763 -10.40943,-6.57673c-0.521,-2.51192 -2.06843,-4.02244 -3.39933,-6.03213c-0.86637,-1.30826 -1.10455,-2.8366 -1.5709,-4.28832c-1.02072,-3.17734 -2.56755,-6.15456 -3.4293,-9.3909c-0.27872,-0.05633 -0.8369,-0.26306 -0.80995,-1.01438c0.02549,-0.71067 0.53823,-0.89783 0.83232,-0.94667c0.11641,-0.10766 0.27846,-0.19587 0.50292,-0.24352c0.4579,-0.09719 0.74696,0.06547 0.92489,0.266c7.07949,0.20169 14.29526,-0.01741 21.48646,0.24045c3.88326,0.13924 8.14665,-0.76983 11.67955,1.24751l0.20494,0.00239c0.12449,-0.26292 0.38329,-0.54268 0.9204,-0.52343c0.99936,0.03583 0.96353,1.0352 0.96353,1.0352l-0.03759,0.26113c0.01521,0.08183 0.02205,0.17247 0.01845,0.27281z" stroke-width="0.5"/><path d="M323.23227,210.67252l-0.16181,-0.00581c-2.77085,1.69097 -4.6666,4.69666 -4.79164,8.18342c-0.1979,5.51929 4.11593,10.15402 9.63524,10.35193c5.51929,0.1979 10.15402,-4.11593 10.35193,-9.63524c0.1318,-3.67565 -1.7374,-6.95897 -4.63104,-8.80081c-3.19174,-0.52283 -6.89164,0.24544 -10.14821,-0.33982c-0.0843,0.04604 -0.16788,0.09326 -0.2507,0.14165zM323.61033,232.86488c-1.24506,-0.65937 -2.10877,-0.81691 -3.14935,-1.91275c0,0 -0.48706,-0.52328 -0.19512,-1.09675c-0.14814,-0.1679 -0.30012,-0.32124 -0.45961,-0.44943c-4.06225,-3.2653 -4.44638,-7.97272 -5.26334,-12.90784c0.13017,-2.19668 -0.62655,-4.41941 -0.29594,-6.79199c0.0828,-0.59415 -0.14942,-1.44142 0.35635,-1.76403c1.25462,-0.8003 5.21308,-0.10615 6.71331,-0.05235c5.56536,0.19957 11.13074,0.39913 16.69612,0.59868c0.3035,0.01089 2.95758,0.04994 3.2238,0.28764c1.97267,1.76144 0.52855,5.46752 0.95016,7.62353c1.23895,6.33553 -1.19984,11.7499 -5.88422,16.1379c-1.6697,2.06207 -2.63733,2.94264 -5.21732,3.5346c-2.75028,0.91539 -4.99949,-1.89632 -7.47478,-3.20719z" stroke-width="0.5"/></g><path d="M336.21363,223.40349c-0.62466,5.38261 -5.36025,9.25527 -10.57724,8.64982c-5.21699,-0.60544 -8.9398,-5.45971 -8.31515,-10.84232c0.62466,-5.38261 5.36025,-9.25527 10.57724,-8.64982c5.21699,0.60544 8.9398,5.45971 8.31515,10.84232z" data-paper-data="{&quot;index&quot;:null}" fill="#ff0000" stroke="#000000" stroke-width="5"/></g><path d="M414.50004,323.5v-163h65v163z" fill="#595959" stroke="none" stroke-width="0"/><path d="M284.3479,184.90964c11.38105,0 20.60719,9.64081 20.60719,21.53336c0,11.89255 -9.22615,21.53336 -20.60719,21.53336c-11.38105,0 -20.6072,-9.64081 -20.6072,-21.53336c0,-11.89255 9.22616,-21.53336 20.6072,-21.53336z" data-paper-data="{&quot;index&quot;:null}" fill="#d29460" stroke="#000000" stroke-width="2"/><path d="M282.0932,185.0562c1.7985,-0.03466 7.23539,-1.23033 8.69874,0.56618c1.19553,1.46772 9.95755,3.73715 10.33325,7.33322c0.45485,-0.088 0.82342,-0.00141 1.06758,0.32413c0.89578,1.19438 -1.38708,2.19145 -2.02353,2.63529c-2.51002,1.75042 -5.07661,4.51493 -7.79883,5.8044c-3.32701,1.57595 -1.93333,-3.09904 -2.24521,-3.12778c-2.11883,-0.19523 -4.99681,1.22268 -7.23571,1.28156c-4.36122,0.11469 -8.46442,-0.26607 -12.80749,-0.34641c-0.55121,-0.0102 -3.3739,0.11064 -3.78499,-0.60877c-0.29474,-0.17395 -0.49247,-0.49479 -0.49247,-0.86182c0,-0.49706 0.36266,-0.90942 0.83781,-0.98691c1.37581,-6.33275 9.22971,-11.89321 15.45085,-12.01309z" fill="#000000" stroke="none" stroke-width="0.5"/><path d="M292.40927,215.31836c-1.529,0 -1.529,-1.668 -1.529,-1.668l0.01536,-0.00239c-0.32867,-2.52058 -0.34301,-4.96093 -0.34301,-7.50361c0,0 0,-1.668 1.529,-1.668c1.529,0 1.529,1.668 1.529,1.668c0,2.38598 0.00134,4.66817 0.31227,7.03182l0.01536,0.47418c0,0 0,1.668 -1.529,1.668z" fill="#000000" stroke="none" stroke-width="0.5"/><path d="M287.2426,214.98503c-1.529,0 -1.529,-1.668 -1.529,-1.668l0.01536,-0.00239c-0.32867,-2.52058 -0.34301,-4.96093 -0.34301,-7.50361c0,0 0,-1.668 1.529,-1.668c1.529,0 1.529,1.668 1.529,1.668c0,2.38598 0.00134,4.66817 0.31227,7.03182l0.01536,0.47418c0,0 0,1.668 -1.529,1.668z" fill="#000000" stroke="none" stroke-width="0.5"/></g></g></svg>