<svg version="1.1" xmlns="http://www.w3.org/2000/svg" xmlns:xlink="http://www.w3.org/1999/xlink" width="629.62763" height="444.94293" viewBox="0,0,629.62763,444.94293"><g transform="translate(67.30631,26.70565)"><g data-paper-data="{&quot;isPaintingLayer&quot;:true}" fill-rule="nonzero" stroke-linecap="butt" stroke-linejoin="miter" stroke-miterlimit="10" stroke-dasharray="" stroke-dashoffset="0" style="mix-blend-mode: normal"><path d="M-22.76276,406.72678v-432.43243h545.04505v432.43243z" fill="#d6d6d6" stroke="#000000" stroke-width="2"/><path d="M-66.30631,417.23728v-177.17718h627.62763v177.17718z" fill="#949494" stroke="#000000" stroke-width="2"/><path d="M182.94294,155.976v-114.11411h132.13213v114.11411z" fill="#98d7ff" stroke="#000000" stroke-width="2"/><path d="M200.96099,157.4775v-112.61261h10.51051v112.61261z" fill="#848484" stroke="#000000" stroke-width="2"/><path d="M220.48049,157.4775v-115.61562h10.51051v115.61562z" fill="#848484" stroke="#000000" stroke-width="2"/><path d="M241.50152,157.4775v-112.61261h10.51051v112.61261z" fill="#848484" stroke="#000000" stroke-width="2"/><path d="M265.52554,157.4775v-114.11411h7.50751v114.11411z" fill="#848484" stroke="#000000" stroke-width="2"/><path d="M285.2675,158.97901v-114.11411h10.56612v114.11411z" fill="#848484" stroke="#000000" stroke-width="2"/><path d="M306.78042,166.749c11.38105,0 20.60719,9.64081 20.60719,21.53336c0,11.89255 -9.22615,21.53336 -20.60719,21.53336c-11.38105,0 -20.6072,-9.64081 -20.6072,-21.53336c0,-11.89255 9.22616,-21.53336 20.6072,-21.53336z" data-paper-data="{&quot;index&quot;:null}" fill="#d29460" stroke="#000000" stroke-width="2"/><path d="M278.48893,252.72222c5.41873,0 9.81148,4.25759 9.81148,9.50959c0,5.252 -4.39275,9.50959 -9.81148,9.50959c-5.41873,0 -9.81148,-4.25759 -9.81148,-9.50959c0,-5.252 4.39275,-9.50959 9.81148,-9.50959z" data-paper-data="{&quot;index&quot;:null}" fill="#ff0000" stroke="#000000" stroke-width="5"/><path d="M309.412,222.20932c7.66462,-0.6632 14.98133,11.55014 16.34234,27.27927c1.36101,15.72913 -3.74908,29.01774 -11.4137,29.68094c-7.66462,0.6632 -14.98133,-11.55014 -16.34235,-27.27927c-1.36101,-15.72913 3.74908,-29.01774 11.41371,-29.68094z" data-paper-data="{&quot;index&quot;:null}" fill="#ff0000" stroke="#000000" stroke-width="5"/><path d="M341.38395,297.41883c6.08771,0 11.02277,2.87427 11.02277,6.41986c0,3.54559 -4.93506,6.41986 -11.02277,6.41986c-6.08771,0 -11.02277,-2.87427 -11.02277,-6.41986c0,-3.54559 4.93506,-6.41986 11.02277,-6.41986z" data-paper-data="{&quot;index&quot;:null}" fill="#ff0000" stroke="#000000" stroke-width="5"/><path d="M308.02457,298.38731c6.08771,0 11.02277,2.87426 11.02277,6.41985c0,3.54559 -4.93506,6.41985 -11.02277,6.41985c-6.0877,0 -11.02277,-2.87426 -11.02277,-6.41985c0,-3.54559 4.93506,-6.41985 11.02277,-6.41985z" data-paper-data="{&quot;index&quot;:null}" fill="#ff0000" stroke="#000000" stroke-width="5"/><path d="M303.5257,166.89708c1.7985,-0.03466 7.23539,-1.23033 8.69874,0.56618c1.19553,1.46772 9.95755,3.73715 10.33325,7.33322c0.45485,-0.088 0.82342,-0.00141 1.06758,0.32413c0.89578,1.19438 -1.38708,2.19145 -2.02353,2.63529c-2.51002,1.75042 -5.07661,4.51493 -7.79883,5.8044c-3.32701,1.57595 -1.93333,-3.09904 -2.24521,-3.12778c-2.11883,-0.19523 -4.99681,1.22268 -7.23571,1.28156c-4.36122,0.11469 -8.46442,-0.26607 -12.80749,-0.34641c-0.55121,-0.0102 -3.3739,0.11064 -3.78499,-0.60877c-0.29474,-0.17395 -0.49247,-0.49479 -0.49247,-0.86182c0,-0.49706 0.36266,-0.90942 0.83781,-0.98691c1.37581,-6.33275 9.22971,-11.89321 15.45085,-12.01309z" fill="#000000" stroke="none" stroke-width="0.5"/><g fill="#000000" stroke="none" stroke-width="0.5"><path d="M292.04276,194.1358c-1.668,0 -1.668,-1.668 -1.668,-1.668l0.01463,-0.37527c-0.34511,-2.59248 -0.61035,-4.98782 -0.61035,-7.60731c0,0 0,-1.668 1.668,-1.668c1.668,0 1.668,1.668 1.668,1.668c0,2.47742 0.25351,4.71337 0.58108,7.16641l0.01463,0.81616c0,0 0,1.668 -1.668,1.668z"/><path d="M297.52335,193.65925c-1.668,0 -1.668,-1.668 -1.668,-1.668l0.01676,-0.00239c-0.35855,-2.52058 -0.37419,-4.96093 -0.37419,-7.50361c0,0 0,-1.668 1.668,-1.668c1.668,0 1.668,1.668 1.668,1.668c0,2.38598 0.00146,4.66817 0.34066,7.03182l0.01676,0.47418c0,0 0,1.668 -1.668,1.668z"/><path d="M304.67193,200.8078c0,1.668 -1.668,1.668 -1.668,1.668l-1.42941,-0.00424c-1.8419,-0.15079 -3.1094,0.24488 -4.89108,0.77046c0,0 -1.60022,0.47065 -2.07088,-1.12957c-0.47065,-1.60022 1.12957,-2.07088 1.12957,-2.07088c2.15042,-0.63072 3.82916,-1.03976 6.07006,-0.89754l1.19173,-0.00424c0,0 1.668,0 1.668,1.668z"/></g><path d="M303.94858,239.75894c-0.54488,5.39127 -5.2226,9.33363 -10.44798,8.80552c-5.22538,-0.52811 -9.01968,-5.32672 -8.4748,-10.71798c0.54488,-5.39127 5.2226,-9.33363 10.44798,-8.80552c5.22538,0.52811 9.01968,5.32672 8.4748,10.71798z" data-paper-data="{&quot;index&quot;:null}" fill="#ff0000" stroke="#000000" stroke-width="5"/><g fill="#7c7c7c" stroke="none"><path d="M163.10052,292.13014l-11.66538,-59.40098l11.88021,-2.33308l11.66538,59.40098z" stroke-width="0"/><path d="M163.32394,230.61312c0.54019,2.75067 -1.7212,5.51062 -5.05095,6.16452c-3.32974,0.65391 -6.46694,-1.04583 -7.00714,-3.7965c-0.54019,-2.75067 1.72123,-5.5106 5.05095,-6.16452c3.32974,-0.65391 6.46694,1.04583 7.00714,3.7965z" stroke-width="0"/><path d="M190.98268,299.36732c0.70717,3.60093 -1.74216,1.07654 -4.30901,1.88588c-3.57342,1.12671 -9.17014,2.25854 -15.06779,3.41674c-5.93217,1.16498 -12.21235,2.11216 -15.354,2.2777c-2.22528,0.11725 -1.26636,3.19826 -1.96775,-0.37329c-1.69162,-8.61392 5.15226,-17.2102 15.2863,-19.20037c10.13403,-1.99016 19.72061,3.37947 21.41225,11.99336z" stroke-width="0"/><path d="M190.52844,300.18248c0.05457,0.27782 0.01502,0.49244 -0.06973,0.65735c-0.34182,1.38954 -0.16175,2.73987 -0.41136,4.14656c-0.27453,1.5469 -1.26193,2.61825 -1.31276,4.222c-0.05879,1.85477 0.63391,3.38724 0.24389,5.35553c0.98371,4.67509 -2.43743,5.86575 -5.3244,8.52585c-2.03404,1.87416 -2.16855,4.53286 -4.68193,6.17955c-3.99911,2.62012 -9.21639,-0.90102 -11.63369,-4.03323c-1.07939,-2.32725 -2.93015,-3.44568 -4.68378,-5.09945c-1.14153,-1.07657 -1.72152,-2.5105 -2.50626,-3.81787c-1.71752,-2.86138 -3.90174,-5.40808 -5.47787,-8.36312c-0.28423,0.00862 -0.87481,-0.06555 -1.01969,-0.80326c-0.13704,-0.69779 0.31961,-0.99683 0.59485,-1.11137c0.08885,-0.13134 0.22653,-0.25414 0.43424,-0.35165c0.42372,-0.19893 0.74222,-0.10637 0.96117,0.04836c6.93938,-1.41591 13.91563,-3.2726 20.97656,-4.65924c3.81291,-0.7488 7.75724,-2.60494 11.65673,-1.44521l0.20012,-0.04434c0.06134,-0.28437 0.24963,-0.61571 0.777,-0.71928c0.98127,-0.1927 1.17397,0.78855 1.17397,0.78855l0.02286,0.26282c0.03345,0.07622 0.06075,0.16292 0.08009,0.26144z" stroke-width="0.5"/><path d="M147.65094,209.02864l-0.15888,0.0312c-2.31294,2.27757 -3.47435,5.63601 -2.802,9.05964c1.06427,5.41934 6.32026,8.94982 11.73962,7.88553c5.41934,-1.06427 8.94982,-6.32026 7.88553,-11.73962c-0.70877,-3.60908 -3.27659,-6.38044 -6.51365,-7.51486c-3.22694,0.2178 -6.65465,1.80851 -9.95891,1.98029c-0.0716,0.06403 -0.14223,0.12906 -0.21186,0.19503zM153.07316,230.55171c-1.36251,-0.35847 -2.2394,-0.31519 -3.5022,-1.14523c0,0 -0.59342,-0.39858 -0.43979,-1.02349c-0.18249,-0.12975 -0.36538,-0.24445 -0.54991,-0.33295c-4.69913,-2.25436 -6.14527,-6.75058 -8.06468,-11.36995c-0.37352,-2.1686 -1.61659,-4.16059 -1.835,-6.54609c-0.05469,-0.59738 -0.47378,-1.3695 -0.05478,-1.79884c1.03939,-1.065 5.05192,-1.2906 6.52496,-1.5799c5.46456,-1.07314 10.92914,-2.14629 16.39372,-3.21945c0.29802,-0.05853 2.89123,-0.62494 3.20458,-0.4541c2.32198,1.26588 1.75984,5.20347 2.6614,7.2068c2.64926,5.8869 1.50764,11.71438 -2.05431,17.05389c-1.15619,2.38814 -1.89788,3.46595 -4.27524,4.62992c-2.46954,1.51768 -5.29999,-0.70789 -8.00877,-1.4206z" stroke-width="0.5"/></g></g></g></svg>