<svg version="1.1" xmlns="http://www.w3.org/2000/svg" xmlns:xlink="http://www.w3.org/1999/xlink" width="692.16488" height="596.24474" viewBox="0,0,692.16488,596.24474"><g transform="translate(150.66485,83.40991)"><g data-paper-data="{&quot;isPaintingLayer&quot;:true}" fill-rule="nonzero" stroke-linecap="butt" stroke-linejoin="miter" stroke-miterlimit="10" stroke-dasharray="" stroke-dashoffset="0" style="mix-blend-mode: normal"><path d="M-45.49997,512.83483v-273h585v273z" fill="#8c8c8c" stroke="none" stroke-width="0"/><path d="M-43.49997,239.5v-273h585v273z" fill="#ababab" stroke="none" stroke-width="0"/><path d="M182.50004,166.5v-93h110v93z" fill="#00d9ff" stroke="none" stroke-width="0"/><g fill="#a7a7a7" stroke="none" stroke-width="0"><path d="M193.50004,167.5v-93h12v93z"/><path d="M217.50004,167.5v-93h12v93z"/><path d="M239.50004,167.5v-93h12v93z"/><path d="M263.50004,167.5v-93h12v93z"/></g><path d="M197.50004,167.5v-93h12v93z" fill="#cecece" stroke="none" stroke-width="0"/><path d="M221.50004,167.5v-93h12v93z" fill="#cecece" stroke="none" stroke-width="0"/><path d="M243.50004,167.5v-93h12v93z" fill="#cecece" stroke="none" stroke-width="0"/><path d="M267.50004,167.5v-93h12v93z" fill="#cecece" stroke="none" stroke-width="0"/><path d="M413.50004,412.5v-91h65v91z" fill="#9f9f9f" stroke="none" stroke-width="0"/><path d="" fill="#000000" stroke="none" stroke-width="0.5"/><path d="M276.76214,232.27706c7.69326,0 13.92988,12.79863 13.92988,28.58653c0,15.7879 -6.23662,28.58653 -13.92988,28.58653c-7.69326,0 -13.92988,-12.79863 -13.92988,-28.58653c0,-15.7879 6.23662,-28.58653 13.92988,-28.58653z" data-paper-data="{&quot;index&quot;:null}" fill="#ff0000" stroke="#000000" stroke-width="5"/><path d="M246.44536,265.68468c5.41873,0 9.81148,4.25759 9.81148,9.50959c0,5.252 -4.39275,9.50959 -9.81148,9.50959c-5.41873,0 -9.81148,-4.25759 -9.81148,-9.50959c0,-5.252 4.39275,-9.50959 9.81148,-9.50959z" data-paper-data="{&quot;index&quot;:null}" fill="#ff0000" stroke="#000000" stroke-width="5"/><path d="M289.94534,299.25216c6.08771,0 11.02277,2.87427 11.02277,6.41986c0,3.54559 -4.93506,6.41986 -11.02277,6.41986c-6.08771,0 -11.02277,-2.87427 -11.02277,-6.41986c0,-3.54559 4.93506,-6.41986 11.02277,-6.41986z" data-paper-data="{&quot;index&quot;:null}" fill="#ff0000" stroke="#000000" stroke-width="5"/><path d="M259.76775,300.55998c6.08771,0 11.02277,2.87426 11.02277,6.41985c0,3.54559 -4.93506,6.41985 -11.02277,6.41985c-6.0877,0 -11.02277,-2.87426 -11.02277,-6.41985c0,-3.54559 4.93506,-6.41985 11.02277,-6.41985z" data-paper-data="{&quot;index&quot;:null}" fill="#ff0000" stroke="#000000" stroke-width="5"/><path d="M-143.06152,451.03904v-481.89639l186.62162,-52.55256c0,0 11.37615,271.22744 14.92661,355.87674c1.96947,46.95554 4.59291,109.50315 4.59291,109.50315z" fill="#9f9f9f" stroke="none" stroke-width="0"/><path d="M-127.17312,387.96116l-23.49173,-364.80954l188.75097,-13.62629l23.49173,364.80954z" fill="#b5b5b5" stroke="none" stroke-width="0"/><g stroke="none" stroke-width="0"><g fill="#a7a7a7"><path d="M-80.97898,385.47452l-23.38326,-363.12507l18.45203,-1.33209l23.38326,363.12507z"/><path d="M-44.07493,382.81034l-23.38326,-363.12507l18.45203,-1.33209l23.38326,363.12507z"/><path d="M-10.24621,380.36819l-23.38326,-363.12507l18.45203,-1.33209l23.38326,363.12507z"/><path d="M26.65786,377.70401l-23.38326,-363.12507l18.45203,-1.33209l23.38326,363.12507z"/></g><path d="M-74.82831,385.03049l-23.38326,-363.12507l18.45203,-1.33209l23.38326,363.12507z" fill="#cecece"/><path d="M-37.92425,382.36632l-23.38326,-363.12507l18.45203,-1.33209l23.38326,363.12507z" fill="#cecece"/><path d="M-4.09555,379.92416l-23.38326,-363.12507l18.45203,-1.33209l23.38326,363.12507z" fill="#cecece"/><path d="M32.8085,377.25999l-23.38326,-363.12507l18.45203,-1.33209l23.38326,363.12507z" fill="#cecece"/></g><g><g fill="#7c7c7c" stroke="none"><path d="M195.91453,262.91747l33.58334,-50.36581l10.07316,6.7167l-33.58334,50.36581z" stroke-width="0"/><path d="M239.42418,219.42836c-1.55513,2.33227 -5.10454,2.69685 -7.92783,0.81434c-2.82328,-1.88253 -3.85132,-5.2993 -2.29618,-7.63158c1.55513,-2.33227 5.10453,-2.69687 7.92783,-0.81434c2.82328,1.88253 3.85132,5.2993 2.29618,7.63158z" stroke-width="0"/><path d="M210.59697,287.70091c-2.03585,3.05321 -1.9947,-0.46388 -4.38624,-1.69854c-3.32936,-1.71878 -8.09783,-4.85979 -13.09844,-8.1941c-5.02987,-3.35385 -10.15313,-7.10747 -12.49881,-9.20396c-1.66147,-1.48496 -3.1523,1.37676 -1.13306,-1.65155c4.87001,-7.30371 15.78362,-8.57989 24.37622,-2.85045c8.59259,5.72944 11.61034,16.29489 6.7403,23.59858z" stroke-width="0"/><path d="M209.70022,287.95917c-0.15707,0.23558 -0.33636,0.35996 -0.51271,0.41725c-1.22174,0.745 -2.04555,1.82998 -3.21395,2.65211c-1.28488,0.90409 -2.74045,0.96837 -3.90665,2.07041c-1.34878,1.27454 -1.93725,2.84998 -3.601,3.97164c-2.59661,4.01023 -5.86297,2.44411 -9.78587,2.297c-2.76388,-0.10364 -4.73292,1.68789 -7.67659,1.08505c-4.6838,-0.9592 -5.90412,-7.13408 -5.41192,-11.05988c0.87419,-2.41184 0.34921,-4.50959 0.27044,-6.91874c-0.05128,-1.56828 0.54772,-2.99438 0.91226,-4.47495c0.79784,-3.2405 1.04279,-6.58661 2.00692,-9.79394c-0.20774,-0.19417 -0.57449,-0.66299 -0.15741,-1.28849c0.39452,-0.59166 0.92922,-0.48202 1.20522,-0.36931c0.15558,-0.03059 0.33982,-0.02068 0.55591,0.05651c0.44081,0.15747 0.60158,0.44759 0.64786,0.71166c5.92132,3.88561 12.1794,7.48446 18.16635,11.47649c3.23297,2.1557 7.3395,3.61834 9.28894,7.18915l0.17322,0.10956c0.24391,-0.15853 0.61101,-0.26093 1.05817,0.03721c0.832,0.55476 0.27724,1.38678 0.27724,1.38678l-0.16899,0.2026c-0.02998,0.07765 -0.0717,0.15839 -0.12741,0.24194z" stroke-width="0.5"/><path d="M243.51476,193.06932l-0.13471,-0.08983c-3.24604,-0.01398 -6.43677,1.55041 -8.37237,4.45326c-3.0639,4.59503 -1.82269,10.80383 2.77234,13.86774c4.59503,3.0639 10.80383,1.82269 13.86774,-2.77234c2.04045,-3.06012 2.17153,-6.83595 0.67426,-9.922c-2.44301,-2.11949 -5.99596,-3.40639 -8.4614,-5.61305c-0.09592,-0.00502 -0.19185,-0.00867 -0.28774,-0.01092zM232.19451,212.16109c-0.71408,-1.21452 -1.36675,-1.80173 -1.67776,-3.28056c0,0 -0.14015,-0.701 0.40923,-1.03607c-0.03804,-0.22065 -0.08698,-0.43093 -0.15552,-0.62374c-1.74541,-4.91097 0.39706,-9.12013 2.2905,-13.75023c1.2632,-1.80186 1.78501,-4.09115 3.31112,-5.9376c0.38219,-0.46239 0.62896,-1.30554 1.22879,-1.31487c1.48796,-0.02316 4.49384,2.64441 5.74284,3.47723c4.63337,3.08949 9.26676,6.17898 13.90017,9.26846c0.25267,0.16849 2.49174,1.59406 2.59368,1.93609c0.75538,2.53446 -2.41827,4.93204 -3.19038,6.98874c-2.26883,6.0437 -7.18547,9.37384 -13.47546,10.65214c-2.50326,0.87961 -3.789,1.12167 -6.29601,0.27218c-2.82166,-0.66348 -3.26151,-4.23716 -4.68117,-6.6517z" stroke-width="0.5"/></g><path d="M247.88777,210.71782c-3.35552,4.25479 -9.41875,5.06748 -13.54262,1.81521c-4.12387,-3.25228 -4.74673,-9.33793 -1.39122,-13.59273c3.35552,-4.25479 9.41875,-5.06748 13.54262,-1.81521c4.12387,3.25228 4.74673,9.33793 1.39122,13.59273z" data-paper-data="{&quot;index&quot;:null}" fill="#ff0000" stroke="#000000" stroke-width="5"/></g><path d="M414.50004,323.5v-163h65v163z" fill="#595959" stroke="none" stroke-width="0"/><path d="M284.3479,184.90964c11.38105,0 20.60719,9.64081 20.60719,21.53336c0,11.89255 -9.22615,21.53336 -20.60719,21.53336c-11.38105,0 -20.6072,-9.64081 -20.6072,-21.53336c0,-11.89255 9.22616,-21.53336 20.6072,-21.53336z" data-paper-data="{&quot;index&quot;:null}" fill="#d29460" stroke="#000000" stroke-width="2"/><path d="M282.0932,185.0562c1.7985,-0.03466 7.23539,-1.23033 8.69874,0.56618c1.19553,1.46772 9.95755,3.73715 10.33325,7.33322c0.45485,-0.088 0.82342,-0.00141 1.06758,0.32413c0.89578,1.19438 -1.38708,2.19145 -2.02353,2.63529c-2.51002,1.75042 -5.07661,4.51493 -7.79883,5.8044c-3.32701,1.57595 -1.93333,-3.09904 -2.24521,-3.12778c-2.11883,-0.19523 -4.99681,1.22268 -7.23571,1.28156c-4.36122,0.11469 -8.46442,-0.26607 -12.80749,-0.34641c-0.55121,-0.0102 -3.3739,0.11064 -3.78499,-0.60877c-0.29474,-0.17395 -0.49247,-0.49479 -0.49247,-0.86182c0,-0.49706 0.36266,-0.90942 0.83781,-0.98691c1.37581,-6.33275 9.22971,-11.89321 15.45085,-12.01309z" fill="#000000" stroke="none" stroke-width="0.5"/><path d="M269.40927,215.81836c-1.529,0 -1.529,-1.668 -1.529,-1.668l0.01536,-0.00239c-0.32867,-2.52058 -0.34301,-4.96093 -0.34301,-7.50361c0,0 0,-1.668 1.529,-1.668c1.529,0 1.529,1.668 1.529,1.668c0,2.38598 0.00134,4.66817 0.31227,7.03182l0.01536,0.47418c0,0 0,1.668 -1.529,1.668z" fill="#000000" stroke="none" stroke-width="0.5"/><path d="M273.7426,215.48503c-1.529,0 -1.529,-1.668 -1.529,-1.668l0.01536,-0.00239c-0.32867,-2.52058 -0.34301,-4.96093 -0.34301,-7.50361c0,0 0,-1.668 1.529,-1.668c1.529,0 1.529,1.668 1.529,1.668c0,2.38598 0.00134,4.66817 0.31227,7.03182l0.01536,0.47418c0,0 0,1.668 -1.529,1.668z" fill="#000000" stroke="none" stroke-width="0.5"/></g></g></svg>