<svg version="1.1" xmlns="http://www.w3.org/2000/svg" xmlns:xlink="http://www.w3.org/1999/xlink" width="692.16488" height="596.24474" viewBox="0,0,692.16488,596.24474"><g transform="translate(150.66485,83.40991)"><g data-paper-data="{&quot;isPaintingLayer&quot;:true}" fill-rule="nonzero" stroke-linecap="butt" stroke-linejoin="miter" stroke-miterlimit="10" stroke-dasharray="" stroke-dashoffset="0" style="mix-blend-mode: normal"><path d="M-45.49997,512.83483v-273h585v273z" fill="#8c8c8c" stroke="none" stroke-width="0"/><path d="M-43.49997,239.5v-273h585v273z" fill="#ababab" stroke="none" stroke-width="0"/><path d="M182.50004,166.5v-93h110v93z" fill="#00d9ff" stroke="none" stroke-width="0"/><g fill="#a7a7a7" stroke="none" stroke-width="0"><path d="M193.50004,167.5v-93h12v93z"/><path d="M217.50004,167.5v-93h12v93z"/><path d="M239.50004,167.5v-93h12v93z"/><path d="M263.50004,167.5v-93h12v93z"/></g><path d="M197.50004,167.5v-93h12v93z" fill="#cecece" stroke="none" stroke-width="0"/><path d="M221.50004,167.5v-93h12v93z" fill="#cecece" stroke="none" stroke-width="0"/><path d="M243.50004,167.5v-93h12v93z" fill="#cecece" stroke="none" stroke-width="0"/><path d="M267.50004,167.5v-93h12v93z" fill="#cecece" stroke="none" stroke-width="0"/><path d="M413.50004,412.5v-91h65v91z" fill="#9f9f9f" stroke="none" stroke-width="0"/><path d="" fill="#000000" stroke="none" stroke-width="0.5"/><path d="M276.76214,232.27706c7.69326,0 13.92988,12.79863 13.92988,28.58653c0,15.7879 -6.23662,28.58653 -13.92988,28.58653c-7.69326,0 -13.92988,-12.79863 -13.92988,-28.58653c0,-15.7879 6.23662,-28.58653 13.92988,-28.58653z" data-paper-data="{&quot;index&quot;:null}" fill="#ff0000" stroke="#000000" stroke-width="5"/><path d="M246.44536,265.68468c5.41873,0 9.81148,4.25759 9.81148,9.50959c0,5.252 -4.39275,9.50959 -9.81148,9.50959c-5.41873,0 -9.81148,-4.25759 -9.81148,-9.50959c0,-5.252 4.39275,-9.50959 9.81148,-9.50959z" data-paper-data="{&quot;index&quot;:null}" fill="#ff0000" stroke="#000000" stroke-width="5"/><path d="M289.94534,299.25216c6.08771,0 11.02277,2.87427 11.02277,6.41986c0,3.54559 -4.93506,6.41986 -11.02277,6.41986c-6.08771,0 -11.02277,-2.87427 -11.02277,-6.41986c0,-3.54559 4.93506,-6.41986 11.02277,-6.41986z" data-paper-data="{&quot;index&quot;:null}" fill="#ff0000" stroke="#000000" stroke-width="5"/><path d="M259.76775,300.55998c6.08771,0 11.02277,2.87426 11.02277,6.41985c0,3.54559 -4.93506,6.41985 -11.02277,6.41985c-6.0877,0 -11.02277,-2.87426 -11.02277,-6.41985c0,-3.54559 4.93506,-6.41985 11.02277,-6.41985z" data-paper-data="{&quot;index&quot;:null}" fill="#ff0000" stroke="#000000" stroke-width="5"/><path d="M-143.06152,451.03904v-481.89639l186.62162,-52.55256c0,0 11.37615,271.22744 14.92661,355.87674c1.96947,46.95554 4.59291,109.50315 4.59291,109.50315z" fill="#9f9f9f" stroke="none" stroke-width="0"/><path d="M-127.17312,387.96116l-23.49173,-364.80954l188.75097,-13.62629l23.49173,364.80954z" fill="#b5b5b5" stroke="none" stroke-width="0"/><g stroke="none" stroke-width="0"><g fill="#a7a7a7"><path d="M-80.97898,385.47452l-23.38326,-363.12507l18.45203,-1.33209l23.38326,363.12507z"/><path d="M-44.07493,382.81034l-23.38326,-363.12507l18.45203,-1.33209l23.38326,363.12507z"/><path d="M-10.24621,380.36819l-23.38326,-363.12507l18.45203,-1.33209l23.38326,363.12507z"/><path d="M26.65786,377.70401l-23.38326,-363.12507l18.45203,-1.33209l23.38326,363.12507z"/></g><path d="M-74.82831,385.03049l-23.38326,-363.12507l18.45203,-1.33209l23.38326,363.12507z" fill="#cecece"/><path d="M-37.92425,382.36632l-23.38326,-363.12507l18.45203,-1.33209l23.38326,363.12507z" fill="#cecece"/><path d="M-4.09555,379.92416l-23.38326,-363.12507l18.45203,-1.33209l23.38326,363.12507z" fill="#cecece"/><path d="M32.8085,377.25999l-23.38326,-363.12507l18.45203,-1.33209l23.38326,363.12507z" fill="#cecece"/></g><g><g fill="#7c7c7c" stroke="none"><path d="M198.04895,252.47539l32.14767,-51.29408l10.25881,6.42957l-32.14767,51.29408z" stroke-width="0"/><path d="M240.31316,207.77496c-1.48865,2.37525 -5.02635,2.83992 -7.90167,1.03789c-2.87531,-1.80205 -3.99943,-5.18843 -2.51077,-7.5637c1.48865,-2.37525 5.02633,-2.83994 7.90167,-1.03789c2.87531,1.80205 3.99943,5.18843 2.51077,7.5637z" stroke-width="0"/><path d="M213.4254,276.83433c-1.94882,3.10949 -2.007,-0.40737 -4.43245,-1.574c-3.37657,-1.62408 -8.23183,-4.62918 -13.32461,-7.82094c-5.12258,-3.21048 -10.34978,-6.81792 -12.75373,-8.84734c-1.70274,-1.43745 -3.11216,1.46523 -1.17924,-1.6189c4.66182,-7.43833 15.53504,-9.02218 24.286,-3.53767c8.75096,5.48451 12.06586,15.96053 7.40401,23.39883z" stroke-width="0"/><path d="M212.5363,277.11782c-0.15036,0.23992 -0.32606,0.36932 -0.50072,0.43156c-1.20021,0.7792 -1.99306,1.88701 -3.13777,2.74181c-1.25884,0.94001 -2.71201,1.04537 -3.84662,2.1799c-1.31225,1.31212 -1.856,2.90355 -3.4874,4.07174c-2.48233,4.08195 -5.79161,2.60869 -9.7171,2.57242c-2.7657,-0.02555 -4.68336,1.82087 -7.64289,1.3014c-4.70902,-0.82656 -6.10322,-6.96451 -5.72208,-10.90264c0.80573,-2.43557 0.22172,-4.51765 0.07495,-6.92362c-0.09554,-1.5662 0.46294,-3.00865 0.78553,-4.49893c0.70601,-3.26174 0.85637,-6.61343 1.72955,-9.84671c-0.21314,-0.18822 -0.59299,-0.64651 -0.19373,-1.28353c0.37765,-0.60257 0.91524,-0.50807 1.19431,-0.40319c0.15465,-0.03497 0.3391,-0.03027 0.55729,0.04079c0.44508,0.14496 0.61398,0.43042 0.6677,0.69308c6.02869,3.71685 12.38589,7.13755 18.48318,10.95892c3.29256,2.06355 7.43875,3.40963 9.48825,6.92398l0.17624,0.10463c0.23934,-0.16536 0.6034,-0.27808 1.0588,0.00731c0.84734,0.53105 0.31629,1.3784 0.31629,1.3784l-0.16321,0.20729c-0.02778,0.07846 -0.0672,0.16036 -0.12053,0.24544z" stroke-width="0.5"/><path d="M243.65776,181.31092l-0.13719,-0.08599c-3.24514,0.07769 -6.39042,1.73156 -8.24328,4.68791c-2.93292,4.67971 -1.51687,10.85099 3.16284,13.78393c4.67971,2.93292 10.85099,1.51687 13.78393,-3.16284c1.95322,-3.11652 1.97763,-6.89454 0.39381,-9.93708c-2.50189,-2.04966 -6.08977,-3.23571 -8.61653,-5.37187c-0.09603,-0.00231 -0.19201,-0.00325 -0.28794,-0.00279zM232.88116,200.71475c-0.74809,-1.19387 -1.41709,-1.76242 -1.76973,-3.23187c0,0 -0.15989,-0.69676 0.37981,-1.04722c-0.04426,-0.21949 -0.09911,-0.4283 -0.17307,-0.6191c-1.88339,-4.85972 0.13936,-9.12771 1.90129,-13.80943c1.21181,-1.83682 1.66877,-4.13992 3.14213,-6.02873c0.36898,-0.473 0.59184,-1.32278 1.19117,-1.34905c1.48672,-0.06517 4.56673,2.51646 5.83875,3.31367c4.71876,2.95742 9.43755,5.91483 14.15636,8.87223c0.25733,0.16129 2.53576,1.52306 2.64732,1.86207c0.82665,2.51212 -2.27803,4.99836 -2.99176,7.07605c-2.09726,6.10536 -6.9179,9.57302 -13.16928,11.02842c-2.47742,0.94995 -3.75581,1.22822 -6.28581,0.44987c-2.83927,-0.58353 -3.37986,-4.14337 -4.86714,-6.51685z" stroke-width="0.5"/></g><path d="M248.5274,198.8289c-3.23403,4.34785 -9.2719,5.33143 -13.48596,2.19692c-4.21407,-3.13453 -5.00853,-9.20016 -1.77451,-13.54802c3.23403,-4.34785 9.2719,-5.33143 13.48596,-2.19692c4.21407,3.13453 5.00853,9.20016 1.77451,13.54802z" data-paper-data="{&quot;index&quot;:null}" fill="#ff0000" stroke="#000000" stroke-width="5"/></g><path d="M414.50004,323.5v-163h65v163z" fill="#595959" stroke="none" stroke-width="0"/><path d="M284.3479,184.90964c11.38105,0 20.60719,9.64081 20.60719,21.53336c0,11.89255 -9.22615,21.53336 -20.60719,21.53336c-11.38105,0 -20.6072,-9.64081 -20.6072,-21.53336c0,-11.89255 9.22616,-21.53336 20.6072,-21.53336z" data-paper-data="{&quot;index&quot;:null}" fill="#d29460" stroke="#000000" stroke-width="2"/><path d="M282.0932,185.0562c1.7985,-0.03466 7.23539,-1.23033 8.69874,0.56618c1.19553,1.46772 9.95755,3.73715 10.33325,7.33322c0.45485,-0.088 0.82342,-0.00141 1.06758,0.32413c0.89578,1.19438 -1.38708,2.19145 -2.02353,2.63529c-2.51002,1.75042 -5.07661,4.51493 -7.79883,5.8044c-3.32701,1.57595 -1.93333,-3.09904 -2.24521,-3.12778c-2.11883,-0.19523 -4.99681,1.22268 -7.23571,1.28156c-4.36122,0.11469 -8.46442,-0.26607 -12.80749,-0.34641c-0.55121,-0.0102 -3.3739,0.11064 -3.78499,-0.60877c-0.29474,-0.17395 -0.49247,-0.49479 -0.49247,-0.86182c0,-0.49706 0.36266,-0.90942 0.83781,-0.98691c1.37581,-6.33275 9.22971,-11.89321 15.45085,-12.01309z" fill="#000000" stroke="none" stroke-width="0.5"/><path d="M269.40927,215.81836c-1.529,0 -1.529,-1.668 -1.529,-1.668l0.01536,-0.00239c-0.32867,-2.52058 -0.34301,-4.96093 -0.34301,-7.50361c0,0 0,-1.668 1.529,-1.668c1.529,0 1.529,1.668 1.529,1.668c0,2.38598 0.00134,4.66817 0.31227,7.03182l0.01536,0.47418c0,0 0,1.668 -1.529,1.668z" fill="#000000" stroke="none" stroke-width="0.5"/><path d="M273.7426,215.48503c-1.529,0 -1.529,-1.668 -1.529,-1.668l0.01536,-0.00239c-0.32867,-2.52058 -0.34301,-4.96093 -0.34301,-7.50361c0,0 0,-1.668 1.529,-1.668c1.529,0 1.529,1.668 1.529,1.668c0,2.38598 0.00134,4.66817 0.31227,7.03182l0.01536,0.47418c0,0 0,1.668 -1.529,1.668z" fill="#000000" stroke="none" stroke-width="0.5"/></g></g></svg>