<svg version="1.1" xmlns="http://www.w3.org/2000/svg" xmlns:xlink="http://www.w3.org/1999/xlink" width="695.16488" height="594.24324" viewBox="0,0,695.16488,594.24324"><g transform="translate(150.66485,83.40991)"><g data-paper-data="{&quot;isPaintingLayer&quot;:true}" fill-rule="nonzero" stroke-linecap="butt" stroke-linejoin="miter" stroke-miterlimit="10" stroke-dasharray="" stroke-dashoffset="0" style="mix-blend-mode: normal"><path d="M-43.49997,239.5v-273h585v273z" fill="#ababab" stroke="none" stroke-width="0"/><path d="M-40.49997,510.83333v-273h585v273z" fill="#8c8c8c" stroke="none" stroke-width="0"/><g stroke="none" stroke-width="0.5"><path d="M431.49673,254.09088c-0.53705,0.42609 -5.25888,1.91851 -6.10578,2.35891c-4.24316,2.20651 -7.17036,8.74846 -8.73264,12.97682c-0.37237,0.99765 -1.58472,4.07659 -1.64799,5.02642c-0.11157,1.67495 0.74147,3.27466 1.07845,4.91915c0.93326,4.55442 2.24751,10.71963 6.56383,13.40802c3.75012,2.33573 8.50758,0.8178 12.44591,0.62256c2.38886,-0.11844 5.18742,0.52992 7.6173,1.00067c-0.57521,-2.67231 -1.11322,-5.37123 -1.31868,-8.05863c-0.15845,-2.07257 0.11642,-4.18004 -0.21445,-6.23215c-1.18005,-7.31897 -3.62896,-13.98275 -5.61554,-21.06227c-0.63157,-2.2507 -1.03642,-4.56441 -1.59947,-6.83263c-0.75709,0.69007 -1.73872,1.29218 -2.47095,1.87313zM469.56142,240.20537c10.55794,1.32125 20.71112,5.03626 31.24549,6.58912l0.08898,0.04743l0.00631,-0.02765l3.09192,0.70469c0.95063,0.19458 1.74105,0.93653 1.94859,1.94719c0.21824,1.06273 -0.27294,2.10637 -1.14956,2.63951l-3.08399,1.9755l-0.16507,-0.25769c-3.60956,3.21273 -7.42304,6.11478 -10.93076,9.52837c-6.08811,5.92471 -10.77794,13.6797 -17.55577,18.88855c-2.82776,2.17317 -6.52502,3.28311 -9.27128,5.46361c-4.22983,3.35844 -8.26757,7.1018 -12.38717,10.64683l-2.08642,1.79203c0,0 -0.62526,0.53703 -1.4661,0.63537c-0.28005,0.21744 -0.6487,0.3928 -1.13263,0.49218c-1.01273,0.20797 -1.69265,-0.08887 -2.14183,-0.50857c-8.89576,0.92504 -19.45628,1.16985 -27.64042,-2.74352c-4.38721,-2.09782 -4.75948,-6.08776 -6.54589,-10.11453c-2.81721,-6.35035 -5.50189,-13.41639 -3.39419,-20.43804c1.27048,-4.23245 4.02133,-7.94775 6.51421,-11.49669c4.5416,-5.97141 7.94036,-11.10002 15.56095,-12.892c1.18835,-0.27944 2.49204,-1.12873 3.64816,-1.03335c12.25265,-2.50274 24.39714,-3.39626 36.84645,-1.83832z" fill="#696969"/><path d="M442.50255,244.12111c1.96546,-1.54498 3.51044,0.42047 3.51044,0.42047l0.51803,0.86661c4.3101,2.94287 5.09496,6.61783 7.30608,11.10434c0.92658,1.88011 2.20737,3.57797 3.06525,5.49041c1.69442,3.77732 1.83311,8.04851 2.24601,12.05075c0.59527,5.76994 0.91678,9.53126 -2.37593,14.58592c0,0 -1.37603,2.08724 -3.46326,0.7112c-2.08724,-1.37603 -0.7112,-3.46326 -0.7112,-3.46326c2.6719,-3.99352 2.05146,-6.72586 1.57732,-11.31559c-0.35758,-3.46142 -0.34807,-7.29377 -1.85204,-10.56109c-0.84278,-1.8309 -2.0723,-3.46291 -2.96269,-5.27114c-1.71654,-3.48597 -2.17964,-7.02886 -5.58158,-9.15708l-1.69689,-1.95111c0,0 -1.54498,-1.96546 0.42047,-3.51044z" fill="#a2a2a2"/><path d="M457.61278,244.66686c1.18141,-2.20324 3.38465,-1.02183 3.38465,-1.02183l2.31473,1.31755c2.98588,2.75584 3.28743,4.9459 4.69747,8.60395c1.90254,4.93578 4.44649,10.96439 4.43693,16.40881c-0.00634,3.60966 -2.39425,6.19921 -3.10214,9.58742c0,0 -0.53504,2.44208 -2.97712,1.90703c-2.44208,-0.53504 -1.90703,-2.97712 -1.90703,-2.97712c0.6401,-2.81984 3.08286,-5.71684 2.98658,-8.5712c-0.16566,-4.91136 -2.38385,-10.09179 -4.10498,-14.56273c-1.12922,-2.93336 -0.9071,-4.6294 -3.34446,-6.65286l-1.36279,-0.65438c0,0 -2.20324,-1.18141 -1.02183,-3.38465z" fill="#a2a2a2"/><path d="M473.94263,244.99626c1.65738,-1.87165 3.52903,-0.21428 3.52903,-0.21428l1.54371,1.57179c3.10836,5.79031 4.11997,11.73788 4.36716,18.25523c0,0 0.09345,2.49825 -2.40479,2.59171c-2.49825,0.09345 -2.59171,-2.40479 -2.59171,-2.40479c-0.2115,-5.738 -1.02215,-10.98151 -3.77288,-16.0714l-0.45625,-0.19922c0,0 -1.87165,-1.65738 -0.21428,-3.52903z" fill="#a2a2a2"/></g><path d="M410.88795,264.5162c5.41873,0 9.81148,4.25759 9.81148,9.50959c0,5.252 -4.39275,9.50959 -9.81148,9.50959c-5.41873,0 -9.81148,-4.25759 -9.81148,-9.50959c0,-5.252 4.39275,-9.50959 9.81148,-9.50959z" data-paper-data="{&quot;index&quot;:null}" fill="#ff0000" stroke="#000000" stroke-width="5"/><path d="M182.50004,166.5v-93h110v93z" fill="#00d9ff" stroke="none" stroke-width="0"/><g fill="#a7a7a7" stroke="none" stroke-width="0"><path d="M193.50004,167.5v-93h12v93z"/><path d="M217.50004,167.5v-93h12v93z"/><path d="M239.50004,167.5v-93h12v93z"/><path d="M263.50004,167.5v-93h12v93z"/></g><path d="M197.50004,167.5v-93h12v93z" fill="#cecece" stroke="none" stroke-width="0"/><path d="M221.50004,167.5v-93h12v93z" fill="#cecece" stroke="none" stroke-width="0"/><path d="M243.50004,167.5v-93h12v93z" fill="#cecece" stroke="none" stroke-width="0"/><path d="M267.50004,167.5v-93h12v93z" fill="#cecece" stroke="none" stroke-width="0"/><path d="M414.50004,323.5v-163h65v163z" fill="#595959" stroke="none" stroke-width="0"/><path d="M413.50004,412.5v-91h65v91z" fill="#9f9f9f" stroke="none" stroke-width="0"/><path d="M384.09551,235.61038c7.69326,0 13.92988,12.79863 13.92988,28.58653c0,15.7879 -6.23662,28.58653 -13.92988,28.58653c-7.69326,0 -13.92988,-12.79863 -13.92988,-28.58653c0,-15.7879 6.23662,-28.58653 13.92988,-28.58653z" data-paper-data="{&quot;index&quot;:null}" fill="#ff0000" stroke="#000000" stroke-width="5"/><path d="M343.61207,267.85134c5.41873,0 9.81148,4.25759 9.81148,9.50959c0,5.252 -4.39275,9.50959 -9.81148,9.50959c-5.41873,0 -9.81148,-4.25759 -9.81148,-9.50959c0,-5.252 4.39275,-9.50959 9.81148,-9.50959z" data-paper-data="{&quot;index&quot;:null}" fill="#ff0000" stroke="#000000" stroke-width="5"/><path d="M393.27872,306.08548c6.08771,0 11.02277,2.87427 11.02277,6.41986c0,3.54559 -4.93506,6.41986 -11.02277,6.41986c-6.08771,0 -11.02277,-2.87427 -11.02277,-6.41986c0,-3.54559 4.93506,-6.41986 11.02277,-6.41986z" data-paper-data="{&quot;index&quot;:null}" fill="#ff0000" stroke="#000000" stroke-width="5"/><path d="M360.26779,305.05998c6.08771,0 11.02277,2.87426 11.02277,6.41985c0,3.54559 -4.93506,6.41985 -11.02277,6.41985c-6.0877,0 -11.02277,-2.87426 -11.02277,-6.41985c0,-3.54559 4.93506,-6.41985 11.02277,-6.41985z" data-paper-data="{&quot;index&quot;:null}" fill="#ff0000" stroke="#000000" stroke-width="5"/><path d="M-143.06152,451.03904v-481.89639l186.62162,-52.55256c0,0 11.37615,271.22744 14.92661,355.87674c1.96947,46.95554 4.59291,109.50315 4.59291,109.50315z" fill="#9f9f9f" stroke="none" stroke-width="0"/><path d="M-127.17312,387.96116l-23.49173,-364.80954l188.75097,-13.62629l23.49173,364.80954z" fill="#b5b5b5" stroke="none" stroke-width="0"/><g stroke="none" stroke-width="0"><g fill="#a7a7a7"><path d="M-80.97898,385.47452l-23.38326,-363.12507l18.45203,-1.33209l23.38326,363.12507z"/><path d="M-44.07493,382.81034l-23.38326,-363.12507l18.45203,-1.33209l23.38326,363.12507z"/><path d="M-10.24621,380.36819l-23.38326,-363.12507l18.45203,-1.33209l23.38326,363.12507z"/><path d="M26.65786,377.70401l-23.38326,-363.12507l18.45203,-1.33209l23.38326,363.12507z"/></g><path d="M-74.82831,385.03049l-23.38326,-363.12507l18.45203,-1.33209l23.38326,363.12507z" fill="#cecece"/><path d="M-37.92425,382.36632l-23.38326,-363.12507l18.45203,-1.33209l23.38326,363.12507z" fill="#cecece"/><path d="M-4.09555,379.92416l-23.38326,-363.12507l18.45203,-1.33209l23.38326,363.12507z" fill="#cecece"/><path d="M32.8085,377.25999l-23.38326,-363.12507l18.45203,-1.33209l23.38326,363.12507z" fill="#cecece"/></g><path d="M385.34794,184.90965c11.38105,0 20.60719,9.64081 20.60719,21.53336c0,11.89255 -9.22615,21.53336 -20.60719,21.53336c-11.38105,0 -20.6072,-9.64081 -20.6072,-21.53336c0,-11.89255 9.22616,-21.53336 20.6072,-21.53336z" data-paper-data="{&quot;index&quot;:null}" fill="#d29460" stroke="#000000" stroke-width="2"/><path d="M383.09324,185.05621c1.7985,-0.03466 7.23539,-1.23033 8.69874,0.56618c1.19553,1.46772 9.95755,3.73715 10.33325,7.33322c0.45485,-0.088 0.82342,-0.00141 1.06758,0.32413c0.89578,1.19438 -1.38708,2.19145 -2.02353,2.63529c-2.51002,1.75042 -5.07661,4.51493 -7.79883,5.8044c-3.32701,1.57595 -1.93333,-3.09904 -2.24521,-3.12778c-2.11883,-0.19523 -4.99681,1.22268 -7.23571,1.28156c-4.36122,0.11469 -8.46442,-0.26607 -12.80749,-0.34641c-0.55121,-0.0102 -3.3739,0.11064 -3.78499,-0.60877c-0.29474,-0.17395 -0.49247,-0.49479 -0.49247,-0.86182c0,-0.49706 0.36266,-0.90942 0.83781,-0.98691c1.37581,-6.33275 9.22971,-11.89321 15.45085,-12.01309z" fill="#000000" stroke="none" stroke-width="0.5"/><path d="M399.90931,217.81837c-1.529,0 -1.529,-1.668 -1.529,-1.668l0.01536,-0.00239c-0.32867,-2.52058 -0.34301,-4.96093 -0.34301,-7.50361c0,0 0,-1.668 1.529,-1.668c1.529,0 1.529,1.668 1.529,1.668c0,2.38598 0.00134,4.66817 0.31227,7.03182l0.01536,0.47418c0,0 0,1.668 -1.529,1.668z" fill="#000000" stroke="none" stroke-width="0.5"/><path d="M395.24264,217.48504c-1.529,0 -1.529,-1.668 -1.529,-1.668l0.01536,-0.00239c-0.32867,-2.52058 -0.34301,-4.96093 -0.34301,-7.50361c0,0 0,-1.668 1.529,-1.668c1.529,0 1.529,1.668 1.529,1.668c0,2.38598 0.00134,4.66817 0.31227,7.03182l0.01536,0.47418c0,0 0,1.668 -1.529,1.668z" fill="#000000" stroke="none" stroke-width="0.5"/></g></g></svg>