<svg version="1.1" xmlns="http://www.w3.org/2000/svg" xmlns:xlink="http://www.w3.org/1999/xlink" width="695.16488" height="594.24324" viewBox="0,0,695.16488,594.24324"><g transform="translate(150.66485,83.40991)"><g data-paper-data="{&quot;isPaintingLayer&quot;:true}" fill-rule="nonzero" stroke-linecap="butt" stroke-linejoin="miter" stroke-miterlimit="10" stroke-dasharray="" stroke-dashoffset="0" style="mix-blend-mode: normal"><path d="M-43.49997,239.5v-273h585v273z" fill="#ababab" stroke="none" stroke-width="0"/><path d="M-40.49997,510.83333v-273h585v273z" fill="#8c8c8c" stroke="none" stroke-width="0"/><path d="M182.50004,166.5v-93h110v93z" fill="#00d9ff" stroke="none" stroke-width="0"/><g fill="#a7a7a7" stroke="none" stroke-width="0"><path d="M193.50004,167.5v-93h12v93z"/><path d="M217.50004,167.5v-93h12v93z"/><path d="M239.50004,167.5v-93h12v93z"/><path d="M263.50004,167.5v-93h12v93z"/></g><path d="M197.50004,167.5v-93h12v93z" fill="#cecece" stroke="none" stroke-width="0"/><path d="M221.50004,167.5v-93h12v93z" fill="#cecece" stroke="none" stroke-width="0"/><path d="M243.50004,167.5v-93h12v93z" fill="#cecece" stroke="none" stroke-width="0"/><path d="M267.50004,167.5v-93h12v93z" fill="#cecece" stroke="none" stroke-width="0"/><path d="M414.50004,323.5v-163h65v163z" fill="#595959" stroke="none" stroke-width="0"/><path d="M413.50004,412.5v-91h65v91z" fill="#9f9f9f" stroke="none" stroke-width="0"/><path d="M314.09551,233.61038c7.69326,0 13.92988,12.79863 13.92988,28.58653c0,15.7879 -6.23662,28.58653 -13.92988,28.58653c-7.69326,0 -13.92988,-12.79863 -13.92988,-28.58653c0,-15.7879 6.23662,-28.58653 13.92988,-28.58653z" data-paper-data="{&quot;index&quot;:null}" fill="#ff0000" stroke="#000000" stroke-width="5"/><path d="M323.61207,259.85134c5.41873,0 9.81148,4.25759 9.81148,9.50959c0,5.252 -4.39275,9.50959 -9.81148,9.50959c-5.41873,0 -9.81148,-4.25759 -9.81148,-9.50959c0,-5.252 4.39275,-9.50959 9.81148,-9.50959z" data-paper-data="{&quot;index&quot;:null}" fill="#ff0000" stroke="#000000" stroke-width="5"/><path d="M333.27872,307.08548c6.08771,0 11.02277,2.87427 11.02277,6.41986c0,3.54559 -4.93506,6.41986 -11.02277,6.41986c-6.08771,0 -11.02277,-2.87427 -11.02277,-6.41986c0,-3.54559 4.93506,-6.41986 11.02277,-6.41986z" data-paper-data="{&quot;index&quot;:null}" fill="#ff0000" stroke="#000000" stroke-width="5"/><path d="M305.26779,306.05998c6.08771,0 11.02277,2.87426 11.02277,6.41985c0,3.54559 -4.93506,6.41985 -11.02277,6.41985c-6.0877,0 -11.02277,-2.87426 -11.02277,-6.41985c0,-3.54559 4.93506,-6.41985 11.02277,-6.41985z" data-paper-data="{&quot;index&quot;:null}" fill="#ff0000" stroke="#000000" stroke-width="5"/><path d="M-143.06152,451.03904v-481.89639l186.62162,-52.55256c0,0 11.37615,271.22744 14.92661,355.87674c1.96947,46.95554 4.59291,109.50315 4.59291,109.50315z" fill="#9f9f9f" stroke="none" stroke-width="0"/><path d="M-127.17312,387.96116l-23.49173,-364.80954l188.75097,-13.62629l23.49173,364.80954z" fill="#b5b5b5" stroke="none" stroke-width="0"/><g stroke="none" stroke-width="0"><g fill="#a7a7a7"><path d="M-80.97898,385.47452l-23.38326,-363.12507l18.45203,-1.33209l23.38326,363.12507z"/><path d="M-44.07493,382.81034l-23.38326,-363.12507l18.45203,-1.33209l23.38326,363.12507z"/><path d="M-10.24621,380.36819l-23.38326,-363.12507l18.45203,-1.33209l23.38326,363.12507z"/><path d="M26.65786,377.70401l-23.38326,-363.12507l18.45203,-1.33209l23.38326,363.12507z"/></g><path d="M-74.82831,385.03049l-23.38326,-363.12507l18.45203,-1.33209l23.38326,363.12507z" fill="#cecece"/><path d="M-37.92425,382.36632l-23.38326,-363.12507l18.45203,-1.33209l23.38326,363.12507z" fill="#cecece"/><path d="M-4.09555,379.92416l-23.38326,-363.12507l18.45203,-1.33209l23.38326,363.12507z" fill="#cecece"/><path d="M32.8085,377.25999l-23.38326,-363.12507l18.45203,-1.33209l23.38326,363.12507z" fill="#cecece"/></g><g><path d="M323.34794,181.90965c11.38105,0 20.60719,9.64081 20.60719,21.53336c0,11.89255 -9.22615,21.53336 -20.60719,21.53336c-11.38105,0 -20.6072,-9.64081 -20.6072,-21.53336c0,-11.89255 9.22616,-21.53336 20.6072,-21.53336z" data-paper-data="{&quot;index&quot;:null}" fill="#d29460" stroke="#000000" stroke-width="2"/><path d="M321.09324,182.05621c1.7985,-0.03466 7.23539,-1.23033 8.69874,0.56618c1.19553,1.46772 9.95755,3.73715 10.33325,7.33322c0.45485,-0.088 0.82342,-0.00141 1.06758,0.32413c0.89578,1.19438 -1.38708,2.19145 -2.02353,2.63529c-2.51002,1.75042 -5.07661,4.51493 -7.79883,5.8044c-3.32701,1.57595 -1.93333,-3.09904 -2.24521,-3.12778c-2.11883,-0.19523 -4.99681,1.22268 -7.23571,1.28156c-4.36122,0.11469 -8.46442,-0.26607 -12.80749,-0.34641c-0.55121,-0.0102 -3.3739,0.11064 -3.78499,-0.60877c-0.29474,-0.17395 -0.49247,-0.49479 -0.49247,-0.86182c0,-0.49706 0.36266,-0.90942 0.83781,-0.98691c1.37581,-6.33275 9.22971,-11.89321 15.45085,-12.01309z" fill="#000000" stroke="none" stroke-width="0.5"/><path d="M337.90931,214.81837c-1.529,0 -1.529,-1.668 -1.529,-1.668l0.01536,-0.00239c-0.32867,-2.52058 -0.34301,-4.96093 -0.34301,-7.50361c0,0 0,-1.668 1.529,-1.668c1.529,0 1.529,1.668 1.529,1.668c0,2.38598 0.00134,4.66817 0.31227,7.03182l0.01536,0.47418c0,0 0,1.668 -1.529,1.668z" fill="#000000" stroke="none" stroke-width="0.5"/><path d="M333.24264,214.48504c-1.529,0 -1.529,-1.668 -1.529,-1.668l0.01536,-0.00239c-0.32867,-2.52058 -0.34301,-4.96093 -0.34301,-7.50361c0,0 0,-1.668 1.529,-1.668c1.529,0 1.529,1.668 1.529,1.668c0,2.38598 0.00134,4.66817 0.31227,7.03182l0.01536,0.47418c0,0 0,1.668 -1.529,1.668z" fill="#000000" stroke="none" stroke-width="0.5"/></g><g><g stroke="none" stroke-width="0.5"><path d="M305.66027,177.33928c0.58883,0.35109 3.65849,4.23697 4.37056,4.87271c3.56764,3.18513 10.72245,3.60259 15.23002,3.56413c1.06486,-0.00556 4.37363,0.03634 5.28418,-0.24128c1.60569,-0.48957 2.79901,-1.85439 4.21717,-2.75255c3.92762,-2.48748 9.22629,-5.90231 10.2096,-10.89141c0.85432,-4.33465 -2.25185,-8.24482 -3.83079,-11.85805c-0.95776,-2.19167 -1.3438,-5.03829 -1.76519,-7.47721c-2.29474,1.48534 -4.62755,2.94535 -7.06751,4.09032c-1.88174,0.88302 -3.94975,1.37324 -5.75122,2.41023c-6.42505,3.69845 -11.7876,8.351 -17.70278,12.71867c-1.88053,1.38856 -3.90039,2.58747 -5.82159,3.91818c0.91367,0.46323 1.82473,1.16759 2.62755,1.64627zM279.18043,146.67098c-2.50808,-10.34047 -2.6344,-21.15122 -4.91757,-31.55177l0.0128,-0.10002l-0.0281,0.0039l-0.43738,-3.14089c-0.15513,-0.95787 0.25837,-1.96001 1.12978,-2.5124c0.9163,-0.58088 2.06629,-0.49165 2.87562,0.13899l2.94063,2.18318l-0.18243,0.24571c4.28383,2.23592 8.34948,4.77267 12.785,6.84215c7.69843,3.59187 16.61243,5.22734 23.88607,9.71793c3.03461,1.87351 5.38336,4.93702 8.39593,6.73172c4.64,2.76424 9.57181,5.21238 14.34719,7.80738l2.41537,1.31548c0,0 0.72383,0.39423 1.11391,1.14556c0.30261,0.18475 0.59729,0.46728 0.8618,0.88453c0.55354,0.8732 0.51706,1.61419 0.28389,2.183c4.01908,7.98982 7.99239,17.77743 7.23509,26.8174c-0.40597,4.846 -4.0047,6.60878 -7.13646,9.70688c-4.93888,4.8858 -10.59396,9.90143 -17.90673,10.42033c-4.40795,0.31275 -8.85722,-0.94207 -13.05947,-2.01464c-7.19375,-2.12928 -13.19425,-3.48879 -17.57181,-9.9789c-0.68264,-1.01206 -1.93898,-1.92992 -2.25973,-3.04475c-6.68452,-10.56922 -11.82602,-21.60788 -14.7834,-33.80076z" fill="#696969"/><path d="M292.43593,170.58346c-2.14149,-1.28997 -0.85153,-3.43146 -0.85153,-3.43146l0.62663,-0.79164c1.22345,-5.07352 4.38137,-7.11042 7.79241,-10.76864c1.42942,-1.53301 2.56286,-3.33258 4.04687,-4.81283c2.93113,-2.92364 6.87565,-4.56774 10.47147,-6.37288c5.18402,-2.60243 8.58696,-4.23668 14.4807,-2.95011c0,0 2.43953,0.54657 1.89296,2.98608c-0.54657,2.43953 -2.98608,1.89296 -2.98608,1.89296c-4.68143,-1.08235 -7.01626,0.46658 -11.13969,2.53729c-3.10975,1.56165 -6.69649,2.91158 -9.21827,5.47633c-1.41313,1.4372 -2.50315,3.16549 -3.8782,4.63918c-2.65086,2.84102 -5.79937,4.53024 -6.58311,8.46574l-1.22268,2.27843c0,0 -1.28997,2.14149 -3.43146,0.85153z" fill="#a2a2a2"/><path d="M287.58865,156.26143c-2.47898,-0.32346 -2.15553,-2.80245 -2.15553,-2.80245l0.41123,-2.6315c1.5181,-3.76902 3.45896,-4.8275 6.37939,-7.44296c3.94053,-3.52899 8.67547,-8.04521 13.76957,-9.96668c3.37738,-1.27393 6.64537,0.04066 10.06446,-0.49878c0,0 2.47313,-0.3656 2.83872,2.10752c0.3656,2.47313 -2.10752,2.83872 -2.10752,2.83872c-2.8636,0.40131 -6.4385,-0.85557 -9.07327,0.24652c-4.53353,1.89631 -8.59089,5.80719 -12.16111,9.00174c-2.3424,2.09592 -4.007,2.48959 -5.0348,5.48606l-0.12867,1.50626c0,0 -0.32346,2.47898 -2.80245,2.15553z" fill="#a2a2a2"/><path d="M282.10663,140.87572c-2.33771,-0.88608 -1.45164,-3.22377 -1.45164,-3.22377l0.92232,-2.00072c4.31199,-4.95946 9.51448,-8.01415 15.52076,-10.55613c0,0 2.30281,-0.97318 3.27599,1.32961c0.97318,2.30281 -1.32961,3.27599 -1.32961,3.27599c-5.29023,2.23227 -9.90563,4.84942 -13.68952,9.22614l-0.02451,0.49725c0,0 -0.88608,2.33771 -3.22377,1.45164z" fill="#a2a2a2"/></g><path d="M321.39442,183.78826c-1.92131,-5.06668 0.50216,-10.68364 5.41294,-12.54581c4.91077,-1.86218 10.44929,0.73558 12.37058,5.80225c1.92131,5.06668 -0.50216,10.68364 -5.41294,12.54581c-4.91077,1.86218 -10.44929,-0.73558 -12.37058,-5.80225z" data-paper-data="{&quot;index&quot;:null}" fill="#ff0000" stroke="#000000" stroke-width="5"/></g></g></g></svg>