<svg version="1.1" xmlns="http://www.w3.org/2000/svg" xmlns:xlink="http://www.w3.org/1999/xlink" width="695.16488" height="594.24324" viewBox="0,0,695.16488,594.24324"><g transform="translate(150.66485,83.40991)"><g data-paper-data="{&quot;isPaintingLayer&quot;:true}" fill-rule="nonzero" stroke-linecap="butt" stroke-linejoin="miter" stroke-miterlimit="10" stroke-dasharray="" stroke-dashoffset="0" style="mix-blend-mode: normal"><path d="M-43.49997,239.5v-273h585v273z" fill="#ababab" stroke="none" stroke-width="0"/><path d="M-40.49997,510.83333v-273h585v273z" fill="#8c8c8c" stroke="none" stroke-width="0"/><path d="M182.50004,166.5v-93h110v93z" fill="#00d9ff" stroke="none" stroke-width="0"/><g fill="#a7a7a7" stroke="none" stroke-width="0"><path d="M193.50004,167.5v-93h12v93z"/><path d="M217.50004,167.5v-93h12v93z"/><path d="M239.50004,167.5v-93h12v93z"/><path d="M263.50004,167.5v-93h12v93z"/></g><path d="M197.50004,167.5v-93h12v93z" fill="#cecece" stroke="none" stroke-width="0"/><path d="M221.50004,167.5v-93h12v93z" fill="#cecece" stroke="none" stroke-width="0"/><path d="M243.50004,167.5v-93h12v93z" fill="#cecece" stroke="none" stroke-width="0"/><path d="M267.50004,167.5v-93h12v93z" fill="#cecece" stroke="none" stroke-width="0"/><path d="M414.50004,323.5v-163h65v163z" fill="#595959" stroke="none" stroke-width="0"/><path d="M413.50004,412.5v-91h65v91z" fill="#9f9f9f" stroke="none" stroke-width="0"/><path d="M314.09551,233.61038c7.69326,0 13.92988,12.79863 13.92988,28.58653c0,15.7879 -6.23662,28.58653 -13.92988,28.58653c-7.69326,0 -13.92988,-12.79863 -13.92988,-28.58653c0,-15.7879 6.23662,-28.58653 13.92988,-28.58653z" data-paper-data="{&quot;index&quot;:null}" fill="#ff0000" stroke="#000000" stroke-width="5"/><path d="M323.61207,259.85134c5.41873,0 9.81148,4.25759 9.81148,9.50959c0,5.252 -4.39275,9.50959 -9.81148,9.50959c-5.41873,0 -9.81148,-4.25759 -9.81148,-9.50959c0,-5.252 4.39275,-9.50959 9.81148,-9.50959z" data-paper-data="{&quot;index&quot;:null}" fill="#ff0000" stroke="#000000" stroke-width="5"/><path d="M333.27872,307.08548c6.08771,0 11.02277,2.87427 11.02277,6.41986c0,3.54559 -4.93506,6.41986 -11.02277,6.41986c-6.08771,0 -11.02277,-2.87427 -11.02277,-6.41986c0,-3.54559 4.93506,-6.41986 11.02277,-6.41986z" data-paper-data="{&quot;index&quot;:null}" fill="#ff0000" stroke="#000000" stroke-width="5"/><path d="M305.26779,306.05998c6.08771,0 11.02277,2.87426 11.02277,6.41985c0,3.54559 -4.93506,6.41985 -11.02277,6.41985c-6.0877,0 -11.02277,-2.87426 -11.02277,-6.41985c0,-3.54559 4.93506,-6.41985 11.02277,-6.41985z" data-paper-data="{&quot;index&quot;:null}" fill="#ff0000" stroke="#000000" stroke-width="5"/><path d="M-143.06152,451.03904v-481.89639l186.62162,-52.55256c0,0 11.37615,271.22744 14.92661,355.87674c1.96947,46.95554 4.59291,109.50315 4.59291,109.50315z" fill="#9f9f9f" stroke="none" stroke-width="0"/><path d="M-127.17312,387.96116l-23.49173,-364.80954l188.75097,-13.62629l23.49173,364.80954z" fill="#b5b5b5" stroke="none" stroke-width="0"/><g stroke="none" stroke-width="0"><g fill="#a7a7a7"><path d="M-80.97898,385.47452l-23.38326,-363.12507l18.45203,-1.33209l23.38326,363.12507z"/><path d="M-44.07493,382.81034l-23.38326,-363.12507l18.45203,-1.33209l23.38326,363.12507z"/><path d="M-10.24621,380.36819l-23.38326,-363.12507l18.45203,-1.33209l23.38326,363.12507z"/><path d="M26.65786,377.70401l-23.38326,-363.12507l18.45203,-1.33209l23.38326,363.12507z"/></g><path d="M-74.82831,385.03049l-23.38326,-363.12507l18.45203,-1.33209l23.38326,363.12507z" fill="#cecece"/><path d="M-37.92425,382.36632l-23.38326,-363.12507l18.45203,-1.33209l23.38326,363.12507z" fill="#cecece"/><path d="M-4.09555,379.92416l-23.38326,-363.12507l18.45203,-1.33209l23.38326,363.12507z" fill="#cecece"/><path d="M32.8085,377.25999l-23.38326,-363.12507l18.45203,-1.33209l23.38326,363.12507z" fill="#cecece"/></g><path d="M343.70513,203.69301c0,11.89255 -9.22615,21.53336 -20.6072,21.53336c-11.38104,0 -20.60719,-9.64081 -20.60719,-21.53336c0,-11.89255 9.22614,-21.53336 20.60719,-21.53336c11.38104,0 20.6072,9.64081 20.6072,21.53336z" data-paper-data="{&quot;index&quot;:null}" fill="#d29460" stroke="#000000" stroke-width="2"/><path d="M340.55348,194.0693c0.47515,0.07749 0.83781,0.48985 0.83781,0.98691c0,0.36703 -0.19773,0.68787 -0.49247,0.86182c-0.41109,0.71941 -3.23378,0.59857 -3.78499,0.60877c-4.34307,0.08034 -8.44627,0.4611 -12.80749,0.34641c-2.2389,-0.05888 -5.11688,-1.47679 -7.23571,-1.28156c-0.31188,0.02874 1.0818,4.70373 -2.24521,3.12778c-2.72222,-1.28947 -5.28881,-4.05398 -7.79883,-5.8044c-0.63645,-0.44384 -2.91931,-1.44091 -2.02353,-2.63529c0.24416,-0.32554 0.61273,-0.41213 1.06758,-0.32413c0.3757,-3.59607 9.13772,-5.8655 10.33325,-7.33322c1.46335,-1.79651 6.90024,-0.60084 8.69874,-0.56618c6.22114,0.11988 14.07504,5.68034 15.45085,12.01309z" data-paper-data="{&quot;index&quot;:null}" fill="#000000" stroke="none" stroke-width="0.5"/><path d="M308.28658,214.81837c-1.529,0 -1.529,-1.668 -1.529,-1.668l0.01536,-0.47418c0.31093,-2.36365 0.31227,-4.64584 0.31227,-7.03182c0,0 0,-1.668 1.529,-1.668c1.529,0 1.529,1.668 1.529,1.668c0,2.54268 -0.01434,4.98303 -0.34301,7.50361l0.01536,0.00239c0,0 0,1.668 -1.529,1.668z" data-paper-data="{&quot;index&quot;:null}" fill="#000000" stroke="none" stroke-width="0.5"/><path d="M312.95325,214.48504c-1.529,0 -1.529,-1.668 -1.529,-1.668l0.01536,-0.47418c0.31093,-2.36365 0.31227,-4.64584 0.31227,-7.03182c0,0 0,-1.668 1.529,-1.668c1.529,0 1.529,1.668 1.529,1.668c0,2.54268 -0.01434,4.98303 -0.34301,7.50361l0.01536,0.00239c0,0 0,1.668 -1.529,1.668z" data-paper-data="{&quot;index&quot;:null}" fill="#000000" stroke="none" stroke-width="0.5"/><g><g stroke="none" stroke-width="0.5"><path d="M270.42562,213.88323c0.03006,-0.68489 1.99679,-5.22965 2.21908,-6.15798c1.11366,-4.65111 -1.90995,-11.14907 -4.08028,-15.09993c-0.50961,-0.93501 -2.04099,-3.86837 -2.71703,-4.53856c-1.19214,-1.18183 -2.95952,-1.5857 -4.42256,-2.40874c-4.05192,-2.27942 -9.57023,-5.32657 -14.4294,-3.8277c-4.22175,1.30225 -6.19256,5.89067 -8.62578,8.99357c-1.4759,1.88214 -3.79949,3.57129 -5.74732,5.09832c2.39555,1.3166 4.78684,2.67872 6.9515,4.28451c1.66943,1.23842 3.08127,2.82703 4.84823,3.92178c6.30194,3.90454 12.9404,6.42128 19.58994,9.55966c2.114,0.99774 4.12705,2.20805 6.20939,3.26902c-0.02516,-1.02408 0.16323,-2.16015 0.20422,-3.09395zM255.97176,251.73575c-7.91642,7.10958 -17.37583,12.34482 -25.45175,19.28484l-0.09414,0.03614l0.01676,0.02289l-2.55837,1.87383c-0.76992,0.5906 -1.84833,0.70149 -2.74775,0.196c-0.94579,-0.53152 -1.41229,-1.58642 -1.24059,-2.59798l0.52859,-3.62411l0.30282,0.04418c-0.06161,-4.83185 0.24508,-9.61416 -0.03498,-14.50069c-0.48608,-8.48122 -3.27099,-17.10552 -2.76438,-25.63865c0.21137,-3.56008 1.79566,-7.08028 1.94808,-10.5836c0.23478,-5.39587 0.0529,-10.89888 0.0745,-16.33375l0.01351,-2.75033c0,0 0.00405,-0.82421 0.48074,-1.52381c0.01925,-0.35402 0.12835,-0.74741 0.37039,-1.17809c0.50652,-0.90129 1.17629,-1.22038 1.78766,-1.28466c5.1304,-7.32592 11.86553,-15.46365 20.18451,-19.08154c4.45951,-1.93941 7.71742,0.39391 11.92978,1.68312c6.64303,2.03313 13.73986,4.63537 17.66283,10.82859c2.36465,3.73313 3.36857,8.24564 4.41589,12.45426c1.53474,7.3436 3.18172,13.27165 -0.45822,20.2024c-0.56761,1.08078 -0.78035,2.62208 -1.60997,3.43291c-6.13831,10.89552 -13.42134,20.65485 -22.75592,29.03805z" fill="#696969"/><path d="M270.74486,228.72986c-0.12085,2.49708 -2.61793,2.37623 -2.61793,2.37623l-0.99408,-0.17655c-5.04732,1.32742 -8.33765,-0.48781 -13.17561,-1.75746c-2.02739,-0.53205 -4.1492,-0.67715 -6.156,-1.28227c-3.96366,-1.19524 -7.28095,-3.88928 -10.57477,-6.19995c-4.74863,-3.33125 -7.80056,-5.55308 -9.46116,-11.35254c0,0 -0.675,-2.40716 1.73215,-3.08215c2.40716,-0.675 3.08215,1.73215 3.08215,1.73215c1.26582,4.63519 3.73637,5.95694 7.51411,8.60632c2.84904,1.99808 5.73772,4.5165 9.19135,5.5214c1.9353,0.56312 3.97377,0.70376 5.92314,1.21605c3.75806,0.98761 6.73781,2.95935 10.57463,1.78414l2.58576,-0.0033c0,0 2.49708,0.12085 2.37623,2.61793z" fill="#a2a2a2"/><path d="M260.43124,239.78635c0.89015,2.33615 -1.446,3.22632 -1.446,3.22632l-2.51205,0.88516c-4.03831,0.44968 -5.89026,-0.75764 -9.57748,-2.08953c-4.97512,-1.79714 -11.19607,-3.82586 -15.30247,-7.40069c-2.72253,-2.3701 -3.11393,-5.87078 -5.20949,-8.62574c0,0 -1.49412,-2.0044 0.51027,-3.49851c2.0044,-1.49412 3.49851,0.51027 3.49851,0.51027c1.71064,2.3313 2.29832,6.07487 4.51757,7.87252c3.81855,3.09315 9.18532,4.81215 13.69043,6.44173c2.95578,1.06916 4.09139,2.34831 7.21706,1.83308l1.3873,-0.60063c0,0 2.33615,-0.89015 3.22632,1.446z" fill="#a2a2a2"/><path d="M249.48187,251.90591c0.32778,2.47842 -2.15061,2.80621 -2.15061,2.80621l-2.19887,0.13615c-6.41076,-1.44621 -11.56639,-4.57936 -16.65153,-8.66329c0,0 -1.9484,-1.56645 -0.38197,-3.51483c1.56645,-1.9484 3.51483,-0.38197 3.51483,-0.38197c4.47304,3.60021 8.96512,6.42379 14.61246,7.6812l0.44946,-0.2141c0,0 2.47842,-0.32778 2.80621,2.15061z" fill="#a2a2a2"/></g><path d="M268.64661,196.97205c-3.55076,4.09326 -9.64537,4.6216 -13.61266,1.18009c-3.9673,-3.4415 -4.30498,-9.54965 -0.75423,-13.64289c3.55076,-4.09326 9.64537,-4.6216 13.61266,-1.18009c3.9673,3.4415 4.30498,9.54965 0.75423,13.64289z" data-paper-data="{&quot;index&quot;:null}" fill="#ff0000" stroke="#000000" stroke-width="5"/></g></g></g></svg>