<svg version="1.1" xmlns="http://www.w3.org/2000/svg" xmlns:xlink="http://www.w3.org/1999/xlink" width="695.16488" height="594.24324" viewBox="0,0,695.16488,594.24324"><g transform="translate(150.66485,83.40991)"><g data-paper-data="{&quot;isPaintingLayer&quot;:true}" fill-rule="nonzero" stroke-linecap="butt" stroke-linejoin="miter" stroke-miterlimit="10" stroke-dasharray="" stroke-dashoffset="0" style="mix-blend-mode: normal"><path d="M-43.49997,239.5v-273h585v273z" fill="#ababab" stroke="none" stroke-width="0"/><path d="M-40.49997,510.83333v-273h585v273z" fill="#8c8c8c" stroke="none" stroke-width="0"/><path d="M182.50004,166.5v-93h110v93z" fill="#00d9ff" stroke="none" stroke-width="0"/><g fill="#a7a7a7" stroke="none" stroke-width="0"><path d="M193.50004,167.5v-93h12v93z"/><path d="M217.50004,167.5v-93h12v93z"/><path d="M239.50004,167.5v-93h12v93z"/><path d="M263.50004,167.5v-93h12v93z"/></g><path d="M197.50004,167.5v-93h12v93z" fill="#cecece" stroke="none" stroke-width="0"/><path d="M221.50004,167.5v-93h12v93z" fill="#cecece" stroke="none" stroke-width="0"/><path d="M243.50004,167.5v-93h12v93z" fill="#cecece" stroke="none" stroke-width="0"/><path d="M267.50004,167.5v-93h12v93z" fill="#cecece" stroke="none" stroke-width="0"/><path d="M414.50004,323.5v-163h65v163z" fill="#595959" stroke="none" stroke-width="0"/><path d="M413.50004,412.5v-91h65v91z" fill="#9f9f9f" stroke="none" stroke-width="0"/><path d="M314.09551,233.61038c7.69326,0 13.92988,12.79863 13.92988,28.58653c0,15.7879 -6.23662,28.58653 -13.92988,28.58653c-7.69326,0 -13.92988,-12.79863 -13.92988,-28.58653c0,-15.7879 6.23662,-28.58653 13.92988,-28.58653z" data-paper-data="{&quot;index&quot;:null}" fill="#ff0000" stroke="#000000" stroke-width="5"/><path d="M286.61207,261.85134c5.41873,0 9.81148,4.25759 9.81148,9.50959c0,5.252 -4.39275,9.50959 -9.81148,9.50959c-5.41873,0 -9.81148,-4.25759 -9.81148,-9.50959c0,-5.252 4.39275,-9.50959 9.81148,-9.50959z" data-paper-data="{&quot;index&quot;:null}" fill="#ff0000" stroke="#000000" stroke-width="5"/><path d="M333.27872,307.08548c6.08771,0 11.02277,2.87427 11.02277,6.41986c0,3.54559 -4.93506,6.41986 -11.02277,6.41986c-6.08771,0 -11.02277,-2.87427 -11.02277,-6.41986c0,-3.54559 4.93506,-6.41986 11.02277,-6.41986z" data-paper-data="{&quot;index&quot;:null}" fill="#ff0000" stroke="#000000" stroke-width="5"/><path d="M305.26779,306.05998c6.08771,0 11.02277,2.87426 11.02277,6.41985c0,3.54559 -4.93506,6.41985 -11.02277,6.41985c-6.0877,0 -11.02277,-2.87426 -11.02277,-6.41985c0,-3.54559 4.93506,-6.41985 11.02277,-6.41985z" data-paper-data="{&quot;index&quot;:null}" fill="#ff0000" stroke="#000000" stroke-width="5"/><path d="M-143.06152,451.03904v-481.89639l186.62162,-52.55256c0,0 11.37615,271.22744 14.92661,355.87674c1.96947,46.95554 4.59291,109.50315 4.59291,109.50315z" fill="#9f9f9f" stroke="none" stroke-width="0"/><path d="M-127.17312,387.96116l-23.49173,-364.80954l188.75097,-13.62629l23.49173,364.80954z" fill="#b5b5b5" stroke="none" stroke-width="0"/><g stroke="none" stroke-width="0"><g fill="#a7a7a7"><path d="M-80.97898,385.47452l-23.38326,-363.12507l18.45203,-1.33209l23.38326,363.12507z"/><path d="M-44.07493,382.81034l-23.38326,-363.12507l18.45203,-1.33209l23.38326,363.12507z"/><path d="M-10.24621,380.36819l-23.38326,-363.12507l18.45203,-1.33209l23.38326,363.12507z"/><path d="M26.65786,377.70401l-23.38326,-363.12507l18.45203,-1.33209l23.38326,363.12507z"/></g><path d="M-74.82831,385.03049l-23.38326,-363.12507l18.45203,-1.33209l23.38326,363.12507z" fill="#cecece"/><path d="M-37.92425,382.36632l-23.38326,-363.12507l18.45203,-1.33209l23.38326,363.12507z" fill="#cecece"/><path d="M-4.09555,379.92416l-23.38326,-363.12507l18.45203,-1.33209l23.38326,363.12507z" fill="#cecece"/><path d="M32.8085,377.25999l-23.38326,-363.12507l18.45203,-1.33209l23.38326,363.12507z" fill="#cecece"/></g><g><path d="M323.34794,181.90965c11.38105,0 20.60719,9.64081 20.60719,21.53336c0,11.89255 -9.22615,21.53336 -20.60719,21.53336c-11.38105,0 -20.6072,-9.64081 -20.6072,-21.53336c0,-11.89255 9.22616,-21.53336 20.6072,-21.53336z" data-paper-data="{&quot;index&quot;:null}" fill="#d29460" stroke="#000000" stroke-width="2"/><path d="M321.09324,182.05621c1.7985,-0.03466 7.23539,-1.23033 8.69874,0.56618c1.19553,1.46772 9.95755,3.73715 10.33325,7.33322c0.45485,-0.088 0.82342,-0.00141 1.06758,0.32413c0.89578,1.19438 -1.38708,2.19145 -2.02353,2.63529c-2.51002,1.75042 -5.07661,4.51493 -7.79883,5.8044c-3.32701,1.57595 -1.93333,-3.09904 -2.24521,-3.12778c-2.11883,-0.19523 -4.99681,1.22268 -7.23571,1.28156c-4.36122,0.11469 -8.46442,-0.26607 -12.80749,-0.34641c-0.55121,-0.0102 -3.3739,0.11064 -3.78499,-0.60877c-0.29474,-0.17395 -0.49247,-0.49479 -0.49247,-0.86182c0,-0.49706 0.36266,-0.90942 0.83781,-0.98691c1.37581,-6.33275 9.22971,-11.89321 15.45085,-12.01309z" fill="#000000" stroke="none" stroke-width="0.5"/><path d="M337.90931,214.81837c-1.529,0 -1.529,-1.668 -1.529,-1.668l0.01536,-0.00239c-0.32867,-2.52058 -0.34301,-4.96093 -0.34301,-7.50361c0,0 0,-1.668 1.529,-1.668c1.529,0 1.529,1.668 1.529,1.668c0,2.38598 0.00134,4.66817 0.31227,7.03182l0.01536,0.47418c0,0 0,1.668 -1.529,1.668z" fill="#000000" stroke="none" stroke-width="0.5"/><path d="M333.24264,214.48504c-1.529,0 -1.529,-1.668 -1.529,-1.668l0.01536,-0.00239c-0.32867,-2.52058 -0.34301,-4.96093 -0.34301,-7.50361c0,0 0,-1.668 1.529,-1.668c1.529,0 1.529,1.668 1.529,1.668c0,2.38598 0.00134,4.66817 0.31227,7.03182l0.01536,0.47418c0,0 0,1.668 -1.529,1.668z" fill="#000000" stroke="none" stroke-width="0.5"/></g><g><g stroke="none" stroke-width="0.5"><path d="M334.85572,242.31996c-0.12392,0.67426 -2.69675,4.90551 -3.04453,5.79447c-1.74247,4.45386 0.35916,11.30578 1.96577,15.51749c0.37624,0.9962 1.48983,4.11222 2.06731,4.86898c1.01835,1.33449 2.71343,1.97749 4.04944,2.99384c3.70009,2.81479 8.74714,6.5916 13.76622,5.77495c4.36069,-0.70953 6.94356,-4.98345 9.78022,-7.72241c1.72062,-1.66137 4.25435,-3.01507 6.39362,-4.25984c-2.19182,-1.63341 -4.37315,-3.31133 -6.29653,-5.19944c-1.48333,-1.45615 -2.66339,-3.22376 -4.26308,-4.55103c-5.70535,-4.73379 -11.93482,-8.13921 -18.08981,-12.16191c-1.95678,-1.27888 -3.78433,-2.75442 -5.70105,-4.09159c-0.11585,1.01782 -0.45864,2.1172 -0.62759,3.0365zM354.37591,206.81377c8.81861,-5.95382 18.90789,-9.839 27.86118,-15.60293l0.09821,-0.02285l-0.01345,-0.02497l2.79168,-1.50435c0.84379,-0.47915 1.9272,-0.44074 2.74861,0.18359c0.86374,0.65649 1.18079,1.76551 0.87166,2.74385l-1.02177,3.51704l-0.29388,-0.08538c-0.6032,4.79444 -1.56441,9.48919 -1.95875,14.36783c-0.68444,8.46752 0.88846,17.39278 -0.7864,25.77526c-0.69876,3.49723 -2.75193,6.76621 -3.38451,10.21532c-0.97431,5.31237 -1.55066,10.78813 -2.31917,16.16844l-0.39146,2.72237c0,0 -0.11732,0.81584 -0.68566,1.44326c-0.06774,0.34802 -0.22989,0.72267 -0.52883,1.11599c-0.62561,0.8231 -1.33288,1.04709 -1.94729,1.02672c-6.08879,6.5511 -13.87865,13.6857 -22.616,16.12564c-4.68377,1.30795 -7.58999,-1.45106 -11.58514,-3.3071c-6.30048,-2.92704 -12.9722,-6.48015 -16.00654,-13.15389c-1.829,-4.02275 -2.20307,-8.63043 -2.66189,-12.94307c-0.51066,-7.48486 -1.32708,-13.58303 3.23107,-19.94761c0.71079,-0.99249 1.13339,-2.48992 2.0666,-3.179c7.57783,-9.94825 16.13332,-18.61373 26.53171,-25.63413z" fill="#696969"/><path d="M336.58047,227.5704c0.46298,-2.45676 2.91973,-1.99379 2.91973,-1.99379l0.96037,0.31153c5.18188,-0.62097 8.19143,1.62935 12.80892,3.55201c1.93499,0.80571 4.01672,1.24109 5.92127,2.11635c3.76172,1.72877 6.67718,4.85326 9.62208,7.59479c4.2456,3.9524 6.96313,6.57269 7.81073,12.54538c0,0 0.33768,2.47709 -2.13941,2.81477c-2.47709,0.33768 -2.81477,-2.13941 -2.81477,-2.13941c-0.61662,-4.76519 -2.88201,-6.41402 -6.25967,-9.55757c-2.54731,-2.37076 -5.06237,-5.26238 -8.34506,-6.73251c-1.83951,-0.82381 -3.8393,-1.24335 -5.69974,-2.01876c-3.58663,-1.49485 -6.26701,-3.8575 -10.22898,-3.22088l-2.56168,-0.3522c0,0 -2.45676,-0.46298 -1.99379,-2.91973z" fill="#a2a2a2"/><path d="M348.3161,218.03667c-0.56056,-2.43634 1.87579,-2.9969 1.87579,-2.9969l2.60988,-0.53143c4.06178,0.10974 5.73018,1.56017 9.1993,3.3863c4.68084,2.464 10.56384,5.32865 14.13982,9.43403c2.37088,2.72187 2.27732,6.24311 3.97426,9.25998c0,0 1.2044,2.19076 -0.98637,3.39515c-2.19076,1.2044 -3.39515,-0.98637 -3.39515,-0.98637c-1.37392,-2.54432 -1.4414,-6.33314 -3.39245,-8.41881c-3.35708,-3.58872 -8.43659,-6.02917 -12.67492,-8.26259c-2.78074,-1.46533 -3.72974,-2.88846 -6.89654,-2.8078l-1.45671,0.40422c0,0 -2.43634,0.56056 -2.9969,-1.87579z" fill="#a2a2a2"/><path d="M360.82758,207.53737c0.01603,-2.49995 2.51597,-2.48392 2.51597,-2.48392l2.19671,0.16742c6.1511,2.31377 10.82706,6.1259 15.30249,10.87011c0,0 1.71455,1.81942 -0.10485,3.53398c-1.81942,1.71455 -3.53398,-0.10485 -3.53398,-0.10485c-3.93564,-4.18093 -7.99693,-7.59523 -13.4178,-9.61703l-0.47462,0.15028c0,0 -2.49995,-0.01603 -2.48392,-2.51597z" fill="#a2a2a2"/></g><path d="M334.29308,259.31514c4.07974,-3.56628 10.18912,-3.25179 13.64566,0.70243c3.45654,3.95421 2.95134,10.05078 -1.1284,13.61705c-4.07974,3.56628 -10.18912,3.25179 -13.64566,-0.70243c-3.45654,-3.95421 -2.95134,-10.05078 1.1284,-13.61705z" data-paper-data="{&quot;index&quot;:null}" fill="#ff0000" stroke="#000000" stroke-width="5"/></g></g></g></svg>