<svg version="1.1" xmlns="http://www.w3.org/2000/svg" xmlns:xlink="http://www.w3.org/1999/xlink" width="695.16488" height="594.24324" viewBox="0,0,695.16488,594.24324"><g transform="translate(150.66485,83.40991)"><g data-paper-data="{&quot;isPaintingLayer&quot;:true}" fill-rule="nonzero" stroke-linecap="butt" stroke-linejoin="miter" stroke-miterlimit="10" stroke-dasharray="" stroke-dashoffset="0" style="mix-blend-mode: normal"><path d="M-43.49997,239.5v-273h585v273z" fill="#ababab" stroke="none" stroke-width="0"/><path d="M-40.49997,510.83333v-273h585v273z" fill="#8c8c8c" stroke="none" stroke-width="0"/><path d="M182.50004,166.5v-93h110v93z" fill="#00d9ff" stroke="none" stroke-width="0"/><g fill="#a7a7a7" stroke="none" stroke-width="0"><path d="M193.50004,167.5v-93h12v93z"/><path d="M217.50004,167.5v-93h12v93z"/><path d="M239.50004,167.5v-93h12v93z"/><path d="M263.50004,167.5v-93h12v93z"/></g><path d="M197.50004,167.5v-93h12v93z" fill="#cecece" stroke="none" stroke-width="0"/><path d="M221.50004,167.5v-93h12v93z" fill="#cecece" stroke="none" stroke-width="0"/><path d="M243.50004,167.5v-93h12v93z" fill="#cecece" stroke="none" stroke-width="0"/><path d="M267.50004,167.5v-93h12v93z" fill="#cecece" stroke="none" stroke-width="0"/><path d="M414.50004,323.5v-163h65v163z" fill="#595959" stroke="none" stroke-width="0"/><path d="M413.50004,412.5v-91h65v91z" fill="#9f9f9f" stroke="none" stroke-width="0"/><path d="M314.09551,233.61038c7.69326,0 13.92988,12.79863 13.92988,28.58653c0,15.7879 -6.23662,28.58653 -13.92988,28.58653c-7.69326,0 -13.92988,-12.79863 -13.92988,-28.58653c0,-15.7879 6.23662,-28.58653 13.92988,-28.58653z" data-paper-data="{&quot;index&quot;:null}" fill="#ff0000" stroke="#000000" stroke-width="5"/><path d="M323.61207,259.85134c5.41873,0 9.81148,4.25759 9.81148,9.50959c0,5.252 -4.39275,9.50959 -9.81148,9.50959c-5.41873,0 -9.81148,-4.25759 -9.81148,-9.50959c0,-5.252 4.39275,-9.50959 9.81148,-9.50959z" data-paper-data="{&quot;index&quot;:null}" fill="#ff0000" stroke="#000000" stroke-width="5"/><path d="M333.27872,307.08548c6.08771,0 11.02277,2.87427 11.02277,6.41986c0,3.54559 -4.93506,6.41986 -11.02277,6.41986c-6.08771,0 -11.02277,-2.87427 -11.02277,-6.41986c0,-3.54559 4.93506,-6.41986 11.02277,-6.41986z" data-paper-data="{&quot;index&quot;:null}" fill="#ff0000" stroke="#000000" stroke-width="5"/><path d="M305.26779,306.05998c6.08771,0 11.02277,2.87426 11.02277,6.41985c0,3.54559 -4.93506,6.41985 -11.02277,6.41985c-6.0877,0 -11.02277,-2.87426 -11.02277,-6.41985c0,-3.54559 4.93506,-6.41985 11.02277,-6.41985z" data-paper-data="{&quot;index&quot;:null}" fill="#ff0000" stroke="#000000" stroke-width="5"/><path d="M-143.06152,451.03904v-481.89639l186.62162,-52.55256c0,0 11.37615,271.22744 14.92661,355.87674c1.96947,46.95554 4.59291,109.50315 4.59291,109.50315z" fill="#9f9f9f" stroke="none" stroke-width="0"/><path d="M-127.17312,387.96116l-23.49173,-364.80954l188.75097,-13.62629l23.49173,364.80954z" fill="#b5b5b5" stroke="none" stroke-width="0"/><g stroke="none" stroke-width="0"><g fill="#a7a7a7"><path d="M-80.97898,385.47452l-23.38326,-363.12507l18.45203,-1.33209l23.38326,363.12507z"/><path d="M-44.07493,382.81034l-23.38326,-363.12507l18.45203,-1.33209l23.38326,363.12507z"/><path d="M-10.24621,380.36819l-23.38326,-363.12507l18.45203,-1.33209l23.38326,363.12507z"/><path d="M26.65786,377.70401l-23.38326,-363.12507l18.45203,-1.33209l23.38326,363.12507z"/></g><path d="M-74.82831,385.03049l-23.38326,-363.12507l18.45203,-1.33209l23.38326,363.12507z" fill="#cecece"/><path d="M-37.92425,382.36632l-23.38326,-363.12507l18.45203,-1.33209l23.38326,363.12507z" fill="#cecece"/><path d="M-4.09555,379.92416l-23.38326,-363.12507l18.45203,-1.33209l23.38326,363.12507z" fill="#cecece"/><path d="M32.8085,377.25999l-23.38326,-363.12507l18.45203,-1.33209l23.38326,363.12507z" fill="#cecece"/></g><path d="M343.70513,203.69301c0,11.89255 -9.22615,21.53336 -20.6072,21.53336c-11.38104,0 -20.60719,-9.64081 -20.60719,-21.53336c0,-11.89255 9.22614,-21.53336 20.60719,-21.53336c11.38104,0 20.6072,9.64081 20.6072,21.53336z" data-paper-data="{&quot;index&quot;:null}" fill="#d29460" stroke="#000000" stroke-width="2"/><path d="M340.55348,194.0693c0.47515,0.07749 0.83781,0.48985 0.83781,0.98691c0,0.36703 -0.19773,0.68787 -0.49247,0.86182c-0.41109,0.71941 -3.23378,0.59857 -3.78499,0.60877c-4.34307,0.08034 -8.44627,0.4611 -12.80749,0.34641c-2.2389,-0.05888 -5.11688,-1.47679 -7.23571,-1.28156c-0.31188,0.02874 1.0818,4.70373 -2.24521,3.12778c-2.72222,-1.28947 -5.28881,-4.05398 -7.79883,-5.8044c-0.63645,-0.44384 -2.91931,-1.44091 -2.02353,-2.63529c0.24416,-0.32554 0.61273,-0.41213 1.06758,-0.32413c0.3757,-3.59607 9.13772,-5.8655 10.33325,-7.33322c1.46335,-1.79651 6.90024,-0.60084 8.69874,-0.56618c6.22114,0.11988 14.07504,5.68034 15.45085,12.01309z" data-paper-data="{&quot;index&quot;:null}" fill="#000000" stroke="none" stroke-width="0.5"/><path d="M308.28658,214.81837c-1.529,0 -1.529,-1.668 -1.529,-1.668l0.01536,-0.47418c0.31093,-2.36365 0.31227,-4.64584 0.31227,-7.03182c0,0 0,-1.668 1.529,-1.668c1.529,0 1.529,1.668 1.529,1.668c0,2.54268 -0.01434,4.98303 -0.34301,7.50361l0.01536,0.00239c0,0 0,1.668 -1.529,1.668z" data-paper-data="{&quot;index&quot;:null}" fill="#000000" stroke="none" stroke-width="0.5"/><path d="M312.95325,214.48504c-1.529,0 -1.529,-1.668 -1.529,-1.668l0.01536,-0.47418c0.31093,-2.36365 0.31227,-4.64584 0.31227,-7.03182c0,0 0,-1.668 1.529,-1.668c1.529,0 1.529,1.668 1.529,1.668c0,2.54268 -0.01434,4.98303 -0.34301,7.50361l0.01536,0.00239c0,0 0,1.668 -1.529,1.668z" data-paper-data="{&quot;index&quot;:null}" fill="#000000" stroke="none" stroke-width="0.5"/><g><g stroke="none" stroke-width="0.5"><path d="M261.78135,235.98854c-0.12646,-0.67379 0.75537,-5.5467 0.76075,-6.50125c0.02692,-4.7825 -4.395,-10.42275 -7.40683,-13.77663c-0.70886,-0.79464 -2.86712,-3.30296 -3.67784,-3.80188c-1.42964,-0.8798 -3.24256,-0.87123 -4.85442,-1.34004c-4.46408,-1.29839 -10.5307,-3.01097 -14.92178,-0.44648c-3.81506,2.22808 -4.69093,7.14444 -6.35488,10.71932c-1.00928,2.16843 -2.88793,4.34167 -4.43752,6.2716c2.63217,0.73741 5.27054,1.52012 7.74363,2.59165c1.90729,0.82639 3.64337,2.05236 5.61297,2.71666c7.02468,2.36933 14.06151,3.31069 21.25048,4.85489c2.28549,0.49092 4.52101,1.2118 6.79005,1.7715c-0.25736,-0.99153 -0.33222,-2.14068 -0.50463,-3.05934zM256.31301,276.13608c-6.09248,8.72339 -14.11372,15.97238 -20.40008,24.56692l-0.08346,0.0566l0.02153,0.01848l-2.06528,2.40647c-0.61546,0.75019 -1.64041,1.10339 -2.63121,0.81565c-1.04187,-0.30254 -1.73602,-1.22374 -1.79882,-2.24784l-0.30931,-3.64937l0.30493,-0.02583c-1.15866,-4.69128 -1.94741,-9.41805 -3.33123,-14.11291c-2.40181,-8.14854 -7.07477,-15.9137 -8.52169,-24.33851c-0.60366,-3.51489 0.13871,-7.30312 -0.50945,-10.74933c-0.99828,-5.30792 -2.42667,-10.62542 -3.64142,-15.92284l-0.61221,-2.68136c0,0 -0.18347,-0.80354 0.12166,-1.59321c-0.06175,-0.34912 -0.04496,-0.75702 0.09281,-1.23145c0.28832,-0.99285 0.86799,-1.45588 1.44873,-1.65749c3.33025,-8.30058 8.0386,-17.75658 15.31704,-23.17128c3.90171,-2.90261 7.60484,-1.3712 12,-1.07356c6.93132,0.46938 14.43395,1.38978 19.66238,6.52877c3.15155,3.09767 5.15523,7.26371 7.13207,11.12395c3.16433,6.80227 6.11609,12.20055 4.14741,19.77741c-0.30699,1.18153 -0.1637,2.73083 -0.78722,3.70906c-3.5001,12.00585 -8.37328,23.16556 -15.55718,33.45167z" fill="#696969"/><path d="M265.46806,250.37369c0.4501,2.45915 -2.00905,2.90925 -2.00905,2.90925l-1.00819,0.05411c-4.61328,2.44031 -8.23017,1.42078 -13.2301,1.28445c-2.09526,-0.05713 -4.19449,0.28403 -6.28631,0.15107c-4.13161,-0.26267 -7.97458,-2.13186 -11.70752,-3.63306c-5.3817,-2.16425 -8.85889,-3.63393 -11.79468,-8.90389c0,0 -1.20466,-2.19063 0.98596,-3.39527c2.19063,-1.20466 3.39527,0.98596 3.39527,0.98596c2.28661,4.22595 4.99299,4.95133 9.27419,6.67233c3.22874,1.29793 6.61439,3.09355 10.20605,3.28684c2.01265,0.10832 4.0297,-0.21823 6.0445,-0.16261c3.88418,0.10723 7.23422,1.34979 10.70332,-0.66705l2.51728,-0.59116c0,0 2.45915,-0.4501 2.90925,2.00905z" fill="#a2a2a2"/><path d="M257.93862,263.48568c1.39803,2.07255 -0.67452,3.4706 -0.67452,3.4706l-2.24498,1.43316c-3.83028,1.35613 -5.90824,0.60153 -9.80173,0.14293c-5.25344,-0.61882 -11.77273,-1.17988 -16.58441,-3.72736c-3.19013,-1.68897 -4.36726,-5.00896 -7.03435,-7.21526c0,0 -1.91074,-1.61216 -0.29859,-3.5229c1.61216,-1.91074 3.5229,-0.29859 3.5229,-0.29859c2.19592,1.88127 3.61942,5.39315 6.18929,6.6391c4.42185,2.14387 10.03891,2.59754 14.79655,3.16006c3.12146,0.36907 4.51818,1.3565 7.44482,0.14405l1.21439,-0.90034c0,0 2.07255,-1.39803 3.4706,0.67452z" fill="#a2a2a2"/><path d="M250.0318,277.77745c0.88274,2.33897 -1.4562,3.22171 -1.4562,3.22171l-2.11032,0.63256c-6.57168,0.04935 -12.30468,-1.82944 -18.18522,-4.65014c0,0 -2.25354,-1.08239 -1.17117,-3.33591c1.08239,-2.25354 3.33591,-1.17117 3.33591,-1.17117c5.17449,2.48883 10.19093,4.21704 15.97625,4.15742l0.389,-0.31069c0,0 2.33897,-0.88274 3.22171,1.4562z" fill="#a2a2a2"/></g><path d="M256.20367,219.92484c-2.52703,4.79341 -8.34186,6.69371 -12.98776,4.24443c-4.64591,-2.44927 -6.36362,-8.32064 -3.8366,-13.11403c2.52703,-4.79341 8.34186,-6.69371 12.98776,-4.24443c4.64591,2.44927 6.36362,8.32064 3.8366,13.11403z" data-paper-data="{&quot;index&quot;:null}" fill="#ff0000" stroke="#000000" stroke-width="5"/></g></g></g></svg>