<svg version="1.1" xmlns="http://www.w3.org/2000/svg" xmlns:xlink="http://www.w3.org/1999/xlink" width="695.16488" height="594.24324" viewBox="0,0,695.16488,594.24324"><g transform="translate(150.66485,83.40991)"><g data-paper-data="{&quot;isPaintingLayer&quot;:true}" fill-rule="nonzero" stroke-linecap="butt" stroke-linejoin="miter" stroke-miterlimit="10" stroke-dasharray="" stroke-dashoffset="0" style="mix-blend-mode: normal"><path d="M-43.49997,239.5v-273h585v273z" fill="#ababab" stroke="none" stroke-width="0"/><path d="M-40.49997,510.83333v-273h585v273z" fill="#8c8c8c" stroke="none" stroke-width="0"/><path d="M182.50004,166.5v-93h110v93z" fill="#00d9ff" stroke="none" stroke-width="0"/><g fill="#a7a7a7" stroke="none" stroke-width="0"><path d="M193.50004,167.5v-93h12v93z"/><path d="M217.50004,167.5v-93h12v93z"/><path d="M239.50004,167.5v-93h12v93z"/><path d="M263.50004,167.5v-93h12v93z"/></g><path d="M197.50004,167.5v-93h12v93z" fill="#cecece" stroke="none" stroke-width="0"/><path d="M221.50004,167.5v-93h12v93z" fill="#cecece" stroke="none" stroke-width="0"/><path d="M243.50004,167.5v-93h12v93z" fill="#cecece" stroke="none" stroke-width="0"/><path d="M267.50004,167.5v-93h12v93z" fill="#cecece" stroke="none" stroke-width="0"/><path d="M414.50004,323.5v-163h65v163z" fill="#595959" stroke="none" stroke-width="0"/><path d="M413.50004,412.5v-91h65v91z" fill="#9f9f9f" stroke="none" stroke-width="0"/><path d="M314.09551,233.61038c7.69326,0 13.92988,12.79863 13.92988,28.58653c0,15.7879 -6.23662,28.58653 -13.92988,28.58653c-7.69326,0 -13.92988,-12.79863 -13.92988,-28.58653c0,-15.7879 6.23662,-28.58653 13.92988,-28.58653z" data-paper-data="{&quot;index&quot;:null}" fill="#ff0000" stroke="#000000" stroke-width="5"/><path d="M333.27872,307.08548c6.08771,0 11.02277,2.87427 11.02277,6.41986c0,3.54559 -4.93506,6.41986 -11.02277,6.41986c-6.08771,0 -11.02277,-2.87427 -11.02277,-6.41986c0,-3.54559 4.93506,-6.41986 11.02277,-6.41986z" data-paper-data="{&quot;index&quot;:null}" fill="#ff0000" stroke="#000000" stroke-width="5"/><path d="M305.26779,306.05998c6.08771,0 11.02277,2.87426 11.02277,6.41985c0,3.54559 -4.93506,6.41985 -11.02277,6.41985c-6.0877,0 -11.02277,-2.87426 -11.02277,-6.41985c0,-3.54559 4.93506,-6.41985 11.02277,-6.41985z" data-paper-data="{&quot;index&quot;:null}" fill="#ff0000" stroke="#000000" stroke-width="5"/><path d="M-143.06152,451.03904v-481.89639l186.62162,-52.55256c0,0 11.37615,271.22744 14.92661,355.87674c1.96947,46.95554 4.59291,109.50315 4.59291,109.50315z" fill="#9f9f9f" stroke="none" stroke-width="0"/><path d="M-127.17312,387.96116l-23.49173,-364.80954l188.75097,-13.62629l23.49173,364.80954z" fill="#b5b5b5" stroke="none" stroke-width="0"/><g stroke="none" stroke-width="0"><g fill="#a7a7a7"><path d="M-80.97898,385.47452l-23.38326,-363.12507l18.45203,-1.33209l23.38326,363.12507z"/><path d="M-44.07493,382.81034l-23.38326,-363.12507l18.45203,-1.33209l23.38326,363.12507z"/><path d="M-10.24621,380.36819l-23.38326,-363.12507l18.45203,-1.33209l23.38326,363.12507z"/><path d="M26.65786,377.70401l-23.38326,-363.12507l18.45203,-1.33209l23.38326,363.12507z"/></g><path d="M-74.82831,385.03049l-23.38326,-363.12507l18.45203,-1.33209l23.38326,363.12507z" fill="#cecece"/><path d="M-37.92425,382.36632l-23.38326,-363.12507l18.45203,-1.33209l23.38326,363.12507z" fill="#cecece"/><path d="M-4.09555,379.92416l-23.38326,-363.12507l18.45203,-1.33209l23.38326,363.12507z" fill="#cecece"/><path d="M32.8085,377.25999l-23.38326,-363.12507l18.45203,-1.33209l23.38326,363.12507z" fill="#cecece"/></g><path d="M343.70513,203.69301c0,11.89255 -9.22615,21.53336 -20.6072,21.53336c-11.38104,0 -20.60719,-9.64081 -20.60719,-21.53336c0,-11.89255 9.22614,-21.53336 20.60719,-21.53336c11.38104,0 20.6072,9.64081 20.6072,21.53336z" data-paper-data="{&quot;index&quot;:null}" fill="#d29460" stroke="#000000" stroke-width="2"/><path d="M340.55348,194.0693c0.47515,0.07749 0.83781,0.48985 0.83781,0.98691c0,0.36703 -0.19773,0.68787 -0.49247,0.86182c-0.41109,0.71941 -3.23378,0.59857 -3.78499,0.60877c-4.34307,0.08034 -8.44627,0.4611 -12.80749,0.34641c-2.2389,-0.05888 -5.11688,-1.47679 -7.23571,-1.28156c-0.31188,0.02874 1.0818,4.70373 -2.24521,3.12778c-2.72222,-1.28947 -5.28881,-4.05398 -7.79883,-5.8044c-0.63645,-0.44384 -2.91931,-1.44091 -2.02353,-2.63529c0.24416,-0.32554 0.61273,-0.41213 1.06758,-0.32413c0.3757,-3.59607 9.13772,-5.8655 10.33325,-7.33322c1.46335,-1.79651 6.90024,-0.60084 8.69874,-0.56618c6.22114,0.11988 14.07504,5.68034 15.45085,12.01309z" data-paper-data="{&quot;index&quot;:null}" fill="#000000" stroke="none" stroke-width="0.5"/><path d="M308.28658,214.81837c-1.529,0 -1.529,-1.668 -1.529,-1.668l0.01536,-0.47418c0.31093,-2.36365 0.31227,-4.64584 0.31227,-7.03182c0,0 0,-1.668 1.529,-1.668c1.529,0 1.529,1.668 1.529,1.668c0,2.54268 -0.01434,4.98303 -0.34301,7.50361l0.01536,0.00239c0,0 0,1.668 -1.529,1.668z" data-paper-data="{&quot;index&quot;:null}" fill="#000000" stroke="none" stroke-width="0.5"/><path d="M312.95325,214.48504c-1.529,0 -1.529,-1.668 -1.529,-1.668l0.01536,-0.47418c0.31093,-2.36365 0.31227,-4.64584 0.31227,-7.03182c0,0 0,-1.668 1.529,-1.668c1.529,0 1.529,1.668 1.529,1.668c0,2.54268 -0.01434,4.98303 -0.34301,7.50361l0.01536,0.00239c0,0 0,1.668 -1.529,1.668z" data-paper-data="{&quot;index&quot;:null}" fill="#000000" stroke="none" stroke-width="0.5"/><g stroke="none" stroke-width="0.5"><path d="M259.68448,266.01877c-0.23977,-0.64226 -0.20385,-5.59419 -0.36171,-6.53561c-0.79095,-4.71672 -6.11188,-9.51812 -9.65267,-12.30783c-0.83426,-0.66178 -3.3895,-2.76427 -4.27357,-3.11727c-1.55898,-0.62248 -3.34376,-0.30416 -5.01203,-0.49055c-4.62032,-0.51623 -10.89039,-1.16664 -14.77849,2.11068c-3.37807,2.8474 -3.40069,7.84112 -4.4291,11.64781c-0.62378,2.30903 -2.10331,4.77141 -3.30021,6.93781c2.71948,0.27664 5.45281,0.59685 8.07266,1.22989c2.02048,0.48821 3.94056,1.39939 5.99472,1.71725c7.32629,1.13373 14.42047,0.85843 21.76759,1.15109c2.33577,0.09304 4.66161,0.42119 6.99292,0.5848c-0.42306,-0.93295 -0.69324,-2.05239 -1.02014,-2.92806zM261.15905,306.51017c-4.51173,9.6364 -11.17584,18.14978 -15.90062,27.69236l-0.07256,0.07003l0.02437,0.01453l-1.62355,2.72407c-0.47817,0.84435 -1.42767,1.36755 -2.45307,1.2534c-1.07825,-0.12 -1.91965,-0.90899 -2.15657,-1.90729l-0.92855,-3.54279l0.29603,-0.07757c-1.94349,-4.42419 -3.52858,-8.94657 -5.69453,-13.3358c-3.7593,-7.61808 -9.69079,-14.47021 -12.55647,-22.52371c-1.19558,-3.35998 -1.11166,-7.21935 -2.33934,-10.50405c-1.89087,-5.05917 -4.20716,-10.05426 -6.30953,-15.06608l-1.06153,-2.53725c0,0 -0.31812,-0.76035 -0.15246,-1.59056c-0.12052,-0.33343 -0.1737,-0.73819 -0.11905,-1.22919c0.11437,-1.02752 0.60636,-1.58282 1.14409,-1.88073c1.86242,-8.74766 4.88516,-18.8693 11.13094,-25.44842c3.34814,-3.52681 7.25854,-2.65092 11.63989,-3.10893c6.90954,-0.7223 14.45908,-1.09787 20.48898,3.07179c3.63465,2.51339 6.32095,6.27563 8.92853,9.74115c4.28048,6.16128 8.11152,10.97557 7.46693,18.77743c-0.10051,1.21662 0.30549,2.71862 -0.14164,3.78903c-1.39642,12.42743 -4.29035,24.25588 -9.61032,35.61856z" fill="#696969"/><path d="M265.77579,279.56204c0.86382,2.34602 -1.4822,3.20984 -1.4822,3.20984l-0.9841,0.22564c-4.12826,3.19295 -7.86619,2.80666 -12.81584,3.52697c-2.07419,0.30185 -4.08421,0.99682 -6.16797,1.22337c-4.1157,0.44741 -8.22162,-0.73739 -12.15622,-1.57842c-5.67243,-1.2125 -9.34966,-2.0662 -13.14304,-6.75678c0,0 -1.56138,-1.95248 0.39109,-3.51383c1.95248,-1.56138 3.51383,0.39109 3.51383,0.39109c2.9753,3.77291 5.76584,4.02501 10.27821,4.98889c3.40308,0.72694 7.04583,1.91742 10.61767,1.49394c2.00155,-0.2373 3.93309,-0.90382 5.92775,-1.19341c3.84535,-0.55827 7.35847,0.09338 10.43178,-2.48676l2.37919,-1.01274c0,0 2.34602,-0.86382 3.20984,1.4822z" fill="#a2a2a2"/><path d="M260.5984,293.76808c1.73172,1.80308 -0.07136,3.53482 -0.07136,3.53482l-1.96697,1.7958c-3.54211,1.99088 -5.71847,1.60258 -9.63305,1.81624c-5.2819,0.28826 -11.80115,0.8498 -16.97746,-0.83773c-3.43188,-1.11882 -5.15917,-4.18875 -8.16413,-5.90669c0,0 -2.15819,-1.26183 -0.89637,-3.42002c1.26183,-2.15819 3.42002,-0.89637 3.42002,-0.89637c2.48517,1.47823 4.48801,4.69511 7.23303,5.48346c4.72323,1.35649 10.33517,0.84336 15.11894,0.58437c3.13861,-0.16991 4.68355,0.56424 7.35988,-1.13062l1.04262,-1.09467c0,0 1.80308,-1.73172 3.53482,0.07136z" fill="#a2a2a2"/><path d="M255.25084,309.20103c1.26955,2.15366 -0.88408,3.42321 -0.88408,3.42321l-1.97114,0.98397c-6.46653,1.17192 -12.4363,0.30073 -18.71244,-1.4733c0,0 -2.40539,-0.68126 -1.72414,-3.08663c0.68126,-2.40539 3.08663,-1.72414 3.08663,-1.72414c5.52375,1.56772 10.76177,2.41304 16.45176,1.36541l0.33017,-0.37261c0,0 2.15366,-1.26955 3.42321,0.88408z" fill="#a2a2a2"/></g><path d="M238.44311,247.14487c-1.6705,5.15481 -7.07494,8.02108 -12.07112,6.40197c-4.99619,-1.6191 -7.69222,-7.11045 -6.02172,-12.26524c1.6705,-5.15481 7.07494,-8.02108 12.07112,-6.40197c4.99619,1.6191 7.69222,7.11045 6.02172,12.26524z" data-paper-data="{&quot;index&quot;:null}" fill="#ff0000" stroke="#000000" stroke-width="5"/><path d="M253.61207,233.85134c5.41873,0 9.81148,4.25759 9.81148,9.50959c0,5.252 -4.39275,9.50959 -9.81148,9.50959c-5.41873,0 -9.81148,-4.25759 -9.81148,-9.50959c0,-5.252 4.39275,-9.50959 9.81148,-9.50959z" data-paper-data="{&quot;index&quot;:null}" fill="#ff0000" stroke="#000000" stroke-width="5"/></g></g></svg>