<svg version="1.1" xmlns="http://www.w3.org/2000/svg" xmlns:xlink="http://www.w3.org/1999/xlink" width="695.16488" height="594.24324" viewBox="0,0,695.16488,594.24324"><g transform="translate(150.66485,83.40991)"><g data-paper-data="{&quot;isPaintingLayer&quot;:true}" fill-rule="nonzero" stroke-linecap="butt" stroke-linejoin="miter" stroke-miterlimit="10" stroke-dasharray="" stroke-dashoffset="0" style="mix-blend-mode: normal"><path d="M-43.49997,239.5v-273h585v273z" fill="#ababab" stroke="none" stroke-width="0"/><path d="M-40.49997,510.83333v-273h585v273z" fill="#8c8c8c" stroke="none" stroke-width="0"/><path d="M182.50004,166.5v-93h110v93z" fill="#00d9ff" stroke="none" stroke-width="0"/><g fill="#a7a7a7" stroke="none" stroke-width="0"><path d="M193.50004,167.5v-93h12v93z"/><path d="M217.50004,167.5v-93h12v93z"/><path d="M239.50004,167.5v-93h12v93z"/><path d="M263.50004,167.5v-93h12v93z"/></g><path d="M197.50004,167.5v-93h12v93z" fill="#cecece" stroke="none" stroke-width="0"/><path d="M221.50004,167.5v-93h12v93z" fill="#cecece" stroke="none" stroke-width="0"/><path d="M243.50004,167.5v-93h12v93z" fill="#cecece" stroke="none" stroke-width="0"/><path d="M267.50004,167.5v-93h12v93z" fill="#cecece" stroke="none" stroke-width="0"/><path d="M414.50004,323.5v-163h65v163z" fill="#595959" stroke="none" stroke-width="0"/><path d="M413.50004,412.5v-91h65v91z" fill="#9f9f9f" stroke="none" stroke-width="0"/><path d="M314.09551,233.61038c7.69326,0 13.92988,12.79863 13.92988,28.58653c0,15.7879 -6.23662,28.58653 -13.92988,28.58653c-7.69326,0 -13.92988,-12.79863 -13.92988,-28.58653c0,-15.7879 6.23662,-28.58653 13.92988,-28.58653z" data-paper-data="{&quot;index&quot;:null}" fill="#ff0000" stroke="#000000" stroke-width="5"/><path d="M286.61207,261.85134c5.41873,0 9.81148,4.25759 9.81148,9.50959c0,5.252 -4.39275,9.50959 -9.81148,9.50959c-5.41873,0 -9.81148,-4.25759 -9.81148,-9.50959c0,-5.252 4.39275,-9.50959 9.81148,-9.50959z" data-paper-data="{&quot;index&quot;:null}" fill="#ff0000" stroke="#000000" stroke-width="5"/><path d="M333.27872,307.08548c6.08771,0 11.02277,2.87427 11.02277,6.41986c0,3.54559 -4.93506,6.41986 -11.02277,6.41986c-6.08771,0 -11.02277,-2.87427 -11.02277,-6.41986c0,-3.54559 4.93506,-6.41986 11.02277,-6.41986z" data-paper-data="{&quot;index&quot;:null}" fill="#ff0000" stroke="#000000" stroke-width="5"/><path d="M305.26779,306.05998c6.08771,0 11.02277,2.87426 11.02277,6.41985c0,3.54559 -4.93506,6.41985 -11.02277,6.41985c-6.0877,0 -11.02277,-2.87426 -11.02277,-6.41985c0,-3.54559 4.93506,-6.41985 11.02277,-6.41985z" data-paper-data="{&quot;index&quot;:null}" fill="#ff0000" stroke="#000000" stroke-width="5"/><path d="M-143.06152,451.03904v-481.89639l186.62162,-52.55256c0,0 11.37615,271.22744 14.92661,355.87674c1.96947,46.95554 4.59291,109.50315 4.59291,109.50315z" fill="#9f9f9f" stroke="none" stroke-width="0"/><path d="M-127.17312,387.96116l-23.49173,-364.80954l188.75097,-13.62629l23.49173,364.80954z" fill="#b5b5b5" stroke="none" stroke-width="0"/><g stroke="none" stroke-width="0"><g fill="#a7a7a7"><path d="M-80.97898,385.47452l-23.38326,-363.12507l18.45203,-1.33209l23.38326,363.12507z"/><path d="M-44.07493,382.81034l-23.38326,-363.12507l18.45203,-1.33209l23.38326,363.12507z"/><path d="M-10.24621,380.36819l-23.38326,-363.12507l18.45203,-1.33209l23.38326,363.12507z"/><path d="M26.65786,377.70401l-23.38326,-363.12507l18.45203,-1.33209l23.38326,363.12507z"/></g><path d="M-74.82831,385.03049l-23.38326,-363.12507l18.45203,-1.33209l23.38326,363.12507z" fill="#cecece"/><path d="M-37.92425,382.36632l-23.38326,-363.12507l18.45203,-1.33209l23.38326,363.12507z" fill="#cecece"/><path d="M-4.09555,379.92416l-23.38326,-363.12507l18.45203,-1.33209l23.38326,363.12507z" fill="#cecece"/><path d="M32.8085,377.25999l-23.38326,-363.12507l18.45203,-1.33209l23.38326,363.12507z" fill="#cecece"/></g><g><path d="M323.34794,181.90965c11.38105,0 20.60719,9.64081 20.60719,21.53336c0,11.89255 -9.22615,21.53336 -20.60719,21.53336c-11.38105,0 -20.6072,-9.64081 -20.6072,-21.53336c0,-11.89255 9.22616,-21.53336 20.6072,-21.53336z" data-paper-data="{&quot;index&quot;:null}" fill="#d29460" stroke="#000000" stroke-width="2"/><path d="M321.09324,182.05621c1.7985,-0.03466 7.23539,-1.23033 8.69874,0.56618c1.19553,1.46772 9.95755,3.73715 10.33325,7.33322c0.45485,-0.088 0.82342,-0.00141 1.06758,0.32413c0.89578,1.19438 -1.38708,2.19145 -2.02353,2.63529c-2.51002,1.75042 -5.07661,4.51493 -7.79883,5.8044c-3.32701,1.57595 -1.93333,-3.09904 -2.24521,-3.12778c-2.11883,-0.19523 -4.99681,1.22268 -7.23571,1.28156c-4.36122,0.11469 -8.46442,-0.26607 -12.80749,-0.34641c-0.55121,-0.0102 -3.3739,0.11064 -3.78499,-0.60877c-0.29474,-0.17395 -0.49247,-0.49479 -0.49247,-0.86182c0,-0.49706 0.36266,-0.90942 0.83781,-0.98691c1.37581,-6.33275 9.22971,-11.89321 15.45085,-12.01309z" fill="#000000" stroke="none" stroke-width="0.5"/><path d="M337.90931,214.81837c-1.529,0 -1.529,-1.668 -1.529,-1.668l0.01536,-0.00239c-0.32867,-2.52058 -0.34301,-4.96093 -0.34301,-7.50361c0,0 0,-1.668 1.529,-1.668c1.529,0 1.529,1.668 1.529,1.668c0,2.38598 0.00134,4.66817 0.31227,7.03182l0.01536,0.47418c0,0 0,1.668 -1.529,1.668z" fill="#000000" stroke="none" stroke-width="0.5"/><path d="M333.24264,214.48504c-1.529,0 -1.529,-1.668 -1.529,-1.668l0.01536,-0.00239c-0.32867,-2.52058 -0.34301,-4.96093 -0.34301,-7.50361c0,0 0,-1.668 1.529,-1.668c1.529,0 1.529,1.668 1.529,1.668c0,2.38598 0.00134,4.66817 0.31227,7.03182l0.01536,0.47418c0,0 0,1.668 -1.529,1.668z" fill="#000000" stroke="none" stroke-width="0.5"/></g><g><g stroke="none" stroke-width="0.5"><path d="M345.13085,184.82789c0.31103,0.61094 0.83663,5.53503 1.10019,6.45249c1.32049,4.59667 7.15135,8.76401 10.98553,11.1344c0.9039,0.56296 3.68098,2.36227 4.59935,2.61279c1.61949,0.44177 3.35668,-0.07681 5.03533,-0.0807c4.64904,-0.01079 10.95244,-0.0753 14.44401,-3.77219c3.03355,-3.21195 2.49001,-8.17604 3.08029,-12.07477c0.35803,-2.36485 1.54891,-4.97906 2.49255,-7.26717c-2.73331,0.03339 -5.48532,0.02506 -8.16004,-0.30693c-2.06279,-0.25604 -4.07378,-0.94371 -6.15074,-1.0267c-7.40758,-0.296 -14.42483,0.78164 -21.75779,1.32365c-2.33127,0.17232 -4.67931,0.10991 -7.01415,0.2116c0.52608,0.87899 0.9214,1.96059 1.34546,2.79355zM339.07617,144.76459c3.39038,-10.08569 9.04657,-19.29958 12.65927,-29.3162l0.06415,-0.0778l-0.02585,-0.01167l1.30432,-2.89055c0.37938,-0.89311 1.26345,-1.52055 2.29519,-1.52337c1.0849,-0.00299 2.0103,0.68555 2.35885,1.65055l1.32413,3.41471l-0.28533,0.11064c2.43244,4.17537 4.51991,8.48897 7.16942,12.60439c4.59856,7.14287 11.2685,13.27852 15.02855,20.95531c1.56872,3.20281 1.92279,7.04681 3.51487,10.1712c2.45214,4.81223 5.31968,9.51259 7.97658,14.25381l1.34229,2.40058c0,0 0.40225,0.71941 0.33175,1.56303c0.15754,0.31763 0.25624,0.71375 0.2576,1.20778c0.00284,1.03386 -0.42304,1.64134 -0.92354,1.99829c-0.85889,8.90239 -2.71487,19.30142 -8.17468,26.54608c-2.92681,3.88359 -6.91127,3.45658 -11.21248,4.40826c-6.78315,1.50083 -14.24145,2.72972 -20.70512,-0.72962c-3.89611,-2.08521 -6.99154,-5.51871 -9.97513,-8.66634c-4.95126,-5.63639 -9.30331,-9.9854 -9.5472,-17.81005c-0.03804,-1.22017 -0.61168,-2.66648 -0.28875,-3.78067c-0.0212,-12.50563 1.51335,-24.58586 5.51109,-36.47832z" fill="#696969"/><path d="M337.5437,172.06233c-1.12417,-2.233 1.10882,-3.35716 1.10882,-3.35716l0.95218,-0.33573c3.73974,-3.6403 7.49737,-3.68019 12.33347,-4.95689c2.0266,-0.53501 3.94489,-1.45334 5.98955,-1.91461c4.03847,-0.91103 8.25222,-0.19927 12.25679,0.19036c5.77331,0.56172 9.52361,0.99311 13.82422,5.2235c0,0 1.77262,1.76291 0.00971,3.53552c-1.76291,1.77262 -3.53552,0.00971 -3.53552,0.00971c-3.38379,-3.41134 -6.18491,-3.34552 -10.77745,-3.79172c-3.46353,-0.33652 -7.21776,-1.10644 -10.71857,-0.28083c-1.96174,0.46264 -3.8053,1.3438 -5.75428,1.85761c-3.7573,0.99054 -7.32163,0.74128 -10.08268,3.65316l-2.24907,1.2759c0,0 -2.233,1.12417 -3.35716,-1.10882z" fill="#a2a2a2"/><path d="M341.07749,157.361c-1.92494,-1.59518 -0.32976,-3.52012 -0.32976,-3.52012l1.75074,-2.00719c3.29362,-2.37954 5.49996,-2.24043 9.36509,-2.89642c5.21519,-0.8851 11.62877,-2.18196 16.96299,-1.09204c3.53659,0.72261 5.60071,3.57696 8.78103,4.94323c0,0 2.28731,1.00907 1.27823,3.29638c-1.00907,2.28731 -3.29638,1.27823 -3.29638,1.27823c-2.63671,-1.18701 -4.99127,-4.15614 -7.80795,-4.62827c-4.84654,-0.81238 -10.36415,0.33354 -15.08775,1.13309c-3.09912,0.52458 -4.71734,-0.02973 -7.18429,1.95755l-0.91183,1.2058c0,0 -1.59518,1.92494 -3.52012,0.32976z" fill="#a2a2a2"/><path d="M344.64129,141.42137c-1.50549,-1.99588 0.49038,-3.50136 0.49038,-3.50136l1.8469,-1.20105c6.29203,-1.89734 12.32206,-1.70842 18.75883,-0.65721c0,0 2.4671,0.40423 2.06289,2.87132c-0.40423,2.4671 -2.87132,2.06289 -2.87132,2.06289c-5.66584,-0.93152 -10.96593,-1.17766 -16.5005,0.50817l-0.28581,0.40763c0,0 -1.99588,1.50549 -3.50136,-0.49038z" fill="#a2a2a2"/></g><path d="M355.00503,198.67178c1.07544,-5.31094 6.12016,-8.77131 11.26768,-7.72895c5.14752,1.04235 8.4486,6.19272 7.37316,11.50365c-1.07544,5.31094 -6.12016,8.77131 -11.26768,7.72895c-5.14752,-1.04235 -8.4486,-6.19272 -7.37316,-11.50365z" data-paper-data="{&quot;index&quot;:null}" fill="#ff0000" stroke="#000000" stroke-width="5"/></g></g></g></svg>