<svg version="1.1" xmlns="http://www.w3.org/2000/svg" xmlns:xlink="http://www.w3.org/1999/xlink" width="695.16488" height="594.24324" viewBox="0,0,695.16488,594.24324"><g transform="translate(150.66485,83.40991)"><g data-paper-data="{&quot;isPaintingLayer&quot;:true}" fill-rule="nonzero" stroke-linecap="butt" stroke-linejoin="miter" stroke-miterlimit="10" stroke-dasharray="" stroke-dashoffset="0" style="mix-blend-mode: normal"><path d="M-43.49997,239.5v-273h585v273z" fill="#ababab" stroke="none" stroke-width="0"/><path d="M-40.49997,510.83333v-273h585v273z" fill="#8c8c8c" stroke="none" stroke-width="0"/><path d="M182.50004,166.5v-93h110v93z" fill="#00d9ff" stroke="none" stroke-width="0"/><g fill="#a7a7a7" stroke="none" stroke-width="0"><path d="M193.50004,167.5v-93h12v93z"/><path d="M217.50004,167.5v-93h12v93z"/><path d="M239.50004,167.5v-93h12v93z"/><path d="M263.50004,167.5v-93h12v93z"/></g><path d="M197.50004,167.5v-93h12v93z" fill="#cecece" stroke="none" stroke-width="0"/><path d="M221.50004,167.5v-93h12v93z" fill="#cecece" stroke="none" stroke-width="0"/><path d="M243.50004,167.5v-93h12v93z" fill="#cecece" stroke="none" stroke-width="0"/><path d="M267.50004,167.5v-93h12v93z" fill="#cecece" stroke="none" stroke-width="0"/><path d="M414.50004,323.5v-163h65v163z" fill="#595959" stroke="none" stroke-width="0"/><path d="M413.50004,412.5v-91h65v91z" fill="#9f9f9f" stroke="none" stroke-width="0"/><path d="M314.09551,233.61038c7.69326,0 13.92988,12.79863 13.92988,28.58653c0,15.7879 -6.23662,28.58653 -13.92988,28.58653c-7.69326,0 -13.92988,-12.79863 -13.92988,-28.58653c0,-15.7879 6.23662,-28.58653 13.92988,-28.58653z" data-paper-data="{&quot;index&quot;:null}" fill="#ff0000" stroke="#000000" stroke-width="5"/><path d="M323.61207,259.85134c5.41873,0 9.81148,4.25759 9.81148,9.50959c0,5.252 -4.39275,9.50959 -9.81148,9.50959c-5.41873,0 -9.81148,-4.25759 -9.81148,-9.50959c0,-5.252 4.39275,-9.50959 9.81148,-9.50959z" data-paper-data="{&quot;index&quot;:null}" fill="#ff0000" stroke="#000000" stroke-width="5"/><path d="M333.27872,307.08548c6.08771,0 11.02277,2.87427 11.02277,6.41986c0,3.54559 -4.93506,6.41986 -11.02277,6.41986c-6.08771,0 -11.02277,-2.87427 -11.02277,-6.41986c0,-3.54559 4.93506,-6.41986 11.02277,-6.41986z" data-paper-data="{&quot;index&quot;:null}" fill="#ff0000" stroke="#000000" stroke-width="5"/><path d="M305.26779,306.05998c6.08771,0 11.02277,2.87426 11.02277,6.41985c0,3.54559 -4.93506,6.41985 -11.02277,6.41985c-6.0877,0 -11.02277,-2.87426 -11.02277,-6.41985c0,-3.54559 4.93506,-6.41985 11.02277,-6.41985z" data-paper-data="{&quot;index&quot;:null}" fill="#ff0000" stroke="#000000" stroke-width="5"/><path d="M-143.06152,451.03904v-481.89639l186.62162,-52.55256c0,0 11.37615,271.22744 14.92661,355.87674c1.96947,46.95554 4.59291,109.50315 4.59291,109.50315z" fill="#9f9f9f" stroke="none" stroke-width="0"/><path d="M-127.17312,387.96116l-23.49173,-364.80954l188.75097,-13.62629l23.49173,364.80954z" fill="#b5b5b5" stroke="none" stroke-width="0"/><g stroke="none" stroke-width="0"><g fill="#a7a7a7"><path d="M-80.97898,385.47452l-23.38326,-363.12507l18.45203,-1.33209l23.38326,363.12507z"/><path d="M-44.07493,382.81034l-23.38326,-363.12507l18.45203,-1.33209l23.38326,363.12507z"/><path d="M-10.24621,380.36819l-23.38326,-363.12507l18.45203,-1.33209l23.38326,363.12507z"/><path d="M26.65786,377.70401l-23.38326,-363.12507l18.45203,-1.33209l23.38326,363.12507z"/></g><path d="M-74.82831,385.03049l-23.38326,-363.12507l18.45203,-1.33209l23.38326,363.12507z" fill="#cecece"/><path d="M-37.92425,382.36632l-23.38326,-363.12507l18.45203,-1.33209l23.38326,363.12507z" fill="#cecece"/><path d="M-4.09555,379.92416l-23.38326,-363.12507l18.45203,-1.33209l23.38326,363.12507z" fill="#cecece"/><path d="M32.8085,377.25999l-23.38326,-363.12507l18.45203,-1.33209l23.38326,363.12507z" fill="#cecece"/></g><g><path d="M323.34794,181.90965c11.38105,0 20.60719,9.64081 20.60719,21.53336c0,11.89255 -9.22615,21.53336 -20.60719,21.53336c-11.38105,0 -20.6072,-9.64081 -20.6072,-21.53336c0,-11.89255 9.22616,-21.53336 20.6072,-21.53336z" data-paper-data="{&quot;index&quot;:null}" fill="#d29460" stroke="#000000" stroke-width="2"/><path d="M321.09324,182.05621c1.7985,-0.03466 7.23539,-1.23033 8.69874,0.56618c1.19553,1.46772 9.95755,3.73715 10.33325,7.33322c0.45485,-0.088 0.82342,-0.00141 1.06758,0.32413c0.89578,1.19438 -1.38708,2.19145 -2.02353,2.63529c-2.51002,1.75042 -5.07661,4.51493 -7.79883,5.8044c-3.32701,1.57595 -1.93333,-3.09904 -2.24521,-3.12778c-2.11883,-0.19523 -4.99681,1.22268 -7.23571,1.28156c-4.36122,0.11469 -8.46442,-0.26607 -12.80749,-0.34641c-0.55121,-0.0102 -3.3739,0.11064 -3.78499,-0.60877c-0.29474,-0.17395 -0.49247,-0.49479 -0.49247,-0.86182c0,-0.49706 0.36266,-0.90942 0.83781,-0.98691c1.37581,-6.33275 9.22971,-11.89321 15.45085,-12.01309z" fill="#000000" stroke="none" stroke-width="0.5"/><path d="M337.90931,214.81837c-1.529,0 -1.529,-1.668 -1.529,-1.668l0.01536,-0.00239c-0.32867,-2.52058 -0.34301,-4.96093 -0.34301,-7.50361c0,0 0,-1.668 1.529,-1.668c1.529,0 1.529,1.668 1.529,1.668c0,2.38598 0.00134,4.66817 0.31227,7.03182l0.01536,0.47418c0,0 0,1.668 -1.529,1.668z" fill="#000000" stroke="none" stroke-width="0.5"/><path d="M333.24264,214.48504c-1.529,0 -1.529,-1.668 -1.529,-1.668l0.01536,-0.00239c-0.32867,-2.52058 -0.34301,-4.96093 -0.34301,-7.50361c0,0 0,-1.668 1.529,-1.668c1.529,0 1.529,1.668 1.529,1.668c0,2.38598 0.00134,4.66817 0.31227,7.03182l0.01536,0.47418c0,0 0,1.668 -1.529,1.668z" fill="#000000" stroke="none" stroke-width="0.5"/></g><g><g stroke="none" stroke-width="0.5"><path d="M274.71025,200.82148c0.6829,-0.06025 5.44679,1.29186 6.39629,1.39016c4.75716,0.49246 10.80116,-3.35925 14.43237,-6.0302c0.85989,-0.62812 3.56644,-2.53189 4.14193,-3.29017c1.01483,-1.33718 1.18282,-3.14232 1.80635,-4.70087c1.72689,-4.31644 4.02203,-10.18749 1.89729,-14.8074c-1.84602,-4.01388 -6.65373,-5.3643 -10.04961,-7.36842c-2.05985,-1.21562 -4.03984,-3.29695 -5.80972,-5.0271c-0.9902,2.54786 -2.02609,5.09748 -3.33333,7.45448c-1.00817,1.81776 -2.39736,3.42622 -3.25029,5.32178c-3.04206,6.7606 -4.66413,13.67233 -6.90098,20.67678c-0.71113,2.22683 -1.64626,4.38154 -2.42423,6.5853c1.01188,-0.15959 2.16286,-0.1222 3.09394,-0.20435zM235.28595,191.46995c-8.08871,-6.91293 -14.52223,-15.60189 -22.46382,-22.69523l-0.0482,-0.08857l-0.02049,0.01962l-2.19394,-2.28979c-0.6867,-0.68558 -0.93842,-1.74005 -0.55557,-2.69813c0.40255,-1.00746 1.38696,-1.60861 2.41231,-1.5714l3.66215,0.0475l-0.00398,0.306c4.7818,-0.69637 9.56292,-1.02112 14.37021,-1.94123c8.34368,-1.59697 16.52695,-5.49163 25.05262,-6.11135c3.55697,-0.25854 7.25491,0.84916 10.74786,0.53964c5.3799,-0.47671 10.81122,-1.38054 16.20175,-2.07371l2.72823,-0.34822c0,0 0.81759,-0.10435 1.57379,0.27622c0.35348,-0.02746 0.7578,0.02897 1.21656,0.21228c0.96006,0.38362 1.36444,1.00562 1.50855,1.60323c7.93687,4.12265 16.88949,9.72936 21.56975,17.50044c2.50891,4.1658 0.6242,7.70221 -0.09998,12.04751c-1.14205,6.85268 -2.78861,14.23004 -8.41228,18.93324c-3.38982,2.83495 -7.73116,4.42346 -11.76554,6.01504c-7.07806,2.48695 -12.7381,4.89906 -20.08727,2.20197c-1.14603,-0.42058 -2.70192,-0.42882 -3.61479,-1.14463c-11.608,-4.65248 -22.24018,-10.58913 -31.77791,-18.74045z" fill="#696969"/><path d="M260.03448,203.08998c-2.49129,0.20851 -2.69981,-2.28278 -2.69981,-2.28278l0.04432,-1.00866c-1.97952,-4.82897 -0.61266,-8.32941 0.00987,-13.2923c0.26087,-2.07974 0.12573,-4.20221 0.46175,-6.27115c0.66372,-4.0864 2.89822,-7.72911 4.75576,-11.29814c2.67798,-5.1454 4.47925,-8.46296 10.01003,-10.87166c0,0 2.29751,-0.98563 3.28314,1.31187c0.98563,2.29751 -1.31187,3.28314 -1.31187,3.28314c-4.42852,1.86427 -5.41397,4.48715 -7.54365,8.58044c-1.60614,3.08701 -3.7229,6.28174 -4.26499,9.83751c-0.30378,1.99254 -0.17518,4.0318 -0.42672,6.03161c-0.48493,3.85529 -2.04777,7.06841 -0.3783,10.71741l0.34325,2.56288c0,0 0.20851,2.49129 -2.28278,2.69981z" fill="#a2a2a2"/><path d="M247.71794,194.31961c-2.19883,1.18958 -3.38843,-1.00925 -3.38843,-1.00925l-1.20776,-2.37386c-0.97673,-3.94413 -0.02339,-5.93874 0.81214,-9.76907c1.12741,-5.16822 2.32059,-11.6019 5.32447,-16.14267c1.99157,-3.01052 5.41039,-3.85879 7.86591,-6.29838c0,0 1.79055,-1.74469 3.53523,0.04586c1.74469,1.79055 -0.04586,3.53523 -0.04586,3.53523c-2.08615,2.00231 -5.71995,3.07709 -7.21021,5.51343c-2.56423,4.19209 -3.56269,9.73828 -4.58579,14.41854c-0.67125,3.07069 -1.78999,4.36463 -0.86827,7.39542l0.77782,1.29629c0,0 1.18958,2.19883 -1.00925,3.38843z" fill="#a2a2a2"/><path d="M234.26397,185.05877c-2.41381,0.6508 -3.06461,-1.76298 -3.06461,-1.76298l-0.42408,-2.16188c0.59077,-6.54526 3.01886,-12.06807 6.39874,-17.64602c0,0 1.29668,-2.13744 3.4341,-0.84078c2.13744,1.29668 0.84078,3.4341 0.84078,3.4341c-2.98084,4.90756 -5.18929,9.73189 -5.69327,15.49553l0.27134,0.41741c0,0 0.6508,2.41381 -1.76298,3.06461z" fill="#a2a2a2"/></g><path d="M291.24072,196.83443c-4.52458,-2.98175 -5.84965,-8.95399 -2.95964,-13.33933c2.89,-4.38535 8.90073,-5.5232 13.42529,-2.54145c4.52458,2.98175 5.84965,8.95399 2.95964,13.33933c-2.89,4.38535 -8.90073,5.5232 -13.42529,2.54145z" data-paper-data="{&quot;index&quot;:null}" fill="#ff0000" stroke="#000000" stroke-width="5"/></g></g></g></svg>