<svg version="1.1" xmlns="http://www.w3.org/2000/svg" xmlns:xlink="http://www.w3.org/1999/xlink" width="695.16488" height="594.24324" viewBox="0,0,695.16488,594.24324"><g transform="translate(150.66485,83.40991)"><g data-paper-data="{&quot;isPaintingLayer&quot;:true}" fill-rule="nonzero" stroke-linecap="butt" stroke-linejoin="miter" stroke-miterlimit="10" stroke-dasharray="" stroke-dashoffset="0" style="mix-blend-mode: normal"><path d="M-43.49997,239.5v-273h585v273z" fill="#ababab" stroke="none" stroke-width="0"/><path d="M-40.49997,510.83333v-273h585v273z" fill="#8c8c8c" stroke="none" stroke-width="0"/><path d="M182.50004,166.5v-93h110v93z" fill="#00d9ff" stroke="none" stroke-width="0"/><g fill="#a7a7a7" stroke="none" stroke-width="0"><path d="M193.50004,167.5v-93h12v93z"/><path d="M217.50004,167.5v-93h12v93z"/><path d="M239.50004,167.5v-93h12v93z"/><path d="M263.50004,167.5v-93h12v93z"/></g><path d="M197.50004,167.5v-93h12v93z" fill="#cecece" stroke="none" stroke-width="0"/><path d="M221.50004,167.5v-93h12v93z" fill="#cecece" stroke="none" stroke-width="0"/><path d="M243.50004,167.5v-93h12v93z" fill="#cecece" stroke="none" stroke-width="0"/><path d="M267.50004,167.5v-93h12v93z" fill="#cecece" stroke="none" stroke-width="0"/><path d="M414.50004,323.5v-163h65v163z" fill="#595959" stroke="none" stroke-width="0"/><path d="M413.50004,412.5v-91h65v91z" fill="#9f9f9f" stroke="none" stroke-width="0"/><path d="M314.09551,233.61038c7.69326,0 13.92988,12.79863 13.92988,28.58653c0,15.7879 -6.23662,28.58653 -13.92988,28.58653c-7.69326,0 -13.92988,-12.79863 -13.92988,-28.58653c0,-15.7879 6.23662,-28.58653 13.92988,-28.58653z" data-paper-data="{&quot;index&quot;:null}" fill="#ff0000" stroke="#000000" stroke-width="5"/><path d="M301.61207,262.85134c5.41873,0 9.81148,4.25759 9.81148,9.50959c0,5.252 -4.39275,9.50959 -9.81148,9.50959c-5.41873,0 -9.81148,-4.25759 -9.81148,-9.50959c0,-5.252 4.39275,-9.50959 9.81148,-9.50959z" data-paper-data="{&quot;index&quot;:null}" fill="#ff0000" stroke="#000000" stroke-width="5"/><path d="M333.27872,307.08548c6.08771,0 11.02277,2.87427 11.02277,6.41986c0,3.54559 -4.93506,6.41986 -11.02277,6.41986c-6.08771,0 -11.02277,-2.87427 -11.02277,-6.41986c0,-3.54559 4.93506,-6.41986 11.02277,-6.41986z" data-paper-data="{&quot;index&quot;:null}" fill="#ff0000" stroke="#000000" stroke-width="5"/><path d="M305.26779,306.05998c6.08771,0 11.02277,2.87426 11.02277,6.41985c0,3.54559 -4.93506,6.41985 -11.02277,6.41985c-6.0877,0 -11.02277,-2.87426 -11.02277,-6.41985c0,-3.54559 4.93506,-6.41985 11.02277,-6.41985z" data-paper-data="{&quot;index&quot;:null}" fill="#ff0000" stroke="#000000" stroke-width="5"/><path d="M-143.06152,451.03904v-481.89639l186.62162,-52.55256c0,0 11.37615,271.22744 14.92661,355.87674c1.96947,46.95554 4.59291,109.50315 4.59291,109.50315z" fill="#9f9f9f" stroke="none" stroke-width="0"/><path d="M-127.17312,387.96116l-23.49173,-364.80954l188.75097,-13.62629l23.49173,364.80954z" fill="#b5b5b5" stroke="none" stroke-width="0"/><g stroke="none" stroke-width="0"><g fill="#a7a7a7"><path d="M-80.97898,385.47452l-23.38326,-363.12507l18.45203,-1.33209l23.38326,363.12507z"/><path d="M-44.07493,382.81034l-23.38326,-363.12507l18.45203,-1.33209l23.38326,363.12507z"/><path d="M-10.24621,380.36819l-23.38326,-363.12507l18.45203,-1.33209l23.38326,363.12507z"/><path d="M26.65786,377.70401l-23.38326,-363.12507l18.45203,-1.33209l23.38326,363.12507z"/></g><path d="M-74.82831,385.03049l-23.38326,-363.12507l18.45203,-1.33209l23.38326,363.12507z" fill="#cecece"/><path d="M-37.92425,382.36632l-23.38326,-363.12507l18.45203,-1.33209l23.38326,363.12507z" fill="#cecece"/><path d="M-4.09555,379.92416l-23.38326,-363.12507l18.45203,-1.33209l23.38326,363.12507z" fill="#cecece"/><path d="M32.8085,377.25999l-23.38326,-363.12507l18.45203,-1.33209l23.38326,363.12507z" fill="#cecece"/></g><g><path d="M323.34794,181.90965c11.38105,0 20.60719,9.64081 20.60719,21.53336c0,11.89255 -9.22615,21.53336 -20.60719,21.53336c-11.38105,0 -20.6072,-9.64081 -20.6072,-21.53336c0,-11.89255 9.22616,-21.53336 20.6072,-21.53336z" data-paper-data="{&quot;index&quot;:null}" fill="#d29460" stroke="#000000" stroke-width="2"/><path d="M321.09324,182.05621c1.7985,-0.03466 7.23539,-1.23033 8.69874,0.56618c1.19553,1.46772 9.95755,3.73715 10.33325,7.33322c0.45485,-0.088 0.82342,-0.00141 1.06758,0.32413c0.89578,1.19438 -1.38708,2.19145 -2.02353,2.63529c-2.51002,1.75042 -5.07661,4.51493 -7.79883,5.8044c-3.32701,1.57595 -1.93333,-3.09904 -2.24521,-3.12778c-2.11883,-0.19523 -4.99681,1.22268 -7.23571,1.28156c-4.36122,0.11469 -8.46442,-0.26607 -12.80749,-0.34641c-0.55121,-0.0102 -3.3739,0.11064 -3.78499,-0.60877c-0.29474,-0.17395 -0.49247,-0.49479 -0.49247,-0.86182c0,-0.49706 0.36266,-0.90942 0.83781,-0.98691c1.37581,-6.33275 9.22971,-11.89321 15.45085,-12.01309z" fill="#000000" stroke="none" stroke-width="0.5"/><path d="M337.90931,214.81837c-1.529,0 -1.529,-1.668 -1.529,-1.668l0.01536,-0.00239c-0.32867,-2.52058 -0.34301,-4.96093 -0.34301,-7.50361c0,0 0,-1.668 1.529,-1.668c1.529,0 1.529,1.668 1.529,1.668c0,2.38598 0.00134,4.66817 0.31227,7.03182l0.01536,0.47418c0,0 0,1.668 -1.529,1.668z" fill="#000000" stroke="none" stroke-width="0.5"/><path d="M333.24264,214.48504c-1.529,0 -1.529,-1.668 -1.529,-1.668l0.01536,-0.00239c-0.32867,-2.52058 -0.34301,-4.96093 -0.34301,-7.50361c0,0 0,-1.668 1.529,-1.668c1.529,0 1.529,1.668 1.529,1.668c0,2.38598 0.00134,4.66817 0.31227,7.03182l0.01536,0.47418c0,0 0,1.668 -1.529,1.668z" fill="#000000" stroke="none" stroke-width="0.5"/></g><g><g stroke="none" stroke-width="0.5"><path d="M332.13237,181.1709c0.46876,0.50025 2.34393,5.08355 2.85239,5.89143c2.54754,4.04761 9.30779,6.42765 13.65016,7.63739c1.02486,0.28917 4.19297,1.24457 5.14478,1.22962c1.67846,-0.02637 3.20271,-1.00791 4.81396,-1.4788c4.46239,-1.30415 10.49883,-3.12028 12.82366,-7.6428c2.01986,-3.92928 0.11633,-8.54601 -0.40168,-12.455c-0.31423,-2.37107 0.1021,-5.21342 0.3717,-7.67375c-2.61604,0.79272 -5.26166,1.55058 -7.92311,1.97605c-2.05256,0.32813 -4.17548,0.22726 -6.19349,0.72555c-7.19733,1.77715 -13.63748,4.76505 -20.52993,7.32634c-2.19122,0.81428 -4.46388,1.40777 -6.67818,2.15521c0.74991,0.69786 1.43062,1.62672 2.06973,2.30877zM315.16764,144.37518c0.4497,-10.63078 3.31832,-21.05476 4.00078,-31.68107l0.03996,-0.09258l-0.02808,-0.00402l0.44838,-3.13934c0.11585,-0.96341 0.79039,-1.81209 1.78058,-2.10192c1.04121,-0.30479 2.12167,0.09902 2.725,0.9289l2.2221,2.91133l-0.24327,0.18567c3.49832,3.33351 6.70376,6.89578 10.39389,10.1113c6.40469,5.58097 14.51864,9.61806 20.26654,15.94521c2.39806,2.63973 3.80789,6.23335 6.20657,8.79125c3.69447,3.93973 7.7568,7.6564 11.62818,11.47094l1.95732,1.9322c0,0 0.58656,0.57905 0.75362,1.40896c0.23971,0.26124 0.44475,0.61425 0.58354,1.08838c0.29044,0.99223 0.05044,1.69423 -0.33095,2.17636c1.65249,8.78974 2.76377,19.29448 -0.46424,27.77236c-1.73043,4.54468 -5.67632,5.24337 -9.54278,7.35444c-6.09753,3.32923 -12.91922,6.58514 -20.09025,5.06124c-4.3225,-0.91859 -8.25116,-3.35503 -11.99284,-5.54801c-6.32422,-4.03585 -11.71464,-7.00193 -14.12642,-14.44961c-0.3761,-1.16138 -1.32957,-2.39092 -1.32947,-3.55097c-3.50056,-12.00572 -5.38844,-24.0358 -4.85818,-36.571z" fill="#696969"/><path d="M321.2924,171.02105c-1.70118,-1.83194 0.13075,-3.53312 0.13075,-3.53312l0.82114,-0.58745c2.57895,-4.53723 6.17704,-5.62126 10.46681,-8.19336c1.79766,-1.07786 3.3846,-2.49375 5.22013,-3.50581c3.62541,-1.99891 7.87078,-2.48791 11.82559,-3.22811c5.70157,-1.06713 9.42377,-1.69645 14.73177,1.17001c0,0 2.1932,1.19997 0.99323,3.39315c-1.19997,2.1932 -3.39315,0.99323 -3.39315,0.99323c-4.19946,-2.33491 -6.87161,-1.49216 -11.40691,-0.64268c-3.42036,0.64064 -7.24055,0.9459 -10.37331,2.71314c-1.7555,0.9903 -3.28101,2.34969 -5.01001,3.38559c-3.33322,1.99703 -6.82611,2.74954 -8.66775,6.31476l-1.80515,1.85139c0,0 -1.83194,1.70118 -3.53312,-0.13075z" fill="#a2a2a2"/><path d="M320.59536,155.91705c-2.29282,-0.99647 -1.29635,-3.2893 -1.29635,-3.2893l1.123,-2.41511c2.50131,-3.20212 4.65921,-3.68251 8.1891,-5.38822c4.76286,-2.30147 10.56218,-5.33194 15.989,-5.76954c3.59798,-0.29013 6.3749,1.87704 9.80981,2.30428c0,0 2.47777,0.33267 2.14509,2.81044c-0.33267,2.47777 -2.81044,2.14509 -2.81044,2.14509c-2.86289,-0.40635 -5.95071,-2.60294 -8.78752,-2.27256c-4.88116,0.56846 -9.86191,3.20461 -14.17641,5.2871c-2.83071,1.36631 -4.53926,1.28423 -6.35572,3.87954l-0.54025,1.41192c0,0 -0.99647,2.29282 -3.2893,1.29635z" fill="#a2a2a2"/><path d="M319.58253,139.61531c-2.00145,-1.49807 -0.50339,-3.49951 -0.50339,-3.49951l1.4397,-1.66758c5.51546,-3.5734 11.35987,-5.07004 17.83491,-5.85165c0,0 2.48214,-0.29831 2.78046,2.18381c0.29831,2.48214 -2.18381,2.78046 -2.18381,2.78046c-5.70126,0.68203 -10.86047,1.92057 -15.70726,5.08002l-0.16108,0.47107c0,0 -1.49807,2.00145 -3.49951,0.50339z" fill="#a2a2a2"/></g><path d="M345.46911,191.72003c-0.44503,-5.40043 3.43743,-10.128 8.67168,-10.55932c5.23425,-0.43133 9.83823,3.59693 10.28325,8.99734c0.44503,5.40043 -3.43743,10.128 -8.67168,10.55932c-5.23425,0.43133 -9.83823,-3.59693 -10.28325,-8.99734z" data-paper-data="{&quot;index&quot;:null}" fill="#ff0000" stroke="#000000" stroke-width="5"/></g></g></g></svg>