<svg version="1.1" xmlns="http://www.w3.org/2000/svg" xmlns:xlink="http://www.w3.org/1999/xlink" width="758.71002" height="496.98284" viewBox="0,0,758.71002,496.98284"><g transform="translate(118.0976,40.87589)"><g data-paper-data="{&quot;isPaintingLayer&quot;:true}" fill-rule="nonzero" stroke="none" stroke-width="0" stroke-linecap="butt" stroke-linejoin="miter" stroke-miterlimit="10" stroke-dasharray="" stroke-dashoffset="0" style="mix-blend-mode: normal"><path d="M-118.0976,253.63094l18.00436,-259.26854l663.24797,0.8445l-18.00436,259.26854z" fill="#b5b5b5"/><g><g fill="#a7a7a7"><path d="M31.94509,254.14484l6.58633,-261.97269l23.82903,0.08381l-6.58633,261.97268z"/><path d="M79.60315,254.31245l6.58633,-261.97268l23.82903,0.0838l-6.58633,261.97269z"/><path d="M123.2897,254.4661l6.58633,-261.97269l23.82903,0.0838l-6.58633,261.97269z"/><path d="M170.94779,254.63371l6.58633,-261.97268l23.82903,0.0838l-6.58633,261.97269z"/></g><path d="M39.8881,254.17278l6.58633,-261.97269l23.82903,0.0838l-6.58633,261.97269z" fill="#cecece"/><path d="M87.54616,254.34039l6.58633,-261.97269l23.82903,0.0838l-6.58633,261.97269z" fill="#cecece"/><path d="M131.2327,254.49404l6.58633,-261.97269l23.82903,0.0838l-6.58633,261.97269z" fill="#cecece"/><path d="M178.89075,254.66165l6.58633,-261.97269l23.82903,0.08381l-6.58633,261.97268z" fill="#cecece"/></g><g><g fill="#a7a7a7"><path d="M265.17332,254.64034l6.58633,-261.97269l23.82903,0.0838l-6.58633,261.97269z"/><path d="M312.83138,254.80795l6.58632,-261.97268l23.82903,0.0838l-6.58633,261.97269z"/><path d="M356.51793,254.9616l6.58633,-261.97268l23.82903,0.0838l-6.58632,261.97268z"/><path d="M404.17601,255.12921l6.58633,-261.97269l23.82903,0.0838l-6.58633,261.97269z"/></g><path d="M273.11632,254.66828l6.58633,-261.97268l23.82903,0.0838l-6.58632,261.97269z" fill="#cecece"/><path d="M320.77439,254.83589l6.58633,-261.97269l23.82903,0.08381l-6.58633,261.97269z" fill="#cecece"/><path d="M364.46092,254.98953l6.58633,-261.97269l23.82903,0.0838l-6.58632,261.97269z" fill="#cecece"/><path d="M412.11898,255.15715l6.58632,-261.97268l23.82903,0.08381l-6.58632,261.97268z" fill="#cecece"/></g><path d="M-5.4955,405.97598v-153.15315h546.54655v153.15315z" fill="#969696"/><g><g fill="#a7a7a7"><path d="M-58.65551,454.97247l12.44096,-494.84235l45.01086,0.1583l-12.44097,494.84235z"/><path d="M31.36618,455.28906l12.44096,-494.84234l45.01086,0.15829l-12.44097,494.84235z"/><path d="M113.88608,455.5793l12.44097,-494.84235l45.01085,0.15829l-12.44096,494.84235z"/><path d="M203.90781,455.89589l12.44097,-494.84235l45.01086,0.1583l-12.44097,494.84235z"/></g><path d="M-43.65191,455.02523l12.44097,-494.84235l45.01085,0.1583l-12.44096,494.84235z" fill="#cecece"/><path d="M46.3698,455.34184l12.44097,-494.84235l45.01086,0.1583l-12.44097,494.84235z" fill="#cecece"/><path d="M128.88965,455.63205l12.44097,-494.84235l45.01085,0.1583l-12.44096,494.84235z" fill="#cecece"/><path d="M218.91134,455.94866l12.44096,-494.84235l45.01086,0.1583l-12.44096,494.84234z" fill="#cecece"/></g><g><g fill="#a7a7a7"><path d="M305.59374,453.96646l12.44097,-494.84235l45.01086,0.1583l-12.44097,494.84235z"/><path d="M395.61543,454.28305l12.44097,-494.84234l45.01086,0.15829l-12.44097,494.84235z"/><path d="M478.13532,454.57329l12.44098,-494.84235l45.01085,0.15829l-12.44097,494.84235z"/><path d="M568.15706,454.88988l12.44097,-494.84235l45.01086,0.1583l-12.44097,494.84235z"/></g><path d="M320.59734,454.01923l12.44097,-494.84235l45.01085,0.1583l-12.44096,494.84235z" fill="#cecece"/><path d="M410.61905,454.33584l12.44097,-494.84235l45.01086,0.1583l-12.44097,494.84235z" fill="#cecece"/><path d="M493.1389,454.62605l12.44097,-494.84235l45.01085,0.1583l-12.44097,494.84235z" fill="#cecece"/><path d="M583.16059,454.94266l12.44097,-494.84235l45.01086,0.1583l-12.44097,494.84234z" fill="#cecece"/></g></g></g></svg>