<svg version="1.1" xmlns="http://www.w3.org/2000/svg" xmlns:xlink="http://www.w3.org/1999/xlink" width="758.71002" height="629.81266" viewBox="0,0,758.71002,629.81266"><g transform="translate(118.0976,40.55929)"><g data-paper-data="{&quot;isPaintingLayer&quot;:true}" fill-rule="nonzero" stroke="none" stroke-linecap="butt" stroke-linejoin="miter" stroke-miterlimit="10" stroke-dasharray="" stroke-dashoffset="0" style="mix-blend-mode: normal"><path d="M-118.0976,253.63094l18.00436,-259.26854l663.24797,0.8445l-18.00436,259.26854z" fill="#b5b5b5" stroke-width="0"/><g stroke-width="0"><g fill="#a7a7a7"><path d="M31.94509,254.14484l6.58633,-261.97269l23.82903,0.08381l-6.58633,261.97268z"/><path d="M79.60315,254.31245l6.58633,-261.97268l23.82903,0.0838l-6.58633,261.97269z"/><path d="M123.2897,254.4661l6.58633,-261.97269l23.82903,0.0838l-6.58633,261.97269z"/><path d="M170.94779,254.63371l6.58633,-261.97268l23.82903,0.0838l-6.58633,261.97269z"/></g><path d="M39.8881,254.17278l6.58633,-261.97269l23.82903,0.0838l-6.58633,261.97269z" fill="#cecece"/><path d="M87.54616,254.34039l6.58633,-261.97269l23.82903,0.0838l-6.58633,261.97269z" fill="#cecece"/><path d="M131.2327,254.49404l6.58633,-261.97269l23.82903,0.0838l-6.58633,261.97269z" fill="#cecece"/><path d="M178.89075,254.66165l6.58633,-261.97269l23.82903,0.08381l-6.58633,261.97268z" fill="#cecece"/></g><g stroke-width="0"><g fill="#a7a7a7"><path d="M265.17332,254.64034l6.58633,-261.97269l23.82903,0.0838l-6.58633,261.97269z"/><path d="M312.83138,254.80795l6.58632,-261.97268l23.82903,0.0838l-6.58633,261.97269z"/><path d="M356.51793,254.9616l6.58633,-261.97268l23.82903,0.0838l-6.58632,261.97268z"/><path d="M404.17601,255.12921l6.58633,-261.97269l23.82903,0.0838l-6.58633,261.97269z"/></g><path d="M273.11632,254.66828l6.58633,-261.97268l23.82903,0.0838l-6.58632,261.97269z" fill="#cecece"/><path d="M320.77439,254.83589l6.58633,-261.97269l23.82903,0.08381l-6.58633,261.97269z" fill="#cecece"/><path d="M364.46092,254.98953l6.58633,-261.97269l23.82903,0.0838l-6.58632,261.97269z" fill="#cecece"/><path d="M412.11898,255.15715l6.58632,-261.97268l23.82903,0.08381l-6.58632,261.97268z" fill="#cecece"/></g><path d="M-5.4955,405.97598v-153.15315h546.54655v153.15315z" fill="#969696" stroke-width="0"/><g stroke-width="0"><g fill="#a7a7a7"><path d="M-58.65551,454.97247l12.44096,-494.84235l45.01086,0.1583l-12.44097,494.84235z"/><path d="M31.36618,455.28906l12.44096,-494.84234l45.01086,0.15829l-12.44097,494.84235z"/><path d="M113.88608,455.5793l12.44097,-494.84235l45.01085,0.15829l-12.44096,494.84235z"/><path d="M203.90781,455.89589l12.44097,-494.84235l45.01086,0.1583l-12.44097,494.84235z"/></g><path d="M-43.65191,455.02523l12.44097,-494.84235l45.01085,0.1583l-12.44096,494.84235z" fill="#cecece"/><path d="M46.3698,455.34184l12.44097,-494.84235l45.01086,0.1583l-12.44097,494.84235z" fill="#cecece"/><path d="M128.88965,455.63205l12.44097,-494.84235l45.01085,0.1583l-12.44096,494.84235z" fill="#cecece"/><path d="M218.91134,455.94866l12.44096,-494.84235l45.01086,0.1583l-12.44096,494.84234z" fill="#cecece"/></g><path d="M395.61543,454.28305l12.44097,-494.84234l45.01086,0.15829l-12.44097,494.84235z" fill="#a7a7a7" stroke-width="0"/><path d="M478.13532,454.57329l12.44098,-494.84235l45.01085,0.15829l-12.44097,494.84235z" fill="#a7a7a7" stroke-width="0"/><path d="M568.15706,454.88988l12.44097,-494.84235l45.01086,0.1583l-12.44097,494.84235z" fill="#a7a7a7" stroke-width="0"/><path d="M410.61905,454.33584l12.44097,-494.84235l45.01086,0.1583l-12.44097,494.84235z" fill="#cecece" stroke-width="0"/><path d="M493.1389,454.62605l12.44097,-494.84235l45.01085,0.1583l-12.44097,494.84235z" fill="#cecece" stroke-width="0"/><path d="M583.16059,454.94266l12.44097,-494.84235l45.01086,0.1583l-12.44097,494.84234z" fill="#cecece" stroke-width="0"/><g stroke-width="0"><path d="M305.59374,454.06472l12.44097,-254.70035l45.01086,0.08149l-12.44097,254.70035z" fill="#a7a7a7"/><path d="M320.59734,454.09663l12.44097,-252.91718l45.01085,0.08091l-12.44096,252.91718z" fill="#cecece"/></g><g data-paper-data="{&quot;index&quot;:null}" fill="#7c7c7c"><path d="M378.44244,354.34275l38.91149,154.90435l-30.98089,7.78229l-38.91149,-154.90435z" stroke-width="0"/><path d="M386.32053,516.45879c-1.80187,-7.17311 3.7766,-14.75629 12.45983,-16.93747c8.68323,-2.18121 17.18308,1.86553 18.98495,9.03864c1.80187,7.17311 -3.7766,14.75626 -12.45983,16.93747c-8.68323,2.18121 -17.18308,-1.86553 -18.98495,-9.03864z" stroke-width="0"/><path d="M303.98226,339.11171c-2.35883,-9.39039 4.44203,-3.07624 11.09382,-5.56198c9.26022,-3.46049 23.8507,-7.2129 39.23042,-11.07625c15.46979,-3.88596 31.88644,-7.24593 40.14127,-8.11447c5.84703,-0.61519 2.8964,-8.60107 5.236,0.71276c5.64268,22.46315 -11.20653,46.05465 -37.63379,52.6931c-26.42726,6.63844 -52.42506,-6.19002 -58.06772,-28.65319z" stroke-width="0"/><path d="M305.06696,336.90134c-0.182,-0.7245 -0.10733,-1.2954 0.09327,-1.74161c0.70939,-3.70821 0.04907,-7.24132 0.51317,-10.98201c0.51037,-4.11358 2.96461,-7.0723 2.87778,-11.30481c-0.10039,-4.89507 -2.13641,-8.83749 -1.3797,-14.07719c-3.23533,-12.18258 5.61485,-15.79056 12.85535,-23.19675c5.10131,-5.21804 5.08986,-12.24163 11.48547,-16.92629c10.17627,-7.45392 24.40743,1.10554 31.20758,9.02561c3.16423,5.98328 8.19462,8.67536 13.04267,12.79139c3.15592,2.67942 4.88143,6.37774 7.12897,9.71439c4.91913,7.30279 11.02464,13.71225 15.58419,21.28122c0.7477,-0.06184 2.31398,0.05232 2.79723,1.97611c0.4571,1.8197 -0.7049,2.67043 -1.41436,3.01007c-0.21601,0.35829 -0.5619,0.70081 -1.09575,0.98631c-1.08908,0.58243 -1.94099,0.38241 -2.53914,0.00485c-18.08903,4.68574 -36.21455,10.53789 -54.62791,15.16326c-9.94324,2.49772 -20.08028,7.93115 -30.51429,5.41217l-0.52114,0.1444c-0.12247,0.75769 -0.57295,1.65665 -1.94824,2.00212c-2.5589,0.64279 -3.20169,-1.91611 -3.20169,-1.91611l-0.09641,-0.68936c-0.09862,-0.19624 -0.18247,-0.4209 -0.24701,-0.6778z" stroke-width="0.5"/><path d="M430.58654,571.17252l0.41431,-0.10408c5.78067,-6.3193 8.37852,-15.32797 6.13583,-24.25602c-3.55001,-14.13241 -17.88445,-22.71113 -32.01686,-19.16111c-14.13241,3.55001 -22.71113,17.88445 -19.16111,32.01686c2.36419,9.41166 9.51134,16.36022 18.19649,18.90369c8.47236,-1.01803 17.28479,-5.68097 25.96725,-6.58834c0.17983,-0.17857 0.35697,-0.35959 0.53137,-0.54301zM413.33771,515.20972c3.6393,0.75701 5.94375,0.52224 9.38525,2.5355c0,0 1.61839,0.96856 1.29959,2.63618c0.49868,0.31677 0.99639,0.59377 1.49468,0.8016c12.69158,5.29302 17.12066,16.94067 22.81374,28.84764c1.28266,5.66242 4.83201,10.73983 5.73579,16.99515c0.22632,1.56647 1.43676,3.54318 0.39188,4.73202c-2.59201,2.94915 -13.1332,4.09579 -16.97454,5.06073c-14.25037,3.57964 -28.50075,7.15929 -42.75112,10.73896c-0.77714,0.19521 -7.53183,2.04452 -8.38094,1.63755c-6.29223,-3.01579 -5.35302,-13.4679 -8.00415,-18.6222c-7.7905,-15.14616 -5.58461,-30.65761 3.06555,-45.21644c2.71768,-6.45138 4.52348,-9.3933 10.6272,-12.78733c6.29785,-4.33868 14.06183,1.1357 21.29705,2.64069z" stroke-width="0.5"/></g></g></g></svg>