<svg version="1.1" xmlns="http://www.w3.org/2000/svg" xmlns:xlink="http://www.w3.org/1999/xlink" width="692.16488" height="595.74474" viewBox="0,0,692.16488,595.74474"><g transform="translate(150.66485,83.40991)"><g data-paper-data="{&quot;isPaintingLayer&quot;:true}" fill-rule="nonzero" stroke-linecap="butt" stroke-linejoin="miter" stroke-miterlimit="10" stroke-dasharray="" stroke-dashoffset="0" style="mix-blend-mode: normal"><path d="M-45.49997,512.33483v-273h585v273z" fill="#8c8c8c" stroke="none" stroke-width="0"/><path d="M-43.49997,239.5v-273h585v273z" fill="#ababab" stroke="none" stroke-width="0"/><path d="M182.50004,166.5v-93h110v93z" fill="#00d9ff" stroke="none" stroke-width="0"/><g fill="#a7a7a7" stroke="none" stroke-width="0"><path d="M193.50004,167.5v-93h12v93z"/><path d="M217.50004,167.5v-93h12v93z"/><path d="M239.50004,167.5v-93h12v93z"/><path d="M263.50004,167.5v-93h12v93z"/></g><path d="M197.50004,167.5v-93h12v93z" fill="#cecece" stroke="none" stroke-width="0"/><path d="M221.50004,167.5v-93h12v93z" fill="#cecece" stroke="none" stroke-width="0"/><path d="M243.50004,167.5v-93h12v93z" fill="#cecece" stroke="none" stroke-width="0"/><path d="M267.50004,167.5v-93h12v93z" fill="#cecece" stroke="none" stroke-width="0"/><path d="M413.50004,412.5v-91h65v91z" fill="#9f9f9f" stroke="none" stroke-width="0"/><path d="" fill="#000000" stroke="none" stroke-width="0.5"/><path d="M276.76214,232.27706c7.69326,0 13.92988,12.79863 13.92988,28.58653c0,15.7879 -6.23662,28.58653 -13.92988,28.58653c-7.69326,0 -13.92988,-12.79863 -13.92988,-28.58653c0,-15.7879 6.23662,-28.58653 13.92988,-28.58653z" data-paper-data="{&quot;index&quot;:null}" fill="#ff0000" stroke="#000000" stroke-width="5"/><path d="M248.94536,267.18468c5.41873,0 9.81148,4.25759 9.81148,9.50959c0,5.252 -4.39275,9.50959 -9.81148,9.50959c-5.41873,0 -9.81148,-4.25759 -9.81148,-9.50959c0,-5.252 4.39275,-9.50959 9.81148,-9.50959z" data-paper-data="{&quot;index&quot;:null}" fill="#ff0000" stroke="#000000" stroke-width="5"/><path d="M299.94534,299.75216c6.08771,0 11.02277,2.87427 11.02277,6.41986c0,3.54559 -4.93506,6.41986 -11.02277,6.41986c-6.08771,0 -11.02277,-2.87427 -11.02277,-6.41986c0,-3.54559 4.93506,-6.41986 11.02277,-6.41986z" data-paper-data="{&quot;index&quot;:null}" fill="#ff0000" stroke="#000000" stroke-width="5"/><path d="M263.26775,301.05998c6.08771,0 11.02277,2.87426 11.02277,6.41985c0,3.54559 -4.93506,6.41985 -11.02277,6.41985c-6.0877,0 -11.02277,-2.87426 -11.02277,-6.41985c0,-3.54559 4.93506,-6.41985 11.02277,-6.41985z" data-paper-data="{&quot;index&quot;:null}" fill="#ff0000" stroke="#000000" stroke-width="5"/><path d="M-143.06152,451.03904v-481.89639l186.62162,-52.55256c0,0 11.37615,271.22744 14.92661,355.87674c1.96947,46.95554 4.59291,109.50315 4.59291,109.50315z" fill="#9f9f9f" stroke="none" stroke-width="0"/><path d="M-127.17312,387.96116l-23.49173,-364.80954l188.75097,-13.62629l23.49173,364.80954z" fill="#b5b5b5" stroke="none" stroke-width="0"/><g stroke="none" stroke-width="0"><g fill="#a7a7a7"><path d="M-80.97898,385.47452l-23.38326,-363.12507l18.45203,-1.33209l23.38326,363.12507z"/><path d="M-44.07493,382.81034l-23.38326,-363.12507l18.45203,-1.33209l23.38326,363.12507z"/><path d="M-10.24621,380.36819l-23.38326,-363.12507l18.45203,-1.33209l23.38326,363.12507z"/><path d="M26.65786,377.70401l-23.38326,-363.12507l18.45203,-1.33209l23.38326,363.12507z"/></g><path d="M-74.82831,385.03049l-23.38326,-363.12507l18.45203,-1.33209l23.38326,363.12507z" fill="#cecece"/><path d="M-37.92425,382.36632l-23.38326,-363.12507l18.45203,-1.33209l23.38326,363.12507z" fill="#cecece"/><path d="M-4.09555,379.92416l-23.38326,-363.12507l18.45203,-1.33209l23.38326,363.12507z" fill="#cecece"/><path d="M32.8085,377.25999l-23.38326,-363.12507l18.45203,-1.33209l23.38326,363.12507z" fill="#cecece"/></g><g><g fill="#7c7c7c" stroke="none"><path d="M335.02584,298.1632l-11.46618,-59.43973l11.88796,-2.29322l11.46618,59.43973z" stroke-width="0"/><path d="M335.45547,236.64728c0.53096,2.75246 -1.73967,5.50481 -5.07159,6.14756c-3.33192,0.64273 -6.46341,-1.06752 -6.99437,-3.81998c-0.53096,-2.75246 1.73967,-5.5048 5.07159,-6.14756c3.33192,-0.64273 6.46341,1.06752 6.99437,3.81998z" stroke-width="0"/><path d="M362.8836,305.49382c0.69509,3.60328 -1.74574,1.0707 -4.31531,1.87142c-3.57718,1.11474 -9.17767,2.22777 -15.07916,3.36621c-5.93606,1.14509 -12.21935,2.07121 -15.36155,2.22621c-2.22565,0.10979 -1.27707,3.19399 -1.96649,-0.3799c-1.66275,-8.61954 5.20994,-17.19284 15.35057,-19.14902c10.14064,-1.95617 19.70918,3.44555 21.37191,12.06509z" stroke-width="0"/><path d="M362.42662,306.30747c0.05364,0.27801 0.01336,0.49248 -0.07194,0.65712c-0.34648,1.38839 -0.17093,2.73932 -0.42526,4.14516c-0.2797,1.54598 -1.27071,2.61402 -1.32691,4.21757c-0.065,1.85457 0.62254,3.38936 0.22594,5.35631c0.96804,4.67837 -2.45708,5.85755 -5.35296,8.50795c-2.04029,1.86734 -2.18375,4.52556 -4.70262,6.16382c-4.00788,2.6067 -9.21332,-0.93191 -11.6201,-4.07221c-1.07157,-2.33086 -2.91859,-3.45547 -4.66665,-5.11512c-1.13793,-1.08039 -1.71311,-2.51626 -2.49344,-3.82625c-1.70791,-2.86712 -3.88358,-5.42114 -5.44982,-8.38144c-0.28425,0.00767 -0.87459,-0.06848 -1.01699,-0.80668c-0.13469,-0.69825 0.32295,-0.99574 0.59857,-1.10935c0.08927,-0.13104 0.22739,-0.25338 0.43542,-0.3502c0.4244,-0.1975 0.74259,-0.10388 0.961,0.05159c6.94409,-1.39264 13.92653,-3.22592 20.99209,-4.5889c3.81541,-0.73602 7.76593,-2.57892 11.66152,-1.40612l0.20025,-0.04368c0.06229,-0.28415 0.25169,-0.61487 0.77941,-0.71668c0.9819,-0.18942 1.17132,0.79249 1.17132,0.79249l0.02199,0.2629c0.03319,0.07633 0.0602,0.16312 0.07922,0.26171z" stroke-width="0.5"/><path d="M319.85492,215.01039l-0.15898,0.03066c-2.32055,2.26981 -3.49321,5.62434 -2.83237,9.05019c1.0461,5.42286 6.29023,8.97095 11.71311,7.92485c5.42286,-1.0461 8.97095,-6.29023 7.92485,-11.71311c-0.69666,-3.61143 -3.25519,-6.39137 -6.48843,-7.53665c-3.22765,0.20699 -6.66067,1.78619 -9.9655,1.94689c-0.07181,0.06379 -0.14266,0.12857 -0.21251,0.19431zM325.205,236.55152c-1.3613,-0.36305 -2.23833,-0.32269 -3.49834,-1.15698c0,0 -0.59209,-0.40059 -0.43634,-1.02496c-0.18205,-0.13036 -0.36457,-0.24567 -0.54877,-0.33479c-4.69156,-2.27009 -6.1226,-6.77114 -8.02653,-11.39693c-0.36626,-2.16984 -1.60262,-4.16598 -1.81303,-6.55222c-0.05269,-0.59757 -0.46917,-1.37109 -0.04873,-1.799c1.04295,-1.06151 5.05621,-1.27366 6.53023,-1.558c5.46813,-1.05482 10.93627,-2.10965 16.40442,-3.16449c0.2982,-0.05752 2.89331,-0.61524 3.2061,-0.44337c2.31773,1.27367 1.74239,5.20934 2.63722,7.21568c2.62951,5.89573 1.46836,11.71937 -2.11147,17.04692c-1.1642,2.38425 -1.90947,3.45956 -4.29074,4.61556c-2.47461,1.5094 -5.29758,-0.72565 -8.00396,-1.44742z" stroke-width="0.5"/></g><path d="M335.36279,224.50244c0.59955,5.38546 -3.14586,10.22232 -8.36562,10.80342c-5.21976,0.58111 -9.93723,-3.3136 -10.53679,-8.69906c-0.59955,-5.38546 3.14586,-10.22232 8.36562,-10.80342c5.21976,-0.58111 9.93723,3.3136 10.53679,8.69906z" data-paper-data="{&quot;index&quot;:null}" fill="#ff0000" stroke="#000000" stroke-width="5"/></g><path d="M414.50004,323.5v-163h65v163z" fill="#595959" stroke="none" stroke-width="0"/><g><path d="M284.3479,184.90964c11.38105,0 20.60719,9.64081 20.60719,21.53336c0,11.89255 -9.22615,21.53336 -20.60719,21.53336c-11.38105,0 -20.6072,-9.64081 -20.6072,-21.53336c0,-11.89255 9.22616,-21.53336 20.6072,-21.53336z" data-paper-data="{&quot;index&quot;:null}" fill="#d29460" stroke="#000000" stroke-width="2"/><path d="M282.0932,185.0562c1.7985,-0.03466 7.23539,-1.23033 8.69874,0.56618c1.19553,1.46772 9.95755,3.73715 10.33325,7.33322c0.45485,-0.088 0.82342,-0.00141 1.06758,0.32413c0.89578,1.19438 -1.38708,2.19145 -2.02353,2.63529c-2.51002,1.75042 -5.07661,4.51493 -7.79883,5.8044c-3.32701,1.57595 -1.93333,-3.09904 -2.24521,-3.12778c-2.11883,-0.19523 -4.99681,1.22268 -7.23571,1.28156c-4.36122,0.11469 -8.46442,-0.26607 -12.80749,-0.34641c-0.55121,-0.0102 -3.3739,0.11064 -3.78499,-0.60877c-0.29474,-0.17395 -0.49247,-0.49479 -0.49247,-0.86182c0,-0.49706 0.36266,-0.90942 0.83781,-0.98691c1.37581,-6.33275 9.22971,-11.89321 15.45085,-12.01309z" fill="#000000" stroke="none" stroke-width="0.5"/><path d="M298.90927,217.81836c-1.529,0 -1.529,-1.668 -1.529,-1.668l0.01536,-0.00239c-0.32867,-2.52058 -0.34301,-4.96093 -0.34301,-7.50361c0,0 0,-1.668 1.529,-1.668c1.529,0 1.529,1.668 1.529,1.668c0,2.38598 0.00134,4.66817 0.31227,7.03182l0.01536,0.47418c0,0 0,1.668 -1.529,1.668z" fill="#000000" stroke="none" stroke-width="0.5"/><path d="M294.2426,217.48503c-1.529,0 -1.529,-1.668 -1.529,-1.668l0.01536,-0.00239c-0.32867,-2.52058 -0.34301,-4.96093 -0.34301,-7.50361c0,0 0,-1.668 1.529,-1.668c1.529,0 1.529,1.668 1.529,1.668c0,2.38598 0.00134,4.66817 0.31227,7.03182l0.01536,0.47418c0,0 0,1.668 -1.529,1.668z" fill="#000000" stroke="none" stroke-width="0.5"/></g></g></g></svg>