<svg version="1.1" xmlns="http://www.w3.org/2000/svg" xmlns:xlink="http://www.w3.org/1999/xlink" width="66.64948" height="102.80545" viewBox="0,0,66.64948,102.80545"><g transform="translate(-208.80717,-128.59727)"><g data-paper-data="{&quot;isPaintingLayer&quot;:true}" fill-rule="nonzero" stroke-linecap="butt" stroke-linejoin="miter" stroke-miterlimit="10" stroke-dasharray="" stroke-dashoffset="0" style="mix-blend-mode: normal"><g stroke="none" stroke-width="0.5"><path d="M258.08334,157.5482c-0.30935,-0.61178 -0.82142,-5.53731 -1.08246,-6.45548c-1.30786,-4.60028 -7.12725,-8.78361 -10.95491,-11.16453c-0.90235,-0.56544 -3.67448,-2.37237 -4.59217,-2.62541c-1.61827,-0.44622 -3.35688,0.06759 -5.03554,0.06688c-4.64905,-0.00198 -10.95261,0.04523 -14.45431,3.73252c-3.04235,3.20361 -2.51246,8.16917 -3.11343,12.06627c-0.36452,2.36385 -1.56258,4.97478 -2.5125,7.2603c2.73339,-0.0259 5.48537,-0.01 8.15916,0.32934c2.06208,0.2617 4.07118,0.95489 6.1479,1.04358c7.40674,0.31634 14.42692,-0.74203 21.76134,-1.2639c2.33174,-0.16591 4.67959,-0.09707 7.01471,-0.19233c-0.52367,-0.88043 -0.91601,-1.96311 -1.33779,-2.79724zM264.02798,197.62799c-3.41806,10.07634 -9.09953,19.27467 -12.73972,29.28134l-0.06436,0.07762l0.02582,0.01174l-1.31225,2.88696c-0.38183,0.89206 -1.26761,1.51707 -2.29936,1.51707c-1.08491,0 -2.00841,-0.69107 -2.35431,-1.65702l-1.31475,-3.41834l0.28563,-0.10986c-2.42097,-4.18204 -4.49658,-8.50134 -7.13478,-12.62403c-4.57893,-7.15547 -11.232,-13.30941 -14.97095,-20.9965c-1.55992,-3.20711 -1.90344,-7.05207 -3.48693,-10.18081c-2.43892,-4.81894 -5.29354,-9.52716 -7.93741,-14.27566l-1.3357,-2.40425c0,0 -0.40028,-0.72051 -0.32746,-1.56394c-0.15666,-0.31807 -0.25428,-0.71446 -0.25428,-1.20848c0,-1.03386 0.42754,-1.64017 0.92902,-1.99575c0.88333,-8.9 2.76786,-19.29389 8.24754,-26.52353c2.93746,-3.87554 6.92073,-3.43759 11.22454,-4.37746c6.78725,-1.4822 14.24889,-2.69061 20.70303,0.78648c3.89037,2.0959 6.97636,5.53788 9.95129,8.69371c4.93577,5.64996 9.27585,10.01091 9.49826,17.8362c0.03468,1.22027 0.60436,2.66815 0.27837,3.78145c-0.01314,12.50564 -1.58085,24.58162 -5.61123,36.46306z" fill="#696969"/><path d="M265.6354,170.33455c1.11803,2.23607 -1.11803,3.3541 -1.11803,3.3541l-0.9531,0.33312c-3.74973,3.63001 -7.50745,3.65958 -12.34703,4.923c-2.02807,0.52944 -3.94886,1.44251 -5.99478,1.89815c-4.04095,0.89995 -8.25273,0.17661 -12.25622,-0.22401c-5.77174,-0.57757 -9.52085,-1.01925 -13.80983,-5.26144c0,0 -1.76777,-1.76777 0,-3.53553c1.76777,-1.76777 3.53553,0 3.53553,0c3.37441,3.42061 6.17571,3.36249 10.76699,3.8213c3.46259,0.34602 7.21469,1.12625 10.71776,0.31027c1.96301,-0.45725 3.80898,-1.33335 5.75936,-1.8418c3.76001,-0.98022 7.32363,-0.72117 10.09268,-3.62546l2.25257,-1.26972c0,0 2.23607,-1.11803 3.3541,1.11803z" fill="#a2a2a2"/><path d="M262.06126,185.02612c1.92055,1.60046 0.32009,3.52101 0.32009,3.52101l-1.75625,2.00238c-3.30014,2.37048 -5.50609,2.22532 -9.37301,2.87069c-5.2176,0.87078 -11.63471,2.15002 -16.96592,1.04546c-3.5346,-0.73232 -5.59087,-3.59233 -8.76742,-4.96732c0,0 -2.28453,-1.01535 -1.26918,-3.29988c1.01535,-2.28453 3.29988,-1.26918 3.29988,-1.26918c2.63344,1.19425 4.97984,4.16983 7.79522,4.6497c4.84429,0.82569 10.36503,-0.30507 15.0908,-1.09165c3.10055,-0.51607 4.71724,0.04269 7.18963,-1.93782l0.91514,-1.2033c0,0 1.60046,-1.92055 3.52101,-0.32009z" fill="#a2a2a2"/><path d="M258.45371,200.95592c1.5,2 -0.5,3.5 -0.5,3.5l-1.85019,1.19598c-6.29722,1.88005 -12.32671,1.67458 -18.76056,0.6057c0,0 -2.46598,-0.411 -2.05499,-2.87698c0.411,-2.46598 2.87698,-2.05499 2.87698,-2.05499c5.66325,0.94707 10.96265,1.20777 16.50183,-0.46286l0.28693,-0.40685c0,0 2,-1.5 3.5,0.5z" fill="#a2a2a2"/></g><g><path d="M215.47523,201.79488v-30.18675h57.48142v30.18675z" fill="#696969" stroke="#000000" stroke-width="5"/><text transform="translate(219.06482,197.48682) scale(0.77108,0.746)" font-size="40" xml:space="preserve" fill="#000000" fill-rule="nonzero" stroke="none" stroke-width="1" stroke-linecap="butt" stroke-linejoin="miter" stroke-miterlimit="10" stroke-dasharray="" stroke-dashoffset="0" font-family="&quot;ヒラギノ角ゴ Pro W3&quot;, &quot;Hiragino Kaku Gothic Pro&quot;, Osaka, &quot;メイリオ&quot;, Meiryo, &quot;ＭＳ Ｐゴシック&quot;, &quot;MS PGothic&quot;" font-weight="normal" text-anchor="start" style="mix-blend-mode: normal"><tspan x="0" dy="0">Drill</tspan></text></g></g></g></svg>