<svg version="1.1" xmlns="http://www.w3.org/2000/svg" xmlns:xlink="http://www.w3.org/1999/xlink" width="338.53672" height="48.25071" viewBox="0,0,338.53672,48.25071"><defs><linearGradient x1="83.94106" y1="157.33272" x2="83.94106" y2="197.3207" gradientUnits="userSpaceOnUse" id="color-1"><stop offset="0" stop-color="#af000f"/><stop offset="1" stop-color="#3200b0"/></linearGradient><linearGradient x1="108.17836" y1="172.12361" x2="108.17836" y2="194.30978" gradientUnits="userSpaceOnUse" id="color-2"><stop offset="0" stop-color="#af000f"/><stop offset="1" stop-color="#3200b0"/></linearGradient><linearGradient x1="131.07511" y1="172.8268" x2="131.07511" y2="192.51219" gradientUnits="userSpaceOnUse" id="color-3"><stop offset="0" stop-color="#af000f"/><stop offset="1" stop-color="#3200b0"/></linearGradient><linearGradient x1="152.06464" y1="174.3637" x2="152.06464" y2="190.63389" gradientUnits="userSpaceOnUse" id="color-4"><stop offset="0" stop-color="#af000f"/><stop offset="1" stop-color="#3200b0"/></linearGradient><linearGradient x1="168.73901" y1="172.99092" x2="168.73901" y2="194.64931" gradientUnits="userSpaceOnUse" id="color-5"><stop offset="0" stop-color="#af000f"/><stop offset="1" stop-color="#3200b0"/></linearGradient><linearGradient x1="184.91206" y1="169.87885" x2="184.91206" y2="193.31361" gradientUnits="userSpaceOnUse" id="color-6"><stop offset="0" stop-color="#af000f"/><stop offset="1" stop-color="#3200b0"/></linearGradient><linearGradient x1="187.31264" y1="159.72967" x2="187.31264" y2="164.72967" gradientUnits="userSpaceOnUse" id="color-7"><stop offset="0" stop-color="#af000f"/><stop offset="1" stop-color="#3200b0"/></linearGradient><linearGradient x1="208.02966" y1="170.14813" x2="208.02966" y2="193.05399" gradientUnits="userSpaceOnUse" id="color-8"><stop offset="0" stop-color="#af000f"/><stop offset="1" stop-color="#3200b0"/></linearGradient><linearGradient x1="230.29791" y1="176.42629" x2="230.29791" y2="199.72258" gradientUnits="userSpaceOnUse" id="color-9"><stop offset="0" stop-color="#af000f"/><stop offset="1" stop-color="#3200b0"/></linearGradient><linearGradient x1="281.08217" y1="171.67786" x2="281.08217" y2="198.61229" gradientUnits="userSpaceOnUse" id="color-10"><stop offset="0" stop-color="#af000f"/><stop offset="1" stop-color="#3200b0"/></linearGradient><linearGradient x1="298.7744" y1="176.563" x2="298.7744" y2="202.66733" gradientUnits="userSpaceOnUse" id="color-11"><stop offset="0" stop-color="#af000f"/><stop offset="1" stop-color="#3200b0"/></linearGradient><linearGradient x1="335.97682" y1="170.13092" x2="335.97682" y2="201.01655" gradientUnits="userSpaceOnUse" id="color-12"><stop offset="0" stop-color="#af000f"/><stop offset="1" stop-color="#3200b0"/></linearGradient><linearGradient x1="351.71828" y1="182.6553" x2="351.71828" y2="199.14657" gradientUnits="userSpaceOnUse" id="color-13"><stop offset="0" stop-color="#af000f"/><stop offset="1" stop-color="#3200b0"/></linearGradient><linearGradient x1="360.63706" y1="176.51538" x2="360.63706" y2="198.88219" gradientUnits="userSpaceOnUse" id="color-14"><stop offset="0" stop-color="#af000f"/><stop offset="1" stop-color="#3200b0"/></linearGradient><linearGradient x1="359.73001" y1="168.50119" x2="359.73001" y2="173.50119" gradientUnits="userSpaceOnUse" id="color-15"><stop offset="0" stop-color="#af000f"/><stop offset="1" stop-color="#3200b0"/></linearGradient><linearGradient x1="378.56792" y1="177.29192" x2="378.56792" y2="199.14657" gradientUnits="userSpaceOnUse" id="color-16"><stop offset="0" stop-color="#af000f"/><stop offset="1" stop-color="#3200b0"/></linearGradient><linearGradient x1="400.87831" y1="178.6403" x2="400.87831" y2="194.36528" gradientUnits="userSpaceOnUse" id="color-17"><stop offset="0" stop-color="#af000f"/><stop offset="1" stop-color="#3200b0"/></linearGradient><linearGradient x1="260.84502" y1="161.34661" x2="260.84502" y2="197.59339" gradientUnits="userSpaceOnUse" id="color-18"><stop offset="0" stop-color="#af000f"/><stop offset="1" stop-color="#3200b0"/></linearGradient><linearGradient x1="85.0346" y1="160.24883" x2="85.0346" y2="200.23681" gradientUnits="userSpaceOnUse" id="color-19"><stop offset="0" stop-color="#ff0000"/><stop offset="1" stop-color="#2f00ff"/></linearGradient><linearGradient x1="112.91706" y1="174.31069" x2="112.91706" y2="196.49686" gradientUnits="userSpaceOnUse" id="color-20"><stop offset="0" stop-color="#ff0000"/><stop offset="1" stop-color="#2f00ff"/></linearGradient><linearGradient x1="132.16866" y1="175.74291" x2="132.16866" y2="195.4283" gradientUnits="userSpaceOnUse" id="color-21"><stop offset="0" stop-color="#ff0000"/><stop offset="1" stop-color="#2f00ff"/></linearGradient><linearGradient x1="153.15818" y1="177.27981" x2="153.15818" y2="193.55" gradientUnits="userSpaceOnUse" id="color-22"><stop offset="0" stop-color="#ff0000"/><stop offset="1" stop-color="#2f00ff"/></linearGradient><linearGradient x1="169.83255" y1="175.90703" x2="169.83255" y2="197.56542" gradientUnits="userSpaceOnUse" id="color-23"><stop offset="0" stop-color="#ff0000"/><stop offset="1" stop-color="#2f00ff"/></linearGradient><linearGradient x1="186.0056" y1="172.79496" x2="186.0056" y2="196.22972" gradientUnits="userSpaceOnUse" id="color-24"><stop offset="0" stop-color="#ff0000"/><stop offset="1" stop-color="#2f00ff"/></linearGradient><linearGradient x1="188.40619" y1="162.6458" x2="188.40619" y2="167.6458" gradientUnits="userSpaceOnUse" id="color-25"><stop offset="0" stop-color="#ff0000"/><stop offset="1" stop-color="#2f00ff"/></linearGradient><linearGradient x1="209.12319" y1="173.06424" x2="209.12319" y2="195.9701" gradientUnits="userSpaceOnUse" id="color-26"><stop offset="0" stop-color="#ff0000"/><stop offset="1" stop-color="#2f00ff"/></linearGradient><linearGradient x1="231.39145" y1="179.3424" x2="231.39145" y2="202.63869" gradientUnits="userSpaceOnUse" id="color-27"><stop offset="0" stop-color="#ff0000"/><stop offset="1" stop-color="#2f00ff"/></linearGradient><linearGradient x1="282.17571" y1="174.59397" x2="282.17571" y2="201.5284" gradientUnits="userSpaceOnUse" id="color-28"><stop offset="0" stop-color="#ff0000"/><stop offset="1" stop-color="#2f00ff"/></linearGradient><linearGradient x1="299.86794" y1="179.47911" x2="299.86794" y2="205.58344" gradientUnits="userSpaceOnUse" id="color-29"><stop offset="0" stop-color="#ff0000"/><stop offset="1" stop-color="#2f00ff"/></linearGradient><linearGradient x1="337.07037" y1="173.04703" x2="337.07037" y2="203.93266" gradientUnits="userSpaceOnUse" id="color-30"><stop offset="0" stop-color="#ff0000"/><stop offset="1" stop-color="#2f00ff"/></linearGradient><linearGradient x1="352.81182" y1="185.57141" x2="352.81182" y2="202.06268" gradientUnits="userSpaceOnUse" id="color-31"><stop offset="0" stop-color="#ff0000"/><stop offset="1" stop-color="#2f00ff"/></linearGradient><linearGradient x1="361.7306" y1="179.43149" x2="361.7306" y2="201.7983" gradientUnits="userSpaceOnUse" id="color-32"><stop offset="0" stop-color="#ff0000"/><stop offset="1" stop-color="#2f00ff"/></linearGradient><linearGradient x1="360.82355" y1="171.4173" x2="360.82355" y2="176.4173" gradientUnits="userSpaceOnUse" id="color-33"><stop offset="0" stop-color="#ff0000"/><stop offset="1" stop-color="#2f00ff"/></linearGradient><linearGradient x1="379.66146" y1="180.20803" x2="379.66146" y2="202.06268" gradientUnits="userSpaceOnUse" id="color-34"><stop offset="0" stop-color="#ff0000"/><stop offset="1" stop-color="#2f00ff"/></linearGradient><linearGradient x1="401.97185" y1="181.55641" x2="401.97185" y2="197.28139" gradientUnits="userSpaceOnUse" id="color-35"><stop offset="0" stop-color="#ff0000"/><stop offset="1" stop-color="#2f00ff"/></linearGradient><linearGradient x1="261.93857" y1="164.26271" x2="261.93857" y2="200.5095" gradientUnits="userSpaceOnUse" id="color-36"><stop offset="0" stop-color="#ff0000"/><stop offset="1" stop-color="#2f00ff"/></linearGradient></defs><g transform="translate(-71.27844,-157.33273)"><g data-paper-data="{&quot;isPaintingLayer&quot;:true}" fill-rule="nonzero" stroke="none" stroke-width="0.5" stroke-linecap="butt" stroke-linejoin="miter" stroke-miterlimit="10" stroke-dasharray="" stroke-dashoffset="0" style="mix-blend-mode: normal"><path d="M92.30679,193.75214c0,2.5 -2.5,2.5 -2.5,2.5h-0.53428c-4.95463,-0.00498 -9.76118,1.05403 -14.69266,1.06856c0,0 -0.61409,0 -1.23356,-0.30435c-1.17476,-0.2047 -2.06785,-1.22944 -2.06785,-2.46278c0,-0.22871 0.03071,-0.45026 0.08824,-0.66073l0.85823,-3.43293c1.07857,-9.64175 4.44012,-19.33711 4.39631,-29.03162c0,0 0,-0.08091 0.01456,-0.21362c-0.00956,-0.10204 -0.01456,-0.20884 -0.01456,-0.32066c0,-2.5 2.5,-2.5 2.5,-2.5c4.58042,0.00393 9.1308,-0.44257 13.69951,-0.79405l0.65396,-0.19986c0,0 2.42535,-0.60634 3.03169,1.81901c0.60634,2.42535 -1.81901,3.0317 -1.81901,3.0317l-1.48316,0.33442c-3.8814,0.29853 -7.74613,0.65321 -11.6287,0.76966c-0.18161,4.23061 -0.87793,8.45163 -1.6886,12.66646c3.38774,-0.02767 6.62911,-0.20304 10.00294,-1.22639l0.72922,-0.24428c0,0 2.37171,-0.79057 3.16228,1.58114c0.79057,2.37171 -1.58114,3.16228 -1.58114,3.16228l-0.87362,0.29c-4.1898,1.2449 -8.1853,1.41448 -12.43082,1.43752c-0.41156,2.06669 -0.8125,4.13221 -1.15547,6.19696c0.25544,0.77358 0.06633,1.53 0.06633,1.53l-0.67103,2.68411c-0.03185,0.27141 -0.06213,0.54282 -0.09074,0.81422c4.07254,-0.24144 8.10613,-0.99094 12.22766,-0.99474h0.53428c0,0 2.5,0 2.5,2.5z" fill="url(#color-1)"/><path d="M101.29283,191.80978c0,-2.5 2.5,-2.5 2.5,-2.5h0.80141c2.07317,0.03513 4.40726,-0.20446 6.13814,-1.55666c0.47598,-0.37185 0.70668,-1.1657 0.01232,-1.49947c-4.47861,-2.1528 -15.04136,-4.87063 -8.71964,-12.23999c1.00311,-1.16934 2.77031,-1.42096 4.27254,-1.76288c1.18296,-0.26925 2.42629,-0.02528 3.63943,-0.03792c0,0 2.5,0 2.5,2.5c0,2.5 -2.5,2.5 -2.5,2.5c-0.92397,-0.01264 -1.85058,-0.10872 -2.77192,-0.03791c-5.17623,0.39778 2.48734,3.53204 3.67593,4.02268c1.02425,0.42281 2.31677,0.42148 3.09683,1.20848c7.10294,7.16614 -3.5524,11.83296 -9.34364,11.90367h-0.80141c0,0 -2.5,0 -2.5,-2.5z" fill="url(#color-2)"/><path d="M139.32331,190.01219c0,2.5 -2.5,2.5 -2.5,2.5l-1.52744,-0.00736c-4.1302,-0.35151 -8.53325,-1.09719 -11.20882,-4.80267c-2.83364,-3.9244 -0.53927,-11.29628 3.41862,-13.71452c1.15287,-0.7044 2.60187,-0.72898 3.90279,-1.09347c0,0 2.42536,-0.60634 3.0317,1.81902c0.60634,2.42535 -1.81902,3.03169 -1.81902,3.03169c-0.83619,0.16979 -1.75154,0.11571 -2.50855,0.50937c-1.4915,0.7756 -3.1215,5.21475 -1.92416,6.58808c1.96197,2.25035 4.76018,2.49521 7.49093,2.67723l1.14396,-0.00736c0,0 2.5,0 2.5,2.5z" fill="url(#color-3)"/><path d="M162.56444,187.60794c0,2.5 -2.5,2.5 -2.5,2.5h-0.53428c-1.35219,-0.08798 -2.84148,0.33582 -4.05657,-0.26394c-0.88682,-0.43773 -1.60166,-1.08553 -2.17481,-1.86002c-0.67753,0.59027 -1.47358,1.13448 -2.38506,1.86447l-2.72669,0.75975c0,0 -1.87191,0.31198 -2.62571,-1.23861c-0.64174,-0.28343 -1.2565,-0.60177 -1.72986,-1.10305c-3.45786,-3.66189 -3.10998,-11.69388 2.08754,-13.44945c3.90446,-1.31882 7.31961,0.37551 8.92369,3.32317c1.31042,0.62966 1.31042,2.25491 1.31042,2.25491c-0.10435,2.66898 0.51615,5.12753 3.37706,4.71276h0.53428c0,0 2.5,0 2.5,2.5zM148.58031,185.35891c1.4796,-1.0943 2.4771,-1.97238 2.09296,-4.17761c-0.11158,-0.64057 -0.50234,-1.72271 -1.34888,-1.82924c-0.8826,-0.11106 -2.31855,-0.35234 -2.62461,0.4829c-0.30644,0.83629 0.01815,4.33753 0.74658,4.97725c0.31762,0.27894 0.7209,0.42066 1.13395,0.54669z" fill="url(#color-4)"/><path d="M162.64009,182.79943c0,-1.0917 0.47673,-1.70668 1.01383,-2.05311c0.03209,-1.45082 0.05473,-2.90298 0.05473,-4.35824c0,0 0,-1.07359 0.70353,-1.81369c0.56201,-1.48773 2.33074,-1.48772 2.33074,-1.48772c1.20925,0.0323 2.48193,-0.29098 3.62774,0.09687c5.0092,1.69559 6.12262,7.42312 1.71228,10.66235c-0.22501,0.16526 -1.94405,0.54666 -3.5306,0.87413c-0.05841,2.20669 -0.11084,4.41393 -0.11084,6.62787v0.80142c0,0 0,2.5 -2.5,2.5c-2.5,0 -2.5,-2.5 -2.5,-2.5v-0.80142c0,-2.19334 0.05145,-4.37996 0.10919,-6.5659c-0.49348,-0.35731 -0.91062,-0.96137 -0.91062,-1.98256zM169.41708,179.61585c0.50543,-0.16793 0.69071,-0.87811 0.34494,-1.272c-0.21819,-0.24856 -0.61963,-0.35529 -1.06153,-0.38878c-0.00623,0.62163 -0.01574,1.24281 -0.02748,1.86368c0.25097,-0.05536 0.49932,-0.12158 0.74407,-0.20289z" fill="url(#color-5)"/><path d="M187.00591,189.3507c0.24095,0.35348 0.40249,0.82742 0.40249,1.4629c0,2.5 -2.5,2.5 -2.5,2.5l-3.02401,-2.72634c0.56177,-6.11808 0.68145,-12.22736 1.06316,-18.36222c0,0 0.15595,-2.49513 2.65107,-2.33918c2.49513,0.15595 2.33919,2.65107 2.33919,2.65107c-0.35288,5.62001 -0.49248,11.21099 -0.9319,16.81377z" fill="url(#color-6)"/><path d="M184.81264,162.22967c0,-1.38071 1.11929,-2.5 2.5,-2.5c1.38071,0 2.5,1.11929 2.5,2.5c0,1.38071 -1.11929,2.5 -2.5,2.5c-1.38071,0 -2.5,-1.11929 -2.5,-2.5z" fill="url(#color-7)"/><path d="M213.18223,193.02716c-2.48069,-0.31008 -2.17061,-2.79078 -2.17061,-2.79078l0.37613,-2.61759c0.25761,-0.77088 0.54545,-1.53232 0.77283,-2.31266c0.2707,-0.92902 0.58282,-1.85434 0.72045,-2.81216c0.10153,-0.70656 -0.08103,-1.4313 -0.00863,-2.14142c0.00645,-0.06327 0.02514,-0.12812 0.05136,-0.19371c-0.33923,-0.07889 -0.65195,-0.22684 -0.92255,-0.42824c-2.51725,0.41405 -4.80726,0.0339 -6.90855,1.91405c-0.22723,0.20332 -0.37448,0.46188 -0.47692,0.75127c-0.05681,0.24204 -0.11528,0.48395 -0.17532,0.72575c-0.13055,0.78256 -0.1599,1.63374 -0.58988,2.20513c-0.08212,0.28744 -0.16619,0.57489 -0.25206,0.86239l-0.78528,2.6176c-0.29104,1.05813 -1.2601,1.83543 -2.41071,1.83543c-1.38071,0 -2.5,-1.11929 -2.5,-2.5c0,-0.22871 0.03071,-0.45026 0.08824,-0.66073l0.78782,-3.15128l0.00669,0.00167c-0.00005,-0.00914 -0.00008,-0.01829 -0.0001,-0.02743c-0.00446,-1.70269 0.47093,-3.16559 1.27446,-4.39951c0.49424,-2.38459 0.79154,-4.7955 0.78142,-7.2568c0,0 0,-2.5 2.5,-2.5c2.5,0 2.5,2.5 2.5,2.5c-0.00366,1.03907 -0.05134,2.06808 -0.13808,3.08945c2.08662,-0.77086 4.3555,-1.1092 6.36456,-1.04649c1.46616,0.04576 3.27264,-0.4029 4.36238,0.57903c3.46216,3.11966 0.83792,10.51189 -0.29872,13.9298l-0.15815,1.65663c0,0 -0.31008,2.48069 -2.79078,2.1706z" fill="url(#color-8)"/><path d="M221.4243,192.1904c1.56174,-1.95217 3.51391,-0.39043 3.51391,-0.39043l1.09895,0.90073c1.10183,0.69267 2.06209,1.76516 3.33692,2.02716c1.30952,0.26913 2.00189,-2.39009 2.22805,-3.30946c-0.10578,-0.01098 -0.16748,-0.02332 -0.16748,-0.02332c-3.51157,-0.86307 -4.74443,-0.40448 -6.41576,-4.57864c-2.18324,-5.45266 3.12786,-11.57713 8.81039,-10.19143c1.53619,0.37461 2.83999,1.34198 3.79986,2.60885c0.2052,0.04097 0.42308,0.10988 0.65393,0.21248c2.28453,1.01534 1.26918,3.29988 1.26918,3.29988c-0.07856,0.17621 -0.15479,0.35978 -0.22905,0.55001c0.29349,2.03639 -0.16547,4.11916 -1.62018,5.60842c-1.36892,5.2271 -3.15782,10.88106 -8.57002,10.81741c-1.61141,-0.01896 -4.35177,-1.91449 -5.74582,-2.78135l-1.57244,-1.23639c0,0 -1.95217,-1.56174 -0.39043,-3.51391zM230.17391,186.03644c0.72644,-0.92851 2.01816,-0.92851 2.01816,-0.92851h0.53428c0.18725,0.03181 0.37391,0.08221 0.56061,0.13103c0.22056,-0.69593 0.45535,-1.38874 0.70962,-2.08079c-0.35486,-0.83292 -0.85417,-1.5975 -1.3046,-1.66424c-2.3169,-0.34331 -4.2733,3.14461 -2.51807,4.5425z" fill="url(#color-9)"/><path d="M285.48998,198.61229c-2.5,0 -2.5,-2.5 -2.5,-2.5l0.01027,-0.0408c-0.07482,-0.88433 -0.06728,-1.77954 -0.22444,-2.65301c-0.10895,-0.60551 -0.32367,-1.19158 -0.56883,-1.75585c-0.87335,-2.01012 -2.00838,-1.29578 -3.03238,0.19025c-0.00011,0.06272 -0.00018,0.12544 -0.0002,0.18817l0.25686,0.02335l-0.26484,2.91315c-0.10234,1.28675 -1.17898,2.29905 -2.49204,2.29905c-1.38071,0 -2.5,-1.11929 -2.5,-2.5v-2.6714c0,-6.30998 0.42848,-12.5405 2.24255,-18.6167c0,0 0.71837,-2.39457 3.11294,-1.6762c2.39457,0.71837 1.67619,3.11293 1.67619,3.11293c-1.03476,3.43088 -1.56431,6.92589 -1.81923,10.45627c6.58945,-1.29847 8.14288,5.5547 8.59288,10.23731l0.01027,0.49348c0,0 0,2.5 -2.5,2.5z" fill="url(#color-10)"/><path d="M307.72821,197.01592c1.76776,1.76776 0,3.53554 0,3.53554l-2.34603,1.75224c-2.20456,0.42169 -4.49459,0.44296 -6.72949,0.2352c-6.87308,-3.04848 -9.61777,-8.71046 -9.61777,-16.04362c0,-4.05325 -0.04625,-7.99711 4.73518,-9.61178c6.82612,-2.30516 18.81017,8.36993 11.26005,14.56958c-2.03364,1.66989 -7.17796,1.14314 -10.03645,1.03296c0.86093,2.23078 2.38824,4.08543 4.91753,5.21384c1.49441,0.13064 3.0227,0.01119 4.49037,-0.29908l-0.20891,-0.38487c0,0 1.76776,-1.76776 3.53553,0zM294.05431,187.47653c0.09569,-0.00844 0.15199,-0.00844 0.15199,-0.00844c1.49955,0 6.19234,0.6602 7.87591,-0.05354c0.82815,-0.35109 -0.15263,-2.07478 -0.19459,-2.14136c-1.08459,-1.72069 -4.57731,-3.98569 -6.71083,-3.59166c-1.80156,0.33273 -1.14189,3.81141 -1.14189,4.81374c0,0.32878 0.00624,0.65609 0.01941,0.98126z" fill="url(#color-11)"/><path d="M334.55422,185.35309c1.27355,-0.74234 4.08338,-2.00128 4.75114,-3.4012c0.72713,-1.52439 0.13606,-6.22072 -1.9381,-6.68799c-1.36015,-0.30642 -3.15198,-0.03693 -4.81861,0.24679c0.38102,3.14348 0.53217,6.29465 0.58362,9.4519zM327.32281,173.65421c-0.24876,-2.48759 2.23883,-2.73635 2.23883,-2.73635c2.60411,-0.26039 6.74224,-1.32911 9.25454,-0.43942c4.91268,1.73976 7.17743,8.9772 5.00752,13.6146c-1.46243,3.12542 -5.77931,4.91084 -8.60583,6.21581l-2.06836,-0.33197c-0.01184,2.13197 -0.03769,4.26631 -0.03769,6.40255v2.13711c0,0 0,2.5 -2.5,2.5c-2.5,0 -2.5,-2.5 -2.5,-2.5v-2.13711c0,-7.37642 0.35498,-14.75329 -0.77235,-22.05956c0,0 -0.03903,-0.25369 -0.01079,-0.611c-0.00208,-0.01808 -0.00404,-0.03629 -0.00588,-0.05466z" fill="url(#color-12)"/><path d="M358.49006,186.22814c0,2.5 -2.5,2.5 -2.5,2.5l-0.31113,-0.04855c-0.68763,0.13092 -3.3263,0.4667 -4.02562,1.14569c-0.99631,0.96735 -0.44128,2.75718 -0.9103,4.06556v2.75573c0,1.38071 -1.11929,2.5 -2.5,2.5c-1.38071,0 -2.5,-1.11929 -2.5,-2.5v-2.87157c-0.00041,-0.10093 -0.00144,-0.20156 -0.00306,-0.30191c-0.09474,-0.24935 -0.09955,-0.63112 -0.03965,-1.09155c-0.13043,-2.35292 -0.52678,-4.58813 -0.74844,-6.99562c0,0 -0.22634,-2.48973 2.2634,-2.71607c2.48973,-0.22634 2.71607,2.2634 2.71607,2.2634c0.00276,0.0308 0.00554,0.06157 0.00835,0.09231c1.47873,-0.70801 3.12514,-0.90984 4.75867,-1.24886l1.2917,-0.04855c0,0 2.5,0 2.5,2.5z" fill="url(#color-13)"/><path d="M360.53143,176.51538c2.5,0 2.5,2.5 2.5,2.5l-0.04855,0.8454c1.10478,5.64404 0.1796,11.0141 -0.22494,16.69677c0,0 -0.17812,2.49365 -2.67177,2.31553c-2.49365,-0.17812 -2.31553,-2.67177 -2.31553,-2.67177c0.37127,-5.18101 1.36364,-10.21978 0.30933,-15.35995l-0.04855,-1.82599c0,0 0,-2.5 2.5,-2.5z" fill="url(#color-14)"/><path d="M357.23001,171.00119c0,-1.38071 1.11929,-2.5 2.5,-2.5c1.38071,0 2.5,1.11929 2.5,2.5c0,1.38071 -1.11929,2.5 -2.5,2.5c-1.38071,0 -2.5,-1.11929 -2.5,-2.5z" fill="url(#color-15)"/><path d="M387.90944,194.08706c-0.02652,0.27567 -0.10424,0.57658 -0.24953,0.90347c-1.01535,2.28453 -3.29987,1.26918 -3.29987,1.26918c-1.7296,-0.77219 -4.68729,-1.91387 -6.67077,-3.44107c0.06662,0.37284 0.0767,0.76304 0.01876,1.1723c-0.64391,4.54833 -6.51297,4.83944 -9.7375,5.14537l-1.56204,0.01027c0,0 -2.5,0 -2.5,-2.5c0,-2.5 2.5,-2.5 2.5,-2.5l1.10936,0.01027c0.89671,-0.0773 1.80129,-0.0904 2.69013,-0.23191c0.63477,-0.10107 1.23357,-0.36873 1.86417,-0.4932c0.21846,-0.04312 0.71453,0.21118 0.668,-0.00658c-0.05085,-0.23799 -0.50149,-0.0501 -0.70772,-0.17929c-1.57311,-0.98547 -3.17876,-2.0003 -4.43761,-3.36454c-2.88646,-3.12813 -4.15845,-9.06727 0.20364,-12.21114c1.13635,-0.819 2.80105,-0.04923 4.20157,-0.07384c0,0 2.48759,0.24876 2.23883,2.73636c-0.24876,2.48759 -2.73635,2.23883 -2.73635,2.23883c-2.52474,-1.34533 -1.53664,2.75869 -0.4033,3.74338c1.11561,0.96928 3.02503,2.01945 4.51188,3.33219c-0.11543,-1.02021 0.07397,-2.11934 0.05152,-3.15182c-0.11937,-5.49117 3.68319,-9.85584 9.65125,-8.59909c4.36475,0.91913 5.68013,3.65826 6.71915,7.5774c0.40524,1.52854 1.52779,3.0935 1.09781,4.61526c-0.74858,2.6493 -3.03776,3.41896 -5.22139,3.99821zM383.14809,190.04585c0.27867,-0.10584 0.4806,-0.13949 0.4806,-0.13949l1.35604,-0.21307c0.80472,-0.19745 1.61531,-0.37234 2.41416,-0.59234c0.30921,-0.08515 0.92667,-0.00208 0.90662,-0.32218c-0.04325,-0.69035 -0.77476,-1.15697 -1.03931,-1.79608c-1.05947,-2.55948 -2.45633,-6.32703 -6.086,-3.44626c-1.06197,0.84285 -0.46942,1.78562 -0.51758,2.95884c-0.02877,0.70083 -0.51166,1.43143 -0.26394,2.08764c0.1705,0.45163 0.87576,0.40873 1.29602,0.64624c0.48347,0.27323 0.96718,0.54722 1.45338,0.81669z" fill="url(#color-16)"/><path d="M404.99118,194.24187c-2.40381,-0.6868 -1.717,-3.09061 -1.717,-3.09061l0.43809,-1.18318c0.0292,-2.54352 0.57563,-4.63641 -2.39756,-3.74784c-0.54809,0.1638 -1.20188,0.117 -1.64965,0.47299c-0.26277,0.20891 -0.22075,0.61882 -0.30267,0.95757v2.85157c0,1.38071 -1.11929,2.5 -2.5,2.5c-1.38071,0 -2.5,-1.11929 -2.5,-2.5v-2.70648c-0.52357,-2.05671 -0.95154,-4.13921 -1.30169,-6.23239c0,0 -0.411,-2.46598 2.05499,-2.87698c2.46598,-0.411 2.87698,2.05498 2.87698,2.05498c0.05543,0.3339 0.11312,0.66745 0.17294,1.00064c3.00654,-1.43154 7.14205,-1.20444 9.23267,1.36657c1.58542,1.94972 1.29434,4.61055 1.31398,6.85939l-0.63047,2.55678c0,0 -0.6868,2.40381 -3.09061,1.71701z" fill="url(#color-17)"/><path d="M273.30607,163.34778c0.49029,2.45145 -1.96116,2.94174 -1.96116,2.94174l-1.82599,0.31569c-2.04341,0 -4.08683,0 -6.13024,0c0.24176,4.37809 0.17171,8.74204 0.34582,13.13669c0.18623,4.70071 0.80452,9.28933 0.80452,14.01578v1.3357c0,0 0,2.5 -2.5,2.5c-2.5,0 -2.5,-2.5 -2.5,-2.5v-1.3357c0,-4.6449 -0.61183,-9.14561 -0.79831,-13.76671c-0.18069,-4.47748 -0.08696,-8.92422 -0.35576,-13.38576c-2.52193,0 -5.04385,0 -7.56578,0c0,0 -2.5,0 -2.5,-2.5c0,-2.5 2.5,-2.5 2.5,-2.5c3.26753,0 6.53506,0 9.80259,0c0.11498,-0.0058 0.22487,-0.00561 0.32988,0c2.85576,0 5.71152,0 8.56728,0l0.84541,-0.21859c0,0 2.45145,-0.49029 2.94174,1.96116z" fill="url(#color-18)"/><g><path d="M93.40033,196.66825c0,2.5 -2.5,2.5 -2.5,2.5h-0.53428c-4.95463,-0.00498 -9.76118,1.05403 -14.69266,1.06856c0,0 -0.61409,0 -1.23356,-0.30435c-1.17476,-0.2047 -2.06785,-1.22944 -2.06785,-2.46278c0,-0.22871 0.03071,-0.45026 0.08824,-0.66073l0.85823,-3.43293c1.07857,-9.64175 4.44012,-19.33711 4.39631,-29.03162c0,0 0,-0.08091 0.01456,-0.21362c-0.00956,-0.10204 -0.01456,-0.20884 -0.01456,-0.32066c0,-2.5 2.5,-2.5 2.5,-2.5c4.58042,0.00393 9.1308,-0.44257 13.69951,-0.79405l0.65396,-0.19986c0,0 2.42535,-0.60634 3.03169,1.81901c0.60634,2.42535 -1.81901,3.0317 -1.81901,3.0317l-1.48316,0.33442c-3.8814,0.29853 -7.74613,0.65321 -11.6287,0.76966c-0.18161,4.23061 -0.87793,8.45163 -1.6886,12.66646c3.38774,-0.02767 6.62911,-0.20304 10.00294,-1.22639l0.72922,-0.24428c0,0 2.37171,-0.79057 3.16228,1.58114c0.79057,2.37171 -1.58114,3.16228 -1.58114,3.16228l-0.87362,0.29c-4.1898,1.2449 -8.1853,1.41448 -12.43082,1.43752c-0.41156,2.06669 -0.8125,4.13221 -1.15547,6.19696c0.25544,0.77358 0.06633,1.53 0.06633,1.53l-0.67103,2.68411c-0.03185,0.27141 -0.06213,0.54282 -0.09074,0.81422c4.07254,-0.24144 8.10613,-0.99094 12.22766,-0.99474h0.53428c0,0 2.5,0 2.5,2.5z" fill="url(#color-19)"/><path d="M106.03153,193.99686c0,-2.5 2.5,-2.5 2.5,-2.5h0.80141c2.07317,0.03513 4.40726,-0.20446 6.13814,-1.55666c0.47598,-0.37185 0.70668,-1.1657 0.01232,-1.49947c-4.47861,-2.1528 -15.04136,-4.87063 -8.71964,-12.23999c1.00311,-1.16934 2.77031,-1.42096 4.27254,-1.76288c1.18296,-0.26925 2.42629,-0.02528 3.63943,-0.03792c0,0 2.5,0 2.5,2.5c0,2.5 -2.5,2.5 -2.5,2.5c-0.92397,-0.01264 -1.85058,-0.10872 -2.77192,-0.03791c-5.17623,0.39778 2.48734,3.53204 3.67593,4.02268c1.02425,0.42281 2.31677,0.42148 3.09683,1.20848c7.10294,7.16614 -3.5524,11.83296 -9.34364,11.90367h-0.80141c0,0 -2.5,0 -2.5,-2.5z" fill="url(#color-20)"/><path d="M140.41686,192.9283c0,2.5 -2.5,2.5 -2.5,2.5l-1.52744,-0.00736c-4.1302,-0.35151 -8.53325,-1.09719 -11.20882,-4.80267c-2.83364,-3.9244 -0.53927,-11.29628 3.41862,-13.71452c1.15287,-0.7044 2.60187,-0.72898 3.90279,-1.09347c0,0 2.42536,-0.60634 3.0317,1.81902c0.60634,2.42535 -1.81902,3.03169 -1.81902,3.03169c-0.83619,0.16979 -1.75154,0.11571 -2.50855,0.50937c-1.4915,0.7756 -3.1215,5.21475 -1.92416,6.58808c1.96197,2.25035 4.76018,2.49521 7.49093,2.67723l1.14396,-0.00736c0,0 2.5,0 2.5,2.5z" fill="url(#color-21)"/><path d="M163.65796,190.52405c0,2.5 -2.5,2.5 -2.5,2.5h-0.53428c-1.35219,-0.08798 -2.84148,0.33582 -4.05657,-0.26394c-0.88682,-0.43773 -1.60166,-1.08553 -2.17481,-1.86002c-0.67753,0.59027 -1.47358,1.13448 -2.38506,1.86447l-2.72669,0.75975c0,0 -1.87191,0.31198 -2.62571,-1.23861c-0.64174,-0.28343 -1.2565,-0.60177 -1.72986,-1.10305c-3.45786,-3.66189 -3.10998,-11.69388 2.08754,-13.44945c3.90446,-1.31882 7.31961,0.37551 8.92369,3.32317c1.31042,0.62966 1.31042,2.25491 1.31042,2.25491c-0.10435,2.66898 0.51615,5.12753 3.37706,4.71276h0.53428c0,0 2.5,0 2.5,2.5zM149.67386,188.27502c1.4796,-1.0943 2.4771,-1.97238 2.09296,-4.17761c-0.11158,-0.64057 -0.50234,-1.72271 -1.34888,-1.82924c-0.8826,-0.11106 -2.31855,-0.35234 -2.62461,0.4829c-0.30644,0.83629 0.01815,4.33753 0.74658,4.97725c0.31762,0.27894 0.7209,0.42066 1.13395,0.54669z" fill="url(#color-22)"/><path d="M163.73361,185.71554c0,-1.0917 0.47673,-1.70668 1.01383,-2.05311c0.03209,-1.45082 0.05473,-2.90298 0.05473,-4.35824c0,0 0,-1.07359 0.70353,-1.81369c0.56201,-1.48773 2.33074,-1.48772 2.33074,-1.48772c1.20925,0.0323 2.48193,-0.29098 3.62774,0.09687c5.0092,1.69559 6.12262,7.42312 1.71228,10.66235c-0.22501,0.16526 -1.94405,0.54666 -3.5306,0.87413c-0.05841,2.20669 -0.11084,4.41393 -0.11084,6.62787v0.80142c0,0 0,2.5 -2.5,2.5c-2.5,0 -2.5,-2.5 -2.5,-2.5v-0.80142c0,-2.19334 0.05145,-4.37996 0.10919,-6.5659c-0.49348,-0.35731 -0.91062,-0.96137 -0.91062,-1.98256zM170.51062,182.53196c0.50543,-0.16793 0.69071,-0.87811 0.34494,-1.272c-0.21819,-0.24856 -0.61963,-0.35529 -1.06153,-0.38878c-0.00623,0.62163 -0.01574,1.24281 -0.02748,1.86368c0.25097,-0.05536 0.49932,-0.12158 0.74407,-0.20289z" fill="url(#color-23)"/><path d="M188.09945,192.26681c0.24095,0.35348 0.40249,0.82742 0.40249,1.4629c0,2.5 -2.5,2.5 -2.5,2.5l-3.02401,-2.72634c0.56177,-6.11808 0.68145,-12.22736 1.06316,-18.36222c0,0 0.15595,-2.49513 2.65107,-2.33918c2.49513,0.15595 2.33919,2.65107 2.33919,2.65107c-0.35288,5.62001 -0.49248,11.21099 -0.9319,16.81377z" fill="url(#color-24)"/><path d="M185.90619,165.1458c0,-1.38071 1.11929,-2.5 2.5,-2.5c1.38071,0 2.5,1.11929 2.5,2.5c0,1.38071 -1.11929,2.5 -2.5,2.5c-1.38071,0 -2.5,-1.11929 -2.5,-2.5z" fill="url(#color-25)"/><path d="M214.27577,195.94327c-2.48069,-0.31008 -2.17061,-2.79078 -2.17061,-2.79078l0.37613,-2.61759c0.25761,-0.77088 0.54545,-1.53232 0.77283,-2.31266c0.2707,-0.92902 0.58282,-1.85434 0.72045,-2.81216c0.10153,-0.70656 -0.08103,-1.4313 -0.00863,-2.14142c0.00645,-0.06327 0.02514,-0.12812 0.05136,-0.19371c-0.33923,-0.07889 -0.65195,-0.22684 -0.92255,-0.42824c-2.51725,0.41405 -4.80726,0.0339 -6.90855,1.91405c-0.22723,0.20332 -0.37448,0.46188 -0.47692,0.75127c-0.05681,0.24204 -0.11528,0.48395 -0.17532,0.72575c-0.13055,0.78256 -0.1599,1.63374 -0.58988,2.20513c-0.08212,0.28744 -0.16619,0.57489 -0.25206,0.86239l-0.78528,2.6176c-0.29104,1.05813 -1.2601,1.83543 -2.41071,1.83543c-1.38071,0 -2.5,-1.11929 -2.5,-2.5c0,-0.22871 0.03071,-0.45026 0.08824,-0.66073l0.78782,-3.15128l0.00669,0.00167c-0.00005,-0.00914 -0.00008,-0.01829 -0.0001,-0.02743c-0.00446,-1.70269 0.47093,-3.16559 1.27446,-4.39951c0.49424,-2.38459 0.79154,-4.7955 0.78142,-7.2568c0,0 0,-2.5 2.5,-2.5c2.5,0 2.5,2.5 2.5,2.5c-0.00366,1.03907 -0.05134,2.06808 -0.13808,3.08945c2.08662,-0.77086 4.3555,-1.1092 6.36456,-1.04649c1.46616,0.04576 3.27264,-0.4029 4.36238,0.57903c3.46216,3.11966 0.83792,10.51189 -0.29872,13.9298l-0.15815,1.65663c0,0 -0.31008,2.48069 -2.79078,2.1706z" fill="url(#color-26)"/><path d="M222.51784,195.10651c1.56174,-1.95217 3.51391,-0.39043 3.51391,-0.39043l1.09895,0.90073c1.10183,0.69267 2.06209,1.76516 3.33692,2.02716c1.30952,0.26913 2.00189,-2.39009 2.22805,-3.30946c-0.10578,-0.01098 -0.16748,-0.02332 -0.16748,-0.02332c-3.51157,-0.86307 -4.74443,-0.40448 -6.41576,-4.57864c-2.18324,-5.45266 3.12786,-11.57713 8.81039,-10.19143c1.53619,0.37461 2.83999,1.34198 3.79986,2.60885c0.2052,0.04097 0.42308,0.10988 0.65393,0.21248c2.28453,1.01534 1.26918,3.29988 1.26918,3.29988c-0.07856,0.17621 -0.15479,0.35978 -0.22905,0.55001c0.29349,2.03639 -0.16547,4.11916 -1.62018,5.60842c-1.36892,5.2271 -3.15782,10.88106 -8.57002,10.81741c-1.61141,-0.01896 -4.35177,-1.91449 -5.74582,-2.78135l-1.57244,-1.23639c0,0 -1.95217,-1.56174 -0.39043,-3.51391zM231.26744,188.95255c0.72644,-0.92851 2.01816,-0.92851 2.01816,-0.92851h0.53428c0.18725,0.03181 0.37391,0.08221 0.56061,0.13103c0.22056,-0.69593 0.45535,-1.38874 0.70962,-2.08079c-0.35486,-0.83292 -0.85417,-1.5975 -1.3046,-1.66424c-2.3169,-0.34331 -4.2733,3.14461 -2.51807,4.5425z" fill="url(#color-27)"/><path d="M286.58352,201.5284c-2.5,0 -2.5,-2.5 -2.5,-2.5l0.01027,-0.0408c-0.07482,-0.88433 -0.06728,-1.77954 -0.22444,-2.65301c-0.10895,-0.60551 -0.32367,-1.19158 -0.56883,-1.75585c-0.87335,-2.01012 -2.00838,-1.29578 -3.03238,0.19025c-0.00011,0.06272 -0.00018,0.12544 -0.0002,0.18817l0.25686,0.02335l-0.26484,2.91315c-0.10234,1.28675 -1.17898,2.29905 -2.49204,2.29905c-1.38071,0 -2.5,-1.11929 -2.5,-2.5v-2.6714c0,-6.30998 0.42848,-12.5405 2.24255,-18.6167c0,0 0.71837,-2.39457 3.11294,-1.6762c2.39457,0.71837 1.67619,3.11293 1.67619,3.11293c-1.03476,3.43088 -1.56431,6.92589 -1.81923,10.45627c6.58945,-1.29847 8.14288,5.5547 8.59288,10.23731l0.01027,0.49348c0,0 0,2.5 -2.5,2.5z" fill="url(#color-28)"/><path d="M308.82174,199.93203c1.76776,1.76776 0,3.53554 0,3.53554l-2.34603,1.75224c-2.20456,0.42169 -4.49459,0.44296 -6.72949,0.2352c-6.87308,-3.04848 -9.61777,-8.71046 -9.61777,-16.04362c0,-4.05325 -0.04625,-7.99711 4.73518,-9.61178c6.82612,-2.30516 18.81017,8.36993 11.26005,14.56958c-2.03364,1.66989 -7.17796,1.14314 -10.03645,1.03296c0.86093,2.23078 2.38824,4.08543 4.91753,5.21384c1.49441,0.13064 3.0227,0.01119 4.49037,-0.29908l-0.20891,-0.38487c0,0 1.76776,-1.76776 3.53553,0zM295.14787,190.39264c0.09569,-0.00844 0.15199,-0.00844 0.15199,-0.00844c1.49955,0 6.19234,0.6602 7.87591,-0.05354c0.82815,-0.35109 -0.15263,-2.07478 -0.19459,-2.14136c-1.08459,-1.72069 -4.57731,-3.98569 -6.71083,-3.59166c-1.80156,0.33273 -1.14189,3.81141 -1.14189,4.81374c0,0.32878 0.00624,0.65609 0.01941,0.98126z" fill="url(#color-29)"/><path d="M335.64775,188.2692c1.27355,-0.74234 4.08338,-2.00128 4.75114,-3.4012c0.72713,-1.52439 0.13606,-6.22072 -1.9381,-6.68799c-1.36015,-0.30642 -3.15198,-0.03693 -4.81861,0.24679c0.38102,3.14348 0.53217,6.29465 0.58362,9.4519zM328.41634,176.57032c-0.24876,-2.48759 2.23883,-2.73635 2.23883,-2.73635c2.60411,-0.26039 6.74224,-1.32911 9.25454,-0.43942c4.91268,1.73976 7.17743,8.9772 5.00752,13.6146c-1.46243,3.12542 -5.77931,4.91084 -8.60583,6.21581l-2.06836,-0.33197c-0.01184,2.13197 -0.03769,4.26631 -0.03769,6.40255v2.13711c0,0 0,2.5 -2.5,2.5c-2.5,0 -2.5,-2.5 -2.5,-2.5v-2.13711c0,-7.37642 0.35498,-14.75329 -0.77235,-22.05956c0,0 -0.03903,-0.25369 -0.01079,-0.611c-0.00208,-0.01808 -0.00404,-0.03629 -0.00588,-0.05466z" fill="url(#color-30)"/><path d="M359.5836,189.14425c0,2.5 -2.5,2.5 -2.5,2.5l-0.31113,-0.04855c-0.68763,0.13092 -3.3263,0.4667 -4.02562,1.14569c-0.99631,0.96735 -0.44128,2.75718 -0.9103,4.06556v2.75573c0,1.38071 -1.11929,2.5 -2.5,2.5c-1.38071,0 -2.5,-1.11929 -2.5,-2.5v-2.87157c-0.00041,-0.10093 -0.00144,-0.20156 -0.00306,-0.30191c-0.09474,-0.24935 -0.09955,-0.63112 -0.03965,-1.09155c-0.13043,-2.35292 -0.52678,-4.58813 -0.74844,-6.99562c0,0 -0.22634,-2.48973 2.2634,-2.71607c2.48973,-0.22634 2.71607,2.2634 2.71607,2.2634c0.00276,0.0308 0.00554,0.06157 0.00835,0.09231c1.47873,-0.70801 3.12514,-0.90984 4.75867,-1.24886l1.2917,-0.04855c0,0 2.5,0 2.5,2.5z" fill="url(#color-31)"/><path d="M361.62497,179.43149c2.5,0 2.5,2.5 2.5,2.5l-0.04855,0.8454c1.10478,5.64404 0.1796,11.0141 -0.22494,16.69677c0,0 -0.17812,2.49365 -2.67177,2.31553c-2.49365,-0.17812 -2.31553,-2.67177 -2.31553,-2.67177c0.37127,-5.18101 1.36364,-10.21978 0.30933,-15.35995l-0.04855,-1.82599c0,0 0,-2.5 2.5,-2.5z" fill="url(#color-32)"/><path d="M358.32355,173.9173c0,-1.38071 1.11929,-2.5 2.5,-2.5c1.38071,0 2.5,1.11929 2.5,2.5c0,1.38071 -1.11929,2.5 -2.5,2.5c-1.38071,0 -2.5,-1.11929 -2.5,-2.5z" fill="url(#color-33)"/><path d="M389.00298,197.00317c-0.02652,0.27567 -0.10424,0.57658 -0.24953,0.90347c-1.01535,2.28453 -3.29987,1.26918 -3.29987,1.26918c-1.7296,-0.77219 -4.68729,-1.91387 -6.67077,-3.44107c0.06662,0.37284 0.0767,0.76304 0.01876,1.1723c-0.64391,4.54833 -6.51297,4.83944 -9.7375,5.14537l-1.56204,0.01027c0,0 -2.5,0 -2.5,-2.5c0,-2.5 2.5,-2.5 2.5,-2.5l1.10936,0.01027c0.89671,-0.0773 1.80129,-0.0904 2.69013,-0.23191c0.63477,-0.10107 1.23357,-0.36873 1.86417,-0.4932c0.21846,-0.04312 0.71453,0.21118 0.668,-0.00658c-0.05085,-0.23799 -0.50149,-0.0501 -0.70772,-0.17929c-1.57311,-0.98547 -3.17876,-2.0003 -4.43761,-3.36454c-2.88646,-3.12813 -4.15845,-9.06727 0.20364,-12.21114c1.13635,-0.819 2.80105,-0.04923 4.20157,-0.07384c0,0 2.48759,0.24876 2.23883,2.73636c-0.24876,2.48759 -2.73635,2.23883 -2.73635,2.23883c-2.52474,-1.34533 -1.53664,2.75869 -0.4033,3.74338c1.11561,0.96928 3.02503,2.01945 4.51188,3.33219c-0.11543,-1.02021 0.07397,-2.11934 0.05152,-3.15182c-0.11937,-5.49117 3.68319,-9.85584 9.65125,-8.59909c4.36475,0.91913 5.68013,3.65826 6.71915,7.5774c0.40524,1.52854 1.52779,3.0935 1.09781,4.61526c-0.74858,2.6493 -3.03776,3.41896 -5.22139,3.99821zM384.24163,192.96196c0.27867,-0.10584 0.4806,-0.13949 0.4806,-0.13949l1.35604,-0.21307c0.80472,-0.19745 1.61531,-0.37234 2.41416,-0.59234c0.30921,-0.08515 0.92667,-0.00208 0.90662,-0.32218c-0.04325,-0.69035 -0.77476,-1.15697 -1.03931,-1.79608c-1.05947,-2.55948 -2.45633,-6.32703 -6.086,-3.44626c-1.06197,0.84285 -0.46942,1.78562 -0.51758,2.95884c-0.02877,0.70083 -0.51166,1.43143 -0.26394,2.08764c0.1705,0.45163 0.87576,0.40873 1.29602,0.64624c0.48347,0.27323 0.96718,0.54722 1.45338,0.81669z" fill="url(#color-34)"/><path d="M406.08471,197.15798c-2.40381,-0.6868 -1.717,-3.09061 -1.717,-3.09061l0.43809,-1.18318c0.0292,-2.54352 0.57563,-4.63641 -2.39756,-3.74784c-0.54809,0.1638 -1.20188,0.117 -1.64965,0.47299c-0.26277,0.20891 -0.22075,0.61882 -0.30267,0.95757v2.85157c0,1.38071 -1.11929,2.5 -2.5,2.5c-1.38071,0 -2.5,-1.11929 -2.5,-2.5v-2.70648c-0.52357,-2.05671 -0.95154,-4.13921 -1.30169,-6.23239c0,0 -0.411,-2.46598 2.05499,-2.87698c2.46598,-0.411 2.87698,2.05498 2.87698,2.05498c0.05543,0.3339 0.11312,0.66745 0.17294,1.00064c3.00654,-1.43154 7.14205,-1.20444 9.23267,1.36657c1.58542,1.94972 1.29434,4.61055 1.31398,6.85939l-0.63047,2.55678c0,0 -0.6868,2.40381 -3.09061,1.71701z" fill="url(#color-35)"/><path d="M274.39959,166.26391c0.49029,2.45145 -1.96116,2.94174 -1.96116,2.94174l-1.82599,0.31569c-2.04341,0 -4.08683,0 -6.13024,0c0.24176,4.37809 0.17171,8.74204 0.34582,13.13669c0.18623,4.70071 0.80452,9.28933 0.80452,14.01578v1.3357c0,0 0,2.5 -2.5,2.5c-2.5,0 -2.5,-2.5 -2.5,-2.5v-1.3357c0,-4.6449 -0.61183,-9.14561 -0.79831,-13.76671c-0.18069,-4.47748 -0.08696,-8.92422 -0.35576,-13.38576c-2.52193,0 -5.04385,0 -7.56578,0c0,0 -2.5,0 -2.5,-2.5c0,-2.5 2.5,-2.5 2.5,-2.5c3.26753,0 6.53506,0 9.80259,0c0.11498,-0.0058 0.22487,-0.00561 0.32988,0c2.85576,0 5.71152,0 8.56728,0l0.84541,-0.21859c0,0 2.45145,-0.49029 2.94174,1.96116z" fill="url(#color-36)"/></g></g></g></svg>