<svg version="1.1" xmlns="http://www.w3.org/2000/svg" xmlns:xlink="http://www.w3.org/1999/xlink" width="100.79179" height="126.38134" viewBox="0,0,100.79179,126.38134"><g transform="translate(-189.6041,-116.80933)"><g data-paper-data="{&quot;isPaintingLayer&quot;:true}" fill-rule="nonzero" stroke-linecap="butt" stroke-linejoin="miter" stroke-miterlimit="10" stroke-dasharray="" stroke-dashoffset="0" style="mix-blend-mode: normal"><g fill="#7c7c7c" stroke="none"><path d="M241.4749,205.84472l-14.74816,-58.71156l11.74232,-2.94963l14.74816,58.71156z" stroke-width="0"/><path d="M238.48896,144.3998c0.68294,2.71874 -1.4314,5.5929 -4.7225,6.41961c-3.2911,0.82672 -6.5127,-0.70707 -7.19564,-3.42581c-0.68294,-2.71874 1.4314,-5.59289 4.7225,-6.41961c3.2911,-0.82672 6.5127,0.70707 7.19564,3.42581z" stroke-width="0"/><path d="M269.69667,211.61756c0.89404,3.55913 -1.68361,1.16595 -4.20476,2.10809c-3.50979,1.31159 -9.03985,2.73382 -14.86904,4.1981c-5.86333,1.47285 -12.08554,2.74634 -15.21427,3.07553c-2.21613,0.23317 -1.09779,3.25996 -1.98454,-0.27015c-2.13868,-8.51394 4.24748,-17.45555 14.26389,-19.97164c10.01641,-2.51609 19.87005,2.34613 22.00872,10.86008z" stroke-width="0"/><path d="M269.28555,212.45533c0.06898,0.2746 0.04068,0.49098 -0.03535,0.6601c-0.26887,1.40548 -0.0186,2.74459 -0.1945,4.16238c-0.19344,1.55912 -1.12364,2.68053 -1.09073,4.28473c0.03805,1.85532 0.80974,3.34957 0.52293,5.33551c1.22625,4.61742 -2.12813,5.98491 -4.87241,8.79199c-1.93349,1.97773 -1.92915,4.6398 -4.3532,6.41537c-3.85699,2.82517 -9.25086,-0.41902 -11.82824,-3.42087c-1.1993,-2.26777 -3.10591,-3.28812 -4.94341,-4.84817c-1.19615,-1.01555 -1.85015,-2.41728 -2.70201,-3.68193c-1.86444,-2.76789 -4.17854,-5.19719 -5.90669,-8.06597c-0.28339,0.02344 -0.87704,-0.01983 -1.0602,-0.74898c-0.17325,-0.6897 0.26717,-1.01214 0.53607,-1.14087c0.08187,-0.1358 0.21297,-0.26562 0.41531,-0.37383c0.41278,-0.22075 0.73567,-0.14494 0.96238,-0.00184c6.85607,-1.77598 13.72597,-3.99405 20.70497,-5.74715c3.76867,-0.94668 7.61079,-3.00605 11.56547,-2.05131l0.19752,-0.05473c0.04642,-0.28718 0.21716,-0.6279 0.73842,-0.75884c0.96987,-0.24363 1.2135,0.72624 1.2135,0.72624l0.03654,0.26128c0.03738,0.07438 0.06916,0.15953 0.09362,0.2569z" stroke-width="0.5"/><path d="M221.71135,123.6623l-0.15703,0.03945c-2.19098,2.39513 -3.17561,5.80958 -2.32559,9.19347c1.34552,5.35644 6.77853,8.60793 12.13497,7.26241c5.35644,-1.34552 8.60793,-6.77853 7.26241,-12.13497c-0.89607,-3.56719 -3.60497,-6.20082 -6.8968,-7.16484c-3.21118,0.38585 -6.55125,2.15319 -9.84206,2.4971c-0.06816,0.06768 -0.1353,0.13629 -0.2014,0.20581zM228.24897,144.87322c-1.37936,-0.28692 -2.25279,-0.19794 -3.55718,-0.961c0,0 -0.6134,-0.3671 -0.49257,-0.99916c-0.18901,-0.12006 -0.37765,-0.22505 -0.56651,-0.30382c-4.81034,-2.00615 -6.48904,-6.42082 -8.64682,-10.93378c-0.48615,-2.14616 -1.83142,-4.07059 -2.17397,-6.44147c-0.08578,-0.59372 -0.54456,-1.34293 -0.14853,-1.79352c0.98242,-1.11778 4.97772,-1.55238 6.43366,-1.91811c5.40115,-1.35675 10.8023,-2.7135 16.20345,-4.07026c0.29455,-0.07399 2.8547,-0.77491 3.17653,-0.62066c2.38487,1.14304 2.02889,5.10458 3.03372,7.05815c2.95274,5.74067 2.11667,11.61979 -1.1619,17.13785c-1.03005,2.44519 -1.71448,3.56023 -4.0279,4.84663c-2.387,1.64444 -5.32969,-0.43045 -8.07197,-1.00087z" stroke-width="0.5"/></g><g fill="#7c7c7c" stroke="none"><path d="M241.4749,205.84472l-14.74816,-58.71156l11.74232,-2.94963l14.74816,58.71156z" stroke-width="0"/><path d="M238.48896,144.3998c0.68294,2.71874 -1.4314,5.5929 -4.7225,6.41961c-3.2911,0.82672 -6.5127,-0.70707 -7.19564,-3.42581c-0.68294,-2.71874 1.4314,-5.59289 4.7225,-6.41961c3.2911,-0.82672 6.5127,0.70707 7.19564,3.42581z" stroke-width="0"/><path d="M269.69667,211.61756c0.89404,3.55913 -1.68361,1.16595 -4.20476,2.10809c-3.50979,1.31159 -9.03985,2.73382 -14.86904,4.1981c-5.86333,1.47285 -12.08554,2.74634 -15.21427,3.07553c-2.21613,0.23317 -1.09779,3.25996 -1.98454,-0.27015c-2.13868,-8.51394 4.24748,-17.45555 14.26389,-19.97164c10.01641,-2.51609 19.87005,2.34613 22.00872,10.86008z" stroke-width="0"/><path d="M269.28555,212.45533c0.06898,0.2746 0.04068,0.49098 -0.03535,0.6601c-0.26887,1.40548 -0.0186,2.74459 -0.1945,4.16238c-0.19344,1.55912 -1.12364,2.68053 -1.09073,4.28473c0.03805,1.85532 0.80974,3.34957 0.52293,5.33551c1.22625,4.61742 -2.12813,5.98491 -4.87241,8.79199c-1.93349,1.97773 -1.92915,4.6398 -4.3532,6.41537c-3.85699,2.82517 -9.25086,-0.41902 -11.82824,-3.42087c-1.1993,-2.26777 -3.10591,-3.28812 -4.94341,-4.84817c-1.19615,-1.01555 -1.85015,-2.41728 -2.70201,-3.68193c-1.86444,-2.76789 -4.17854,-5.19719 -5.90669,-8.06597c-0.28339,0.02344 -0.87704,-0.01983 -1.0602,-0.74898c-0.17325,-0.6897 0.26717,-1.01214 0.53607,-1.14087c0.08187,-0.1358 0.21297,-0.26562 0.41531,-0.37383c0.41278,-0.22075 0.73567,-0.14494 0.96238,-0.00184c6.85607,-1.77598 13.72597,-3.99405 20.70497,-5.74715c3.76867,-0.94668 7.61079,-3.00605 11.56547,-2.05131l0.19752,-0.05473c0.04642,-0.28718 0.21716,-0.6279 0.73842,-0.75884c0.96987,-0.24363 1.2135,0.72624 1.2135,0.72624l0.03654,0.26128c0.03738,0.07438 0.06916,0.15953 0.09362,0.2569z" stroke-width="0.5"/><path d="M221.71135,123.6623l-0.15703,0.03945c-2.19098,2.39513 -3.17561,5.80958 -2.32559,9.19347c1.34552,5.35644 6.77853,8.60793 12.13497,7.26241c5.35644,-1.34552 8.60793,-6.77853 7.26241,-12.13497c-0.89607,-3.56719 -3.60497,-6.20082 -6.8968,-7.16484c-3.21118,0.38585 -6.55125,2.15319 -9.84206,2.4971c-0.06816,0.06768 -0.1353,0.13629 -0.2014,0.20581zM228.24897,144.87322c-1.37936,-0.28692 -2.25279,-0.19794 -3.55718,-0.961c0,0 -0.6134,-0.3671 -0.49257,-0.99916c-0.18901,-0.12006 -0.37765,-0.22505 -0.56651,-0.30382c-4.81034,-2.00615 -6.48904,-6.42082 -8.64682,-10.93378c-0.48615,-2.14616 -1.83142,-4.07059 -2.17397,-6.44147c-0.08578,-0.59372 -0.54456,-1.34293 -0.14853,-1.79352c0.98242,-1.11778 4.97772,-1.55238 6.43366,-1.91811c5.40115,-1.35675 10.8023,-2.7135 16.20345,-4.07026c0.29455,-0.07399 2.8547,-0.77491 3.17653,-0.62066c2.38487,1.14304 2.02889,5.10458 3.03372,7.05815c2.95274,5.74067 2.11667,11.61979 -1.1619,17.13785c-1.03005,2.44519 -1.71448,3.56023 -4.0279,4.84663c-2.387,1.64444 -5.32969,-0.43045 -8.07197,-1.00087z" stroke-width="0.5"/></g><path d="M192.1041,192.12036v-30.40099h95.79179v30.40099z" fill="#7c7c7c" stroke="#000000" stroke-width="5"/><text transform="translate(200.70815,185.8898) scale(0.68458,0.68458)" font-size="40" xml:space="preserve" fill="#000000" fill-rule="nonzero" stroke="none" stroke-width="1" stroke-linecap="butt" stroke-linejoin="miter" stroke-miterlimit="10" stroke-dasharray="" stroke-dashoffset="0" font-family="&quot;ヒラギノ角ゴ Pro W3&quot;, &quot;Hiragino Kaku Gothic Pro&quot;, Osaka, &quot;メイリオ&quot;, Meiryo, &quot;ＭＳ Ｐゴシック&quot;, &quot;MS PGothic&quot;" font-weight="normal" text-anchor="start" style="mix-blend-mode: normal"><tspan x="0" dy="0">Shovel</tspan></text></g></g></svg>