<svg version="1.1" xmlns="http://www.w3.org/2000/svg" xmlns:xlink="http://www.w3.org/1999/xlink" width="875.37538" height="731.23123" viewBox="0,0,875.37538,731.23123"><g transform="translate(176.45571,154.73686)"><g data-paper-data="{&quot;isPaintingLayer&quot;:true}" fill-rule="nonzero" stroke-linejoin="miter" stroke-miterlimit="10" stroke-dasharray="" stroke-dashoffset="0" style="mix-blend-mode: normal"><path d="M-27.75,548.25v-584h584v584z" fill="#00fff9" stroke="#000000" stroke-width="2" stroke-linecap="butt"/><path d="M-41.5,34l713,222" fill="none" stroke="#000000" stroke-width="2" stroke-linecap="round"/><path d="M281.99718,121.71898c0.27386,6.34537 -8.00281,11.8561 -18.48646,12.30856c-10.48365,0.45246 -19.20434,-4.32467 -19.4782,-10.67004c-0.27386,-6.34537 9.26059,-5.9048 19.74424,-6.35726c10.48365,-0.45246 17.94655,-1.62663 18.22041,4.71874z" fill="none" stroke="#000000" stroke-width="2" stroke-linecap="butt"/><g stroke="#00ff08" stroke-width="2"><g><path d="M171.76221,323.61139c-1.45134,-8.99639 4.66512,-17.46593 13.66149,-18.91728c8.99639,-1.45134 17.46593,4.66512 18.91728,13.66149c1.45134,8.99639 -4.66512,17.46593 -13.66149,18.91728c-8.99639,1.45134 -17.46593,-4.66512 -18.91728,-13.66149z" fill="#000000" stroke-linecap="butt"/><path d="M199.41027,323.37161l-0.23381,-7.72808" fill="none" stroke-linecap="round"/><path d="M194.68609,315.01737l0.01091,8.43932" fill="none" stroke-linecap="round"/><path d="M196.55438,314.04068l-5.13799,-2.54754" fill="none" stroke-linecap="round"/><path d="M197.4678,328.07434c0,0 -2.71545,-1.15415 -3.49421,-1.87223c-0.65356,-0.60262 -1.90924,-2.3207 -1.90924,-2.3207" fill="none" stroke-linecap="round"/></g><path d="M179.78962,330.03886c3.42568,5.1835 -3.4153,15.74193 -15.27974,23.58292c-11.86445,7.84099 -24.25955,9.99531 -27.68522,4.81183c-3.42568,-5.1835 3.4153,-15.74193 15.27974,-23.58292c11.86445,-7.84099 24.25955,-9.99531 27.68522,-4.81183z" fill="#000000" stroke-linecap="butt"/><path d="M125.27707,346.271c0.45516,-5.50406 5.28606,-9.597 10.79013,-9.14184c5.50406,0.45516 9.597,5.28606 9.14184,10.79013c-0.45516,5.50406 -5.28606,9.597 -10.79013,9.14184c-5.50406,-0.45516 -9.597,-5.28606 -9.14184,-10.79013z" fill="#000000" stroke-linecap="butt"/></g><path d="M234.21491,258.84577c0,0 4.81402,-21.26304 8.60262,-37.99693c4.8663,-21.49397 13.00276,-56.80795 21.0348,-92.28462" fill="none" stroke="#000000" stroke-width="2" stroke-linecap="round"/><path d="M235.32542,253.65416l-12.70319,61.2714" fill="none" stroke="#000000" stroke-width="2" stroke-linecap="round"/><path d="M225.34982,319.67342l-7.83074,-1.63696l7.36629,-35.2383l7.83074,1.63696z" fill="#797979" stroke="#000000" stroke-width="2" stroke-linecap="butt"/><path d="M264.92934,302.29829c-0.7695,11.7108 -6.14004,20.89237 -11.99544,20.50762c-5.8554,-0.38475 -9.97834,-10.19012 -9.20884,-21.90092c0.7695,-11.7108 6.14004,-20.89237 11.99544,-20.50762c5.8554,0.38475 9.97834,10.19012 9.20884,21.90092z" fill="#ff0000" stroke="#000000" stroke-width="2" stroke-linecap="butt"/><path d="M233.6625,237.34959c-0.1786,-4.13829 3.03134,-7.63781 7.16963,-7.81642c4.13829,-0.1786 7.63781,3.03134 7.81642,7.16963c0.1786,4.13829 -3.03134,7.63781 -7.16963,7.81642c-4.13829,0.1786 -7.63781,-3.03134 -7.81642,-7.16963z" fill="#ff0000" stroke="#000000" stroke-width="2" stroke-linecap="butt"/><path d="M236.30215,234.73334c-0.19051,-4.41417 3.23344,-8.147 7.64761,-8.33751c4.41417,-0.19051 8.147,3.23344 8.33751,7.64761c0.19051,4.41417 -3.23344,8.147 -7.64761,8.33751c-4.41417,0.19051 -8.147,-3.23344 -8.33751,-7.64761z" fill="#ff0000" stroke="#000000" stroke-width="2" stroke-linecap="butt"/><path d="M247.533,331.44738c2.6283,1.0505 3.22194,5.74767 1.32593,10.49142c-1.89601,4.74377 -5.56369,7.73775 -8.19199,6.68726c-2.6283,-1.0505 -3.22194,-5.74767 -1.32593,-10.49142c1.89601,-4.74377 5.56369,-7.73775 8.19199,-6.68726z" fill="#ff0000" stroke="#000000" stroke-width="2" stroke-linecap="butt"/><path d="M263.40753,340.95505c0.24112,5.58668 -1.96765,10.21935 -4.93342,10.34735c-2.96577,0.128 -5.56546,-4.29714 -5.80658,-9.88382c-0.24112,-5.58668 1.96765,-10.21935 4.93342,-10.34735c2.96577,-0.128 5.56546,4.29714 5.80658,9.88382z" fill="#ff0000" stroke="#000000" stroke-width="2" stroke-linecap="butt"/><path d="M213.73781,315.86508c-0.22028,-5.10388 3.73867,-9.41997 8.84255,-9.64025c5.10388,-0.22028 9.41997,3.73867 9.64025,8.84255c0.22028,5.10388 -3.73867,9.41997 -8.84255,9.64025c-5.10388,0.22028 -9.41997,-3.73867 -9.64025,-8.84255z" fill="#000000" stroke="#3eff00" stroke-width="2" stroke-linecap="butt"/><g><path d="M239.98687,266.28815c-2.16122,-7.99739 2.56993,-16.23257 10.56733,-18.39379c7.99739,-2.16122 16.23257,2.56993 18.39379,10.56733c2.16122,7.99739 -2.56993,16.23257 -10.56733,18.39379c-7.99739,2.16122 -16.23257,-2.56993 -18.39379,-10.56733z" fill="#c19f67" stroke="#000000" stroke-width="2" stroke-linecap="butt"/><path d="M260.71464,261.3333c-0.00807,0.06693 -0.02287,0.13244 -0.04388,0.19561c-0.20775,0.86146 -0.57791,1.56602 -1.18875,1.82081c-0.58543,0.2442 -1.05958,-0.69787 -1.59782,-1.0335c-1.52332,-0.94987 -2.40532,-2.1649 -3.22395,-3.75436c-1.45459,0.47459 -2.88137,1.10384 -4.39234,1.28973c-2.75985,0.33954 -5.56605,-0.02295 -8.34038,0.16454c0,0 -2.49446,0.16623 -2.66069,-2.32824c-0.06073,-0.91133 0.23368,-1.51189 0.63182,-1.90713c-0.01264,-1.24993 1.11965,-2.04589 1.11965,-2.04589c2.67876,-1.88261 5.70041,-4.30697 9.02249,-5.43471c2.32693,-1.35128 6.05388,-1.25822 7.97116,-0.81852c1.48341,0.3402 2.4341,0.8544 3.19167,1.54633l0.01589,-0.02383l2.20108,1.46747c0.49142,0.32394 0.87107,0.82172 1.0367,1.4346c0.00317,0.01175 0.00627,0.0235 0.00926,0.03526c0.70284,-0.07313 2.2015,-0.00001 2.69436,1.8238c0.65221,2.41342 -1.76122,3.06563 -1.76122,3.06563l-1.93074,0.52177c-0.87343,0.22716 -1.76665,0.34708 -2.6675,0.42429c0.12546,0.96339 0.15825,2.37966 -0.08679,3.55635z" fill="#000000" stroke="none" stroke-width="0.5" stroke-linecap="butt"/><path d="M246.85853,267.2798l-0.82173,-4.95729" fill="none" stroke="#ffffff" stroke-width="2" stroke-linecap="round"/><path d="M251.56154,262.64228l0.93263,4.40938" fill="none" stroke="#ffffff" stroke-width="2" stroke-linecap="round"/><path d="M255.03804,266.88214l-1.4742,2.21116" fill="none" stroke="#ffffff" stroke-width="1" stroke-linecap="round"/><path d="M244.02764,268.30379l2.27638,1.71554" fill="none" stroke="#ffffff" stroke-width="1" stroke-linecap="round"/><path d="M253.87688,271.20993c0.27015,0.99967 -1.70957,1.36838 -2.90918,1.69256c-1.1996,0.32418 -2.39108,-0.22341 -2.66124,-1.22308c-0.27015,-0.99967 0.48333,-2.07287 1.68293,-2.39705c1.1996,-0.32418 3.61734,0.9279 3.88749,1.92757z" fill="#000000" stroke="none" stroke-width="0" stroke-linecap="butt"/></g><path d="M253.39808,271.125c0,0.89746 -1.00736,1.625 -2.25,1.625c-1.24264,0 -2.25,-0.72754 -2.25,-1.625c0,-0.89746 1.00736,-1.625 2.25,-1.625c1.24264,0 2.25,0.72754 2.25,1.625z" fill="#000000" stroke="none" stroke-width="NaN" stroke-linecap="butt"/><path d="M-176.45571,576.49437v-731.23123h875.37538v731.23123z" fill="#000000" stroke="none" stroke-width="0" stroke-linecap="butt"/><path d="M65.5523,49.73361c-1.76777,1.76777 -3.53553,0 -3.53553,0l-3.26334,-3.30899c-1.24239,-2.44428 -1.78597,-5.21042 -3.08334,-7.62598c-1.0984,-2.04511 -3.49372,-3.05942 -5.29683,-4.52152c-0.80855,-0.65563 -1.45991,-1.65808 -2.46957,-1.91145c-0.40868,-0.10256 -0.05408,0.84399 -0.14222,1.25602c-0.32518,1.52003 -0.66638,3.03878 -1.09614,4.53262c-1.2455,4.32932 -2.89269,7.74428 -3.0936,12.26975c-3.27289,3.00756 -5.79937,8.13385 -10.44233,1.85912c-1.05806,-1.42991 -0.30908,-3.54569 -0.37337,-5.32334c-0.09864,-2.72734 0.79187,-7.63973 0.06688,-10.43162c-0.24807,-0.95529 -1.01275,-1.7038 -1.37808,-2.62068c-0.94297,-2.36662 -0.75316,-4.84787 -3.27511,-6.20968c-0.59173,-0.31952 -1.35504,0.04285 -2.01578,-0.08226c-1.59345,-0.30171 -3.14489,-0.79381 -4.71688,-1.19251c-0.46138,-0.11702 -0.9788,-0.60566 -1.38322,-0.35464c-1.10232,0.68421 -0.32834,2.58203 -0.31583,3.87938c0.0531,5.50434 0,11.01187 0,16.51652c0,0 0,2.5 -2.5,2.5c-2.5,0 -2.5,-2.5 -2.5,-2.5c0,-5.50488 -0.04555,-11.01187 0,-16.51652c0.02446,-2.95628 -0.41743,-6.02811 2.68717,-8.13263c2.29285,-1.55426 7.59293,0.45787 9.60733,0.8782c1.08816,0.22706 2.34635,-0.07941 3.29781,0.49539c4.91737,2.97072 7.37084,10.36945 7.42571,15.76805c0.02711,2.66753 0.12929,5.33847 0,8.003c-0.113,2.32878 -0.87924,4.38205 1.19631,1.5508c-0.27292,-4.22583 1.74264,-7.75432 2.9124,-11.75427c0.49934,-1.70748 0.51253,-3.58835 1.32921,-5.1688c0.81386,-1.57499 1.68546,-3.79287 3.43843,-4.05757c2.29488,-0.34653 4.45267,1.42142 6.4747,2.56068c0.32886,0.18529 6.15373,4.94133 6.77992,6.02136c1.32854,2.2914 1.76034,5.00901 2.92267,7.38904l2.74266,2.69701c0,0 1.76777,1.76777 0,3.53553z" fill="#ffffff" stroke="none" stroke-width="0.5" stroke-linecap="butt"/><path d="M115.83408,56.97485c0,2.5 -2.5,2.5 -2.5,2.5l-1.68868,-0.37337c-0.40196,0.92966 -0.43242,2.13505 -1.20587,2.78897c-0.60162,0.50864 -8.022,2.59789 -8.22731,2.6794c-2.70092,1.07235 -5.00259,3.14812 -7.82329,3.84713c-0.31519,0.07811 -5.96265,0.07316 -6.58039,0.06688c-2.70357,-0.02748 -6.90257,0.45526 -8.33283,-3.08723c-0.69142,-1.71251 1.12566,-3.53803 1.36835,-5.36884c0.22298,-1.68213 -0.34509,-3.43299 0.01812,-5.0905c0.37443,-1.70869 1.47971,-3.17144 2.14668,-4.78853c2.26742,-5.49739 4.41485,-10.96855 6.62753,-16.48704c0.81051,-2.02142 2.28158,-6.39944 3.96644,-8.22019l2.5489,-4.24817c0.43183,-0.74893 1.24069,-1.25305 2.16731,-1.25305c1.38071,0 2.5,1.11929 2.5,2.5c0,0.41989 -0.10352,0.81561 -0.28642,1.16302l-1.27932,2.55864c0.08871,5.52355 -1.16769,13.4147 -5.17249,17.56562c-0.77706,0.80541 -2.19366,0.72854 -3.003,1.5015c-0.61954,0.59169 -0.6888,1.56885 -1.0332,2.35327c0,0 -0.32736,0.65472 -0.98208,1.07847c-0.47705,1.13636 -0.95832,2.2736 -1.44018,3.41556c-0.56472,1.3383 -1.57771,2.51149 -1.87646,3.933c-0.33658,1.60153 0.36037,3.30918 0.01812,4.9095c-0.21701,1.01469 -1.48481,1.62242 -1.63465,2.64918c-0.0602,0.41252 0.83378,-0.00781 1.25056,-0.01735c0.80963,-0.01853 1.61883,-0.05691 2.42862,-0.06688c1.81054,-0.02229 3.67633,0.51129 5.43162,0.06688c2.58422,-0.65429 4.64937,-2.64431 7.12699,-3.62801c1.61534,-0.64134 3.31281,-1.05624 4.99027,-1.51095c0.60939,-0.16518 1.40984,0.09397 1.86217,-0.34652c0.87999,-0.85697 1.19809,-2.14469 1.79714,-3.21704l4.31733,-0.37337c0,0 2.5,0 2.5,2.5z" fill="#ffffff" stroke="none" stroke-width="0.5" stroke-linecap="butt"/><path d="M176.39715,62.47785c-2.5,0 -2.5,-2.5 -2.5,-2.5l0.12829,-0.71093c-0.52912,-1.61213 -1.27834,-3.16802 -1.58735,-4.83638c-0.27495,-1.48442 0.33402,-3.09559 -0.14687,-4.52662c-0.53694,-1.5978 -2.28211,-2.60977 -2.7913,-4.21663c-0.48626,-1.53449 0.19312,-3.2413 -0.07499,-4.82851c-0.26361,-1.56061 -1.1911,-2.95252 -1.5015,-4.5045c-0.19631,-0.98156 0.18995,-2.02019 0,-3.003c-0.78396,-4.05625 -2.47801,-6.36223 -5.30605,-9.1432c0,0 -1.76777,-1.76777 0,-3.53553c1.76777,-1.76777 3.53553,0 3.53553,0c3.57257,3.62255 5.64569,6.72587 6.70596,11.87782c0.20178,0.98045 -0.19631,2.02144 0,3.003c0.3104,1.55199 1.24498,2.94271 1.5015,4.5045c0.22589,1.3753 -0.50407,2.85447 -0.07499,4.1805c0.50729,1.56772 2.23825,2.53949 2.7557,4.10388c0.54227,1.63941 -0.00186,3.47292 0.31213,5.1709c0.26707,1.44426 0.94377,2.78175 1.41565,4.17263l0.12829,2.29207c0,0 0,2.5 -2.5,2.5z" fill="#ffffff" stroke="none" stroke-width="0.5" stroke-linecap="butt"/><path d="M180.16709,67.10189c-1.11803,-2.23607 1.11803,-3.3541 1.11803,-3.3541l3.54665,-1.69856c7.53042,0 12.15167,-6.68614 17.11685,-11.59699c3.29061,-1.72859 4.30689,-2.1078 7.39809,-4.41976c0.81389,-0.60872 1.92176,-1.07459 2.27828,-2.02636c0.41543,-1.10905 -0.16585,-2.36375 -0.1903,-3.5478c-0.02756,-1.33452 0.49906,-3.13618 -0.76927,-4.23824c-0.88674,-0.77049 -2.4173,-0.6928 -3.12387,-1.63126c-1.61285,-2.14216 -1.61031,-5.67418 -3.9302,-7.01888c-3.84143,-2.22666 -9.43596,-1.12707 -13.70069,-1.12813c-0.15646,-0.00004 -5.22287,-0.03922 -5.54434,0.09604c-1.38687,0.58351 -2.39387,1.84251 -3.71135,2.56924c-0.65063,0.35889 -1.68518,0.05925 -2.13119,0.65355c-0.34604,0.46108 0.24892,1.12578 0.37337,1.68868c0,0 0,2.5 -2.5,2.5c-2.5,0 -2.5,-2.5 -2.5,-2.5c0.12446,-1.43911 -0.40287,-3.09915 0.37337,-4.31733c0.81172,-1.27385 2.5956,-1.54621 3.87481,-2.34945c1.54906,-0.97268 2.90208,-2.32079 4.60915,-2.97776c1.17012,-0.45032 5.67344,-0.36261 7.15618,-0.36297c5.33402,-0.00128 11.53166,-1.06488 16.32934,1.87487c1.53355,0.93968 2.85101,2.29711 3.8153,3.8153c0.78056,1.22892 0.39252,3.01425 1.26351,4.18083c0.63654,0.85256 2.16743,0.58355 2.88214,1.37174c2.43701,2.68758 3.41018,9.94167 2.04343,13.23499c-0.69671,1.67879 -2.34286,2.80242 -3.72773,3.97965c-2.56533,2.1807 -4.76402,3.14026 -7.61693,4.58925c-5.36666,5.43595 -10.65023,12.42703 -18.91919,12.42703l-2.45935,1.30445c0,0 -2.23607,1.11803 -3.3541,-1.11803z" fill="#ffffff" stroke="none" stroke-width="0.5" stroke-linecap="butt"/><path d="M236.45721,31.95233c2.5,0 2.5,2.5 2.5,2.5v3.003c-0.12446,1.43911 0.35158,3.06794 -0.37337,4.31733c-0.56168,0.968 -2.45582,0.52524 -3.003,1.5015c-0.52347,0.93395 0.30894,2.12147 0.37337,3.19018c0.26948,4.46983 0,9.03195 0,13.51351c0,0 0,2.5 -2.5,2.5c-2.5,0 -2.5,-2.5 -2.5,-2.5c0,-4.49315 -0.18992,-9.02617 0,-13.51351c0.08219,-1.94186 -0.44066,-4.05392 0.37337,-5.81883c0.46873,-1.01626 2.29116,-0.63792 3.003,-1.5015c0.36668,-0.44484 -0.24892,-1.12578 -0.37337,-1.68868v-3.003c0,0 0,-2.5 2.5,-2.5z" fill="#ffffff" stroke="none" stroke-width="0.5" stroke-linecap="butt"/><path d="M230.9542,10.4283c0,-1.38071 1.11929,-2.5 2.5,-2.5c1.38071,0 2.5,1.11929 2.5,2.5c0,1.38071 -1.11929,2.5 -2.5,2.5c-1.38071,0 -2.5,-1.11929 -2.5,-2.5z" fill="#ffffff" stroke="none" stroke-width="0.5" stroke-linecap="butt"/><path d="M318.53679,53.97185c0,2.5 -2.5,2.5 -2.5,2.5l-1.32078,-0.00654c-6.23362,0.42219 -11.73,3.29475 -17.79829,4.47876c-3.39702,0.66281 -7.44231,0.03228 -10.91097,0.03228c-1.29719,0 -6.79524,0.10521 -7.46778,-0.47189c-1.42928,-1.22647 -1.17476,-3.61709 -2.16635,-5.21828c-0.59194,-0.95584 -1.44255,-1.71899 -2.3401,-2.44418c-2.59376,0.54556 -5.34995,0.6124 -7.54529,0.62685c0,0 -2.5,0 -2.5,-2.5c0,-2.5 2.5,-2.5 2.5,-2.5c1.15454,0.00908 2.32121,-0.05375 3.47647,-0.20215c-0.22114,-1.04473 0.0516,-2.21704 0.02953,-3.30385c-0.04998,-2.46133 -0.27901,-7.15781 1.10574,-9.44459c0.82208,-1.3576 2.96382,-1.64928 3.61785,-3.09535c0.63031,-1.39362 -0.51685,-3.10307 -0.14357,-4.58635c1.15048,-4.57162 5.3558,-9.46638 7.34277,-13.79246c2.79316,-2.83521 5.62338,-5.52305 8.09974,-8.62328c1.27395,-1.5949 2.05372,-3.82823 3.88197,-4.73607c1.62307,-0.80595 3.86715,-0.79864 5.43536,0.10944c1.5159,0.87779 2.12614,2.87469 2.6203,4.55525c1.12201,3.81577 0.06688,9.59137 0.06688,13.5924c0,5.13937 0.12356,10.29868 -0.08448,15.43444c-0.07677,1.8952 0.30107,3.87327 -0.26313,5.68416c-0.53127,1.70519 -2.11132,2.90158 -2.9096,4.49929c-0.80089,1.60295 -0.77215,3.61921 -1.85865,5.04413c-0.79166,1.03824 -2.3908,1.10101 -3.42986,1.8916c-1.59884,1.21651 -2.98699,3.51962 -5.01651,4.47615c0.18398,0.00301 0.3679,0.00475 0.55173,0.00475c2.36904,0 4.78668,0.51002 7.10705,0.03228c6.22297,-1.28124 11.81999,-4.03881 18.23775,-4.53024l1.68223,-0.00654c0,0 2.5,0 2.5,2.5zM283.93087,50.03722c0.60321,0.22179 1.24151,0.96585 1.80962,0.66536c0.42311,-0.2238 -0.66604,-0.76118 -0.73223,-1.23524c-0.18479,-1.3235 0,-2.67267 0,-4.00901c0,-1.09665 0,-2.19331 0,-3.28996c-0.78901,0.86214 -1.54412,1.75028 -2.19652,2.71763c-1.02043,1.51303 -1.3071,3.5064 -2.54472,4.84761c-0.3824,0.4144 -0.80881,0.78268 -1.2705,1.10997c0.399,0.3284 0.77321,0.6761 1.09773,1.06218c0.10712,-0.07314 0.22022,-0.13817 0.33841,-0.1942l2.95456,-1.47728l0.10492,0.20984zM274.8308,47.06035c0.68654,-0.20716 1.46059,-0.32209 1.90068,-0.86227c0.95321,-1.17 1.09044,-2.84088 1.92741,-4.09666c0.27898,-0.41858 4.10441,-4.72198 5.21978,-5.9801l1.36929,-2.73858c0.40086,-0.84561 1.26228,-1.43041 2.26029,-1.43041c1.38071,0 2.5,1.11929 2.5,2.5v3.003l-0.44774,0c0.63732,3.35648 0.77293,6.70112 0.5685,10.29855c0.14404,-0.10856 0.28491,-0.21356 0.42197,-0.31464c0.75268,-0.55507 2.02329,-0.35708 2.57614,-1.1114c0.81316,-1.10949 0.54336,-2.72754 1.14435,-3.96488c0.67617,-1.39215 2.15523,-2.35057 2.6374,-3.82121c0.74042,-2.25833 0.08651,-4.75247 0.11166,-7.12894c0.05812,-5.49167 -0.00027,-10.98808 -0.00027,-16.47999c0,-1.67326 0.94629,-8.10964 -0.31583,-9.88538c-0.83303,-1.17204 -1.87168,2.19009 -2.68868,3.37337c-2.20888,3.1992 -5.22865,5.75701 -7.98634,8.46581c-1.31978,2.98232 -2.94545,5.82581 -4.61962,8.6246c-0.69542,1.16258 -1.67405,2.22699 -1.98757,3.5449c-0.41777,1.75618 0.5912,3.76477 -0.14357,5.41365c-0.71101,1.59556 -2.86172,2.11402 -3.85212,3.55292c-0.69508,1.00984 -0.42305,6.57565 -0.4333,6.94017c-0.01927,0.68477 -0.51382,1.44246 -0.1903,2.04629c0.00919,0.01715 0.01847,0.03422 0.02786,0.05122zM281.50225,56.47185c0,0 0,0 0,0c-0.00717,0 -0.01433,-0.00003 -0.02148,-0.00009c0.13072,0.15521 0.32061,0.11087 0.5352,0.00009z" fill="#ffffff" stroke="none" stroke-width="0.5" stroke-linecap="butt"/><path d="M352.07282,25.94632c2.5,0 2.5,2.5 2.5,2.5v1.5015c0,4.04464 -0.82738,9.00118 -0.06688,12.93913c0.21221,1.09885 1.28202,1.90558 1.5015,3.003c0.29447,1.47234 -0.27645,3.02867 0,4.5045c0.17085,0.9121 0.86963,1.63957 1.30445,2.45935c0,0 1.11803,2.23607 -1.11803,3.3541c-2.23607,1.11803 -3.3541,-1.11803 -3.3541,-1.11803c-0.56619,-1.18222 -1.42797,-2.26408 -1.69856,-3.54665c-0.30995,-1.46916 0.29447,-3.03216 0,-4.5045c-0.21948,-1.09742 -1.3002,-1.9021 -1.5015,-3.003c-0.7973,-4.36038 -0.06688,-9.62811 -0.06688,-14.0879v-1.5015c0,0 0,-2.5 2.5,-2.5z" fill="#ffffff" stroke="none" stroke-width="0.5" stroke-linecap="butt"/><path d="M343.56682,17.93581c0,-1.38071 1.11929,-2.5 2.5,-2.5c1.38071,0 2.5,1.11929 2.5,2.5c0,1.38071 -1.11929,2.5 -2.5,2.5c-1.38071,0 -2.5,-1.11929 -2.5,-2.5z" fill="#ffffff" stroke="none" stroke-width="0.5" stroke-linecap="butt"/><path d="M381.21377,50.38967c-2.42383,0.61242 -3.03625,-1.81141 -3.03625,-1.81141l-0.68673,-2.77749c-0.64018,-1.29355 -1.0809,-2.70674 -1.92055,-3.88066c-0.82355,-1.15142 -2.15756,-1.86756 -3.003,-3.003c-0.59103,-0.79376 -0.54139,-1.99724 -1.24116,-2.69701c-0.69978,-0.69978 -1.92424,-0.62295 -2.69701,-1.24116c-0.964,-0.77119 -2.54793,-3.34612 -2.98541,-2.19171c-0.99007,2.61255 -0.36958,5.23005 -0.57249,7.91746c-0.19833,2.6267 -1.02128,5.16843 -1.53788,7.75145c0,0 -0.16284,0.81421 -0.77006,1.4103c0.20626,1.17873 0.45207,2.34598 0.74397,3.49907c0,0 0.60634,2.42536 -1.81902,3.0317c-2.42536,0.60634 -3.0317,-1.81902 -3.0317,-1.81902c-2.78452,-11.26521 -1.57615,-23.57873 -1.57615,-35.14087l-0.76927,0.26627c0,0 -1.76777,-1.76777 0,-3.53553c1.76777,-1.76777 3.53553,0 3.53553,0l2.23373,3.26927c0,3.29053 -0.11486,6.66376 -0.20518,10.06283c0.02399,-0.0273 0.0484,-0.05434 0.07321,-0.08113c4.84107,-5.22445 6.341,-0.8354 9.60425,1.5037c1.01563,0.72801 2.42539,0.87824 3.30899,1.76184c0.8836,0.8836 1.00896,2.31166 1.76184,3.30899c0.85291,1.12985 2.20015,1.83706 3.003,3.003c1.07192,1.55669 1.70106,3.37574 2.55159,5.06361l0.84714,3.29326c0,0 0.61242,2.42383 -1.81141,3.03625z" fill="#ffffff" stroke="none" stroke-width="0.5" stroke-linecap="butt"/><path d="M393.8486,38.69057c1.76777,-1.76777 3.53553,0 3.53553,0l-0.26627,0.76927c2.002,0 4.03323,-0.34083 6.00601,0c0.47166,0.08149 0.89678,1.07069 1.23524,0.73223c0.33846,-0.33846 -0.65074,-0.76357 -0.73223,-1.23524c-0.17042,-0.98639 0,-2.002 0,-3.003c0,-4.5986 0,-9.1972 0,-13.7958c-0.38217,-0.13111 -0.76113,-0.24425 -1.13328,-0.31912c0.07242,0.70142 0.12728,1.40279 0.12728,2.1029c0,0 0,2.5 -2.5,2.5c-2.5,0 -2.5,-2.5 -2.5,-2.5c0,-1.35592 -0.09615,-9.5976 0.37337,-10.32334c3.65574,-5.65069 11.42553,-1.51853 12.06726,3.74295c0.22959,1.88239 0.67225,4.6596 -0.97135,5.60549c-0.14408,0.08292 -0.29104,0.14969 -0.44055,0.20207c0.09857,5.23479 0.46286,10.63265 -0.02272,15.78784c-0.15088,1.60179 0.40542,3.63312 -0.73223,4.77077c-1.52672,1.52672 -8.57082,0.73223 -10.77678,0.73223l-3.26927,-2.23373c0,0 -1.76777,-1.76777 0,-3.53553zM403.19949,16.00407c0.12265,0.09598 0.19064,0.16397 0.19064,0.16397l0.5243,0.89756c0.29323,0.24024 0.60278,0.46352 0.90952,0.68971c-0.12351,-0.37102 -0.22488,-0.75597 -0.46485,-1.05474c-0.22101,-0.27516 -0.70825,-0.56078 -1.15961,-0.69651z" fill="#ffffff" stroke="none" stroke-width="0.5" stroke-linecap="butt"/><path d="M186.40465,127.54542c0,2.5 -2.5,2.5 -2.5,2.5l-2.82188,-0.37712c-3.92878,-2.46161 -5.19675,-2.81388 -8.21524,-6.66711c-0.69016,-0.88102 -0.83274,-2.10564 -1.5015,-3.003c-0.90442,-1.21356 -2.43787,-1.92878 -3.16373,-3.25687c-0.16371,-0.29955 -0.71236,-2.67204 -1.22463,-4.95679c-0.83328,0.90827 -1.79335,1.72742 -2.61019,2.64724c-3.46974,2.35679 -8.92504,5.13112 -13.97759,5.50284c0.06634,0.68104 -0.12919,1.51322 -1.13453,2.18344c-2.08013,1.38675 -3.46688,-0.69338 -3.46688,-0.69338c-0.74026,-1.11039 -1.46018,-2.21953 -2.15727,-3.33246c-1.58277,-1.15334 -3.67522,-2.74695 -4.58444,-3.43517l-2.80671,-1.39206c0,0 -2.23607,-1.11803 -1.11803,-3.3541c1.11803,-2.23607 3.3541,-1.11803 3.3541,-1.11803l0.01055,0.00531c-1.3611,-2.87669 -2.54351,-5.85901 -3.51035,-9.02154c-0.61317,-2.00566 -2.78901,-9.53239 -0.94772,-11.47415c0.94843,-1.00017 9.71874,-0.79607 11.33249,-0.79458c6.9096,0.00639 13.10269,0.61264 18.35118,4.57348c0.20129,-0.04435 0.42476,-0.06897 0.67285,-0.06897c2.5,0 2.5,2.5 2.5,2.5c-0.00383,0.13913 -0.00444,0.27722 -0.002,0.41431c1.09371,0.94552 2.32907,1.81224 2.81471,3.13348c0.65164,1.77291 0.46754,3.76492 0.24285,5.66457c0.31463,0.72123 0.60286,1.45907 0.8336,2.22553c0.82326,2.73465 0.38205,5.89946 1.80568,8.37522c0.65705,1.14265 2.04796,1.69727 2.84228,2.74913c0.67444,0.89311 0.82703,2.10992 1.5015,3.003c2.17895,2.88518 3.7943,3.49106 6.79978,5.34491l0.18112,-0.37712c0,0 2.5,0 2.5,2.5zM147.35342,114.7273c1.02988,0.29246 2.1802,-0.05724 3.25527,-0.17852c4.1372,-0.46674 7.07375,-1.51278 10.46594,-3.8796c0.93521,-1.00925 2.14328,-1.82172 2.80564,-3.02774c0.56736,-1.03305 0.7664,-2.23144 0.94594,-3.40747c-0.97873,-2.31325 -2.05547,-4.4089 -2.59487,-6.83997c-0.76109,-0.79697 -1.44248,-1.68 -2.31098,-2.355c-3.52928,-2.74295 -10.36249,-2.53517 -14.55925,-2.53111c-1.66667,0.00161 -3.34219,0.1716 -5,0c-0.92571,-0.09582 -1.92321,-1.34107 -2.67652,-0.79458c-0.61022,0.44269 0.70413,1.34234 0.93003,2.06158c1.33865,4.26217 2.58588,8.18734 4.21549,12.37553c1.24509,3.19996 2.78609,5.87502 4.52331,8.57688z" fill="#ffffff" stroke="none" stroke-width="0.5" stroke-linecap="butt"/><path d="M220.93919,115.53341c0,2.5 -2.5,2.5 -2.5,2.5l-2.61954,-0.26393c-2.44217,-1.22615 -5.32027,-1.59756 -7.56819,-3.15143c-1.41448,-0.97776 -2.04647,-2.81635 -3.3932,-3.88551c-2.57135,-2.04139 -6.4347,-1.87382 -9.0781,-3.821c-0.8066,-0.59416 -0.34712,-2.20505 -1.17782,-2.76501c-0.46608,-0.31417 -1.12118,-0.19668 -1.75584,-0.09499c-0.21945,0.2427 -0.44063,0.4834 -0.66511,0.72027c0.09217,1.21145 0.21951,2.40821 0.3909,3.58506c0.24133,1.65716 1.13629,3.18323 1.31779,4.848c0.14568,1.33627 -0.80372,2.75146 -0.35129,4.01722c0.23302,0.65193 1.32961,0.38651 1.99441,0.57976c0,0 2.23607,1.11803 1.11803,3.3541c-1.11803,2.23607 -3.3541,1.11803 -3.3541,1.11803c-1.3372,-0.80775 -3.29193,-1.03665 -4.0116,-2.42324c-0.92027,-1.7731 -0.0469,-4.00841 -0.35129,-5.98278c-0.25274,-1.63933 -1.07838,-3.15796 -1.31116,-4.80024c-0.43212,-3.04864 -0.59133,-6.21171 -0.61452,-9.41397c-1.0994,-0.69264 -1.0994,-2.13836 -1.0994,-2.13836c0.06343,-1.3199 -0.39716,-2.77605 0.1903,-3.95971c0.24389,-0.49141 0.61421,-0.89242 1.03255,-1.2594c0.11888,-3.65586 0.27865,-7.28826 0.27865,-10.7869v-2.01201c0,0 0,-2.5 2.5,-2.5c2.5,0 2.5,2.5 2.5,2.5v2.01201c0,0.00788 0,0.01577 0,0.02365c0.18879,-0.02837 0.39541,-0.03908 0.62153,-0.02835c2.49719,0.11852 2.37866,2.61571 2.37866,2.61571l-0.13284,2.36881c-0.37206,1.88092 -0.24819,3.93313 -1.11619,5.64277c-0.44018,0.86699 -1.31313,1.40788 -2.11549,2.00658c-0.02446,0.83925 -0.04452,1.67862 -0.0575,2.51654c0.26221,-0.08729 0.56806,-0.13821 0.92483,-0.13821c0.09033,0 0.17739,0.00326 0.2613,0.00955c0.41062,-0.36518 0.83546,-0.71368 1.27992,-1.03916c0.90293,-0.66122 2.10751,-0.83024 3.003,-1.5015c3.53309,-2.6484 6.86959,-5.52284 9.38573,-9.1464l1.88546,-3.52161c0,0 1.1826,-2.2026 3.3852,-1.02c2.2026,1.1826 1.02,3.3852 1.02,3.3852l-2.03878,3.78728c-3.01271,4.20125 -6.58097,7.47033 -10.71406,10.57173c-0.89516,0.67171 -2.09403,0.84861 -3.003,1.5015c-0.11816,0.08487 -0.23461,0.17175 -0.34948,0.26048c0.06983,0.0177 0.13733,0.04667 0.20204,0.08929c1.03537,0.68211 0.84046,2.48761 1.82518,3.241c1.05179,0.8047 2.59863,0.57625 3.82321,1.08044c1.7476,0.71953 3.55165,1.42442 5.05197,2.5737c1.2812,0.98143 1.81304,2.76105 3.13003,3.6939c2.05085,1.45264 4.74478,1.69449 6.99434,2.81504l0.38347,-0.26393c0,0 2.5,0 2.5,2.5z" fill="#ffffff" stroke="none" stroke-width="0.5" stroke-linecap="butt"/><path d="M231.9527,78.49887c2.5,0 2.5,2.5 2.5,2.5c0,8.83884 0,19.68969 0,28.52853c0,0 0,2.5 -2.5,2.5c-2.5,0 -2.5,-2.5 -2.5,-2.5c0,-8.83884 0,-17.67768 0,-26.51652v-2.01201c0,0 0,-2.5 2.5,-2.5z" fill="#ffffff" stroke="none" stroke-width="0.5" stroke-linecap="butt"/><path d="M229.4527,74.99287c0,-1.38071 1.11929,-2.5 2.5,-2.5c1.38071,0 2.5,1.11929 2.5,2.5c0,1.38071 -1.11929,2.5 -2.5,2.5c-1.38071,0 -2.5,-1.11929 -2.5,-2.5z" fill="#ffffff" stroke="none" stroke-width="0.5" stroke-linecap="butt"/><path d="M281.50225,109.0244c-2.5,0 -2.5,-2.5 -2.5,-2.5l0.26393,-0.38347c-0.56619,-1.18222 -1.43483,-2.26266 -1.69856,-3.54665c-0.27658,-1.34657 0.62561,-2.84251 0.12342,-4.12218c-0.44983,-1.14623 -1.99825,-1.50132 -2.72141,-2.49794c-0.48301,-0.66565 -0.2894,-1.68389 -0.78772,-2.33815c-0.75447,-0.99056 -1.99433,1.49156 -2.98167,2.25024c-1.34478,1.03333 -2.81938,1.8862 -4.20814,2.85964c-1.24276,0.8711 -2.62713,1.58558 -3.68547,2.67331c-2.52,2.58995 -4.54107,6.19559 -7.91694,7.43139c0.58706,1.50964 2.4636,2.34414 2.95897,3.89597c0.58704,1.839 0.08537,3.85991 0.12805,5.78986c0,0 0,2.5 -2.5,2.5c-2.5,0 -2.5,-2.5 -2.5,-2.5c0.04268,-1.40338 0.59121,-2.8847 0.12805,-4.21014c-0.54968,-1.57304 -2.47925,-2.41698 -2.99725,-4.00073c-0.13877,-0.4243 -0.23088,-0.85938 -0.29022,-1.3019c-0.11587,-0.00171 -0.23143,-0.0016 -0.3466,0.00076c0,0 -2.5,0 -2.5,-2.5c0,-2.5 2.5,-2.5 2.5,-2.5c0.10979,0.00312 0.21997,0.00924 0.33045,0.01758c-0.01343,-1.13005 -0.13914,-2.23035 -0.59395,-3.24876c-0.42735,-0.95693 -1.71431,-1.38277 -2.06587,-2.37006c-0.43771,-1.22923 -0.11376,-2.60718 -0.17063,-3.91077v-3.003c0,0 0,-2.5 2.5,-2.5c2.5,0 2.5,2.5 2.5,2.5v3.003c-0.05688,0.69841 -0.4426,1.44944 -0.17063,2.09523c0.34206,0.81221 1.51291,1.07516 1.84894,1.88988c0.6438,1.5609 0.97784,3.24221 1.20486,4.92285c2.06311,-1.30725 2.39007,-3.48649 4.38371,-5.50287c1.45845,-1.47508 6.67313,-4.7225 8.43465,-6.01008c1.18805,-0.8684 2.04561,-2.33156 3.45811,-2.74438c1.65889,-0.48483 3.65041,-0.58443 5.18021,0.21974c1.26427,0.66459 1.34642,2.53421 2.21528,3.66785c0.97447,1.27143 2.68204,2.0238 3.2846,3.50807c0.61292,1.50979 -0.18748,3.2873 0.12342,4.88683c0.17705,0.91091 0.86963,1.63957 1.30445,2.45935l0.26393,2.61954c0,0 0,2.5 -2.5,2.5z" fill="#ffffff" stroke="none" stroke-width="0.5" stroke-linecap="butt"/><path d="M290.51126,119.03941c2.5,0 2.5,2.5 2.5,2.5l-0.17262,0.58865c0.78565,2.15789 2.80691,3.63542 4.20523,5.45708c0.60259,0.78502 0.53821,2.00043 1.24116,2.69701c0.75602,0.74917 2.08926,0.66889 2.87737,1.38422c0.89677,0.81396 1.32928,2.02482 1.99392,3.03722c2.73147,0.64421 5.57044,0.78204 8.37596,0.85233c0.68483,0.01716 1.40592,0.43362 2.04629,0.1903c0.55903,-0.21241 0.71604,-0.96145 1.12688,-1.39601c1.145,-1.21109 2.33249,-2.38208 3.53553,-3.53553c0.97393,-0.93378 2.31005,-1.56118 2.9936,-2.72448c0.34705,-0.59062 -0.17038,-1.36154 -0.1903,-2.04629c-0.04357,-1.49766 0.0054,-2.9966 0.00002,-4.49489c-0.01299,-3.6167 0.10473,-5.80881 -0.53877,-9.38842c-0.4349,-2.41925 -2.08073,-7.49262 -2.44552,-9.83526c-0.14915,-0.9578 0.20433,-1.95762 0.01355,-2.90801c-0.31696,-1.579 -0.66075,-3.15624 -1.07036,-4.7025c-2.64455,1.08723 -5.80179,0.78513 -8.47393,0.79604c-1.24634,0.00509 -6.62509,0.07891 -7.32033,-0.37337c-0.67736,-0.44065 -2.75544,-4.64632 -3.64252,-6.44432c-0.05426,0.39981 -0.07325,0.83485 -0.05066,1.31469c0,0 0,2.5 -2.5,2.5c-2.5,0 -2.5,-2.5 -2.5,-2.5c0.03576,-1.24249 -0.33456,-2.56564 0.10727,-3.72746c0.51446,-1.35282 1.40225,-2.50068 2.35065,-3.61799c-0.28766,-0.78783 -0.56227,-1.58029 -0.82813,-2.37448l-0.12829,-2.29207c0,0 0,-2.5 2.5,-2.5c1.61641,0 2.18771,1.04512 2.38963,1.78388c1.95977,-3.1618 3.90196,-5.84191 8.69527,-4.72c1.53284,0.35877 3.03217,1.10718 4.19639,2.16686c0.86442,0.7868 0.79181,2.27947 1.60793,3.11626c1.45752,1.49444 5.59274,2.72029 6.42587,5.16539c0.53088,1.55806 0.31413,3.27143 0.22874,4.9317c2.08662,4.21375 2.26154,9.20055 2.96147,13.77448c0.49742,3.25059 1.831,6.32968 2.40519,9.56759c0.71444,4.02882 0.59892,6.21616 0.61653,10.24777c0.00085,0.19542 0.07152,7.96428 -0.19028,8.47383c-0.90788,1.76699 -2.69735,2.91768 -4.07747,4.34659c-2.01456,2.08578 -3.59028,4.94305 -6.28453,6.01541c-1.22775,0.48867 -2.6385,0.16638 -3.95971,0.1903c-3.80319,0.06886 -7.62425,-0.69921 -11.27228,-1.77662c-0.79395,-1.11428 -1.36509,-2.42733 -2.38186,-3.34283c-0.87261,-0.78569 -2.30151,-0.78534 -3.12864,-1.61878c-0.88024,-0.88695 -0.99773,-2.32024 -1.76184,-3.30899c-1.65645,-2.14344 -3.77275,-4.04991 -4.80378,-6.55493l-0.17262,-2.41435c0,0 0,-2.5 2.5,-2.5zM315.30222,89.62442c-0.09497,-0.22448 -0.12511,-0.48821 -0.14888,-0.75329c-0.06325,-0.12436 -0.10888,-0.24744 -0.11505,-0.36474c-0.00721,-0.13705 -0.00661,-0.2744 -0.00031,-0.41195c-0.05877,-0.18675 -0.15327,-0.34848 -0.31552,-0.46443c-0.46904,-0.33518 -1.12578,0.24892 -1.68868,0.37337c0,0 -0.2438,0 -0.57914,-0.07614c0.07614,0.33534 0.07614,0.57914 0.07614,0.57914l0,2.04042c1.31655,-0.04434 2.5471,-0.17176 2.95461,-0.47939c-0.05994,-0.14831 -0.12098,-0.29599 -0.18317,-0.44299zM310.53378,85.50338c0,-1.63206 1.06545,-2.19867 1.80525,-2.39539c-0.95818,-0.57505 -1.90296,-1.16602 -2.68094,-1.95611c-0.72186,-0.7331 -2.10261,-5.3858 -4.6766,-3.84931c-2.07914,1.2411 -2.17889,3.28344 -3.40993,5.12537c-0.28367,0.42444 -0.57764,0.80813 -0.87181,1.16642c0.32863,0.77522 0.67884,1.5407 1.0566,2.29249c0.5005,1.001 1.07123,1.96987 1.5015,3.003c0.26617,0.63911 0.01648,1.59189 0.57976,1.99441c0.46904,0.33518 1.11401,-0.32764 1.68868,-0.37337c0.66629,-0.05302 1.3354,-0.03726 2.0045,-0.01958v-1.98492c0,0 0,-2.5 2.5,-2.5c0.1977,0 0.37976,0.01563 0.54743,0.04443c-0.0288,-0.16767 -0.04443,-0.34973 -0.04443,-0.54743z" fill="#ffffff" stroke="none" stroke-width="0.5" stroke-linecap="butt"/><path d="M387.34192,109.14393c-1.11803,2.23607 -3.3541,1.11803 -3.3541,1.11803l-2.45935,-1.30445c-3.60592,0.07246 -7.01205,-0.81439 -10.43913,-1.68368c0,5.92203 0,11.75153 0,17.26858c0,0 0,2.5 -2.5,2.5c-2.5,0 -2.5,-2.5 -2.5,-2.5c0,-6.13495 0,-12.26991 0,-18.40486c-0.2687,-0.048 -0.53816,-0.09311 -0.80846,-0.13489c-2.97425,-0.45978 -5.61734,1.1154 -7.82717,-2.66844c-0.98018,-1.67834 -0.24892,-3.87922 -0.37337,-5.81883c0,0 0,-2.5 2.5,-2.5c2.5,0 2.5,2.5 2.5,2.5c-0.12446,1.06339 -0.68247,2.16512 -0.37337,3.19018c0.40401,1.33981 2.80179,0.12126 4.18484,0.33456c0.06591,0.01016 0.13175,0.02049 0.19754,0.03097c0,-7.8519 0,-15.7038 0,-23.55571v-2.52252c0,0 0,-2.5 2.5,-2.5c2.5,0 2.5,2.5 2.5,2.5c0,8.55957 0,17.87125 0,27.11368c3.81566,0.90887 7.5689,1.91953 11.5879,1.98473l3.54665,1.69856c0,0 2.23607,1.11803 1.11803,3.3541z" fill="#ffffff" stroke="none" stroke-width="0.5" stroke-linecap="butt"/><path d="M392.61336,75.49587c2.5,0 2.5,2.5 2.5,2.5c0,13.01301 0,29.02903 0,42.04204c0,0 0,2.5 -2.5,2.5c-2.5,0 -2.5,-2.5 -2.5,-2.5c0,-13.01301 0,-26.02603 0,-39.03904v-3.003c0,0 0,-2.5 2.5,-2.5z" fill="#ffffff" stroke="none" stroke-width="0.5" stroke-linecap="butt"/><path d="M417.37195,124.15895c-1.11803,2.23607 -3.3541,1.11803 -3.3541,1.11803l-4.0116,-2.42324c-0.10217,-1.74815 0.06848,-3.53394 -0.3065,-5.24445c-0.23965,-1.09319 -1.28202,-1.90558 -1.5015,-3.003c-0.29447,-1.47234 0.29447,-3.03216 0,-4.5045c-0.21948,-1.09742 -1.2883,-1.90435 -1.5015,-3.003c-0.47674,-2.45667 0.61422,-5.08155 0,-7.50751c-0.22776,-0.89958 -0.94289,-1.60473 -1.30445,-2.45935c-0.26975,-0.63761 -0.01648,-1.59189 -0.57976,-1.99441c-0.46904,-0.33518 -1.11401,0.32764 -1.68868,0.37337c-0.99785,0.07941 -2.002,0 -3.003,0c0,0 -2.5,0 -2.5,-2.5c0,-2.5 2.5,-2.5 2.5,-2.5c1.25416,0 6.61381,-0.08625 7.32033,0.37337c1.30952,0.85189 1.67529,2.64006 2.42324,4.0116c0.62758,1.15081 1.38326,2.27434 1.69856,3.54665c0.75321,3.03943 -0.63991,4.41499 0,7.50751c0.22677,1.09594 1.28202,1.90558 1.5015,3.003c0.29447,1.47234 -0.29447,3.03216 0,4.5045c0.21948,1.09742 1.30689,1.9009 1.5015,3.003c0.21893,1.23982 -0.20433,2.50971 -0.3065,3.76456l1.99441,0.57976c0,0 2.23607,1.11803 1.11803,3.3541z" fill="#ffffff" stroke="none" stroke-width="0.5" stroke-linecap="butt"/><path d="M434.65541,83.00338c2.5,0 2.5,2.5 2.5,2.5c0,7.84284 0,17.18719 0,25.03003c0,0.46413 0.1436,8.52264 -0.37337,9.31733c-0.85189,1.30952 -2.6744,1.61549 -4.0116,2.42324c0,0 -2.23607,1.11803 -3.3541,-1.11803c-1.11803,-2.23607 1.11803,-3.3541 1.11803,-3.3541c0.6648,-0.19325 1.59189,-0.01648 1.99441,-0.57976c0.33518,-0.46904 -0.34124,-1.11308 -0.37337,-1.68868c-0.09289,-1.66408 0,-3.33333 0,-5c0,-7.84284 0,-15.68569 0,-23.52853v-1.5015c0,0 0,-2.5 2.5,-2.5z" fill="#ffffff" stroke="none" stroke-width="0.5" stroke-linecap="butt"/><path d="M427.6509,70.48836c0,-1.38071 1.11929,-2.5 2.5,-2.5c1.38071,0 2.5,1.11929 2.5,2.5c0,1.38071 -1.11929,2.5 -2.5,2.5c-1.38071,0 -2.5,-1.11929 -2.5,-2.5z" fill="#ffffff" stroke="none" stroke-width="0.5" stroke-linecap="butt"/><path d="M447.17042,127.54542c0,-2.5 2.5,-2.5 2.5,-2.5h1.5015c4.52058,0.07333 7.41869,2.45 11.84806,3.02509c1.54322,0.20036 3.11232,-0.0319 4.66845,-0.02208c1.6807,0.01061 3.34006,-0.58271 4.88797,-1.23757c0.63761,-0.26975 1.74159,0.06475 1.99441,-0.57976c0.54832,-1.3978 -0.71938,-3.18655 0,-4.5045c1.14165,-2.09159 4.86885,-1.96334 5.82293,-4.14689c0.41706,-0.95449 -0.46696,-2.22249 0.05411,-3.12441c0.75293,-1.30325 2.63333,-1.65391 3.44045,-2.92431c0.69743,-1.09775 0.52457,-2.5484 0.83837,-3.81054c0.20379,-0.81965 0.96143,-1.62388 0.7135,-2.43128c-0.14051,-0.45757 -0.82349,0.48816 -1.23524,0.73223c-6.44549,-0.00992 -12.5423,-1.5015 -19.02402,-1.5015c-0.44125,0 -8.54247,0.1436 -9.31733,-0.37337c-1.3484,-0.89963 -1.81852,-2.70073 -2.49687,-4.17292c-1.72541,-3.74455 -2.8044,-7.24449 -3.18114,-11.22088c-0.24071,-2.54068 -1.42699,-4.95653 -1.5015,-7.50751c-0.04933,-1.68879 -0.58494,-3.94409 0.72007,-5.01711c1.62591,-1.33688 4.1721,-0.59036 6.27227,-0.73223c3.65911,-0.24718 5.52399,1.59747 9.00901,1.5015c0,0 2.5,0 2.5,2.5c0,2.5 -2.5,2.5 -2.5,2.5c-3.42259,-0.06398 -5.75595,-1.08247 -9.00901,-1.5015c-0.9366,-0.12064 -1.79996,-0.85146 -2.73674,-0.73223c-0.4045,0.05148 0.60481,0.59776 0.72007,0.98889c0.72136,2.44799 1.27024,4.96595 1.5015,7.50751c0.34,3.73667 1.63234,6.03563 2.82487,9.80015c0.19143,0.6043 -0.02169,1.48205 0.50613,1.83308c0.48002,0.31925 1.11308,-0.34124 1.68868,-0.37337c1.66408,-0.09289 3.33333,0 5,0c1.42926,0 7.61736,-0.00221 7.7707,0.01389c3.93892,0.41353 7.26771,1.49442 11.25332,1.48761c1.59026,0.24408 3.80524,-0.55472 4.77077,0.73223c1.82792,2.43643 0.46181,10.1312 -0.87349,12.46862c-0.65281,1.14275 -2.47775,1.25384 -3.1432,2.38928c-0.48576,0.82885 0.51439,2.03833 0.05411,2.88159c-0.89534,1.64031 -2.3814,2.91995 -3.85093,4.0744c-0.64673,0.50807 -2.00579,0.03545 -2.33815,0.78772c-0.60679,1.37343 0.75242,3.20513 0,4.5045c-0.78285,1.35193 -2.64006,1.67529 -4.0116,2.42324c-3.83163,2.08953 -8.09258,2.34167 -12.45559,1.74335c-4.20396,-0.5765 -7.0688,-3.07647 -11.18497,-2.98092h-1.5015c0,0 -2.5,0 -2.5,-2.5z" fill="#ffffff" stroke="none" stroke-width="0.5" stroke-linecap="butt"/><path d="M93.81456,119.53491c-2.5,0 -2.5,-2.5 -2.5,-2.5l0.00037,-1.45867c-0.04061,-2.37561 0.63227,-4.86971 -0.10912,-7.12703c-0.46547,-1.41722 -1.78298,-2.39753 -2.55652,-3.67299c-0.04629,-0.07633 -3.12369,-6.23375 -3.15043,-6.30411c-0.47047,-1.23793 -0.32035,-2.73874 -1.08044,-3.82321c-0.46074,-0.65737 -1.50605,-0.56162 -2.2324,-0.90344c-3.0595,-1.43977 -4.47881,-1.23757 -7.89098,-1.23757c-1.89903,0 -5.66081,-0.81116 -7.24124,0.76927c-1.71455,1.71455 -0.69591,7.08329 -0.77134,8.84439c-0.13809,3.22413 -1.11321,6.36059 -1.49943,9.56454c0,0.66716 0,1.33431 0,2.00147c0.07784,0.95894 0.18969,1.91885 0,2.85186v5c0,1.38071 -1.11929,2.5 -2.5,2.5c-1.38071,0 -2.5,-1.11929 -2.5,-2.5c0,-0.66567 0,-4.33433 0,-5c-0.52518,-1.64541 -0.35893,-3.43547 0,-5.20421c0,-0.6026 0,-1.2052 0,-1.8078c0,-4.3266 0.89841,-9.69168 -2.27077,-13.24725c-1.26534,-1.41961 -4.56369,-0.78061 -5.73974,-0.76927c-3.7163,0.03585 -10.78523,0.11674 -12.70532,4.46271c-0.45337,1.02618 0.4323,2.42259 -0.18307,3.36062c-0.64722,0.98657 -2.4781,0.68281 -3.1193,1.6733c-0.68,1.05042 0.01077,2.54625 -0.38147,3.7345c-0.50578,1.53224 -1.85191,2.71864 -2.26366,4.27878c-0.43642,1.65357 0.32078,3.50297 -0.21845,5.12593c-0.59718,1.79736 -2.04842,3.1863 -3.07263,4.77944c0,0 -1.38675,2.08013 -3.46688,0.69338c-2.08013,-1.38675 -0.69338,-3.46688 -0.69338,-3.46688c0.82479,-1.18035 2.04644,-2.16614 2.47437,-3.54106c0.48238,-1.54988 -0.27203,-3.29822 0.14272,-4.86755c0.43944,-1.66275 1.77956,-2.96972 2.35671,-4.58983c0.58574,-1.64419 0.18385,-3.63455 1.102,-5.11896c0.55729,-0.90099 2.2909,-0.45371 2.88671,-1.3297c0.4971,-0.73087 -0.60655,-1.86953 -0.18307,-2.64538c0.89533,-1.64032 2.39421,-2.90382 3.85093,-4.0744c4.0592,-3.26187 8.57225,-3.51546 13.47379,-3.4749c3.81698,0.03159 6.21148,-0.65784 9.27527,2.23373c0.18008,0.16996 0.35174,0.34425 0.51537,0.52261c2.09018,-6.04355 7.23944,-5.75935 12.73188,-5.75935c0.64307,0 6.23502,-0.01871 6.58039,0.06688c0.62008,0.15366 7.04068,3.44055 7.32026,3.79812c1.13554,1.45235 1.21248,3.48447 1.92257,5.1858c0.81943,1.96331 1.77722,3.874 2.85558,5.7079c0.93376,1.58798 2.43204,2.89202 2.99048,4.64751c0.25018,0.78646 0.31865,6.75808 0.34988,8.57649l0.00037,1.54433c0,0 0,2.5 -2.5,2.5z" fill="#ffffff" stroke="none" stroke-width="0.5" stroke-linecap="butt"/></g></g></svg>