<svg version="1.1" xmlns="http://www.w3.org/2000/svg" xmlns:xlink="http://www.w3.org/1999/xlink" width="715" height="586" viewBox="0,0,715,586"><g transform="translate(42.5,36.75)"><g data-paper-data="{&quot;isPaintingLayer&quot;:true}" fill-rule="nonzero" stroke-linejoin="miter" stroke-miterlimit="10" stroke-dasharray="" stroke-dashoffset="0" style="mix-blend-mode: normal"><path d="M-27.75,548.25v-584h584v584z" fill="#00fff9" stroke="#000000" stroke-width="2" stroke-linecap="butt"/><path d="M-41.5,34l713,222" fill="none" stroke="#000000" stroke-width="2" stroke-linecap="round"/><path d="M281.99718,121.71898c0.27386,6.34537 -8.00281,11.8561 -18.48646,12.30856c-10.48365,0.45246 -19.20434,-4.32467 -19.4782,-10.67004c-0.27386,-6.34537 9.26059,-5.9048 19.74424,-6.35726c10.48365,-0.45246 17.94655,-1.62663 18.22041,4.71874z" fill="none" stroke="#000000" stroke-width="2" stroke-linecap="butt"/><g stroke="#00ff08" stroke-width="2"><g><path d="M171.76221,323.61139c-1.45134,-8.99639 4.66512,-17.46593 13.66149,-18.91728c8.99639,-1.45134 17.46593,4.66512 18.91728,13.66149c1.45134,8.99639 -4.66512,17.46593 -13.66149,18.91728c-8.99639,1.45134 -17.46593,-4.66512 -18.91728,-13.66149z" fill="#000000" stroke-linecap="butt"/><path d="M199.41027,323.37161l-0.23381,-7.72808" fill="none" stroke-linecap="round"/><path d="M194.68609,315.01737l0.01091,8.43932" fill="none" stroke-linecap="round"/><path d="M191.41639,311.49314l5.13799,2.54754" fill="none" stroke-linecap="round"/><path d="M197.4678,328.07434c0,0 -2.71545,-1.15415 -3.49421,-1.87223c-0.65356,-0.60262 -1.90924,-2.3207 -1.90924,-2.3207" fill="none" stroke-linecap="round"/></g><path d="M179.78962,330.03886c3.42568,5.1835 -3.4153,15.74193 -15.27974,23.58292c-11.86445,7.84099 -24.25955,9.99531 -27.68522,4.81183c-3.42568,-5.1835 3.4153,-15.74193 15.27974,-23.58292c11.86445,-7.84099 24.25955,-9.99531 27.68522,-4.81183z" fill="#000000" stroke-linecap="butt"/><path d="M125.27707,346.271c0.45516,-5.50406 5.28606,-9.597 10.79013,-9.14184c5.50406,0.45516 9.597,5.28606 9.14184,10.79013c-0.45516,5.50406 -5.28606,9.597 -10.79013,9.14184c-5.50406,-0.45516 -9.597,-5.28606 -9.14184,-10.79013z" fill="#000000" stroke-linecap="butt"/></g><path d="M234.21491,258.84577c0,0 4.81402,-21.26304 8.60262,-37.99693c4.8663,-21.49397 13.00276,-56.80795 21.0348,-92.28462" fill="none" stroke="#000000" stroke-width="2" stroke-linecap="round"/><path d="M235.32542,253.65416l-12.70319,61.2714" fill="none" stroke="#000000" stroke-width="2" stroke-linecap="round"/><path d="M225.34982,319.67342l-7.83074,-1.63696l7.36629,-35.2383l7.83074,1.63696z" fill="#797979" stroke="#000000" stroke-width="2" stroke-linecap="butt"/><path d="M264.92934,302.29829c-0.7695,11.7108 -6.14004,20.89237 -11.99544,20.50762c-5.8554,-0.38475 -9.97834,-10.19012 -9.20884,-21.90092c0.7695,-11.7108 6.14004,-20.89237 11.99544,-20.50762c5.8554,0.38475 9.97834,10.19012 9.20884,21.90092z" fill="#ff0000" stroke="#000000" stroke-width="2" stroke-linecap="butt"/><path d="M233.6625,237.34959c-0.1786,-4.13829 3.03134,-7.63781 7.16963,-7.81642c4.13829,-0.1786 7.63781,3.03134 7.81642,7.16963c0.1786,4.13829 -3.03134,7.63781 -7.16963,7.81642c-4.13829,0.1786 -7.63781,-3.03134 -7.81642,-7.16963z" fill="#ff0000" stroke="#000000" stroke-width="2" stroke-linecap="butt"/><path d="M236.30215,234.73334c-0.19051,-4.41417 3.23344,-8.147 7.64761,-8.33751c4.41417,-0.19051 8.147,3.23344 8.33751,7.64761c0.19051,4.41417 -3.23344,8.147 -7.64761,8.33751c-4.41417,0.19051 -8.147,-3.23344 -8.33751,-7.64761z" fill="#ff0000" stroke="#000000" stroke-width="2" stroke-linecap="butt"/><path d="M247.533,331.44738c2.6283,1.0505 3.22194,5.74767 1.32593,10.49142c-1.89601,4.74377 -5.56369,7.73775 -8.19199,6.68726c-2.6283,-1.0505 -3.22194,-5.74767 -1.32593,-10.49142c1.89601,-4.74377 5.56369,-7.73775 8.19199,-6.68726z" fill="#ff0000" stroke="#000000" stroke-width="2" stroke-linecap="butt"/><path d="M263.40753,340.95505c0.24112,5.58668 -1.96765,10.21935 -4.93342,10.34735c-2.96577,0.128 -5.56546,-4.29714 -5.80658,-9.88382c-0.24112,-5.58668 1.96765,-10.21935 4.93342,-10.34735c2.96577,-0.128 5.56546,4.29714 5.80658,9.88382z" fill="#ff0000" stroke="#000000" stroke-width="2" stroke-linecap="butt"/><path d="M213.73781,315.86508c-0.22028,-5.10388 3.73867,-9.41997 8.84255,-9.64025c5.10388,-0.22028 9.41997,3.73867 9.64025,8.84255c0.22028,5.10388 -3.73867,9.41997 -8.84255,9.64025c-5.10388,0.22028 -9.41997,-3.73867 -9.64025,-8.84255z" fill="#000000" stroke="#3eff00" stroke-width="2" stroke-linecap="butt"/><g><path d="M239.98687,266.28815c-2.16122,-7.99739 2.56993,-16.23257 10.56733,-18.39379c7.99739,-2.16122 16.23257,2.56993 18.39379,10.56733c2.16122,7.99739 -2.56993,16.23257 -10.56733,18.39379c-7.99739,2.16122 -16.23257,-2.56993 -18.39379,-10.56733z" fill="#c19f67" stroke="#000000" stroke-width="2" stroke-linecap="butt"/><path d="M260.71464,261.3333c-0.00807,0.06693 -0.02287,0.13244 -0.04388,0.19561c-0.20775,0.86146 -0.57791,1.56602 -1.18875,1.82081c-0.58543,0.2442 -1.05958,-0.69787 -1.59782,-1.0335c-1.52332,-0.94987 -2.40532,-2.1649 -3.22395,-3.75436c-1.45459,0.47459 -2.88137,1.10384 -4.39234,1.28973c-2.75985,0.33954 -5.56605,-0.02295 -8.34038,0.16454c0,0 -2.49446,0.16623 -2.66069,-2.32824c-0.06073,-0.91133 0.23368,-1.51189 0.63182,-1.90713c-0.01264,-1.24993 1.11965,-2.04589 1.11965,-2.04589c2.67876,-1.88261 5.70041,-4.30697 9.02249,-5.43471c2.32693,-1.35128 6.05388,-1.25822 7.97116,-0.81852c1.48341,0.3402 2.4341,0.8544 3.19167,1.54633l0.01589,-0.02383l2.20108,1.46747c0.49142,0.32394 0.87107,0.82172 1.0367,1.4346c0.00317,0.01175 0.00627,0.0235 0.00926,0.03526c0.70284,-0.07313 2.2015,-0.00001 2.69436,1.8238c0.65221,2.41342 -1.76122,3.06563 -1.76122,3.06563l-1.93074,0.52177c-0.87343,0.22716 -1.76665,0.34708 -2.6675,0.42429c0.12546,0.96339 0.15825,2.37966 -0.08679,3.55635z" fill="#000000" stroke="none" stroke-width="0.5" stroke-linecap="butt"/><path d="M246.85853,267.2798l-0.82173,-4.95729" fill="none" stroke="#ffffff" stroke-width="2" stroke-linecap="round"/><path d="M251.56154,262.64228l0.93263,4.40938" fill="none" stroke="#ffffff" stroke-width="2" stroke-linecap="round"/><path d="M255.03804,266.88214l-1.4742,2.21116" fill="none" stroke="#ffffff" stroke-width="1" stroke-linecap="round"/><path d="M244.02764,268.30379l2.27638,1.71554" fill="none" stroke="#ffffff" stroke-width="1" stroke-linecap="round"/><path d="M253.87688,271.20993c0.27015,0.99967 -1.70957,1.36838 -2.90918,1.69256c-1.1996,0.32418 -2.39108,-0.22341 -2.66124,-1.22308c-0.27015,-0.99967 0.48333,-2.07287 1.68293,-2.39705c1.1996,-0.32418 3.61734,0.9279 3.88749,1.92757z" fill="#000000" stroke="none" stroke-width="0" stroke-linecap="butt"/></g><path d="M253.39808,271.125c0,0.89746 -1.00736,1.625 -2.25,1.625c-1.24264,0 -2.25,-0.72754 -2.25,-1.625c0,-0.89746 1.00736,-1.625 2.25,-1.625c1.24264,0 2.25,0.72754 2.25,1.625z" fill="#000000" stroke="none" stroke-width="none" stroke-linecap="butt"/></g></g></svg>