<svg version="1.1" xmlns="http://www.w3.org/2000/svg" xmlns:xlink="http://www.w3.org/1999/xlink" width="715" height="586" viewBox="0,0,715,586"><g transform="translate(42.5,36.75)"><g data-paper-data="{&quot;isPaintingLayer&quot;:true}" fill-rule="nonzero" stroke-linejoin="miter" stroke-miterlimit="10" stroke-dasharray="" stroke-dashoffset="0" style="mix-blend-mode: normal"><path d="M-27.75,548.25v-584h584v584z" fill="#00fff9" stroke="#000000" stroke-width="2" stroke-linecap="butt"/><path d="M-41.5,34l713,222" fill="none" stroke="#000000" stroke-width="2" stroke-linecap="round"/><g><path d="M113.5,74.5c0,6.35128 -8.50659,11.5 -19,11.5c-10.49341,0 -19,-5.14872 -19,-11.5c0,-6.35128 8.50659,-11.5 19,-11.5c10.49341,0 19,5.14872 19,11.5z" fill="none" stroke="#000000" stroke-width="2" stroke-linecap="butt"/><g><path d="M92.5,76l-49,180" fill="none" stroke="#000000" stroke-width="2" stroke-linecap="round"/><path d="M44.83333,250.86111l-15.33333,60.66667" fill="none" stroke="#000000" stroke-width="2" stroke-linecap="round"/><path d="M32.02033,316.38883l-7.75287,-1.97309l8.87888,-34.8879l7.75287,1.97309z" fill="#797979" stroke="#000000" stroke-width="2" stroke-linecap="butt"/><g><path d="M51,256.5c0,-8.28427 6.71573,-15 15,-15c8.28427,0 15,6.71573 15,15c0,8.28427 -6.71573,15 -15,15c-8.28427,0 -15,-6.71573 -15,-15z" fill="#c19f67" stroke="#000000" stroke-width="2" stroke-linecap="butt"/><path d="M72.30262,257.12424c-0.02525,0.06251 -0.05663,0.12189 -0.0934,0.17739c-0.4253,0.77742 -0.96644,1.36102 -1.6226,1.44763c-0.62886,0.08301 -0.84082,-0.95013 -1.27287,-1.41455c-1.22276,-1.31439 -1.75724,-2.71744 -2.13286,-4.46542c-1.52803,0.07868 -3.06956,0.31392 -4.5767,0.09918c-2.75286,-0.39222 -5.36731,-1.47424 -8.09449,-2.01702c0,0 -2.45145,-0.49029 -1.96116,-2.94174c0.17912,-0.89561 0.62001,-1.39857 1.10748,-1.67626c0.31388,-1.20994 1.61462,-1.68294 1.61462,-1.68294c3.07713,-1.11858 6.62662,-2.67068 10.12787,-2.8927c2.59887,-0.69743 6.17249,0.3647 7.90866,1.28936c1.34329,0.71542 2.12691,1.45983 2.67773,2.32543l0.02155,-0.01886l1.74203,1.99088c0.38989,0.44092 0.62653,1.02051 0.62653,1.65537c0,0.01217 -0.00008,0.02432 -0.00026,0.03645c0.69758,0.11276 2.12526,0.57432 2.12526,2.46355c0,2.5 -2.5,2.5 -2.5,2.5h-2c-0.90245,-0.00857 -1.79601,-0.12583 -2.68581,-0.28631c-0.13021,0.96276 -0.46804,2.33854 -1.01157,3.41055z" fill="#000000" stroke="none" stroke-width="0.5" stroke-linecap="butt"/><path d="M57.875,254.25l-0.5,5" fill="none" stroke="#ffffff" stroke-width="2" stroke-linecap="round"/><path d="M63.125,256l-0.25,4.5" fill="none" stroke="#ffffff" stroke-width="2" stroke-linecap="round"/><path d="M65.375,261l-2,1.75" fill="none" stroke="#ffffff" stroke-width="1" stroke-linecap="round"/><path d="M54.375,259.5l1.75,2.25" fill="none" stroke="#ffffff" stroke-width="1" stroke-linecap="round"/><path d="M63.125,264.875c0,1.03553 -2.00736,0.875 -3.25,0.875c-1.24264,0 -2.25,-0.83947 -2.25,-1.875c0,-1.03553 1.00736,-1.875 2.25,-1.875c1.24264,0 3.25,1.83947 3.25,2.875z" fill="#000000" stroke="none" stroke-width="0" stroke-linecap="butt"/><path d="M72.31224,300.73648c-1.27374,11.66673 -7.03519,20.60819 -12.86855,19.97132c-5.83336,-0.63687 -9.52967,-10.6109 -8.25593,-22.27763c1.27374,-11.66673 7.03519,-20.60819 12.86855,-19.97132c5.83336,0.63687 9.52967,10.6109 8.25593,22.27763z" fill="#ff0000" stroke="#000000" stroke-width="2" stroke-linecap="butt"/><path d="M43.875,234.5c0,-4.14214 3.35786,-7.5 7.5,-7.5c4.14214,0 7.5,3.35786 7.5,7.5c0,4.14214 -3.35786,7.5 -7.5,7.5c-4.14214,0 -7.5,-3.35786 -7.5,-7.5z" fill="#ff0000" stroke="#000000" stroke-width="2" stroke-linecap="butt"/><path d="M46.625,232c0,-4.41828 3.58172,-8 8,-8c4.41828,0 8,3.58172 8,8c0,4.41828 -3.58172,8 -8,8c-4.41828,0 -8,-3.58172 -8,-8z" fill="#ff0000" stroke="#000000" stroke-width="2" stroke-linecap="butt"/><path d="M53.6752,329.10835c2.58056,1.16285 2.97111,5.88125 0.87232,10.53884c-2.09879,4.6576 -5.89216,7.49065 -8.47272,6.32781c-2.58056,-1.16285 -2.97111,-5.88125 -0.87232,-10.53884c2.09879,-4.6576 5.89216,-7.49065 8.47272,-6.32781z" fill="#ff0000" stroke="#000000" stroke-width="2" stroke-linecap="butt"/><path d="M69.125,339.29167c0,5.59188 -2.40647,10.125 -5.375,10.125c-2.96853,0 -5.375,-4.53312 -5.375,-10.125c0,-5.59188 2.40647,-10.125 5.375,-10.125c2.96853,0 5.375,4.53312 5.375,10.125z" fill="#ff0000" stroke="#000000" stroke-width="2" stroke-linecap="butt"/></g><path d="M20.58333,312.08333c0,-5.10863 4.14137,-9.25 9.25,-9.25c5.10863,0 9.25,4.14137 9.25,9.25c0,5.10863 -4.14137,9.25 -9.25,9.25c-5.10863,0 -9.25,-4.14137 -9.25,-9.25z" fill="#000000" stroke="#3eff00" stroke-width="2" stroke-linecap="butt"/></g></g><path d="M-3,353.125c0,-8.83656 7.16344,-16 16,-16c8.83656,0 16,7.16344 16,16c0,8.83656 -7.16344,16 -16,16c-8.83656,0 -16,-7.16344 -16,-16z" fill="#000000" stroke="#00ff08" stroke-width="2" stroke-linecap="butt"/><path d="M21.83333,348.16667l-0.66667,5.33333" fill="none" stroke="#000000" stroke-width="2" stroke-linecap="round"/><g stroke="#00ff08" stroke-width="2"><path d="M-3.33333,352.625c0,-9.1127 7.3873,-16.5 16.5,-16.5c9.1127,0 16.5,7.3873 16.5,16.5c0,9.1127 -7.3873,16.5 -16.5,16.5c-9.1127,0 -16.5,-7.3873 -16.5,-16.5z" fill="#000000" stroke-linecap="butt"/><path d="M25,349.125l-1,7.66667" fill="none" stroke-linecap="round"/><path d="M20.66667,347.79167l-1.33333,8.33333" fill="none" stroke-linecap="round"/><path d="M18,343.79167l4.66667,3.33333" fill="none" stroke-linecap="round"/><path d="M21.33334,361.125c0,0 -2.49697,-1.5719 -3.15142,-2.40484c-0.54924,-0.69902 -1.51525,-2.59516 -1.51525,-2.59516" fill="none" stroke-linecap="round"/></g></g></g></svg>