<svg version="1.1" xmlns="http://www.w3.org/2000/svg" xmlns:xlink="http://www.w3.org/1999/xlink" width="686.18619" height="537.53754" viewBox="0,0,686.18619,537.53754"><g transform="translate(95.37462,81.16329)"><g data-paper-data="{&quot;isPaintingLayer&quot;:true}" fill-rule="nonzero" stroke="none" stroke-linecap="butt" stroke-linejoin="miter" stroke-miterlimit="10" stroke-dasharray="" stroke-dashoffset="0" style="mix-blend-mode: normal"><path d="M-95.37462,456.37425v-537.53754h686.18619v537.53754z" fill="#000000" stroke-width="0"/><path d="M74.29505,55.47035c-3,0 -3,-3 -3,-3v-3.00901c0,-4.78024 0.3036,-9.99528 -0.30133,-14.75699c-0.25383,-1.99805 -0.94232,-3.92582 -1.1817,-5.92565c-0.17311,-1.44619 0.32636,-2.96236 -0.05058,-4.36925c-0.46273,-1.72711 -1.61411,-3.19111 -2.40471,-4.79485c-0.89599,-1.81753 -1.86624,-3.60215 -2.65495,-5.46873c-0.61615,-1.4582 -0.4242,-3.37766 -1.55229,-4.48824c-3.9239,-3.86301 -10.95352,2.94187 -13.08456,5.05974c-2.90138,2.23998 -5.78753,4.70437 -7.75246,7.79865c-1.41101,2.22199 -3.22725,7.59349 -4.62273,9.18595c-1.58176,1.80504 -3.43429,4.3334 -5.83177,4.22275c-2.05193,-0.0947 -2.61577,-3.17082 -4.01237,-4.67709c-1.2703,-1.37005 -2.65769,-2.62669 -3.98178,-3.94483c-1.41739,-1.41103 -2.86435,-2.79339 -4.24264,-4.24264c-0.30885,-0.32475 -0.63225,-0.64173 -0.94227,-0.96921c-0.20252,1.46366 -1.33747,3.12748 -1.48265,3.83294c-0.24396,1.18542 0.33858,2.52938 -0.17189,3.62672c-0.61864,1.32987 -2.53914,1.82122 -3.00878,3.21072c-0.56189,1.66244 0.35069,3.51977 0.14489,5.26249c-0.2341,1.98241 -1.2049,3.82897 -1.45242,5.80975c-0.41903,3.35336 0.02243,6.75886 0.02243,10.1383c0,0 0,3 -3,3c-3,0 -3,-3 -3,-3c0,-1.22166 -0.00529,-10.64182 0.02243,-10.8707c0.24097,-1.98928 1.18789,-3.84675 1.45528,-5.83264c0.29985,-2.22701 -0.45959,-4.6008 0.23717,-6.73716c0.45256,-1.38763 2.33929,-1.88795 3.00025,-3.18928c0.36009,-0.70896 -0.32269,-1.59856 -0.17189,-2.37929c0.30016,-1.554 1.10906,-2.97121 1.5015,-4.5045c0.39004,-1.52392 -0.4219,-3.70452 0.83994,-4.64378c5.97014,-4.44391 11.23101,3.97159 14.49129,7.24564c1.50416,1.51051 3.3335,2.75853 4.5035,4.54045c0.43482,0.66223 -0.22892,1.63049 0.03809,2.37637c0.20129,0.56231 -0.04136,-1.22628 0.17424,-1.78326c0.66417,-1.7158 1.61536,-3.30623 2.43373,-4.95407c2.80787,-5.65384 5.91022,-9.16071 10.87062,-13.04882c1.56255,-1.4878 2.94526,-3.19093 4.68765,-4.46339c4.18436,-3.05582 11.98996,-4.00258 16.23801,-0.627c1.89681,1.50724 2.06651,4.38274 3.11385,6.56739c0.38982,0.81314 5.29108,10.82961 5.42562,11.32482c0.44785,1.64845 -0.02622,3.42603 0.18332,5.12133c0.24361,1.97089 0.92602,3.87068 1.17169,5.84132c0.62794,5.03684 0.34827,10.44345 0.34828,15.50607v3.00901c0,0 0,3 -3,3z" fill="#ffffff" stroke-width="0.5"/><path d="M162.88063,46.46434c0,2.50538 -2.09231,2.91845 -2.78224,2.98655c-1.41804,2.16135 -3.26437,4.0653 -5.16535,5.81249c-1.65543,0.78474 -3.57523,1.16207 -4.96628,2.35422c-2.60479,2.23235 -2.46308,6.57427 -4.75409,9.12762c-0.3459,0.38551 -9.68315,6.63312 -10.45649,7.16397c-1.89345,1.29974 -3.4553,3.27217 -5.65311,3.93862c-2.37952,0.72155 -5.00545,0.43834 -7.45946,0.03756c-2.19717,-0.35884 -4.2297,-1.40702 -6.27725,-2.28101c-7.42938,-3.17122 -21.21774,-9.06341 -18.41707,-19.49887c0.50855,-1.89487 2.30888,-3.19495 3.17933,-4.95321c0.69173,-1.39726 0.80587,-3.02986 1.47091,-4.44002c2.41522,-5.1213 6.04621,-11.03745 9.36993,-15.60768c2.93292,-4.03287 7.49842,-7.53021 11.01567,-11.04746c3.80544,-3.7962 7.33804,-6.87197 11.77597,-9.93033c2.12778,-1.46634 3.93652,-4.05758 6.51676,-4.19885c0.8987,-0.0492 7.21353,4.11074 9.04845,5.34351c1.87604,1.2604 4.14021,2.0917 5.609,3.80948c4.50959,5.27405 4.53419,13.1847 1.61855,19.21956c-2.44652,5.06387 -8.16635,9.59895 -11.80147,13.80305c-1.51456,1.75162 -2.47897,4.04334 -4.33441,5.42877c-1.13633,0.84849 -2.76179,0.6504 -4.15584,0.91081c-5.49528,1.02654 -9.85949,1.02721 -15.42057,1.02721c0,0 -3,0 -3,-3c0,-3 3,-3 3,-3c5.41637,0 9.10092,-0.20067 14.43418,-0.94558c0.66982,-0.09356 1.51703,0.3266 2.02545,-0.11941c1.26811,-1.11244 1.79583,-2.86691 2.86559,-4.17123c4.58993,-5.59629 11.07177,-9.95796 12.18735,-17.4854c0.42618,-2.87567 0.2802,-5.35954 -1.90379,-7.68217c-1.19229,-1.26797 -2.95341,-1.84258 -4.41926,-2.78096c-0.94779,-0.60674 -1.93418,-1.16181 -2.82135,-1.85417c-0.98065,-0.76531 -1.52591,-2.61076 -2.7654,-2.50578c-1.42912,0.12105 -1.98361,2.08037 -3.08324,3.00115c-4.04339,3.3858 -7.39341,5.62328 -11.13333,9.37297c-3.32186,3.32186 -7.78472,6.67629 -10.52908,10.49729c-3.06118,4.26211 -6.4214,9.66462 -8.64809,14.42235c-0.68091,1.45489 -0.80756,3.13533 -1.53209,4.56899c-0.74327,1.47073 -2.15388,2.55152 -2.82667,4.0558c-1.20709,2.69892 3.05019,5.96605 4.88886,7.20743c1.52486,1.02951 3.30597,1.61589 4.95407,2.43373c3.76375,1.86769 10.11884,6.25602 14.73467,4.6495c1.60996,-0.56034 2.65606,-2.14021 4.03935,-3.13643c3.0634,-2.20622 6.91683,-3.45033 9.43801,-6.26022c2.19198,-2.44298 2.54118,-7.13127 5.02367,-9.40912c1.59797,-1.46625 3.84456,-2.00823 5.76684,-3.01234c1.64683,-1.4856 3.20249,-3.19279 4.15852,-5.19405l4.18478,-1.65836c0,0 3,0 3,3z" fill="#ffffff" stroke-width="0.5"/><path d="M206.67981,63.55013c3.51607,2.59047 8.03636,4.34119 11.65513,6.86742c1.41729,0.9894 2.54361,2.39382 4.05594,3.23076c1.69379,0.93736 3.75266,-0.95621 5.61014,-1.5015c1.09423,-0.32123 2.53743,0.04139 3.33187,-0.77677c0.84347,-0.86866 0.44101,-2.39204 0.85118,-3.53123c0.83517,-2.31956 2.01581,-4.50725 2.81338,-6.84c-0.01291,-1.34132 -0.26511,-2.70182 -0.03874,-4.02396c0.07002,-0.40897 1.2936,-0.88085 0.87868,-0.88168c-0.84667,-0.00169 -1.54747,0.74291 -2.38318,0.87868c-6.78623,1.10252 -17.39963,-1.12418 -20.78966,-7.85796c-0.22604,-0.449 -0.32061,-7.14623 -0.14811,-7.84332c0.53767,-2.17277 2.59596,-3.80502 3.003,-6.00601c0.27584,-1.49155 -0.36587,-3.08129 0.01124,-4.5505c0.40442,-1.57559 1.26019,-3.0436 2.26613,-4.32194c1.46833,-1.86594 3.07835,-3.7114 5.07119,-5.00227c4.34664,-2.81557 10.27701,-1.94955 15.09071,-1.94955c0,0 3,0 3,3c0,3 -3,3 -3,3c-2.90696,0 -9.05828,-0.87673 -11.93632,1.05345c-1.35021,0.90553 -2.38216,2.22677 -3.41409,3.48301c-0.53791,0.65484 -1.10449,1.37485 -1.2606,2.2078c-0.27376,1.46074 0.32059,3.00489 0.01124,4.45851c-0.84258,3.95929 -6.08533,8.62515 -1.16562,11.89203c4.18933,2.78187 8.65176,2.01521 13.26088,2.43673c2.21869,0.20291 4.88602,-0.51302 6.62582,0.87868c1.20458,0.96357 0.84894,8.95135 0.83994,10.10937c-0.90918,2.78057 -2.03524,5.48826 -3.19263,8.17501c-0.77613,1.8017 -0.75354,4.10181 -2.15182,5.47777c-1.44884,1.42571 -3.76514,1.53629 -5.67714,2.22623c-2.45752,0.88679 -6.55471,2.6684 -9.40487,1.5015c-2.10336,-0.86115 -3.65635,-2.70344 -5.54406,-3.96924c-2.76471,-1.85386 -5.59057,-3.62168 -8.48424,-5.267c-1.07225,-0.60968 -2.31386,-0.93733 -3.29366,-1.6866c-0.94909,-0.72579 -1.36029,-2.071 -2.39692,-2.66509c-0.54051,-0.30977 -1.23664,0.15224 -1.85495,0.22836l-1.73468,-2.60288c-3.16813,0.67249 -6.31172,1.47074 -9.5049,2.00952c-4.75606,0.7864 -9.47372,0.63316 -14.28595,0.59336c-1.7314,-0.01432 -3.53113,0.40308 -5.19376,-0.08025c-1.80396,-0.52442 -3.66046,-1.40298 -4.8657,-2.84406c-0.53383,-0.63829 0.28709,-1.63925 0.43063,-2.45888l-0.88168,0.87868c0,0 -3,0 -3,-3c0,-3 3,-3 3,-3l5.12432,0.87868c0.14354,1.18238 -0.0342,2.45052 0.43063,3.54713c0.14978,0.35334 0.75658,0.15285 1.14031,0.15895c1.27187,0.0202 2.54327,-0.06799 3.81525,-0.08025c4.47932,-0.04318 8.8618,0.25079 13.2899,-0.51011c3.98534,-0.66931 7.8649,-1.92505 11.86908,-2.47042c0.60845,-0.08287 1.27161,0.75098 1.79236,0.42557c0.51894,-0.32428 0.16778,-1.22468 0.39541,-1.79269c1.23686,-3.08634 1.18478,-4.2282 1.18478,-7.66737c0,-1.001 -0.047,-2.00311 0,-3.003c0.02925,-0.6223 0.53813,-1.31444 0.22836,-1.85495c-0.59409,-1.03663 -1.95809,-1.43375 -2.66509,-2.39692c-3.16354,-4.30981 -6.90341,-11.86038 -4.99052,-17.4584c0.60746,-1.77772 1.26535,-3.84738 2.84406,-4.8657c5.17424,-3.33756 9.77208,2.05598 11.76798,5.71482c0,0 1.34164,2.68328 -1.34164,4.02492c-2.68328,1.34164 -4.02492,-1.34164 -4.02492,-1.34164c-0.31318,-0.74111 -0.41568,-1.61267 -0.93954,-2.22332c-3.10918,-3.62429 -2.98512,3.15663 -2.46644,4.69693c0.94703,2.81239 2.2872,5.53394 4.01848,7.94414c0.9564,1.33145 2.65588,2.11972 3.34092,3.60908c0.57907,1.25899 0.18415,2.76598 0.22836,4.15105c0.08955,2.80554 0.58682,7.00256 -0.08025,9.69827c-0.21003,0.84876 -2.15135,4.55293 -3.40219,6.57143c0.74626,0.7615 1.38258,1.68841 2.23657,2.3176z" fill="#ffffff" stroke-width="0.5"/><path d="M312.1521,59.09617c-2.12132,2.12132 -4.24264,0 -4.24264,0l-0.72182,-0.93954c-4.15628,-2.13084 -6.76503,-5.03701 -10.05055,-8.33133c-0.68567,-0.68751 -1.40445,-1.39705 -2.12846,-2.13114c0.00187,0.09075 0.00325,0.18131 0.00414,0.27168c0.01052,1.07484 0.04042,6.5913 -0.22836,7.15406c-0.77572,1.62418 -2.43555,2.65085 -3.65332,3.97627c-1.52388,1.50902 -2.86733,3.22526 -4.57164,4.52706c-0.64741,0.49451 -1.40994,0.93453 -2.25421,1.31341c0.25776,0.73336 0.68076,2.65945 -1.46134,3.7305c-2.68328,1.34164 -4.02492,-1.34164 -4.02492,-1.34164c-0.14758,-0.29925 -0.30142,-0.59434 -0.46087,-0.88571c-4.09337,0.39263 -8.39102,-0.37538 -10.85237,-2.71061c-1.592,-1.51043 -2.69508,-3.49236 -3.71344,-5.43628c-0.68949,-1.31614 -0.59716,-2.96944 -1.35851,-4.24537c-0.80415,-1.34765 -2.7474,-1.93651 -3.22269,-3.43215c-1.21282,-3.81645 0.16869,-9.74161 0.79816,-13.5594l0.51575,-3.09654c0,0 0.49288,-2.95924 3.45211,-2.46636c2.95924,0.49288 2.46636,3.45211 2.46636,3.45211l-0.51575,3.09654c-0.15564,0.92434 -1.70962,8.77682 -1.17335,10.27754c0.42522,1.18997 2.13043,1.49193 2.78332,2.57386c1.58777,2.63115 1.86945,6.06285 3.93706,8.33638c0.53384,0.587 1.47525,0.84948 2.50373,0.94476c-3.18313,-3.99791 -6.48026,-7.88729 -7.4495,-13.2294c-1.16971,-6.44707 2.76534,-8.34146 7.0653,-11.80958c3.12741,-2.5224 7.10157,-7.53061 12.05903,-4.95612c0.71434,0.37097 1.38342,0.79337 2.00872,1.26023c-0.01016,-0.34008 -0.04351,-0.67757 -0.11203,-1.01105c-0.2863,-1.39349 -0.92419,-2.69091 -1.38629,-4.03637c0,0 -0.94868,-2.84605 1.89737,-3.79473c2.84605,-0.94868 3.79473,1.89737 3.79473,1.89737c0.5389,1.65755 1.28186,3.26216 1.61671,4.97264c0.37127,1.89648 -0.49888,3.91972 -0.04152,5.79729c0.97736,4.01222 5.2386,7.61563 7.94872,10.31809c2.79953,2.79162 4.93145,5.48705 8.49119,7.20741l2.28118,2.06346c0,0 2.12132,2.12132 0,4.24264zM280.98813,59.70043c2.338,-0.63066 3.38905,-2.30703 5.90031,-4.8469c0.78423,-0.67658 1.85574,-1.12099 2.35268,-2.02973c0.77779,-1.42233 -0.24744,-3.23696 -0.22836,-4.85796c0.04358,-3.70263 -0.41335,-5.90506 -2.67061,-8.98005c-1.33497,-1.81858 -2.03115,-3.90979 -4.15065,-3.11522c-1.92968,0.72342 -3.17819,2.62477 -4.7933,3.90478c-1.29055,1.02279 -2.91947,1.58254 -4.15744,2.66838c-1.92517,1.68859 -0.34087,5.67535 0.44591,7.20705c1.91429,3.72671 4.78208,6.75579 7.30144,10.04964z" fill="#ffffff" stroke-width="0.5"/><path d="M316.03679,47.96884c3,0 3,3 3,3l-0.31672,0.15986c1.17755,2.35528 2.38331,4.69645 3.59911,7.0322c0.80704,1.48614 1.22398,3.26393 2.42111,4.45841c3.3752,3.36775 6.22135,1.67185 9.86734,0.51849c3.27528,-1.03609 4.36255,-0.29805 5.58491,-4.02931c0.29299,-0.89434 -0.28593,-1.91225 -0.04847,-2.82291c0.56512,-2.16724 2.6606,-3.79742 3.00273,-6.01085c0.67875,-4.39121 -0.07998,-9.8182 -0.07998,-14.32092c0,-0.50042 0.02637,-1.00313 0.06255,-1.50661c-1.26911,0.0417 -2.44296,0.02853 -3.06856,0.00211c-2.52719,-0.10674 -5.22908,0.49874 -7.57515,-0.44679c-1.23658,-0.49837 -1.09926,-2.50056 -2.05198,-3.4332c-0.84796,-0.83009 -2.46992,-0.68632 -3.14974,-1.65891c-1.55292,-2.22168 -2.0668,-4.49526 -2.21877,-6.83925c-0.75591,-0.372 -1.51787,-1.12195 -1.51787,-2.63386c0,-1.50018 0.75018,-2.25018 1.50028,-2.62514c0.00079,-0.12573 0.00123,-0.25169 0.00123,-0.37787v-1.5015c0,0 0,-3 3,-3c3,0 3,3 3,3v1.5015c0,0.2177 -0.00797,0.46176 -0.02062,0.72643c1.16607,0.29353 2.33022,0.61112 3.50718,0.81681c1.6994,0.297 3.57138,-0.45393 5.17201,0.18962c0.40794,0.16402 0.76181,0.41031 1.08671,0.70174c-0.20036,-0.49323 -0.40444,-0.98553 -0.57631,-1.48593c0,0 -0.94868,-2.84605 1.89737,-3.79473c2.84605,-0.94868 3.79473,1.89737 3.79473,1.89737c0.5389,1.65755 1.32468,3.25433 1.61671,4.97264c0.21273,1.25168 -0.20519,2.5569 -0.10694,3.81544c0.57502,0.86376 1.09983,1.94531 1.4535,3.09157c0.48023,1.55644 0.64495,3.2322 0.19141,4.64408c0.00544,1.64809 0.00226,3.29168 0.00226,3.94447c0,4.92805 0.7578,10.92692 -0.07998,15.6971c-0.38756,2.20671 -2.48574,3.83329 -3.00328,6.01318c-0.24512,1.03246 0.38355,2.21386 -0.04847,3.1831c-0.98479,2.20939 -2.20705,4.4564 -4.0533,6.01927c-1.4563,1.23278 -3.57362,1.33966 -5.3768,1.96343c-5.87633,2.03278 -10.56357,2.98639 -15.8808,-1.84507c-1.70948,-1.55331 -2.37794,-3.96054 -3.56691,-5.9408c-1.25111,-2.40215 -2.49245,-4.80959 -3.70377,-7.23205l-0.31672,-2.84314c0,0 0,-3 3,-3zM331.08088,23.30382c0.1456,0.6674 0.37771,1.24883 0.73578,1.6754c0.67652,0.80593 2.12167,0.59072 2.85627,1.34409c0.63929,0.65562 0.11124,2.23669 0.96304,2.57281c0.49103,0.19376 5.03534,-1.0641 7.192,-0.54857c-0.00363,-0.01445 -0.00728,-0.02889 -0.01095,-0.0433c-0.16822,-0.29985 -0.37176,-0.58745 -0.56359,-0.87903c-0.73526,-0.47689 -1.74289,-0.51178 -2.44524,-1.04966c-0.94859,-0.72645 -1.28647,-2.22413 -2.39692,-2.66509c-1.19016,-0.47261 -2.57199,0.38857 -3.837,0.18962c-0.83958,-0.13204 -1.66752,-0.35949 -2.49338,-0.59626z" fill="#ffffff" stroke-width="0.5"/><path d="M389.10351,61.64195c-1.6641,2.49615 -4.16025,0.83205 -4.16025,0.83205l-4.34618,-2.90442c-0.98776,-0.49162 -6.17347,-3.0283 -6.62155,-3.47641c-0.87692,-0.877 -1.29103,-2.10596 -1.80818,-3.24878c-0.24945,-0.31312 -0.39737,-0.65457 -0.47971,-0.98838c-3.14443,-6.58742 -2.88172,-15.73797 2.4238,-21.15422c4.18088,-4.26813 14.01174,-5.19242 18.22446,-0.50604c1.13999,1.26816 -1.07363,3.25669 -1.30729,4.94583c-0.20575,1.48734 0.35969,3.04672 0,4.5045c-1.18786,4.81422 -6.58887,8.65524 -11.2395,9.738c-0.6487,0.15103 -1.48541,-0.97455 -1.93813,-0.48602c-0.47019,0.50738 -0.42658,1.25734 -0.39406,2.00205c0.21789,0.3404 0.46989,0.6591 0.76125,0.95041c1.40361,1.40337 3.61663,1.63905 5.39047,2.52959l4.66282,3.10158c0,0 2.49615,1.6641 0.83205,4.16025zM376.08446,43.55428c0.77682,0.03 1.61642,0.17896 2.32613,-0.00969c2.23472,-0.59402 4.22298,-2.03002 5.94773,-3.57017c1.67074,-1.49192 0.39696,-4.78771 0.83079,-6.21136c0.19431,-0.63767 2.27102,-0.72344 1.69571,-1.06017c-0.87034,-0.50942 -2.02856,0.06445 -3.01147,0.29004c-3.08552,0.70816 -6.88494,1.85287 -7.90823,5.33174c-0.34215,1.1632 0.12212,2.42269 0.12872,3.63515c0.00269,0.4943 -0.00553,1.03129 -0.00938,1.59445z" fill="#ffffff" stroke-width="0.5"/><path d="M59.27703,112.53041c0,3 -3,3 -3,3c-3.50551,0 -10.01401,0 -13.51952,0c-2.77138,0 -5.63638,-0.79595 -8.31374,-0.08025c-2.48591,0.66452 -5.17222,2.34815 -7.58265,1.44751c-1.37981,-0.51556 -2.66063,-1.29046 -3.86594,-2.20415c-0.22136,3.10164 0.24582,6.9001 0.24582,9.84891c0,0 0,3 -3,3c-3,0 -3,-3 -3,-3c0,-5.04116 -0.51189,-9.82947 0.744,-14.50776c-0.46299,-0.47522 -0.91789,-0.94183 -1.36682,-1.38893c0,0 -2.12132,-2.12132 0,-4.24264c1.74322,-1.74322 3.48644,-0.62142 4.05248,-0.16614c0.99537,-1.3697 2.20685,-2.5928 3.32403,-3.86884c0.75797,-0.86576 1.97763,-1.37993 2.45485,-2.42698c0.48568,-1.06561 -0.41703,-2.54086 0.24853,-3.50442c0.84736,-1.22676 2.6253,-1.44092 3.80082,-2.35803c1.21854,-0.95068 1.94263,-2.55732 3.34156,-3.2143c2.03123,-0.95393 4.40119,-0.88885 6.57573,-1.44317c2.02635,-0.51654 3.95181,-1.45387 6.01931,-1.76747c5.84024,-0.88587 12.54587,-0.14571 18.45269,-0.14724l3.76022,2.14826c0,0 2.35314,1.86084 0.4923,4.21398c-1.86084,2.35314 -4.21398,0.4923 -4.21398,0.4923l-0.03699,-0.85454c-5.58781,0.00144 -12.02055,-0.77714 -17.54598,0.07809c-1.88643,0.29198 -3.62507,1.21272 -5.48091,1.6596c-1.70799,0.41128 -3.60204,0.16133 -5.19124,0.91023c-1.16364,0.54836 -1.61345,2.04998 -2.66445,2.79171c-0.62572,0.44159 -1.80076,-0.0054 -2.20518,0.64497c-0.4425,0.7116 0.61542,1.74821 0.24853,2.50159c-0.79683,1.63625 -2.34006,2.78803 -3.50531,4.18604c-1.36566,1.63845 -2.58522,2.86696 -3.53916,4.27776c1.12699,1.01789 2.32528,1.93936 3.62987,2.60968c1.18564,0.6092 4.19758,-1.50074 4.42936,-1.55549c3.14431,-0.74284 6.4614,-0.08025 9.69226,-0.08025c3.50551,0 7.01101,0 10.51652,0h3.003c0,0 3,0 3,3z" fill="#ffffff" stroke-width="0.5"/><path d="M102.82357,103.51839c-3,0 -3,-3 -3,-3l0.08025,-2.31374c-0.55766,-1.45272 -2.57545,-1.80803 -4.03494,-2.34771c-1.00123,-0.37023 -1.82549,-1.66381 -2.86656,-1.4278c-1.0327,0.2341 -1.1169,1.84851 -1.93813,2.51698c-0.79329,0.64573 -2.04621,0.59577 -2.77173,1.31681c-1.09411,1.08736 -1.64273,2.61147 -2.48275,3.90522c-0.92246,1.42071 -2.14091,2.67928 -2.80449,4.2378c-2.13235,5.00817 -0.34186,5.91844 -3.15522,10.70465c-0.70382,1.19736 -3.87493,3.0956 -4.13643,5.12291c-0.49952,3.87257 0.07998,8.873 0.07998,12.81941c0,0 0,3 -3,3c-3,0 -3,-3 -3,-3c0,-4.18443 -0.6825,-10.22579 0.07998,-14.1956c0.53115,-2.76543 3.39639,-4.50307 4.87257,-6.90111c1.80355,-2.92986 1.39654,-6.78652 2.75821,-9.94607c0.30928,-0.71764 6.30193,-9.72741 6.81735,-10.2453c0.85765,-0.86177 2.24233,-0.98317 3.23428,-1.68619c1.45747,-1.03295 2.31206,-3.15991 4.06788,-3.48902c0.9431,-0.17678 10.77552,2.91456 11.66387,3.65639c1.32966,1.11034 1.6371,3.0534 2.45564,4.58011l0.08025,3.69226c0,0 0,3 -3,3z" fill="#ffffff" stroke-width="0.5"/><path d="M110.33108,114.03491c2.23119,0 2.80298,1.65941 2.94951,2.50992c5.09613,-1.8306 11.50575,-1.77751 15.53261,1.22672c1.12954,0.84269 4.4478,8.61871 3.76294,9.52594c-1.76031,2.33186 -5.31184,2.56582 -8.16872,3.17777c-4.30134,0.92136 -8.32127,0.43371 -11.52132,-1.52945c0.15697,0.29136 0.28878,0.59191 0.36472,0.91335c0.28304,1.19806 0.0535,2.46151 0.08025,3.69226c0,0 0,3 -3,3c-3,0 -3,-3 -3,-3c0.15523,-4.47541 -3.59821,-8.93778 -0.10308,-13.13336c0.03927,-0.6283 0.12353,-1.26652 0.10308,-1.88165v-1.5015c0,0 0,-3 3,-3zM114.407,122.51554c2.48622,3.0775 8.66635,2.55739 12.71806,2.27481c0.50383,-0.03514 -1.12092,-0.03281 -1.45924,-0.40779c-0.49598,-0.54971 -0.19393,-1.63083 -0.78383,-2.07828c-1.61834,-1.22755 -6.53972,-1.11543 -8.36798,-0.56136c-0.63434,0.19224 -1.38495,0.44092 -2.10702,0.77262z" fill="#ffffff" stroke-width="0.5"/><path d="M201.92267,123.03791c-3,0 -3,-3 -3,-3l0.31672,-0.15986c-0.57932,-1.21846 -1.49925,-2.3275 -1.73797,-3.65539c-0.10393,-0.57813 1.28264,-1.23841 0.79843,-1.57094c-0.68593,-0.47106 -1.79211,0.92845 -2.45888,0.43063c-0.98578,-0.736 -3.26557,-5.5353 -4.02054,-7.05218c-0.90943,-1.36944 -1.83914,-2.72563 -2.7283,-4.10832c-0.40843,-0.63513 -0.4417,-1.72196 -1.16352,-1.94371c-0.54181,-0.16644 -0.70698,0.9125 -1.18082,1.22352c-1.82431,1.19746 -3.68811,2.39467 -5.22633,3.94254c-3.49967,3.52163 -5.35088,8.4018 -8.8103,11.79266c-1.68635,1.65293 -3.44632,4.20122 -5.80358,4.0623c-5.23096,-0.30828 -2.51855,-4.81757 -4.64378,-6.84595c-0.69726,-0.66549 -1.87078,-0.60277 -2.63581,-1.1891c-0.60132,-0.46086 -1.14268,-1.00598 -1.62291,-1.5995c1.31781,5.43671 0.37103,11.71997 0.37103,17.18379c0,0 0,3 -3,3c-3,0 -3,-3 -3,-3c0,-4.96972 -0.30631,-10.04669 0,-15.003c0.16781,-2.71539 -0.843,-6.00328 0.87233,-8.11495c4.02172,-4.95095 7.7585,1.09434 9.88781,2.66621c1.0264,0.75769 2.4815,0.89857 3.37019,1.81391c0.77034,0.79344 1.36061,1.78421 1.75858,2.832c1.56301,-3.09066 3.64636,-5.91533 5.81209,-8.61865c2.65909,-3.31914 6.05656,-6.60474 9.98739,-8.28882c1.57576,-0.6751 3.15679,-2.17344 4.82519,-1.77948c3.30896,0.78134 6.50597,6.54948 8.12019,8.96299c0.53002,1.05571 1.15104,2.07046 1.59005,3.16714c0.22742,0.5681 -0.1376,1.49211 0.39541,1.79269c1.03746,0.58506 2.75375,-0.45772 3.54713,0.43063c1.00059,1.12035 0.36141,2.99792 0.79843,4.43506c0.25888,0.85131 0.84336,1.56708 1.26504,2.35062l0.31672,2.84314c0,0 0,3 -3,3z" fill="#ffffff" stroke-width="0.5"/><path d="M16.05621,211.78937c1.34164,-2.68328 4.02492,-1.34164 4.02492,-1.34164l2.35062,1.26504c4.88969,-0.10285 10.54929,0.64059 15.34671,-0.04152c3.07774,-0.4376 5.91317,-1.92546 8.90225,-2.77949c1.90216,-0.54347 3.8003,-1.10126 5.70667,-1.62974c1.13784,-0.31543 2.47257,-0.2047 3.42553,-0.90188c0.64731,-0.47357 0.46535,-1.55133 0.87238,-2.24242c0.9831,-1.66921 3.63528,-3.42158 2.72646,-5.13237c-1.32378,-2.49192 -3.40582,-4.58988 -4.40487,-7.22881c-0.44888,-1.18568 -0.2778,-2.62131 -0.9847,-3.67375c-0.38685,-0.57595 -1.28975,-0.51928 -1.9577,-0.70691c-1.99034,-0.55911 -4.1151,-0.70496 -6.01013,-1.53136c-3.19919,-1.39513 -5.36057,-4.75402 -8.6647,-5.87827c-1.14785,-0.39056 -2.42283,0.10955 -3.63515,0.12872c-2.50219,0.03957 -5.00501,0 -7.50751,0c-1.73125,-0.02675 -3.51295,0.33546 -5.19376,-0.08025c-9.79763,-2.4232 -6.81525,-15.03341 -6.81525,-22.45128c0,-2.81843 -0.32823,-12.7998 1.42281,-14.55195c0.882,-0.88256 8.44629,2.367 9.74247,2.88405c0.01831,0.0073 10.81415,4.31989 10.95645,4.36578c2.00295,0.64601 4.18422,0.73241 6.11596,1.56759c1.54728,0.66896 2.61519,2.20105 4.1602,2.87527c0.65304,0.28498 1.42136,-0.11087 2.13365,-0.12872c2.99777,-0.07512 6.01019,0 9.00901,0c0,0 3,0 3,3c0,3 -3,3 -3,3c-3.00067,0 -6.00893,0.05617 -9.00901,0c-1.29127,-0.02418 -2.66259,0.32342 -3.87236,-0.12872c-1.80215,-0.67354 -3.08216,-2.36894 -4.84881,-3.13074c-3.63036,-1.56544 -7.61952,-2.16292 -11.29385,-3.62219c-1.8599,-0.73866 -3.71737,-1.48345 -5.57577,-2.22588c-1.06944,-0.42724 -2.25886,-0.64402 -3.29083,-1.13718c1.56089,4.7387 0.3811,11.84528 0.35009,16.24771c-0.00384,0.54573 -0.82744,5.4369 0.62451,6.89539c1.24605,1.25166 4.29222,0.64411 5.3845,0.62113c3.70501,0 9.44245,-1.0012 12.88136,0.12872c4.77547,1.56907 5.05006,4.29673 9.35332,6.13374c2.94257,1.25614 7.66987,0.91149 10.05019,3.76774c1.21729,1.46068 1.28368,3.58149 2.0183,5.33526c1.79514,4.28555 6.33957,7.29834 4.60414,12.52791c-0.6402,1.92919 -2.2241,3.40379 -3.27955,5.14093c-0.74855,1.23203 -0.98301,2.8911 -2.13063,3.76358c-1.42518,1.08351 -9.8228,3.3131 -11.41509,3.76804c-3.21404,0.9183 -6.28076,2.45781 -9.58949,2.93287c-5.45338,0.78298 -12.14997,0.04403 -17.68632,-0.04152l-3.65539,-1.73797c0,0 -2.68328,-1.34164 -1.34164,-4.02492z" fill="#ffffff" stroke-width="0.5"/><path d="M102.90454,203.04205c0.72365,0.38953 1.42332,1.14156 1.41751,2.59344c-0.012,2.99998 -3.01198,2.98798 -3.01198,2.98798l-4.4895,-3.00598c0.07612,-1.61732 0.74426,-3.31723 0.22836,-4.85195c-0.3807,-1.13253 -1.94227,-1.44557 -2.66509,-2.39692c-0.10594,-0.13943 -3.21653,-6.30223 -3.34092,-6.61209c-0.5896,-1.4688 -1.18645,-2.95346 -1.5015,-4.5045c-0.08918,-0.43904 0.7678,-1.34349 0.32145,-1.305c-0.50367,0.04342 -0.31489,1.02675 -0.71268,1.33873c-0.75464,0.59186 -1.81501,0.68769 -2.59051,1.25195c-2.8946,2.1061 -4.10518,5.26546 -4.5446,8.58118c0.81066,5.3957 4.16977,9.02647 4.28897,14.51061c0,0 0,3 -3,3c-3,0 -3,-3 -3,-3c0.09274,-2.6738 -0.99855,-5.08577 -2.11396,-7.55602c-2.39055,-0.37596 -2.39055,-2.95449 -2.39055,-2.95449c0.00969,-1.2471 0.07851,-2.49575 0.2188,-3.72715c-0.16032,-2.41512 -0.19313,-10.54118 -0.19987,-11.90117c-0.03681,-7.42872 -0.02291,-14.85793 -0.01957,-22.28679c-0.75029,-0.37486 -1.50086,-1.12486 -1.50086,-2.62543c0,-3 3,-3 3,-3l4.5015,3c0,8.05375 -0.02065,16.10801 0.01547,24.16173c1.29089,-1.14744 2.82938,-2.10626 4.65189,-2.82099c1.72192,-0.67528 3.54887,-2.27898 5.29333,-1.66427c1.81015,0.63786 2.43333,3.00118 3.32446,4.701c1.61597,3.08246 2.01953,7.00625 4.16659,9.90443c0.97586,1.31725 2.82465,2.05315 3.34092,3.60908c0.48334,1.4567 0.40742,3.01295 0.31233,4.57261z" fill="#ffffff" stroke-width="0.5"/><path d="M151.8203,233.99507c-2.84605,0.94868 -3.79473,-1.89737 -3.79473,-1.89737l-1.43826,-4.33249c-1.5022,-3.14106 -2.74733,-6.5422 -4.15552,-9.82516c-0.47628,0.93729 -1.13072,1.73288 -1.99499,2.24741c-1.13014,0.6728 -7.7917,0.41088 -9.77396,0.36779c-4.41319,-2.15624 -7.15445,-5.257 -11.32703,-7.83252c-1.22674,-0.7572 -2.91059,-0.96846 -3.76358,-2.13063c-3.00195,-4.09001 -2.23514,-9.32707 -2.23514,-13.97762c0,-0.47005 -0.03737,-1.87682 -0.01943,-3.4784c-0.02421,-0.4077 -0.01712,-0.81519 0.02512,-1.22114c0.06951,-2.24226 0.28334,-4.50307 0.87299,-4.92929c1.38074,-0.99805 3.17511,-1.33162 4.99831,-1.20162c1.71628,-0.27674 3.59266,-0.10261 5.31978,0.4032c5.56526,1.62985 4.59569,5.10728 8.66449,8.06264c0.06735,0.04892 7.84959,4.45177 8.27187,5.39102c0.72108,1.60385 0.36201,3.43982 0.18774,5.25126c1.01675,1.17556 1.97739,2.39115 2.78987,3.71378c3.18296,5.18146 5.09618,11.40584 7.7051,16.91788l1.56474,4.67652c0,0 0.94868,2.84605 -1.89737,3.79473zM119.20622,203.68499c0.11674,1.22927 0.37845,2.31181 0.89873,2.9759c0.49463,0.63136 1.54893,0.46946 2.24242,0.87238c3.67415,2.13465 6.06328,5.28019 9.69399,7.18249c1.75026,-0.06071 3.5322,0.7511 5.24106,0.36779c0.90074,-0.20204 0.44385,-1.88674 0.15895,-2.76479c-0.34541,-1.06452 -1.24419,-1.91383 -1.5015,-3.003c-0.15362,-0.65025 -0.13622,-1.31745 -0.0516,-1.99102c-1.33876,-1.47001 -2.73655,-2.89848 -3.96689,-4.45161c-0.63515,-0.80179 -0.59972,-2.0423 -1.31681,-2.77173c-2.00405,-2.03852 -5.33019,-2.37588 -7.37979,-4.36859c-0.87536,-0.85106 -1.46189,-2.81508 -2.677,-3.85202c-0.61638,0.03226 -1.08329,0.13323 -1.19867,0.30555c0.01685,0.11088 0.03106,0.22197 0.04295,0.33326c1.11598,3.4733 2.46032,5.42073 5.07235,7.97959c0,0 2.12132,2.12132 0,4.24264c-2.12132,2.12132 -4.24264,0 -4.24264,0c-0.32431,-0.32967 -0.66556,-0.68289 -1.01555,-1.05682z" fill="#ffffff" stroke-width="0.5"/><path d="M174.89864,179.3274c0,-0.74414 0,-1.48829 0.00001,-2.23243c0.00001,-1.4451 -0.01392,-7.47141 0.07061,-8.0739c0.27719,-1.97575 1.16921,-3.8314 1.45337,-5.80617c0.51038,-3.54693 -0.02248,-8.06934 -0.02248,-11.64546c0,0 0,-3 3,-3c3,0 3,3 3,3c0,3.84956 0.50286,8.57701 -0.02248,12.37856c-0.27445,1.98603 -1.1682,3.85156 -1.45706,5.83554c-0.02714,0.18644 -0.02197,6.42989 -0.02197,7.31142c0.00001,2.83781 0.00001,5.67563 0.00001,8.51344c0.07652,0.34583 0.09402,0.72972 0,1.13417c0,3.29064 -0.00001,6.58127 -0.00001,9.87191c0,3.91954 0.42097,8.11824 0,12.01201c-0.18628,1.723 0.34676,3.89888 -0.87868,5.12432c-1.21899,1.21899 -9.62889,0.86074 -10.75812,0.85625c-4.87482,1.21978 -10.19727,3.23857 -14.50554,-0.85625c-1.44557,-1.37395 -3.57245,-7.59579 -3.84295,-9.14828c-0.2458,-1.41074 0.3224,-2.89161 0.04152,-4.29579c-0.21952,-1.09741 -1.28945,-1.90412 -1.5015,-3.003c-0.47417,-2.45717 0.64627,-5.08989 0,-7.50751c-0.28902,-1.08119 -1.2602,-1.91017 -1.5015,-3.003c-0.65349,-2.95958 0.58746,-8.86276 1.74807,-10.96207c3.03012,-5.48083 6.55223,-4.90295 11.68219,-4.7392c1.38507,0.04421 2.89629,-0.3598 4.15105,0.22836c1.56553,0.73383 2.48649,2.40842 3.82056,3.50828c1.8357,1.51343 3.71095,2.98259 5.5449,4.49879zM174.89864,187.3448l-0.5426,-0.54372c-2.8381,-2.63869 -6.01389,-4.89155 -8.9335,-7.43975c-0.83348,-0.72745 -1.22089,-1.95597 -2.18545,-2.49773c-0.54317,-0.30508 -1.23265,0.19911 -1.85495,0.22836c-2.44585,0.11497 -5.23056,-1.29215 -6.42841,1.6371c-0.85616,2.09369 -1.79568,4.51414 -1.16236,6.68565c0.31335,1.07439 1.24419,1.91383 1.5015,3.003c0.57538,2.43546 -0.51066,5.05766 0,7.50751c0.22838,1.0956 1.28205,1.90558 1.5015,3.003c0.66058,3.3034 -0.37082,7.65325 2.20458,10.57995c1.84643,2.0983 8.63419,-0.63281 9.5305,-0.85625c2.12207,-0.00748 4.25878,-0.2714 6.3662,-0.02243c0.00127,0.00015 0.00255,0.00031 0.00382,0.00048c-0.00028,-0.00116 -0.00055,-0.00232 -0.00081,-0.00349c-0.22084,-0.97634 0,-2.002 0,-3.003c0,-3.003 0,-6.00601 0,-9.00901c0,-3.0899 -0.00001,-6.17979 -0.00001,-9.26969zM175.27034,208.99221c0.18192,0.31812 0.32088,0.70208 0.50699,0.51598c0.18806,-0.18806 -0.18835,-0.331 -0.50699,-0.51598z" fill="#ffffff" stroke-width="0.5"/><path d="M214.34296,186.0997c0.82084,-1.34708 2.1403,-2.40356 2.72646,-3.86808c0.3497,-0.87373 -0.27621,-1.90977 -0.04847,-2.82291c0.27083,-1.08589 1.22819,-1.91774 1.5015,-3.003c0.22749,-0.90333 -0.22667,-1.88134 -0.04152,-2.79429c0.31063,-1.53163 0.93074,-2.98185 1.44409,-4.46015c-1.30721,-1.0557 -2.6467,-1.98286 -3.93602,-2.72376c-0.99972,-0.57448 -3.41217,1.2171 -3.71568,1.33873c-0.56801,0.22763 -1.42923,-0.09687 -1.79269,0.39541c-0.29591,0.40078 0.3979,0.93016 0.44805,1.42581c0.25249,2.49577 0,5.01702 0,7.52553c0,4 0,8 0,12c0,1.87555 -0.26596,3.77178 -0.28279,5.64658c1.13464,-2.93748 2.05456,-5.96436 3.69707,-8.65987zM224.40345,174.57251c-0.20693,1.05047 0.21648,2.1726 -0.04152,3.21172c-0.26968,1.08618 -1.2295,1.91741 -1.5015,3.003c-0.25791,1.02934 0.34547,2.19777 -0.04847,3.1831c-0.75459,1.88738 -2.24495,3.39129 -3.27955,5.14093c-1.81719,3.0731 -2.50321,6.5428 -4.17949,9.69399l0.08025,2.31374c0,0 0,0.25767 -0.07551,0.62197c1.5636,2.11126 2.66298,4.53537 3.90251,6.86994c1.7279,-0.0293 3.45684,0.00192 5.18502,0.0186c0.33308,0.00322 3.2302,0.4181 3.73673,-0.46375c0.61143,-1.06446 0.62945,-2.37309 0.93546,-3.5619c1.22742,-4.76835 2.41961,-11.50227 1.37555,-16.51783c-0.32255,-1.54951 -1.19106,-2.95253 -1.5015,-4.5045c-0.34576,-1.72856 -0.38813,-3.59263 -1.22352,-5.14491c-0.76594,-1.58487 -1.86201,-3.18897 -3.1514,-4.71654c-0.08367,0.28075 -0.15633,0.56445 -0.21306,0.85244zM195.29685,194.49317c2.12132,-2.12132 4.24264,0 4.24264,0l3.003,3.003c1.24983,1.24983 2.35861,2.67007 3.54365,3.99629c-0.46306,-0.84931 -0.81624,-1.76568 -1.07721,-2.68721c-0.88033,-3.10862 -0.08025,-6.4614 -0.08025,-9.69226c0,-4 0,-8 0,-12c0,-2.30315 -0.86704,-10.07787 0.44805,-12.10572c0.89868,-1.38576 2.76749,-1.80912 4.21331,-2.60759c2.52427,-1.39405 5.20585,-2.91562 8.29633,-1.66427c2.19593,0.88915 3.93163,2.6548 5.77451,4.14359c3.92096,3.16758 7.1926,6.42517 9.4736,10.87433c0.57932,1.21846 1.39953,2.34935 1.73797,3.65539c0.26857,1.03643 -0.16843,2.16184 0.04152,3.21172c0.31035,1.55199 1.20184,2.95041 1.5015,4.5045c1.10919,5.75255 0.12099,13.74642 -1.53488,19.14791c-0.60627,1.97766 -0.85357,4.21377 -2.16012,5.81741c-2.37166,2.91093 -5.19025,2.51371 -8.27528,2.53926c-1.15475,0.00956 -2.34455,0.14905 -3.53346,0.27316c-0.201,0.25145 -0.46545,0.49582 -0.80844,0.72449c-2.12307,1.41538 -3.64422,-0.17882 -4.05151,-0.68699c-0.6047,-0.10822 -1.19449,-0.28021 -1.76365,-0.53902c-1.42857,-0.64962 -2.08363,-2.42 -3.43215,-3.22269c-1.36002,-0.80954 -3.18633,-0.62547 -4.5045,-1.5015c-0.41621,-0.2766 -6.9866,-6.87311 -8.05163,-7.93814l-3.003,-3.003c0,0 -2.12132,-2.12132 0,-4.24264zM210.16524,204.90974c-0.32177,-0.26212 -0.70559,-0.45477 -1.09951,-0.63648c0.14417,0.10304 0.29081,0.20306 0.44014,0.29979c0.20883,0.13527 0.42987,0.24486 0.65937,0.33669z" fill="#ffffff" stroke-width="0.5"/><path d="M322.04279,169.59047c3,0 3,3 3,3l-0.50385,3.1656c-0.87596,1.23659 -2.16464,2.26689 -2.62788,3.70976c-0.44067,1.37256 0.32898,2.91041 0.04847,4.32441c-0.21871,1.10248 -1.28237,1.9157 -1.50494,3.0174c-0.28827,1.42692 0.21714,2.92586 0.01308,4.36724c-0.27967,1.9754 -1.11998,3.83912 -1.45337,5.80617c-0.34089,2.01133 0.38354,4.11955 -0.01626,6.12c-0.38778,1.94028 -2.65408,9.04087 -5.01558,9.87301c-1.74446,0.61471 -3.57372,-0.98312 -5.29333,-1.66427c-5.34754,-2.11822 -6.01391,-5.41732 -8.7606,-10.18651c-0.93585,-1.62497 -2.26368,-3.01547 -3.10322,-4.69223c-1.74292,-3.48104 -2.39606,-7.66205 -5.54406,-10.43057c-0.33656,-0.29599 0.33455,0.83163 0.50183,1.24745c-1.25376,3.81495 -2.0105,5.76789 -2.81587,9.85195c-0.26236,1.33045 0.17559,2.86105 -0.49885,4.0375c-1.08709,1.89627 -3.17828,3.02296 -4.5324,4.73876c-2.89183,3.66419 -2.30892,7.51801 -7.29168,10.02652c-1.23777,0.62314 -2.76572,0.26322 -4.15105,0.22836c-1.53353,-0.03859 -3.30502,0.40468 -4.5802,-0.44805c-1.43584,-0.96016 -1.99237,-2.84686 -2.70201,-4.42165c-4.03901,-8.96308 -4.35889,-19.37913 -7.54346,-28.621c-1.13312,-3.28841 -3.58399,-6.03739 -4.6106,-9.36059c-0.36335,-1.1762 -0.0535,-2.46151 -0.08025,-3.69226c0,0 0,-3 3,-3c3,0 3,3 3,3c-0.15056,4.34076 2.94388,7.01835 4.31816,10.97117c2.63195,7.57026 3.71407,15.78528 5.89198,23.50081c0.46924,1.66233 1.10086,3.27562 1.57958,4.93525c0.14899,0.51651 -0.14807,1.28886 0.301,1.58436c0.41616,0.27385 0.92874,-0.41476 1.42581,-0.44805c0.62159,-0.04162 1.29593,0.50333 1.85495,0.22836c2.5854,-1.27171 3.12165,-5.98416 4.72033,-7.9915c1.13098,-1.42008 2.97689,-2.21578 3.95288,-3.74653c0.44664,-0.70051 -0.12228,-1.67458 0.02488,-2.49223c0.77392,-4.30021 1.84815,-7.11803 3.19014,-11.16907c1.16828,-1.58619 1.54272,-4.58263 3.50483,-4.75856c2.75772,-0.24726 5.26356,2.01494 7.39583,3.78118c4.46101,3.69525 2.90202,5.45378 5.07813,9.81228c1.63847,3.28166 3.68866,6.34129 5.49369,9.53437c0.73824,1.30592 2.48367,1.68742 3.66351,2.61392c0.3976,0.31222 0.20901,1.29531 0.71268,1.33873c0.44635,0.03848 -0.40619,-0.86509 -0.32145,-1.305c0.25566,-1.32729 1.04654,-2.51161 1.31188,-3.837c0.38554,-1.9258 -0.32794,-3.95289 -0.01626,-5.89201c0.31816,-1.97949 1.17118,-3.85113 1.45706,-5.83554c0.23827,-1.65399 -0.22277,-3.3736 0.10566,-5.01208c0.21901,-1.09261 1.27789,-1.89622 1.49806,-2.9886c0.30854,-1.53083 -0.45847,-3.20756 0.04847,-4.6846c0.68003,-1.98135 2.25209,-3.53284 3.37813,-5.29925l-0.50385,0.1626c0,0 0,-3 3,-3z" fill="#ffffff" stroke-width="0.5"/><path d="M364.08183,205.6235c0,3 -3,3 -3,3h-1.5015c-2.02723,-0.14935 -4.26607,0.466 -6.0817,-0.44805c-1.33172,-0.67044 -1.43527,-2.62973 -2.35803,-3.80082c-1.78546,-2.26597 -4.24773,-4.28327 -4.99052,-7.07088c-0.31697,-1.18954 -0.0682,-2.46128 -0.08025,-3.69226c-0.04408,-4.50211 0,-9.01156 0,-13.51351c0,-10.51051 0,-21.02102 0,-31.53153c0,0 0,-3 3,-3c3,0 3,3 3,3c0,15.01095 0.17667,30.03497 0,45.04505c-0.05107,4.33891 1.40339,3.6359 3.93823,7.25488c0.43937,0.62729 -0.04225,1.86715 0.64497,2.20518c0.88578,0.4357 1.95154,-0.2987 2.92731,-0.44805h1.5015c0,0 3,0 3,3z" fill="#ffffff" stroke-width="0.5"/><path d="M373.97553,167.20428c-2.12132,-2.12132 0,-4.24264 0,-4.24264l1.10774,-1.01553c0.93797,-1.4174 2.15023,-2.68749 2.81391,-4.25221c1.26649,-2.9859 0.87766,-7.97263 4.12998,-10.17791c1.26966,-0.86091 3.05346,-0.2987 4.5802,-0.44805c0,0 0.28308,0 0.67533,0.08696c0.24641,-0.05586 0.52074,-0.08696 0.82617,-0.08696c3,0 3,3 3,3c0,16.10879 0,33.4873 0,49.80031c0.88454,-0.05015 1.76149,-0.12322 2.62814,-0.22537c4.72564,-0.55697 7.67044,-2.92772 12.38987,-3.02539h3.003c0,0 3,0 3,3c0,3 -3,3 -3,3h-3.003c-4.1186,-0.13431 -7.33262,2.43094 -11.65817,2.98061c-1.27919,0.16255 -2.58246,0.26101 -3.90077,0.3145c-0.41656,0.64157 -1.15391,1.2094 -2.45908,1.2094c-1.28531,0 -2.01994,-0.55067 -2.43983,-1.18016c-3.72485,-0.07775 -7.48043,-0.32134 -11.07368,-0.32134c0,0 -3,0 -3,-3c0,-3 3,-3 3,-3c3.42078,0 6.97902,0.22509 10.51351,0.30932c0,-15.75156 0,-31.50312 0,-47.25468c-0.32331,0.30128 -0.08241,0.97616 -0.19235,1.43664c-0.47744,1.99971 -0.70226,4.09094 -1.51841,5.97792c-0.80573,1.8629 -2.18978,3.41807 -3.28467,5.1271l-1.89526,1.98747c0,0 -2.12132,2.12132 -4.24264,0z" fill="#ffffff" stroke-width="0.5"/><path d="M439.15991,202.61749c-3,0 -3,-3 -3,-3l0.15357,-2.44905c0.46219,-1.34764 1.19154,-2.63164 1.38657,-4.04292c0.27568,-1.99491 -0.27418,-4.04746 0.00704,-6.04159c0.46607,-3.30487 2.49115,-6.20684 3.39358,-9.4201c2.36324,-8.41478 2.5491,-17.00592 2.59855,-25.65875c-1.40893,-4.53428 -2.23079,-9.76021 -4.19298,-14.05708c-0.35619,-0.78 -1.16837,-1.26951 -1.69065,-1.94752c-0.23693,2.22119 -1.40587,3.76445 -2.76553,6.60882c-1.68146,3.51755 -3.23821,7.10085 -4.59551,10.75574c-2.09817,5.64986 -3.30209,11.26949 -4.92953,17.05684c-1.60524,5.70838 -3.60527,11.07754 -4.81257,16.66966c0.08327,4.04147 -0.14213,8.15156 0.3877,12.0454c0.28849,2.12012 1.76115,4.73018 2.72502,6.64641c0,0 1.34164,2.68328 -1.34164,4.02492c-2.68328,1.34164 -4.02492,-1.34164 -4.02492,-1.34164c-1.34519,-2.70467 -2.82404,-5.29056 -3.28098,-8.3686c-0.03365,-0.22666 -0.05807,-0.508 -0.07516,-0.8324c-1.46508,-0.79071 -1.46508,-2.65115 -1.46508,-2.65115c0.01324,-3.75242 0.51026,-7.29352 1.26664,-10.75599c-0.9951,-12.92517 -3.00729,-25.51688 -7.11869,-37.84488l-0.15395,-2.45018c0,0 0,-3 3,-3c3,0 3,3 3,3l-0.15395,0.55282c1.67541,5.0287 3.45106,10.2081 4.6019,15.38393c0.62071,2.7916 1.00252,5.69491 1.28949,8.62728c0.13252,-0.45599 0.26366,-0.91404 0.39295,-1.37443c2.79571,-9.95536 5.27804,-19.42715 9.89104,-28.76476c0.67951,-1.37547 1.71888,-2.61489 2.07891,-4.10621c0.5293,-2.19247 -1.69509,-10.09308 4.10913,-9.81845c2.87627,0.13609 4.38412,3.74503 6.40683,5.79443c4.71454,4.77676 5.56258,13.01576 7.38793,19.27576c0.04698,9.50776 -0.16905,18.908 -2.75785,28.15026c-0.84742,3.02537 -2.86812,5.72594 -3.26204,8.84296c-0.24902,1.97047 0.2962,3.99343 0.00704,5.95841c-0.254,1.72606 -1.07762,3.31873 -1.61643,4.9781l0.15357,0.55396c0,0 0,3 -3,3z" fill="#ffffff" stroke-width="0.5"/><path d="M441.54309,217.01569c2.12132,-2.12132 4.24264,0 4.24264,0l-0.61982,0.62282c2.50242,0 5.00485,0 7.50727,0c4.82358,-0.00075 10.04973,0.59197 14.82272,-0.02242c1.94784,-0.25073 3.7798,-1.0945 5.71315,-1.43956c0.81786,-0.14597 1.79172,0.42176 2.49223,-0.02488c1.53075,-0.97599 2.30987,-2.84303 3.74653,-3.95288c0.60607,-0.4682 1.86715,0.04225 2.20518,-0.64497c0.4357,-0.88578 -0.37368,-1.94298 -0.44805,-2.92731c-0.07541,-0.99816 -0.10075,-2.00709 0,-3.003c0.05014,-0.49565 0.78005,-1.05438 0.44805,-1.42581c-0.65233,-0.7298 -2.13931,-0.32319 -2.71741,-1.11309c-1.12914,-1.54281 -1.28834,-3.60198 -2.02471,-5.36635c-1.42673,-3.41852 -2.75615,-6.88336 -4.37,-10.21763c-0.60007,-1.23976 -1.07091,-2.68549 -2.16892,-3.51703c-1.36015,-1.03006 -3.60518,-0.55111 -4.80484,-1.7643c-1.26698,-1.28126 -0.99188,-3.5115 -1.93213,-5.04863c-0.70243,-1.14833 -2.22488,-1.65278 -2.88478,-2.82607c-0.98341,-1.7485 -2.26257,-3.73029 -1.91382,-5.70582c0.22746,-1.2885 2.70683,-0.9623 3.2971,-2.13001c0.56082,-1.10945 -0.22878,-2.47574 -0.34317,-3.71361c2.59875,-4.59957 3.32779,-6.45786 6.90318,-10.45771c1.12396,-1.25739 2.69216,-2.08884 3.73081,-3.41756c0.77797,-0.99523 -0.86468,-2.37838 -1.41314,-3.51631c-0.34933,-0.72477 -0.35471,-1.67079 -0.93954,-2.22332c-0.6146,-0.58066 -1.5725,-0.67988 -2.33817,-1.04204c-0.02676,0.64235 -0.05789,1.28515 -0.04802,1.92372v3.003c0,1.65685 -1.34315,3 -3,3c-1.34952,0 -2.49092,-0.89107 -2.86793,-2.11694l-1.47963,-4.43888l0.11304,-0.03768c-0.07824,-0.14218 -0.15439,-0.28563 -0.22825,-0.43046c-0.35486,-0.69579 0.51983,-1.62767 0.18962,-2.3355c-1.25362,-2.68725 -5.2787,-3.00874 -7.11999,-5.33308c-1.14074,-1.44001 -1.37612,-3.41339 -1.88902,-5.17744c-0.54627,-1.87883 -2.28547,-4.04863 -1.28182,-5.72825c0.83742,-1.40141 6.6219,-1.56408 8.55796,-1.42281c0.2986,0.02179 0.60948,0.01921 0.92558,0.0074c0.35053,-0.08574 0.67715,-0.09331 0.9766,-0.04889c1.05841,-0.04929 2.09539,-0.03026 2.85496,0.60776c1.30686,1.09774 1.28959,3.1331 1.9693,4.72529c0.13184,0.2282 0.25595,0.46029 0.37004,0.69743c0.7296,1.09795 2.05674,1.70343 2.84476,2.76438c1.24178,1.6719 1.17676,4.20858 2.6906,5.63882c0.8135,0.76858 2.22846,0.69367 3.003,1.5015c0.32296,0.33684 3.68856,6.83491 3.80143,7.43807c1.12449,6.00892 -0.97144,5.30841 -4.90258,9.90803c-2.86889,3.35675 -3.46267,4.57507 -5.63256,8.08404c-0.11439,1.76513 0.44127,3.71002 -0.34317,5.2954c-0.42073,0.85031 -1.94058,0.31648 -2.70891,0.87299c-0.305,0.22091 0.7989,0.06026 1.08918,0.30019c1.14482,0.94626 2.36925,1.89911 3.12123,3.17994c0.69237,1.17931 0.09689,3.00042 1.07087,3.96038c1.04051,1.02553 3.08387,0.30099 4.20417,1.2387c1.71249,1.43339 2.76547,3.53268 3.83709,5.49198c1.88059,3.43841 3.24841,7.13931 4.63901,10.80339c0.4461,1.17544 0.21049,2.6471 0.97829,3.64266c0.77213,1.00117 2.65629,0.79506 3.28859,1.88991c0.76718,1.3284 0.35757,3.04885 0.44805,4.5802c0.1089,1.84313 -0.1476,8.4879 -0.44805,9.0847c-0.67044,1.33172 -2.64049,1.42178 -3.80082,2.35803c-1.70108,1.37257 -2.84249,3.44531 -4.73876,4.5324c-1.17646,0.67444 -2.70717,0.23592 -4.0375,0.49885c-1.99746,0.39478 -3.90824,1.21788 -5.92856,1.47087c-5.02822,0.62965 -10.49877,0.06937 -15.57761,0.07016c-2.50258,0 -5.00516,0 -7.50774,0l-3.62282,-2.38018c0,0 -2.12132,-2.12132 0,-4.24264zM458.72548,129.03508c-0.01545,0.00383 -0.0308,0.0068 -0.04605,0.00883c-0.41781,0.05564 -0.85209,0.13203 -1.28401,0.17335c0.13248,0.88677 0.12066,1.8416 0.66512,2.51318c0.61736,0.7615 1.4857,1.39745 2.43152,2.00179c0.10732,-0.80374 0.13078,-1.58919 -0.17941,-2.31446c-0.37626,-0.87975 -0.97581,-1.63453 -1.58718,-2.38269z" fill="#ffffff" stroke-width="0.5"/></g></g></svg>