<svg version="1.1" xmlns="http://www.w3.org/2000/svg" xmlns:xlink="http://www.w3.org/1999/xlink" width="715" height="586" viewBox="0,0,715,586"><g transform="translate(42.5,36.75)"><g data-paper-data="{&quot;isPaintingLayer&quot;:true}" fill-rule="nonzero" stroke-linejoin="miter" stroke-miterlimit="10" stroke-dasharray="" stroke-dashoffset="0" style="mix-blend-mode: normal"><path d="M-27.75,548.25v-584h584v584z" fill="#00fff9" stroke="#000000" stroke-width="2" stroke-linecap="butt"/><path d="M-41.5,34l713,222" fill="none" stroke="#000000" stroke-width="2" stroke-linecap="round"/><g><path d="M208.99718,105.21898c0.27386,6.34537 -8.00281,11.8561 -18.48646,12.30856c-10.48365,0.45246 -19.20434,-4.32467 -19.4782,-10.67004c-0.27386,-6.34537 9.26059,-5.9048 19.74424,-6.35726c10.48365,-0.45246 17.94655,-1.62663 18.22041,4.71874z" fill="none" stroke="#000000" stroke-width="2" stroke-linecap="butt"/><g><path d="M151.71491,273.84577c0,0 4.81402,-21.26304 8.60262,-37.99693c4.8663,-21.49397 17.50276,-77.30795 25.5348,-112.78462c4.13921,-18.28245 3.7061,-16.00535 3.7061,-16.00535" fill="none" stroke="#000000" stroke-width="2" stroke-linecap="round"/><path d="M152.82542,268.65416l-12.70319,61.2714" fill="none" stroke="#000000" stroke-width="2" stroke-linecap="round"/><path d="M142.84982,334.67342l-7.83074,-1.63696l7.36629,-35.2383l7.83074,1.63696z" fill="#797979" stroke="#000000" stroke-width="2" stroke-linecap="butt"/><g><path d="M159.2295,274.02191c-0.35721,-8.27657 6.0627,-15.27562 14.33927,-15.63283c8.27657,-0.35721 15.27562,6.0627 15.63283,14.33927c0.35721,8.27657 -6.0627,15.27562 -14.33927,15.63283c-8.27657,0.35721 -15.27562,-6.0627 -15.63283,-14.33927z" fill="#c19f67" stroke="#000000" stroke-width="2" stroke-linecap="butt"/><path d="M180.53922,273.72702c-0.02253,0.06354 -0.05132,0.12422 -0.08566,0.18125c-0.39138,0.79504 -0.90686,1.40143 -1.55867,1.51625c-0.6247,0.11005 -0.88101,-0.91299 -1.33268,-1.35835c-1.2783,-1.26044 -1.87278,-2.63914 -2.32342,-4.3693c-1.52322,0.14449 -3.05317,0.44598 -4.56817,0.29643c-2.76721,-0.27315 -5.42589,-1.24144 -8.17393,-1.66612c0,0 -2.47031,-0.38413 -2.08618,-2.85444c0.14034,-0.9025 0.55913,-1.424 1.03417,-1.72245c0.26142,-1.22235 1.54055,-1.751 1.54055,-1.751c3.02604,-1.25022 6.5053,-2.95393 9.99372,-3.32671c2.56638,-0.80884 6.18247,0.09821 7.9569,0.94715c1.37289,0.65683 2.18788,1.36676 2.77551,2.20781l0.02072,-0.01977l1.82625,1.91391c0.40854,0.4237 0.66995,0.99255 0.69733,1.62682c0.00052,0.01216 0.00097,0.0243 0.00131,0.03643c0.70179,0.08258 2.14805,0.48215 2.22951,2.36962c0.1078,2.49767 -2.38988,2.60547 -2.38988,2.60547l-1.99814,0.08624c-0.90198,0.03035 -1.79977,-0.04827 -2.69566,-0.17023c-0.08858,0.96748 -0.36677,2.35655 -0.86357,3.451z" fill="#000000" stroke="none" stroke-width="0.5" stroke-linecap="butt"/><path d="M166.00108,271.47756l-0.28394,5.01691" fill="none" stroke="#ffffff" stroke-width="2" stroke-linecap="round"/><path d="M171.26593,277.50615l0.05573,-4.50659" fill="none" stroke="#ffffff" stroke-width="2" stroke-linecap="round"/><path d="M173.78516,277.89789l-1.92268,1.83461" fill="none" stroke="#ffffff" stroke-width="1" stroke-linecap="round"/><path d="M164.5761,279.04604l-1.84539,-2.17245" fill="none" stroke="#ffffff" stroke-width="1" stroke-linecap="round"/><path d="M171.70434,281.8663c0.04465,1.03457 -1.96776,0.96074 -3.20925,1.01432c-1.24148,0.05358 -2.2841,-0.74167 -2.32876,-1.77624c-0.04465,-1.03457 0.92558,-1.91669 2.16706,-1.97027c1.24148,-0.05358 3.32629,1.69762 3.37094,2.73219z" fill="#000000" stroke="none" stroke-width="0" stroke-linecap="butt"/><path d="M182.42934,317.29829c-0.7695,11.7108 -6.14004,20.89237 -11.99544,20.50762c-5.8554,-0.38475 -9.97834,-10.19012 -9.20884,-21.90092c0.7695,-11.7108 6.14004,-20.89237 11.99544,-20.50762c5.8554,0.38475 9.97834,10.19012 9.20884,21.90092z" fill="#ff0000" stroke="#000000" stroke-width="2" stroke-linecap="butt"/><path d="M151.1625,252.34959c-0.1786,-4.13829 3.03134,-7.63781 7.16963,-7.81642c4.13829,-0.1786 7.63781,3.03134 7.81642,7.16963c0.1786,4.13829 -3.03134,7.63781 -7.16963,7.81642c-4.13829,0.1786 -7.63781,-3.03134 -7.81642,-7.16963z" fill="#ff0000" stroke="#000000" stroke-width="2" stroke-linecap="butt"/><path d="M153.80215,249.73334c-0.19051,-4.41417 3.23344,-8.147 7.64761,-8.33751c4.41417,-0.19051 8.147,3.23344 8.33751,7.64761c0.19051,4.41417 -3.23344,8.147 -7.64761,8.33751c-4.41417,0.19051 -8.147,-3.23344 -8.33751,-7.64761z" fill="#ff0000" stroke="#000000" stroke-width="2" stroke-linecap="butt"/><path d="M165.033,346.44738c2.6283,1.0505 3.22194,5.74767 1.32593,10.49142c-1.89601,4.74377 -5.56369,7.73775 -8.19199,6.68726c-2.6283,-1.0505 -3.22194,-5.74767 -1.32593,-10.49142c1.89601,-4.74377 5.56369,-7.73775 8.19199,-6.68726z" fill="#ff0000" stroke="#000000" stroke-width="2" stroke-linecap="butt"/><path d="M180.90753,355.95505c0.24112,5.58668 -1.96765,10.21935 -4.93342,10.34735c-2.96577,0.128 -5.56546,-4.29714 -5.80658,-9.88382c-0.24112,-5.58668 1.96765,-10.21935 4.93342,-10.34735c2.96577,-0.128 5.56546,4.29714 5.80658,9.88382z" fill="#ff0000" stroke="#000000" stroke-width="2" stroke-linecap="butt"/></g><path d="M131.23781,330.86508c-0.22028,-5.10388 3.73867,-9.41997 8.84255,-9.64025c5.10388,-0.22028 9.41997,3.73867 9.64025,8.84255c0.22028,5.10388 -3.73867,9.41997 -8.84255,9.64025c-5.10388,0.22028 -9.41997,-3.73867 -9.64025,-8.84255z" fill="#000000" stroke="#3eff00" stroke-width="2" stroke-linecap="butt"/></g></g><g stroke="#00ff08" stroke-width="2"><path d="M88.4826,323.58643c-2.18784,-8.84617 3.2098,-17.79099 12.05596,-19.97883c8.84617,-2.18784 17.79099,3.2098 19.97883,12.05596c2.18784,8.84617 -3.2098,17.79099 -12.05596,19.97883c-8.84617,2.18784 -17.79099,-3.2098 -19.97883,-12.05596z" fill="#000000" stroke-linecap="butt"/><path d="M116.01684,321.06886l-0.86992,-7.68252" fill="none" stroke-linecap="round"/><path d="M110.62022,313.13239l0.70639,8.40971" fill="none" stroke-linecap="round"/><path d="M112.40166,312.00504l-5.33047,-2.11543" fill="none" stroke-linecap="round"/><path d="M114.46855,325.91568c0,0 -2.80133,-0.92643 -3.63662,-1.57789c-0.701,-0.54671 -2.094,-2.15546 -2.094,-2.15546" fill="none" stroke-linecap="round"/></g><path d="M95.01242,336.83046c3.84122,4.88354 -2.10632,15.96985 -13.28419,24.76197c-11.17788,8.79212 -23.35326,11.96065 -27.19447,7.07712c-3.84122,-4.88354 2.10632,-15.96985 13.28419,-24.76197c11.17788,-8.79212 23.35326,-11.96065 27.19447,-7.07712z" fill="#000000" stroke="#00ff08" stroke-width="2" stroke-linecap="butt"/><path d="M44.02308,350c0,-5.52285 4.47715,-10 10,-10c5.52285,0 10,4.47715 10,10c0,5.52285 -4.47715,10 -10,10c-5.52285,0 -10,-4.47715 -10,-10z" fill="#000000" stroke="#00ff08" stroke-width="2" stroke-linecap="butt"/></g></g></svg>