<svg version="1.1" xmlns="http://www.w3.org/2000/svg" xmlns:xlink="http://www.w3.org/1999/xlink" width="554.05405" height="522.52252" viewBox="0,0,554.05405,522.52252"><g transform="translate(33.81306,81.16329)"><g data-paper-data="{&quot;isPaintingLayer&quot;:true}" fill-rule="nonzero" stroke="none" stroke-linecap="butt" stroke-linejoin="miter" stroke-miterlimit="10" stroke-dasharray="" stroke-dashoffset="0" style="mix-blend-mode: normal"><path d="M-33.81306,441.35923v-522.52252h554.05405v522.52252z" fill="#000000" stroke-width="none"/><path d="M6.72748,88.50338c-3,0 -3,-3 -3,-3v-1.5015c0,-6.50792 -0.04116,-13.01772 0,-19.52553c0.0141,-2.22987 -0.27891,-4.48846 0.08025,-6.68926c0.18026,-1.10454 1.21654,-1.92074 1.5015,-3.003c1.06617,-4.0492 -0.66702,-7.7962 1.04288,-12.15152c0.74378,-1.89451 2.66957,-3.11265 3.64265,-4.90024c0.42229,-0.77577 0.28081,-1.74432 0.44659,-2.61189c0.20896,-1.09361 2.37024,-11.98642 2.65011,-12.59419c0.55343,-1.20185 2.21524,-1.58936 2.87639,-2.73548c0.31129,-0.53964 -0.15224,-1.23664 -0.22836,-1.85495c0,0 0,-3 3,-3c3,0 3,3 3,3c-0.07612,1.38368 0.3429,2.8885 -0.22836,4.15105c-0.62201,1.37472 -2.47498,1.91104 -3.12962,3.27053c-2.08997,4.34026 -0.67192,10.4689 -2.90931,14.82395c-0.89783,1.74762 -2.79948,2.88705 -3.55735,4.69976c-1.46426,3.50232 0.08579,7.7189 -0.76613,11.28151c-0.26028,1.08847 -1.31292,1.89985 -1.5015,3.003c-0.29833,1.74513 0.06769,3.54034 0.08025,5.31074c0.04617,6.50763 0,13.01776 0,19.52553v1.5015c0,0 0,3 -3,3z" fill="#ffffff" stroke-width="0.5"/><path d="M60.77853,64.48236c0,3 -3,3 -3,3c-10.01001,0 -21.52152,0 -31.53153,0c0,0 -3,0 -3,-3c0,-3 3,-3 3,-3c10.01001,0 20.02002,0 30.03003,0h1.5015c0,0 3,0 3,3z" fill="#ffffff" stroke-width="0.5"/><path d="M75.15449,106.39566c-2.87426,0.85944 -3.7337,-2.01482 -3.7337,-2.01482l-1.66792,-5.66336c-0.06412,-1.96521 0.18597,-3.96611 -0.19236,-5.89563c-0.75415,-3.84625 -2.99696,-7.2553 -4.15622,-10.99943c-1.47663,-4.76912 -2.54987,-10.6128 -3.10365,-15.54294c-0.61106,-5.44003 -0.0146,-11.34785 -0.0146,-16.81814c0,-8.4415 -0.98985,-17.61712 0.03874,-26.00007c0.40502,-3.3009 2.06655,-6.32216 3.11822,-9.47715c0,0 0.94868,-2.84605 3.79473,-1.89737c2.84605,0.94868 1.89737,3.79473 1.89737,3.79473c-0.95036,2.85107 -2.5482,5.55483 -2.88779,8.54087c-0.92008,8.0903 0.03874,16.89586 0.03874,25.03897c0,5.26777 -0.61122,10.98974 -0.0146,16.22691c0.52476,4.60632 1.51531,10.04564 2.90235,14.48709c0.37789,1.21004 4.08748,10.56825 4.27074,11.47247c0.40396,1.99323 0.15265,4.06465 0.22897,6.09697l1.4958,4.91718c0,0 0.85944,2.87426 -2.01482,3.7337z" fill="#ffffff" stroke-width="0.5"/><path d="M102.82357,64.48536h3.003c1.77245,0 3.60442,0.53798 5.31675,0.08025c1.08119,-0.28902 1.91034,-1.25946 3.003,-1.5015c0.69867,-0.15476 1.53671,0.78921 2.11507,0.36779c0.90451,-0.65907 0.48902,-2.52616 1.5015,-3.003c1.20134,-0.56579 2.84676,1.15396 3.96038,0.43063c0.83946,-0.54525 -0.76248,-2.35445 0,-3.003c1.15631,-0.98354 3.03916,-0.33613 4.48165,-0.80903c2.47179,-0.81034 4.86528,-2.01298 7.40977,-2.49711c-1.02552,-0.34896 -2.13718,-0.68297 -2.88241,-1.46022c-0.99403,-1.03675 -1.37564,-2.52179 -2.06346,-3.78268c0,0 -0.67411,-1.34821 -0.11099,-2.61114c-1.31181,-1.6202 -2.66528,-3.2106 -3.93807,-4.8594c-0.94498,-1.22415 -1.6702,-2.64895 -2.81762,-3.68575c-1.36511,-1.23352 -3.10445,-1.9775 -4.61395,-3.02941c-1.00819,-0.70256 -1.74966,-1.90621 -2.9348,-2.23099c-1.0883,-0.29824 -2.58016,-0.31849 -3.34671,0.50961c-1.0294,1.11204 -0.72139,2.94631 -1.1872,4.38829c-0.61479,1.90316 -1.36737,3.75903 -2.05176,5.63829c-2.49968,6.86385 -4.9823,14.30927 -6.69026,21.63629c0.84547,-0.57791 1.84611,-0.57791 1.84611,-0.57791zM127.49027,62.90821c-0.56008,0.13122 -1.19612,-1.28145 -1.52435,-0.80903c-0.57116,0.82206 0.82771,2.44007 0,3.003c-1.3966,0.94984 -3.55272,-0.35354 -5.04863,0.43063c-0.99122,0.51961 -0.5525,2.40979 -1.5015,3.003c-1.10469,0.69054 -2.63358,0.02686 -3.89094,0.36779c-1.08015,0.29288 -1.91383,1.24419 -3.003,1.5015c-0.43177,0.10201 -5.92618,0.08025 -6.69526,0.08025h-3.003c0,0 -1.90811,0 -2.68082,-1.52175c-0.12411,0.64023 -0.24116,1.27858 -0.35062,1.91455c-0.779,4.52618 0.02543,10.02627 0.02543,14.6132l-0.02248,4.14997l1.35929,5.35291l0.93546,3.5619l1.88178,0.69211l4.19522,1.39278l5.35614,1.35898l5.64098,0.00684l3.18668,0.01605l5.99245,-0.00001h3.00901v6h-3.00901l-6.00755,-0.00001l-3.20179,-0.01611l-6.35886,-0.05358l-6.28557,-1.55144l-4.81379,-1.61022l-4.12423,-2.3109l-2.16012,-5.81741l-1.55114,-6.2888l-0.02248,-4.88307c0,-4.89083 -0.77295,-10.55356 0.02543,-15.3928c1.57632,-9.55449 4.88604,-19.64693 8.18643,-28.72335c0.51787,-1.42419 4.24732,-11.97139 4.96809,-12.52657c6.08219,-4.68484 8.94329,-1.66995 13.51887,1.28083c7.61874,4.91331 13.01567,12.33843 17.44628,20.21338c1.98769,0.80347 3.83544,1.83343 2.69543,5.04143c0.29852,0.58368 0.59329,1.16742 0.88479,1.75043c0,0 1.34164,2.68328 -1.34164,4.02492c-2.68328,1.34164 -4.02492,-1.34164 -4.02492,-1.34164c-0.12994,-0.25987 -0.25711,-0.52134 -0.38224,-0.78397c-3.28256,1.69519 -7.36608,3.65448 -8.30382,3.87418z" fill="#ffffff" stroke-width="0.5"/><path d="M179.60427,103.51144c-2.99305,0.20412 -3.19717,-2.78892 -3.19717,-2.78892l-0.02136,-0.31327c-0.37317,-5.62204 -1.1866,-11.51385 -2.82621,-16.93527c-0.33302,-1.10113 -1.2063,-1.98941 -1.53083,-3.09308c-0.91133,-3.09928 -0.69215,-6.48492 -1.78075,-9.52647c-0.71044,-1.98498 -2.24125,-3.64363 -2.77656,-5.68282c-0.44014,-1.67665 -0.06783,-3.46635 -0.08025,-5.19977c-0.02662,-3.71468 -0.86304,-12.43698 0.12872,-15.87836c0.58009,-2.01288 2.25209,-3.53284 3.37813,-5.29925c0,0 1.6641,-2.49615 4.16025,-0.83205c2.49615,1.6641 0.83205,4.16025 0.83205,4.16025c-0.87596,1.23659 -2.21563,2.2515 -2.62788,3.70976c-0.46539,1.64624 0.10167,3.42011 0.12872,5.13065c0.04748,3.00263 0.02454,6.00611 0,9.00901c-0.01041,1.27399 -0.42706,2.59533 -0.08025,3.82125c0.51501,1.82046 1.95921,3.26666 2.59,5.0503c1.10542,3.1257 0.91222,6.5939 1.8617,9.77044c0.31157,1.04237 1.1592,1.87098 1.47218,2.91293c1.78657,5.9477 2.70636,12.31039 3.13707,18.47424l0.02136,0.31327c0,0 0.20412,2.99305 -2.78892,3.19717z" fill="#ffffff" stroke-width="0.5"/><path d="M210.6068,61.49068c-0.13642,7.96602 -0.1687,15.93255 0.31434,23.80015c0.3486,5.67795 1.50206,10.97833 1.50904,16.72906c0,0 0,3 -3,3c-3,0 -3,-3 -3,-3c0.00731,-5.61235 -1.1493,-10.75728 -1.49396,-16.30397c-0.31649,-5.09327 -0.41822,-10.22747 -0.4148,-15.37621c-0.62704,0.27004 -1.44,0.32837 -2.43889,-0.17108c-2.68328,-1.34164 -1.34164,-4.02492 -1.34164,-4.02492l1.41314,-2.80941c0.71727,-1.82592 0.7733,-4.08201 2.15182,-5.47777c0.11895,-0.12044 0.24541,-0.22904 0.3783,-0.32758c0.11345,-5.70709 0.24453,-11.40523 0.24453,-17.05861v-4.51652c0,-1.65685 1.34315,-3 3,-3c0.82843,0 1.57843,0.33579 2.12132,0.87868l3.003,3.003l-0.0181,0.0181c0.05478,0.04531 0.10917,0.09118 0.16314,0.13762c2.63938,2.27129 3.44933,6.44198 6.44045,8.22477c1.13818,0.67838 3.24816,-0.51055 3.92502,0.62853c1.14348,1.92434 1.21109,4.60354 0.43063,6.70152c-0.51984,1.3974 -2.62997,1.43497 -3.80082,2.35803c-2.64864,2.08809 -4.91474,4.78348 -7.94358,6.26723c-0.48748,0.2388 -1.06751,0.28067 -1.64293,0.31938zM216.42303,50.23285c-1.91699,-0.90777 -3.97616,-3.33383 -5.51652,-5.55347c-0.03471,3.48218 -0.10536,6.97803 -0.17695,10.47907c0.98272,-0.59554 1.91405,-1.28161 2.80465,-2.00513c1.06172,-0.86253 1.82222,-2.07201 2.88881,-2.92047z" fill="#ffffff" stroke-width="0.5"/><path d="M326.5473,99.76764l-3,0.75075c0.03667,-2.388 -1.08169,-4.65635 -1.46069,-7.01437c-0.07882,-0.49038 -0.10781,-10.67974 -0.10932,-10.99474c-1.86578,-7.34719 -3.92761,-14.62033 -5.88191,-21.94142c-1.19963,-4.494 -2.28588,-9.15913 -4.66645,-13.2499c-0.87548,-1.50442 -1.98899,-2.87717 -3.20504,-4.12255c-1.08409,-1.11024 -2.4187,-1.94489 -3.6463,-2.89404c-0.1478,-0.11428 -0.38312,-0.45555 -0.47713,-0.2941c-0.89605,1.53897 -1.07015,3.43224 -1.98547,4.95983c-2.65972,4.43887 -6.63976,8.61719 -8.88223,13.27004c-1.58198,3.28242 -1.59502,7.15136 -3.0135,10.50768c-1.49505,3.53749 -3.60723,6.94415 -5.88391,10.19541l0.01295,0.00432l-1.47963,4.43888c-0.37701,1.22587 -1.51841,2.11694 -2.86793,2.11694c-1.65685,0 -3,-1.34315 -3,-3v-3.003c0.0637,-4.2325 -1.81962,-8.42936 -2.84038,-12.53919c-1.48661,-3.3418 -2.32797,-7.03861 -4.40333,-10.05034c-1.0622,-1.54145 -2.73273,-2.56382 -4.00368,-3.93824c-1.48127,-1.60186 -2.56413,-3.55187 -3.49165,-5.54188c-0.00367,0.00734 -0.00783,0.01433 -0.01248,0.02095c-0.99712,1.41943 -2.85873,2.14369 -3.69716,3.66226c-0.85987,1.5574 -0.73148,3.48402 -1.19648,5.20118c-0.83742,3.09244 -2.02418,6.07952 -3.03731,9.11893c-0.47498,1.42495 -3.02001,9.06452 -3.07741,9.20838c-2.39527,6.00306 -6.80429,11.45177 -8.8609,17.55923c-0.56564,1.67977 0.08025,3.5443 0.08025,5.31675c0,0 0,3 -3,3c-3,0 -3,-3 -3,-3c0,-0.68649 -0.02175,-6.36507 0.08025,-6.69526c1.99771,-6.46672 6.65913,-12.19527 9.15712,-18.47681c2.2562,-5.67351 4.20526,-11.84794 5.89728,-17.70873c0.61621,-2.13439 0.62911,-4.50185 1.71394,-6.44053c1.10651,-1.97741 2.95413,-3.4577 4.65966,-4.94956c1.25842,-1.10076 2.57408,-3.25872 4.17563,-2.77881c2.64998,0.79407 4.02371,3.80147 5.9294,5.80678c2.25502,2.37291 4.78669,4.53898 6.63221,7.24266c0.25284,0.37041 4.83299,10.82118 5.1294,11.49441c0.56346,2.23991 1.26343,4.41096 1.86189,6.59036c1.41477,-2.40891 2.8409,-4.82486 2.99556,-5.19082c0.49106,-1.16192 2.51984,-9.49153 3.09718,-10.69653c2.32116,-4.84461 6.36476,-9.1454 9.13578,-13.75699c2.42237,-4.03135 2.87991,-9.67652 9.54942,-7.34628c3.78854,1.32367 8.13513,6.34612 10.11813,9.65394c2.69516,4.49575 3.96544,9.77989 5.29854,14.75432c2.03207,7.58266 4.15771,15.10728 6.03753,22.73332c0.04237,3.5888 -0.52037,7.2277 0.07583,10.76689c0.28225,1.6755 0.80314,3.32295 1.16102,4.98664c0.38129,0.75414 0.38129,1.5125 0.38129,1.5125l-0.10917,0.02732c0.06398,0.4885 0.10367,0.97953 0.10917,1.47418z" fill="#ffffff" stroke-width="0.5"/><path d="M437.65541,94.51239c0,3 -3,3 -3,3c-6.00601,0 -13.51351,0 -19.51952,0c-5.53012,0 -10.20534,0.22317 -15.49556,-1.54024c-1.5015,0 -3.02343,0.24685 -4.5045,0c-1.56119,-0.2602 -2.9534,-1.18672 -4.5045,-1.5015c-1.13921,-0.23119 -2.42826,0.36384 -3.48524,-0.11995c-1.23915,-0.56717 -8.68799,-6.5578 -10.08953,-7.52905c-1.19892,-0.83084 -9.60841,-5.88616 -10.49659,-6.61634c-3.69562,-3.0382 -6.38067,-8.62302 -9.33273,-12.36056c-3.90297,-4.94147 -11.01711,-10.18661 -9.61717,-17.35645c1.35878,-6.95905 5.59051,-8.69463 10.63687,-12.85784c0.64449,-0.5317 8.72971,-7.85524 9.18672,-8.16325c0.25258,-0.17023 10.84071,-5.36499 11.25148,-5.56696c1.01015,-0.37949 11.36413,-4.30226 12.11933,-4.44414c1.14256,-0.21466 2.3096,0.27039 3.46025,0.43626c0.80195,0.1156 12.14884,1.86379 12.53853,2.02359c2.06666,0.84747 3.66401,2.55594 5.48302,3.85228c4.86703,3.46853 11.19616,7.7868 13.2284,13.82075c0.57446,1.70563 0.12431,3.59802 0.12863,5.39779c0.01104,4.60758 0.11977,7.26548 -1.8201,11.79303c-0.82923,1.93537 -2.30881,3.52281 -3.39846,5.32445c-1.28098,2.118 -1.68581,5.00932 -3.71165,6.43156c-1.66531,1.16912 -4.05438,0.37268 -6.0877,0.44805c-4.39364,0.16286 -8.28698,-0.90272 -12.16587,1.18478c0,0 -2.68328,1.34164 -4.02492,-1.34164c-1.34164,-2.68328 1.34164,-4.02492 1.34164,-4.02492c4.86087,-2.31112 9.45326,-2.08885 14.84915,-1.81822c0.98787,0.04955 2.1759,1.08418 2.93332,0.44805c1.17643,-0.98805 0.9393,-2.9421 1.65491,-4.30156c0.88247,-1.67645 2.33727,-3.0269 3.11266,-4.75549c1.64613,-3.66977 1.23333,-5.66017 1.31723,-9.43594c0.02676,-1.20421 0.50401,-2.46671 0.12863,-3.61122c-1.50133,-4.57749 -7.43381,-8.08816 -10.99562,-10.69309c-1.42604,-1.04293 -2.61509,-2.49696 -4.2497,-3.16727c-1.63462,-0.67031 -3.502,-0.47095 -5.24988,-0.72822c-2.62731,-0.38672 -5.26715,-1.89903 -7.85766,-1.31458c-3.60677,0.81373 -6.88975,2.68674 -10.35257,3.98282c-3.42201,1.68771 -7.11568,2.90283 -10.2797,5.03531c-3.23693,2.18162 -5.71078,5.33018 -8.72093,7.81536c-3.69066,3.04702 -7.51106,4.30135 -8.53347,9.19138c-0.95356,4.56071 5.99081,9.62238 8.40085,12.67358c2.66741,3.37704 5.31759,8.98124 8.68529,11.66347c3.02259,2.40735 6.67934,3.90267 9.85537,6.10364c2.99949,2.07863 5.29367,5.22814 8.59755,6.778c0.76157,0.35726 1.69537,-0.28227 2.52077,-0.11995c1.55298,0.3054 2.94332,1.2413 4.5045,1.5015c1.48107,0.24685 3.003,0 4.5045,0c5.05691,1.68564 9.24867,1.46276 14.53447,1.46276c6.00601,0 12.01201,0 18.01802,0h1.5015c0,0 3,0 3,3z" fill="#ffffff" stroke-width="0.5"/></g></g></svg>