<svg version="1.1" xmlns="http://www.w3.org/2000/svg" xmlns:xlink="http://www.w3.org/1999/xlink" width="737.23724" height="632.13213" viewBox="0,0,737.23724,632.13213"><g transform="translate(78.85811,91.6738)"><g data-paper-data="{&quot;isPaintingLayer&quot;:true}" fill-rule="nonzero" stroke="none" stroke-linecap="butt" stroke-linejoin="miter" stroke-miterlimit="10" stroke-dasharray="" stroke-dashoffset="0" style="mix-blend-mode: normal"><path d="M-78.85811,540.45833v-632.13213h737.23724v632.13213z" fill="#000000" stroke-width="0"/><path d="M24.7455,49.47035c3,0 3,3 3,3v3.003c-0.07612,0.61832 -0.15224,1.23664 -0.22836,1.85495c4.89166,4.23098 10.26005,2.8867 16.09854,1.22317c1.79484,-0.5114 3.72738,-0.57951 5.44169,-1.31716c1.52277,-0.65523 2.72401,-1.89099 4.11392,-2.79449c5.36494,-3.48743 10.54819,-6.53598 15.28728,-10.93163c3.59658,-3.33594 5.37574,-5.8421 5.83949,-10.55737c0.04876,-0.49579 0.64747,-0.96928 0.44805,-1.42581c-0.46101,-1.05535 -2.30248,-0.09225 -3.45405,-0.07869c-6.29395,0.07408 -11.35503,0.52862 -17.55219,1.76805c-1.7349,0.31807 -3.55708,0.32461 -5.2047,0.95421c-5.40892,2.0669 -7.64531,10.73778 -15.40047,5.40807c-1.42989,-0.98269 -0.74213,-3.4007 -0.87868,-5.13033c-0.34592,-4.38185 -0.447,-9.74576 0.55593,-14.08835c0.59789,-2.58882 0.31592,-5.66445 2.00645,-7.71423c0.70389,-0.85347 6.42276,-0.71094 7.94513,-0.71094c5.51453,0 11.63797,-0.6933 17.08291,0.07061c1.97575,0.27719 3.83908,1.12022 5.80617,1.45337c2.84038,0.48106 5.76163,-0.02248 8.64246,-0.02248c0,0 3,0 3,3c0,3 -3,3 -3,3c-3.1252,0 -6.28992,0.47316 -9.37556,-0.02248c-1.97953,-0.31796 -3.85156,-1.1682 -5.83554,-1.45706c-3.76382,-0.54799 -8.00129,-0.02197 -11.81592,-0.02197c-2.5025,0 -5.04239,0.43093 -7.50751,0c-0.42015,-0.07345 -0.94058,-1.11925 -1.06388,-0.71094c-0.67279,2.22795 -0.29577,4.64524 -0.45085,6.96739c-0.1557,2.3314 0.25084,8.37093 0.01022,10.25706c-0.05269,0.413 -1.27186,0.75076 -0.87868,0.88769c0.49132,0.1711 0.97679,-0.39367 1.39016,-0.70956c1.32686,-1.01398 2.50959,-2.20498 3.80415,-3.25989c1.11743,-0.91058 2.0926,-2.09487 3.42924,-2.63449c2.07396,-0.83728 4.37485,-0.93279 6.56227,-1.39918c6.50237,-1.30047 12.0944,-1.94952 18.72889,-1.88456c3.24693,0.03179 6.17529,-0.40471 8.55796,2.92431c0.89282,1.24743 0.37991,3.04769 0.44805,4.5802c0.28008,6.29953 -3.35957,10.79384 -7.73597,14.9347c-4.95636,4.6896 -10.48596,7.99009 -16.1823,11.62435c-1.6452,1.04963 -3.10428,2.436 -4.89509,3.21151c-1.9581,0.84796 -4.14867,1.00576 -6.20002,1.59327c-4.7991,1.37446 -10.12307,2.72443 -15.22242,1.58594c-3.99497,-0.89193 -5.4164,-3.42599 -8.08839,-6.2762c-0.07612,-1.38368 -0.15224,-2.76737 -0.22836,-4.15105v-3.003c0,0 0,-3 3,-3z" fill="#ffffff" stroke-width="0.5"/><path d="M227.44484,43.41538c0.04596,2.99965 -2.95369,3.04561 -2.95369,3.04561l-2.85679,0.02409c-3.97827,0.99068 -8.11056,1.5107 -12.21019,1.47776c-2.29011,-0.0184 -4.66616,0.4965 -6.86935,-0.12872c-2.90067,-0.82315 -4.98211,-3.49577 -7.78621,-4.60414c-1.86353,-0.7366 -7.23652,-1.98447 -8.62582,-3.80904c-1.28827,-1.69189 -1.75529,-3.90929 -2.1964,-5.98956c-0.28854,-1.36075 -0.38153,-2.84769 0.04152,-4.17281c0.26616,-0.8337 0.54959,-1.5295 0.85184,-2.11268c-0.40919,-0.23737 -0.80554,-0.49552 -1.18651,-0.76947c-0.97116,-0.69834 -1.26886,-2.28447 -2.40276,-2.66539c-1.53524,-0.51575 -3.23556,0.15186 -4.85333,0.22779c0,0 -2.50988,0 -2.9382,-2.29573c-2.33047,0.8836 -4.6485,1.81904 -7.09176,2.25699c-0.91692,0.16436 -1.89096,-0.26901 -2.79429,-0.04152c-1.08527,0.27331 -1.90393,1.29047 -3.003,1.5015c-1.32527,0.25446 -2.83284,-0.73973 -4.04571,-0.14811c-0.54454,0.26562 -0.99811,0.65387 -1.4076,1.10155c1.15672,0.09721 2.30686,0.57015 3.47522,0.64186c1.92549,0.11819 3.85985,-0.08679 5.78733,-0.00755c2.58839,0.10642 5.79395,-1.13295 7.75121,0.56417c2.17413,1.88517 3.2433,5.51345 2.44719,8.27876c-0.57493,1.99703 -3.9103,1.52246 -5.6122,2.71503c-1.73286,1.21426 -2.72868,3.35737 -4.56182,4.41418c-1.14163,0.65815 -2.6412,0.17763 -3.92425,0.47804c-1.57963,0.36985 -3.02954,1.21616 -4.62259,1.5231c-1.74846,0.33688 -3.79231,-1.07274 -5.3385,-0.18962c-1.22926,0.70209 -1.67678,2.50789 -3.003,3.003c-1.76663,0.65953 -3.76837,0.15224 -5.65255,0.22836l-3,-4.5015c0,0 0,-3 3,-3c1.75525,0 2.48353,1.02697 2.78571,1.87918c0.19508,-0.02193 0.38585,-0.06865 0.57074,-0.14932c1.29751,-0.56611 1.71287,-2.42027 3.003,-3.003c2.78019,-1.25576 4.10683,0.34578 6.67351,-0.18962c1.5106,-0.31511 2.87878,-1.15095 4.38642,-1.47991c0.84866,-0.18517 1.87073,0.41761 2.60548,-0.04569c1.5942,-1.00522 2.30416,-3.10684 3.92346,-4.0711c0.97634,-0.58139 2.32815,0.09831 3.39681,-0.28797c0.29231,-0.10566 -0.2692,-0.71957 -0.57984,-0.73025c-5.0994,-0.1754 -10.0901,1.42383 -15.24387,-0.11895l-5.89603,-0.84229c-1.47715,-0.18702 -2.6194,-1.44816 -2.6194,-2.97609c0,-1.16264 0.66138,-2.17082 1.62843,-2.66881l2.93088,-1.58298c1.58673,-1.52797 2.81982,-3.56956 4.80015,-4.52586c1.49048,-0.71975 3.34251,0.18751 4.9633,-0.14811c1.0959,-0.22693 1.91683,-1.23182 3.003,-1.5015c1.03911,-0.258 2.15625,0.1382 3.21172,-0.04152c2.96265,-0.50446 5.68981,-1.93743 8.54087,-2.88779c0,0 2.84605,-0.94868 3.79473,1.89737c0.11172,0.33517 0.17082,0.64402 0.18813,0.92811c1.90295,-0.09397 3.8328,-0.33923 5.61399,0.25137c2.23359,0.74061 3.25644,3.85114 5.55461,4.35697c1.14782,0.25263 3.29398,0.33648 5.28986,0.29651c0.12563,-0.04696 0.25241,-0.09636 0.38034,-0.1484c3.6513,-1.48506 6.62251,-5.24554 10.51051,-6.00601c0.07024,-0.01374 0.14054,-0.027 0.2109,-0.03982l-0.01153,-0.03459l4.43807,-1.47936c0.31704,-0.11398 0.65883,-0.17609 1.01512,-0.17609c1.65685,0 3,1.34315 3,3c0,0.63039 -0.19443,1.21536 -0.5266,1.69823l-2.98025,4.47038l-0.499,-0.33267l-0.58157,1.31359c-1.24311,0.09157 -2.52099,-0.03129 -3.72932,0.27472c-2.16981,0.54951 -3.8135,2.55251 -6.00601,3.003c-0.75565,0.15526 -2.12195,0.2808 -3.68644,0.35163c-1.25119,0.5156 -2.57667,0.92824 -4.02978,1.19139c-0.63953,0.11581 -1.29367,-0.62617 -1.90636,-0.40931c-0.9351,0.33097 -0.28821,1.99638 -0.11743,2.97351c0.17936,1.02622 0.19541,2.1758 0.8066,3.01945c0.39286,0.54229 1.25144,0.47772 1.88469,0.69547c1.49671,0.51465 3.03717,0.90826 4.5045,1.5015c2.616,1.05765 4.5178,3.62226 7.22881,4.40487c1.64364,0.47448 3.41998,-0.11183 5.13065,-0.12872c3.84035,-0.03793 7.707,-0.49579 11.43289,-1.4272l3.54217,-0.07395c0,0 2.99965,-0.04596 3.04561,2.95369z" fill="#ffffff" stroke-width="0.5"/><path d="M272.49024,40.45833c0,3 -3,3 -3,3h-0.00601c-5.7255,0 -11.45125,0.01211 -17.17673,-0.00311c-1.574,-0.00419 -11.45511,0.04772 -12.74447,-0.41427c-2.76591,-0.99105 -6.16826,-2.04699 -7.468,-4.68197c-0.93786,-1.90135 1.06749,-4.18028 2.21829,-5.96084c3.74393,-5.79271 11.53091,-9.46592 16.69479,-13.72569c1.33375,-1.10024 2.25502,-2.77445 3.82056,-3.50828c1.25477,-0.58816 2.76737,-0.15224 4.15105,-0.22836c0,0 3,0 3,3c0,3 -3,3 -3,3c-0.61832,-0.07612 -1.31178,-0.53344 -1.85495,-0.22836c-0.96455,0.54176 -1.35139,1.77094 -2.18545,2.49773c-0.10029,0.08739 -9.55148,7.17333 -9.76561,7.33364c-2.17151,1.62573 -3.98068,3.68873 -6.04891,5.44397c-0.36261,0.30773 -1.7089,0.31235 -1.30844,0.5689c1.42307,0.91164 7.85334,0.86219 8.57814,0.87631c7.6914,0.14981 15.39698,0.03034 23.08972,0.03034h0.00601c0,0 3,0 3,3z" fill="#ffffff" stroke-width="0.5"/><path d="M283.00375,19.44032c1.77597,0 2.50058,1.05135 2.79623,1.90928c0.76488,-0.70826 1.7037,-1.30963 2.27755,-2.16491c2.38188,-3.54999 1.8371,-5.61069 5.08757,-8.11453c3.8152,-2.93885 9.18536,-4.03047 13.86268,-3.64185c1.72709,0.1435 3.83436,-0.27865 5.12432,0.87868c1.11809,1.00312 0.35468,2.99998 0.79843,4.43506c0.33061,1.06921 1.31504,1.89949 1.5015,3.003c0.32673,1.9336 0.40914,3.96517 0,5.88302c-1.06399,4.98743 -3.2865,4.68957 -7.02379,7.63677c-2.75514,2.17269 -2.61153,2.69776 -4.28515,5.8073c-2.53899,1.38503 -6.07282,3.21251 -9.6143,3.96675c0.02297,0.85477 -0.28825,1.9074 -1.6759,2.60122c-2.68328,1.34164 -4.02492,-1.34164 -4.02492,-1.34164c-0.23324,-0.46895 -0.47085,-0.96134 -0.70773,-1.47326c-1.2399,-0.46203 -2.38629,-1.23409 -3.37986,-2.40728c-1.22529,-1.44681 -1.27817,-3.57171 -2.00678,-5.32206c-0.94284,-2.26501 -1.67655,-4.70123 -1.72986,-7.15406v-1.5015c0,0 0,-3 3,-3zM291.25192,33.01375c0.37889,-0.0278 0.66711,-0.05992 0.76084,-0.05992c2.84084,0 4.28405,-1.02407 6.88769,-2.12432c2.08845,-4.62936 5.27459,-5.70961 8.88129,-8.8731c2.74067,-2.40388 -0.3224,-5.56988 -0.67071,-7.83584c-0.08924,-0.58058 0.86857,-0.98774 0.79843,-1.57094c-0.04954,-0.41195 -0.47271,0.80866 -0.88168,0.87868c-1.32214,0.22638 -2.69983,-0.25319 -4.02396,-0.03874c-0.65118,0.10546 -5.12013,1.66248 -6.13739,2.40289c-2.13904,1.55689 -2.42049,4.72183 -3.92144,6.90049c-0.67785,0.98391 -2.19913,1.29673 -2.66509,2.39692c-0.43734,1.03261 0.19221,2.23563 0.22836,3.35645c0.05471,1.69616 0.31305,3.15652 0.74366,4.56742z" fill="#ffffff" stroke-width="0.5"/><path d="M390.74846,15.00865c1.42566,2.6396 -1.21394,4.06526 -1.21394,4.06526l-2.8982,1.5295c-1.48592,1.46295 -2.69051,3.28206 -4.45777,4.38885c-2.64938,1.65924 -5.84206,2.09074 -9.06155,2.13871c-0.01632,0.45077 -0.02615,0.89032 -0.02615,1.31534c0,1.97565 0.26269,10.99063 -0.87868,12.63183c-0.82228,1.18237 -2.93117,0.18278 -4.25497,0.74996c-1.65875,0.71068 -2.81419,2.37107 -4.5045,3.003c-1.20972,0.45226 -2.58091,0.11749 -3.87236,0.12872c-4.3467,0.03782 -8.65098,0.61641 -12.47566,-2.23475c-1.20578,-0.89887 -1.52382,-2.59481 -2.21963,-3.92812c-0.26891,-0.51527 -0.50297,-1.02864 -0.70571,-1.54085c-2.1884,0.99521 -3.61167,-1.13969 -3.61167,-1.13969l-3.37813,-5.29925c0,-1.001 0.3692,-2.07257 0,-3.003c-1.04072,-2.62278 -3.52386,-4.54816 -4.40487,-7.22881c-0.33877,-1.03076 -0.02625,-2.23511 -0.48399,-3.21883c-0.13107,-0.28166 -0.47982,0.4123 -0.76833,0.52754c-1.98886,0.79437 -4.52687,0.73878 -6.00265,2.29078c-1.0669,1.122 -1.66151,2.61305 -2.49226,3.91957c0,0 -0.36434,0.54651 -1.00777,0.95761c0.00998,2.62933 0.01012,5.25871 0.01012,7.8888c0,0 0,3 -3,3c-3,0 -3,-3 -3,-3c0,-5.7339 0.01141,-11.46483 0.07998,-17.1986l1.73717,-3.66041c0,0 1.3395,-2.68435 4.02385,-1.34486c2.68435,1.3395 1.34486,4.02385 1.34486,4.02385l-0.03183,0.05929c1.92818,-1.51074 4.22751,-2.50645 7.37744,-2.85854c1.74387,-0.19493 3.87714,-0.58061 5.23768,0.52754c1.63198,1.32922 1.64629,3.87484 2.51901,5.79018c1.78594,3.91955 4.60414,6.32101 4.60414,10.78921l0.13236,0.18685c0.12947,-2.39933 0.53781,-4.85652 0.88105,-7.44482c1.41832,-0.24999 2.93117,-0.18278 4.25497,-0.74996c1.65875,-0.71068 2.7942,-2.42735 4.5045,-3.003c1.44118,-0.48507 3.07215,-0.35472 4.56161,-0.04847c2.19244,0.45079 3.83659,2.45196 6.00601,3.003c0.74796,0.18999 1.54207,-0.0728 2.31374,-0.08025c0.56577,-0.00546 1.2204,0.02303 1.93376,0.06457c0.02644,-1.41603 -0.04943,-2.76217 -0.349,-3.88282c-0.28902,-1.08119 -1.2896,-1.90409 -1.5015,-3.003c-0.11112,-0.57624 -0.08025,-11.10799 -0.08025,-11.19977c0,0 0,-3 3,-3c3,0 3,3 3,3c0,3.27386 -0.74776,6.61616 -0.08025,9.82125c0.22818,1.09564 1.24419,1.91383 1.5015,3.003c0.39086,1.65442 0.45473,3.55528 0.40306,5.49382c2.16217,-0.05526 4.2165,-0.37772 5.61051,-1.3505c1.57035,-1.09583 2.68501,-2.73095 4.02751,-4.09643l3.63153,-1.99723c0,0 2.6396,-1.42566 4.06526,1.21394zM367.13838,26.97636c-0.52715,-0.01738 -1.04539,-0.03035 -1.55205,-0.03454c-1.231,-0.01019 -2.49726,0.21546 -3.69226,-0.08025c-2.17277,-0.53767 -3.89081,-2.2709 -6.00601,-3.003c-2.37888,-0.82336 -4.29913,2.36034 -5.9489,2.95453c-0.59739,0.21516 -1.16736,-0.49997 -1.75104,-0.74996c1.31041,3.55413 0.48157,6.63062 2.06346,10.05055c0.31075,0.67183 0.19331,1.63096 0.78337,2.07789c1.73598,1.31487 7.38929,0.75465 8.54536,0.76826c0.71246,0.00839 1.4798,0.41184 2.13365,0.12872c1.65601,-0.71704 2.80669,-2.3915 4.5045,-3.003c0.59739,-0.21516 1.45274,1.31048 1.75104,0.74996c0.39864,-0.74908 -0.79029,-1.54526 -0.87868,-2.38919c-0.20834,-1.98912 0,-4 0,-6c0,-0.46005 0.01837,-0.95327 0.04754,-1.46996z" fill="#ffffff" stroke-width="0.5"/><path d="M379.98153,47.34602c2.12132,-2.12132 4.24264,0 4.24264,0l0.72182,0.93954c3.46556,1.86506 6.75749,1.18477 10.67037,1.18478c5.13191,0.00002 9.1723,0.0679 14.17625,-1.38186c1.48334,-0.42976 2.89746,-1.08821 4.39458,-1.46719c0.98465,-0.24925 2.178,0.15928 3.01946,-0.40958c0.37867,-0.256 -0.37752,-0.83258 -0.56627,-1.24887c0.02675,-1.27175 0.10045,-2.54338 0.08025,-3.81525c-0.00609,-0.38373 0.205,-1.01855 -0.15895,-1.14031c-0.73252,-0.24505 -1.57667,0.6029 -2.29516,0.31932c-1.67857,-0.6625 -2.83479,-2.31848 -4.5045,-3.003c-1.20664,-0.49468 -2.92649,0.44371 -3.88778,-0.43755c-1.3182,-1.20845 -0.92035,-3.55752 -2.01373,-4.97263c-0.77302,-1.00048 -2.65629,-0.79506 -3.28859,-1.88991c-0.76718,-1.3284 -0.35757,-3.04885 -0.44805,-4.5802c-0.15347,-2.59742 -0.63739,-7.24782 0.08025,-9.69827c0.46805,-1.59819 1.19052,-3.1931 2.29993,-4.43506c0.74556,-0.83465 2.2109,-0.71088 3.003,-1.5015c0.75005,-0.74865 0.59809,-2.14505 1.37379,-2.86709c5.14238,-4.7867 11.50954,-6.43368 15.53118,0.83736c0.67072,1.21265 0.15224,2.76737 0.22836,4.15105c0,0 0,3 -3,3c-3,0 -3,-3 -3,-3c0.51234,-4.16165 -2.75289,-3.79108 -5.26148,-1.0176c-0.79077,0.87428 -0.79638,2.30461 -1.62922,3.13892c-0.79066,0.79206 -2.14142,0.78723 -3.003,1.5015c-1.4384,1.19247 -0.62282,5.43831 -0.62282,6.88769c0,1.001 0.10075,2.00709 0,3.003c-0.05014,0.49565 -0.78005,1.05438 -0.44805,1.42581c0.65233,0.7298 2.14556,0.31865 2.71741,1.11309c0.80929,1.1243 0.08392,2.98789 0.98927,4.03638c0.4712,0.5457 1.44592,-0.69798 2.11822,-0.43755c1.68274,0.65184 2.83155,2.32645 4.5045,3.003c1.15097,0.46546 2.73713,-0.4509 3.71084,0.31932c3.66431,2.89852 2.86433,6.17806 2.92431,10.05946c-0.18876,1.58571 0.49664,3.56536 -0.56627,4.75713c-0.80605,0.90377 -8.896,3.6453 -10.60397,4.12923c-5.58369,1.58207 -10.14802,1.62112 -15.85378,1.62114c-5.0261,0.00002 -8.76146,0.36516 -13.35365,-1.81822l-2.28118,-2.06346c0,0 -2.12132,-2.12132 0,-4.24264z" fill="#ffffff" stroke-width="0.5"/><path d="M44.26992,204.01515c0.49529,-6.99862 1.25165,-14.02842 1.5015,-21.03904c0.21468,-6.02372 -0.29927,-12.08585 0.00564,-18.10582c0.64445,-12.72358 4.77214,-25.14121 6.01548,-37.76241c0.80641,-8.18588 -0.07034,-16.02787 1.54274,-24.17484c0,0 0.58835,-2.94174 3.53009,-2.35339c2.94174,0.58835 2.35339,3.53009 2.35339,3.53009c-1.6022,7.92417 -0.66872,15.60354 -1.45513,23.58636c-1.23774,12.56438 -5.38524,24.93585 -6.00167,37.59952c-0.28958,5.949 0.21781,11.94098 0.00564,17.89418c-0.24983,7.01014 -0.99763,14.04167 -1.5015,21.03904c0.00193,5.96438 0.0019,11.92877 0.0019,17.89315v6c0,1.65685 -1.34315,3 -3,3c-1.65685,0 -3,-1.34315 -3,-3v-6c0,-6.03562 0.00002,-12.07123 0.0019,-18.10685z" fill="#ffffff" stroke-width="0.5"/><path d="M156.32481,229.49057c-2.84605,0.94868 -3.79473,-1.89737 -3.79473,-1.89737l-1.05097,-3.64723c-3.69635,-2.38195 -6.57018,-3.78725 -9.16544,-7.73627c-1.98073,-3.01394 -3.16033,-10.30427 -4.04033,-13.65788c-1.52472,-5.81055 -3.61915,-11.35908 -5.29854,-17.11559c-1.5373,-5.26947 -1.90004,-11.47494 -4.03183,-16.51641c-1.39352,-3.29554 -3.84584,-6.02954 -5.73412,-9.07403c-0.66822,4.06308 -1.25833,8.29055 -2.49462,12.09801c-3.52501,10.85608 -8.49057,20.94621 -11.45651,31.99918c-0.61974,2.30954 -2.59277,13.2575 -8.96462,10.50453c-2.65648,-1.14774 -2.24575,-5.34505 -3.08946,-8.11315c-2.03595,-6.67966 -1.88456,-13.34575 -1.88456,-20.23039v-3.003c0,0 0,-3 3,-3c3,0 3,3 3,3v3.003c0,3.40497 -0.24658,6.81784 -0.0146,10.2149c0.18854,2.76092 1.33345,5.33304 1.63637,7.97224c0.17889,-0.60581 0.35585,-1.2122 0.50165,-1.82571c0.94783,-3.98819 2.03745,-7.95764 3.47436,-11.79682c2.55248,-6.81976 5.77878,-13.52574 8.0461,-20.43446c1.4926,-4.54807 1.94246,-9.76437 2.89323,-14.45579c-0.00665,-1.91944 0.11041,-3.81033 0.11284,-5.67716c-0.81049,-1.47708 -1.66712,-2.93938 -2.6266,-4.37514c0,0 -1.6641,-2.49615 0.83205,-4.16025c0.04128,-0.02752 0.08234,-0.0539 0.12316,-0.07918c-0.32322,-0.8622 -0.66657,-1.73176 -1.37915,-2.25825c-0.73881,-0.54586 -2.21233,-0.89636 -2.75152,-0.15267c-0.97026,1.33825 -0.10007,3.36836 -0.69738,4.90965c-0.39812,1.02731 -1.43213,1.67502 -2.17114,2.49217c-3.21366,3.55349 -4.72592,4.71127 -7.23345,8.79016c-3.12789,5.08802 -2.63498,9.22754 -3.81154,14.92946c-1.20571,5.84319 -3.07575,11.12335 -3.83534,17.08066c-0.25604,2.00805 -0.44334,4.02622 -0.77227,6.02363c-0.27797,1.68792 -1.28833,3.33047 -1.04705,5.02403c0.23786,1.66951 1.59836,2.96995 2.39754,4.45492c0,0 1.34164,2.68328 -1.34164,4.02492c-2.68328,1.34164 -4.02492,-1.34164 -4.02492,-1.34164c-0.98967,-2.09274 -2.63339,-3.98772 -2.96902,-6.27821c-0.33211,-2.26644 0.73074,-4.52289 1.05398,-6.79061c0.05898,-0.41379 1.49993,-11.79714 1.54806,-12.0378c0.7712,-3.85634 2.32141,-7.52759 3.11586,-11.37921c1.32914,-6.44387 1.01913,-10.93855 4.55803,-16.82469c1.10292,-1.83446 2.41505,-3.54111 3.76837,-5.19948c1.68508,-2.06491 4.41311,-3.37772 5.48451,-5.8181c0.94958,-2.1629 0.21715,-5.46865 2.21305,-6.73206c8.82919,-5.58893 14.35082,3.82663 15.40024,10.67942c0.17606,1.14969 0.17242,2.31378 0.13228,3.48064c1.32893,2.50431 2.58975,5.03607 4.02755,7.54444c0.4558,0.79518 6.27788,9.93433 6.50653,10.47506c2.23317,5.28122 2.65991,11.67141 4.26921,17.18569c1.6935,5.80277 3.79937,11.40135 5.33823,17.25944c0.62881,2.39374 1.75377,9.60765 3.34092,12.02714c1.63126,2.48674 6.7573,5.77404 8.85258,7.27874l1.95203,5.36178c0,0 0.94868,2.84605 -1.89737,3.79473z" fill="#ffffff" stroke-width="0.5"/><path d="M248.46622,192.10998c0,3 -3,3 -3,3l-2.75588,-0.0102c-7.19573,1.22372 -14.36697,2.16339 -21.70205,1.48015c-3.00036,-0.27947 -5.7851,-1.68951 -8.67079,-2.5573c-1.07062,-0.32196 -2.1075,-0.66844 -3.11825,-1.03963c-0.17153,1.3889 -0.34955,2.77761 -0.53455,4.16615c-1.05262,7.90053 -0.70792,16.40692 -2.34077,24.17862c-1.07901,5.13563 -4.19578,10.57856 -6.14032,15.43993c0,0 -1.11417,2.78543 -3.8996,1.67126c-2.78543,-1.11417 -1.67126,-3.8996 -1.67126,-3.8996c1.82524,-4.56311 4.88274,-9.76842 5.87169,-14.5901c1.55526,-7.58279 1.20715,-15.88527 2.23276,-23.59204c0.26011,-1.95458 0.50624,-3.90948 0.7398,-5.86475c-2.69702,-1.35151 -5.30201,-2.91099 -7.99619,-4.68319c-1.64079,-1.07929 -3.11083,-2.4064 -4.76385,-3.46686c-2.06048,-1.32186 -4.80299,-1.78219 -6.36124,-3.67024c-0.97645,-1.18311 -0.2987,-3.05346 -0.44805,-4.5802c0,0 0,-3 3,-3c3,0 3,3 3,3c-0.14935,0.47527 -0.83788,1.11562 -0.44805,1.42581c1.22318,0.97327 3.01181,0.92585 4.37188,1.69632c1.77156,1.00356 3.2463,2.46349 4.94712,3.58276c1.83549,1.20789 3.61645,2.31021 5.41865,3.30537c1.73391,-16.316 2.70179,-32.6623 3.73147,-49.07259c0.00041,-8.50075 0.00295,-17.00149 0.00295,-25.50224v-3.003c0,0 0,-3 3,-3c3,0 3,3 3,3v3.003c0,8.56345 -0.00135,17.12689 -0.0059,25.69034c-1.07496,17.26517 -2.09297,34.46162 -3.98901,51.62497c1.31805,0.52804 2.68266,1.0052 4.1181,1.43097c2.61161,0.77464 5.10609,2.14882 7.82123,2.36935c6.90162,0.56058 13.56927,-0.4168 20.33999,-1.52285l3.25012,-0.0102c0,0 3,0 3,3z" fill="#ffffff" stroke-width="0.5"/><path d="M344.56532,234.15503c3,0 3,3 3,3l-0.44805,4.5802c-1.18985,0.72445 -2.3797,1.4489 -3.56955,2.17334c-2.80881,4.37622 -6.59456,9.30758 -10.91872,12.31493c-1.14563,0.79676 -2.6233,0.9533 -3.94542,1.39973c-10.24392,3.459 -20.92984,2.50751 -30.8362,-1.83374c-2.09315,-0.91728 -4.48786,-1.36133 -6.2516,-2.81457c-2.4091,-1.98498 -4.94916,-7.56513 -5.7884,-10.58965c-1.96679,-7.08808 -0.40644,-10.15197 1.60782,-16.86185c1.59678,-5.31916 3.50892,-10.52051 5.50302,-15.69542c-3.40084,-0.37027 -6.77393,-1.17383 -10.17375,-2.50085c-2.05511,-0.80215 -4.29803,-1.25056 -6.14589,-2.45569c-1.84786,-1.20513 -3.1501,-3.08943 -4.72515,-4.63415c0,0 -2.12132,-2.12132 0,-4.24264c2.12132,-2.12132 4.24264,0 4.24264,0c1.25338,1.28371 2.25736,2.87106 3.76013,3.85113c1.50277,0.98007 3.36647,1.24228 5.04026,1.88827c3.46443,1.33708 6.753,2.11888 10.22407,2.38921c0.56311,-1.4386 1.12591,-2.87775 1.68338,-4.31943c0.92474,-1.54807 5.15128,-8.63085 6.04592,-10.0984c1.7316,-2.8405 3.50642,-6.09698 6.47852,-7.59148c2.45907,-1.23652 4.81016,-3.83489 7.52721,-3.39486c2.0762,0.33625 2.78145,3.24937 3.58249,5.1941c0.46961,1.14012 0.07522,2.46523 0.08025,3.69827c0.02585,6.33917 -0.34131,10.24537 -4.41673,15.20088c-1.49796,1.82145 -2.6619,4.01634 -4.57262,5.39864c-1.13701,0.82256 -2.73557,0.63202 -4.11561,0.88678c-2.77507,0.5123 -5.48799,0.84008 -8.16406,0.94147c-2.20297,5.67771 -4.3561,11.36769 -6.10712,17.20826c-1.67317,5.58091 -3.27441,7.79764 -1.59962,13.44124c0.46661,1.57237 2.42919,6.54759 3.87022,7.67341c1.35189,1.05618 3.19458,1.25257 4.77814,1.91246c6.02777,2.51185 14.67061,4.94107 21.35135,3.43866c1.79503,-0.40368 3.47564,-1.20905 5.22396,-1.78215c0.8895,-0.29158 1.93015,-0.26264 2.6884,-0.81154c3.97322,-2.87625 7.38358,-7.75717 10.1023,-11.70909c0.81215,-0.27655 1.62431,-0.55311 2.43646,-0.82966l-0.44805,-1.42581c0,0 0,-3 3,-3zM301.59283,204.05753c1.62867,-0.19976 3.2273,-0.64622 4.85411,-0.8781c0.68331,-0.0974 1.53321,0.29574 2.06568,-0.14343c2.19359,-1.80925 5.68907,-6.91012 6.0644,-9.90505c0.22878,-1.82558 -0.04848,-3.67962 -0.03874,-5.51945c0.0041,-0.7737 -0.07924,-1.56266 0.08025,-2.31975c0.06854,-0.32535 0.8265,-1.03447 0.57948,-0.8119c-0.9704,0.87438 -1.75445,1.94865 -2.76271,2.77909c-0.52219,0.4301 -1.36246,0.43781 -1.78472,0.96637c-3.29442,4.12386 -5.69841,9.67164 -8.43396,14.20884c-0.20707,0.54154 -0.4151,1.08263 -0.62381,1.62339z" fill="#ffffff" stroke-width="0.5"/><path d="M449.67042,211.6265c-2.6008,0 -2.94688,-2.25472 -2.99293,-2.85478c-1.39628,-0.83504 -2.84521,-1.61196 -3.89569,-2.82875c-2.25376,-2.61056 -2.20417,-6.53758 -3.42305,-9.76385c-1.26259,-3.34198 -2.30445,-6.8263 -4.16979,-9.87318c-1.55363,-2.53774 -4.25,-4.16809 -6.45827,-6.16244c-1.16129,-1.04879 -2.11947,-2.53391 -3.61475,-2.99507c-3.27571,-1.01026 -5.952,2.10712 -8.01445,3.71439c-3.46528,3.47323 -7.22044,7.31573 -9.9654,11.3877c-6.18222,9.17089 -9.00947,20.48882 -13.70319,30.38771c-2.52145,5.31765 -6.29699,10.20481 -8.54718,15.63735c-2.17962,5.26217 -2.27715,11.40789 -4.55689,16.63873c-1.60854,3.69077 -3.9094,7.16324 -6.75108,10.01527c-0.97137,0.97491 -2.43118,1.2905 -3.64677,1.93575c0,0 -2.68328,1.34164 -4.02492,-1.34164c-1.34164,-2.68328 1.34164,-4.02492 1.34164,-4.02492c2.28827,-1.03515 3.79706,-3.37597 5.17669,-5.47462c4.08343,-6.21158 4.10343,-13.2262 6.89559,-19.98968c2.29407,-5.55694 6.11558,-10.53436 8.6915,-15.96689c4.8202,-10.16564 7.76843,-21.66961 14.10318,-31.10115c3.0475,-4.53729 7.19381,-8.78202 11.05562,-12.63633c1.88045,-1.37167 3.45771,-3.30921 5.64134,-4.11501c7.22896,-2.66762 8.52322,-0.96357 13.81677,3.36684c5.11413,4.18363 7.54574,7.35213 10.15097,13.35365c1.54959,3.5697 2.96478,7.20688 4.12697,10.92081c0.25165,0.80419 0.07056,1.82691 0.64371,2.44461c1.00736,1.08567 2.52299,1.55189 3.78449,2.32783l1.3359,3.99765c0,0 0,3 -3,3z" fill="#ffffff" stroke-width="0.5"/></g></g></svg>