<svg version="1.1" xmlns="http://www.w3.org/2000/svg" xmlns:xlink="http://www.w3.org/1999/xlink" width="715" height="586" viewBox="0,0,715,586"><g transform="translate(42.5,36.75)"><g data-paper-data="{&quot;isPaintingLayer&quot;:true}" fill-rule="nonzero" stroke-linejoin="miter" stroke-miterlimit="10" stroke-dasharray="" stroke-dashoffset="0" style="mix-blend-mode: normal"><path d="M-27.75,548.25v-584h584v584z" fill="#00fff9" stroke="#000000" stroke-width="2" stroke-linecap="butt"/><path d="M-41.5,34l713,222" fill="none" stroke="#000000" stroke-width="2" stroke-linecap="round"/><g><path d="M281.99718,121.71898c0.27386,6.34537 -8.00281,11.8561 -18.48646,12.30856c-10.48365,0.45246 -19.20434,-4.32467 -19.4782,-10.67004c-0.27386,-6.34537 9.26059,-5.9048 19.74424,-6.35726c10.48365,-0.45246 17.94655,-1.62663 18.22041,4.71874z" fill="none" stroke="#000000" stroke-width="2" stroke-linecap="butt"/><g><path d="M234.21491,258.84577c0,0 4.81402,-21.26304 8.60262,-37.99693c4.8663,-21.49397 13.00276,-56.80795 21.0348,-92.28462" fill="none" stroke="#000000" stroke-width="2" stroke-linecap="round"/><path d="M235.32542,253.65416l-12.70319,61.2714" fill="none" stroke="#000000" stroke-width="2" stroke-linecap="round"/><path d="M225.34982,319.67342l-7.83074,-1.63696l7.36629,-35.2383l7.83074,1.63696z" fill="#797979" stroke="#000000" stroke-width="2" stroke-linecap="butt"/><g><path d="M241.7295,259.02191c-0.35721,-8.27657 6.0627,-15.27562 14.33927,-15.63283c8.27657,-0.35721 15.27562,6.0627 15.63283,14.33927c0.35721,8.27657 -6.0627,15.27562 -14.33927,15.63283c-8.27657,0.35721 -15.27562,-6.0627 -15.63283,-14.33927z" fill="#c19f67" stroke="#000000" stroke-width="2" stroke-linecap="butt"/><path d="M263.03922,258.72702c-0.02253,0.06354 -0.05132,0.12422 -0.08566,0.18125c-0.39138,0.79504 -0.90686,1.40143 -1.55867,1.51625c-0.6247,0.11005 -0.88101,-0.91299 -1.33268,-1.35835c-1.2783,-1.26044 -1.87278,-2.63914 -2.32342,-4.3693c-1.52322,0.14449 -3.05317,0.44598 -4.56817,0.29643c-2.76721,-0.27315 -5.42589,-1.24144 -8.17393,-1.66612c0,0 -2.47031,-0.38413 -2.08618,-2.85444c0.14034,-0.9025 0.55913,-1.424 1.03417,-1.72245c0.26142,-1.22235 1.54055,-1.751 1.54055,-1.751c3.02604,-1.25022 6.5053,-2.95393 9.99372,-3.32671c2.56638,-0.80884 6.18247,0.09821 7.9569,0.94715c1.37289,0.65683 2.18788,1.36676 2.77551,2.20781l0.02072,-0.01977l1.82625,1.91391c0.40854,0.4237 0.66995,0.99255 0.69733,1.62682c0.00052,0.01216 0.00097,0.0243 0.00131,0.03643c0.70179,0.08258 2.14805,0.48215 2.22951,2.36962c0.1078,2.49767 -2.38988,2.60547 -2.38988,2.60547l-1.99814,0.08624c-0.90198,0.03035 -1.79977,-0.04827 -2.69566,-0.17023c-0.08858,0.96748 -0.36677,2.35655 -0.86357,3.451z" fill="#000000" stroke="none" stroke-width="0.5" stroke-linecap="butt"/><path d="M248.50108,256.47756l-0.28394,5.01691" fill="none" stroke="#ffffff" stroke-width="2" stroke-linecap="round"/><path d="M253.76593,262.50615l0.05573,-4.50659" fill="none" stroke="#ffffff" stroke-width="2" stroke-linecap="round"/><path d="M256.28516,262.89789l-1.92268,1.83461" fill="none" stroke="#ffffff" stroke-width="1" stroke-linecap="round"/><path d="M245.23071,261.87359l1.84539,2.17245" fill="none" stroke="#ffffff" stroke-width="1" stroke-linecap="round"/><path d="M254.20434,266.8663c0.04465,1.03457 -1.96776,0.96074 -3.20925,1.01432c-1.24148,0.05358 -2.2841,-0.74167 -2.32876,-1.77624c-0.04465,-1.03457 0.92558,-1.91669 2.16706,-1.97027c1.24148,-0.05358 3.32629,1.69762 3.37094,2.73219z" fill="#000000" stroke="none" stroke-width="0" stroke-linecap="butt"/><path d="M264.92934,302.29829c-0.7695,11.7108 -6.14004,20.89237 -11.99544,20.50762c-5.8554,-0.38475 -9.97834,-10.19012 -9.20884,-21.90092c0.7695,-11.7108 6.14004,-20.89237 11.99544,-20.50762c5.8554,0.38475 9.97834,10.19012 9.20884,21.90092z" fill="#ff0000" stroke="#000000" stroke-width="2" stroke-linecap="butt"/><path d="M233.6625,237.34959c-0.1786,-4.13829 3.03134,-7.63781 7.16963,-7.81642c4.13829,-0.1786 7.63781,3.03134 7.81642,7.16963c0.1786,4.13829 -3.03134,7.63781 -7.16963,7.81642c-4.13829,0.1786 -7.63781,-3.03134 -7.81642,-7.16963z" fill="#ff0000" stroke="#000000" stroke-width="2" stroke-linecap="butt"/><path d="M236.30215,234.73334c-0.19051,-4.41417 3.23344,-8.147 7.64761,-8.33751c4.41417,-0.19051 8.147,3.23344 8.33751,7.64761c0.19051,4.41417 -3.23344,8.147 -7.64761,8.33751c-4.41417,0.19051 -8.147,-3.23344 -8.33751,-7.64761z" fill="#ff0000" stroke="#000000" stroke-width="2" stroke-linecap="butt"/><path d="M247.533,331.44738c2.6283,1.0505 3.22194,5.74767 1.32593,10.49142c-1.89601,4.74377 -5.56369,7.73775 -8.19199,6.68726c-2.6283,-1.0505 -3.22194,-5.74767 -1.32593,-10.49142c1.89601,-4.74377 5.56369,-7.73775 8.19199,-6.68726z" fill="#ff0000" stroke="#000000" stroke-width="2" stroke-linecap="butt"/><path d="M263.40753,340.95505c0.24112,5.58668 -1.96765,10.21935 -4.93342,10.34735c-2.96577,0.128 -5.56546,-4.29714 -5.80658,-9.88382c-0.24112,-5.58668 1.96765,-10.21935 4.93342,-10.34735c2.96577,-0.128 5.56546,4.29714 5.80658,9.88382z" fill="#ff0000" stroke="#000000" stroke-width="2" stroke-linecap="butt"/></g><path d="M213.73781,315.86508c-0.22028,-5.10388 3.73867,-9.41997 8.84255,-9.64025c5.10388,-0.22028 9.41997,3.73867 9.64025,8.84255c0.22028,5.10388 -3.73867,9.41997 -8.84255,9.64025c-5.10388,0.22028 -9.41997,-3.73867 -9.64025,-8.84255z" fill="#000000" stroke="#3eff00" stroke-width="2" stroke-linecap="butt"/></g></g><g stroke="#00ff08" stroke-width="2"><g><path d="M171.76221,323.61139c-1.45134,-8.99639 4.66512,-17.46593 13.66149,-18.91728c8.99639,-1.45134 17.46593,4.66512 18.91728,13.66149c1.45134,8.99639 -4.66512,17.46593 -13.66149,18.91728c-8.99639,1.45134 -17.46593,-4.66512 -18.91728,-13.66149z" fill="#000000" stroke-linecap="butt"/><path d="M199.41027,323.37161l-0.23381,-7.72808" fill="none" stroke-linecap="round"/><path d="M194.68609,315.01737l0.01091,8.43932" fill="none" stroke-linecap="round"/><path d="M196.55438,314.04068l-5.13799,-2.54754" fill="none" stroke-linecap="round"/><path d="M197.4678,328.07434c0,0 -2.71545,-1.15415 -3.49421,-1.87223c-0.65356,-0.60262 -1.90924,-2.3207 -1.90924,-2.3207" fill="none" stroke-linecap="round"/></g><path d="M179.78962,330.03886c3.42568,5.1835 -3.4153,15.74193 -15.27974,23.58292c-11.86445,7.84099 -24.25955,9.99531 -27.68522,4.81183c-3.42568,-5.1835 3.4153,-15.74193 15.27974,-23.58292c11.86445,-7.84099 24.25955,-9.99531 27.68522,-4.81183z" fill="#000000" stroke-linecap="butt"/><path d="M125.27707,346.271c0.45516,-5.50406 5.28606,-9.597 10.79013,-9.14184c5.50406,0.45516 9.597,5.28606 9.14184,10.79013c-0.45516,5.50406 -5.28606,9.597 -10.79013,9.14184c-5.50406,-0.45516 -9.597,-5.28606 -9.14184,-10.79013z" fill="#000000" stroke-linecap="butt"/></g></g></g></svg>