<svg version="1.1" xmlns="http://www.w3.org/2000/svg" xmlns:xlink="http://www.w3.org/1999/xlink" width="521.75" height="194.88797" viewBox="0,0,521.75,194.88797"><g transform="translate(38,-62.15479)"><g data-paper-data="{&quot;isPaintingLayer&quot;:true}" fill-rule="nonzero" stroke-linecap="butt" stroke-linejoin="miter" stroke-miterlimit="10" stroke-dasharray="" stroke-dashoffset="0" style="mix-blend-mode: normal"><g fill="#ffffff"><path d="M-3,233.5v-107h486v107z" stroke="#000000" stroke-width="1.5"/><path d="M-12.5,232v-104h20v104z" stroke="none" stroke-width="0"/></g><g stroke="none" stroke-width="0.5"><path d="M27.5238,170.45776c-0.23388,-10.08574 -0.73166,-20.27993 2.45277,-29.83321c-0.13624,-10.97126 -1.79628,-23.70073 0,-34.51152c1.41888,-8.5395 5.86115,-14.95993 9.71368,-22.31268c3.90622,-7.45521 -2.18196,-20.54475 12.06935,-21.63095c6.03595,-0.46004 10.82266,10.07336 13.65127,13.60911c6.49274,8.11594 11.90878,17.17011 18.40614,25.30845c5.16683,6.47176 12.16352,12.12393 18.02516,17.98558c9.00118,9.00118 30.98631,20.43806 24.25455,36.17837c-5.71052,13.35242 -19.33567,6.34353 -29.70118,8.07802c-9.86783,1.65122 -19.6077,7.29819 -28.63017,11.14027c-9.37048,3.99028 -18.90767,6.10328 -28.72456,6.92569c-0.2238,1.55143 -1.22331,5.01599 -5.68736,5.01599c-4.19488,0 -5.33043,-3.05931 -5.63783,-4.71563c-1.65632,-0.30739 -4.71563,-1.44295 -4.71563,-5.63783c0,-4.03772 2.83439,-5.24105 4.5238,-5.59967z" fill="#ff0000"/><path d="M69.26239,148.36827c-5.59902,1.31742 -6.91643,-4.2816 -6.91643,-4.2816c-3.68876,-15.67725 -8.95843,-38.07332 -12.64719,-53.75057c0,0 -1.31742,-5.59902 4.2816,-6.91643c5.59902,-1.31742 6.91643,4.2816 6.91643,4.2816c3.68876,15.67725 7.37753,31.3545 11.06629,47.03175l1.5809,6.71882c0,0 1.31742,5.59902 -4.2816,6.91643z" fill="#ffffff"/><path d="M65.63008,160.87901c-0.72759,-3.09225 1.18935,-6.18885 4.2816,-6.91643c3.09225,-0.72759 6.18885,1.18935 6.91643,4.2816c0.72759,3.09225 -1.18935,6.18885 -4.2816,6.91643c-3.09225,0.72759 -6.18885,-1.18935 -6.91643,-4.2816z" fill="#ffffff"/></g><text transform="translate(146.5,168) scale(1.02004,1.02004)" font-size="40" xml:space="preserve" fill="#ff0000" fill-rule="nonzero" stroke="none" stroke-width="1" stroke-linecap="butt" stroke-linejoin="miter" stroke-miterlimit="10" stroke-dasharray="" stroke-dashoffset="0" font-family="&quot;ヒラギノ角ゴ Pro W3&quot;, &quot;Hiragino Kaku Gothic Pro&quot;, Osaka, &quot;メイリオ&quot;, Meiryo, &quot;ＭＳ Ｐゴシック&quot;, &quot;MS PGothic&quot;" font-weight="normal" text-anchor="start" style="mix-blend-mode: normal"><tspan x="0" dy="0">Warning!</tspan></text><text transform="translate(58.5,197) scale(0.5,0.5)" font-size="40" xml:space="preserve" fill="#000000" fill-rule="nonzero" stroke="none" stroke-width="1" stroke-linecap="butt" stroke-linejoin="miter" stroke-miterlimit="10" stroke-dasharray="" stroke-dashoffset="0" font-family="&quot;ヒラギノ角ゴ Pro W3&quot;, &quot;Hiragino Kaku Gothic Pro&quot;, Osaka, &quot;メイリオ&quot;, Meiryo, &quot;ＭＳ Ｐゴシック&quot;, &quot;MS PGothic&quot;" font-weight="normal" text-anchor="start" style="mix-blend-mode: normal"><tspan x="0" dy="0">This game is not recommended in full screen</tspan><tspan x="0" dy="46.150000000000006px">mode due to lagging and the game breaking.</tspan></text><text transform="translate(255.5,250.29276) scale(0.5,0.5)" font-size="40" xml:space="preserve" fill="#ffffff" fill-rule="nonzero" stroke="none" stroke-width="1" stroke-linecap="butt" stroke-linejoin="miter" stroke-miterlimit="10" stroke-dasharray="" stroke-dashoffset="0" font-family="&quot;ヒラギノ角ゴ Pro W3&quot;, &quot;Hiragino Kaku Gothic Pro&quot;, Osaka, &quot;メイリオ&quot;, Meiryo, &quot;ＭＳ Ｐゴシック&quot;, &quot;MS PGothic&quot;" font-weight="normal" text-anchor="start" style="mix-blend-mode: normal"><tspan x="0" dy="0">Press space to continue</tspan></text><path d="M-38,169c0,-1.38071 1.11929,-2.5 2.5,-2.5c1.38071,0 2.5,1.11929 2.5,2.5c0,1.38071 -1.11929,2.5 -2.5,2.5c-1.38071,0 -2.5,-1.11929 -2.5,-2.5z" fill="none" stroke="none" stroke-width="0.5"/></g></g></svg>