<svg version="1.1" xmlns="http://www.w3.org/2000/svg" xmlns:xlink="http://www.w3.org/1999/xlink" width="521.75" height="216.63527" viewBox="0,0,521.75,216.63527"><g transform="translate(38,-40.40748)"><g data-paper-data="{&quot;isPaintingLayer&quot;:true}" fill-rule="nonzero" stroke-linejoin="miter" stroke-miterlimit="10" stroke-dasharray="" stroke-dashoffset="0" style="mix-blend-mode: normal"><g fill="#ffffff" stroke-linecap="butt"><path d="M-3,233.5v-107h486v107z" stroke="#000000" stroke-width="1.5"/><path d="M-12.5,232v-104h20v104z" stroke="none" stroke-width="0"/></g><text transform="translate(255.5,250.29276) scale(0.5,0.5)" font-size="40" xml:space="preserve" fill="#ffffff" fill-rule="nonzero" stroke="none" stroke-width="1" stroke-linecap="butt" stroke-linejoin="miter" stroke-miterlimit="10" stroke-dasharray="" stroke-dashoffset="0" font-family="&quot;ヒラギノ角ゴ Pro W3&quot;, &quot;Hiragino Kaku Gothic Pro&quot;, Osaka, &quot;メイリオ&quot;, Meiryo, &quot;ＭＳ Ｐゴシック&quot;, &quot;MS PGothic&quot;" font-weight="normal" text-anchor="start" style="mix-blend-mode: normal"><tspan x="0" dy="0">Press space to continue</tspan></text><path d="M-38,169c0,-1.38071 1.11929,-2.5 2.5,-2.5c1.38071,0 2.5,1.11929 2.5,2.5c0,1.38071 -1.11929,2.5 -2.5,2.5c-1.38071,0 -2.5,-1.11929 -2.5,-2.5z" fill="none" stroke="none" stroke-width="0.5" stroke-linecap="butt"/><text transform="translate(39.3936,174.83245) scale(0.44789,0.44789)" font-size="40" xml:space="preserve" fill="#000000" fill-rule="nonzero" stroke="none" stroke-width="1" stroke-linecap="butt" stroke-linejoin="miter" stroke-miterlimit="10" stroke-dasharray="" stroke-dashoffset="0" font-family="&quot;ヒラギノ角ゴ Pro W3&quot;, &quot;Hiragino Kaku Gothic Pro&quot;, Osaka, &quot;メイリオ&quot;, Meiryo, &quot;ＭＳ Ｐゴシック&quot;, &quot;MS PGothic&quot;" font-weight="normal" text-anchor="start" style="mix-blend-mode: normal"><tspan x="0" dy="0">If you haven't played the first game in this series</tspan><tspan x="0" dy="46.15px">I highly recommend doing so to understand this game.</tspan></text><path d="M294.28484,95.57219c0,30.46662 -24.53976,55.16471 -54.81108,55.16471c-30.27132,0 -54.81109,-24.69808 -54.81109,-55.1647c0,-30.46662 24.53976,-55.16471 54.81109,-55.16471c30.27133,0 54.81108,24.69808 54.81108,55.16471z" fill="#ffb315" stroke="none" stroke-width="0" stroke-linecap="butt"/><path d="M239.12014,49.6016v69.3095" fill="none" stroke="#ffffff" stroke-width="5" stroke-linecap="round"/><path d="M239.82738,134.47038c0,1.17179 -0.63328,2.12172 -1.41448,2.12172c-0.7812,0 -1.41448,-0.94993 -1.41448,-2.12172c0,-1.17179 0.63328,-2.12172 1.41448,-2.12172c0.7812,0 1.41448,0.94993 1.41448,2.12172z" fill="none" stroke="#ffffff" stroke-width="5" stroke-linecap="butt"/></g></g></svg>