<svg version="1.1" xmlns="http://www.w3.org/2000/svg" xmlns:xlink="http://www.w3.org/1999/xlink" width="66.65328" height="64.15053" viewBox="0,0,66.65328,64.15053"><g transform="translate(-194.34672,-133.48647)"><g data-paper-data="{&quot;isPaintingLayer&quot;:true}" fill-rule="nonzero" stroke-linejoin="miter" stroke-miterlimit="10" stroke-dasharray="" stroke-dashoffset="0" style="mix-blend-mode: normal"><g><path d="M215.5,174.00001c0,-12.15026 9.84974,-22 22,-22c12.15026,0 22,9.84974 22,22c0,12.15026 -9.84974,22 -22,22c-12.15026,0 -22,-9.84974 -22,-22z" fill="#000000" stroke="#23ff76" stroke-width="2" stroke-linecap="butt"/><path d="M247.41667,169.637v10.66666" fill="none" stroke="#41ff00" stroke-width="3" stroke-linecap="round"/><path d="M236.75001,169.637v10" fill="none" stroke="#00ff15" stroke-width="3" stroke-linecap="round"/><path d="M246.75001,183.97032c0,0 -2.54661,0.91385 -4.04902,1.02942c-1.37521,0.10579 -4.61765,-0.36274 -4.61765,-0.36274" fill="none" stroke="#00f338" stroke-width="3" stroke-linecap="round"/><path d="M216,174.637c0,-12.15026 9.84974,-22 22,-22c12.15026,0 22,9.84974 22,22c0,12.15026 -9.84974,22 -22,22c-12.15026,0 -22,-9.84974 -22,-22z" fill="none" stroke="#00ff53" stroke-width="2" stroke-linecap="butt"/></g><g><path d="M195.34672,156.48647c0,-12.15026 9.84974,-22 22,-22c12.15026,0 22,9.84974 22,22c0,12.15026 -9.84974,22 -22,22c-12.15026,0 -22,-9.84974 -22,-22z" fill="#c99d81" stroke="#000000" stroke-width="2" stroke-linecap="butt"/><path d="M227.76338,151.8198v10.66666" fill="none" stroke="#000000" stroke-width="3" stroke-linecap="round"/><path d="M217.09672,151.8198v10" fill="none" stroke="#000000" stroke-width="3" stroke-linecap="round"/><path d="M227.09672,166.15312c0,0 -2.54661,0.91385 -4.04902,1.02942c-1.37521,0.10579 -4.61765,-0.36274 -4.61765,-0.36274" fill="none" stroke="#000000" stroke-width="3" stroke-linecap="round"/><path d="M196.34671,156.8198c0,-12.15026 9.84974,-22 22,-22c12.15026,0 22,9.84974 22,22c0,12.15026 -9.84974,22 -22,22c-12.15026,0 -22,-9.84974 -22,-22z" fill="none" stroke="#000000" stroke-width="2" stroke-linecap="butt"/><path d="M236.625,146.54393c1.38071,0 2.5,1.11929 2.5,2.5c0,1.38071 -1.11929,2.5 -2.5,2.5c-0.58643,0 -1.1257,-0.20192 -1.55208,-0.54002c-0.14533,0.02629 -0.29502,0.04002 -0.44792,0.04002c-0.16973,0 -0.33551,-0.01692 -0.49574,-0.04915l-2.68898,-0.4889c-3.01976,-0.51154 -4.88034,0.03806 -7.81528,0.03806c-3.25283,0 -6.46731,-0.95909 -9.68066,0.50975c-0.90073,0.41173 -1.3471,1.63035 -2.30769,1.8714c-4.21859,1.05861 -5.19189,-2.19367 -8.75102,-2.64264c-1.61521,-0.20375 -2.09111,0.52649 -3.47439,1.40521c0,0 -2.14373,1.28624 -3.42997,-0.85749c-1.28624,-2.14373 0.85749,-3.42998 0.85749,-3.42998c0.80362,-0.46328 1.41201,-0.86184 1.95727,-1.18564l1.55713,-2.14105l0.03974,0.0289c0.02499,-0.05748 0.05052,-0.11478 0.07659,-0.17187c0.13237,-0.66306 0.3991,-1.41063 0.81667,-2.26018c0.5584,-1.13611 2.0817,-1.44524 3.17251,-2.08768c0.1124,-0.0662 0.22485,-0.13234 0.33733,-0.19844c1.22332,-0.95312 2.4551,-1.72553 3.33962,-1.9845c0.91502,-0.55998 1.81982,-1.13581 2.70422,-1.74249l0.62347,-0.42658c0,0 1.64141,-1.12306 2.99788,0.09821c1.13565,-0.69448 2.34789,-1.27687 3.56653,-1.78304c3.80913,1.19972 7.18435,3.04886 10.90864,4.38342c0.94872,0.33997 2.16138,0.06234 2.941,0.70097c1.32298,1.08372 3.16016,2.46127 2.99766,4.16371c-0.02245,0.23514 -0.06862,0.46787 -0.13567,0.69664c0.28582,0.35893 0.52865,0.74789 0.7113,1.15988c0.04316,0.09737 0.08396,0.19552 0.12258,0.29437l0.03786,-0.01893l0.813,1.62599c0.06628,-0.00527 0.13329,-0.00795 0.20093,-0.00795z" fill="#000000" stroke="none" stroke-width="0.5" stroke-linecap="butt"/></g></g></g></svg>