<svg version="1.1" xmlns="http://www.w3.org/2000/svg" xmlns:xlink="http://www.w3.org/1999/xlink" width="619" height="422" viewBox="0,0,619,422"><g transform="translate(109.5,55)"><g data-paper-data="{&quot;isPaintingLayer&quot;:true}" fill="none" fill-rule="nonzero" stroke="#ffffff" stroke-width="2" stroke-linecap="round" stroke-linejoin="miter" stroke-miterlimit="10" stroke-dasharray="" stroke-dashoffset="0" style="mix-blend-mode: normal"><path d="M-108.5,-54l89,33"/><path d="M-60.5,34l101,34"/><path d="M-98.5,104l52,16"/><path d="M61.5,-27l112,44"/><path d="M78.5,127l69,19"/><path d="M-18.5,193l101,34"/><path d="M195.5,61l106,50"/><path d="M186.5,293l139,40"/><path d="M-103.5,205l90,43"/><path d="M168.5,186l107,32"/><path d="M202.5,-34l117,39"/><path d="M268.5,156l133,43"/><path d="M313.5,67l114,53"/><path d="M425.5,303l-84,-38"/><path d="M192.5,366l-109,-61"/><path d="M508.5,192l-107,-34"/><path d="M504.5,56l-89,-32"/></g></g></svg>