<svg version="1.1" xmlns="http://www.w3.org/2000/svg" xmlns:xlink="http://www.w3.org/1999/xlink" width="538" height="389" viewBox="0,0,538,389"><g transform="translate(48.5,17)"><g data-paper-data="{&quot;isPaintingLayer&quot;:true}" fill="none" fill-rule="nonzero" stroke="#ffffff" stroke-width="2" stroke-linecap="round" stroke-linejoin="miter" stroke-miterlimit="10" stroke-dasharray="" stroke-dashoffset="0" style="mix-blend-mode: normal"><path d="M41.5,17l-89,-33"/><path d="M0.5,72l101,34"/><path d="M-37.5,142l52,16"/><path d="M122.5,11l112,44"/><path d="M139.5,165l69,19"/><path d="M42.5,231l101,34"/><path d="M362.5,149l-106,-50"/><path d="M386.5,371l-139,-40"/><path d="M-42.5,243l90,43"/><path d="M229.5,224l107,32"/><path d="M263.5,4l117,39"/><path d="M329.5,194l133,43"/><path d="M374.5,105l114,53"/><path d="M486.5,341l-84,-38"/></g></g></svg>